<svg version="1.2" xmlns="http://www.w3.org/2000/svg" viewBox="0 0 781 843" width="781" height="843"><style>.a{fill:#f5daab}.b{fill:#edc888}.c{fill:#d19d77}.d{fill:#fff4e0}.e{fill:#4e3828}</style><path class="a" d="m741.8 766.1c-4.6 1.4-9.3 2.3-14.1 2.5-0.5 0.1-1.3 0-1.4-0.6 5.6-3.7 12.8-3.9 18.5-7.5 3-1.8 5.4-4.6 8.6-6.3q0.1 0 0.2-0.1c10.9-26.4 14-56 15.7-85.1-1.1 0.2-2.2 0.6-3.1 1.3-0.6 0.5-1.2 1.1-1.8 1.5-1 0.5-2.2 0.6-3.2 0.2-0.4-0.1-0.8-0.3-1.2-0.3-0.7 0-1.2 0.7-1.6 1.3-1.5 2-3.8 3.3-6.3 4-2.4 0.6-4.9 0.7-7.5 0.8 2.8-0.5 3.8-4 6.4-5.1 1-0.5 2.1-0.5 3.2-0.8 3.7-1.3 4.8-6 7.9-8.3 0.5-0.3 1-0.6 1.6-0.7 0.6 0 1.3 0.3 1.9 0.2 1.4-0.1 2.1-1.6 3.3-2.2q0.4-0.2 0.8-0.3 0.2-3.1 0.3-6.1c0.4-8.1 0.7-16.2 1-24.3-0.7 0-1.5 0-2.2 0.1-4.1 0.4-7.2 4.1-11.2 4.9-0.6 0.1-1.2 0.1-1.6 0.5-0.3 0.3-0.5 0.8-0.6 1.2q-0.6 2.2-1.2 4.4c-1.7-1.7-4.2-2.8-6.6-2.9-1.8-0.1-3.5 0.2-5.2 0.4-4.3 0.6-8.6 0.5-12.9-0.2q5.1-0.7 10.1-1.4c1.5-0.2 3-0.4 4.4-1.1 1.5-0.7 2.7-2 4-3 3.8-3.1 9-4.4 12-8.3 1-1.4 1.7-3.1 2.7-4.5 1-1.5 2.5-2.7 4.3-2.7 0.6 0 1.3 0.1 1.9 0.2 0.9 0 1.8-0.2 2.6-0.5q0.6-12.6 1-25.2-4.2 1.8-8.5 3.6c-1.5 0.6-3.1 1.3-4.7 1.5-1.5 0.2-3.1 0.1-4.6 0.2-2.1 0.2-4.1 1-6.2 1.4-4.7 1-9.5 0.4-14.2-0.6l17.3-3.1c2.5-0.4 5-0.9 7.4-1.7 1.8-0.7 3.4-1.5 5.1-2.4q4.3-2.2 8.6-4.5 0.5-11.4 0.9-22.8c-2.6 1.6-6 2.1-8.5 4 0.9-2.8 2-5.6 4-7.8 1.2-1.2 2.6-2.2 3.8-3.4q0.5-0.5 1-1.1 0-1.6 0.1-3.2-3 1-5.9 2c-0.8 0.2-1.7 0.5-2.5 0.5-0.6 0-1.2-0.1-1.7-0.1-0.9-0.1-1.7 0-2.5 0.1-3.5 0.4-7 0.3-10.4-0.5q6.5-1.8 13.2-2.8c2.6-0.4 5.6-0.8 7.3-2.9 0.5-0.7 0.8-1.4 1.3-2 0.4-0.5 0.9-0.8 1.4-1.1q0.5-14.8 0.9-29.6-0.1 0.1-0.3 0.1c-0.8 0-1.6-0.1-2.4 0-2.4 0.2-4.2 2.1-6.3 3.1-0.3 0.2-0.8 0.2-1-0.1 1-1.7 2.2-3.2 3.6-4.6q-6.1-0.1-12.1 0.6c4.5-3.2 11.2-1.8 15.4-5.4 1.3-1 2.2-2.4 3.2-3.6q0.1-0.1 0.3-0.2 0.2-5.8 0.3-11.7c-1.1 0.7-2.9 0.6-4.3 0.3-2-0.5-4.5-0.9-5.8 0.8-1 1.4-0.8 4-2.5 4.2-0.6 0.1-1.2-0.2-1.8-0.4-1.3-0.4-2.8-0.1-3.8 0.8-0.6 0.7-0.9 1.6-1.3 2.4-0.9 2-2.2 4.1-4.3 4.8-2.1 0.7-5-1-4.6-3.2 0.1-0.8 0.6-1.4 0.8-2.2 0.1-0.8-0.3-1.8-1.1-1.8-0.3 0-0.6 0.2-1 0.2-1 0.1-1.6-1-1.6-2-0.1-1 0-2-0.6-2.8-0.7-1-2.2-0.9-3.3-0.4-1.1 0.5-2 1.4-3.1 1.8-1.1 0.4-2.7 0.2-3.1-0.9-0.6-1.3 0.4-3.4-1-3.8-0.2-0.1-0.5-0.1-0.8 0-1.4 0.2-2.6 1.3-4 1.1-1.6-0.2-2.5-1.8-2.8-3.3-0.7-4.1 3.1-8.4 7.3-8.2-1.9-0.6-2.4-3.4-1.4-5.1 1-1.8 3-2.8 4.8-3.6 0.7-0.4 1.4-0.7 2.1-0.7 1-0.1 1.9 0.2 2.8 0.4 2 0.4 4.4 0 5.6-1.6 1.3-1.7 0.7-4.5-1.3-5.1-0.4-0.1-0.9-0.2-1.1-0.6-0.1-0.3 0.1-0.6 0.2-0.9 1-2 0.5-5.1-1.7-5.5-1.3-0.2-2.7 0.6-4 0.2-1.7-0.7-1.7-3.3-0.6-4.8 1.2-1.8 3.3-2.9 5.5-3.5 2.2-0.5 4.4-0.6 6.6-0.8 1.1-0.2 2.3-0.5 2.7-1.5 0.2-0.5 0.1-1.1 0.1-1.7 0.1-2.8 3.3-4.3 6-5.1 2.4-0.7 5.2-1.5 7.5-0.3 0.6 0.2 1.3 0.7 1.9 0.5 0.5-0.2 0.8-0.7 1.1-1.1 1-1.5 2.3-2.8 4-3.5 1.1-0.4 2.5-0.4 3.7 0l0.2-7.3c-3.9 1-7.8 1.5-11.8 1.7-2.4 0-5.3-0.2-6.6-2.3 2.6 0.3 5.1 0.5 7.6 0.2 1.8-0.2 3.6-0.7 5.2-1.4 2-0.8 3.9-1.9 5.7-3l0.7-21.8c-1.5 1.1-3.1 2-4.8 2.2-0.3 0-0.6 0-0.9 0.1-0.4 0.2-0.8 0.5-1.1 0.9q-4.2 4.5-8.2 9.1c2.9-8.3 8.3-15.6 15.3-21l0.1-5c-2.7 1-5.2 2.3-7.5 4.1-0.8 0.6-1.6 1.4-2.6 1.8-0.8 0.3-1.7 0.3-2.5 0.6-3.5 1.1-5.3 5.3-8.8 6.3-1.3 0.4-2.7 0.3-3.8 1-0.7 0.4-1.2 1.1-1.7 1.8-1.5 1.8-3.3 3.3-5.3 4.4 0.8-1.3 1.2-2.8 1.2-4.3q-2.9 1.6-5.9 3.2c-0.4 0.3-0.9 0.5-1.3 0.9-0.4 0.4-0.7 0.9-1.1 1.3-2.9 4.2-6.9 7.7-11.5 9.9 1.3-2.1 2.1-4.5 2.2-6.9-6.2 2.5-12.5 5.1-19.2 5.3q7.3-3.4 14-7.8c2-1.3 4-2.7 6.2-3.2 1-0.2 2-0.3 2.9-0.7 2.3-1 3.4-3.7 5.4-5.2 3.2-2.4 8.2-1.7 10.9-4.7 0.5-0.6 1-1.4 1.6-2.1 2.2-2.2 5.9-1.7 8.8-3 1.8-0.9 3.1-2.5 4.4-3.9 3.8-4.3 8.5-8.2 14-10l0.1-3.6q-6.8 2-13.5 3.9c-1.9 0.6-3.7 1.1-5.6 1.1-1.8 0.1-3.5-0.3-5.2-0.2-2.8 0.1-5.4 1.3-8.1 2-3.3 0.9-6.7 1.1-10.1 1.4-8.2 0.5-16.7 1-24.6-1.3 4.6 1.4 10.1-2.6 15.2-2.4 1.5 0.1 3 0.5 4.5 0.6 1.3 0 2.7-0.2 4.1-0.4q8.9-1.6 17.9-3.2c8.6-1.6 17.3-3.1 25.5-6l0.5-15.7c-2.1 0.2-4.1 0.6-5.9 1.8-1.4 1-2.4 2.5-3.7 3.7-1.3 1.2-3.1 2.1-4.8 1.6-0.7-0.2-1.3-0.6-1.9-0.7-1.2-0.2-2.3 0.6-3.2 1.4q-5.2 4.3-9.8 9.3l1.9-6.1q-4.6 2.9-8.8 6.4c2.5-7.8 7.3-14.7 13.6-19.8-4.4 0.3-8.8 0.1-13.2-0.6q9.9-2.5 19.8-4.9c1-0.3 2-0.5 2.9-1.1 3.6-2.2 3.3-7.5 5.2-11.2 1.7-3.4 5-5.3 8.7-6.6l0.2-5.8c0-2.7 0-5.5-0.3-8.4-2.6 0.7-5.1 1.7-7.3 3.2-0.7 0.4-1.5 0.9-2.3 1.1-0.6 0.2-1.3 0.2-1.9 0.2-2.9 0.1-5.4 1.6-7.9 3l-8.8 5.1c-2.4 1.3-4.9 2.7-7.7 3.2 4.7-4.8 9.7-9.3 15-13.4 2.8-2.1 5.6-4.2 8.8-5.4 2.4-0.8 4.9-1.3 7.3-2.1 1.2-0.4 2.4-0.9 3.6-1.6-1.8-6-5.5-11.7-12.8-16-2.2 4.2-4.6 8.7-8.7 11.2-4.1 2.5-10.5 1.9-12.6-2.4-2.1-4.2-0.1-11.2-4.6-12.8-3-1.1-5.9 1.7-7.9 4.3-0.6-3.4-1.4-6.9-3.6-9.6-2.1-2.7-6.2-4.1-9.1-2.3-2.1 1.3-3.1 3.8-5.1 5.1-5.1 3.2-10.7-3.1-12.9-8.6-2.1-5.6-5.9-12.5-11.7-11.3-1.8 0.4-3.4 1.7-5.3 1.8-5.8 0.5-7.2-8.4-12-11.7-3.7-2.5-8.6-1.3-12.8-0.1-4.2 1.3-9.1 2.4-12.8-0.1-3.6-2.4-2.6-9.9 1.8-9.4-3.1-5.6-9-9.6-15.3-10.3-2.2-0.2-4.5-0.1-6.5-1.2-5-2.7-3.6-10.2-1.6-15.5-5.2-0.5-10.4 0.8-15.6 1.4-5.2 0.6-10.9 0.4-15.1-2.7-4.3-3-6.1-9.8-2.6-13.6 2.5-2.7 7.1-3.9 7.4-7.5 0.5-4.8-6.8-5.9-10.1-9.5-3.4-3.9-1.3-10.5 2.9-13.4 4.2-3 9.7-3.4 14.4-5.2-4.7-7.3-6-16.6-3.7-25-4.1-5.8-10.2-12.3-17-10.2-1.7 0.5-3.4 1.7-5.2 1.7-3.6 0.1-6.1-4.1-5.8-7.7 0.3-3.5 2.3-6.7 3.8-10 2.4-5.3 3.4-11.7 0.7-16.7-2.8-5.1-10.4-7.6-14.7-3.8-1.2-6.1-3.7-11.9-7.3-17-1.8-2.5-5-5.2-7.8-3.7-1.2 0.6-1.9 1.9-2.7 2.9-5.7 6.8-19.1 2.8-20.1-6-0.4-3.2 0.5-6.9-1.6-9.4-3.3-4.1-9.9-0.6-15-1.4-6.3-1.1-9.2-10.3-4.7-14.8-11.2 0.2-22-8.2-24.5-19.1-0.7-2.8-1-6-3.3-7.7-4.7-3.8-12.3 2.7-17.5-0.4-3.3-2-3.8-6.8-7.1-8.7-3.4-1.9-7.7 0.2-10.3 3.1-2.6 2.9-4.4 6.6-7.6 8.8-4.8 3.4-12.4 2-15.7-2.9-1.5-2.1-2.2-4.8-3.9-6.7-2.8-3.5-7.9-4.3-12.2-3-4.2 1.2-7.7 4.2-10.9 7.3-3.1-3.5-6.2-6.9-13.3-11.3-0.4 4.9-6.6 7.3-11.5 6.4-4.9-0.9-9.2-3.9-14.1-4.8-4.9-0.8-11.1 1.7-11.3 6.7 0 1.4 0.4 2.9-0.4 4-0.6 1-1.9 1.3-3 1.5-9.6 1.5-19.9-1.6-27.1-8.1-3.3-3-6-6.6-9.7-8.9-3.8-2.3-9.2-2.7-12.1 0.6-1.1 1.2-1.8 2.9-3.3 3.4-1.8 0.7-3.6-0.5-5.3-1.3-5.3-2.4-12.2-0.8-15.8 3.8-3.6 4.6-3.6 11.7 0 16.3 1.6 2 3.8 3.5 5.4 5.6 3.5 4.3 3.6 11 0.3 15.5-3.2 4.5-9.6 6.4-14.8 4.5 3.4 1.6 3.8 6.6 1.7 9.6-2.2 3-5.9 4.3-9.5 5.1-12.9 2.8-26.8-0.1-37.5-7.7-4.4-3.1-8.7-7.1-14.1-7.2-3 0-5.9 1.3-8.8 2.2-7.7 2.3-16.4 1.3-23.5-2.7q0.6 6.6 1.2 13.3c0.1 1.6 0.3 3.3-0.3 4.8-1.3 3.5-5.8 4.7-9.3 3.6-3.5-1.1-6.2-3.8-8.7-6.4 0.1 4.8-4.1 8.5-6.8 12.6-2.6 4.1-2.3 11.3 2.5 11.9 2.1 0.2 4-1 6.1-1.2 3.9-0.2 7.1 3.8 7.3 7.7 0.2 3.9-1.8 7.6-4 10.9 4.9-1.2 10.4 2.4 11.3 7.4 0.8 5-3.2 10.3-8.2 10.8-4.2 0.4-8.2-2.1-12.4-2.6-10.1-1.4-19 11.3-14.3 20.4-3.6-2.2-8.6 0.9-10 5-1.3 4.1-0.1 8.5 1 12.6 1.1 4.1 2.2 8.6 0.6 12.6 5.1-0.3 10 4.3 9.9 9.5-0.1 5.1-5.2 9.6-10.3 9-2.8-0.3-6.9-1-7.2 1.8-0.2 1.3 0.8 2.4 1.5 3.5 3.3 5.2-0.7 11.9-5 16.4-3.2 3.4-7.2 6.8-11.9 7-5.7 0.1-10.2-4.4-14.5-8.2-4.2-3.7-10.2-7.2-15.3-4.7-5.8 2.8-9.4 12.6-15.3 10-2-0.9-3.1-3-3.8-5.1-1.9-5.1-2.6-10.6-2.1-16-15 3-31.4-3.4-40.7-14.1q-1.1 7.5-1.9 15c0.8 1.8 1.8 3.5 3.3 4.9 0.7 0.7 1.5 1.3 2.1 2.2 0.4 0.7 0.6 1.5 0.9 2.3 1.5 4.9 3.7 9.7 6.6 14q-7.5-4.5-14.3-9.9-0.5 5.9-0.9 11.8c2.7 2.1 5.6 3.9 8.9 4.7 1.4 0.4 2.8 0.5 4.1 1.1 1.2 0.5 2.1 1.3 3.2 1.9 7 4.6 16 4.5 24.2 6.2 2 0.4 4.1 1 5.5 2.6 0 0-12.2 0.2-12.2 1.1 0.2 1.4 0.6 2.8 1.2 4.1-2.8-1.2-4.7-4.2-7.7-4.8-1.1-0.2-2.3-0.1-3.4-0.3-2.1-0.5-3.8-2-5.7-3.1-4.4-2.5-9.8-2.6-14.5-4.5-1.4-0.6-2.7-1.3-4.1-1.8q-0.1 1.6-0.2 3.3c0.6 1.1 1.3 2.2 2.2 2.9 1.1 0.9 2.4 1.2 3.7 1.8 4.4 1.8 7.7 5.7 10.8 9.4-5.2-3.1-11.1-5-17.2-5.5q-0.2 6.2-0.4 12.5c1.9 0.7 3.7 1.7 5.2 3.1 1.6 1.6 2.7 3.9 4.9 4.7 2.1 0.8 4.5-0.1 6.6 0.6 1.1 0.4 2 1.2 2.8 2q6.8 6 13.5 12c0.8 0.8 1.7 1.7 1.4 2.8q-5.1-3.4-10.2-6.8c-1.4-0.9-2.9-1.9-4.6-2-0.9 0-1.9 0.3-2.8 0.3-2-0.1-3.6-1.5-5.2-2.7-1.9-1.3-4.2-2.3-6.5-1.9-0.9 0.1-1.7 0.4-2.6 0.4-1 0-1.9-0.3-2.8-0.7q-0.1 8.8-0.1 17.6c1 0.2 1.9 0.3 2.9 0.2 0.8-0.1 1.6-0.4 2.5-0.5 1.5-0.2 3 0.2 4.5 0.5 3.6 1 7.1 2.3 10.5 4-6.8-0.8-13.6-0.9-20.4-0.2q0.1 10.7 0.3 21.4 1.1-0.5 2.2-1c1.1 1.9 2.4 3.9 4.5 4.3 2.6 0.4 4.7-1.8 6.9-3.2 2.7-2 7.1-2.6 9.1 0.1 0.4 0.6 0.7 1.2 1.3 1.6 1.4 1 3.2-0.3 4.8-0.8 2.3-0.7 4.9 0.3 6.2 2.3 1.2 1.9 1.2 4.5 2.8 6.2 2.2 2.4 6.1 1.4 9.3 0.7 2.3-0.5 4.7-0.7 7 0.1 2.2 0.8 4.1 2.9 4 5.2 0 1.9-1.2 4 0.1 5.4 0.7 0.9 1.9 0.9 3 1.1 2.9 0.5 5.6 2.4 6.8 5.2 1.2 2.7 0.6 6.1-1.6 8.1-2.1 2-5.3 2.2-8.1 3.1-2.8 0.9-5.8 3.2-5.3 6.1 0.1 0.7 0.4 1.3 0.5 2 0.2 1.7-0.6 3.3-1.5 4.7-0.7 1.3-1.6 2.7-3.1 2.8-1.8 0.2-3-1.7-4.5-2.6-2.6-1.5-6.4 0.4-6.8 3.4-0.1 0.8 0 1.8-0.2 2.6-0.7 2.1-3.6 2.5-5.5 1.4-1.9-1-3-3-4.2-4.8-1.1-1.8-2.6-3.7-4.8-4.1-2.4-0.4-5.1 1.7-5.2 4.2-0.1 2.1 1.1 4.8-0.7 6-2.2 1.4-4.5-2.3-7.1-2.4-1.8-0.1-3.1 1.4-4.6 2.3-1 0.5-2 0.8-3 0.9q0.2 4.4 0.4 8.9c3.2-0.2 6.5-0.5 9.7 0 3 0.6 5.8 2 8.6 3.4q4.1 2.1 8.2 4.2c-3.9 0-7.7-1.5-11.6-2.1-4.9-0.8-10-0.3-14.6 1.5q0.8 17.1 1.6 34.1c2.2 0.2 4.5 1.1 6.5 2.2 3.1 1.8 6 4.1 9.4 4.9 1.7 0.5 3.5 0.5 5.2 0.6q2.5 0.1 5 0.1c-3 1.8-6.3 3.6-9.7 2.9-1.9-0.4-3.6-1.6-5.3-2.6-1.7-0.9-3.7-1.6-5.6-1.1-1.2 0.4-2.2 1.2-3.2 1.9q-0.9 0.6-2 1.2 0.6 14.1 0.9 28.2 0 0.8 0 1.6 5.6 4 11.2 8c1.4 0.9 2.9 1.9 4.6 2.2 1.5 0.3 3-0.1 4.5 0 3.3 0.4 5.7 3 8.4 4.8 6.1 4.1 13.8 4.3 21.1 4.4-5.2 2.8-11.6 3.5-17.3 1.6-2.8-0.9-5.4-2.4-8.2-3.1-2.5-0.7-5.3-0.8-7.8-1.7-3-1-5.6-3-8.4-4.3-2.5-1.2-5.2-1.9-7.9-2.3q0.1 6.3 0.1 12.7c2.3 0.9 4.3 2.5 5.4 4.7 0.5 0.8 0.8 1.7 1.4 2.4 1.6 1.7 4.3 1.6 6.5 1.1 2.3-0.5 4.7-1.3 6.8-0.4 1.3 0.6 2.2 1.6 3.5 2.1 3.3 1.3 7.4-1.3 10.3 0.5 1.8 1.1 2.4 3.4 2 5.4-0.3 2-1.5 3.8-2.6 5.4 1.3 1.1 3.2 1 4.9 1.2 1.7 0.2 3.7 1.4 3.5 3.1-0.1 1-0.9 2-0.4 2.8 0.6 0.9 1.9 0.4 2.9 0.4 2.4-0.1 4.1 2.8 3.4 5-0.7 2.3-3.2 3.6-5.6 3.6-0.4 0-0.8 0-1 0.2-0.5 0.4-0.4 1.1-0.1 1.6 0.4 0.4 0.9 0.7 1.4 1 1.8 1.5 1.7 4.7-0.2 6.1-2.5 1.7-5.9-0.1-8.2-2.2-0.4-0.4-0.9-0.9-1.5-0.8-1 0-1.4 1.2-1.8 2-1.1 1.9-3.5 2.7-5.6 2.1-2-0.5-3.7-2.1-4.7-4-0.9-1.6-1.4-3.6-3.1-4.4-2.2-1.2-4.8 0.5-6.4 2.4-1.6 1.9-2.9 4.2-5.2 5.1-1.8 0.7-3.9 0.3-5.6-0.6q-0.1 9.4-0.1 18.8c2.2 1.7 4.4 3.4 6.1 5.6 2.8 3.5 4.5 8.1 8.2 10.7-5.1-0.6-10.1-2.4-14.4-5.3q-0.1 11.4-0.1 22.9c2.8 0.6 5.7 1.1 7.8 2.9 1.1 1 1.9 2.3 3 3.2 1.7 1.6 4.1 2.3 6.3 3 6.2 1.7 12.6 3.1 18.9 4.4 3.8 0.8 7.7 1.7 11.6 1.3-4 2.2-8.9 3-13.4 2.2-2.3-0.4-4.6-1.2-6.9-1.4-3.6-0.4-7.5 0.6-10.9-0.9-2.8-1.3-4.8-4.3-7.9-5.1-1.6-0.5-3.4-0.2-5.1-0.4q-1.7-0.2-3.4-0.8 0.1 4.7 0.1 9.4 3 1.2 6 2.5c-0.6 0.6-0.1 1.7 0.4 2.4 3.5 4.4 8 8.1 13 10.6-2.5 0.8-5.2-0.3-7.6-1.3q-2-0.8-3.9-1.6c-0.4-0.2-0.9-0.4-1.3-0.8-0.3-0.3-0.4-0.7-0.7-1.1-1.2-1.6-3.5-1.5-5.5-1.4q-0.2-0.1-0.3-0.1c0.2 17.5 0.7 34.9 1.6 52.3 1.1 0.4 2.2 0.7 3.3 1.1 3.1 0.9 6.1 2.2 8.2 4.6 2.9 3.2 3.9 8 7.5 10.2 2.1 1.3 4.7 1.5 7 2.1 3.1 0.8 6.1 2.3 8.5 4.4q-4.3-0.9-8.7-1.3c0.8 2.3 2.6 4.1 4.8 5 2 0.7 4.4 0.7 6.1 2 1.5 1.3 2 3.4 2.8 5.2 1.4 3.1 3.7 5.6 5.9 8-3.7-0.2-7.2-2.3-9.2-5.5-0.4-0.7-0.8-1.5-1.3-2.2-2.7-3.3-8.1-2.8-11.1-5.8-1.2-1.1-1.9-2.7-2.9-4-1.5-1.9-3.6-3.2-6-3.7-0.9-0.1-1.8-0.2-2.6-0.6-1.6-0.8-2.3-2.5-3.8-3.5-1.6-1.1-3.6-1-5.6-1.2q-1-0.1-2-0.3 0.4 5.1 0.8 10.2 1 0.5 2.1 0.9c2.4 0.7 5.1 1.1 6.8 2.8 0.6 0.6 1.1 1.4 1.6 2 1.7 1.9 4 3 6.3 4.1-1.8 0.2-3.8 0.5-5.6-0.1-2.4-0.7-4.2-2.7-6.7-3-1.3-0.2-2.6 0.1-3.9 0.2q0 0 0 0c1.4 15.6 3.3 31.1 5.7 46.5 2.1 12.9 4.7 25.9 9.5 38 9.6 24 27.7 43.5 45.3 63q40.9-4.5 81.7-9.1c34.1-3.8 68.5-7.6 102.6-4.3 23.1 2.3 46.1 7.8 69.2 5.6 14.8-1.5 29.2-6.1 44-6.1 18.6-0.1 36.5 7 55.1 8.1 11.6 0.7 23.2-1 34.8-2.3 30.5-3.4 61.3-4.2 91.9-2.2 43.2 2.7 87.9 10.7 128.7-3.6 26.3-9.3 49.3-27.7 64.1-51.5 1.9-3.1 3.6-6.2 5.3-9.5-2.4 0-4.7 0.8-7 1.6z"/><path class="b" d="m550.7 829.1c43.2 2.7 87.9 10.7 128.7-3.6 26.3-9.3 49.3-27.7 64.1-51.5 1.9-3.1 3.6-6.2 5.3-9.5-2.4 0-4.7 0.8-7 1.6-4.6 1.4-9.3 2.3-14.1 2.5-0.5 0.1-1.3 0-1.4-0.6 5.6-3.7 12.8-3.9 18.5-7.5 3-1.8 5.4-4.6 8.6-6.3q0.1 0 0.2-0.1c10.9-26.4 14-56 15.7-85.1-1.1 0.2-2.2 0.6-3.1 1.3-0.6 0.5-1.2 1.1-1.8 1.5-1 0.5-2.2 0.6-3.2 0.2-0.4-0.1-0.8-0.3-1.2-0.3-0.7 0-1.2 0.7-1.6 1.3-1.5 2-3.8 3.3-6.3 4-2.4 0.6-4.9 0.7-7.5 0.8 2.8-0.5 3.8-4 6.4-5.1 1-0.5 2.1-0.5 3.2-0.8 3.7-1.3 4.8-6 7.9-8.3 0.5-0.3 1-0.6 1.6-0.7 0.6 0 1.3 0.3 1.9 0.2 1.4-0.1 2.1-1.6 3.3-2.2q0.4-0.2 0.8-0.3 0.2-3.1 0.3-6.1c0.4-8.1 0.7-16.2 1-24.3-0.7 0-1.5 0-2.2 0.1-4.1 0.4-7.2 4.1-11.2 4.9-0.6 0.1-1.2 0.1-1.6 0.5-0.3 0.3-0.5 0.8-0.6 1.2q-0.6 2.2-1.2 4.4c-1.7-1.7-4.2-2.8-6.6-2.9-1.8-0.1-3.5 0.2-5.2 0.4-4.3 0.6-8.6 0.5-12.9-0.2q5.1-0.7 10.1-1.4c1.5-0.2 3-0.4 4.4-1.1 1.5-0.7 2.7-2 4-3 3.8-3.1 9-4.4 12-8.3 1-1.4 1.7-3.1 2.7-4.5 1-1.5 2.5-2.7 4.3-2.7 0.6 0 1.3 0.1 1.9 0.2 0.9 0 1.8-0.2 2.6-0.5q0.6-12.6 1-25.2-4.2 1.8-8.5 3.6c-1.5 0.6-3.1 1.3-4.7 1.5-1.5 0.2-3.1 0.1-4.6 0.2-2.1 0.2-4.1 1-6.2 1.4-4.7 1-9.5 0.4-14.2-0.6l17.3-3.1c2.5-0.4 5-0.9 7.4-1.7 1.8-0.7 3.4-1.5 5.1-2.4q4.3-2.2 8.6-4.5 0.5-11.4 0.9-22.8c-2.6 1.6-6 2.1-8.5 4 0.9-2.8 2-5.6 4-7.8 1.2-1.2 2.6-2.2 3.8-3.4q0.5-0.5 1-1.1 0-1.6 0.1-3.2-3 1-5.9 2c-0.8 0.2-1.7 0.5-2.5 0.5-0.6 0-1.2-0.1-1.7-0.1-0.9-0.1-1.7 0-2.5 0.1-3.5 0.4-7 0.3-10.4-0.5q6.5-1.8 13.2-2.8c2.6-0.4 5.6-0.8 7.3-2.9 0.5-0.7 0.8-1.4 1.3-2 0.4-0.5 0.9-0.8 1.4-1.1q0.5-14.8 0.9-29.6-0.1 0.1-0.3 0.1c-0.8 0-1.6-0.1-2.4 0-2.4 0.2-4.2 2.1-6.3 3.1-0.3 0.2-0.8 0.2-1-0.1 1-1.7 2.2-3.2 3.6-4.6q-6.1-0.1-12.1 0.6c4.5-3.2 11.2-1.8 15.4-5.4 1.3-1 2.2-2.4 3.2-3.6q0.1-0.1 0.3-0.2 0.2-5.8 0.3-11.7c-1.1 0.7-2.9 0.6-4.3 0.3-2-0.5-4.5-0.9-5.8 0.8-1 1.4-0.8 4-2.5 4.2-0.6 0.1-1.2-0.2-1.8-0.4-1.3-0.4-2.8-0.1-3.8 0.8-0.6 0.7-0.9 1.6-1.3 2.4-0.9 2-2.2 4.1-4.3 4.8-2.1 0.7-5-1-4.6-3.2 0.1-0.8 0.6-1.4 0.8-2.2 0.1-0.8-0.3-1.8-1.1-1.8-0.3 0-0.6 0.2-1 0.2-1 0.1-1.6-1-1.6-2-0.1-1 0-2-0.6-2.8-0.7-1-2.2-0.9-3.3-0.4-1.1 0.5-2 1.4-3.1 1.8-1.1 0.4-2.7 0.2-3.1-0.9-0.6-1.3 0.4-3.4-1-3.8-0.2-0.1-0.5-0.1-0.8 0-1.4 0.2-2.6 1.3-4 1.1-1.6-0.2-2.5-1.8-2.8-3.3-0.7-4.1 3.1-8.4 7.3-8.2-1.9-0.6-2.4-3.4-1.4-5.1 1-1.8 3-2.8 4.8-3.6 0.7-0.4 1.4-0.7 2.1-0.7 1-0.1 1.9 0.2 2.8 0.4 2 0.4 4.4 0 5.6-1.6 1.3-1.7 0.7-4.5-1.3-5.1-0.4-0.1-0.9-0.2-1.1-0.6 0-0.2 0-0.4 0.1-0.6-8.7-2.2-17.8-5.2-29.2-8.2-29.3-8-83.8-1.3-97.8 12.1-14.1 13.3-23.4 18.2-40.7 26.6-17.4 8.3-60.3 1.5-80-4.5-19.7-6-95.3-28.4-130.8-25.1-35.5 3.3-104.4 10.3-133.6 8.2-29.2-2.1-30.2-0.8-66.8-7.3-36.5-6.6-37.5 26.1-82.4 41.7-10.7 3.8-20.4 6.9-29.3 9.4-1.1 1.5-3.1 2.4-5 2.4-0.4 0-0.8 0-1 0.2-0.5 0.4-0.4 1.1-0.1 1.6 0.4 0.4 0.9 0.7 1.4 1 1.8 1.5 1.7 4.7-0.2 6.1-2.5 1.7-5.9-0.1-8.2-2.2-0.4-0.4-0.9-0.9-1.5-0.8-1 0-1.4 1.2-1.8 2-1.1 1.9-3.5 2.7-5.6 2.1-2-0.5-3.7-2.1-4.7-4-0.4-0.7-0.7-1.6-1.1-2.3q-4.5 0.6-8.9 0.9c-1.4 1.8-2.6 3.7-4.7 4.5-1.8 0.7-3.9 0.3-5.6-0.6q-0.1 9.4-0.1 18.8c2.2 1.7 4.4 3.4 6.1 5.6 2.8 3.5 4.5 8.1 8.2 10.7-5.1-0.6-10.1-2.4-14.4-5.3q-0.1 11.4-0.1 22.9c2.8 0.6 5.7 1.1 7.8 2.9 1.1 1 1.9 2.3 3 3.2 1.7 1.6 4.1 2.3 6.3 3 6.2 1.7 12.6 3.1 18.9 4.4 3.8 0.8 7.7 1.7 11.6 1.3-4 2.2-8.9 3-13.4 2.2-2.3-0.4-4.6-1.2-6.9-1.4-3.6-0.4-7.5 0.6-10.9-0.9-2.8-1.3-4.8-4.3-7.9-5.1-1.6-0.5-3.4-0.2-5.1-0.4q-1.7-0.2-3.4-0.8 0.1 4.7 0.1 9.4 3 1.2 6 2.5c-0.6 0.6-0.1 1.7 0.4 2.4 3.5 4.4 8 8.1 13 10.6-2.5 0.8-5.2-0.3-7.6-1.3q-2-0.8-3.9-1.6c-0.4-0.2-0.9-0.4-1.3-0.8-0.3-0.3-0.4-0.7-0.7-1.1-1.2-1.6-3.5-1.5-5.5-1.4q-0.2-0.1-0.3-0.1c0.2 17.5 0.7 34.9 1.6 52.3 1.1 0.4 2.2 0.7 3.3 1.1 3.1 0.9 6.1 2.2 8.2 4.6 2.9 3.2 3.9 8 7.5 10.2 2.1 1.3 4.7 1.5 7 2.1 3.1 0.8 6.1 2.3 8.5 4.4q-4.3-0.9-8.7-1.3c0.8 2.3 2.6 4.1 4.8 5 2 0.7 4.4 0.7 6.1 2 1.5 1.3 2 3.4 2.8 5.2 1.4 3.1 3.7 5.6 5.9 8-3.7-0.2-7.2-2.3-9.2-5.5-0.4-0.7-0.8-1.5-1.3-2.2-2.7-3.3-8.1-2.8-11.1-5.8-1.2-1.1-1.9-2.7-2.9-4-1.5-1.9-3.6-3.2-6-3.7-0.9-0.1-1.8-0.2-2.6-0.6-1.6-0.8-2.3-2.5-3.8-3.5-1.6-1.1-3.6-1-5.6-1.2q-1-0.1-2-0.3 0.4 5.1 0.8 10.2 1 0.5 2.1 0.9c2.4 0.7 5.1 1.1 6.8 2.8 0.6 0.6 1.1 1.4 1.6 2 1.7 1.9 4 3 6.3 4.1-1.8 0.2-3.8 0.5-5.6-0.1-2.4-0.7-4.2-2.7-6.7-3-1.3-0.2-2.6 0.1-3.9 0.2q0 0 0 0c1.4 15.6 3.3 31.1 5.7 46.5 2.1 12.9 4.7 25.9 9.5 38 9.6 24 27.7 43.5 45.3 63q40.9-4.5 81.7-9.1c34.1-3.8 68.5-7.6 102.6-4.3 23.1 2.3 46.1 7.8 69.2 5.6 14.8-1.5 29.2-6.1 44-6.1 18.6-0.1 36.5 7 55.1 8.1 11.6 0.7 23.2-1 34.8-2.3 30.5-3.4 61.3-4.2 91.9-2.2z"/><path class="c" d="m550.7 829.1c43.2 2.7 87.9 10.7 128.7-3.6 26.3-9.3 49.3-27.7 64.1-51.5 1.9-3.1 3.6-6.2 5.3-9.5-2.4 0-4.7 0.8-7 1.6-4.6 1.4-9.3 2.3-14.1 2.5-0.5 0.1-1.3 0-1.4-0.6 5.6-3.7 12.8-3.9 18.5-7.5 3-1.8 5.4-4.6 8.6-6.3q0.1 0 0.2-0.1c2.8-6.8 5.1-13.8 6.9-20.9-10.1-0.1-20.5-1.2-29.4-4.2-27.9-9.6-56.3-7.1-90.7-9.4-34.5-2.4-65.8-29-109.6-39.9-43.8-10.9-97.1-7.1-139.9-1.6-42.8 5.5-69.8-3.9-119.2-16.4-49.3-12.6-84.2-60-139.3-91.6-33.8-19.5-79.3-25.6-122.9-20.9 1.3 1 2.5 2.2 3.6 3.5 2.8 3.5 4.5 8.1 8.2 10.7-5.1-0.6-10.1-2.4-14.4-5.3q-0.1 11.4-0.1 22.9c2.8 0.6 5.7 1.1 7.8 2.9 1.1 1 1.9 2.3 3 3.2 1.7 1.6 4.1 2.3 6.3 3 6.2 1.7 12.6 3.1 18.9 4.4 3.8 0.8 7.7 1.7 11.6 1.3-4 2.2-8.9 3-13.4 2.2-2.3-0.4-4.6-1.2-6.9-1.4-3.6-0.4-7.5 0.6-10.9-0.9-2.8-1.3-4.8-4.3-7.9-5.1-1.6-0.5-3.4-0.2-5.1-0.4q-1.7-0.2-3.4-0.8 0.1 4.7 0.1 9.4 3 1.2 6 2.5c-0.6 0.6-0.1 1.7 0.4 2.4 3.5 4.4 8 8.1 13 10.6-2.5 0.8-5.2-0.3-7.6-1.3q-2-0.8-3.9-1.6c-0.4-0.2-0.9-0.4-1.3-0.8-0.3-0.3-0.4-0.7-0.7-1.1-1.2-1.6-3.5-1.5-5.5-1.4q-0.2-0.1-0.3-0.1c0.2 17.5 0.7 34.9 1.6 52.3 1.1 0.4 2.2 0.7 3.3 1.1 3.1 0.9 6.1 2.2 8.2 4.6 2.9 3.2 3.9 8 7.5 10.2 2.1 1.3 4.7 1.5 7 2.1 3.1 0.8 6.1 2.3 8.5 4.4q-4.3-0.9-8.7-1.3c0.8 2.3 2.6 4.1 4.8 5 2 0.7 4.4 0.7 6.1 2 1.5 1.3 2 3.4 2.8 5.2 1.4 3.1 3.7 5.6 5.9 8-3.7-0.2-7.2-2.3-9.2-5.5-0.4-0.7-0.8-1.5-1.3-2.2-2.7-3.3-8.1-2.8-11.1-5.8-1.2-1.1-1.9-2.7-2.9-4-1.5-1.9-3.6-3.2-6-3.7-0.9-0.1-1.8-0.2-2.6-0.6-1.6-0.8-2.3-2.5-3.8-3.5-1.6-1.1-3.6-1-5.6-1.2q-1-0.1-2-0.3 0.4 5.1 0.8 10.2 1 0.5 2.1 0.9c2.4 0.7 5.1 1.1 6.8 2.8 0.6 0.6 1.1 1.4 1.6 2 1.7 1.9 4 3 6.3 4.1-1.8 0.2-3.8 0.5-5.6-0.1-2.4-0.7-4.2-2.7-6.7-3-1.3-0.2-2.6 0.1-3.9 0.2q0 0 0 0c1.4 15.6 3.3 31.1 5.7 46.5 2.1 12.9 4.7 25.9 9.5 38 9.6 24 27.7 43.5 45.3 63q40.9-4.5 81.7-9.1c34.1-3.8 68.5-7.6 102.6-4.3 23.1 2.3 46.1 7.8 69.2 5.6 14.8-1.5 29.2-6.1 44-6.1 18.6-0.1 36.5 7 55.1 8.1 11.6 0.7 23.2-1 34.8-2.3 30.5-3.4 61.3-4.2 91.9-2.2z"/><path class="d" d="m536.7 176.5c0-40.2-32.7-72.9-72.9-72.9-40.3 0-72.9 32.7-72.9 72.9 0 40.3 32.6 72.9 72.9 72.9 40.2 0 72.9-32.6 72.9-72.9z"/><path class="e" d="m260.6 751.6c4.6 14.6 8.5 30.5 3.4 44.9-1 3-2.6 6.1-5.4 7.7-1.7 0.9-3.6 1.2-5.5 1.2-6.5 0.1-12.8-2.9-19.2-2-2.8 0.4-5.4 1.5-7.9 2.8-4.8 2.6-9.2 6.1-13 10.7-2.4-1.9-5.7-2.5-8.7-2-3 0.5-5.8 1.9-8.3 3.7-4.7 3.1-8.7 7.9-8.8 13.5-0.1 2.3 0.8 4.8 2.8 5.8 1.4 0.6 3.1 0.4 4.6-0.2 1.5-0.6 2.7-1.5 4.1-2.3 3.2-1.8 6.8-2.7 11.1-2.5-0.4 1.7-1.8 3.3-1.1 4.8 0.2 0.5 0.6 0.9 1 1.1 1.8 1.1 4.1 0.4 6-0.4 3.3-1.4 6.5-3.2 9.5-5.4 1.5-1.1 3.1-2.4 5-2.6-1.9 3.6 0.2 8.6 4.1 9.8 0.6 0.2 1.3 0.4 2 0.3 0.5-0.1 1-0.3 1.5-0.5 2.8-1.1 5.4-2.8 8.1-4.1 2.8-1.4 5.7-2.6 8.7-2.6 3.1 0 6.3 1.3 9.4 4 21.7 1.9 43.6 0.8 65.5-0.4l12.4-0.7c3.1-0.2 6.7-0.7 8.1-3.4 1.5-2.7-0.2-6-1.9-8.6-8.2-12.2-18.9-23.2-23.6-37.7q2.9 1.2 5.8 2.4c-3.9-5.5-4.9-12.4-5.6-19.1q3 2.8 5.4 6.2c0.2-5.5-1.3-11-4.3-16.1 2.1 0.8 4.2 1.2 6.4 1.4-4.1-5.9-8.3-11.9-10.1-19.9 2.5 0.9 5.2 1.3 7.9 1.3-5.2-4-9.5-9.1-12.5-15 3.6 2.9 8.2 3.8 12.7 4.7-2.5-5.1-3.8-10.7-4.1-17 3 2.5 7.2 2.5 10.9 3.6-1.3-0.8-2.3-2.1-3.1-3.4-2-3.3-3.5-7-5-10.6 2.7 0.9 5.6 1.2 8.5 0.3-6.6-3.5-11.4-10.2-12.6-17.6-0.4-2.9-0.4-5.8-0.9-8.7-0.8-5-3.2-9.7-4.1-14.7-0.7-3.7-0.6-7.7 0.4-11.4 0.7 4.6 1.5 9.2 2.6 13.5 5.8-4.8 9.4-12.2 9.6-19.7q1.2 3.6 2.3 7.1c3.8-6.1 5.6-13.5 5.1-21.1 1.7 2.3 2.7 5.1 3 7.9 0.7 0.2 1.3-0.6 1.7-1.3 2.3-4.7 4-9.7 5-14.9 3.1 3 4.1 7.6 4.9 11.8 2.9-5.3 3.1-11.6 3.3-17.7 1.5 2.5 2.4 5.3 2.7 8.1 1.1-1 1.7-2.5 2.3-3.9q3.3-9.1 3.1-19.5c1.1 1.5 1.8 3.3 2 5.2 1.9-4.7 2.2-9.8 3.7-14.6 1.5-5.1 4.5-9.7 8.3-13.4 2.5 1.6 4.4 4.1 5.6 6.8 1.3 2.7 2 5.7 2.5 8.6 0.8 3.9 1.4 7.9 1 11.9 0.6 0.3 1.3-0.1 1.8-0.6 1.8-1.6 3.5-3.5 4.8-5.6 0.1 8.9 0.3 18.3 4.5 26.2 0.9-3.6 3.1-6.9 6.5-8.1-1 9.9 2.2 19.8 6 29 0.7-3.2 2.1-6.3 4.2-8.9 0.4 9.3 3.8 18.4 9.5 25.8-0.9-2.9-0.7-6.1 1.1-8.8 3.3 5.3 6.6 10.7 7.9 16.8 1 4.5 0.8 9.2 0.2 13.8-1.4 10.4-5 21-12.6 28.3 2.3 0 4.6-0.8 7.1-2.3-1.2 9.2-1.1 18.6 0.3 27.9 0.2-2.3 1.4-4.5 3.3-6-0.8 12.9 1.9 25.9 7.6 37.5-0.1-2.6 0.4-5.3 2.5-8 5.6 3.6 8.9 10.6 8 17.3 2.7-0.9 5.1-2.3 8.6-4.7 0.2 7.3-2.7 14.5-6.3 20.9-3.5 6.5-7.7 12.7-10.4 19.6-1 2.6-1.9 5.4-1.7 8.3 0.2 6 4.7 11.2 10.2 13.7 5.4 2.6 11.6 2.9 17.6 2.7 9.1-0.3 18.1-1.8 27.1-3.3l14.6-2.4c4-0.7 8-1.4 11.8-2.8 4.2-1.6 8.9-4.1 12.9-2.1 2.1 1.1 3.4 3.1 5.1 4.7 2 1.7 4.5 2.8 7.1 3 2.3 0.2 4.9-0.4 6.5-2.1 1.5-1.6 2.5-4.2 4.7-4.3 1.6 0 2.7 1.5 3.9 2.5 2.2 1.8 5.2 2.4 8 2.9 1.9 0.3 4 0.7 5.8-0.1 1.8-0.7 3.2-2.9 3-4.7 2.8 0.3 5.2 1.9 7.5 3.3 2.4 1.4 5.1 2.7 7.8 2.3 1-0.2 1.9-0.5 2.5-1.3 0.8-0.8 1-2.1 0.8-3.2-0.2-1.2-0.8-2.2-1.3-3.2-2-3.9-4.3-7.8-7.8-10.4-3.5-2.5-8.6-3.4-12.4-1.2-0.9-1.6-1.3-3.4-2.2-5-1.7-2.9-4.9-4.9-8.3-5.3-3.3-0.5-6.8 0.5-10.4 2-2.9-3.8-6.3-7.9-11-8.8-2.4-0.4-4.9 0-7.3 0.4-3.6 0.6-7.3 1-10.9 0.7-3.7-0.4-7.3-1.7-10-4.1-4.3-3.8-5.7-9.8-6.8-15.4 1.8 2.7 3 5.7 3.7 8.8 1.5-6.6 0.2-13.5-1.1-21.3 3.1 2.4 6.9 3.9 10.8 4.4-5.7-6.7-9.8-14.8-11.8-23.4 2.2 0.6 4.2 1.8 5.9 3.4 1.2-7.6-1.8-15.5-0.3-23.1 0.8-4 2.9-7.9 2.5-12-0.5-4.6-4-8.2-6.5-12.1-3-4.9-4.5-10.6-4.2-16.6 1.3 0.3 2.6 0.7 3.9 0.7 0.7 0 1.4-0.1 2.1-0.1 0.7-0.1 1.3 0 2.4-0.9-5.9-2.5-10.9-7-13.9-12.6-0.8-1.5-1.5-3.1-1.9-4.8-1.8-6.1-0.6-12.7-0.3-19.1 0.3-5.7-0.3-11.5-1.6-17.2 4.2 2.7 7.6 6.6 9.5 10 1.4-4.8 0-9.9-2-14.4-1.9-4.6-4.5-8.9-5.5-13.7-1.4-6.2-0.4-13-3.7-18.4 3.1 2.5 5.3 5.9 6.8 9.3 1.2-5.5-0.2-11.3-2-16.6-1.9-5.4-4.2-10.7-5-16.3-0.5-3.2-0.6-6.7-2.6-9.2 3.9 2.2 7.1 5.5 9.8 8.9-0.5-3.3-1.6-6.4-3.2-9.3-0.6-0.9-1.3-1.9-1.7-3-0.4-0.8-0.5-1.7-0.8-2.6-0.6-2.5-1.7-4.9-3.2-7 2.6 1.5 4.9 3.5 7.8 5.6-1-9.2-2.1-18.5-5.2-27.2-1.3-3.8-3.1-7.4-4.8-11-6.4-13.5-13-27.2-22.6-38.6l15.4 5.3c-7.8-8-13.5-18-16.6-28.7 2.8 1.1 5.6 2.2 8.9 2.8-3.6-4.6-7.2-9.4-8.4-15.1-0.4-1.9-0.5-3.9-0.9-5.9-0.6-3.4-2.1-6.6-3.4-9.8-3.3-8.7-4.9-18-5.1-27.4q5.1 2.2 10.1 4.4c-3-3.7-4.5-8.4-4.8-13.1-0.4-4.8 0.2-9.5 2.4-14.8 4.6 1.4 9.4 2.9 13.6 5.2 4.3 2.4 8.2 5.8 10.3 10.2 2.5 5.1 2.3 11.1 1.4 16.8-1 5.6-2.6 11.1-3 16.8-0.4 5.7 0.6 11.9 4.7 15.8q2.6-3 5.8-5.5c-1.8 6.4-0.2 13.6 4 18.7 1.1-3 2.7-5.9 4.6-8.5 0.7 4.4 0.1 8.9-0.1 13.4-0.2 4.4 0.1 9.1 2.3 13 0.9-3 2.7-5.6 5.1-7.5 1.3 3.9 0.8 8.1 1.2 12.2 0.4 4.3 1.7 8.5 3.8 12.3 1.5-3.6 2.7-7.3 4.5-11.4 3.7 5.4 7.6 11.3 7.5 17.9-0.2 8.5-6.8 15.3-10.4 22.9-2.7 5.7-3.8 11.9-4.8 18.1l-5.3 31.7c-0.3 1.8-0.6 3.8 0.1 5.5 0.6 1.7 2.5 3.1 4.3 2.5 0.9-0.4 1.5-1.1 2.1-1.9q1.8-2.2 3.6-4.4c1-1.3 2.2-2.6 3.8-2.7 2.2-0.2 3.9 2.3 3.8 4.6 0 2.2-1.1 4.3-2 6.4-3.6 9.2-1.3 20.5-7.1 28.6-1.2 1.8-2.9 3.3-3.6 5.4-0.7 2-0.1 4.8 2 5.4 1.7 0.5 3.4-0.6 4.8-1.7q4-2.9 8-5.9c2.9-2.1 5.7-4.3 7.8-7.1 3.4-4.6 4.2-10.5 5-15.2 0 9.3-2.7 18.6-7.6 26.4-1.5 2.4-3.1 4.7-3.5 7.4-0.3 2.7 1.3 5.9 4 6.2 2.4 0.1 4.2-1.8 5.8-3.6 4-4.9 8.1-9.8 10.9-14.5q-1.5 8.4-2.7 16.9c-0.2 1.6-0.3 3.4 0.8 4.5 1.3 1.1 3.4 0.6 4.9-0.2 5.7-3.2 8.6-9.8 9.9-16.2 1.3-6.4 1.3-13.1 3.2-19.3 2.1-7.3 6.5-13.6 9-20.8 5.9-16.9 0.5-35.4-0.6-53.3-0.8-12.3 0.5-24.7-1.3-38.1 2.2 0.9 4.4 1.5 6.7 1.8-5.6-11.9-8.2-25.2-7.6-39.3q2.2 2.3 4.5 4.7c-2.8-7.5-0.2-15.9-1.5-23.7-0.8-5.3-3.4-10.1-5-15.2-0.8-2.7-1.3-5.6-2.4-8.2-0.9-2.2-2.2-4.2-3.5-6.2-2.5-3.9-5-7.8-7.8-11.4-2.5-3.3-5.3-6.4-8-9.4-1.5-1.8-3.1-3.6-4-5.7 5.7 1 11.5 1.5 16.6 0.5-3.8-4-7.7-8.3-9.1-13.6-0.6-2.3-0.8-4.7-1.6-6.9-2.4-6.5-10.4-9.7-12.7-16.9 4 0.6 8.1 0.4 12-0.6-5-2.1-10-4.6-14.3-7.8-4.4-3.3-8.1-7.5-10.3-12.5 4 2.7 8.5 4.4 13.3 5.2-5.6-4.7-10-10.8-12.6-17.6 2.9 1.3 5.9 2.3 9 2.9-4.4-4.1-7.8-9.1-10.5-15.8q4.4 0.5 8.9 1c-1.7-2.2-3.2-4.5-4.8-6.7q-3.4-5.3-6.9-10.5c-1.7-2.6-3.4-5.2-4.5-8-1.2-3.2-1.8-6.5-2.7-9.8-1.2-4.2-3-8.2-5.1-12.1-3.8-7-8.8-13.7-16-17.2-11-5.4-24.5-2-36-6.4-3.5-1.4-6.7-3.5-10.3-5.2-3.5-2.1-6.7-4.9-9.3-8.2-1.7-2.2-3.2-4.6-5.1-6.6-1.7-1.6-3.6-2.9-5.3-4.4-2-1.8-3.9-3.9-5.3-6.2 5 1.5 10.3 2 15.1 0.9-6.1-4-11.3-9.2-15.4-15.3-2.1-3.1-3.9-6.5-6.4-9.5-1.9-2.2-4.1-4.2-5.8-6.6-1.2-1.9-2-3.9-3.3-5.7q3.8 0.6 7.5 1.7c-2.5-3-5.2-6.1-8.6-8.1-1.5-0.9-3.2-1.6-3.8-3.2 3-0.5 6.2-0.4 8.7-0.4-2.2-3.5-5.1-6.5-8.6-8.8-1.7-1.1-3.6-2.1-4.7-3.8-1.1-1.5-1.4-3.5-1.8-5.4-0.1-0.5-0.2-1-0.5-1.4-0.4-0.8-1.3-1.2-2.1-1.5-3.2-1.1-6.7-1.2-10-0.7-3.4 0.6-6.6 1.7-9.8 2.9 0.4-3.4 2-6.7 3.7-9.5-9.6-1-19.5 2.2-26.8 8.6-0.9 0.9-1.9 1.8-3.1 2.3-1.6 0.7-3.3 0.5-5 0.6-6.9 0-13.6 3.1-19.2 7.3-5.5 4.2-10.1 9.5-14.6 14.8q-4.9 5.7-9.8 11.3c3.8-2.4 7.8-5 12.3-4.9-8.5 6.2-16.1 14.5-18.7 24.7 4-3.6 8.5-6.5 13.3-8.7-6.5 8.5-11 18.5-13.1 29 3.2-1.7 6.2-3.7 8.7-5.5-3.7 13.5-14.5 23.7-25.3 32.5-3.8 3.2-7.7 6.3-12.1 8.5-3.2 1.7-6.6 3-9.8 4.5-18.1 8.2-32.3 24.6-37.8 43.8-1.5 5.4-2.4 11.1-3.3 16.7 2.1-1.7 4.2-3.4 6.6-5.8 0.4 5.6-3.7 10.3-6.1 15.3-3.3 7.1-3.1 15.2-2.5 22.9q1 11.7 3.4 23.2 1.7-3.3 2.9-6.8c1.2 6.1 2.3 12.4 0.5 18.4-2.4 8.4-10 14.9-11 23.5 1.5-0.3 3.1-0.6 4.5-0.5-2.5 8.8-8.5 16.2-14.3 23.3 2.1-0.5 4.1-1.4 5.9-2.6-1.7 7.9-4.8 15.5-9 22.3q4.2 0.7 8.2 2c-3.3 2.4-7.1 4.2-11 5.2 2.1 1.5 4.7 2.4 7.7 3.2-10.9 12.6-14.5 30.1-14.4 46.7 2-0.7 3.9-1.7 5.6-2.9-4.5 8.4-6.4 18.1-5.5 27.5q1.3-1.9 2.6-3.9c0.2 3.2 0.8 6.4 1.8 9.4q1.4-2.5 2.8-5.1c0.7 3.6 1 7.2 1.5 11.1-3.6 7.5-10.4 12.9-14.8 20-5.9 9.7-6.8 21.5-7.5 32.8-0.1 1.4-0.2 2.8 0.1 4.2 0.2 1.1 0.7 2.2 1 3.3 1.9 6.5-1.4 13.3-1.6 20-0.3 9 4.9 17.3 10.7 24.2 3.8 4.6 8.1 8.9 13.2 11.9 1.8 1.1 3.9 2.1 6 1.7 2.1-0.3 4-2.4 3.4-4.4-0.3-1.1-1.2-1.8-2-2.5-3-2.6-6.3-5.3-7-9.2-0.6-3.4 0.6-7.6-1.1-10.4 4.7 3.1 10.4 4.5 16 4.1 1.4-0.1 3.1-0.6 3.2-2 0.1-0.5-0.2-1.1-0.4-1.6-1.9-3.4-5.8-5.5-8-8.8-0.7-1.2-1.2-2.5-2.4-3.1-0.6-0.2-1.2-0.3-1.8-0.5-2.3-0.5-4.2-2.5-4.7-4.8-0.2-0.9-0.2-1.9-0.6-2.8-0.8-1.7-3-2.5-3.6-4.3-0.4-1.2 0.1-2.5 0.6-3.7 1.3-3.4 2.7-6.8 4.7-10 2.8 3.6 4.6 8 4.8 12.5 0.1 1.9 0.3 4.2 2 5 1.7 0.7 3.4-0.8 4.5-2.3 3.2-4.6 4.4-10.3 5.1-15.9 0.3-2.6 0.6-5.1 1.5-7.5 0.8-1.8 1.9-3.3 2.9-5 3.6-6.3 5-13.6 6.3-21 0.7-6.7 0.3-13.4-1.4-20.3 3.3-4.4 6.7-8.9 9-13.9 1.6-3.5 2.7-7.2 3.8-10.8q1.4-4.4 3.1-8.6c0.3 4.5 1.4 8.9 4.8 12-0.1-5.5-0.1-11.2 2.5-16 1.8-3.4 4.7-6.1 7.3-9 7-7.9 11.4-18.1 12.4-28.6 0.2-3 0.3-5.9 0.9-8.8 0.6-3.1 1.9-5.9 2.7-8.9 2.2-9.1-0.2-19.6 5.1-26.7 4.2 9.9 5.5 21 3.9 31.6q5.6-4.1 11.7-7.5c-7.2 9-13.5 19.4-14.5 31 1.9-3 4.6-5.4 7.4-7-1.5 10.5-4.6 20.6-7.8 30.7-2.1 6.8-4.3 13.7-7.9 19.8-4.2 7.3-10.5 13.4-13.5 21.3 6-3.8 12.8-6.3 20.3-7-18.5 20.1-31.2 45.4-36.3 72.2 2.4-1.2 4.5-2.9 6.2-4.9-2.3 11.1-6.4 21.8-12 31.7 3.4-1.1 6.7-2.2 10.5-3.3-2.6 6.8-8 12-11.8 18.2-4.6 7.7-6.6 16.8-7 25.8-0.4 8.9 0.8 17.9 2.2 26.8q2.9 19.3 6.9 38.4c0.9-3.7 2.2-7.2 3.7-10.7 2.1 13.6 7.6 26.7 16 37.6 0.9-1.4 1.6-2.9 3.2-4.8z"/></svg>