<svg version="1.2" xmlns="http://www.w3.org/2000/svg" viewBox="0 0 503 398" width="503" height="398"><style>.a{fill:#ab6331}.b{fill:#3d1400}.c{fill:#d2a368}.d{fill:#7c4619}.e{fill:#542c09}.f{fill:#be8047}</style><path class="a" d="m495.7 23l2.6-0.8 4.8-4.5-8.5-6-4-2.6-3-6.7-4.4-1.9-8.1 1.5-14.1 9-15.9 17.2-12.9 24.7-7 23.6-0.4 26.6 6.3 26.2c0 0 13.3 46.8 13.3 47.9 0 1.2-3.3 31.1-3.3 31.1l-5.6 8.3-15.1 9.3-44-3.7-38 9.7-38.1 25.1-29.6 16.9-28 18.7-50.7 25.4-29.5 1.5-31.4-3.3-24.4-2.3-27.7 6.8-35.8 16.4-25.2 7.9-16.2-1.1-1.1 3.4 18.4 4.8 37.4-1.5 39.9-9.3 36.2 6.3c0 0 47.3 8.6 48.4 7.9 1.1-0.8 42.1-5.3 42.1-5.3l29.9-8.2 25.5 1.5 12.2-0.4 3.3-2.6 16.3 7.5 18.8-0.7h21.8l25.5 5.6 21.8-4.5 25.9-12.4 24.4-32.2 10.3-29.6 7-13.4 10.7-32.3 4.1-29.9-5.5-36.7-15.6-36.7-8.1-36 3.7-24.7 11.1-29.2 5.5-9 6.3-0.7 14.1 2.2 3.3-2.2z"/><path class="b" d="m358.7 344.3l-3.3 15.7-2.3 10.5-1.4 4.1 7.7 6.4 3.3 3.7-0.7 3.8-7 0.3-5.9 0.4-12.2 0.7-8.5-1.8 2.9-45.7z"/><path class="b" d="m400.1 339.4l2.2 14.2 1.1 24-3 8.2 2.6 1.9 31.8 1.1 1.5-8.2-8.9-6 1.1-11.6 2.2-30.3-0.7-9z"/><path class="c" d="m449.9 165.3l-11.1-34.5-7-22.5-0.3-27.3 6.6-28.1 6.7-16.8 11-16.1 11.8-13.2-6.6 4.2-15.9 17.2-12.9 24.7-7 23.6-0.4 26.6 6.3 26.2c0 0 13.3 46.8 13.3 47.9 0 1.2-3.3 31.1-3.3 31.1l-5.6 8.3-15.1 9.3-44-3.7-38 9.7-38.1 25.1-29.6 16.9-28 18.7-50.7 25.4-29.5 1.5-31.4-3.3-24.4-2.3-27.7 6.8-25.6 11.8 10.1-2.1 29.2-10.5 21.4-2.6 23.3 2.6 30.3 2.6 28-1.5 25.9-10.1 29.9-16.8 40.7-27 35.4-23.2 16.7-7.1 30.6-4.5 36.2-1.5 18.9-4.1 13.7-13.5 7-18.4z"/><path class="c" d="m477.6 3.5c0 0 7.1 1.1 8.2 1.1 0.4 0 1.9 0.9 3.5 1.7l-1.7-3.9-4.4-1.9-8.1 1.5-2.4 1.5c2.5-0.1 4.9 0 4.9 0z"/><path class="d" d="m424.1 336l24.4-32.2 10.3-29.6 7-13.4 10.7-32.3 4.1-29.9-5.5-36.7-15.6-36.7-8.1-36 3.7-24.7 11.1-29.2 5.5-8.9-5.3-0.3-8.3 13-11.1 22.4-0.6 24.2 5.6 30.9 10.5 29.7 6.1 30.9-0.6 37.1-12.7 36-24.9 27.5-23.9 25.3-20.5 10.1-22.2-1.1-25.4-6.2-42.7 2.2-17.8 5.1-42.1 20.2-38.2 10.7-43.2-2.8-32.2-6.8-24.9-2.2-41.6 12.3-28.8 4.5-18.8-2.8-6.5-1.7-0.9 2.7 18.4 4.8 37.4-1.5 39.9-9.3 36.2 6.3c0 0 47.3 8.6 48.4 7.9 1.1-0.8 42.1-5.3 42.1-5.3l29.9-8.2 25.5 1.5 12.2-0.4 3.3-2.6 16.3 7.5 18.8-0.7h21.8l25.5 5.6 21.8-4.5z"/><path class="e" d="m448.5 303.8l10.3-29.6 7-13.4 10.7-32.3 4.1-29.9-5.5-36.7-6.4-15 2.7 15.2 5.5 39.9-8.3 37.6-18.9 39.9-44.3 55-31 7.3-22.7-1.7-49.9-7.3-27.2-6.1-14.4 6.1-44.3 12.4-39.4 3.9-50.4-7.3-31-4.5-33.8 9-9.4 4.5 4.6-0.2 39.9-9.3 36.2 6.3c0 0 47.3 8.6 48.4 7.9 1.1-0.8 42.1-5.3 42.1-5.3l29.9-8.2 25.5 1.5 12.2-0.4 3.3-2.6 16.3 7.5 18.8-0.7h21.8l25.5 5.6 21.8-4.5 25.9-12.4z"/><path class="f" d="m290.7 314.7l-5.2-6c0 0-1.1-8.6-1.1-9.8 0-1.1 5.6-11.9 5.6-11.9l11-12 10.8-4.9 14-6.7 15.9-6.4 5.9-1.1 0.4 3.7-7.1 4.9-7 10.5-9.2 8.2-14.8 6.8-14 9.7z"/><path class="d" d="m289.2 314.3c0 0-2.6-9.7-2.6-10.9 0-1.1 9.6-16.4 9.6-16.4l15.2-7.9 17 1.1c0 0 11.4 9.4 15.1 15 3.7 5.6 8.9 25.8 8.9 25.8l-3 16.1-0.3 12.8-1.5 5.2-11.1 18-4.1 10.1 6.3 9.7-0.3 3.8-10.4-1.1-15.1 1.5-13.3-1.2-1.1-4.1 3.7-2.6 2.9-11.6 3.7-12 3.7-12.4-4.8-5.6-12.9-20.2z"/><path class="e" d="m320.3 334.2l-4.5-4.9-7.4-9.8-7-15.3 0.3-20.1-5.5 2.9c0 0-9.6 15.3-9.6 16.4 0 1.2 2.6 10.9 2.6 10.9l5.6 13.1 12.9 20.2 4.8 5.6-3.7 12.4-3.7 12-2.9 11.6-3.7 2.6 1.1 4.1 7.6 0.7-0.2-5.1 2.2-4.9 4.4-8.3 4.1-9.3 7-13.5 1.8-6.4-5.5-5.2z"/><path class="e" d="m338.6 289.5l5.3 13.9 3.7 21.8 0.7 15.3-1.4 9.4-6.3 2.2-4.1 7.9-5.2 12.7-2.2 9.8 3.3 0.7 4.1-10.1 11.1-18 1.5-5.2 0.3-12.8 3-16.1c0 0-5.2-20.2-8.9-25.8-1.1-1.7-2.9-3.7-4.9-5.7z"/><path class="a" d="m338.7 392.9l-5.2-8.1-9.2-0.8-10 3.7-9.2 3.4-1.9 5.1 9.7 0.9 15.1-1.5 10.4 1.1z"/><path class="e" d="m333.2 392.2l-1.5-3-2.6 0.7 1.1 2.7 0.8 3.3 2.7 0.3z"/><path class="e" d="m325.8 389.9l-1.9 0.8 1.3 5.1 2.1-0.2z"/><path class="e" d="m318.6 396.5l-0.9-4.7-2.3 1.5v3.5z"/><path class="f" d="m453.3 264.1l-0.8-12.7-10-4.1-14.4-1.9-12.5 4.5-15.5 15.3-4.8 18-1.2 16.9 7.1 12.7h6.6c0 0 6.7-15.7 6.7-16.8 0-1.2 17.7-18.4 17.7-18.4l12.2-6z"/><path class="d" d="m401.5 309.4l-2.9-14.2 4-19.1 15.6-16.8 19.5-6 14.8 4.1 3.7 16.5 2.2 20.6-1.8 26.5-1.5 16.1 1.8 7.9 1.2 21.4-1.2 12.7 2.3 4.9 8.5 9.3 0.3 3.4-8.5 1.1-21.8-0.4-7-1.5 2.2-12.3-2.2-4.9 0.4-4.9-4.8-12.7-4.1-9.3-0.7-9.8-3.7-19.1-1.5-7.9-7-3.7z"/><path class="e" d="m437.6 397.4l0.9-6.7 2.2-9.7-3.3-12.8-4.8-15.7-2.6-21.7-2.6-22.5-12.6-7.9-15.6-8.1-0.6 2.9 2.9 14.2 7.8 1.9 7 3.7 1.5 7.9 3.7 19.1 0.7 9.8 4.1 9.3 4.8 12.7-0.4 4.9 2.2 4.9-2.2 12.3z"/><path class="e" d="m451.8 376.5l-0.4 5.2 7.1 0.7-1.6-3.3 1.2-12.7-1.2-21.4-1.7-7.4-5.6 7-3.4 10.5 1.5 9.8z"/><path class="a" d="m459.5 397.8l8.5-1.1-0.3-3.4-8.5-9.3-0.3-0.6-4.9 2.4-8.1 1.5-7.4 3.4-4.1 5.2 0.1 0.9 3.2 0.6z"/><path class="e" d="m464.7 394.4l-3.3-3.3-3-3.8 0.4 3 3.3 4.5 0.7 2.6 2.1-0.3z"/><path class="e" d="m458.1 393.7l-2.3-4.5v4.9l0.3 3.7h2.2z"/><path class="e" d="m450.9 397.7l-0.2-7-1.5 3.4-0.5 3.5z"/><path class="e" d="m493.5 26.9l-2.6-0.6-6.8-1.5-5-1.8-3.5-2.1-3.9 1.5 0.3 3.9 6-0.7 14.1 2.2z"/><path class="d" d="m495.7 23.4v-0.4l0.8-0.3-1.9-0.9-6.1-1.5-5.9-1.3h-2.4l-0.3 1.3 1.4 0.2h1.9l5.9 1 4.8 1.3z"/><path class="f" d="m497 13.4l-2.4-1.7-4-2.6-0.8-1.8-3.1-0.4-4.6-1.4-3.9 1.2-0.9 3.9 2.7 2.4 3.9 0.6 8.5-0.6z"/><path class="d" d="m485.2 7.6l-3.3-1.1-2.2 1.5 0.5 2.6 1.9 1.5h2.2l1.5-2.1z"/><path class="b" d="m481 9l1.5-0.7 2.2 0.7c0.5 0.9-1.1 1.1-1.1 1.1z"/><path class="d" d="m441.8 231.2c1.1 1.5 4.1 6.3 4.1 6.3l3.7 8.7 1.1-2.3-6.3-16.5-2.6-0.7z"/><path class="d" d="m448.1 228.9l4.8 4.5 2.6 3.4 1.8-1.9-4.4-5.6-4.8-3z"/><path class="d" d="m265.9 289.6l-1.4 6.7 1.8 10.5 2.6 7.1 1.8 0.4-2.9-9-1.5-8.6 2.2-9.7z"/><path class="d" d="m271.9 291.1l0.3 6.7 1.9 8.3 2.9 5.6 1.5-1.1-3-5.7-1.4-10.1v-7.5z"/><path class="d" d="m242.7 305.7l0.3 6.4 3 8.9 2.9 3.4c1.2-1.1-1.4-5.2-1.4-5.2l-2.6-7.9v-8.6z"/><path class="d" d="m247.8 305.3l0.4 5.6 3 6 2.9 1.1c0.8-1.5-2.2-4.4-2.2-4.4l-1.8-6-0.4-6z"/><path class="d" d="m453.6 199.7l5.2 2.3 5.9 3.3 1.5 2.6 0.7-2.6-5.1-5.2-7.1-3.4h-2.5z"/><path class="d" d="m455.5 194.1l4.4 1.5 3.3 2.2 1.9 1.5v-2.6l-3.7-3-5.6-2.2z"/><path class="d" d="m439.2 56.3l3.3 1.5 2.3 2.6 0.3-2.6-5.5-3.8z"/><path class="d" d="m442.5 51.8l3 2.2 2.2 1.5 0.8-2.6z"/></svg>