<svg version="1.2" xmlns="http://www.w3.org/2000/svg" viewBox="0 0 381 226" width="381" height="226"><style>.a{fill:#fdaf42}.b{fill:#fed17a}.c{fill:#231000}.d{fill:#442000}.e{fill:#d57a0f}.f{fill:#7c4203}.g{fill:#af4e01}.h{fill:#e7a330}.i{fill:#d82b04}.j{fill:#aa2304}.k{fill:#891300}.l{fill:#ec3f1c}</style><path class="a" d="m180.1 143.1c4.2-3.9 16.6-10.6 18.4-13 1.8-2.4 37.7-20.2 37.7-20.2 0 0 19.6-11.1 20.8-12 1.2-0.9 35.3-8.5 35.3-8.5 0 0 38.6-1.8 43.7-1.8 5.1 0 28.1 3.3 33.8 4.5 5.7 1.2 11.2 1.8 11.2 3 0 1.2-1.9 3.7-1.9 3.7l-40.4 0.6-18.4 1.5-22 9.3-13.6 8.5-14.7 10.5-9.4 11.2-8.1 13.9-6.1 6.3-23.2 3.6-28-3.9z"/><path class="b" d="m369.8 92.1c-5.7-1.2-28.7-4.5-33.8-4.5-5.1 0-43.7 1.8-43.7 1.8 0 0-34.1 7.6-35.3 8.5-1.2 0.9-20.8 12-20.8 12 0 0-35.9 17.8-37.7 20.2-1.8 2.4-14.2 9.1-18.4 13l3.1 3.5 29.1-18 43.2-23.5 34.1-10.6 20.2-1.8 11.4 2.1-2.4 4v2.7l1.5-0.6 18.4-1.5 40.4-0.6c0 0 1.9-2.5 1.9-3.7 0-1.2-5.5-1.8-11.2-3z"/><path class="b" d="m1.5 0.7l-1.2 5.2 19.6 11.4 13.3 20.2 17.5 16.6 19.3 22.3 24.1 38.9 10.6 26.6 0.9 10.2-5.5 14.2-8.4 15.4c0 0 73.6-11.2 74.5-11.8 0.9-0.6 17.8-10.8 17.8-10.8l6.3-3.3 10.3 0.6-2.4-3.6-12.4-11.5-15.7-15.4-16.6-24.1-9.6-10-18.1-25-10-9.7-23.2-16.3-30.2-17.1-27.1-11.8z"/><path class="a" d="m182 137.5l-11.9-11.6-16.6-24.1-9.6-10-18.1-25-10-9.7-23.2-16.3-30.2-17.1-27.1-11.8-33.8-11.2-1.2 5.2 19.6 11.4 12.1 18.5c11.6 5.6 22 10.6 22 10.6l35.3 32.6 36.6 37.1 14.1 18.1 16.7 6.3 26.5 15.4z"/><path class="c" d="m283.8 167.5l-0.3 6.7 4.2 8.9 11.7 16.6 5.5 6.1 1.5 4.3-14.1-8.3-21.1-18.6-12.3-16-0.3-6.6 4.6 0.3z"/><path class="d" d="m299.3 205.9l-2.5-4.7-7.5-10.4-11.2-14.8c0 0-2.9-5.9-3.2-6.7-0.2-0.4-0.1-2.9 0-4.7l-11.7-3.7-4.6-0.3 0.3 6.6 12.3 16 21.1 18.6z"/><path class="e" d="m369.2 96.6l-27.8-0.3-19 1.9-18.1 6.9-24.1 10.2-15.1 12.4-14.1 21.1-9 12.5 4.4-0.7 6.1-6.3 8.1-13.9 9.4-11.2 14.7-10.5 13.6-8.5 22-9.3 18.4-1.5 40.4-0.6c0 0 0.4-0.6 0.9-1.3z"/><path class="e" d="m299.8 108l-1.3 1.3 2.1 0.8 5.2-0.8 2.6 0.8v-1.5z"/><path class="e" d="m294.8 110.4l-1.8 1 0.3 0.9 7.4 0.2 3.5 0.6 3.6 2.6-0.4-2.5-4-2.5z"/><path class="e" d="m292 111.9l-1.8 1.2 0.1 1 3.9 1.2 4.9 1.4 3.6 0.5 0.9 1.3 0.7-2.2-3.7-2.2-5.9-2.7z"/><path class="f" d="m139.1 189.9l-7.1 6.7-4.1 5.6-6.7 2.7-15 8.2-1.4 1.9-3.8 0.9-3.7 2.5-4.1 5.8 1.1 1.2v-0.1l2.1-4.1 0.9 0.5-1.4 2.2-0.9 1.7 0.9 0.1 2.4-2.8c0 0 5.3-2.4 5.8-2.9 0.4-0.4 2.7-2.1 2.7-2.1l9.8-4.5 12-5.5 8.5-1.3 7.4-4.1 8-6.8 6.6-4.3 0.3-2.3z"/><path class="g" d="m159.4 189.1l-5 0.2-7.5 4.2-5.7 4.6-2 2.9-6 3.3-9.7 2.9-7.8 3.6-6.1 3.9-2.3 2.9 9.3-4.2 12-5.5 8.5-1.3 7.4-4.1 8-6.8 6.6-4.3z"/><path class="h" d="m185.8 141.3l-15.7-15.4-16.6-24.1-9.6-10-18.1-25-10-9.7-17.5-12.2 19.3 19.8 19.6 27.1 10.6 20.8 16 19 14.5 14.5 7.4 12.1 4.6-2.4 10.3 0.6-2.4-3.6z"/><path class="h" d="m31.8 29.2l-2.1 3 2.4 3.7 2.4-4.9 6.1-5.2-1.5-1.1z"/><path class="h" d="m44.1 47.9l3.8 3.6 16.3-11c0 0 9.7-4.9 8.8-6.1l-23.3 9.1z"/><path class="h" d="m71.4 45.7l6.3-3.8-0.2-1.8-6.1 2.3-12.9 8.3-5.8 5.7 4.4 5.2z"/><path class="h" d="m64.3 69.9l3.7 4.3 11.1-9c0 0 17.4-7.7 17.2-8.8l-3.6 0.4-19 7.3z"/><path class="h" d="m89.3 88.3l-9.2 4.5 4.3 6.9 5.6-3.7 15.8-8.6 15.2-4.8-1-1.3-13.3 2.2z"/><path class="h" d="m91.9 111.8l21.4-12.4 10.6-4.8-1.6-1.8-9.7 1.4-18.8 6.5-6.4 3.8z"/><path class="h" d="m113.9 112.5c0.7-0.2 15.6-3.9 15.6-3.9l-0.4-1.8-15.4 2.1-10.8 2.7-8.5 4.5 2.1 5.3c5.5-2.9 16.9-8.7 17.4-8.9z"/><path class="h" d="m100.3 130.9l2.8 7 9.3-2.8 18.7-5.4 9.5-5.2-1.3-1.2-10.2 2.8-15.8 2z"/><path class="h" d="m108.5 140.1l-4.1 1 0.3 0.8 0.4 5.1 17.9-9 6.5-2.4-1.1-1.6-7 2z"/><path class="h" d="m105.5 151.9l0.1 0.2-2.9 7.6 20.7-2.9 14.1-3.6 5.2-0.7-1.2-1.1-10.4 0.2-18.3-0.9z"/><path class="e" d="m307.7 210.1l-12.1-8.8-13.3-12.7-9-10.8-2.7-7.3-3.4-2.1-3.9-0.9-3.6-3.9 9.7 0.9 13.8 6 19.6 10.6 13.3 9.1 6.3 6.6 1.8 2.7 1.9-1.8 0.9-6.9-3.1-8.8-4.8-3.3-5.4-1.8-11.2-10.3-18.4-18.1-4.2-4.8-3-0.9-3-3.6v-2.7l-1.5-3.7-8.5-6-16-18.7-4.8-9.9-3-0.9-0.6 3.6 2.7 11.1 3.9 13.3 3.3 13 0.9 4.8-4.8 5.4-5.7 5.2-12.1 2.4-14.4-0.9-12.1-2.4-9.4 0.3-12.3-3.7-7.6-4.5-15.1-7.5-2.4-12.7-0.9-18.1 0.5-4.1-0.5-0.7-9.6-10-18.1-25-10-9.7-23.2-16.3-30.2-17.1-27.1-11.8-33.1-10.9 3.2 2.1 9.1 4 20.8 6.3 26.5 12.4 40.1 24.7 18.1 13 2.5 2.7 15.9 23.2 8.8 13.9 1.8 22.6-0.9 17.5 1.5 3.6 8.5 6.1 9.9 5.1 2.1 2.7-3.9 2.4-17.5 4.2-19.3 2.4-28.1 4.3-13.5 6.3-16.3 8.1-10.9 8.2-6 2.7-8.2 8.1 1 4.9 2.1 2.1 11.7-10.9 1.8-0.9 2.8-2.4 8.1-6.9 14.5-2.1 9.6-4h10c0 0 16 0.9 16.9 0.9 0.9 0 1.2 3.4 1.2 3.4l0.9 2.1 3.6-2.1 16.3-0.3 20.8 1.8 22.3 1.5 4.2-0.3 5.5-2.4c0 0 10.5-0.9 11.4-0.9 0.9 0 3.4-1.9 3.4-1.9l2.1-3.6 3.3-0.6 3.3-4.2 3.9-7.8 8.8-1.8 10.8 1.2 0.6 2.7 4 1.5 4.2-0.3 1.2 4.5 13.9 10.3 17.1 10.2 15.4 9.1 4.3 2.1z"/><path class="i" d="m307.7 210.1l-12.1-8.8-13.3-12.7-9-10.8-2.7-7.3-3.4-2.1-3.9-0.9-3.6-3.9 9.7 0.9 13.8 6 19.6 10.6 13.3 9.1 6.3 6.6 1.8 2.7 1.9-1.8 0.9-6.9-3.1-8.8-4.8-3.3-5.4-1.8-11.2-10.3-18.4-18.1-4.1-4.7-3.4 2.2-6.6-0.5-6.3-0.4-5.4 1.3-0.7 4.3-2.7 6.8 1.8 10.6-0.2 6.6-1.1 1.6h0.1l1.2 4.5 13.9 10.3 17.1 10.2 15.4 9.1 4.3 2.1z"/><path class="j" d="m319.8 189.2l-10.6-9.8-14.5-12.6-20.1-12.7-7.3 5.4-5.2 1.6-6.7-0.6 1.3 7.6-0.1 3.6 1.9 3 7.7 6.8 16.5 12.6 20.8 14.8 4.1 1.9 0.1-0.7-12.1-8.8-13.3-12.7-9-10.8-2.7-7.3-3.4-2.1-3.9-0.9-3.6-3.9 9.7 0.9 13.8 6 19.6 10.6 13.3 9.1 6.3 6.6 1.8 2.7 0.6-0.5z"/><path class="k" d="m283.2 170.5l19.6 10.6 13.3 9.1 6.3 6.6 1.8 2.7 0.6-0.5-2.4-4.8-8.3-7.1-17.4-12.2-14.9-7.4-11.5-5.7-4.6-1.4-0.7-0.1-2.9 0.8-6.7-0.6 0.8 4.6 6.6 5.5 5.4 2.5 2.1 3.6 6.3 8.9 9.9 9.5 5.1 5.4 11.9 8.4 4.1 1.9 0.1-0.7-12.1-8.8-13.3-12.7-9-10.8-2.7-7.3-3.4-2.1-3.9-0.9-3.6-3.9 9.7 0.9z"/><path class="l" d="m319.1 178.7l-5.4-1.8-11.2-10.3-18.4-18.1-4.1-4.7-2 1.3 4.7 5.8 11.1 9.5 10.6 10.2 10 8.2 8.8 10.6 2.9 7.8 0.9-6.4-3.1-8.8z"/><path class="k" d="m273.2 158.6l1.1-1.8 3 0.2 3.6 3.4 0.2 1.9-2.5 0.2-4-2.1z"/><path class="d" d="m275.5 157.5l-0.7 1.2 1.4 1.7 2.4 0.7h1.4l-1-1.3-2.1-1.6z"/><path class="k" d="m267.2 147.9l-4.6 0.6-2.7 1.2-0.8 4.6 2.1 2.7 5.4-2.3c0 0 2.1-2.7 2.3-3.8 0.2-1-1.7-3-1.7-3z"/><path class="j" d="m261.2 150c0 0-1 0.9-0.9 2.4 0.2 1.6 0.5 3.1 0.9 3.1 0.5 0 2.3-0.8 2.7-1.1 0.5-0.3 3.5-2.7 3.5-2.7l-1.1-2.1z"/><path class="c" d="m261.2 152.2c0.3-0.5 1.6-1.5 1.6-1.5l2.3-0.2 1.1 0.6-1.9 1.3-2.3 0.8z"/><path class="i" d="m263.2 141l6.2-0.2 5.5-0.4-1-1.2v-2.7l-1.5-3.7-8.5-6-16-18.7-4.8-9.9-1.2-0.4-0.2 3.4c0 0 1.9 10.6 2.1 11.5 0.2 0.9 7 19 7 19l5.7 10.2z"/><path class="l" d="m243.3 101.2l2.8 9.5 5.8 11.7 9.5 10.2 5.7 4.5 2.5-0.9-0.5-3.8-7.9-5.7-9.5-10.4z"/><path class="g" d="m245.5 148.5l-5.7 5.2-12.1 2.4-14.4-0.9-12.1-2.4-9.4 0.3-2.4-0.8 6 6.3 9.9 8.6 5.5 11.3 4-3.8c0 0 4.6-0.7 5.2-0.7 0.7 0 5.1-1 5.1-1l1.8 0.4 0.2-0.4 8.8-1.8 10.8 1.2 0.2 0.9c0.8-1.5 0.1-2.9 0.1-2.9l-2.1-7.5-0.2-8.3 1.3-6.6z"/><path class="f" d="m244.9 162.9l-0.2-8.3 1.3-6.6-0.5 0.5-5.7 5.2h-0.4l-2.6 5.4 0.4 8.1 0.8 4.2 8.7 1 0.2 0.9c0.8-1.5 0.1-2.9 0.1-2.9z"/><path class="g" d="m93.2 180.8l25.3-5.4 30.2-5.2 20.2-4.2 3.9-3 3.7-2.7-3.4-3.9-11.4-7.9-7.9-4.2 2.1-4.2c-1.5-1.2-4.5 1.2-4.5 1.2l-0.3-3.6v-14.8l-0.9-14.2-1.5-6.6h-2.3l0.8 1.2 1.8 22.6-0.9 17.5 1.5 3.6 8.5 6.1 9.9 5.1 2.1 2.7-3.9 2.4-17.5 4.2-19.3 2.4-28.1 4.3-13.5 6.3-16.3 8.1-10.9 8.2-1.3 0.6 1.6 0.9 10.3-7.5z"/><path class="f" d="m117.9 59.2l-1.1 1.9 3.2 2.4 2.5 2.7 15.9 23.2 8.8 13.9 4.2 0.3 2.6-0.6v-0.5l-0.5-0.7-9.6-10-18.1-25z"/><path class="f" d="m232 157.9l-2.2 2.4-1.2 7.5 1.8 4.5 4.5-0.9-1.1-3.6-0.3-6 0.9-3.9z"/><path class="g" d="m195.4 157.3l-12.2-1.4h-6.4l-2.5 3.2 0.9 9.3-2.7 4.5-17.8 5.9-7.5 2.1-11.8-1-14.1 1.5-19.4 2.7-11.1 1.8-3.3 2.1-9.7 2.8-6.9 2.7-22.4 20.1 1 1 11.7-10.9 1.8-0.9 2.8-2.4 8.1-6.9 14.5-2.1 9.6-4h10c0 0 16 0.9 16.9 0.9 0.9 0 1.2 3.4 1.2 3.4l0.9 2.1 3.6-2.1 2.5-0.1 3.7-3 33.2 2.8 27.2-1.3 9.9-2.1 11.8-9 4.8-8.2z"/></svg>