<svg version="1.2" xmlns="http://www.w3.org/2000/svg" viewBox="0 0 409 239" width="409" height="239"><style>.a{fill:#9b6210}.b{fill:#ac180e}.c{fill:#17441f}.d{fill:#449c48}.e{fill:#5ece6a}.f{fill:#326d33}.g{fill:#1f4b28}.h{fill:#e43f22}.i{fill:#ff624a}.j{fill:#82500d}.k{fill:#c47d1e}.l{fill:#a6f453}</style><path class="a" d="m384 99.8l0.3-11.6-2.5-12.9-4.7-17.3-3.9-11.9-2.2-1.8c-0.4 1.8 0.7 10.1 0.7 10.1l2.5 19.4 1.8 16.6 0.8 9-0.4 3.6 5-1.4z"/><path class="a" d="m397.3 91.5l2.5-10.8c0 0 1.4-15.1 1.4-16.2 0-1.1-1.4-18.4-1.4-18.4l-1.8-3.6c-1.4 1.5-1.4 8.7-1.4 8.7l-1.8 15.1-1.8 15.8-2.2 10.8-0.4 5.1z"/><path class="b" d="m321 107.3l5.4-6.8 8.2-7.6-0.7-7.5-4.7-14.4-13.6 5.7-6.9 5.8 0.4 21.2z"/><path class="b" d="m298.6 64.5l-1.1-9.7-4.6-14.4-1.5-5.1-1.8-0.7-23.7 7.2-5.8 4.7-1.4 13.7 1 14 12.6 8.3 7.6-6.1 13.7-5.4 4.3-3.3z"/><path class="b" d="m244.6 41.1l-3.9-14.8-9.8-19.4-5.7-6.2h-3.3l-13.3 11.9-13.7 14.4-2.5 5.4-1.4 4 0.7 4 14 25.5 21.6 0.7 7.6-13.6 7.9-8.3z"/><path class="b" d="m165.8 75.6l0.7-14.4 1.1-12.2-1.5-7.2-11.5-10.1-18.4-9-8.6-2.9-2.2 4c0 0-2.1 15.5-2.1 16.6 0 1 0 19.8 0 19.8l1.4 5.4 3.3 3.9 9 3.6 12.2 11.5z"/><path class="b" d="m130.5 100.1l-2.2-11.1-2.5-14.1-2.5-6.1-7.6-5.4h-24.8l-1.5 3.2 2.2 24.9 1.8 6.5 3.2 1.8 25.6 8.6z"/><path class="b" d="m95.9 103.4l-11.2-6.2-5.4-2.8-3.2 2.1-1.4 12.6 0.3 6.1 12.6 11.2 9-2.9 0.4-17.6z"/><path class="b" d="m71.1 114.5l-2.9-6.8-2.9-5.8h-2.5l-6.1 11.2v2.5l2.1 11.5 6.1 1.1 5.8-8.6 1.4-2.9z"/><path class="b" d="m51.3 114.2l-2.9-6.2-2.9-2.5-2.2 1.1-3.9 9.4 4.3 9.3h2.5z"/><path class="c" d="m221.9 177.9l-0.3 13.7-2.2 12.6-3.2 11.1-0.4 16.3-0.7 2.1-26.3 1.8-1.4-2.5 6.1-7.2 1.1-7.6-1.5-8.3 2.5-6.8-3.2-23z"/><path class="c" d="m158.2 184l-3.2 15.9-0.8 14.4 1.1 14-1.8 2.9-1.4 2.2h-22l-0.3-3.7 4.6-7.9 1.1-12.9-2.5-35z"/><path class="d" d="m406.3 84.6l-2.5-0.7-9.4 7.2-10.8 6.9-22 6.8-35.6 1.4-22.3-6.8-28.8-19.4-20.6-9.4-25.2-7.6-16.2-0.3-27.7 2.1-37.4 15.5-20.6 18.4-20.9 18-18.7 7.9-23.4 1.4-16.2-2.8-7.9-0.4-10.8 2.9-5.4 5-16.6 6.2-6.1 4.3-0.7 7.5 1.1 2.6 2.1-1.8 4.7 0.3 10.1-1.4 14.4 1.4 5.8 1.8 5.4-1.1 7.5-2.8 11.5 6.4 23.8 5.4 25.9 7.2 10.1 7.2 19.5 8.3 11.8 7.6 7.2 1.8 9-1.8 15.5-3.3 21.3-2.8 16.2-2.2 22.3-2.5 15.1-3.3 9-9.3 6.1-7.2 8-4.3 4.3-6.9 5.4-2.9 26.6-3.9 27.8-11.2 24.1-11.5 17.6-10.5 12.6-15.4z"/><path class="e" d="m0.9 144.7l0.3-3.5 6.1-4.3 16.6-6.2 5.4-5 10.8-2.9 7.9 0.4 16.2 2.8 23.4-1.4 18.7-7.9 20.9-18 20.6-18.4 37.4-15.5 27.7-2.1 16.2 0.3 25.2 7.6 20.6 9.4 28.8 19.4 22.3 6.8 35.6-1.4 22-6.8 10.8-6.9 6.8-5.2-6.4 7.2-23.3 13-31.8 6.4-39.5-5.4-37.2-21.6-34-12.9-47.6 4.3-23.7 10.3-28.7 21.6-18.9 14.5-37.8 8.7-17.3-1.6-11.3-3.3-9.7-1.1-7 3.8-8.1 4.9-14.1 5.4z"/><path class="f" d="m4.8 147.1l10.3-1.1h12.4 11.3l9.2-3.2c0 0-3.2-7-2.7-8.6l6.5 8.6 17.3 5.4 36.2-1.6 25.4 1.1 26.4 4.8 32.4-11.3 24.9-16.2 31.3 8.1 33.5 1.1 34-4.9 41.1-9.7 28.6-13.5 23.3-21.5h0.1l-4 8-12.6 15.4-17.6 10.5-24.1 11.5-27.8 11.2-26.6 3.9-5.4 2.9-4.3 6.9-8 4.3-6.1 7.2-9 9.3-15.1 3.3-22.3 2.5-16.2 2.2-21.3 2.8-15.5 3.3-9 1.8-7.2-1.8-11.8-7.6-19.5-8.3-10.1-7.2-25.9-7.2-23.8-5.4-11.5-6.4-7.5 2.8-5.4 1.1-5.8-1.8-14.4-1.4-10.1 1.4-4.7-0.3-2.1 1.8-1-2.2z"/><path class="g" d="m42.1 148.2l9.2-2.7 7 3.2 16.7 2.7 24.3 4.9 15.7 3.8 30.8 5.4 21.6 7.5 17.3-0.5 19.4-9.2 10.3 4.3 37.8-2.7 13.5-12.9 14-11.9 24.3-2.7 31.9-6 15.2-2.9-3.1 1.5-27.8 11.2-26.6 3.9-5.4 2.9-4.3 6.9-8 4.3-6.1 7.2-9 9.3-15.1 3.3-22.3 2.5-16.2 2.2-21.3 2.8-15.5 3.3-9 1.8-7.2-1.8-11.8-7.6-19.5-8.3-10.1-7.2-25.9-7.2-23.8-5.4-11.5-6.4-7.5 2.8-5.4 1.1-1.5-0.5z"/><path class="e" d="m277.7 106.6l-12.6-6.8-13.6-9-29.6-6.2-36 1.1-30.2 13-19.8 18-16.2 10.8-3.3 2.1c1.5 1.8 5.4 0.4 5.4 0.4l18-12.6 18-15.8 23.4-8.3 39.7 1.8 27 2.5 11.5 3.2 13.7 5.8 4.6 2.2z"/><path class="f" d="m263 112l4.7 18 0.3 14.1-2.9 8.6-5.4 7.2-3.6 4.7-4.3 11.5-1.8 7.2 0.4 4.3 11.9 27.4 2.1 5.7-0.3 5.1 1.8 7.2-19.1 4.3-7.2-1.4-6.9-7.6 1.5-4 2.1-2.8-5-10.1-3.6-3.6-0.7-5.4-9.7-12.3-0.4-7.2 1.4-9.3-2.5-14.4-5.4-15.1 4.7-20.9 15.1-18 17.7 0.3z"/><path class="d" d="m219.4 134c0-1.1 2.5-14.8 2.5-14.8l7.6-9 7.1-4.9 11.3 0.2 7.3 3.2 3.1 9.4-1.4 18.4-8.7 15.8-9.7 9.4-3.6-2.2-10.8-15.8c0 0-4.7-8.7-4.7-9.7z"/><path class="g" d="m236.3 221.5l-0.1-0.4 8.4 2.9 2.2-1.5-2.9-5.4-5.4-10.8-5.4-8.6-5.8-8.3-10.2-7.5 1.2-8.3-2.5-14.4-5.4-15.1 2.5-11 0.4 9.1 3.2 14.1 8.7 18 8.3 10.4 6.1 2.6 5-8.3 6.1-16.2 10.5-10.8c0 0 4.1-6.7 6.7-11.2l0.1 3.3-2.9 8.6-5.4 7.2-3.6 4.7-4.3 11.5-1.8 7.2 0.4 4.3 11.9 27.4 2.1 5.7-0.3 5.1 1.8 7.2-19.1 4.3-7.2-1.4-6.9-7.6 1.5-4z"/><path class="c" d="m251.8 176.1l-1.8 7.2 0.4 4.3 11.9 27.4 2.1 5.7-0.3 5.1 1.8 7.2-4.5 1-2.7-3.5-0.8-9-2.1-11.9-7.2-19.5-1.1-8.6 4.5-5.9z"/><path class="f" d="m234.2 224.3l0.7-0.9 6.8 2.4 13.7 4.3 3.2 4.5-11.8 2.7-7.2-1.4-6.9-7.6z"/><path class="d" d="m238.9 232.2l-1.8-4.3-2.2-1.1-4.9 4.6-1 4.3 0.8 1.9 4.3-0.3z"/><path class="g" d="m230.8 237.5l0.3-2.3 2.2-3.8 4.2-2.5 1.4 3.3-4.8 5.1z"/><path class="d" d="m240.6 230l4 2.5 0.3 4.8-5.7 0.8-6.7 0.6 0.2-2.7 1.9-3.8z"/><path class="g" d="m240 233.3l4.7-0.2 0.2 4.2-5.7 0.8-6.7 0.6 0.1-1.5 2.8-2z"/><path class="f" d="m187.4 233l5.5-6.6 2.8 2.8-7.6 5.1z"/><path class="g" d="m187.8 233.7l5.2-3.7 4.9-2.4 2.2 4.3-0.2 2.8-11.1 0.8z"/><path class="f" d="m139.8 152l6.5 5.9 1.6 13.5 4.6 14.9-1.3 6.2-11.1 29.7-5.7 7.5 1.9 7.3-4.3 1.1-19.7 0.6-3.8-2.5-0.3-2.4 8.7-10.5 6.7-24.9 3-7.3-5.9-10.2-4.4-6-1.8-13.7 7.8-9.5 12.7-2.4z"/><path class="d" d="m119 163.6c-0.1-0.4-0.9-3.1-1.8-5.8l5.1-6.1 12-2.3 4.7 6.6 1.4 10.6-6.8 3.7-9.2-1.3c0 0-5.1-4.6-5.4-5.4z"/><path class="g" d="m128.5 232.5v-7.3l5.1-22.2 6-7.3 6.7-7.8 0.3-11.1 1.2-6.6 0.1 1.2 4.6 14.9-1.3 6.2-11.1 29.7-5.7 7.5 1.9 7.3-4.3 1.1-1.8 0.1z"/><path class="g" d="m116.9 223.3l6.7-24.9 3-7.3-1-1.7 2.9-1 3.2 0.3-2.4 5.1c0 0-3.8 16-4 16.8-0.3 0.8-1.1 12.4-1.1 12.4l0.5 5.1-6.2-0.2-3.3-2.6z"/><path class="d" d="m117.2 229.2l4.8 3 6 1.6 4 1.9 3.9-0.2 0.4 1.5-4.3 1.1-19.7 0.6-3.8-2.5-0.3-2.4 5.7-6.9z"/><path class="g" d="m115.8 234.6l1.4-3 1 0.6-1 6.3-2.6 0.1z"/><path class="g" d="m110.1 233.8l4.9-3-3 3.5-1.2 3.4-2-1.3z"/><path class="h" d="m349.4 107.7l-10 0.5-11.9-0.8-4.6-10 2.7-5.6 11.6-20.6 2.5-0.2 11.3 12.9 4.3 10-0.5 3.8z"/><path class="i" d="m337.2 71.2l2.5-0.2 11.3 12.9 4.3 10-0.5 3.8-0.1 0.2-4.2-10.2-6.5-9.5-4.9-3.5-5.9 10.3-9.9 13.2-0.4-0.8 2.7-5.6z"/><path class="b" d="m337.8 89.6l-1.4 8.4-0.5 6.2-1.9-1.9 0.5-10z"/><path class="b" d="m337.3 108.1l2.6-8.5c0 0 2.2-10 2.2-10.8 0-0.8 0.8-5.7 0.8-5.7l1.1 1.1-2.2 13.8-1.3 7.5-0.6 2.7h-0.5z"/><path class="b" d="m346.2 99.6l1.8-8.9 1.7 1.6-1.9 7.3-2 8.3-1.6 0.1z"/><path class="b" d="m332.4 101.7v5.7 0.3l-1.9-0.1v-6.4l1.1-6.8z"/><path class="h" d="m321 42.9l3 2.1-1.1 10.6-2.4 28.6-0.8 6.2-4.6 3.8-11.9 6.5-11.9-6.5-14.8-11.1 0.8-11.9 2.2-11.3 2.7-2.7 22.1-9.7 13.2-4.6z"/><path class="b" d="m310.2 88.8l-4.8 5.4-2.7 2.4-0.6-1.9 4.4-6.2 3.2-3z"/><path class="b" d="m295.4 65.8l-5.4 13.3-1.6 5.4-1.7-1.7 4.4-14.5 2.1-6.8 2.5 0.5z"/><path class="i" d="m282.2 57.2l22.1-9.7 13.2-4.6h3.5l3 2.1-1.1 10.6-2.4 28.6-0.8 6.2-4.6 3.8 2.4-6.2 2.5-23 0.5-17.3-2.7-1.3-19.2 7.3-15.4 7.3-4.7 3.8 1-4.9z"/><path class="b" d="m293.5 86.3l6.5-12.6 8.4-15.2 5.4-5.6 0.8 1.6-8.4 18.1-8.1 11.3-6.4 10.5-0.4-0.2-1-0.8z"/><path class="b" d="m298.6 89l8.4-12.1 6.5-9.2-1.1 4.9-5.1 8.1-6 8.9-5.2 7.2-1.5-0.9z"/><path class="h" d="m256.2 5.9l4.6 1.3 4.6 8.7 7.3 40.2 0.8 6.2-3.5 4.6-8.4 8.9-23.7-7-10.6-3.2-3.2-1.1-3-8.9-2.9-8.1 2.1-3.3 10.3-11.6 18.1-17.8 4-5.4z"/><path class="i" d="m219.4 50.9l-1.2-3.4 2.1-3.3 10.3-11.6 18.1-17.8 4-5.4 3.5-3.5 4.6 1.3 4.6 8.7 7.3 40.2 0.8 6.2-1.9 2.5-1.1-9.8c0 0-5.1-25.4-5.1-26.2 0-0.8-4.6-15.1-4.6-15.1l-4-1.1-4.6 3-14.1 14.3-12.7 13.8z"/><path class="b" d="m237 68.5l2.2-10.5 8.1-23.5 4.1-11.9 3.8-4.3-1.1 5.1-11.1 40.5-2 5.8-3.1-0.9z"/><path class="b" d="m230.6 56.4l1.1-11.1 1.8-3.8c0 0 1.1 3.5 1.1 4.1l-1.3 10c0 0-1.1 7-1.1 7.8 0 0.5-0.2 2.2-0.4 3.5l-2.2-0.6c0.3-3.1 1-9.9 1-9.9z"/><path class="b" d="m248.9 63.7c0 0 3-12.2 3.3-13.3 0.3-1.1 3.5-9.2 3.5-9.2l1.9-5.6 1.6 1.6-1.6 8.6-4.1 10.3-2.9 10.3-1.7 5.6-1.8-0.5z"/><path class="b" d="m257.3 64.2c0.6-1.1 3.8-8.6 4.1-9.4 0.2-0.9 2.9-2.5 2.9-2.5 0.6 1.4-0.2 6-0.2 6l-4.9 9.1-3.5 5.7-0.4 0.8-1.8-0.5c1.1-2.6 3.4-8.4 3.8-9.2z"/><path class="h" d="m199.5 68.3l4.6-11.7 3.5-10.8-2.7-5.4-22.1-24.8-8.9-10.3-4.1-2.4-1.3 2.2-11.4 27-7.8 23.7 1.6 4.4 6.5 4.8 9.2 9.5 4-1.4 12.4-3.5 10.8-1.9z"/><path class="b" d="m169.8 38.8c0 0 2.4 9.7 2.7 10.5 0.3 0.9 1.9 8.4 2.2 9.2 0.2 0.8 0.5 4.1 0.5 4.1 0 0-1.3 1.9-1.6 1.1-0.3-0.8-3-8.4-3.2-9.8-0.3-1.3-3.6-11.8-3.6-11.8l-0.8-6.3z"/><path class="b" d="m196.8 49.1c0 0-0.3 8.9-0.5 9.7-0.3 0.8-0.8 5.4-0.8 5.4h-1.4l-1.1-7c0 0 0.8-10.3 0.8-11.1 0-0.8 1.7-3 1.7-3z"/><path class="b" d="m163.6 56.9l5.7 8.7c0 0 0.2 2.7-0.6 2.1-0.8-0.5-2.9-1.9-3.2-2.7-0.3-0.8-3.2-4.8-3.2-4.8l-1.7-4.6z"/><path class="i" d="m168.5 5.1l1.3-2.2 4.1 2.4 8.9 10.3 22.1 24.8 2.7 5.4-2 6.4-5.3-10.7-10.8-13.8c0 0-10.8-11-11.3-12.1-0.6-1.1-5.7-6.8-5.7-6.8l-2.4 4.6-6 16.2-9.1 20.6-2.2 8.9 0.2 2.7-2.1-1.6-1.6-4.4 7.8-23.7z"/><path class="b" d="m177.1 23.4l3.5 23 1.9 15.1 1.4 8-0.9 0.1-2.2 0.6c-0.8-3.4-2.2-9.4-2.3-10.9-0.3-2.1-3.8-16.7-3.8-18.3 0-1.6-1.1-11.9-1.1-13 0-1.1 1.6-7.5 1.6-7.5z"/><path class="b" d="m187.9 39.6c0 0 0.8 8.9 1.1 9.7 0.3 0.9 0.8 6.8 0.8 7.6 0 0.8 0 5.7 0 5.7l0.2 5.8-2.2 0.4c-0.2-3.3-0.8-11-1-11.6-0.2-0.8-2.1-10.3-2.1-11.6 0-1.4 0.2-7.9 0.5-8.7 0.3-0.8 2.7 2.7 2.7 2.7z"/><path class="h" d="m147.1 86.6c0-0.8-1.1-10.8-1.1-11.9 0-1-1.6-10.2-1.6-11 0-0.8-3.5-4.9-3.5-4.9l-10.5-4.6-19.5-9.4-3.5 1.3 4.1 29.7 1.9 11.4 5.4 3.5 12.1 7 1.9 0.3 6.2-6.2z"/><path class="i" d="m110.9 44.8l19.5 9.4 10.5 4.6c0 0 3.5 4.1 3.5 4.9 0 0.2 0.1 1 0.3 2.2l-8.1-7.1-11.3-4-8.7-3.3-5.1-0.3 0.5 5.7 1.4 17.8 2.1 11.6 0.5 2.5-2.6-1.6-1.9-11.4-4.1-29.7z"/><path class="b" d="m121.2 72.6c0 0 5.9 7.5 6.5 8.3 0.5 0.9 4.3 6.3 4.3 6.3l-0.5 1.6-5.2-3.5-4.6-6.5-3.5-6z"/><path class="b" d="m139.8 74.7l2.7 7.1 1.4 4.3 0.7 2.1-1.8 1.2c-0.7-2.3-2.5-7.1-3-8.2-0.5-1.3-3.7-8.9-4-10-0.3-1.1-1.6-4.8-1.6-4.8l1.9 0.5z"/><path class="b" d="m128.5 70.7l7.8 12.4 3 5.9 1 1.9-1.3 0.9-1.7 1.7-4.5-8.2c0 0-5.7-10-5.9-10.8-0.3-0.8-5.4-9.8-5.4-9.8l-3.3-6.4-1-1.9 2.7 1.1z"/><path class="h" d="m113.6 115.5c-0.2-1.1-1.6-10.2-1.8-11.3-0.3-1.1-2.5-9.5-2.5-9.5l-1.9-2.4-21.8-13.8-2.2 1.1 3.5 26.7 1.6 4.6 14.9 10z"/><path class="i" d="m85.6 78.5l21.8 13.8 1.9 2.4c0 0 0.2 0.9 0.6 2.1-3.6-2.1-9.6-5.8-10-6.4-0.6-0.8-10.8-6.2-10.8-6.2l-1.9 1.6c0 0 1.3 9.7 1.3 10.8 0 0.8 1.6 11.1 2.3 15.9l-2.3-1.6-1.6-4.6-3.5-26.7z"/><path class="b" d="m96.9 95.3c0.5 1.3 3.8 9.7 3.8 9.7l5.6 14.4-2 1-1.5-2.5-3.7-8.6-4.6-11.3-3.8-7.6 2.1-0.8c0 0 3.6 4.3 4.1 5.7z"/><path class="b" d="m105 99l2.4 6.8 3 11.4-1.4 0.8-1-1.7-1.9-6.5-2.7-9.4c0 0-1.6-4.3-0.8-5.1z"/><path class="h" d="m81.8 128.2l2.9-8.9c0 0-1.3-5.4-1.8-6.2-0.6-0.8-5.7-10.3-5.7-10.3l-3.8-2.9c0 0-2.4 2.4-2.7 3.2-0.3 0.8-5.7 14.6-5.7 14.6l1.4 6.2 2.7 4.8h6.7z"/><path class="i" d="m65.6 120.5l-0.6-2.8c0 0 5.4-13.8 5.7-14.6 0.3-0.8 2.7-3.2 2.7-3.2l3.8 2.9c0 0 5.1 9.5 5.7 10.3 0.5 0.8 1.8 6.2 1.8 6.2l-0.8 2.4c-1.6-3.8-6.4-14-6.4-14l-3.8-2.4c0 0-2.7 2.7-3 3.5-0.3 0.8-3.2 9.4-3.2 9.4z"/><path class="b" d="m71 126l0.2-7.8 0.3-6.7 2.2-1.1 0.2 3-0.2 5.6-0.8 9.7h-2.1z"/><path class="b" d="m78 116.9l1.6 1.3c0 0 0 3.5-0.3 4.3-0.1 0.6-0.9 4.1-1.3 6.1l-2.2 0.1 1.1-6.4z"/><path class="h" d="m53.4 126l3.8-4.8 2.4-5.1c0 0-1.9-7.1-2.1-7.9-0.3-0.8-1.9-2.9-1.9-2.9l-3 0.5-5.1 7.3 0.2 7.3 1.1 5.6z"/><path class="i" d="m47.5 113.1l5.1-7.3 3-0.5c0 0 1.6 2.1 1.9 2.9 0.2 0.8 2.1 7.9 2.1 7.9l-1 2.1-2.5-8.1-4 0.3-2.5 4.6c0 0-1 0.6-2 1.2z"/><path class="a" d="m0.5 148.7l0.7-7.5 6.1-4.3 3.6-1.4-1 2.7-0.5 4.6-0.3 4.9-2.5 2-2.9-0.2-2.1 1.8z"/><path class="j" d="m8.4 149.8l-4.7-0.3-2.1 1.8-1-2.2 4.2-2 4.8-0.5 0.3 0.8 1.7 1.9z"/><path class="k" d="m10 138.1l-5.2 2-3.9 4.6 0.3-3.5 6.1-4.3 3.6-1.4z"/><path class="f" d="m53.4 132.8l1.9 6.2c0 0-0.5 1.9-1.1 0.6-0.5-1.4-1.9-5.2-1.9-5.2l-1-1.9z"/><path class="f" d="m61.8 135.8l-0.8 5.4-1.4 0.5-1.1-1.9 1.1-5.9z"/><path class="f" d="m49.9 131.7l0.8 4.1-1.9-0.6-2.1-4.3z"/><path class="f" d="m75.8 136.6l-1.9 8.4-2.1-0.9 1.9-7-0.6-2.7z"/><path class="f" d="m25.9 133.6l3.5-3 4.3 1.9 1.1 3.3c0 0-2.4 1.6-3.5 1.6-1.1 0-4.6-0.3-4.6-0.3z"/><path class="e" d="m28 133c0 0 1.5-0.7 1.7-0.7 0.3 0 2.2 0.4 2.2 0.4l1.3 1.3v1.2c0 0-1.7 0.7-1.9 0.8-0.2 0-2.1 0.2-2.1 0.2l-1.8-2.1z"/><path class="c" d="m28.7 133.5l2-0.2 1.9 0.9 0.7 0.5-2 0.4-1.8-0.1-1.1-0.7z"/><path class="f" d="m24.5 134.4l1 2.9c0 0-4.1 1.3-4.6 1.3-0.6 0-7.9 1.9-7.9 1.9l-2.1 0.8 0.7-2.6 5.6-1.8z"/><path class="f" d="m44.8 137.1c0 0 0.5 3.5 0.1 3.7-0.4 0.1-2 1.2-2 1.2 0 0-1.6-0.2-1.5-0.8 0.1-0.7 1.1-4.1 1.1-4.6 0-0.6-0.3-2.3-0.3-2.3z"/><path class="l" d="m250.9 78.5l2 4.2-2.9 2.5c0 0-1.8-1.3-1.8-1.8 0-0.6-0.2-4.7-0.2-4.7z"/><path class="l" d="m283 98.7l2.3 3.8-1.4 3.2c0 0-1.8-0.2-2.4-1.1-0.5-0.9-1.6-5-1.6-5z"/><path class="l" d="m242.3 81.6l1.1 3.2c0 0-0.9 1.8-1.5 1.8-0.5 0-2.3-0.5-2.3-1.1 0-0.5-0.6-3.4-0.6-3.4l1.5-2z"/><path class="l" d="m217.6 77.3c0 0 0.9 3.7 0.4 3.9-0.6 0.2-2.2 0.7-2.2 0.7l-1.4-1.9 0.5-3.3z"/><path class="l" d="m203.9 72.9l0.2 4.4c0 0-1.3 0.5-1.8 0.5-0.5 0-1.6-0.7-1.8-1.3-0.2-0.5 0.6-4.5 0.6-4.5z"/><path class="l" d="m229.1 98l0.4 3.7-1.8 1.5c0 0-1.1 0.7-1.4-0.4-0.4-1.1 0-4.5 0-4.5z"/><path class="l" d="m203.8 107.7l2.7 4.5c0 0-0.6 2.1-1.1 2.3-0.6 0.2-1.3 0.2-1.8-0.3-0.6-0.6-1.6-4.9-1.6-4.9z"/><path class="l" d="m192.4 92.4c0 0 1.8 3.4 1.8 3.9 0 0.6-1.6 1.5-1.6 1.5l-1.5-0.7-0.3-3.5z"/><path class="l" d="m189.9 78.3c0 0.6-0.4 2.7-0.4 2.7l-1.4-0.1-1.1-1.3 1.1-2.3z"/><path class="l" d="m158 83.2l2 4.1-1.1 1.3h-1.2l-1.7-4z"/><path class="l" d="m163.8 102.8v4.3h-1.6l-1.3-1.8 1.4-3.2z"/><path class="l" d="m135.7 123.2l2.3 3.2c0 0-0.5 1.6-1 1.6-0.6 0-2-0.9-2-0.9l-1.1-3.6z"/><path class="l" d="m133.4 110.2l-1.3 3.4-1.3-0.5-0.7-1.6 1.5-2.9z"/><path class="l" d="m176.4 135l0.5 3.8c0 0-1.8 0.6-2 0-0.1-0.5-1-1.8-1-1.8v-2.7z"/><path class="l" d="m300.2 112.7l0.8 4.5-2.9 0.2-1.5-1.4 1.5-4.4z"/><path class="l" d="m313.9 115.1l-1.9 2.3-1.1-0.7c0 0-0.6-1.6-0.6-2.2 0-0.5 1.5-2.5 1.5-2.5l1.8 0.9z"/><path class="k" d="m406.4 45.6l1.9 0.5-0.6 7-2.4 13.5-1.6 14.6-3 8.4-4 3.8-2.3-2.3 0.6-6.6 4.6-12.2 5.4-22.1z"/><path class="a" d="m396.7 93.4l-1.7-1.7 4.8-11c0 0 3.1-11.1 3.1-11.9 0-0.8 2.9-13.5 2.9-14.3 0-0.5 0.5-5.2 0.9-8.8l1.6 0.4-0.6 7-2.4 13.5-1.6 14.6-3 8.4z"/><path class="k" d="m383.2 44l1.8 0.5 2.7 10.5 2.2 16.5 0.5 16.2-0.8 10.3-2.9 5.6-5.3-2-1.2-3.4 1.6-10 1.6-21.3 0.3-13.2z"/></svg>