<svg version="1.2" xmlns="http://www.w3.org/2000/svg" viewBox="0 0 268 197" width="268" height="197"><style>.a{fill:#2e8c93}.b{fill:#288c99}.c{fill:#5db3ba}.d{fill:#77c3c9}.e{fill:#85d4d6}.f{fill:#409ca0}.g{fill:#287575}.h{fill:#44a1ad}.i{fill:#aeeaed}.j{fill:#e2d8ba}.k{fill:#8ed5dd}.l{fill:#334549}.m{fill:#bcedea}.n{fill:#5cbcbc}</style><path class="a" d="m39 195.7l7.6-5.9c-4.5-0.1-10.5 1.7-11.2 3.5-0.4 0.9 1.2 1.9 3.6 2.4z"/><path class="a" d="m48.4 189.1l2.6-10.1c-3.9 2.7-7.7 8.2-7.2 10.2 0.3 1.1 2.3 0.9 4.6-0.1z"/><path class="a" d="m51.3 179.3l-1.9-10.2c-2.3 4.1-3.5 10.7-2.2 12.3 0.7 0.9 2.5-0.1 4.1-2.1z"/><path class="a" d="m50.9 169.8l-2.4-10.2c-2.2 4.3-3 10.9-1.6 12.5 0.8 0.8 2.5-0.3 4-2.3z"/><path class="a" d="m49.7 161.4l-2-10.3c-2.3 4.2-3.4 10.7-2.1 12.4 0.7 0.8 2.5-0.2 4.1-2.1z"/><path class="a" d="m49 152.4l-0.9-10.4c-2.7 4-4.5 10.4-3.3 12.1 0.6 0.9 2.4 0.1 4.2-1.7z"/><path class="a" d="m49.6 142.5l0.3-10.4c-3.2 3.6-5.6 9.7-4.7 11.7 0.5 0.9 2.5 0.3 4.4-1.3z"/><path class="a" d="m50.5 133.9l0.3-10.4c-3.2 3.6-5.6 9.7-4.7 11.6 0.5 1 2.5 0.4 4.4-1.2z"/><path class="a" d="m52 125.1l1.5-10.3c-3.6 3.1-6.8 8.9-6.1 10.9 0.4 1.1 2.4 0.7 4.6-0.6z"/><path class="a" d="m54.4 116l2.2-10.2c-3.7 2.9-7.3 8.5-6.7 10.6 0.3 1 2.3 0.8 4.5-0.4z"/><path class="a" d="m57.8 107.7l3.6-9.8c-4.1 2.4-8.5 7.4-8.2 9.6 0.2 1 2.2 1.1 4.6 0.2z"/><path class="a" d="m61.7 99.5l4.8-9.3c-4.4 1.9-9.3 6.3-9.3 8.4 0 1.1 2 1.4 4.5 0.9z"/><path class="a" d="m65.7 92.4l7-7.7c-4.7 0.6-10.6 3.6-11.1 5.7-0.3 1 1.6 1.8 4.1 2z"/><path class="a" d="m72.4 86.1l7-7.7c-4.7 0.6-10.6 3.6-11.2 5.7-0.2 1 1.6 1.8 4.2 2z"/><path class="a" d="m79.1 80.5l9.2-4.9c-4.7-1-11.2-0.1-12.4 1.7-0.6 0.8 0.9 2.2 3.2 3.2z"/><path class="a" d="m86.7 77.6l9.3-4.9c-4.7-0.9-11.3-0.1-12.5 1.7-0.6 0.9 0.9 2.3 3.2 3.2z"/><path class="a" d="m102.6 73.3l10.3 1.1c-3.3-3.4-9.2-6.4-11.2-5.6-1 0.4-0.6 2.4 0.9 4.5z"/><path class="a" d="m112.1 74.1l9.9 3.2c-2.6-4.1-7.8-8.2-9.9-7.8-1 0.2-1 2.2 0 4.6z"/><path class="a" d="m120.4 75.9l9 5.3c-1.6-4.5-5.8-9.6-8-9.7-1-0.1-1.4 1.9-1 4.4z"/><path class="a" d="m128 79.2l8.5 6.1c-1.2-4.7-4.9-10.2-7.1-10.4-1-0.1-1.6 1.8-1.4 4.3z"/><path class="a" d="m135.7 85.1l7.6 7.1c-0.6-4.7-3.6-10.6-5.6-11.2-1.1-0.3-1.9 1.6-2 4.1z"/><path class="a" d="m142.6 92.3l6.3 8.3c0.2-4.8-1.7-11.1-3.6-12-1-0.5-2.1 1.2-2.7 3.7z"/><path class="a" d="m148.3 101l5.2 9c0.8-4.7-0.3-11.2-2.1-12.3-0.9-0.6-2.3 0.9-3.1 3.3z"/><path class="a" d="m152.5 110.5l5.3 9c0.8-4.7-0.3-11.3-2.2-12.4-0.9-0.6-2.2 1-3.1 3.4z"/><path class="a" d="m157 120.4l5.2 9.1c0.8-4.8-0.3-11.3-2.1-12.4-0.9-0.6-2.3 1-3.1 3.3z"/><path class="a" d="m162.3 131l6.2 8.4c0.3-4.8-1.6-11.2-3.5-12.1-1-0.5-2.1 1.2-2.7 3.7z"/><path class="a" d="m168.4 139.7l9 5.2c-1.6-4.5-5-9.4-7.1-9.5-1.1 0-2.3 1.8-1.9 4.3z"/><path class="a" d="m184.1 147.7l10.4 0.4c-3.6-3.2-9.7-5.7-11.6-4.8-1 0.5-0.4 2.4 1.2 4.4z"/><path class="a" d="m193.7 147.3l9.9-3.5c-4.5-1.7-11.2-1.8-12.6-0.2-0.7 0.8 0.5 2.4 2.7 3.7z"/><path class="a" d="m203.5 142.5l3.3-9.9c-4.1 2.5-8 6.2-7.7 8.3 0.2 1.1 2 2.5 4.4 1.6z"/><path class="a" d="m205.8 133.1l1-10.4c-3.4 3.4-6.3 9.3-5.5 11.3 0.4 1 2.4 0.5 4.5-0.9z"/><path class="a" d="m206.7 123l-1.3-10.3c-2.6 4-4.1 10.5-2.9 12.2 0.7 0.9 2.5 0 4.2-1.9z"/><path class="a" d="m205.5 112.9l-1.3-10.3c-2.6 4-4.1 10.4-2.9 12.2 0.7 0.9 2.5 0 4.2-1.9z"/><path class="a" d="m204.2 103.2l-1.2-10.4c-2.6 4-4.2 10.5-2.9 12.2 0.6 0.9 2.4 0 4.1-1.8z"/><path class="a" d="m203.5 93.6l-1-10.4c-2.7 3.9-4.4 10.3-3.2 12.1 0.6 0.9 2.5 0.1 4.2-1.7z"/><path class="a" d="m203.6 83.3l-0.2-10.5c-3 3.8-5.2 10-4.1 11.9 0.5 0.9 2.4 0.2 4.3-1.4z"/><path class="a" d="m204.5 73.4l1.8-10.3c-3.7 3.1-7 8.8-6.4 10.8 0.4 1 2.4 0.7 4.6-0.5z"/><path class="a" d="m206.4 64.9l3.6-9.8c-4.1 2.4-8.4 7.5-8.1 9.6 0.1 1 2.2 1.1 4.5 0.2z"/><path class="a" d="m209.1 56.6l6.1-8.5c-4.7 1.2-10.2 5-10.4 7.1-0.2 1 1.8 1.6 4.3 1.4z"/><path class="b" d="m103.4 73.5c-11.4-2.3-24 0.2-27.3 1.9 0 0 6.2-8.8 1.5-14.5 11.8 3 18.5 5.6 25.8 12.6z"/><path class="c" d="m234.4 34.4c-5-17.1-4.3-29.6-4.3-29.6l11.4 27.1z"/><path class="d" d="m179.6 36.3c-23.6-36.6-82-42.2-100.1-29.4 9.3-1.4 50.6-10.4 76.5 39.3 11.4 21.9 11.2 89.3 32.5 104.1l1.8 0.1c-27-23.4 7.7-85.7-10.7-114.1z"/><path class="e" d="m182.6 56q0.3-0.8 0.4-1.6c-0.5-6.9-2-13-5.2-18.1-22.7-35.1-77.9-40.3-95.3-30.3 40.5-9 74.7 14.7 83.2 64.4 10.5-2.2 14.7-6.4 16.9-14.4z"/><path class="c" d="m180.7 133.3c0.5 5.7-1.9 10.3-1.9 10.3 0 0 4.2 4.8 10.2 5.9-4.7-5.6-6.5-9.5-8.3-16.2z"/><path class="f" d="m155.3 43c-32.8-30.3-96.3-31.2-111.9-20.2 8.7-1.5 55.2-11.6 91.5 29.2 16.9 19 22.4 80.1 50.5 95l2.3 0.2c-36.5-22.9-5.5-79.3-32.4-104.2z"/><path class="g" d="m135.4 29.6c-33.9-16.8-79.1-15.8-92-6.8 8.4-1.4 51.1-10.7 86.6 24.1 0.2-8.8 2-15 5.4-17.3z"/><path class="c" d="m239.8 53.5l-5.4-16.8c-27 10.5-37.2 28.7-30.3 69.6 5.4 32-2.3 39.9-11.4 40.2-49.8 1.7-21.7-75.5-96.9-74.1-27.6 0.6-55.9 41.4-47.9 96.2 3.4 23.1-9.9 28.6-26.5 22.5l-0.2 0.9c20.9 11.2 36.4-0.6 36.1-19.5-0.3-18.9-4.3-74.4 35.8-76.7 59.1-3.3 29.1 83.9 96.6 85.5 24 0.6 52.5-21.1 42-72.9-3.3-16.2-16.8-48 8.1-54.9z"/><path class="h" d="m138.4 86c-8.9-8.3-21.8-14-42.6-13.6-18 0.4-36.3 17.9-44.6 45.2 1.5 7.5 3.8 14.6 7 20.9 2.5-20.5 10.6-41.3 34.9-42.7 29.7-1.6 36.9 19.6 45.3 41.3 3.7-10.8 5-23.4 3.2-36.5-0.6-5.1-1.8-10-3.2-14.6z"/><path class="h" d="m203 71.8c-1.6 9.2-1.3 20.6 1.1 34.5 5.4 32-2.3 39.9-11.4 40.2-26 0.9-30.8-19.7-40-39.4 4.5 29 17.5 45.9 33.7 45.5 41-1.1 13.7-50.4 16.6-80.8z"/><path class="h" d="m239.8 53.5l-5.4-16.8q-2.9 1.2-5.5 2.4l0.9 3c-23.5 6.9-10.8 38.7-7.7 54.9 10 51.8-13.1 71.5-35.7 70.6-57.5-2.3-22.9-83.2-94.7-83.2-37.9 0-39.5 67-39.2 85.9 0.3 16.9-10 28.2-26.2 22.3q-2.4-0.6-4.9-1.5l-0.2 0.9c20.9 11.2 36.4-0.6 36.1-19.5-0.3-18.9-4.3-74.4 35.8-76.7 59.1-3.3 29.1 83.9 96.6 85.5 24 0.6 52.5-21.1 42-72.9-3.3-16.2-16.8-48 8.1-54.9z"/><path class="b" d="m238.8 50.4c-12.5 3.9-14.8 14.3-13.7 25.7-0.3-10.3 2.8-19.3 14.7-22.6z"/><path class="b" d="m216.3 70.2c0.4 11.1 3.7 23 5.3 31.4 1 5.3 2.5 10.9 2.9 15.5-0.3-5.5 0.5-11.7-0.8-18.3-1.4-7.5-6.4-18.4-7.4-28.6z"/><path class="b" d="m189.5 178c-67.6-1.7-37.5-88.8-96.6-85.5-40.2 2.2-36.1 57.7-35.8 76.6 0.2 11.4-5.4 20.2-14.3 23-4.3 2.4-9.9 2.9-16.5 0.5q-2.4-0.6-4.9-1.5l-0.2 0.9c20.9 11.2 36.4-0.6 36.1-19.5-0.3-18.9-4.3-74.4 35.8-76.7 59.1-3.3 29.1 83.9 96.6 85.5 21.9 0.6 47.5-17.4 43.9-59.7 2 39.9-22.9 56.9-44.1 56.4z"/><path class="a" d="m239.8 53.5l-5.4-16.8c-10.7 4.2-19.1 8.9-24.2 17.1 0.3 4.4 0.8 9 1.6 13.7 3.6 21.2 11.9 38.7 20.9 46.6q-0.4-2.8-1-5.7c-3.3-16.2-16.8-48 8.1-54.9z"/><g style="opacity:.3;mix-blend-mode:overlay"><path class="i" d="m224.2 142.1c0-2.4-1-4.4-2.2-4.4-1.1 0-2.1 2-2.1 4.4 0 2.5 1 4.4 2.1 4.4 1.2 0 2.2-1.9 2.2-4.4z"/><path class="i" d="m228.9 145.3c0-2-0.8-3.6-1.8-3.6-1 0-1.8 1.6-1.8 3.6 0 2.1 0.8 3.7 1.8 3.7 1 0 1.8-1.6 1.8-3.7z"/><path class="i" d="m228.5 150.5c-0.6-0.1-1.3 0.8-1.5 2.1-0.2 1.2 0.1 2.3 0.7 2.4 0.6 0.2 1.3-0.8 1.5-2 0.2-1.3-0.1-2.4-0.7-2.5z"/><path class="i" d="m225.1 150.7c0.1-1.4-0.3-2.6-1-2.7-0.7 0-1.4 1.1-1.5 2.5-0.1 1.4 0.3 2.6 1 2.6 0.7 0.1 1.3-1 1.5-2.4z"/><path class="i" d="m218 144.4c-0.7 0-1.3 1.1-1.5 2.5-0.1 1.4 0.3 2.6 1 2.6 0.7 0.1 1.4-1 1.5-2.4 0.1-1.4-0.3-2.6-1-2.7z"/><path class="i" d="m210.8 139.7c-0.7-0.1-1.3 1-1.5 2.4-0.1 1.4 0.3 2.6 1 2.7 0.7 0.1 1.4-1 1.5-2.4 0.1-1.4-0.3-2.6-1-2.7z"/><path class="i" d="m220.4 150c-0.7-0.1-1.3 0.8-1.4 1.9-0.1 1.2 0.3 2.2 1 2.2 0.7 0.1 1.4-0.8 1.5-1.9 0.1-1.2-0.4-2.2-1.1-2.2z"/><path class="i" d="m207.3 141.3c0.1-1.2-0.3-2.2-1-2.2-0.7-0.1-1.4 0.8-1.5 1.9-0.1 1.2 0.4 2.2 1.1 2.2 0.7 0.1 1.3-0.8 1.4-1.9z"/><path class="i" d="m212.7 147.2c-0.5-0.1-1.1 0.6-1.1 1.5-0.1 1 0.3 1.8 0.8 1.8 0.6 0.1 1.1-0.6 1.2-1.6 0.1-0.9-0.3-1.7-0.9-1.7z"/><path class="i" d="m214.6 154.7c-0.5 0-1 0.7-1.1 1.6-0.1 0.9 0.3 1.7 0.8 1.7 0.6 0.1 1.1-0.6 1.2-1.5 0.1-0.9-0.3-1.7-0.9-1.8z"/><path class="i" d="m224.3 154.9c-0.5-0.1-1.1 0.6-1.2 1.6 0 0.9 0.3 1.7 0.9 1.7 0.6 0.1 1.1-0.6 1.2-1.6 0.1-0.9-0.3-1.7-0.9-1.7z"/><path class="i" d="m200.1 144.7c-0.7 0.6-0.9 1.5-0.5 1.9 0.3 0.4 1.2 0.2 1.9-0.4 0.6-0.7 0.9-1.5 0.5-1.9-0.4-0.5-1.3-0.3-1.9 0.4z"/><path class="i" d="m206.7 147.1c-0.6-0.1-1.1 0.6-1.2 1.5-0.1 1 0.3 1.7 0.8 1.8 0.6 0 1.1-0.7 1.2-1.6 0.1-0.9-0.3-1.7-0.8-1.7z"/><path class="i" d="m220.1 137.1c1.2 0 2.2-2 2.2-4.4 0-2.4-1-4.4-2.2-4.4-1.2 0-2.1 2-2.1 4.4 0 2.4 0.9 4.4 2.1 4.4z"/><path class="i" d="m218.5 125.7c1.2 0 2.2-2 2.2-4.4 0-2.4-1-4.4-2.2-4.4-1.1 0-2.1 2-2.1 4.4 0 2.4 1 4.4 2.1 4.4z"/><path class="i" d="m224.1 129.6c1.1 0 2.1-1.9 2.1-4.3 0-2.5-1-4.4-2.1-4.4-1.2 0-2.2 1.9-2.2 4.4 0 2.4 1 4.3 2.2 4.3z"/><path class="i" d="m215.2 135.3c-1.2 0-2.2 1.9-2.2 4.4 0 2.4 1 4.3 2.2 4.3 1.2 0 2.1-1.9 2.1-4.3 0-2.5-0.9-4.4-2.1-4.4z"/><path class="i" d="m214.5 132.7c1.2 0 2.1-2 2.1-4.4 0-2.4-0.9-4.4-2.1-4.4-1.2 0-2.1 2-2.1 4.4 0 2.4 0.9 4.4 2.1 4.4z"/><path class="i" d="m213.4 122.7c1.2 0 2.1-2 2.1-4.4 0-2.4-0.9-4.4-2.1-4.4-1.2 0-2.2 2-2.2 4.4 0 2.4 1 4.4 2.2 4.4z"/><path class="i" d="m210.3 139c1.2 0 2.2-2 2.2-4.4 0-2.4-1-4.4-2.2-4.4-1.1 0-2.1 2-2.1 4.4 0 2.4 1 4.4 2.1 4.4z"/><path class="i" d="m209.4 120.5c-1.1 0-2.1 2-2.1 4.4 0 2.4 1 4.4 2.1 4.4 1.2 0 2.2-2 2.2-4.4 0-2.4-1-4.4-2.2-4.4z"/><path class="i" d="m207.1 131.7c0-1.8-0.6-3.4-1.3-4-0.2 3.2-0.6 6-1.2 8.3q0.2 0.1 0.3 0.1c1.2 0 2.2-2 2.2-4.4z"/><path class="i" d="m208.4 119c1.2 0 2.2-2 2.2-4.4 0-2.4-1-4.4-2.2-4.4-1.2 0-2.1 2-2.1 4.4 0 2.4 0.9 4.4 2.1 4.4z"/><path class="i" d="m209.2 82.6c1.2 0 2.1-1.9 2.1-4.4 0-2.4-0.9-4.4-2.1-4.4-1.2 0-2.1 2-2.1 4.4 0 2.5 0.9 4.4 2.1 4.4z"/><path class="i" d="m214 78.6c-1.1 0-2.1 1.9-2.1 4.4 0 2.4 1 4.3 2.1 4.3 1.2 0 2.2-1.9 2.2-4.3 0-2.5-1-4.4-2.2-4.4z"/><path class="i" d="m203.8 79.9c1.2 0 2.1-1.9 2.1-4.4 0-2.4-0.9-4.4-2.1-4.4q-0.4 0.1-0.7 0.3-0.6 3.4-0.9 7c0.4 0.9 1 1.5 1.6 1.5z"/><path class="i" d="m208.5 72.3c1.2 0.2 2.5-1.5 2.9-3.9 0.5-2.4-0.1-4.5-1.3-4.7-1.1-0.2-2.4 1.5-2.9 3.9-0.4 2.4 0.2 4.5 1.3 4.7z"/><path class="i" d="m206.5 65.6c0.7-2 0.5-4-0.3-4.6q-1.7 3.8-2.7 8.2c1.1-0.1 2.4-1.5 3-3.6z"/><path class="i" d="m209.2 61.8c1.1 0.4 2.6-1.2 3.4-3.5 0.7-2.3 0.4-4.5-0.7-4.8-1.1-0.4-2.6 1.2-3.4 3.5-0.7 2.3-0.4 4.5 0.7 4.8z"/><path class="i" d="m214.2 67.8c-1.2-0.1-2.3 1.8-2.5 4.2-0.2 2.4 0.6 4.4 1.8 4.5 1.2 0.1 2.3-1.8 2.5-4.2 0.1-2.4-0.6-4.4-1.8-4.5z"/><path class="i" d="m219.5 70.7c-1.2-0.1-2.3 1.8-2.5 4.2-0.2 2.4 0.6 4.5 1.8 4.6 1.1 0.1 2.3-1.8 2.4-4.2 0.2-2.5-0.6-4.5-1.7-4.6z"/><path class="i" d="m221.4 60.6c-1.2-0.3-2.5 1.4-3 3.8-0.5 2.4 0 4.5 1.2 4.7 1.1 0.3 2.5-1.4 3-3.8 0.4-2.4-0.1-4.5-1.2-4.7z"/><path class="i" d="m222.7 59.6c0.9 0.8 2.9-0.2 4.4-2.1 1.5-1.9 2-4 1.1-4.7-1-0.8-2.9 0.2-4.5 2.1-1.5 1.8-2 4-1 4.7z"/><path class="i" d="m213.9 66.2c1.1 0.4 2.7-1.2 3.4-3.5 0.8-2.3 0.5-4.5-0.6-4.8-1.1-0.4-2.7 1.2-3.4 3.5-0.8 2.3-0.5 4.4 0.6 4.8z"/><path class="i" d="m221.2 54.9c1.7-1.7 2.4-3.7 1.6-4.6-0.8-0.8-2.9-0.1-4.6 1.5-1.8 1.7-2.5 3.8-1.7 4.6 0.9 0.9 2.9 0.2 4.7-1.5z"/><path class="i" d="m216.4 50.7c1.9-1.5 2.8-3.5 2-4.4q-0.2-0.3-0.6-0.4-3.4 2.7-6.1 6 0 0 0 0c0.8 0.9 2.9 0.4 4.7-1.2z"/><path class="i" d="m207.3 85.3c0-2.4-1-4.4-2.1-4.4-1.2 0-2.2 2-2.2 4.4 0 2.4 1 4.4 2.2 4.4 1.1 0 2.1-2 2.1-4.4z"/><path class="i" d="m228.2 135.2c0-2.4-0.9-4.4-2.1-4.4-1.2 0-2.2 2-2.2 4.4 0 2.5 1 4.4 2.2 4.4 1.2 0 2.1-1.9 2.1-4.4z"/><path class="i" d="m230.9 132.8c-1.2 0-2.1 1.9-2.1 4.3 0 2.5 0.9 4.4 2.1 4.4 1.2 0 2.2-1.9 2.2-4.4 0-2.4-1-4.3-2.2-4.3z"/><path class="i" d="m231.8 143.8c-0.7 0-1.3 1.2-1.3 2.7 0 1.1 0.3 2.1 0.8 2.5q0.7-2.4 1.2-4.9-0.3-0.3-0.7-0.3z"/><path class="i" d="m227.5 127c0 2.4 1 4.4 2.2 4.4 1.2 0 2.1-2 2.1-4.4 0-2.4-0.9-4.4-2.1-4.4-1.2 0-2.2 2-2.2 4.4z"/><path class="i" d="m231.6 119.9c0 2.5 1 4.4 2.1 4.4q0.1 0 0.1 0-0.2-4.1-0.8-8.4c-0.8 0.6-1.4 2.2-1.4 4z"/><path class="i" d="m230.4 105.4c-1.2 0.3-1.7 2.4-1.1 4.8 0.5 2.3 1.9 4 3.1 3.8q0.1-0.1 0.3-0.2-0.4-2.6-1-5.4-0.3-1.4-0.7-2.9-0.3-0.1-0.6-0.1z"/><path class="i" d="m224.5 102.5c-1.1 0.3-1.6 2.4-1.1 4.8 0.6 2.3 2 4 3.1 3.8 1.2-0.3 1.7-2.4 1.1-4.8-0.5-2.4-1.9-4.1-3.1-3.8z"/><path class="i" d="m219.8 113.6c0.6 2.3 2 4 3.1 3.8 1.2-0.3 1.7-2.4 1.1-4.8-0.5-2.4-1.9-4.1-3.1-3.8-1.1 0.3-1.6 2.4-1.1 4.8z"/><path class="i" d="m217.3 114.2c1.1-0.3 1.6-2.4 1.1-4.8-0.6-2.3-1.9-4-3.1-3.8-1.1 0.3-1.6 2.4-1.1 4.8 0.6 2.4 1.9 4.1 3.1 3.8z"/><path class="i" d="m208.5 106.1c0.5 2.4 1.9 4.1 3 3.8 1.2-0.2 1.7-2.4 1.1-4.7-0.5-2.4-1.9-4.1-3-3.8-1.2 0.2-1.7 2.4-1.1 4.7z"/><path class="i" d="m215.8 99.5c-0.5-2.3-1.9-4-3.1-3.8-1.1 0.3-1.6 2.4-1.1 4.8 0.6 2.4 1.9 4.1 3.1 3.8 1.1-0.3 1.6-2.4 1.1-4.8z"/><path class="i" d="m207.9 100.4c1.2-0.3 1.7-2.4 1.1-4.8-0.5-2.4-1.9-4.1-3-3.8-1.2 0.3-1.7 2.4-1.1 4.8 0.5 2.3 1.9 4 3 3.8z"/><path class="i" d="m218.7 98c-1.2 0.3-1.7 2.4-1.1 4.8 0.5 2.3 1.9 4 3.1 3.8 1.1-0.3 1.6-2.4 1.1-4.8-0.6-2.4-2-4.1-3.1-3.8z"/><path class="i" d="m227 94.7c-1.1 0.4-1.3 2.6-0.4 4.8 0.8 2.3 2.4 3.8 3.5 3.4q0.1-0.1 0.2-0.2c-0.6-2.4-1.3-5.1-2-7.8-0.5-0.3-0.9-0.4-1.3-0.2z"/><path class="i" d="m221.1 91.1c-1.1 0.4-1.3 2.6-0.5 4.8 0.8 2.3 2.4 3.8 3.5 3.4 1.1-0.4 1.3-2.6 0.5-4.9-0.8-2.2-2.4-3.7-3.5-3.3z"/><path class="i" d="m221.2 89.2c1.1-0.4 1.3-2.6 0.5-4.8-0.9-2.3-2.4-3.8-3.6-3.4-1.1 0.4-1.3 2.6-0.4 4.8 0.8 2.3 2.4 3.8 3.5 3.4z"/><path class="i" d="m224.2 84.6c-1.1 0.4-1.3 2.5-0.5 4.8 0.9 2.3 2.5 3.8 3.6 3.4q0.2-0.1 0.4-0.3c-0.6-2.4-1.1-4.8-1.5-7.2-0.7-0.7-1.4-1-2-0.7z"/><path class="i" d="m224 75.1c-1.2 0.3-1.7 2.4-1.2 4.8 0.5 2.3 1.8 4.1 2.9 3.8q0.1 0 0.2 0c-0.5-2.8-0.8-5.5-0.8-8.2-0.4-0.3-0.8-0.4-1.1-0.4z"/><path class="i" d="m225.6 64.7c-1.2-0.2-2.4 1.7-2.6 4.1-0.3 2.4 0.4 4.4 1.6 4.6q0.2 0 0.5-0.1c0.1-2.9 0.5-5.6 1.4-8.1-0.3-0.3-0.6-0.5-0.9-0.5z"/><path class="i" d="m230.4 56.8c-1-0.6-2.7 0.4-3.8 2.2-1 1.9-1.1 3.8-0.1 4.4q0.3 0.2 0.7 0.2c0.9-2.1 2.2-3.9 3.9-5.5 0-0.6-0.3-1.1-0.7-1.3z"/><path class="i" d="m215.3 88.3c-1.1 0.4-1.4 2.6-0.8 4.9 0.7 2.3 2.1 3.8 3.2 3.4 1.1-0.4 1.5-2.6 0.8-4.9-0.6-2.3-2.1-3.8-3.2-3.4z"/><path class="i" d="m209.4 86c-1.1 0.4-1.5 2.6-0.8 4.9 0.6 2.3 2 3.9 3.2 3.5 1.1-0.5 1.4-2.7 0.8-5-0.7-2.3-2.1-3.8-3.2-3.4z"/><path class="i" d="m205.4 108.8c1.1-0.3 1.6-2.4 1.1-4.8-0.6-2.3-2-4-3.1-3.8q-0.1 0.1-0.2 0.1 0.4 3 0.9 6 0.2 1.2 0.4 2.3 0.4 0.3 0.9 0.2z"/><path class="i" d="m203.8 93.3c-0.2-1.6-0.9-3-1.6-3.6q0.2 3.8 0.7 8c0.8-0.7 1.2-2.4 0.9-4.4z"/><path class="i" d="m225.6 116.8c0 2.4 1 4.4 2.2 4.4 1.2 0 2.1-2 2.1-4.4 0-2.4-0.9-4.4-2.1-4.4-1.2 0-2.2 2-2.2 4.4z"/></g><path class="a" d="m231.4 57.9c6.9 1.2 11.7 5.4 11.7 5.4 0 0 6.2 12.9 12 13.8-1.1-3.3 2.5-5.1 4.1-5.8 0 0-9.6-24.8-20.2-25.1-14.4-0.5-7.6 11.7-7.6 11.7z"/><path class="j" d="m257.2 69.4c-6 3.8-12.9 5.3-12.9 5.3 0 0 9.8-5.8 11.7-7.2 2-1.3 1.2 1.9 1.2 1.9z"/><path class="j" d="m254.6 65.5c-4.8 3.4-10.4 5-10.4 5 0 0 7.8-5.2 9.3-6.4 1.6-1.2 1.1 1.4 1.1 1.4z"/><path class="j" d="m251.6 63c-4.4 3-9.3 4.5-9.3 4.5 0 0 6.9-4.8 8.3-5.8 1.4-1.1 1 1.3 1 1.3z"/><path class="c" d="m204.7 45.1c14 7.6 26.2 3.9 26.2 3.9 0 0 9.4-0.2 12.6 8.8 0 0 5.3 10.2 17.6 16.1 0 0 0.8-5.2 3.2-6.9 2.3-1.7 3.9-2.9 3.8-3.8-0.1-0.9-4.9-4.6-4.9-4.6 0 0 2.4-0.9-3.2-5.4 0 0-0.3-5.2-4-10.4-3.8-5.2-5.9-10.1-6.8-12.9 0 0-9.7 3.1-15.5 1.2l0.7 2.6-2.1 0.4c0 0-18.1-15.8-20.1-16.8 0.7 2.4 12.7 19 12.7 19 0 0-7.4-3.4-17.4-5.3 3 2.5 11.6 10 11.6 10z"/><path class="h" d="m230.9 49c0 0 9 1.3 12.6 8.8 0 0 5.3 10.2 17.6 16.1 0 0 0.8-5.2 3.2-6.9-12.5-3.7-11.7-8.3-11.8-9.2-0.1-0.9 10.7 0.8 10.7 0.8 0 0-8.7-6.4-3.2-5.4 0 0-2.9-4.4-6.6-9.6-3.7-5.2-13.9-10.6-19.7-12.5l0.7 2.6-2.1 0.4c0 0-18.1-15.8-20.1-16.8 0.7 2.4 12.7 19 12.7 19-0.1 2.2-1.1 3.7-5.8 4.7 7.4 0.6 10.1 2.8 11.8 8z"/><path class="c" d="m243 32.1c-0.8-8.9 2.5-24 2.5-24l3.9 23.1z"/><path class="k" d="m166.6 62.9c-1.4-12.4-9.9-40.2-55.7-48.5-47.7-8.7-65.1 6.5-66.8 8.2q-0.2 0-0.4 0-0.1 0.1-0.3 0.2 0.3 0 0.5-0.1 0 0 0 0 0 0 0 0 1.5-0.3 4-0.7-2 0.3-3.6 0.5c7.7-3.7 20-5.7 33.9-5.3 25.8 1.4 45.9 12.8 63.2 29.8 22.3 21.8 14.3 65.3 33.6 91.5 3.1 3.5 6.6 6.5 10.4 8.5l2.3 0.2c-28.1-17.7-15.8-56.2-21.1-84.3z"/><path class="i" d="m165.6 57c-3.5-13.8-15.2-35.4-54.7-42.6-47.7-8.7-65.1 6.5-66.8 8.2q-0.2 0-0.4 0-0.1 0.1-0.3 0.2 0.3 0 0.5-0.1 0 0 0 0 0 0 0 0 1.5-0.3 4-0.7-2 0.3-3.6 0.5c7.7-3.7 20-5.7 33.9-5.3 25.8 1.4 45.9 12.8 63.2 29.8 10.9 10.6 14.5 26.2 17.7 42.6 1-13.1 3.3-24.4 6.5-32.6z"/><path class="i" d="m109.9 15.1c45.8 8.3 54.2 36.1 55.7 48.6 5.1 27.2-6 63.2 18.8 81.6 0.5 0.3 3.3 1.9 3.3 1.9-28.1-17.7-15.8-56.2-21.1-84.3-1.4-12.4-9.9-40.2-55.7-48.5-41.7-7.6-60.3 3.1-65.4 7 6.3-4.4 25.1-13.4 64.4-6.3z"/><path class="i" d="m44.9 22.5q1.2-0.2 3-0.5-1.4 0.2-2.6 0.4-0.2 0.1-0.4 0.1z"/><path class="i" d="m43.8 22.6q0 0-0.1 0-0.1 0.1-0.3 0.2 0.1 0 0.2 0 0.1-0.1 0.2-0.2z"/><path class="a" d="m251 45c-4.7 0.9-10.7-0.3-12.2-1.9-1.6-1.6 0.8-5.2 2.9-5.2 2.2 0.1 9.3 7.1 9.3 7.1z"/><path class="l" d="m249.7 43.8c-3.4 0.7-7.7-0.2-8.8-1.3-1.1-1.2 0.6-3.8 2.2-3.8 1.5 0.1 6.6 5.1 6.6 5.1z"/><path class="m" d="m243.4 42.7c0.1-0.8 0.8-2.4 1.1-2.6 0.3-0.1 0.8 0.4 0.7 0.8-0.1 0.4-1.8 1.8-1.8 1.8z"/><path class="n" d="m240.5 37.7c2-0.8 4-0.7 6.2 1 1.8 1.5 3.8 4.2 5.4 6.9l-7.5-5.1z"/><path class="a" d="m260.3 57.3c-5.6-0.4-6.5-1.3-6.5-2.5 0-1.1 1.4-2.6 2.7-1.5 1.4 1.1 3.8 4 3.8 4z"/><path class="l" d="m259.1 56.3c-3.1-0.2-3.6-0.7-3.6-1.3 0-0.7 0.8-1.5 1.5-0.9 0.8 0.6 2.1 2.2 2.1 2.2z"/><path class="h" d="m175 134.3c2.4 5.1 1.6 10.3 1.6 10.3 0 0 6.3 3.8 12.4 2.9-6.3-3.8-10-7.5-14-13.2z"/><path class="n" d="m251.8 46.5c-3.3 2.4-11.1 3.7-12.4 3.4 0 0-2.7-2.6-2.4-5.7 3.3 1.2 8.6 2 14.8 2.3z"/><path class="n" d="m244.9 50.4c5.6 2.3 11.6 0.4 11.6 0.4l-3.6-4.1c-2.2 1.9-4.2 2.6-8 3.7z"/><path class="n" d="m236.9 42.6c-1.9-3.8-0.4-7.9-0.4-7.9l4 1.1c-1.5 1.6-2.8 4.2-3.6 6.8z"/><path class="n" d="m237.1 49.4c-6.7-4.4-9.2-12.4-9.2-12.4l7.3-2c-0.5 3.9 0.2 9.4 1.9 14.4z"/><path class="k" d="m0.1 175.7l16.2 18.7 9.6-0.2-3.7-7.4z"/><path class="i" d="m0.1 175.7l16.2 18.7 9.6-0.2z"/><path class="b" d="m203.4 178.2l1.4-15.5-20.2 13.3 2.8 4.2z"/><path class="k" d="m205.1 162.8c-13.8 6.4-31.3 5.9-36.3 4.2 0 0 12 11.6 8.5 21.5 14-7.6 21.5-13.3 27.8-25.7z"/><path class="i" d="m202.8 164.8c-12.1 5.5-27.3 5.1-31.7 3.6 0 0 3.7 3.6 6.1 8.4 2.9-0.3 6-1 9.2-2 7.7-2.4 13.8-6.3 16.4-10z"/><g style="opacity:.4;mix-blend-mode:overlay"><path class="i" d="m134.4 115c-0.9 0.4-0.9 2.5 0 4.7 0.9 2.3 2.5 3.7 3.5 3.3 0.9-0.4 0.9-2.5 0-4.8-0.9-2.2-2.5-3.6-3.5-3.2z"/><path class="i" d="m132.4 117.1c-0.9-2.2-2.5-3.7-3.4-3.3q-0.4 0.2-0.6 0.7c1.4 2.3 2.6 4.8 3.8 7.4q0.1 0 0.2-0.1c1-0.4 1-2.5 0-4.7z"/><path class="i" d="m134.6 106.7c-1 0.4-1 2.5-0.1 4.7 1 2.2 2.5 3.7 3.5 3.3 0.9-0.4 1-2.6 0-4.8-0.9-2.2-2.5-3.7-3.4-3.2z"/><path class="i" d="m148.3 104.3c1 2.2 2.5 3.7 3.5 3.3 0.3-0.1 0.5-0.5 0.6-0.9q-1.7-3.7-3.7-7.2-0.2 0-0.3 0.1c-1 0.4-1 2.5-0.1 4.7z"/><path class="i" d="m136.5 99.9c-1 0.4-1 2.6-0.1 4.8 1 2.2 2.5 3.6 3.5 3.2 1-0.4 1-2.5 0-4.7-0.9-2.2-2.5-3.7-3.4-3.3z"/><path class="i" d="m135.7 86.8c1.5 1.8 3.4 2.8 4.2 2.2 0.3-0.3 0.4-0.6 0.4-1.1q-2.8-2.9-6.1-5.4c-0.4 0.9 0.2 2.6 1.5 4.3z"/><path class="i" d="m142 91.3c-0.9 0.7-0.3 2.7 1.2 4.6 1.5 1.9 3.4 2.8 4.2 2.2q0.2-0.1 0.3-0.3-2.1-3.4-4.6-6.6c-0.5-0.1-0.9-0.1-1.1 0.1z"/><path class="i" d="m140.1 96.1c0.8-0.7 0.3-2.8-1.2-4.6-1.5-1.9-3.4-2.9-4.3-2.2-0.8 0.6-0.2 2.7 1.3 4.6 1.5 1.8 3.4 2.8 4.2 2.2z"/><path class="i" d="m129.2 86.2c1.8 1.6 3.8 2.2 4.5 1.4 0.7-0.8-0.2-2.7-2-4.3-1.9-1.5-3.9-2.1-4.6-1.3-0.7 0.8 0.2 2.7 2.1 4.2z"/><path class="i" d="m123.3 79c2.1 1.2 4.2 1.4 4.7 0.5q0.2-0.3 0.1-0.8-3.6-1.8-7.8-3.2c-0.1 1 1.1 2.5 3 3.5z"/><path class="i" d="m113.7 75.6c2.2 0.5 4.1 0.2 4.6-0.7q-3.9-1-8.4-1.7c0.2 1 1.8 2 3.8 2.4z"/><path class="i" d="m89.1 88.4c-2.4 0.4-4.1 1.6-3.9 2.7 0.1 1 2.2 1.5 4.6 1.1 2.4-0.4 4.1-1.6 3.9-2.6-0.1-1.1-2.2-1.6-4.6-1.2z"/><path class="i" d="m89.6 81.9c-2.4 0.4-4.1 1.6-3.9 2.6 0.1 1.1 2.2 1.6 4.6 1.2 2.4-0.5 4.1-1.6 3.9-2.7-0.1-1-2.2-1.5-4.6-1.1z"/><path class="i" d="m83.3 81.2c2.3-0.5 4.1-1.6 3.9-2.7-0.2-1-2.2-1.5-4.6-1.1-2.4 0.4-4.2 1.6-4 2.6 0.2 1.1 2.3 1.6 4.7 1.2z"/><path class="i" d="m93.7 77.9c2.3-0.4 4.1-1.6 3.9-2.6-0.2-1.1-2.2-1.6-4.6-1.2-2.4 0.5-4.2 1.6-4 2.7 0.2 1 2.3 1.5 4.7 1.1z"/><path class="i" d="m85.9 75.9c2.2-0.6 3.7-1.7 3.8-2.7q-3.8 0.9-7.6 2.7c0.9 0.4 2.3 0.4 3.8 0z"/><path class="i" d="m103.2 74.8c2.5 0 4.6-0.7 4.6-1.6q0-0.1-0.1-0.2-4.1-0.5-8.8-0.6-0.2 0.3-0.3 0.6c0 0.9 2 1.7 4.6 1.8z"/><path class="i" d="m128.8 90.6c-0.8 0.7-0.2 2.7 1.3 4.6 1.5 1.9 3.4 2.8 4.2 2.2 0.8-0.7 0.3-2.7-1.2-4.6-1.5-1.9-3.4-2.9-4.3-2.2z"/><path class="i" d="m126.5 86.7c0.7-0.8-0.3-2.5-2.2-3.9-1.9-1.4-4-1.9-4.7-1.1-0.6 0.8 0.3 2.5 2.2 3.9 1.9 1.4 4 1.9 4.7 1.1z"/><path class="i" d="m120.2 79.3c0.1-0.9-1.7-1.9-4.1-2.3-2.4-0.3-4.4 0.2-4.5 1.1-0.2 0.9 1.7 1.9 4 2.2 2.4 0.4 4.5-0.1 4.6-1z"/><path class="i" d="m105.5 79.6c2.4 0.1 4.4-0.5 4.5-1.4 0-1-1.9-1.8-4.3-1.9-2.4-0.2-4.4 0.5-4.5 1.4 0 0.9 1.9 1.8 4.3 1.9z"/><path class="i" d="m93 80.1c0 1 1.9 1.8 4.3 1.9 2.4 0.2 4.4-0.5 4.4-1.4 0.1-0.9-1.8-1.8-4.2-1.9-2.4-0.1-4.4 0.5-4.5 1.4z"/><path class="i" d="m115.6 86.3c2.1 1.1 4.2 1.3 4.6 0.5 0.4-0.8-1-2.4-3.1-3.5-2.1-1.1-4.2-1.4-4.6-0.5-0.5 0.8 0.9 2.3 3.1 3.5z"/><path class="i" d="m102.4 82.9c-0.2 0.9 1.5 2 3.9 2.5 2.4 0.5 4.4 0.1 4.6-0.8 0.2-0.9-1.6-2-3.9-2.5-2.4-0.5-4.5-0.1-4.6 0.8z"/><path class="i" d="m145.3 106c1-0.5 0.8-2.6-0.3-4.7-1-2.2-2.7-3.5-3.6-3.1-1 0.5-0.8 2.6 0.3 4.8 1.1 2.1 2.7 3.5 3.6 3z"/><path class="i" d="m144.2 123.1c0.7-0.4 0.7-2 0-3.7-0.7-1.7-1.9-2.8-2.6-2.5-0.8 0.4-0.8 2 0 3.7 0.7 1.7 1.9 2.8 2.6 2.5z"/><path class="i" d="m141.8 109c-0.7 0.3-0.7 1.9 0 3.6 0.7 1.7 1.9 2.8 2.6 2.5 0.8-0.3 0.8-2 0.1-3.7-0.8-1.6-1.9-2.8-2.7-2.4z"/><path class="i" d="m154.3 115.1c0.8-0.3 0.8-2 0.1-3.7-0.8-1.6-1.9-2.8-2.7-2.4-0.7 0.3-0.7 1.9 0 3.6 0.7 1.7 1.9 2.8 2.6 2.5z"/><path class="i" d="m146.2 110.8c0.7 1.7 1.9 2.8 2.6 2.5 0.7-0.3 0.8-2 0-3.7-0.7-1.6-1.9-2.8-2.6-2.4-0.7 0.3-0.8 1.9 0 3.6z"/><path class="i" d="m144.8 133c0.5-0.2 0.5-1.3 0-2.5-0.5-1.1-1.3-1.9-1.8-1.7-0.6 0.2-0.6 1.4-0.1 2.5 0.5 1.2 1.3 2 1.9 1.7z"/><path class="i" d="m135.5 124c-0.5 0.2-0.5 1.3 0 2.5 0.5 1.2 1.3 1.9 1.8 1.7 0.5-0.2 0.6-1.3 0.1-2.5-0.5-1.2-1.4-1.9-1.9-1.7z"/><path class="i" d="m147.5 117.1c-0.6 0.2-0.6 1.4-0.1 2.5 0.5 1.2 1.3 2 1.9 1.7 0.5-0.2 0.5-1.3 0-2.5-0.5-1.1-1.3-1.9-1.8-1.7z"/><path class="i" d="m151.1 115.3c-0.6 0.2-0.6 1.4-0.1 2.5 0.5 1.2 1.3 2 1.9 1.7 0.5-0.2 0.5-1.3 0-2.5-0.5-1.1-1.3-1.9-1.8-1.7z"/><path class="i" d="m150 129.5c-0.4 0.1-0.4 1 0 2 0.4 0.9 1 1.5 1.4 1.3 0.4-0.1 0.4-1 0.1-2-0.4-0.9-1.1-1.5-1.5-1.3z"/><path class="i" d="m144.8 138.3c-0.4 0.2-0.4 1.1 0 2 0.4 0.9 1 1.6 1.5 1.4 0.4-0.2 0.4-1.1 0-2-0.4-0.9-1.1-1.6-1.5-1.4z"/><path class="i" d="m153.6 125c-0.4 0.1-0.4 1 0 2 0.4 0.9 1 1.5 1.4 1.3 0.4-0.1 0.4-1 0.1-2-0.4-0.9-1.1-1.5-1.5-1.3z"/><path class="i" d="m160.1 129.1c-0.4 0.1-0.5 1-0.1 2 0.4 0.9 1.1 1.5 1.5 1.3 0.4-0.1 0.4-1 0-2-0.4-0.9-1-1.5-1.4-1.3z"/><path class="i" d="m155.7 118.3c-0.4 0.1-0.5 1-0.1 1.9 0.4 1 1.1 1.6 1.5 1.4 0.4-0.2 0.4-1.1 0-2-0.4-0.9-1-1.5-1.4-1.3z"/><path class="i" d="m128.6 105.6c-1 0.5-1 2.6-0.1 4.8 1 2.2 2.5 3.7 3.5 3.3 1-0.5 1-2.6 0.1-4.8-1-2.2-2.5-3.7-3.5-3.3z"/><path class="i" d="m68.6 90.5c1.1-1.2 1.5-2.6 1-3-0.5-0.5-1.8 0.1-2.9 1.3-1.1 1.2-1.5 2.5-1 3 0.5 0.5 1.8-0.1 2.9-1.3z"/><path class="i" d="m73.6 88.2c1.1-1.2 1.5-2.5 1-3-0.5-0.5-1.8 0.1-2.9 1.3-1 1.2-1.5 2.5-0.9 3 0.5 0.5 1.8-0.1 2.8-1.3z"/><path class="i" d="m70.4 92.3c-0.4-0.3-1.4 0.1-2.2 1-0.8 0.9-1.1 2-0.7 2.3 0.4 0.4 1.4-0.1 2.2-1 0.8-0.9 1.1-1.9 0.7-2.3z"/><path class="i" d="m75.6 89.9c-0.4-0.4-1.4 0-2.3 0.8-0.9 0.8-1.3 1.8-0.9 2.2 0.3 0.4 1.3 0 2.2-0.8 0.9-0.8 1.4-1.8 1-2.2z"/><path class="i" d="m76.9 97c-1 0.7-1.6 1.6-1.3 2.1 0.3 0.4 1.4 0.2 2.4-0.4 1-0.7 1.6-1.6 1.3-2.1-0.3-0.4-1.4-0.2-2.4 0.4z"/><path class="i" d="m77.6 94.1c1-0.7 1.6-1.6 1.3-2-0.3-0.5-1.3-0.3-2.4 0.3-1 0.7-1.6 1.6-1.3 2 0.2 0.5 1.3 0.3 2.4-0.3z"/><path class="i" d="m63.7 96.5c-0.3-0.2-1 0.1-1.5 0.7-0.6 0.6-0.8 1.3-0.6 1.6 0.3 0.2 1-0.1 1.5-0.7 0.6-0.6 0.8-1.4 0.6-1.6z"/><path class="i" d="m64 92.2c0.4-0.4 0.6-0.9 0.6-1.3q-0.8 1-1.5 2 0.4-0.2 0.9-0.7z"/><path class="i" d="m72 95.9c-0.3-0.2-1 0.1-1.5 0.7-0.6 0.6-0.8 1.3-0.6 1.6 0.3 0.2 1-0.1 1.6-0.7 0.5-0.6 0.7-1.4 0.5-1.6z"/><path class="i" d="m72.6 98.2c-0.6 0.7-0.8 1.4-0.6 1.6 0.3 0.3 1 0 1.6-0.7 0.5-0.6 0.7-1.3 0.5-1.5-0.3-0.3-1 0-1.5 0.6z"/><path class="i" d="m64.1 101.5c-0.5 0.5-0.7 1-0.5 1.2 0.3 0.2 0.8 0 1.3-0.5 0.4-0.5 0.6-1.1 0.4-1.3-0.3-0.2-0.8 0.1-1.2 0.6z"/><path class="i" d="m59.2 101.8c-0.3 0.5-0.4 1.1-0.1 1.3 0.2 0.1 0.7-0.2 1.1-0.8 0.3-0.5 0.4-1.1 0.1-1.3-0.2-0.1-0.7 0.2-1.1 0.8z"/><path class="i" d="m67.8 102.4c-0.5 0.5-0.6 1-0.4 1.2 0.2 0.2 0.7 0 1.2-0.5 0.4-0.5 0.6-1.1 0.4-1.3-0.2-0.2-0.8 0.1-1.2 0.6z"/><path class="i" d="m67.1 107.4c-0.4 0.5-0.6 1.1-0.4 1.3 0.3 0.2 0.8-0.1 1.2-0.6 0.5-0.5 0.7-1 0.4-1.2-0.2-0.2-0.7 0-1.2 0.5z"/><path class="i" d="m72.4 101.7c-0.4 0.5-0.6 1.1-0.4 1.3 0.2 0.2 0.8-0.1 1.2-0.6 0.4-0.5 0.6-1.1 0.4-1.3-0.2-0.1-0.7 0.1-1.2 0.6z"/><path class="i" d="m72.6 84.3c0.9-1.1 1.4-2.3 1.1-2.8q-2.2 1.7-4.2 3.8 0.1 0.2 0.2 0.3c0.5 0.5 1.8-0.1 2.9-1.3z"/><path class="i" d="m77.5 79.7c0.9-0.7 1.5-1.5 1.6-2.1q-2.2 1.3-4.3 3c0.5 0.2 1.7-0.1 2.7-0.9z"/><path class="i" d="m79.3 89.7c0.3 0.9 2.2 0.9 4.2 0.2 1.9-0.8 3.2-2.1 2.9-3-0.3-0.8-2.2-0.9-4.1-0.1-2 0.7-3.3 2.1-3 2.9z"/><path class="i" d="m82.5 92.6c-1.9 0.4-3.2 1.4-3 2.2 0.1 0.8 1.8 1.1 3.6 0.7 1.9-0.4 3.2-1.4 3-2.2-0.1-0.8-1.8-1.1-3.6-0.7z"/><path class="i" d="m133 100c-1.2-2.1-3-3.3-3.9-2.7-0.8 0.5-0.6 2.6 0.7 4.7 1.3 2 3 3.3 3.9 2.7 0.9-0.5 0.6-2.7-0.7-4.7z"/><path class="i" d="m125.3 105.5c-1.2-2.1-2.9-3.4-3.8-2.9-0.5 0.3-0.6 1.2-0.4 2.2 1.7 1.7 3.2 3.5 4.6 5.4q0 0 0.1 0c0.9-0.5 0.7-2.6-0.5-4.7z"/><path class="i" d="m121.6 95.2c-0.8 0.6-0.4 2.7 1 4.6 1.3 2 3.2 3.1 4 2.5 0.9-0.6 0.5-2.7-0.9-4.6-1.4-2-3.2-3.1-4.1-2.5z"/><path class="i" d="m115.7 92.4c1.9 1.5 4 2.1 4.6 1.3 0.7-0.9-0.3-2.7-2.2-4.2-1.9-1.5-3.9-2.1-4.6-1.3-0.6 0.9 0.4 2.7 2.2 4.2z"/><path class="i" d="m118.5 96.2c-1.9-1.5-3.9-2-4.6-1.2-0.7 0.8 0.3 2.7 2.2 4.2 1.9 1.5 3.9 2 4.6 1.2 0.7-0.8-0.3-2.7-2.2-4.2z"/><path class="i" d="m108.7 88.2c-2.3-0.9-4.5-0.8-4.9 0.2-0.4 0.9 1.1 2.4 3.3 3.3 2.3 0.9 4.5 0.8 4.9-0.2 0.4-0.9-1.1-2.4-3.3-3.3z"/><path class="i" d="m98.6 87.4c2.2 0.4 4.1 0.1 4.3-0.8 0.2-0.8-1.4-1.8-3.6-2.2-2.2-0.4-4.1-0.1-4.3 0.8-0.2 0.8 1.4 1.8 3.6 2.2z"/><path class="i" d="m100 89.8c-2.4-0.4-4.5 0-4.7 0.9-0.2 0.9 1.6 2 4 2.4 2.4 0.4 4.5 0.1 4.7-0.8 0.3-0.9-1.5-2-4-2.5z"/><path class="i" d="m112.3 98.2c0.4-0.9-1.1-2.5-3.3-3.4-2.2-1-4.3-1-4.7 0-0.2 0.5 0 1.1 0.6 1.8q3.8 0.7 6.9 2.1 0.3-0.2 0.5-0.5z"/><path class="i" d="m92.2 94c-2.3 0.3-4.1 1.4-4 2.4q2.3-0.4 4.9-0.6 1.8-0.1 3.6 0 0.1-0.3 0.1-0.5c-0.2-1-2.2-1.6-4.6-1.3z"/><path class="i" d="m121.6 88.4c-0.8 0.7-0.3 2.5 1.1 4.1 1.4 1.6 3.2 2.3 3.9 1.6 0.8-0.7 0.3-2.6-1.1-4.1-1.4-1.6-3.2-2.3-3.9-1.6z"/></g><path class="b" d="m79.8 97.1l3.1-0.8c2.7-5 8-12.3 14.8-17.4-10.1 0.9-16.5 4.1-26.6 11 4.6 0.1 7.3 4.2 8.7 7.2z"/><path class="k" d="m97.5 78.7c-10.9 4-20.3 12.7-22.2 15.9 0 0-0.3-12.4-7.3-14.8 11.7-3.7 19.7-3.2 29.5-1.1z"/></svg>