<svg version="1.2" xmlns="http://www.w3.org/2000/svg" viewBox="0 0 319 226" width="319" height="226"><style>.a{fill:#dd1414}.b{fill:#bf0a0a}.c{fill:#ea362d}.d{fill:#ed2e29}.e{fill:#ff3631}.f{fill:#f4bd5b}.g{fill:#ffd278}.h{fill:#472c35}.i{fill:#5ce5ce}.j{fill:#cc1212}.k{fill:#331d26}.l{fill:#1e0f16}.m{fill:#cc0e0e}</style><path class="a" d="m35.7 161.9c-2.7-0.1-9.9 7.5-10.8 16l7.5-1.5c-3.9-8.1 4.1-14.4 3.3-14.5z"/><path class="b" d="m125.2 181.6c3.8-6.7 8.5-12.6 6.3-16.2-1.4-2.4-5.9-3.7-14.6-3.6 0 0 9.6-5.6 15.5-6.4 5.8-0.8 10.2 0.2 10.2 0.2 0 0-9.1 4.3-7.8 8.3 0.7 2 6.7-0.8 10.5-1.6 3.4-0.7-8.8 13.5-8.8 13.5z"/><path class="b" d="m55.5 153.4c40.9 20 98.8 5 124.2-10.9 0 0-14.9-11.5 3.4-33.4 0 0-56.5-48.3-15.2-90.9-76.7 26.5-115.3 63.8-112.4 135.2z"/><path class="b" d="m6.4 197.3c-2.2 2.3-2.3 5-2.3 5.7 0 0.5 1.7-0.8 1.7-0.8 0 0 8.1 2.5 11 2.4 2.9-0.2 6.4-3.4 8.1-4.5 1.7-1.1 14.2-5.3 18-4.8 1.2 0.1 0.2-10.1 0.2-10.1 0 0-4.3-3.2-6.4-3.3-0.2 0-30.3 15.4-30.3 15.4z"/><path class="b" d="m5.9 201.2c-0.2 1.9 0.2 2.9 0.4 3.1 0.1 0.1 3.4-3.2 3.6-3.9 0.1-0.7-4 0.8-4 0.8z"/><path class="c" d="m129 176.9c5.5-7.4 11.6-13.7 10.3-18.2-0.9-3.1-5-5.3-13.8-6.5 0 0 11-5.2 17.1-5.4 6-0.1 10.8 6.9 10.8 6.9 0 0-8.4 0.7-8.8 3.2-0.5 2.4 5.3 0.4 9.2 0 3.6-0.4-12 14.7-12 14.7z"/><path class="c" d="m64.9 122.5c31.5 35.6 92.7 35.8 123.1 25.2 0 0-9.9-17.7 16-37.5 0 0-35.8-72.9 20-109.6-83.5 7.3-134.7 38.6-159.1 121.9z"/><path class="b" d="m84.3 225.4h15.8c0 0 7.5-7.9 13.3-11.2l1.6-2.6c0 0-9.3 1.6-6.7-8.9 3.2-12.6-10.5-16.1-21.5-7.9 0 0 5.2 11.7 9.5 15.4 1.4 1.2 4.9 6.8-4 11.8 0 0-7.2 0-8 3.4z"/><path class="b" d="m183 225.4h20.5c0 0 0.5-10.6 16.1-19.5 5-5.6-5.4-4.2-12.1-7 0.4-16.9-20.9-17.4-34.9-6.5 0 0 6.6 14.9 26.3 18.2 0.6 1.5-2.4 6.6-6.6 11.6 0 0-8.5 0.2-9.3 3.2z"/><path class="d" d="m37 191.8c11.5-11 17.8-12.1 27.9-6.5 10.2 5.6 31.5 26.3 53.4 25.2 21.8-1.1 38.1-12.4 56.4-9.2 18.2 3.1 48 10.1 70.2-1.8 22.3-11.9 35.6-38.3 24.1-65.7-11.5-27.5-37.6-50.2-22.7-74.3 12-19.5 52-21.6 61.9 2.1 9.9 23.6-9.3 43.2-9.3 43.2l0.7 1.1c28.6-22.5 24.1-63.5-4.9-73.1-29.1-9.7-72.2 4.4-71.6 41.1 0.7 39.2 34.9 71.8 23.4 90.3-10.3 16.6-30.6 12.9-43.6 5.4-15.4-8.9-37.4-16.7-53.4-11.7-15.9 4.9-25.4 43.8-61.4 22.9-36-20.9-52.2-5.4-56.2-1.3-4.1 4 5.1 12.3 5.1 12.3z"/><path class="e" d="m294.7 32.8c-29.1-9.7-72.2 4.4-71.6 41.1 0.3 14.8 5.3 28.7 10.9 41.2 8.7 11.2 21.2 18.6 35.3 19.6q-0.1-0.5-0.3-0.9c-11.5-27.5-37.6-50.2-22.7-74.3 12-19.5 52-21.6 61.9 2.1 9.9 23.6-9.3 43.2-9.3 43.2l0.7 1.1c28.6-22.5 24.1-63.5-4.9-73.1z"/><path class="e" d="m246.2 92.1c4.2 12.7 14.3 25.7 22 39.8-6.4-14.3-16.3-27.2-22-39.8z"/><path class="e" d="m225 80.5c0.7-53.2 66.8-56.1 89.3-31.3-4.1-7.5-10.7-13.4-19.6-16.4-29.1-9.7-72.2 4.4-71.6 41.1 0.2 9.3 2.2 18.2 5 26.6-1.8-6.5-3.2-13.1-3.1-20z"/><path class="e" d="m315.4 85.2c0.5-5.2-0.1-11-2.8-17.1-1.2-2.8-2.8-5.3-4.8-7.4q0.2 0.4 0.4 0.9c9.9 23.6-9.3 43.2-9.3 43.2l0.7 1.1c7.5-5.9 12.7-13.1 15.8-20.7z"/><path class="e" d="m84 182.2c12.2 6.9 20.8 15.2 35.5 12.1 21.5-4.5 22.2-24.9 33.2-28.2 16.5-4.9 35.6 1.1 51.5 10 13.4 7.5 32 11 42.7-5.6 4.6-7.2 4.3-16.2-0.5-27.2 2.8 8.2 3.6 15.2 0.1 20.9-10.3 16.6-30.4 12.2-43.5 4.7-15.4-8.9-37.3-16.4-53.2-11.5-16 5-25.2 43.7-61.2 22.7-36-20.9-52.7-4.7-56.7-0.6-1.1 1-1.2 2.4-0.9 3.8 19.3-13.3 21.9-18.7 53-1.1z"/><path class="a" d="m224.2 64.9q0-0.7 0-1.5c-0.8 3.3-1.2 6.8-1.1 10.5 0.6 32.3 23.9 60.2 25.7 79.3 2.8-31.9-23.9-49.9-24.6-88.3z"/><path class="a" d="m308.2 61.6c9.9 23.6-9.3 43.2-9.3 43.2l0.5 0.8c5.7-6.3 21.7-27.3 8.8-51.9-12-22.7-50.9-18.8-62.9 0.7-14.9 24.1 5.7 45 17.2 72.4 11.5 27.5 0.8 47.2-21.5 59.1-22.2 11.9-43.3-4.4-61.5-7.5-18.3-3.1-38.3 22-60.1 23.1-21.8 1.1-43.2-19.6-53.3-25.2-5.5-3-9.6-4-16.5-0.7-1.6-0.8-5.1-3.4-11.3-1.3-2.3 1.6-3.3 11-5.4 12.8 1.8 2.6 4.1 4.7 4.1 4.7 11.5-11 17.8-12.1 27.9-6.5 10.2 5.6 31.5 26.3 53.4 25.2 21.8-1.1 38.8-11.2 57.1-8.1 18.2 3.1 46 11.6 68.3-0.3 22.3-11.9 36.8-40.9 25.3-68.3-11.5-27.5-37.6-50.2-22.7-74.3 12-19.5 52-21.6 61.9 2.1z"/><path class="f" d="m243.9 198.1c-22.3 11.9-50.3 2.6-68.5-0.5-18.3-3.1-35.3 7-57.1 8.1-21.9 1.1-40.5-16.6-50.7-22.3-10.1-5.6-18-5.7-29.4 5.4l-1.2 3c11.5-11 17.7-11.7 27.8-6.1 10.1 5.6 31.8 26.4 53.6 25.3 21.8-1.2 38.6-10.5 56.9-7.3 18.1 3.1 46.3 11.1 68.6-0.8 17.6-9.4 30.3-30.1 29.3-51.6-0.9 19.6-13.1 38.1-29.3 46.8z"/><path class="g" d="m166.4 199.9c-17 0-31.1 6-40.6 10.4 18.3-2.5 33.3-9.4 49.5-6.6 7.4 1.2 16.3 3.3 25.9 4.5-8-4.6-19.9-8.3-34.8-8.3z"/><path class="c" d="m131.8 225.4h14.7c0 0 2.1-8.8 5.9-12.1l-0.2-2.7c0 0-8.5 2.2-13.2-8.6-5.7-13-22.3-9.3-28.1-0.8 0 0 3.4 7.1 22.9 9.4 2.1 0.2 10 6.1 4.1 11.3 0 0-7.7 0-6.1 3.5z"/><path class="d" d="m222.1 225.4h18.7c0 0-7.1-12 2.1-21.9 1.1-6.3-8.4-4.8-17.1-8-11.6-18.9-25.3-21.4-42.8-16.6 0 0 1.8 31.3 42.1 27.9 1.7 1.7 4.7 9.4 4 15 0 0-8.4 0.2-7 3.6z"/><path class="d" d="m3.1 197.7c-0.8 1.7 3.2 3.9 12.7 2.9l2-3.9c0 0 4.7 1.7 10.1-0.6 0 0-6-1.9-1.7-4.2 4.2-2.3 13 1.1 13 1.1 0 0-0.8-5.9 7.9-6.9 2.5-8.2 0.9-11.1-7.4-12.1 0 0-11.7 1.6-16 3.9-4.4 2.4-8.8 8.2-8.8 8.2l1.2 1.8c-1.2 2.7-12 7.9-13 9.8z"/><path class="e" d="m32.4 176.4c2-1 6-2.3 7.9-3.1-3.6 0.6-13.6 2.1-16.9 3.8-4.4 2.4-8.3 8.7-8.3 8.7l0.2 0.4c11.6-2.9 10.7-6.4 17.1-9.8z"/><path class="a" d="m48.5 177.5c-6.3 0.1-11.7 3.5-11.7 8.6 0 2.2 1.2 5 2.8 6.6q0.2 0.1 0.2 0.1c0 0-0.4-5.3 8.4-6.3 1.2-3.7 1-7.1 0.3-9z"/><path class="a" d="m29.4 184.6c0-2.2 0-5.3 1.6-7.4-2.1 1.3-2.9 0.1-5.2 3.4-2.2 3.2-7.7 4.3-10.7 5.2l1.2 1.8q-0.2 0.5-0.9 1.2c2.3-0.6 4.9-0.9 7.4-0.9 2.9 0 5.6 0.3 8 0.8-0.9-1.2-1.4-2.6-1.4-4.1z"/><path class="h" d="m15 188.2l0.4 0.6c0 0 9.7 0.2 7.7-5.8 0 0-6.3 2.6-8.1 5.2z"/><path class="h" d="m0.4 197.9c0 0.8 3 1.3 4.3 1.3 1.4-0.1 4.9-6.3 4.9-6.3 0 0-1.9 0.6-2.6 0.7-1.3 0.3-6.6 3.6-6.6 4.3z"/><path class="e" d="m42.3 160.1c-2.7 0.1-10.3 7.9-11.7 16l7.5-2.1c-3.3-7.3 5-14 4.2-13.9z"/><path class="i" d="m18 187c0 0 0.6 0 1.1 0 1.2-0.3 1.1-0.4 1.8-1.6 0 0-1.8 0.3-2.9 1.6z"/><path class="a" d="m13.2 186.8l1.3 2.2c0 0 2-2.8 6-4.1 3.5-1.2 4.9-2.8 5.6-5.7 0 0-1.5 3.9-6 4.2-3.9 0.3-6.9 3.4-6.9 3.4z"/><path class="a" d="m152.2 210.6c0 0-8.5 2.2-13.2-8.6-0.8-1.9-1.9-3.4-3.2-4.7 2.9 3.6 4 7.3 2.5 9.8-2.5 4-16.4 1.1-24.2-3.7q-1.8-1.2-3.1-2.4 0 0.1-0.1 0.2c0 0 2.8 7.5 22.3 9.7 2.1 0.2 10.5 5.8 4.9 10.9 4.7 0.2 8.4 1.5 8.4 3.1q-0.1 0.2-0.2 0.5h0.2c0 0 2.1-8.8 5.9-12.1z"/><path class="j" d="m152.2 210.6q0 0 0 0 0 0 0 0z"/><path class="j" d="m139.8 216.8c0.7-5.3 5-5.9 11.1-6.1-2.6 0.2-8.3-0.5-11.9-8.7-0.8-1.9-1.9-3.4-3.2-4.7 2.9 3.6 4 7.3 2.5 9.8-2.5 4-16.4 1.1-24.2-3.7q-1.8-1.2-3.1-2.4 0 0.1-0.1 0.2c0 0 2.8 7.5 22.3 9.7 1.4 0.2 5.6 2.7 6.6 5.9z"/><path class="a" d="m225.8 195.5q-1.1-1.8-2.2-3.4c1.7 3.3 2.7 5.8 2.9 6.3 2.4 7.2-13.8 9.6-25.7 3.5-5.1-2.7-10-6.6-13.8-10.8 4.8 8.4 15.3 17.6 38.1 15.7 1.7 1.7 4.7 9.4 4 15 0 0-8.4 0.2-7 3.6h18.7c0 0-7.1-12 2.1-21.9 1.1-6.3-8.4-4.8-17.1-8z"/><path class="j" d="m225.1 206.8c0.3 0.3 0.7 0.9 1 1.5 4.4-4.8 9.4-8.1 14.2-9.3-3.3-1.3-9-1.5-14.5-3.5q-1.1-1.8-2.2-3.4c1.7 3.3 2.7 5.8 2.9 6.3 2.4 7.2-13.8 9.6-25.7 3.5-5.1-2.7-10-6.6-13.8-10.8 4.8 8.4 15.3 17.6 38.1 15.7z"/><path class="a" d="m204 110.4q0 0-0.2-0.5c-7.5-1.1-16.3-1.9-26.4-2.1-27-0.5-109.8 0.8-105 10.9 15 31.6 72.8 29.5 104.9 29.6q5.3 0 10.3-0.3 0.2 0 0.4-0.1c0 0-9.9-17.8 16-37.5z"/><path class="a" d="m219.5 3.8c-78.6 9.6-125.7 39.7-144.9 108.4 0 0 49.2-11.1 128.5-4-5.1-11.5-27.9-70.6 16.4-104.4z"/><path class="k" d="m8.5 193.3q-0.4 0.1-0.6 0.2c-1.1 0.5-4.6 3.7-5.9 5.4 1 0.2 2.1 0.3 2.7 0.3 1.4-0.1 4.9-6.3 4.9-6.3 0 0-0.5 0.2-1.1 0.4z"/><path class="l" d="m7.6 194.8q-0.2 0.1-0.4 0.2c-0.6 0.2-2.5 2-3.2 2.9 0.5 0.1 1.1 0.2 1.5 0.1 0.7 0 2.6-3.4 2.6-3.4 0 0-0.2 0.1-0.5 0.2z"/><path class="b" d="m285.4 117.8c13.1-4.9 20.9-13.3 20.9-13.3l0.1-5-2.1 0.8-0.1-2.5-5.7 1z"/><path class="e" d="m209.5 175.8c-7.3-5.9-22.6-15-26.5-10.1-4 5-0.9 22.1 6.5 28 7.3 5.8 23.1 7 27 2.1 3.9-5 0.4-14.2-7-20z"/><path class="e" d="m134.9 204.8c3.1-2.2-0.2-12.3-6.5-17.1-6.3-4.8-18.5-1.8-21.6 0.5-3.1 2.2-1.8 8.5 4.5 13.3 6.3 4.8 20.5 5.5 23.6 3.3z"/><path class="f" d="m152.4 213.3l-1.2-2.6c0 0 4.8-1 6.9-1 0 0-3.8 2.4-5.7 3.6z"/><path class="f" d="m132.7 223.1c-1.6 0.4-2.3 2.3-2.3 2.3h3.2z"/><path class="f" d="m135.9 223.1c-1.7 0.4-2.3 2.3-2.3 2.3h3.2z"/><path class="f" d="m139 223.1c-1.6 0.4-2.3 2.3-2.3 2.3h3.2z"/><path class="f" d="m224.3 223.1c-1.6 0.4-2.2 2.3-2.2 2.3h3.2z"/><path class="f" d="m227.5 223.1c-1.6 0.4-2.3 2.3-2.3 2.3h3.3z"/><path class="f" d="m230.6 223.1c-1.6 0.4-2.2 2.3-2.2 2.3h3.2z"/><path class="a" d="m186.7 223.4c-1.8 0.3-3 2-3 2h3.2z"/><path class="a" d="m189.8 223.4c-1.7 0.3-2.9 2-2.9 2h3.2z"/><path class="a" d="m193 223.4c-1.8 0.3-3 2-3 2h3.2z"/><path class="c" d="m86.6 223.3c-1.8 0.3-3 2.1-3 2.1h3.2z"/><path class="c" d="m89.8 223.3c-1.8 0.3-3 2.1-3 2.1h3.2z"/><path class="c" d="m92.9 223.3c-1.8 0.3-3 2.1-3 2.1h3.2z"/><path class="m" d="m150.9 43.1c16.2-6.9 32.2-10.6 47.2-11.7 4-10 10.8-19.5 21.4-27.6-74.9 9.2-121.2 36.9-142 99 15.1-22.8 41.3-46.1 73.4-59.7z"/><path class="m" d="m139.9 117.1c18.6 2.5 35.5 6.3 48.9 10.7 2.5-5.3 7.1-11.3 15.2-17.4q0 0-0.2-0.5c-7.5-1.1-16.3-1.9-26.4-2.1-25.2-0.5-99 0.7-104.8 9 15.4-3.1 40-3.3 67.3 0.3z"/></svg>