<svg version="1.2" xmlns="http://www.w3.org/2000/svg" viewBox="0 0 229 246" width="229" height="246"><style>.a{fill:#bcbc31}.b{fill:#d6d638}.c{fill:#9da535}.d{fill:#797f26}.e{fill:#555618}.f{fill:#b1b57d}.g{fill:#636320}.h{fill:#a2aa35}.i{fill:#5e343e}.j{fill:#844658}.k{fill:#86932c}.l{fill:#bcb57d}.m{fill:#d8cf98}.n{fill:#717725}.o{fill:#492831}.p{fill:#351c24}.q{fill:#eae53b}.r{fill:#e0cb32}</style><path class="a" d="m140 74.9l-1.3 5.6c4 2.2 3.5 13.9-1 21.1l11.4-0.3c-0.5-16.8-9.1-26.4-9.1-26.4z"/><path class="b" d="m126.8 71.5l-2.4 5.2c3.5 3 0.5 14.3-5.5 20.4l11.1 2.2c3.2-16.6-3.2-27.8-3.2-27.8z"/><path class="c" d="m196.4 14.1c-1.6 0.3-1.1 16.8-2.9 38.4l6.6 2.1c1.4-15.8-2.2-40.9-3.7-40.5z"/><path class="d" d="m196.4 14.1c-1.6 0.3-2.5 16.8-4.3 38.4l6.6 2.1c-3-8.1-4.1-29-2.3-40.5z"/><path class="e" d="m176.2 76c8-0.7 16.4 0.9 23.4 5.9 0 0 2.3 8.9 4 9.1 1.7 0.2 10.3-1.5 10.3-1.5l-5.9-14-21.8-11.4c0 0-11.5 3-10 11.9z"/><path class="f" d="m205.9 80.9c-2.6 1.6-5.3 1.4-5.3 1.4 0 0 1.9-3.1 2.6-3.5 0.7-0.5 2.7 2.1 2.7 2.1z"/><path class="f" d="m209.6 85.6c-3.4 2.1-5.6 1.9-5.6 1.9 0 0 1.6-3.5 2.4-4.2 0.8-0.8 3.2 2.3 3.2 2.3z"/><path class="f" d="m201.1 77c-2.6 1.8-5.1 1.8-5.1 1.8 0 0 1.7-3.4 2.4-3.9 0.6-0.5 2.7 2.1 2.7 2.1z"/><path class="f" d="m197.8 73.8c-3.7 2.5-6.9 2.8-6.9 2.8 0 0 3.2-4.2 4.2-4.9 1-0.7 2.7 2.1 2.7 2.1z"/><path class="g" d="m181.9 75.9c0 0 5-3.1 21.4 3.4l0.6-0.8-17.9-12.4z"/><path class="a" d="m158.5 108.8c-3.5-4.9-9.3-11.6-16.2-13.2-4.4-0.9-24 52.5-24 52.5 0 0 28.8-20.5 40.2-39.3z"/><path class="h" d="m142.8 124.7c-4.3-5.1-8.4-29.2-15.6-30.8-4.5-1-15.5 54.9-15.5 54.9 0 0 23.8-13.5 31.1-24.1z"/><path class="i" d="m141.3 127.5c-4.3-5.1-8.4-29.2-15.6-30.7-4.5-1.1-15.5 54.8-15.5 54.8 0 0 23.8-13.5 31.1-24.1z"/><path class="j" d="m105.9 125.8l-2.5 3.5c16.2-19.3 35.5 0 35.5 0l1.6-1.7c0 0-21.5-16.7-34.6-1.8z"/><path class="j" d="m98.9 139.5l-2.5 3.9c16.1-22.1 35.3-6.2 35.3-6.2l1.7-2c0 0-21.5-12.9-34.5 4.3z"/><path class="g" d="m116.7 245h19.6c0 0-0.7-5.3-10.2-5.4 0 0-3.9-3.8-2-8.5 0 0 12.2-0.6 16.7-15.6l-17.1-13.6c0 0-2.7 15.4-12.4 24.4 0 0 0.2 9.1 5.4 18.7z"/><path class="g" d="m197.9 245h-23.5c0 0-3.9-17.4-11.4-27.7 0 0 6.9-26.5 8.3-37.3l18.8-12.6c0 0 3 15.5-6.6 36.5 0 0-6.1 24.9 2.7 33.6 0 0 10 2.6 11.7 7.5z"/><path class="k" d="m58.5 186.7c29.8 29.2 58.8 39.8 90.5 40.6 11.1 0.3 45.2-19.1 41.1-59.9-4.2-40.8-27.6-71.7-4.5-102.1l-10.2-12.9c-31.2 43.6-29.7 67.4-33.6 72.9-7.7 10.6-83.3 61.4-83.3 61.4z"/><path class="c" d="m121.8 151.4c10.7 0 20.9 1.2 30.2 3.3q-0.3-8.9 0.2-18.3c1.8-34.7 11.5-65.1 24.7-82.2l-1.5-1.8c-31.2 43.6-29.7 67.4-33.6 72.9-3.1 4.3-17.4 15.3-33.3 26.7q6.5-0.6 13.3-0.6z"/><path class="d" d="m190.1 167.4c-4.2-40.8-26.7-71.2-3.6-101.5l-12-8.8c-9.3 10.1-10.7 46.5-6.1 65.2 7 28.9 7.7 41.2 3.5 41.7-4.9 0.5-11.9-21.4-22.3-18.7-4.7 1.1-17.7 19.5-20.7 17.5-3.6-2.3 3.9-26 12-36.4-11.1 12.5-82.4 60.3-82.4 60.3 29.8 29.2 58.8 39.8 90.5 40.6 11.1 0.3 45.2-19.1 41.1-59.9z"/><path class="g" d="m118.6 178c11.4 10.4 11.2 27.7 4.2 43.2l-10.4-4.9z"/><path class="l" d="m188.5 169.6c-3-30.8-19.5-55.7-16.1-79-5.9 17.7 2.1 31.2 5.1 61.2 4.1 40.8-15.2 61.2-36.8 66.2-18.5 4.2-47.1-6.7-69-19.5 25.2 20.3 50.3 28.1 77.3 28.8 11.1 0.3 43.7-16.9 39.5-57.7z"/><path class="m" d="m176.5 211.6c8-9.4 13.9-23.2 12-42-3-30.8-19.5-55.7-16.1-79-5.9 17.7 2.1 31.2 5.1 61.2 2.2 21.2-2.1 36.9-9.7 47.8 2.6 4.7 5.5 8.8 8.7 12z"/><path class="g" d="m168.6 62.4c0.4 2.9 1.2 6 2.2 9.2 1.6 5 4.2 11.2 6.3 14.8 1.4-6.6 6.2-13.3 11.2-18.3l-12.9-15.7c-2.5 3.5-4.7 6.8-6.8 10z"/><path class="k" d="m58.5 186.7c-36.1 4.3-31.5-40.7 12.1-90 39.1-44.2-10.9-80.1-16.9-84.9-6-4.8-6.5-2.4-2.7 0.7 22.2 18.1 35.5 48.3 12.4 75.4-17.5 20.6-54.5 53.2-51.2 97.6 3.3 44.5 49.6 39.7 92 32.2z"/><path class="c" d="m37.1 118.1c2.4 5.4 5.3 10 8.4 13.6 6-11 14.4-22.9 25.1-35 39.1-44.2-10.9-80.1-16.9-84.9-6-4.8-6.5-2.4-2.7 0.7 22.2 18.1 35.5 48.3 12.4 75.4-7 8.1-17 18.2-26.3 30.2z"/><path class="d" d="m18 174.9c-3.2-30.3 30.5-66.8 48.1-85.6 21.9-23.3 10.7-57.5-13.4-75.9-3.4-2.5-3.7-4.5-0.1-2.4-5-3.7-5.2-1.4-1.6 1.5 22.2 18.1 34.6 48.1 11.6 75.1-17.6 20.6-55.2 54.3-51.9 98.8 3.4 44.4 55.8 40.3 98.2 32.8l-50.2-48c-20.3 11.2-39 19.6-40.7 3.7z"/><path class="k" d="m171.5 245h-23.3c0 0-3.9-19.1-11.3-30.5 0 0-3.1-28.6-8.6-41.1-9.2-21 21.5-44 35-19.7 5.6 10.2 4.1 21.4-5.4 44.6 0 0-2.4 28.4 3.3 38.4 0 0 8.6 3 10.3 8.3z"/><path class="n" d="m157.5 216.9c0.1-3.7 0.4-18.6 0.4-18.6 6.9-16.8 9.5-27.3 8.4-35.7-1.2 18.4-9.4 32.8-18.5 32.8-8.8 0-18.2-17.5-20.3-35.8-1.3 4.4-1.2 9.1 0.8 13.8 5.5 12.5 8.6 41.1 8.6 41.1 7.4 11.4 11.3 30.5 11.3 30.5h3.3c-3.6-13.2-4.5-26.5 6-28.1z"/><path class="k" d="m109.5 171.4c14.9 18.5 10.4 39.3 10.2 42.5-0.2 3.2-15.4 12.6-36.3 15.2 0 0 0.6 7.2 2.2 9.8 0 0 15.7-1 15.7 6.1h-26.5c0 0-5.4-25.7-4.8-27.7 0 0 8.3-0.8 11-1.6 7.5-2.2 22.7-51.5 28.5-44.3z"/><path class="n" d="m108.9 170.3c-8.9-2.7-21.1 42.3-28.5 44.5-2.7 0.8-11.3 2.1-11.3 2.1-0.6 2.1 5.7 28.1 5.7 28.1h0.1q0-0.3-0.1-0.6c-0.9-6.9 2.8-12.6 8.8-14-0.1-0.8-0.2-1.3-0.2-1.3 20.9-2.6 36.4-11.3 38.2-14 3.1-4.8 13.4-36.5-12.7-44.8z"/><path class="k" d="m226.5 85.8c-0.9 3.5-5.5 10.2-14.3 9.6l-8.6-16-17.5-10.2-11 7.7c0 0-7.2-10.2-4.6-21.1 0 0-7.7-4.9-7.7-5.9 0-1 6.8 1.7 6.8 1.7 0 0-2-1.3-1.6-2.1 0.4-0.8 7.1 0.7 7.1 0.7 0 0-4.6-4.7-4.2-6.1 0.4-1.4 11 5 11 5l18.5 1.6c0 0 9.9 12.4 8.3 14-1.6 1.6-3.3 0.1-2.9 1.4 0.4 1.3 12.3 17.6 20.7 19.7z"/><path class="c" d="m208.7 64.7c1.6-1.6-8.3-14-8.3-14l-18.5-1.6c0 0-9.3-5.6-10.8-5.2 2.2 3 6.5 6.9 12.2 10.7 9.4 6.2 19.8 10.3 25.2 10.3q0.1-0.1 0.2-0.2z"/><path class="d" d="m221 83c-3.7-0.2-8.3-2.1-13.5-4.5-8.5-4-19-10.2-17.9-12.4 0.9-2 8.7-1.5 16.9 1.3-0.4-0.7-0.7-1.1-0.7-1.3-0.4-1.3 1.3 0.2 2.9-1.4q0 0 0-0.1c-5.4 0.4-14.6-2.8-23.7-8.7-5.9-3.8-10.7-8.1-13.8-12q-0.2 0-0.3 0.2c-0.4 1.4 4.2 6.1 4.2 6.1 0 0-6.7-1.5-7.1-0.7-0.4 0.8 1.6 2.1 1.6 2.1 0 0-6.8-2.7-6.8-1.7 0 1 7.7 5.9 7.7 5.9 19.1 9.1 4.6 21.1 4.6 21.1l11-7.7 17.5 10.2 8.6 16c8.8 0.6 13.4-6.1 14.3-9.6-1.7-0.4-3.6-1.4-5.5-2.8z"/><path class="c" d="m181.8 49.6c0 0 2.4-41 3.6-41.6 1.2-0.6 6.5 43.3 6.5 43.3z"/><path class="o" d="m197.3 63.2c-4.5-1.9-7.7-3.5-7.7-3.5 0 0-1.1 2.3 0.6 3.4 1.6 1.1 7.1 0.1 7.1 0.1z"/><path class="b" d="m194.9 62.4c-2-0.8-3.5-1.6-3.5-1.6 0 0-0.5 1.1 0.3 1.6 0.7 0.5 3.2 0 3.2 0z"/><path class="o" d="m222.4 92c-3.3-4.9-5.2-12.2-5.2-12.2 0 0 10.8 6.5 11.7 8.3 0.7 1.3-6.5 3.9-6.5 3.9z"/><path class="d" d="m125.9 193.8c0-13.4-6.6-24.3-14.7-24.3-8.2 0-14.8 10.9-14.8 24.3 0 13.4 6.6 24.3 14.8 24.3 8.1 0 14.7-10.9 14.7-24.3z"/><path class="b" d="m0 233.6c26-10.4 105.1-60.2 122.1-81.2 6.3-7.8-0.9-62 9.7-53.7 0 0-2.3-6.1-7.5-4.8-22 5.2-122.5 130.4-124.3 139.7z"/><path class="a" d="m28.5 214.3c-7.8 3.9-17.3 5.8-15.7 0-7.6 10.1-12.4 17.3-12.8 19.3 26-10.4 105.1-60.2 122.1-81.2 2.2-2.7 2.7-10.6 3-19.6-6 19.8-66 66.2-96.6 81.5z"/><path class="p" d="m222.4 92c0 0 2.4-0.9 4.3-1.8-0.6-1.4-1.5-2.9-2.8-4.2-2-2.2-4.2-3.5-6-3.7 0.9 2.6 2.5 6.6 4.5 9.7z"/><path class="d" d="m181.8 49.6c0 0 2.4-41 3.6-41.6-0.1 7.1 0.8 42.3 0.8 42.3z"/><g style="opacity:.5"><path class="g" d="m191 44.1h-8.9q-0.1 0.9-0.1 1.7h9.3q-0.1-0.8-0.3-1.7z"/><path class="g" d="m190.4 38.8h-8q0 0.8-0.1 1.7h8.3q-0.1-0.9-0.2-1.7z"/><path class="g" d="m189.7 33.4h-6.9q-0.1 0.9-0.1 1.7h7.2q-0.1-0.8-0.2-1.7z"/><path class="g" d="m188.9 28h-5.7q-0.1 0.9-0.1 1.8h6.1q-0.2-0.9-0.3-1.8z"/><path class="g" d="m188.2 22.7h-4.6q-0.1 0.8-0.1 1.7h4.9q-0.1-0.9-0.2-1.7z"/><path class="g" d="m187.4 17.3h-3.3q-0.1 0.9-0.2 1.7h3.7q-0.1-0.8-0.2-1.7z"/><path class="g" d="m186.5 12h-1.9q-0.1 0.8-0.2 1.7h2.4q-0.2-0.9-0.3-1.7z"/></g><g style="opacity:.6"><path class="g" d="m200.4 45.6l-7.7-0.4q0 0.8-0.1 1.6l7.8 0.4q0-0.8 0-1.6z"/><path class="g" d="m200.3 40.5l-7.2-0.4q-0.1 0.8-0.1 1.6l7.3 0.4q0-0.8 0-1.6z"/><path class="g" d="m200 35.4l-6.5-0.3q-0.1 0.8-0.1 1.6l6.7 0.4q-0.1-0.9-0.1-1.7z"/><path class="g" d="m199.6 30.3l-5.7-0.3q-0.1 0.8-0.1 1.7l5.9 0.3q-0.1-0.8-0.1-1.7z"/><path class="g" d="m199 25.3l-4.6-0.3q-0.1 0.8-0.2 1.6l5 0.3q-0.1-0.8-0.2-1.6z"/><path class="g" d="m198.2 20.2l-3.3-0.2q-0.1 0.8-0.2 1.6l3.8 0.2q-0.2-0.9-0.3-1.6z"/><path class="g" d="m197 15h-1.2q-0.2 0.6-0.4 1.6l2.1 0.1q-0.3-1-0.5-1.7z"/></g><path class="d" d="m209.6 71.5c0 0-7.3 1.3-11 3.9l3.3 2c3.2-4.2 8.4-5 8.4-5z"/><path class="d" d="m213.4 76c0 0-5.4 0.6-9 3.4l3.4 1.8c3-4.3 6.4-4.3 6.4-4.3z"/><path class="d" d="m206.8 67.9c0 0-11.6 1.2-16.1 2.9l3.2 1.9c5.5-2.9 13.8-3.7 13.8-3.7z"/><path class="k" d="m182.7 61.2c-4.4-1.4-9.2-4.4-8.4-5.3 0.7-0.9 8.4 5.3 8.4 5.3z"/><path class="a" d="m32.7 213.2c3.8-11.6 29.8-52.7 47.9-80.6q-1.9 2.1-3.9 4.2c-16.7 24.5-39.7 58.5-55.7 83.8z"/><path class="a" d="m66.2 192.4c3.4-12.9 25.1-56.3 40.4-86.1q-0.9 0.8-1.8 1.6c-14.3 26.2-34.7 64-49.3 93.1z"/><path class="a" d="m101.2 163.7c1.2-10.4 10.6-40.7 19.9-68.5q-0.9 0.5-2 1.1c-9 24.9-19.4 53.9-27.2 77.4z"/><path class="q" d="m55.9 24.9c0 0-15.9-15.3-19.4-24.6 0 0 20.2 6.9 29.8 10.4l-8.1 5z"/><path class="r" d="m48.9 10.7c-3.4-1.3-6.4-2.7-9-4.2 5.9 8.7 16 18.4 16 18.4l2.3-9.2 2.9-1.8c-3.6-0.4-7.8-1.5-12.2-3.2z"/><path class="c" d="m161 148.1c-3.8-13.8-6.7-28.2-14.7-25.9-7.9 2.2-20.7 26.8-16.8 40.7 3.9 13.8 14.1 15.2 22.1 13 8-2.3 13.3-14 9.4-27.8z"/><path class="m" d="m171.5 245h-4l-1.1-3.7c0 0 2.5 0.4 5.1 3.7z"/><path class="m" d="m167.6 245h-4l-1.1-3.7c0 0 2.5 0.4 5.1 3.7z"/><path class="m" d="m163.2 245h-4l-1-3.7c0 0 2.5 0.4 5 3.7z"/><path class="m" d="m101.9 245h-4l-1.1-3.7c0 0 2.5 0.4 5.1 3.7z"/><path class="m" d="m98 245h-4l-1.1-3.7c0 0 2.5 0.4 5.1 3.7z"/><path class="m" d="m93.6 245h-4l-1-3.7c0 0 2.5 0.4 5 3.7z"/><path class="l" d="m198.4 245h-4l-1-3.7c0 0 2.4 0.4 5 3.7z"/><path class="l" d="m194.5 245h-4l-1-3.7c0 0 2.4 0.4 5 3.7z"/><path class="l" d="m190.1 245h-3.9l-1.1-3.7c0 0 2.5 0.4 5 3.7z"/><path class="l" d="m136.4 245.2h-2.9l-0.5-3c0 0 1.8 0.4 3.4 3z"/><path class="l" d="m133.5 245.2h-2.9l-0.4-3c0 0 1.7 0.4 3.3 3z"/><path class="l" d="m130.3 245.2h-2.9l-0.4-3c0 0 1.8 0.4 3.3 3z"/></svg>