<svg version="1.2" xmlns="http://www.w3.org/2000/svg" viewBox="0 0 319 276" width="319" height="276"><style>.a{fill:#cc2f51}.b{fill:#db2c5a}.c{fill:#b7254b}.d{fill:#c4bb86}.e{fill:#e8de97}.f{fill:#fff4b3}.g{fill:#c11e49}.h{fill:#8c4151}.i{fill:#f44d71}.j{fill:#ff5a7e}.k{fill:#d6ca83}.l{fill:#702f41}.m{fill:#6d2d3e}.n{fill:#ffbe3b}.o{fill:#491a29}</style><path class="a" d="m10.8 53.6c0.2-0.9 3.9-10.6 3.9-10.6l-4.5 1.3z"/><path class="a" d="m9.2 61c0.2-0.9 3.8-10.6 3.8-10.6l-4.5 1.3z"/><path class="a" d="m7.5 69.6c0.2-0.9 3.3-10.8 3.3-10.8l-4.4 1.5z"/><path class="a" d="m7.1 77.3c0.1-0.9 2.9-10.9 2.9-10.9l-4.4 1.7z"/><path class="a" d="m8.6 85.5c0-0.9 0.9-11.2 0.9-11.2l-4.1 2.4z"/><path class="a" d="m12.9 92.9c-0.3-0.9-2.4-11-2.4-11l-3.2 3.5z"/><path class="a" d="m16.7 99c-0.3-0.9-2.4-11-2.4-11l-3.1 3.5z"/><path class="a" d="m23.8 103c-0.6-0.7-6.2-9.5-6.2-9.5l-1.7 4.5z"/><path class="a" d="m29.2 106.2c-0.7-0.6-6.9-8.4-6.9-8.4l-1.6 4.2z"/><path class="a" d="m34.6 109.5c-0.7-0.6-6.9-8.4-6.9-8.4l-1.6 4.2z"/><path class="a" d="m40.3 112.1c-0.6-0.7-6.9-8.5-6.9-8.5l-1.5 4.3z"/><path class="a" d="m43.3 118.1c-0.3-0.8-2.5-10.6-2.5-10.6l-3.2 3.2z"/><path class="a" d="m45 122.9c-0.1-0.9 0.2-10.9 0.2-10.9l-3.9 2.2z"/><path class="a" d="m45.8 128.5c0-1 2-10.8 2-10.8l-4.2 1.6z"/><path class="a" d="m44.5 134.5c0.2-0.9 4.3-10 4.3-10l-4.4 0.6z"/><path class="a" d="m43.4 142c0.4-0.8 4-9 4-9l-4.2 0.4z"/><path class="a" d="m40.5 149.2c0.3-0.8 5.3-9.5 5.3-9.5l-4.5 0.1z"/><path class="a" d="m39.2 156.4c0.4-0.9 4.6-8.8 4.6-8.8l-4.2 0.1z"/><path class="a" d="m37.3 164.3c0.3-0.9 5.3-9.5 5.3-9.5l-4.4 0.1z"/><path class="a" d="m36 171.4c0.4-0.8 4.6-8.7 4.6-8.7l-4.2 0.1z"/><path class="a" d="m34.7 180.6c0.2-0.9 4.1-10.1 4.1-10.1l-4.5 0.7z"/><path class="a" d="m34.4 187.8c0.3-0.8 3.4-9.2 3.4-9.2l-4.2 0.6z"/><path class="a" d="m33.1 195.9c0.3-0.9 3.9-9.6 3.9-9.6l-4.7 0.6z"/><path class="a" d="m35.9 202.5c0.2-1 0.9-11.2 0.9-11.2l-3.4 2.2z"/><path class="a" d="m38.9 210.1c-0.2-0.8-1.5-10.4-1.5-10.4l-3.4 3.1z"/><path class="a" d="m42.8 216.2c-0.3-0.9-2.6-9.5-2.6-9.5l-3 2.9z"/><path class="a" d="m46.3 223.5c-0.3-0.9-2.2-10.1-2.2-10.1l-3.5 3.3z"/><path class="a" d="m52.4 227.3c-0.5-0.9-5-9.4-5-9.4l-2.2 3.6z"/><path class="a" d="m60.9 229.3c-0.8-0.5-8.4-6.4-8.4-6.4l-0.2 5.2z"/><path class="a" d="m68.4 232.3c-0.8-0.4-8.5-5.9-8.5-5.9l-0.2 4.7z"/><path class="a" d="m75.8 235.4c-0.8-0.5-8.4-5.9-8.4-5.9l-0.2 4.7z"/><path class="a" d="m82.4 234.2c-0.8-0.4-9.4-4.2-9.4-4.2l0.7 4.6z"/><path class="a" d="m90.3 235.7c-0.8-0.3-9.4-4.2-9.4-4.2l0.7 4.7z"/><path class="a" d="m98.2 237.3c-0.8-0.3-9.4-4.2-9.4-4.2l0.7 4.7z"/><path class="a" d="m106.2 236.9c-0.9-0.1-9.9-2.7-9.9-2.7l1.3 4.5z"/><path class="a" d="m114.3 237.3c-1-0.2-10-2.7-10-2.7l1.4 4.5z"/><path class="a" d="m122.3 237.7c-0.9-0.2-10-2.8-10-2.8l1.4 4.5z"/><path class="a" d="m131.1 236.5c-1-0.1-10.3-1-10.3-1l2.1 4.2z"/><path class="a" d="m139.1 235.4c-1 0-10.3-0.9-10.3-0.9l2.1 4.2z"/><path class="a" d="m147 234.4c-0.9 0-10.2-1-10.2-1l2.1 4.2z"/><path class="a" d="m155 233.4c-0.9 0-10.3-1-10.3-1l2.2 4.2z"/><path class="a" d="m163.1 231.7c-0.9 0.1-10.4-0.1-10.4-0.1l2.1 4z"/><path class="a" d="m171.3 230c-1 0.1-10.5-0.1-10.5-0.1l2.2 4z"/><path class="a" d="m179.3 228.4c-0.9 0-10.3-0.1-10.3-0.1l2.1 3.9z"/><path class="a" d="m187 224.9c-1 0-10.4-0.1-10.4-0.1l2.1 3.9z"/><path class="a" d="m194.6 221.4c-0.9 0-10.4-0.1-10.4-0.1l2.2 4z"/><path class="a" d="m202.1 217.6c-1 0.1-10.1 0.3-10.1 0.3l2 3.9z"/><path class="a" d="m210.1 212.9c-0.9 0.2-10 1.1-10 1.1l2.4 3.7z"/><path class="b" d="m83 275.2h5.1c0 0-0.5-1.9-1-2.3-0.5-0.4-3.1 0.6-4.1 2.3z"/><path class="b" d="m202.3 275.2h5.1c0 0-0.5-1.9-1-2.3-0.5-0.4-3.2 0.6-4.1 2.3z"/><path class="c" d="m191.8 254.7l5.8 2.3c0 0 1.8-2.5 1.4-3.1-0.4-0.6-5.5-0.4-7.2 0.8z"/><path class="d" d="m39.5 275.2h5.2c0 0-0.6-1.9-1.1-2.3-0.5-0.4-3.1 0.6-4.1 2.3z"/><path class="d" d="m181 275.2h4.1c0 0-0.4-1.9-0.8-2.3-0.4-0.4-2.5 0.6-3.3 2.3z"/><path class="a" d="m204 210.8c12.4-10.2 26.3-10.1 34.3-8.9 8 1.2-16.1 11-16.1 11-3.7-2.6-8.1-3.8-18.2-2.1z"/><path class="a" d="m217.4 200.6c13.5-8.2 26.9-6 34.5-3.6 7.6 2.5-17.1 8.5-17.1 8.5-3.3-3.2-7.4-5-17.4-4.9z"/><path class="a" d="m239.9 185.9c18.4-2.4 30.2 5.5 36.1 11.2 5.9 5.6-22.2 0.9-22.2 0.9-1.2-4.4-4-8-13.9-12.1z"/><path class="a" d="m228.7 192.6c15.2-5.3 28.2-0.4 35.3 3.5 7.1 4-18.9 4.8-18.9 4.8-2.6-3.7-6.3-6.4-16.4-8.3z"/><path class="e" d="m24 0.2c-2.7 1.7-4.1 10.6-2 18.2 2.2 8.1-1.7 24.3-9.5 25.9 1.6-16.2 6-25.9 4-40.1 2.9-2.5 7.5-4 7.5-4z"/><path class="f" d="m22 18.4c-2.1-7.6-0.7-16.5 2-18.2 0 0-4.6 1.5-7.5 4 1.3 9.4-0.2 16.9-1.8 25.6 0.9 0.7 2 1 3 1 1.7 0 3.2-0.8 4.5-2.2 0.6-3.8 0.6-7.5-0.2-10.2z"/><path class="e" d="m10-0.1c1.6 2.7 3.4 17.8 0.6 25-2.3 6.1-8.1 14.4-0.1 20.1 6-15 8.3-25.9 5.7-40.4-1.4-3.6-6.2-4.7-6.2-4.7z"/><path class="f" d="m10-0.1c1.6 2.7 3.4 17.8 0.6 25q-0.3 0.7-0.6 1.5c1.4 1.9 2.9 3 4.6 3q0.6 0 1.1-0.1c1.8-8.1 2.1-15.7 0.5-24.7-1.4-3.6-6.2-4.7-6.2-4.7z"/><path class="c" d="m86.2 275.2h23.1c0 0-0.6-1.5-2.1-2.4-1.5-0.9-10-3.5-10-3.5l0.5-2.4c0 0 23.6-4.8 21.9-21.1-1.6-14.2-26.3-7.3-25.4-3.5 0.8 3.8 3 17.3 3 17.3l-7.7 2.6z"/><path class="c" d="m205.9 275.3l20.2-0.1c0 0 0.4-2.3-1.1-3.1-1.4-0.8-10.2-2.1-10.2-2.1 0 0-6.1-8.3-4.9-11.9 1.2-3.6 16.9-22.8 19.1-33.9 2.3-11.6-20.8 0.9-24.9 5.2-4.1 4.2 3.9 16-8.1 25.7l0.5 1.4c0 0 8.7 6.6 9.4 18.8z"/><path class="g" d="m268.7 216.4c12 8.2 20.1 13.7 27.9 23.3 0 0 6.7 1.3 10.2-1.2-12-11.5-22.4-18-38.1-22.1z"/><path class="e" d="m302.3 236c-2.4 1.6-5.2 2.2-5.2 2.2 0 0 1.8-4 2.8-4.9 0.8-0.8 2.4 2.7 2.4 2.7z"/><path class="e" d="m297 231.5c-1.4 1.8-4.3 3.5-4.3 3.5 0 0 1.9-4.7 2.5-5.4 0.5-0.5 1.8 1.9 1.8 1.9z"/><path class="e" d="m291.3 227.2c-1.8 2.5-5.9 5.5-5.9 5.5 0 0 2.2-6.8 3.2-7.8 0.7-0.8 2.7 2.3 2.7 2.3z"/><path class="h" d="m297.5 147.7c0.1-0.6-0.8-0.7-3.6 2.3-16.8 17.4-20.7 31.8-9.7 50.3l3.2-4.1c-12.1-19 0.4-36.9 5.8-42.9 2.1-2.2 4.2-4.7 4.3-5.6z"/><path class="h" d="m283.5 138.8c0.1-0.7-0.8-0.7-3.6 2.5-16.5 19.3-20.2 35.3-8.9 55.7l3.1-4.5c-12.3-21.1-0.1-40.9 5.2-47.5 2.1-2.5 4.1-5.2 4.2-6.2z"/><path class="i" d="m274.7 196.5c-54.7-18.2-67.8 56.5-197.9 36.9-75.7-11.4-23.9-93.8-30.9-113.2-6-16.4-21-11.6-33.7-30-15.7-22.8 13.4-56 4.6-86l-0.9-0.1c3.1 11.9 0 22.4-11.6 54.3-11.7 31.9 2.3 40.6 21.7 57.3 15.2 13-3 26.9-6.6 63.8-3.7 37.9 3.1 58.1 49.1 79.7 46.1 21.6 124-1.7 143.5-19.1 19.5-17.3 31.9-32.2 62.3-26z"/><path class="j" d="m125.9 249.9c50.4 0 66.5-28.7 96.9-44.8-28.7 15.7-64.2 40.6-146 28.3-37.1-5.6-43.6-28.2-41.4-52.1-11.4 42.5 21.2 68.6 90.5 68.6z"/><path class="b" d="m211.7 227.4c-19.1 17.6-92 40.1-137.2 20-45.2-20.1-51.8-35-48.7-72.6 3-36.6 20.4-46.3 5.3-58.8-19.3-16.1-33.6-28.9-22.7-61.2 4.5-12.9 7.6-22.4 9.5-29.8 0.9-7 0.9-14-1.1-20.8l-0.9-0.1c3.1 11.9 0 22.4-11.6 54.3-11.7 31.9 2.3 40.6 21.7 57.3 15.2 13-2.9 26.4-6.5 63.2-3.8 38 2.8 59.5 48.8 81.1 46 21.6 125-1.6 144.5-19 19.5-17.3 31.1-33.1 61.5-26.9l5.6-13c-29.1-4.7-49.4 9-68.2 26.3z"/><path class="k" d="m214.7 236.1c-11.8 10.3-45.4 17.2-80.3 21.2-23.9 2.8-48.2 7.2-67.3-1.6-22.8-10.5-36.1-21.9-42.1-35-5.8-12.9-5.3-27.1-4.2-39.4 3.2-33 12.5-36.4 10.8-57.9 1.5 11.4-10 26.2-12.7 54.8-1.6 16.6-2.4 34.5 7.2 49.2q0-0.1 0-0.1c6.9 12.2 19.2 22.9 41.3 33.1 43.6 20 126.2 1.5 145.7-15.8 19.5-17.4 30.7-35.5 61.1-29.3l0.7-5.4c-29.2-4.9-40.9 9.3-60.2 26.2z"/><path class="e" d="m269.4 210.8c-2.4-0.1-3.5 1.3-4 3.4q3.5 0.1 7.3 0.8c0-2.3-0.8-4-3.3-4.2z"/><path class="e" d="m260 210.3c-2.6 0.1-3.4 1.9-3.6 4.2q3.5-0.5 7.4-0.4c-0.3-2.3-1.3-3.8-3.8-3.8z"/><path class="e" d="m250.6 212.1c-2.6 0.5-3.1 2.4-3 4.8 2.3-0.9 4.6-1.6 7.1-2.1-0.6-1.9-1.8-3.1-4.1-2.7z"/><path class="e" d="m241.3 216c-2.2 1.1-2.3 2.9-1.6 5q3.1-2 6.4-3.5c-1.2-1.7-2.6-2.6-4.8-1.5z"/><path class="e" d="m233.5 221.6c-1.8 1.4-1.8 3-0.9 4.8q2.8-2.4 5.7-4.4c-1.5-1.3-3-1.8-4.8-0.4z"/><path class="e" d="m226.4 227.4c-1.9 1.5-1.7 3.3-0.7 5.2q2.7-2.5 5.3-4.9c-1.4-1.2-2.9-1.6-4.6-0.3z"/><path class="e" d="m219.3 233.3c-2.1 1.6-1.7 3.7-0.3 5.8q2.7-2.6 5.4-5.2c-1.5-1.5-3.2-2.1-5.1-0.6z"/><path class="e" d="m212.2 239.1c-2.2 1.8-1.6 4 0 6.2q0.4-0.3 0.9-0.7 2.4-2.2 4.6-4.3c-1.6-1.9-3.4-2.8-5.5-1.2z"/><path class="e" d="m204.9 244.5c-2.3 1.5-2 3.6-0.7 5.9q3.7-1.9 6.5-3.9c-1.6-2.3-3.4-3.6-5.8-2z"/><path class="e" d="m197.2 248.3c-2.7 1.1-2.6 3.4-1.7 6.1q3.8-1.5 6.9-3.1c-1.1-2.5-2.5-4.1-5.2-3z"/><path class="e" d="m186.8 250.8c-2.9 1.2-2.5 3.8-1.4 6.8q0.1 0.2 0.2 0.4 3.7-1.2 7.1-2.5-0.1-0.4-0.3-0.8c-1.1-3-2.6-5.1-5.6-3.9z"/><path class="e" d="m177.9 252.4c-3.1 0.9-2.9 3.6-2 6.7q0.2 0.9 0.7 1.7 3.5-1 6.8-2 0-1-0.3-2c-0.9-3.1-2.2-5.4-5.2-4.4z"/><path class="e" d="m174.1 259c-0.7-3.1-1.9-5.4-5-4.7-3 0.8-3.1 3.5-2.3 6.6q0.2 1.2 0.8 2.1 3.4-0.8 6.7-1.6 0.1-1.2-0.2-2.4z"/><path class="e" d="m165.1 260.4c-0.7-3.1-1.9-5.4-5-4.7-3.1 0.8-3.1 3.5-2.4 6.6 0.3 1 0.6 1.9 1.1 2.6q3.2-0.6 6.4-1.3c0.2-1 0.1-2.1-0.1-3.2z"/><path class="e" d="m156.1 261.8c-0.8-3.1-1.9-5.4-5-4.6-3.1 0.7-3.1 3.4-2.4 6.5 0.2 1.1 0.6 2 1.1 2.7q3.2-0.5 6.3-1c0.2-1.1 0.2-2.3 0-3.6z"/><path class="e" d="m147.1 263.1c-0.6-3.1-1.6-5.5-4.7-4.9-3.2 0.5-3.3 3.2-2.8 6.4 0.2 1.2 0.6 2.2 1.2 3q3-0.3 6-0.7c0.4-1.1 0.5-2.4 0.3-3.8z"/><path class="e" d="m137.9 264c-0.5-3.1-1.4-5.6-4.6-5.1-3.1 0.5-3.4 3.2-2.9 6.4 0.2 1.2 0.6 2.3 1.2 3.2q2.9-0.2 5.9-0.5c0.4-1.1 0.6-2.5 0.4-4z"/><path class="e" d="m128.8 264.7c-0.5-3.2-1.6-5.5-4.6-4.8-3.1 0.8-3.3 3.5-2.7 6.7q0.2 1.3 0.8 2.4 3.1-0.1 6.2-0.3c0.5-1.2 0.6-2.6 0.3-4z"/><path class="e" d="m119.6 266.4c-0.5-3.2-1.5-5.6-4.6-5.1-3.2 0.5-3.4 3.2-2.9 6.4q0.1 0.7 0.3 1.4 3.5 0 7.1 0c0.2-0.9 0.2-1.8 0.1-2.7z"/><path class="e" d="m109.8 267.1c-0.4-3.2-1.3-5.6-4.5-5.2-3.1 0.5-3.4 3.2-3 6.3q0 0.2 0.1 0.4 3.7 0.3 7.4 0.4 0.1-0.9 0-1.9z"/><path class="e" d="m96.1 261.9c-3.1 0.1-3.7 2.5-3.7 5.5q3.7 0.6 7.5 1 0-0.5 0-0.9c0-3.2-0.7-5.7-3.8-5.6z"/><path class="e" d="m87.4 261.6c-2.7-0.3-3.8 1.5-4.2 4.1q3.6 0.8 7.4 1.4c0.2-2.9-0.2-5.3-3.2-5.5z"/><path class="e" d="m79.1 260.3c-2.4-0.6-3.7 0.8-4.5 2.9q3.4 1.2 7.1 2.1c0.4-2.5 0-4.4-2.6-5z"/><path class="e" d="m71.6 258.3c-2.2-1-3.7 0-4.9 1.7q0.4 0.2 0.7 0.4 2.9 1.3 6.1 2.4c0.5-1.9 0.2-3.6-1.9-4.5z"/><path class="e" d="m62.6 254.8c-1.9-0.8-3.2-0.3-4.3 1q3 1.6 6.2 3.2c0.4-1.8 0.1-3.3-1.9-4.2z"/><path class="e" d="m54.7 250.9c-1.6-0.9-3-0.6-4.2 0.4q2.8 1.8 5.9 3.5c0.4-1.5 0.1-2.9-1.7-3.9z"/><path class="e" d="m47.7 246.5c-1.6-1.2-3-1.1-4.4-0.2q2.6 2 5.5 3.9c0.5-1.3 0.3-2.5-1.1-3.7z"/><path class="e" d="m40.8 241.4c-1.4-1.3-2.7-1.3-4.1-0.6q2.3 2.2 5 4.3c0.5-1.2 0.4-2.5-0.9-3.7z"/><path class="e" d="m34.4 235.3c-1.1-1.2-2.4-1.4-3.6-1q1.9 2.4 4.3 4.8c0.6-1.2 0.5-2.5-0.7-3.8z"/><path class="e" d="m28.7 228.8c-0.8-1.2-1.7-1.6-2.7-1.7q0 0.1 0.1 0.3 0-0.1 0-0.1 1.4 2.4 3 4.7c0.4-0.9 0.4-2-0.4-3.2z"/><path class="e" d="m24.4 221.4c-0.6-1.2-1.4-1.8-2.4-2q1.1 2.7 2.5 5.2c0.5-0.9 0.5-1.9-0.1-3.2z"/><path class="e" d="m21.6 213.3c-0.5-1.3-1.2-2-2.1-2.3q0.6 2.9 1.5 5.7c0.8-0.8 1.1-1.9 0.6-3.4z"/><path class="e" d="m19.9 205.6c-0.2-1.3-0.8-2.1-1.6-2.5q0.2 2.8 0.7 5.5c0.7-0.7 1.1-1.6 0.9-3z"/><path class="e" d="m19.2 196.9c-0.1-1.2-0.6-2.1-1.3-2.6q0 2.8 0.1 5.5c0.8-0.6 1.3-1.5 1.2-2.9z"/><path class="e" d="m19.4 188.4c0.1-1.4-0.3-2.4-1.1-3q-0.2 2.8-0.3 5.7c0.8-0.5 1.3-1.4 1.4-2.7z"/><path class="e" d="m20.1 179.5c0.1-1.3-0.3-2.3-1-2.9q-0.1 0.8-0.2 1.6-0.2 2-0.4 4.1c0.9-0.5 1.5-1.3 1.6-2.8z"/><path class="e" d="m21 170.5c0.1-1.1-0.2-1.9-0.7-2.6q-0.5 2.6-0.8 5.4c0.9-0.5 1.4-1.4 1.5-2.8z"/><path class="e" d="m23.1 161.4c0-1.1-0.3-1.9-0.8-2.5q-0.7 2.7-1.3 5.6c1.2-0.5 2-1.4 2.1-3.1z"/><path class="e" d="m25.6 152.7c0.1-1.2-0.1-2.1-0.7-2.8q-0.8 2.7-1.7 5.6c1.3-0.3 2.1-1.1 2.4-2.8z"/><path class="e" d="m28.1 144c0.2-1 0-1.8-0.3-2.4q-0.9 2.5-1.8 5.2c1.1-0.4 1.9-1.2 2.1-2.8z"/><path class="e" d="m30.7 135.6c0.1-0.9 0-1.6-0.3-2.2q-0.6 2.3-1.5 4.9c1-0.5 1.6-1.3 1.8-2.7z"/><path class="i" d="m284.4 224.9c11.7 5.5 18.8 13.7 20.1 16.5 4-0.3 11.9-4.3 12-7.2 0 0-21.8-11.3-23.8-20.3l1.8 0.2c0 0-0.3-5 1.4-6.1 0 0-9-12.2-10.1-20.8-1-8.7-1.2 5.3-1.2 5.3l-7.1-0.9c0 0-4.1-5.7-5.3-6.9-1.2-1.3 1.2 6.7 1.2 6.7 0 0-7.7 3.7-10.3 5.1-2.7 1.4 2.9 4.1 2.9 4.1 0 0-8.3 2-9.5 3.2 1.9 1.1 6.5 2.5 6.5 2.5 0 0-2.9 3.1-2.9 4.2 1.6 0.5 6.2-0.3 6.2-0.3l-14.8 12.7c0 0 18.9-1.1 24.4-2.5 0 0-2.6 0.9-4.6 3.4 0 0 11.5 0.7 13.1 1.1z"/><path class="b" d="m292.7 213.9l1.9 0.3c0 0-0.3-4.1 1.3-6.2-3.3 1.4-10.3-3.5-13.3-6.8-3.6-4-7-7.1-10-16.1q-0.2-0.2-0.4-0.4c-1.2-1.3 1.2 6.7 1.2 6.7 0 0-13.3 2.3-16 3.7 1.3 1.1 8.6 5.5 8.6 5.5 0 0 2-0.5 1.7 1.1-0.4 1.6-4.7 4.6-4.7 4.6 0 0 2.2-0.6 3.2 0.1 1.1 0.7 0.1 3.8 0.1 3.8 0 0 8.8 0.1 9.6 10.2 0 0 7-0.8 8.5 4.5 11.7 5.5 18.8 13.7 20.1 16.5 4-0.3 11.9-4.3 12-7.2 0 0-47.1-15.7-23.8-20.3z"/><path class="l" d="m275.1 204.8l3.9 5.6 11.5 2.5z"/><path class="h" d="m301.1 224.3c0 0 9.7 11.5 11 12.2 1.2 0.6 6.1-1.7 6.3-2.8 0.3-2.1-17.3-9.4-17.3-9.4z"/><path class="m" d="m309.6 229.7c-3.1-2.5-6.2-4.4-8.4-5.3 0.7 0.8 9.1 11.9 10.3 12.5 0.7 0.4 2.8-0.6 4.3-1.2-1.5-1.8-3.6-3.9-6.2-6z"/><path class="d" d="m173.5 253.9l5.8 2.3c0 0 1.9-2.5 1.5-3.1-0.4-0.6-5.6-0.4-7.3 0.8z"/><path class="i" d="m183.6 275.2h18.6c0 0-0.5-1.7-1.7-2.5-1.2-0.8-7.8-1.5-7.8-1.5 0 0-4.1-9.9-2.4-13.6 1.7-3.8 23-14.9 22.2-26.7-0.8-11.9-17.9-7.3-22.4-3-4.5 4.4 0.7 16.5-12 26.5l0.2 1.4c0 0 6.8 6.9 5.3 19.4z"/><path class="b" d="m199.1 274.6c-5.5 0-11.3 0.4-11.3-1 0-0.8 2.3-1.7 4.9-2.4-0.7-1.7-4-10.3-2.4-13.6 1.7-3.7 22.3-13.9 22.2-25.7-1.2 3.6-3.7 7.7-7.7 11.5-9.4 9.3-20.2 14.7-25.5 11.6q-0.5-0.3-1-0.8-0.1 0.1-0.2 0.2l0.2 1.4c0 0 6.8 6.9 5.3 19.4h18.6c0 0-0.2-0.3-0.5-0.7q-1.2 0.1-2.6 0.1z"/><path class="i" d="m41.4 275.2h23.1c0 0-0.2-1.6-1.5-2.5-1.2-0.8-9-3.5-9-3.5l1.2-2.5c0 0 24.9-4.9 27.5-21.6 2.3-14.5-24.3-7.4-24.4-3.5-0.2 3.9-1.7 17.6-1.7 17.6l-8.3 2.6z"/><path class="b" d="m60.4 260.1c-1.8-1.3-2.7-6.3-2.7-12-0.5 5.2-1.1 11.1-1.1 11.1l-8.3 2.6-6.9 13.4h2.5q-0.2-0.4-0.2-0.8c0-3 4.6-5.3 10.5-5.6l1-2.1c0 0 20.1-2.9 27.6-17.9-4.8 6.4-18.4 14.2-22.4 11.3z"/><path class="n" d="m280.8 210.1c-1.2-0.7-1.1-2.8-1.1-2.8l4.6 2.4c0 0-1.8 1.3-3.5 0.4z"/><path class="i" d="m294.6 214.2l-4.1-1.3-18.6-9.7 1.5-8.2 21.2 18.7z"/><path class="i" d="m292 214.2l-14.6-3 2.1 4.9 13.1-0.8z"/><path class="b" d="m294.8 218.8c-0.3-0.1-10-0.3-10-0.3l5.7 4.6 4.7-3.5z"/><path class="b" d="m299.1 223.5c-0.3 0-8.5 2.6-8.5 2.6l6.1 2.5 3-4.5z"/><path class="o" d="m311.2 236.6c1.8-0.1 3.3-0.7 2.2-2.1-1.1-1.3-8-4.8-8-4.8z"/><path class="j" d="m204.9 238.7c3.6-6 2.2-14.1-1.3-16.2-3.6-2.1-10.1 2.7-13.7 8.8-3.6 6.1-3.6 12.6-6.3 17.2-2.1 3.6 17.7-3.7 21.3-9.8z"/><path class="b" d="m225.4 275.2h-5c0 0 0.6-1.9 1-2.3 0.5-0.4 3.1 0.6 4 2.3z"/><path class="b" d="m221 275.2h-3.9c0 0 0.4-1.9 0.8-2.3 0.3-0.4 2.4 0.6 3.1 2.3z"/><path class="b" d="m228.1 275.2h-4.5c0 0 0.5-1.9 0.9-2.3 0.4-0.4 2.8 0.6 3.6 2.3z"/><path class="e" d="m200.4 275.2h-4.9c0 0 0.5-1.9 0.9-2.3 0.5-0.4 3.1 0.6 4 2.3z"/><path class="e" d="m196.1 275.2h-4c0 0 0.4-1.9 0.8-2.3 0.4-0.4 2.4 0.6 3.2 2.3z"/><path class="e" d="m203.2 275.2h-4.6c0 0 0.5-1.9 0.9-2.3 0.5-0.4 2.8 0.6 3.7 2.3z"/><path class="e" d="m63.6 275.2h-6.2c0 0 0.7-1.9 1.3-2.3 0.5-0.4 3.7 0.6 4.9 2.3z"/><path class="e" d="m58.2 275.2h-4.9c0 0 0.5-1.9 1-2.3 0.4-0.4 3 0.6 3.9 2.3z"/><path class="e" d="m67 275.2h-5.6c0 0 0.6-1.9 1.1-2.3 0.5-0.4 3.4 0.6 4.5 2.3z"/><path class="b" d="m107.1 275.2h-6.2c0 0 0.7-1.9 1.3-2.3 0.5-0.4 3.7 0.6 4.9 2.3z"/><path class="b" d="m101.7 275.2h-4.9c0 0 0.5-1.9 1-2.3 0.4-0.4 3 0.6 3.9 2.3z"/><path class="b" d="m110.5 275.2h-5.6c0 0 0.6-1.9 1.1-2.3 0.5-0.4 3.4 0.6 4.5 2.3z"/><path class="j" d="m82.1 239.9c-2.4-4.1-15.9-9-21.5-4.9-3.4 2.5-3.2 14.8-0.8 18.9 2.4 4.1 10 2.9 15.9-0.6 6-3.4 8.8-9.4 6.4-13.4z"/><path class="b" d="m81 240.2c4 5.4 0.1 10.7-3.9 15.4 0 0 5.5-2 6.4-7.8 0.9-5.8-2.5-7.6-2.5-7.6z"/><path class="b" d="m213.4 231.8c2.3-8 7.5-18.9 7.5-18.9l-1.5 11.6z"/><path class="b" d="m219.7 226.8c2.3-8.1 7.4-19 7.4-19l-1.5 11.6z"/><path class="b" d="m225.5 222.2c3.4-7.7 10.1-17.7 10.1-17.7l-3.2 11.2z"/></svg>