<svg version="1.2" xmlns="http://www.w3.org/2000/svg" viewBox="0 0 759 873" width="759" height="873"><defs><clipPath clipPathUnits="userSpaceOnUse" id="cp1"><path d="m877 953h-1000v-1000h1000z"/></clipPath></defs><style>tspan{white-space:pre}.a{fill:#535453}.b{opacity:.6;fill:#e6e6e6}.c{fill:#e6e6e6}.d{opacity:.6;fill:#fff}.e{fill:#636463}.f{fill:#6c6e6c}.g{fill:#494a49}.h{fill:#ff8c25}.i{fill:#d6f9ff}.j{fill:#b6d4d9}.k{fill:#ba964d}.l{fill:#ffcd69}.m{fill:#cca454}.n{fill:#787878}.o{fill:#c3feff}.p{fill:#636363}.q{fill:#8fb300}.r{fill:#ff6c23}.s{fill:#fff}</style><g clip-path="url(#cp1)"><path class="a" d="m257.2 120.3h-12v-11.5c0-3.3 2.7-5.9 6-5.9 3.3 0 6 2.6 6 5.9z"/><path class="b" d="m314.6 110c0 9.4-28.4 17-63.4 17-35 0-63.4-7.6-63.4-17 0-9.4 28.4-17 63.4-17 35 0 63.4 7.6 63.4 17z"/><g style="opacity:.6"><path class="c" d="m179.4 110q0 0 0-0.5 0-0.2 0.1-0.5 0-0.3 0.1-0.7c0.4-1.1 1.2-2.7 2.8-4.1 1.6-1.4 3.8-2.8 6.5-4.1 2.7-1.3 5.8-2.6 9.3-3.6 3.5-1.1 7.4-2 11.5-2.9 4.1-0.8 8.4-1.5 13-2 4.5-0.6 9.2-1 14-1.3 4.8-0.3 9.6-0.4 14.5-0.4 4.8 0 9.7 0.1 14.5 0.4 4.8 0.3 9.5 0.7 14 1.3 9.1 1.1 17.4 2.8 24.4 4.9 3.5 1 6.7 2.3 9.4 3.6 2.6 1.3 4.9 2.7 6.4 4.1 1.6 1.4 2.5 3 2.8 4.1q0.1 0.4 0.2 0.7 0 0.3 0.1 0.5 0 0.5 0 0.5 0 0-0.1-0.5 0-0.2 0-0.5-0.1-0.3-0.3-0.7c-0.3-1.1-1.3-2.5-2.9-3.8-1.6-1.4-3.8-2.7-6.5-3.8-2.7-1.2-5.9-2.3-9.3-3.2-7-2-15.4-3.4-24.4-4.4-4.5-0.5-9.1-0.8-13.9-1.1q-7.1-0.3-14.4-0.3c-4.8 0-9.7 0.1-14.4 0.3-4.8 0.3-9.4 0.6-14 1.1-4.5 0.5-8.8 1.1-12.9 1.8-4.1 0.8-7.9 1.6-11.4 2.6-3.5 0.9-6.6 2-9.3 3.2-2.7 1.1-4.9 2.4-6.5 3.8-1.7 1.3-2.6 2.7-3 3.8q-0.1 0.4-0.2 0.7 0 0.3-0.1 0.5 0 0.5 0 0.5z"/></g><path class="d" d="m295.7 99.2c-6.3-1.6-13.6-2.9-21.6-3.8l-22.9 12.6 61.1 4.6q1-1.3 1-2.6c0-3.8-6.6-7.8-17.6-10.8z"/><path class="d" d="m265.2 94.1q-5.4-0.3-11-0.4l-3 14.3z"/><path class="d" d="m198.1 118.6c6.6 2.7 16.3 4.9 27.7 6.3l23.6-16.9z"/><path class="e" d="m344.2 96.5l-81.7 23.6v-6.1l-0.3-0.2c-6.8-4.5-15.6-4.4-22.3 0.2v27.9l9.4 1.9c4.6 0.9 9.4-0.4 12.9-3.5l82-23.9z"/><path class="a" d="m344.2 111.8l-81.7 22.9v-14.6-6.1l-0.3-0.2c-6.8-4.5-15.6-4.4-22.3 0.2v27.9l9.4 1.9c4.6 0.9 9.4-0.4 12.9-3.5l82-23.9z"/><path class="f" d="m262.2 117.4l0.3 0.2v-3.6l-0.3-0.2c-6.8-4.5-15.6-4.4-22.3 0.2v3.6c6.7-4.6 15.5-4.7 22.3-0.2z"/><path class="a" d="m252.6 34h-14.2v-13.5c0-3.9 3.2-7 7.1-7 3.9 0 7.1 3.1 7.1 7z"/><path class="b" d="m329.3 26.6c0 12.4-37.5 22.4-83.8 22.4-46.3 0-83.8-10-83.8-22.4 0-12.4 37.5-22.4 83.8-22.4 46.3 0 83.8 10 83.8 22.4z"/><g style="opacity:.6"><path class="c" d="m150.6 26.6q0 0 0.1-0.6 0-0.3 0-0.7 0.1-0.4 0.3-1c0.4-1.4 1.5-3.5 3.6-5.4 2.1-1.9 5.1-3.7 8.6-5.4 3.5-1.8 7.7-3.4 12.3-4.8 4.6-1.4 9.7-2.6 15.2-3.7 5.4-1.1 11.1-2.1 17.1-2.8 6-0.7 12.2-1.3 18.5-1.6 6.4-0.4 12.8-0.6 19.2-0.6 6.4 0 12.9 0.2 19.2 0.6 6.3 0.3 12.5 0.9 18.5 1.6 12 1.5 23.1 3.8 32.3 6.5 4.6 1.4 8.8 3 12.3 4.8 3.6 1.7 6.5 3.5 8.6 5.4 2.1 1.9 3.3 4 3.7 5.4q0.1 0.6 0.2 1 0.1 0.4 0.1 0.7 0 0.6 0 0.6 0 0-0.1-0.6 0-0.3-0.1-0.7-0.1-0.4-0.2-1c-0.5-1.4-1.8-3.2-3.9-5-2.1-1.8-5.1-3.5-8.7-5-3.5-1.6-7.7-3-12.3-4.3-9.2-2.5-20.2-4.4-32.1-5.7-6-0.7-12.2-1.1-18.4-1.4q-9.5-0.5-19.1-0.5c-6.4 0-12.8 0.1-19 0.5-6.3 0.3-12.5 0.7-18.4 1.4-6 0.7-11.7 1.4-17.1 2.4-5.4 0.9-10.5 2.1-15.1 3.3-4.6 1.3-8.8 2.7-12.3 4.3-3.6 1.5-6.5 3.2-8.7 5-2.1 1.8-3.3 3.6-3.8 5q-0.2 0.6-0.3 1-0.1 0.4-0.1 0.7-0.1 0.6-0.1 0.6z"/></g><path class="d" d="m304.3 12.4c-8.2-2.3-17.9-3.9-28.5-5l-30.3 16.5 80.8 6.1q1.3-1.7 1.3-3.4c0-5-8.7-10.3-23.3-14.2z"/><path class="d" d="m264 5.6q-7.1-0.5-14.5-0.6l-4 18.9z"/><path class="d" d="m175.3 37.9c8.8 3.6 21.6 6.6 36.6 8.3l31.3-22.3z"/><path class="e" d="m342.6 71.3l-77.5-29.8-6.6 4.5v-16.1c-8.2-4.4-17.9-4.4-26.1-0.2l-0.2 0.2v27c1.3 0 105.9 35.6 105.9 35.6l4.5-2.7z"/><path class="a" d="m258.5 46v-16.1c-8.2-4.4-17.9-4.4-26.1-0.2l-0.2 0.2v27c1.3 0 105.9 35.6 105.9 35.6l4.5-2.7-100.6-36.1c0 0 12.8 4 16.5-7.7z"/><path class="f" d="m258.5 34v-4.1c-8.2-4.4-17.9-4.4-26.1-0.2l-0.2 0.2v4c8.3-4.1 18-4 26.3 0.1z"/><path class="a" d="m496.8 120.3h12v-11.5c0-3.3-2.7-5.9-6-5.9-3.3 0-6 2.6-6 5.9z"/><path class="b" d="m439.4 110c0 9.4 28.4 17 63.4 17 35 0 63.4-7.6 63.4-17 0-9.4-28.4-17-63.4-17-35 0-63.4 7.6-63.4 17z"/><g style="opacity:.6"><path class="c" d="m574.6 110q0 0 0-0.5 0-0.2-0.1-0.5 0-0.3-0.1-0.7c-0.4-1.1-1.2-2.7-2.8-4.1-1.6-1.4-3.8-2.8-6.5-4.1-2.7-1.3-5.8-2.6-9.3-3.6-3.5-1.1-7.4-2-11.5-2.9-4.1-0.8-8.4-1.5-13-2-4.5-0.6-9.2-1-14-1.3-4.8-0.3-9.6-0.4-14.5-0.4-4.8 0-9.7 0.1-14.5 0.4-4.8 0.3-9.5 0.7-14 1.3-9.1 1.1-17.4 2.8-24.4 4.9-3.5 1-6.7 2.3-9.4 3.6-2.6 1.3-4.9 2.7-6.4 4.1-1.6 1.4-2.5 3-2.8 4.1q-0.1 0.4-0.2 0.7 0 0.3-0.1 0.5 0 0.5 0 0.5 0 0 0.1-0.5 0-0.2 0-0.5 0.1-0.3 0.3-0.7c0.3-1.1 1.3-2.5 2.9-3.8 1.6-1.4 3.8-2.7 6.5-3.8 2.7-1.2 5.9-2.3 9.3-3.2 7-2 15.4-3.4 24.4-4.4 4.5-0.5 9.1-0.8 13.9-1.1q7.1-0.3 14.4-0.3c4.8 0 9.7 0.1 14.4 0.3 4.8 0.3 9.4 0.6 14 1.1 4.5 0.5 8.8 1.1 12.9 1.8 4.1 0.8 7.9 1.6 11.4 2.6 3.5 0.9 6.6 2 9.3 3.2 2.7 1.1 4.9 2.4 6.5 3.8 1.7 1.3 2.6 2.7 3 3.8q0.1 0.4 0.2 0.7 0 0.3 0.1 0.5 0 0.5 0 0.5z"/></g><path class="d" d="m458.3 99.2c6.3-1.6 13.6-2.9 21.6-3.8l22.9 12.6-61.1 4.6q-1-1.3-1-2.6c0-3.8 6.6-7.8 17.6-10.8z"/><path class="d" d="m488.8 94.1q5.4-0.3 11-0.4l3 14.3z"/><path class="d" d="m555.9 118.6c-6.6 2.7-16.3 4.9-27.7 6.3l-23.6-16.9z"/><path class="e" d="m409.8 96.5l81.7 23.6v-6.1l0.3-0.2c6.8-4.5 15.6-4.4 22.3 0.2v27.9l-9.4 1.9c-4.6 0.9-9.4-0.4-12.9-3.5l-82-23.9z"/><path class="a" d="m409.8 111.8l81.7 22.9v-14.6-6.1l0.3-0.2c6.8-4.5 15.6-4.4 22.3 0.2v27.9l-9.4 1.9c-4.6 0.9-9.4-0.4-12.9-3.5l-82-23.9z"/><path class="f" d="m491.8 117.4l-0.3 0.2v-3.6l0.3-0.2c6.8-4.5 15.6-4.4 22.3 0.2v3.6c-6.7-4.6-15.5-4.7-22.3-0.2z"/><path class="a" d="m501.4 34h14.2v-13.5c0-3.9-3.2-7-7.1-7-3.9 0-7.1 3.1-7.1 7z"/><path class="b" d="m424.7 26.6c0 12.4 37.5 22.4 83.8 22.4 46.3 0 83.8-10 83.8-22.4 0-12.4-37.5-22.4-83.8-22.4-46.3 0-83.8 10-83.8 22.4z"/><g style="opacity:.6"><path class="c" d="m603.4 26.6q0 0-0.1-0.6 0-0.3 0-0.7-0.1-0.4-0.3-1c-0.4-1.4-1.5-3.5-3.6-5.4-2.1-1.9-5.1-3.7-8.6-5.4-3.5-1.8-7.7-3.4-12.3-4.8-4.6-1.4-9.7-2.6-15.2-3.7-5.4-1.1-11.1-2.1-17.1-2.8-6-0.7-12.2-1.3-18.5-1.6-6.4-0.4-12.8-0.6-19.2-0.6-6.4 0-12.9 0.2-19.2 0.6-6.3 0.3-12.5 0.9-18.5 1.6-12 1.5-23.1 3.8-32.3 6.5-4.6 1.4-8.8 3-12.3 4.8-3.6 1.7-6.5 3.5-8.6 5.4-2.1 1.9-3.3 4-3.7 5.4q-0.1 0.6-0.2 1 0 0.4-0.1 0.7 0 0.6 0 0.6 0 0 0.1-0.6 0-0.3 0.1-0.7 0.1-0.4 0.2-1c0.5-1.4 1.8-3.2 3.9-5 2.1-1.8 5.1-3.5 8.7-5 3.5-1.6 7.7-3 12.3-4.3 9.2-2.5 20.2-4.4 32.1-5.7 6-0.7 12.2-1.1 18.4-1.4q9.5-0.5 19.1-0.5c6.4 0 12.8 0.1 19 0.5 6.3 0.3 12.5 0.7 18.4 1.4 6 0.7 11.7 1.4 17.1 2.4 5.4 0.9 10.5 2.1 15.1 3.3 4.6 1.3 8.8 2.7 12.3 4.3 3.6 1.5 6.5 3.2 8.7 5 2.1 1.8 3.3 3.6 3.8 5q0.2 0.6 0.3 1 0.1 0.4 0.1 0.7 0.1 0.6 0.1 0.6z"/></g><path class="d" d="m449.7 12.4c8.2-2.3 17.9-3.9 28.5-5l30.3 16.5-80.8 6.1q-1.3-1.7-1.3-3.4c0-5 8.7-10.3 23.3-14.2z"/><path class="d" d="m490 5.6q7.1-0.5 14.5-0.6l4 18.9z"/><path class="d" d="m578.7 37.9c-8.8 3.6-21.6 6.6-36.6 8.3l-31.3-22.3z"/><path class="e" d="m411.4 71.3l77.5-29.8 6.6 4.5v-16.1c8.2-4.4 17.9-4.4 26.1-0.2l0.2 0.2v27c-1.3 0-105.9 35.6-105.9 35.6l-4.5-2.7z"/><path class="a" d="m495.5 46v-16.1c8.2-4.4 17.9-4.4 26.1-0.2l0.2 0.2v27c-1.3 0-105.9 35.6-105.9 35.6l-4.5-2.7 100.6-36.1c0 0-12.8 4-16.5-7.7z"/><path class="f" d="m495.5 34v-4.1c8.2-4.4 17.9-4.4 26.1-0.2l0.2 0.2v4c-8.3-4.1-18-4-26.3 0.1z"/><path class="a" d="m416.6 57.5h-0.2l-14-11c-1.5-1.2-3.3-1.8-5.2-1.8h-13.5-13.4-13.5c-1.9 0-3.7 0.6-5.2 1.8l-14 11h-0.2c-5.6 1.6-9 7.1-8 12.7l9.8 52.9 12.3 2 1.2 5h17.6 13.4 17.6l1.2-5 12.3-2 9.8-52.9c1-5.6-2.4-11.1-8-12.7z"/><path class="g" d="m330.9 77.9c1.4-2.3 3.6-4.1 6.5-4.9l0.2-0.1 14-10.9c1.5-1.2 3.3-1.8 5.2-1.8h13.5 13.4 13.5c1.9 0 3.7 0.6 5.2 1.8l14 10.9 0.2 0.1c2.9 0.8 5.1 2.6 6.5 4.9l1.5-7.7c1-5.6-2.4-11.1-8-12.7h-0.2l-14-11c-1.5-1.2-3.3-1.8-5.2-1.8h-13.5-13.4-13.5c-1.9 0-3.7 0.6-5.2 1.8l-14 11h-0.2c-5.6 1.6-9 7.1-8 12.7z"/><path class="h" d="m393.5 55.9h-35c-1.5 0-2.6-1.2-2.6-2.6 0-1.5 1.1-2.6 2.6-2.6h35c1.4 0 2.6 1.1 2.6 2.6 0 1.4-1.2 2.6-2.6 2.6z"/><path class="i" d="m377 102.9c-15.8 0-28.6-12.9-28.6-28.7v-3.2c18.6-6 38.6-6 57.2 0v3.2c0 15.8-12.8 28.7-28.6 28.7z"/><path class="j" d="m405.6 71c-10.9-3.5-22.3-5-33.6-4.4 8 0.4 16 1.9 23.7 4.4v3.2c0 14.1-10.2 25.9-23.7 28.2q2.5 0.4 5 0.5c15.8 0 28.6-12.9 28.6-28.7v-3.2z"/><path class="k" d="m503.2 277.8l-120.8-162.5c-2.7-3.6-8.1-3.6-10.8 0l-120.8 162.5 7 5.2 115.8-155.9c1.7-2.3 5.1-2.3 6.7 0l115.9 155.9z"/><path class="a" d="m398 112.6c0 4.1-9.4 7.4-21 7.4-11.6 0-21-3.3-21-7.4 0-4.1 9.4-7.4 21-7.4 11.6 0 21 3.3 21 7.4z"/><path class="l" d="m523.8 460.1h-293.6v-188.5h293.6z"/><path class="k" d="m384.7 318.9h-15.4v-47.3h15.4z"/><path class="m" d="m523.8 460.1h-293.6l55.1 35.9h183.4z"/><path class="k" d="m475.8 413.3l-17.4-17.4-17.4 17.4h7.5v37.7h19.8v-37.7z"/><path class="k" d="m516.7 413.3l-17.4-17.4-17.4 17.4h7.5v37.7h19.7v-37.7z"/><path class="a" d="m657.9 394.6h-3.5v-3.3c0-1 0.8-1.8 1.7-1.8 1 0 1.8 0.8 1.8 1.8z"/><path class="b" d="m674.7 391.6c0 2.7-8.3 5-18.6 5-10.2 0-18.5-2.3-18.5-5 0-2.7 8.3-5 18.5-5 10.3 0 18.6 2.3 18.6 5z"/><g style="opacity:.6"><path class="c" d="m635.1 391.6q0 0 0-0.1 0-0.1 0-0.2 0.1-0.1 0.1-0.2c0.1-0.3 0.3-0.8 0.8-1.2q0.7-0.6 1.9-1.2 1.2-0.6 2.7-1 1.6-0.5 3.4-0.9 1.8-0.3 3.8-0.6 2-0.2 4.1-0.4 2.1-0.1 4.2-0.1 2.2 0 4.3 0.1 2.1 0.2 4.1 0.4c2.6 0.3 5.1 0.8 7.1 1.5q1.6 0.4 2.7 1 1.2 0.6 1.9 1.2c0.5 0.4 0.8 0.9 0.8 1.2q0.1 0.1 0.1 0.2 0 0.1 0 0.2 0 0.1 0 0.1 0 0 0-0.1 0-0.1 0-0.2 0-0.1-0.1-0.2c-0.1-0.3-0.4-0.7-0.8-1.1q-0.8-0.6-1.9-1.1-1.2-0.5-2.8-1c-2-0.5-4.5-0.9-7.1-1.2q-2-0.2-4.1-0.3-2-0.2-4.2-0.2-2.1 0-4.2 0.2-2.1 0.1-4.1 0.3-1.9 0.2-3.7 0.5-1.8 0.3-3.4 0.7-1.5 0.5-2.7 1-1.2 0.5-1.9 1.1c-0.5 0.4-0.8 0.8-0.9 1.1q0 0.1 0 0.2 0 0.1-0.1 0.2 0 0.1 0 0.1z"/></g><path class="d" d="m669.1 388.5c-1.8-0.5-3.9-0.9-6.3-1.2l-6.7 3.7 17.9 1.4q0.3-0.4 0.3-0.8c0-1.1-1.9-2.3-5.2-3.1z"/><path class="d" d="m660.2 386.9q-1.5 0-3.2-0.1l-0.9 4.2z"/><path class="d" d="m640.6 394.1c1.9 0.8 4.8 1.5 8.1 1.9l6.9-5z"/><path class="e" d="m683.3 387.6l-23.9 7v-1.8l-0.1-0.1c-1.9-1.3-4.5-1.3-6.5 0.1v8.1l2.8 0.6c1.3 0.3 2.7-0.1 3.7-1l24-7z"/><path class="a" d="m683.3 392.1l-23.9 6.7v-4.2-1.8l-0.1-0.1c-1.9-1.3-4.5-1.3-6.5 0.1v8.1l2.8 0.6c1.3 0.3 2.7-0.1 3.7-1l24-7z"/><path class="f" d="m659.3 393.8h0.1v-1l-0.1-0.1c-1.9-1.3-4.5-1.3-6.5 0.1v1c2-1.3 4.6-1.3 6.5 0z"/><path class="a" d="m656.5 369.4h-4.1v-4c0-1.1 0.9-2 2.1-2 1.1 0 2 0.9 2 2z"/><path class="b" d="m679 367.2c0 3.6-11 6.6-24.5 6.6-13.6 0-24.5-3-24.5-6.6 0-3.6 10.9-6.5 24.5-6.5 13.5 0 24.5 2.9 24.5 6.5z"/><g style="opacity:.6"><path class="c" d="m626.7 367.2q0 0 0-0.2 0 0 0-0.2 0.1-0.1 0.1-0.3c0.1-0.4 0.5-1 1.1-1.5 0.6-0.6 1.5-1.1 2.5-1.6q1.6-0.8 3.6-1.4 2-0.6 4.4-1.1 2.4-0.5 5-0.8 2.7-0.3 5.5-0.5 2.7-0.2 5.6-0.2 2.8 0 5.6 0.2 2.8 0.2 5.4 0.5c3.5 0.4 6.7 1.1 9.4 1.9q2.1 0.6 3.6 1.4c1.1 0.5 1.9 1 2.5 1.6 0.7 0.5 1 1.1 1.1 1.5q0.1 0.2 0.1 0.3 0 0.2 0 0.2 0 0.2 0 0.2 0 0 0-0.2 0 0 0-0.2-0.1-0.1-0.1-0.2c-0.2-0.5-0.5-1-1.2-1.5-0.6-0.5-1.4-1-2.5-1.5q-1.5-0.7-3.6-1.2c-2.7-0.8-5.9-1.3-9.4-1.7q-2.6-0.3-5.4-0.4-2.7-0.2-5.5-0.2-2.8 0-5.6 0.2-2.8 0.1-5.4 0.4-2.6 0.3-5 0.7-2.4 0.4-4.4 1-2 0.5-3.6 1.2c-1 0.5-1.9 1-2.5 1.5-0.6 0.5-1 1-1.2 1.5q0 0.1 0 0.2-0.1 0.2-0.1 0.2 0 0.2 0 0.2z"/></g><path class="d" d="m671.7 363.1c-2.4-0.7-5.3-1.2-8.4-1.5l-8.8 4.8 23.6 1.8q0.4-0.5 0.4-1c0-1.5-2.6-3-6.8-4.1z"/><path class="d" d="m659.9 361.1q-2.1-0.2-4.3-0.2l-1.1 5.5z"/><path class="d" d="m633.9 370.5c2.6 1.1 6.4 1.9 10.7 2.5l9.2-6.6z"/><path class="e" d="m682.9 380.3l-22.7-8.7-1.9 1.3v-4.7c-2.4-1.3-5.3-1.3-7.7-0.1v0.1 7.9c0.4 0 30.9 10.4 30.9 10.4l1.4-0.8z"/><path class="a" d="m658.3 372.9v-4.7c-2.4-1.3-5.3-1.3-7.7-0.1v0.1 7.9c0.4 0 30.9 10.4 30.9 10.4l1.4-0.8-29.5-10.5c0 0 3.8 1.1 4.9-2.3z"/><path class="f" d="m658.3 369.4v-1.2c-2.4-1.3-5.3-1.3-7.7-0.1v0.1 1.2c2.4-1.2 5.2-1.2 7.7 0z"/><path class="a" d="m728 394.6h3.5v-3.3c0-1-0.8-1.8-1.8-1.8-1 0-1.7 0.8-1.7 1.8z"/><path class="b" d="m711.2 391.6c0 2.7 8.3 5 18.5 5 10.2 0 18.5-2.3 18.5-5 0-2.7-8.3-5-18.5-5-10.2 0-18.5 2.3-18.5 5z"/><g style="opacity:.6"><path class="c" d="m750.7 391.6q0 0 0-0.1 0-0.1 0-0.2 0-0.1-0.1-0.2c-0.1-0.3-0.3-0.8-0.8-1.2q-0.7-0.6-1.9-1.2-1.2-0.6-2.7-1-1.6-0.5-3.4-0.9-1.8-0.3-3.8-0.6-1.9-0.2-4.1-0.4-2.1-0.1-4.2-0.1-2.1 0-4.2 0.1-2.1 0.2-4.1 0.4c-2.7 0.3-5.1 0.8-7.2 1.5q-1.5 0.4-2.7 1-1.2 0.6-1.9 1.2c-0.5 0.4-0.7 0.9-0.8 1.2q0 0.1-0.1 0.2 0 0.1 0 0.2 0 0.1 0 0.1 0 0 0-0.1 0-0.1 0-0.2 0.1-0.1 0.1-0.2c0.1-0.3 0.4-0.7 0.9-1.1q0.7-0.6 1.9-1.1 1.2-0.5 2.7-1c2-0.5 4.5-0.9 7.1-1.2q2-0.2 4.1-0.3 2.1-0.2 4.2-0.2 2.1 0 4.2 0.2 2.1 0.1 4.1 0.3 2 0.2 3.8 0.5 1.8 0.3 3.3 0.7 1.5 0.5 2.7 1 1.2 0.5 1.9 1.1c0.5 0.4 0.8 0.8 0.9 1.1q0 0.1 0.1 0.2 0 0.1 0 0.2 0 0.1 0 0.1z"/></g><path class="d" d="m716.7 388.5c1.8-0.5 4-0.9 6.3-1.2l6.7 3.7-17.9 1.4q-0.3-0.4-0.3-0.8c0-1.1 2-2.3 5.2-3.1z"/><path class="d" d="m725.6 386.9q1.6 0 3.2-0.1l0.9 4.2z"/><path class="d" d="m745.2 394.1c-1.9 0.8-4.7 1.5-8.1 1.9l-6.9-5z"/><path class="e" d="m702.5 387.6l23.9 7v-1.8l0.1-0.1c2-1.3 4.5-1.3 6.5 0.1v8.1l-2.7 0.6c-1.4 0.3-2.8-0.1-3.8-1l-24-7z"/><path class="a" d="m702.5 392.1l23.9 6.7v-4.2-1.8l0.1-0.1c2-1.3 4.5-1.3 6.5 0.1v8.1l-2.7 0.6c-1.4 0.3-2.8-0.1-3.8-1l-24-7z"/><path class="f" d="m726.5 393.8h-0.1v-1l0.1-0.1c2-1.3 4.5-1.3 6.5 0.1v1c-2-1.3-4.5-1.3-6.5 0z"/><path class="a" d="m729.3 369.4h4.1v-4c0-1.1-0.9-2-2-2-1.2 0-2.1 0.9-2.1 2z"/><path class="b" d="m706.9 367.2c0 3.6 10.9 6.6 24.5 6.6 13.5 0 24.5-3 24.5-6.6 0-3.6-11-6.5-24.5-6.5-13.6 0-24.5 2.9-24.5 6.5z"/><g style="opacity:.6"><path class="c" d="m759.1 367.2q0 0 0-0.2 0 0 0-0.2 0-0.1-0.1-0.3c-0.1-0.4-0.4-1-1.1-1.5-0.6-0.6-1.4-1.1-2.5-1.6q-1.5-0.8-3.6-1.4-2-0.6-4.4-1.1-2.4-0.5-5-0.8-2.6-0.3-5.4-0.5-2.8-0.2-5.6-0.2-2.9 0-5.6 0.2-2.8 0.2-5.5 0.5c-3.5 0.4-6.7 1.1-9.4 1.9q-2 0.6-3.6 1.4c-1 0.5-1.9 1-2.5 1.6-0.6 0.5-1 1.1-1.1 1.5q0 0.2-0.1 0.3 0 0.2 0 0.2 0 0.2 0 0.2 0 0 0-0.2 0 0 0.1-0.2 0-0.1 0-0.2c0.2-0.5 0.6-1 1.2-1.5 0.6-0.5 1.5-1 2.5-1.5q1.6-0.7 3.6-1.2c2.7-0.8 5.9-1.3 9.4-1.7q2.6-0.3 5.4-0.4 2.8-0.2 5.6-0.2 2.8 0 5.5 0.2 2.8 0.1 5.4 0.4 2.6 0.3 5 0.7 2.4 0.4 4.4 1 2.1 0.5 3.6 1.2c1.1 0.5 1.9 1 2.5 1.5 0.7 0.5 1 1 1.2 1.5q0 0.1 0.1 0.2 0 0.2 0 0.2 0 0.2 0 0.2z"/></g><path class="d" d="m714.2 363.1c2.4-0.7 5.2-1.2 8.3-1.5l8.9 4.8-23.7 1.8q-0.3-0.5-0.4-1c0-1.5 2.6-3 6.9-4.1z"/><path class="d" d="m726 361.1q2-0.2 4.2-0.2l1.2 5.5z"/><path class="d" d="m751.9 370.5c-2.6 1.1-6.3 1.9-10.7 2.5l-9.2-6.6z"/><path class="e" d="m703 380.3l22.6-8.7 2 1.3v-4.7c2.4-1.3 5.2-1.3 7.6-0.1l0.1 0.1v7.9c-0.4 0-31 10.4-31 10.4l-1.3-0.8z"/><path class="a" d="m727.6 372.9v-4.7c2.4-1.3 5.2-1.3 7.6-0.1l0.1 0.1v7.9c-0.4 0-31 10.4-31 10.4l-1.3-0.8 29.4-10.5c0 0-3.7 1.1-4.8-2.3z"/><path class="f" d="m727.6 369.4v-1.2c2.4-1.3 5.2-1.3 7.6-0.1l0.1 0.1v1.2c-2.5-1.2-5.3-1.2-7.7 0z"/><path class="a" d="m704.5 376.3l-0.1-0.1-4.1-3.2c-0.4-0.3-0.9-0.5-1.5-0.5h-3.9-4-3.9c-0.5 0-1.1 0.2-1.5 0.5l-4.1 3.2-0.1 0.1c-1.6 0.4-2.6 2-2.3 3.7l2.8 15.4 3.7 0.6 0.3 1.5h5.1 4 5.1l0.4-1.5 3.6-0.6 2.8-15.4c0.3-1.7-0.7-3.3-2.3-3.7z"/><path class="g" d="m679.4 382.2c0.4-0.7 1.1-1.2 1.9-1.4h0.1l4.1-3.2c0.4-0.4 1-0.6 1.5-0.6h3.9 4 3.9c0.6 0 1.1 0.2 1.5 0.6l4.1 3.2h0.1c0.8 0.2 1.5 0.7 1.9 1.4l0.4-2.2c0.3-1.7-0.7-3.3-2.3-3.7l-0.1-0.1-4.1-3.2c-0.4-0.3-0.9-0.5-1.5-0.5h-3.9-4-3.9c-0.5 0-1.1 0.2-1.5 0.5l-4.1 3.2-0.1 0.1c-1.6 0.4-2.6 2-2.3 3.7z"/><path class="h" d="m697.7 375.8h-10.2c-0.4 0-0.8-0.4-0.8-0.8 0-0.4 0.4-0.7 0.8-0.7h10.2c0.5 0 0.8 0.3 0.8 0.7 0 0.4-0.3 0.8-0.8 0.8z"/><path class="i" d="m692.9 389.5c-4.6 0-8.4-3.7-8.4-8.4v-0.9c5.5-1.8 11.3-1.8 16.8 0v0.9c0 4.7-3.8 8.4-8.4 8.4z"/><path class="j" d="m701.3 380.2c-3.2-1-6.5-1.5-9.8-1.3q3.5 0.2 6.9 1.3v0.9c0 4.2-3 7.6-6.9 8.3q0.7 0.1 1.4 0.1c4.6 0 8.4-3.7 8.4-8.4z"/><path class="k" d="m729.8 440.7l-35.3-47.5c-0.8-1.1-2.4-1.1-3.2 0l-35.3 47.5 2.1 1.5 33.8-45.6c0.5-0.7 1.5-0.7 2 0l33.9 45.6z"/><path class="a" d="m699 392.4c0 1.1-2.7 2.1-6.1 2.1-3.4 0-6.1-1-6.1-2.1 0-1.2 2.7-2.2 6.1-2.2 3.4 0 6.1 1 6.1 2.2z"/><path class="l" d="m735.8 494h-85.8v-55.2h85.8z"/><path class="k" d="m695.2 452.7h-4.5v-13.9h4.5z"/><path class="m" d="m735.8 494h-85.8l16.1 10.5h53.6z"/><path class="k" d="m721.8 480.3l-5.1-5.1-5.1 5.1h2.2v11h5.8v-11z"/><path class="k" d="m733.8 480.3l-5.1-5.1-5.1 5.1h2.2v11h5.8v-11z"/><path class="a" d="m39.3 357.5h-4.4v-4.2c0-1.3 1-2.2 2.2-2.2 1.3 0 2.2 0.9 2.2 2.2z"/><path class="b" d="m60.4 353.7c0 3.4-10.4 6.2-23.3 6.2-12.8 0-23.3-2.8-23.3-6.2 0-3.5 10.5-6.3 23.3-6.3 12.9 0 23.3 2.8 23.3 6.3z"/><g style="opacity:.6"><path class="c" d="m10.8 353.7q0 0 0-0.2 0-0.1 0-0.2 0-0.1 0.1-0.2c0.1-0.5 0.4-1 1-1.5 0.6-0.6 1.4-1.1 2.4-1.6q1.4-0.7 3.4-1.3 1.9-0.6 4.2-1 2.3-0.5 4.8-0.8 2.5-0.3 5.1-0.5 2.7-0.1 5.3-0.1 2.7 0 5.4 0.1 2.6 0.2 5.1 0.5c3.4 0.4 6.4 1 9 1.8q1.9 0.6 3.4 1.3c1 0.5 1.8 1 2.4 1.6 0.6 0.5 0.9 1 1 1.5q0.1 0.1 0.1 0.2 0 0.1 0 0.2 0 0.2 0 0.2 0 0 0-0.2 0-0.1 0-0.2-0.1-0.1-0.1-0.2c-0.1-0.4-0.5-0.9-1.1-1.4-0.6-0.5-1.4-1-2.4-1.4q-1.5-0.7-3.4-1.2c-2.6-0.7-5.6-1.2-8.9-1.6q-2.5-0.3-5.2-0.4-2.6-0.1-5.3-0.1-2.6 0-5.3 0.1-2.6 0.1-5.1 0.4-2.5 0.3-4.7 0.7-2.3 0.4-4.2 0.9-1.9 0.5-3.4 1.2c-1 0.4-1.8 0.9-2.4 1.4-0.6 0.5-1 1-1.1 1.4q-0.1 0.1-0.1 0.2 0 0.1 0 0.2 0 0.2 0 0.2z"/></g><path class="d" d="m53.5 349.7c-2.3-0.6-5-1.1-7.9-1.4l-8.5 4.6 22.5 1.7q0.4-0.4 0.4-0.9c0-1.4-2.4-2.9-6.5-4z"/><path class="d" d="m42.3 347.8q-2-0.1-4-0.1l-1.2 5.2z"/><path class="d" d="m17.6 356.8c2.5 1 6 1.9 10.2 2.4l8.7-6.3z"/><path class="e" d="m71.3 348.7l-30 8.7v-2.2l-0.1-0.1c-2.5-1.7-5.7-1.6-8.2 0.1v10.2l3.4 0.7c1.7 0.4 3.5-0.1 4.8-1.3l30.1-8.8z"/><path class="a" d="m71.3 354.3l-30 8.5v-5.4-2.2l-0.1-0.1c-2.5-1.7-5.7-1.6-8.2 0.1v10.2l3.4 0.7c1.7 0.4 3.5-0.1 4.8-1.3l30.1-8.8z"/><path class="f" d="m41.2 356.4l0.1 0.1v-1.3l-0.1-0.1c-2.5-1.7-5.7-1.6-8.2 0.1v1.3c2.5-1.7 5.7-1.7 8.2-0.1z"/><path class="a" d="m37.7 325.8h-5.2v-5c0-1.4 1.1-2.6 2.6-2.6 1.4 0 2.6 1.2 2.6 2.6z"/><path class="b" d="m65.9 323c0 4.6-13.8 8.3-30.8 8.3-17 0-30.8-3.7-30.8-8.3 0-4.5 13.8-8.2 30.8-8.2 17 0 30.8 3.7 30.8 8.2z"/><g style="opacity:.6"><path class="c" d="m0.2 323q0 0 0-0.2 0-0.1 0-0.2 0.1-0.2 0.1-0.4c0.2-0.5 0.6-1.3 1.4-2 0.7-0.7 1.8-1.3 3.1-2 1.3-0.6 2.8-1.2 4.5-1.7q2.6-0.8 5.6-1.4 3-0.6 6.3-1 3.3-0.4 6.8-0.6 3.5-0.2 7.1-0.2c2.3 0 4.7 0 7 0.2q3.5 0.2 6.8 0.6c4.4 0.5 8.5 1.4 11.9 2.4 1.7 0.5 3.2 1.1 4.5 1.7 1.3 0.7 2.4 1.3 3.1 2 0.8 0.7 1.2 1.5 1.4 2q0.1 0.2 0.1 0.4 0 0.1 0 0.2 0 0.2 0 0.2 0 0 0-0.2 0-0.1 0-0.2-0.1-0.2-0.1-0.4c-0.2-0.5-0.7-1.2-1.5-1.8-0.7-0.7-1.8-1.3-3.1-1.9q-2-0.8-4.6-1.5c-3.3-1-7.4-1.7-11.8-2.1q-3.3-0.4-6.7-0.6-3.5-0.2-7-0.2-3.6 0-7 0.2-3.5 0.2-6.8 0.6-3.3 0.3-6.3 0.8-3 0.6-5.5 1.3-2.6 0.7-4.5 1.5c-1.3 0.6-2.4 1.2-3.2 1.9-0.8 0.6-1.3 1.3-1.4 1.8q-0.1 0.2-0.1 0.4-0.1 0.1-0.1 0.2 0 0.2 0 0.2z"/></g><path class="d" d="m56.7 317.8c-3.1-0.8-6.6-1.4-10.5-1.8l-11.1 6.1 29.7 2.2q0.4-0.6 0.4-1.3c0-1.8-3.2-3.8-8.5-5.2z"/><path class="d" d="m41.8 315.3q-2.5-0.1-5.3-0.2l-1.4 7z"/><path class="d" d="m9.3 327.2c3.2 1.3 7.9 2.4 13.4 3.1l11.5-8.2z"/><path class="e" d="m70.7 339.5l-28.4-11-2.5 1.7v-6c-3-1.5-6.5-1.6-9.6 0v10c0.5 0 38.9 13.1 38.9 13.1l1.6-1z"/><path class="a" d="m39.8 330.2v-6c-3-1.5-6.5-1.6-9.6 0v10c0.5 0 38.9 13.1 38.9 13.1l1.6-1-36.9-13.3c0 0 4.7 1.5 6-2.8z"/><path class="f" d="m39.8 325.8v-1.6c-3-1.5-6.5-1.6-9.6 0v1.5c3-1.5 6.6-1.5 9.6 0.1z"/><path class="a" d="m127.4 357.5h4.4v-4.2c0-1.3-1-2.2-2.2-2.2-1.2 0-2.2 0.9-2.2 2.2z"/><path class="b" d="m106.3 353.7c0 3.4 10.4 6.2 23.3 6.2 12.9 0 23.3-2.8 23.3-6.2 0-3.5-10.4-6.3-23.3-6.3-12.9 0-23.3 2.8-23.3 6.3z"/><g style="opacity:.6"><path class="c" d="m156 353.7q0 0 0-0.2 0-0.1-0.1-0.2 0-0.1 0-0.2c-0.1-0.5-0.5-1-1-1.5-0.6-0.6-1.4-1.1-2.4-1.6q-1.5-0.7-3.4-1.3-2-0.6-4.3-1-2.2-0.5-4.7-0.8-2.5-0.3-5.2-0.5-2.6-0.1-5.3-0.1-2.7 0-5.3 0.1-2.7 0.2-5.2 0.5c-3.3 0.4-6.4 1-9 1.8q-1.9 0.6-3.4 1.3c-1 0.5-1.8 1-2.4 1.6-0.6 0.5-0.9 1-1 1.5q0 0.1-0.1 0.2 0 0.1 0 0.2 0 0.2 0 0.2 0 0 0-0.2 0-0.1 0.1-0.2 0-0.1 0-0.2c0.2-0.4 0.5-0.9 1.1-1.4 0.6-0.5 1.4-1 2.4-1.4q1.5-0.7 3.4-1.2c2.6-0.7 5.7-1.2 9-1.6q2.5-0.3 5.1-0.4 2.6-0.1 5.3-0.1 2.7 0 5.3 0.1 2.6 0.1 5.1 0.4 2.5 0.3 4.8 0.7 2.2 0.4 4.1 0.9 2 0.5 3.5 1.2c1 0.4 1.8 0.9 2.4 1.4 0.6 0.5 0.9 1 1 1.4q0.1 0.1 0.1 0.2 0 0.1 0.1 0.2 0 0.2 0 0.2z"/></g><path class="d" d="m113.2 349.7c2.3-0.6 5-1.1 8-1.4l8.4 4.6-22.5 1.7q-0.3-0.4-0.3-0.9c0-1.4 2.4-2.9 6.4-4z"/><path class="d" d="m124.5 347.8q1.9-0.1 4-0.1l1.1 5.2z"/><path class="d" d="m149.1 356.8c-2.4 1-6 1.9-10.2 2.4l-8.7-6.3z"/><path class="e" d="m95.4 348.7l30.1 8.7v-2.2l0.1-0.1c2.4-1.7 5.7-1.6 8.1 0.1v10.2l-3.4 0.7c-1.7 0.4-3.5-0.1-4.8-1.3l-30.1-8.8z"/><path class="a" d="m95.4 354.3l30.1 8.5v-5.4-2.2l0.1-0.1c2.4-1.7 5.7-1.6 8.1 0.1v10.2l-3.4 0.7c-1.7 0.4-3.5-0.1-4.8-1.3l-30.1-8.8z"/><path class="f" d="m125.6 356.4l-0.1 0.1v-1.3l0.1-0.1c2.4-1.7 5.7-1.6 8.1 0.1v1.3c-2.4-1.7-5.7-1.7-8.1-0.1z"/><path class="a" d="m129.1 325.8h5.2v-5c0-1.4-1.2-2.6-2.6-2.6-1.5 0-2.6 1.2-2.6 2.6z"/><path class="b" d="m100.9 323c0 4.6 13.8 8.3 30.8 8.3 17 0 30.8-3.7 30.8-8.3 0-4.5-13.8-8.2-30.8-8.2-17 0-30.8 3.7-30.8 8.2z"/><g style="opacity:.6"><path class="c" d="m166.5 323q0 0 0-0.2 0-0.1 0-0.2 0-0.2-0.1-0.4c-0.1-0.5-0.6-1.3-1.3-2-0.8-0.7-1.9-1.3-3.2-2-1.3-0.6-2.8-1.2-4.5-1.7q-2.6-0.8-5.6-1.4-3-0.6-6.3-1-3.3-0.4-6.8-0.6-3.5-0.2-7-0.2c-2.4 0-4.7 0-7.1 0.2q-3.5 0.2-6.8 0.6c-4.4 0.5-8.4 1.4-11.8 2.4-1.7 0.5-3.3 1.1-4.6 1.7-1.3 0.7-2.3 1.3-3.1 2-0.8 0.7-1.2 1.5-1.4 2q0 0.2-0.1 0.4 0 0.1 0 0.2 0 0.2 0 0.2 0 0 0-0.2 0.1-0.1 0.1-0.2 0-0.2 0.1-0.4c0.2-0.5 0.6-1.2 1.4-1.8 0.8-0.7 1.9-1.3 3.2-1.9q1.9-0.8 4.5-1.5c3.4-1 7.4-1.7 11.8-2.1q3.3-0.4 6.8-0.6 3.4-0.2 7-0.2 3.5 0 7 0.2 3.4 0.2 6.7 0.6 3.3 0.3 6.3 0.8 3 0.6 5.6 1.3 2.5 0.7 4.5 1.5c1.3 0.6 2.4 1.2 3.2 1.9 0.7 0.6 1.2 1.3 1.4 1.8q0 0.2 0.1 0.4 0 0.1 0 0.2 0 0.2 0 0.2z"/></g><path class="d" d="m110.1 317.8c3-0.8 6.6-1.4 10.4-1.8l11.2 6.1-29.7 2.2q-0.5-0.6-0.5-1.3c0-1.8 3.2-3.8 8.6-5.2z"/><path class="d" d="m124.9 315.3q2.6-0.1 5.3-0.2l1.5 7z"/><path class="d" d="m157.5 327.2c-3.3 1.3-8 2.4-13.5 3.1l-11.5-8.2z"/><path class="e" d="m96 339.5l28.5-11 2.4 1.7v-6c3-1.5 6.6-1.6 9.6 0h0.1v10c-0.5 0-38.9 13.1-38.9 13.1l-1.7-1z"/><path class="a" d="m126.9 330.2v-6c3-1.5 6.6-1.6 9.6 0h0.1v10c-0.5 0-38.9 13.1-38.9 13.1l-1.7-1 37-13.3c0 0-4.7 1.5-6.1-2.8z"/><path class="f" d="m126.9 325.8v-1.6c3-1.5 6.6-1.6 9.6 0h0.1v1.5c-3.1-1.5-6.7-1.5-9.7 0.1z"/><path class="a" d="m97.9 334.4l-5.2-4c-0.5-0.5-1.2-0.7-1.9-0.7h-5-4.9-4.9c-0.7 0-1.4 0.2-2 0.7l-5.1 4h-0.1c-2 0.6-3.3 2.6-2.9 4.7l3.6 19.4 4.5 0.7 0.4 1.9h6.5 4.9 6.5l0.4-1.9 4.6-0.7 3.5-19.4c0.4-2.1-0.8-4.1-2.9-4.7z"/><path class="g" d="m66.4 341.9c0.5-0.9 1.4-1.5 2.4-1.8h0.1l5.1-4.1c0.6-0.4 1.3-0.6 2-0.6h4.9 4.9 5c0.7 0 1.4 0.2 1.9 0.6l5.2 4.1c1.1 0.3 1.9 0.9 2.4 1.8l0.5-2.8c0.4-2.1-0.8-4.1-2.9-4.7l-5.2-4c-0.5-0.5-1.2-0.7-1.9-0.7h-5-4.9-4.9c-0.7 0-1.4 0.2-2 0.7l-5.1 4h-0.1c-2 0.6-3.3 2.6-2.9 4.7z"/><path class="h" d="m89.4 333.8h-12.8c-0.6 0-1-0.4-1-1 0-0.5 0.4-0.9 1-0.9h12.8c0.6 0 1 0.4 1 0.9 0 0.6-0.4 1-1 1z"/><path class="i" d="m83.4 351.1c-5.8 0-10.5-4.7-10.5-10.5v-1.2c6.8-2.3 14.1-2.3 21 0v1.2c0 5.8-4.7 10.5-10.5 10.5z"/><path class="j" d="m93.9 339.4c-4-1.3-8.2-1.9-12.4-1.7 3 0.2 5.9 0.7 8.7 1.7v1.2c0 5.1-3.7 9.4-8.7 10.3q0.9 0.2 1.9 0.2c5.8 0 10.5-4.7 10.5-10.5z"/><path class="k" d="m129.7 415.4l-44.3-59.8c-1-1.3-3-1.3-4 0l-44.4 59.8 2.6 1.9 42.5-57.3c0.7-0.9 1.9-0.9 2.5 0l42.6 57.3z"/><path class="a" d="m91.1 354.6c0 1.5-3.5 2.7-7.7 2.7-4.3 0-7.7-1.2-7.7-2.7 0-1.5 3.4-2.7 7.7-2.7 4.2 0 7.7 1.2 7.7 2.7z"/><path class="l" d="m137.3 482.3h-107.9v-69.3h107.9z"/><path class="k" d="m86.2 430.5h-5.6v-17.5h5.6z"/><path class="m" d="m137.3 482.3h-107.9l20.3 13.2h67.3z"/><path class="k" d="m119.7 465.1l-6.4-6.4-6.4 6.4h2.7v13.9h7.3v-13.9z"/><path class="k" d="m134.7 465.1l-6.4-6.4-6.4 6.4h2.8v13.9h7.2v-13.9z"/><path class="n" d="m558.7 872.9h-363.4c-9.8 0-17.7-7.9-17.7-17.7v-240.5c0-9.8 7.9-17.8 17.7-17.8h363.4c9.8 0 17.7 8 17.7 17.8v240.5c0 9.8-7.9 17.7-17.7 17.7z"/><path class="o" d="m534.3 863.1h-314.6v-256.3h314.6z"/><path class="p" d="m565 734.9c0 5.9-4.8 10.7-10.7 10.7-5.9 0-10.6-4.8-10.6-10.7 0-5.9 4.7-10.6 10.6-10.6 5.9 0 10.7 4.7 10.7 10.6z"/><path class="p" d="m198.2 758.4c-2.4 0-4.4-1.9-4.4-4.3v-38.3c0-2.4 2-4.4 4.4-4.4 2.4 0 4.4 2 4.4 4.4v38.3c0 2.4-2 4.3-4.4 4.3z"/><path class="q" d="m534.3 863.1v-256.3h-129.9c-0.7 4.8-1.5 9.6-3 14.2-5.4 15.8-21.2 27.6-37.9 28.4-4.9 0.3-10.2-0.2-14.1 2.7-6.3 4.6-4.3 15.2 1.7 20.1 6 5 14.3 5.9 22 6.8 7.7 1 16 2.5 21.4 8.1 7.1 7.5 6.4 19.3 5.2 29.6-1.2 10.7-2.5 21.7-8.1 31-5.6 9.2-16.7 16-27 13.1-3.9-1-7.5-3.4-11.5-3.1-6.1 0.5-10.2 7.1-10.2 13.2 0 6.1 3 11.8 5.8 17.2 5 9.6 9.7 19.8 9.9 30.6 0.3 10.8-5.2 22.4-15.3 26.2-12.1 4.5-26.6-3.1-38.2 2.6-6.2 3-9.9 8.9-12 15.6z"/><path class="q" d="m240.8 746.2c10.4 5.5 22.2 9.4 33.9 8.1 11.7-1.3 23.2-8.9 26.3-20.3 1.3-4.5 1.1-9.4-0.9-13.7-1.9-3.8-5.2-6.8-8.9-9-6.5-4-14.8-5.6-21.8-2.6-9.4 4.2-6.8 13.1-12.3 19.2-6.1 6.8-16.9 5.4-16.3 18.3z"/><path fill-rule="evenodd" class="r" d="m461.1 725.1l-12.2 21.1c-1.3 2.3-4.6 2.3-5.9 0l-12.1-21.1c-6.8-11.6 1.6-26.1 15.1-26.1 13.4 0 21.8 14.5 15.1 26.1zm-15.1-19.5c-8.4 0-13.6 9-9.4 16.2 4.2 7.2 14.6 7.2 18.7 0 4.2-7.2-1-16.2-9.3-16.2z"/><path fill-rule="evenodd" class="r" d="m286.4 699.8l-12.2 21.1c-1.3 2.3-4.5 2.3-5.8 0l-12.2-21.1c-6.7-11.6 1.7-26.1 15.1-26.1 13.4 0 21.8 14.5 15.1 26.1zm-15.1-19.5c-8.3 0-13.5 9-9.4 16.2 4.2 7.2 14.6 7.2 18.8 0 4.1-7.2-1.1-16.2-9.4-16.2z"/><path class="r" d="m445.4 730.7c0-1.1 0.9-2 2-2 1.1 0 2 0.9 2 2 0 1.1-0.9 2-2 2-1.1 0-2-0.9-2-2zm-0.2-7.9c-0.1-1.1 0.8-2 1.9-2.1 1.1 0 2 0.8 2.1 1.9 0 1.1-0.8 2.1-1.9 2.1q-0.1 0-0.1 0c-1.1 0-2-0.8-2-1.9zm-0.5-7.9c-0.1-1.1 0.7-2.1 1.8-2.2 1.1-0.1 2.1 0.8 2.2 1.9 0.1 1.1-0.7 2-1.8 2.1q-0.1 0-0.2 0c-1 0-1.9-0.8-2-1.8zm-0.8-7.9c-0.1-1.1 0.7-2.1 1.8-2.2 1.1-0.2 2.1 0.6 2.2 1.7 0.1 1.1-0.6 2.1-1.7 2.2q-0.2 0.1-0.3 0.1c-1 0-1.8-0.8-2-1.8zm-1.1-7.8c-0.2-1.1 0.6-2.1 1.6-2.3 1.1-0.2 2.2 0.5 2.4 1.6 0.1 1.1-0.6 2.1-1.7 2.3q-0.2 0.1-0.3 0c-1 0-1.8-0.7-2-1.6zm-1.5-7.8c-0.2-1.1 0.4-2.1 1.5-2.4 1.1-0.2 2.2 0.5 2.4 1.6 0.2 1-0.4 2.1-1.5 2.3q-0.2 0.1-0.5 0.1c-0.9 0-1.7-0.6-1.9-1.6zm-2-7.6c-0.3-1.1 0.4-2.2 1.4-2.5 1.1-0.3 2.2 0.3 2.5 1.4 0.3 1.1-0.3 2.2-1.4 2.5q-0.2 0.1-0.5 0c-0.9 0-1.7-0.5-2-1.4zm-2.4-7.5c-0.4-1 0.2-2.2 1.2-2.6 1.1-0.3 2.2 0.2 2.6 1.3 0.4 1-0.2 2.1-1.2 2.5q-0.4 0.1-0.7 0.1c-0.8 0-1.6-0.5-1.9-1.3zm-166.9 1c-1-0.3-1.7-1.4-1.4-2.5 0.3-1 1.4-1.7 2.5-1.4 1.1 0.3 1.7 1.4 1.4 2.5-0.2 0.9-1 1.5-1.9 1.5q-0.3 0-0.6-0.1zm164-8.3c-0.5-1 0-2.2 1-2.6 1-0.5 2.2 0 2.6 1 0.5 1 0 2.2-1 2.6q-0.4 0.2-0.8 0.2c-0.8 0-1.5-0.4-1.8-1.2zm-161.6 0.7c-1-0.5-1.4-1.7-1-2.7 0.5-1 1.6-1.4 2.6-1 1.1 0.4 1.5 1.6 1.1 2.6-0.4 0.8-1.1 1.2-1.9 1.2q-0.4 0-0.8-0.1zm158.1-7.7c-0.5-1-0.2-2.2 0.8-2.7 1-0.5 2.2-0.2 2.7 0.8 0.5 1 0.2 2.2-0.8 2.7q-0.5 0.3-1 0.3c-0.7 0-1.3-0.4-1.7-1.1zm-154.6 0.5c-0.9-0.6-1.2-1.8-0.7-2.8 0.6-0.9 1.9-1.2 2.8-0.6 0.9 0.5 1.2 1.8 0.7 2.7-0.4 0.6-1.1 1-1.7 1q-0.6 0-1.1-0.3zm150.5-7.2c-0.6-0.9-0.3-2.1 0.6-2.7 0.9-0.7 2.1-0.4 2.8 0.5 0.6 0.9 0.3 2.2-0.6 2.8q-0.5 0.3-1.1 0.3c-0.6 0-1.3-0.3-1.7-0.9zm-146.1 0.5c-0.9-0.7-1-2-0.3-2.8 0.7-0.9 1.9-1 2.8-0.3 0.9 0.6 1 1.9 0.3 2.8-0.4 0.5-1 0.7-1.6 0.7-0.4 0-0.8-0.1-1.2-0.4zm5.2-6.1c-0.8-0.8-0.8-2.1 0-2.8 0.8-0.8 2-0.8 2.8 0 0.8 0.7 0.8 2 0 2.8-0.4 0.4-0.9 0.6-1.4 0.6-0.5 0-1-0.2-1.4-0.6zm136.3-0.7c-0.7-0.8-0.5-2.1 0.3-2.8 0.9-0.7 2.1-0.5 2.8 0.3 0.7 0.9 0.6 2.1-0.3 2.8q-0.6 0.5-1.2 0.5c-0.6 0-1.2-0.3-1.6-0.8zm-130.5-4.8c-0.7-0.9-0.5-2.1 0.3-2.8 0.9-0.7 2.1-0.6 2.8 0.3 0.7 0.9 0.6 2.1-0.3 2.8-0.4 0.3-0.8 0.4-1.2 0.4-0.6 0-1.2-0.2-1.6-0.7zm125.3-1c-0.7-0.8-0.7-2.1 0.1-2.9 0.8-0.7 2-0.7 2.8 0.1 0.8 0.8 0.8 2 0 2.8-0.4 0.4-0.9 0.6-1.4 0.6-0.6 0-1.1-0.2-1.5-0.6zm-118.9-3.8c-0.6-1-0.3-2.2 0.6-2.8 0.9-0.6 2.1-0.3 2.7 0.6 0.6 0.9 0.4 2.2-0.6 2.8q-0.5 0.3-1 0.3c-0.7 0-1.3-0.3-1.7-0.9zm113.2-1.5c-0.8-0.8-0.9-2-0.2-2.9 0.7-0.8 2-0.9 2.8-0.2 0.9 0.7 1 2 0.2 2.8-0.3 0.5-0.9 0.7-1.5 0.7-0.4 0-0.9-0.1-1.3-0.4zm-106.4-2.7c-0.5-1-0.1-2.2 0.8-2.7 1-0.5 2.2-0.1 2.7 0.8 0.6 1 0.2 2.2-0.8 2.7q-0.4 0.3-0.9 0.3c-0.7 0-1.4-0.4-1.8-1.1zm100.2-2c-0.9-0.6-1.1-1.9-0.5-2.8 0.6-0.9 1.8-1.2 2.7-0.5 1 0.6 1.2 1.8 0.6 2.7-0.4 0.6-1 0.9-1.7 0.9q-0.6 0-1.1-0.3zm-93-1.6c-0.5-1 0-2.2 1-2.6 1-0.4 2.2 0 2.6 1.1 0.5 1 0 2.1-1 2.6-0.3 0.1-0.5 0.1-0.8 0.1-0.8 0-1.5-0.4-1.8-1.2zm7.4-3c-0.4-1 0.2-2.2 1.2-2.5 1.1-0.4 2.2 0.2 2.6 1.2 0.3 1.1-0.2 2.2-1.3 2.6q-0.3 0.1-0.6 0.1c-0.9 0-1.6-0.5-1.9-1.4zm78.9 0.6c-1-0.5-1.3-1.7-0.8-2.7 0.5-0.9 1.7-1.3 2.7-0.8 0.9 0.5 1.3 1.7 0.8 2.7-0.3 0.7-1 1.1-1.8 1.1-0.3 0-0.6-0.1-0.9-0.3zm-71.3-3.1c-0.3-1 0.3-2.1 1.4-2.4 1-0.3 2.1 0.3 2.4 1.4 0.3 1-0.3 2.1-1.4 2.4q-0.2 0.1-0.5 0.1c-0.9 0-1.7-0.6-1.9-1.5zm64.2 0c-1-0.3-1.5-1.5-1.2-2.5 0.4-1.1 1.6-1.6 2.6-1.2 1 0.4 1.6 1.5 1.2 2.5-0.3 0.9-1.1 1.4-1.9 1.4q-0.3 0-0.7-0.2zm-56.5-2c-0.2-1.1 0.5-2.1 1.5-2.4 1.1-0.2 2.2 0.5 2.4 1.5 0.3 1.1-0.4 2.2-1.5 2.4q-0.2 0.1-0.4 0.1c-0.9 0-1.8-0.7-2-1.6zm7.8-1.6c-0.1-1.1 0.6-2.2 1.7-2.4 1.1-0.2 2.1 0.6 2.3 1.7 0.2 1-0.5 2.1-1.6 2.3q-0.2 0-0.4 0c-0.9 0-1.8-0.7-2-1.6zm41.3 1.4c-1.1-0.2-1.7-1.3-1.5-2.4 0.2-1 1.3-1.7 2.4-1.5 1.1 0.3 1.7 1.4 1.5 2.4-0.2 1-1 1.6-1.9 1.6q-0.3 0-0.5-0.1zm-33.4-2.7c-0.1-1.1 0.7-2.1 1.8-2.3 1.1-0.1 2.1 0.7 2.2 1.8 0.1 1.1-0.6 2.1-1.7 2.2q-0.2 0-0.3 0c-1 0-1.8-0.7-2-1.7zm25.7 1.4c-1.1-0.1-1.8-1.1-1.7-2.2 0.1-1.1 1.1-1.9 2.2-1.7 1.1 0.1 1.9 1.1 1.8 2.2-0.2 1-1 1.7-2 1.7q-0.1 0.1-0.3 0zm-17.7-2.3c-0.1-1.1 0.8-2 1.9-2.1 1.1 0 2 0.8 2.1 1.9 0.1 1.1-0.8 2.1-1.9 2.1q0 0-0.1 0c-1.1 0-1.9-0.8-2-1.9zm9.9 1.8c-1.1 0-1.9-1-1.9-2.1 0-1.1 0.9-1.9 2-1.9 1.1 0 2 0.9 2 2 0 1.1-0.9 2-2 2q0 0-0.1 0z"/><g style="opacity:.1"><path class="s" d="m534.3 606.8h-58.3l-256.3 256.2v0.1h61l253.6-253.6z"/><path class="s" d="m534.3 666v-31.1l-228.2 228.2h31.1z"/></g></g></svg>