<svg version="1.2" xmlns="http://www.w3.org/2000/svg" viewBox="0 0 492 757" width="492" height="757"><defs><clipPath clipPathUnits="userSpaceOnUse" id="cp1"><path d="m246-45.05c-95.77 0.43-191.5 15.14-191.5 43.54 45.31-5.89 114.26-9.65 191.5-9.65 77.24 0 146.19 3.76 191.5 9.65 0-28.4-95.73-43.11-191.5-43.54z"/></clipPath><clipPath clipPathUnits="userSpaceOnUse" id="cp2"><path d="m246-45.05c-95.77 0.43-191.5 15.14-191.5 43.54 45.31-5.89 114.26-9.65 191.5-9.65 77.24 0 146.19 3.76 191.5 9.65 0-28.4-95.73-43.11-191.5-43.54z"/></clipPath><clipPath clipPathUnits="userSpaceOnUse" id="cp3"><path d="m246-45.05c-95.77 0.43-191.5 15.14-191.5 43.54 45.31-5.89 114.26-9.65 191.5-9.65 77.24 0 146.19 3.76 191.5 9.65 0-28.4-95.73-43.11-191.5-43.54z"/></clipPath><clipPath clipPathUnits="userSpaceOnUse" id="cp4"><path d="m246-45.05c-95.77 0.43-191.5 15.14-191.5 43.54 45.31-5.89 114.26-9.65 191.5-9.65 77.24 0 146.19 3.76 191.5 9.65 0-28.4-95.73-43.11-191.5-43.54z"/></clipPath><clipPath clipPathUnits="userSpaceOnUse" id="cp5"><path d="m246-45.05c-95.77 0.43-191.5 15.14-191.5 43.54 45.31-5.89 114.26-9.65 191.5-9.65 77.24 0 146.19 3.76 191.5 9.65 0-28.4-95.73-43.11-191.5-43.54z"/></clipPath><clipPath clipPathUnits="userSpaceOnUse" id="cp6"><path d="m246-45.05c-95.77 0.43-191.5 15.14-191.5 43.54 45.31-5.89 114.26-9.65 191.5-9.65 77.24 0 146.19 3.76 191.5 9.65 0-28.4-95.73-43.11-191.5-43.54z"/></clipPath><clipPath clipPathUnits="userSpaceOnUse" id="cp7"><path d="m246-45.05c-95.77 0.43-191.5 15.14-191.5 43.54 45.31-5.89 114.26-9.65 191.5-9.65 77.24 0 146.19 3.76 191.5 9.65 0-28.4-95.73-43.11-191.5-43.54z"/></clipPath><clipPath clipPathUnits="userSpaceOnUse" id="cp8"><path d="m246-45.05c-95.77 0.43-191.5 15.14-191.5 43.54 45.31-5.89 114.26-9.65 191.5-9.65 77.24 0 146.19 3.76 191.5 9.65 0-28.4-95.73-43.11-191.5-43.54z"/></clipPath><clipPath clipPathUnits="userSpaceOnUse" id="cp9"><path d="m246-45.05c-95.77 0.43-191.5 15.14-191.5 43.54 45.31-5.89 114.26-9.65 191.5-9.65 77.24 0 146.19 3.76 191.5 9.65 0-28.4-95.73-43.11-191.5-43.54z"/></clipPath><clipPath clipPathUnits="userSpaceOnUse" id="cp10"><path d="m246-45.05c-95.77 0.43-191.5 15.14-191.5 43.54 45.31-5.89 114.26-9.65 191.5-9.65 77.24 0 146.19 3.76 191.5 9.65 0-28.4-95.73-43.11-191.5-43.54z"/></clipPath><clipPath clipPathUnits="userSpaceOnUse" id="cp11"><path d="m246-45.05c-95.77 0.43-191.5 15.14-191.5 43.54 45.31-5.89 114.26-9.65 191.5-9.65 77.24 0 146.19 3.76 191.5 9.65 0-28.4-95.73-43.11-191.5-43.54z"/></clipPath><clipPath clipPathUnits="userSpaceOnUse" id="cp12"><path d="m246-45.05c-95.77 0.43-191.5 15.14-191.5 43.54 45.31-5.89 114.26-9.65 191.5-9.65 77.24 0 146.19 3.76 191.5 9.65 0-28.4-95.73-43.11-191.5-43.54z"/></clipPath><clipPath clipPathUnits="userSpaceOnUse" id="cp13"><path d="m246-45.05c-95.77 0.43-191.5 15.14-191.5 43.54 45.31-5.89 114.26-9.65 191.5-9.65 77.24 0 146.19 3.76 191.5 9.65 0-28.4-95.73-43.11-191.5-43.54z"/></clipPath><clipPath clipPathUnits="userSpaceOnUse" id="cp14"><path d="m246-45.05c-95.77 0.43-191.5 15.14-191.5 43.54 45.31-5.89 114.26-9.65 191.5-9.65 77.24 0 146.19 3.76 191.5 9.65 0-28.4-95.73-43.11-191.5-43.54z"/></clipPath><clipPath clipPathUnits="userSpaceOnUse" id="cp15"><path d="m246-45.05c-95.77 0.43-191.5 15.14-191.5 43.54 45.31-5.89 114.26-9.65 191.5-9.65 77.24 0 146.19 3.76 191.5 9.65 0-28.4-95.73-43.11-191.5-43.54z"/></clipPath><clipPath clipPathUnits="userSpaceOnUse" id="cp16"><path d="m246-45.05c-95.77 0.43-191.5 15.14-191.5 43.54 45.31-5.89 114.26-9.65 191.5-9.65 77.24 0 146.19 3.76 191.5 9.65 0-28.4-95.73-43.11-191.5-43.54z"/></clipPath><clipPath clipPathUnits="userSpaceOnUse" id="cp17"><path d="m246-45.05c-95.77 0.43-191.5 15.14-191.5 43.54 45.31-5.89 114.26-9.65 191.5-9.65 77.24 0 146.19 3.76 191.5 9.65 0-28.4-95.73-43.11-191.5-43.54z"/></clipPath><clipPath clipPathUnits="userSpaceOnUse" id="cp18"><path d="m246-45.05c-95.77 0.43-191.5 15.14-191.5 43.54 45.31-5.89 114.26-9.65 191.5-9.65 77.24 0 146.19 3.76 191.5 9.65 0-28.4-95.73-43.11-191.5-43.54z"/></clipPath><clipPath clipPathUnits="userSpaceOnUse" id="cp19"><path d="m246-45.05c-95.77 0.43-191.5 15.14-191.5 43.54 45.31-5.89 114.26-9.65 191.5-9.65 77.24 0 146.19 3.76 191.5 9.65 0-28.4-95.73-43.11-191.5-43.54z"/></clipPath><clipPath clipPathUnits="userSpaceOnUse" id="cp20"><path d="m246-45.05c-95.77 0.43-191.5 15.14-191.5 43.54 45.31-5.89 114.26-9.65 191.5-9.65 77.24 0 146.19 3.76 191.5 9.65 0-28.4-95.73-43.11-191.5-43.54z"/></clipPath><clipPath clipPathUnits="userSpaceOnUse" id="cp21"><path d="m246-45.05c-95.77 0.43-191.5 15.14-191.5 43.54 45.31-5.89 114.26-9.65 191.5-9.65 77.24 0 146.19 3.76 191.5 9.65 0-28.4-95.73-43.11-191.5-43.54z"/></clipPath><clipPath clipPathUnits="userSpaceOnUse" id="cp22"><path d="m246-45.05c-95.77 0.43-191.5 15.14-191.5 43.54 45.31-5.89 114.26-9.65 191.5-9.65 77.24 0 146.19 3.76 191.5 9.65 0-28.4-95.73-43.11-191.5-43.54z"/></clipPath><clipPath clipPathUnits="userSpaceOnUse" id="cp23"><path d="m246-45.05c-95.77 0.43-191.5 15.14-191.5 43.54 45.31-5.89 114.26-9.65 191.5-9.65 77.24 0 146.19 3.76 191.5 9.65 0-28.4-95.73-43.11-191.5-43.54z"/></clipPath><clipPath clipPathUnits="userSpaceOnUse" id="cp24"><path d="m246-45.05c-95.77 0.43-191.5 15.14-191.5 43.54 45.31-5.89 114.26-9.65 191.5-9.65 77.24 0 146.19 3.76 191.5 9.65 0-28.4-95.73-43.11-191.5-43.54z"/></clipPath><clipPath clipPathUnits="userSpaceOnUse" id="cp25"><path d="m246-45.05c-95.77 0.43-191.5 15.14-191.5 43.54 45.31-5.89 114.26-9.65 191.5-9.65 77.24 0 146.19 3.76 191.5 9.65 0-28.4-95.73-43.11-191.5-43.54z"/></clipPath><clipPath clipPathUnits="userSpaceOnUse" id="cp26"><path d="m246-45.05c-95.77 0.43-191.5 15.14-191.5 43.54 45.31-5.89 114.26-9.65 191.5-9.65 77.24 0 146.19 3.76 191.5 9.65 0-28.4-95.73-43.11-191.5-43.54z"/></clipPath><clipPath clipPathUnits="userSpaceOnUse" id="cp27"><path d="m246-45.05c-95.77 0.43-191.5 15.14-191.5 43.54 45.31-5.89 114.26-9.65 191.5-9.65 77.24 0 146.19 3.76 191.5 9.65 0-28.4-95.73-43.11-191.5-43.54z"/></clipPath><clipPath clipPathUnits="userSpaceOnUse" id="cp28"><path d="m246-45.05c-95.77 0.43-191.5 15.14-191.5 43.54 45.31-5.89 114.26-9.65 191.5-9.65 77.24 0 146.19 3.76 191.5 9.65 0-28.4-95.73-43.11-191.5-43.54z"/></clipPath><clipPath clipPathUnits="userSpaceOnUse" id="cp29"><path d="m246-45.05c-95.77 0.43-191.5 15.14-191.5 43.54 45.31-5.89 114.26-9.65 191.5-9.65 77.24 0 146.19 3.76 191.5 9.65 0-28.4-95.73-43.11-191.5-43.54z"/></clipPath><clipPath clipPathUnits="userSpaceOnUse" id="cp30"><path d="m246-45.05c-95.77 0.43-191.5 15.14-191.5 43.54 45.31-5.89 114.26-9.65 191.5-9.65 77.24 0 146.19 3.76 191.5 9.65 0-28.4-95.73-43.11-191.5-43.54z"/></clipPath><clipPath clipPathUnits="userSpaceOnUse" id="cp31"><path d="m246-45.05c-95.77 0.43-191.5 15.14-191.5 43.54 45.31-5.89 114.26-9.65 191.5-9.65 77.24 0 146.19 3.76 191.5 9.65 0-28.4-95.73-43.11-191.5-43.54z"/></clipPath><clipPath clipPathUnits="userSpaceOnUse" id="cp32"><path d="m246-45.05c-95.77 0.43-191.5 15.14-191.5 43.54 45.31-5.89 114.26-9.65 191.5-9.65 77.24 0 146.19 3.76 191.5 9.65 0-28.4-95.73-43.11-191.5-43.54z"/></clipPath><clipPath clipPathUnits="userSpaceOnUse" id="cp33"><path d="m246-45.05c-95.77 0.43-191.5 15.14-191.5 43.54 45.31-5.89 114.26-9.65 191.5-9.65 77.24 0 146.19 3.76 191.5 9.65 0-28.4-95.73-43.11-191.5-43.54z"/></clipPath><clipPath clipPathUnits="userSpaceOnUse" id="cp34"><path d="m246-45.05c-95.77 0.43-191.5 15.14-191.5 43.54 45.31-5.89 114.26-9.65 191.5-9.65 77.24 0 146.19 3.76 191.5 9.65 0-28.4-95.73-43.11-191.5-43.54z"/></clipPath><clipPath clipPathUnits="userSpaceOnUse" id="cp35"><path d="m246-45.05c-95.77 0.43-191.5 15.14-191.5 43.54 45.31-5.89 114.26-9.65 191.5-9.65 77.24 0 146.19 3.76 191.5 9.65 0-28.4-95.73-43.11-191.5-43.54z"/></clipPath><clipPath clipPathUnits="userSpaceOnUse" id="cp36"><path d="m246-45.05c-95.77 0.43-191.5 15.14-191.5 43.54 45.31-5.89 114.26-9.65 191.5-9.65 77.24 0 146.19 3.76 191.5 9.65 0-28.4-95.73-43.11-191.5-43.54z"/></clipPath><clipPath clipPathUnits="userSpaceOnUse" id="cp37"><path d="m246-45.05c-95.77 0.43-191.5 15.14-191.5 43.54 45.31-5.89 114.26-9.65 191.5-9.65 77.24 0 146.19 3.76 191.5 9.65 0-28.4-95.73-43.11-191.5-43.54z"/></clipPath><clipPath clipPathUnits="userSpaceOnUse" id="cp38"><path d="m246-45.05c-95.77 0.43-191.5 15.14-191.5 43.54 45.31-5.89 114.26-9.65 191.5-9.65 77.24 0 146.19 3.76 191.5 9.65 0-28.4-95.73-43.11-191.5-43.54z"/></clipPath><clipPath clipPathUnits="userSpaceOnUse" id="cp39"><path d="m246-45.05c-95.77 0.43-191.5 15.14-191.5 43.54 45.31-5.89 114.26-9.65 191.5-9.65 77.24 0 146.19 3.76 191.5 9.65 0-28.4-95.73-43.11-191.5-43.54z"/></clipPath><clipPath clipPathUnits="userSpaceOnUse" id="cp40"><path d="m246-45.05c-95.77 0.43-191.5 15.14-191.5 43.54 45.31-5.89 114.26-9.65 191.5-9.65 77.24 0 146.19 3.76 191.5 9.65 0-28.4-95.73-43.11-191.5-43.54z"/></clipPath><clipPath clipPathUnits="userSpaceOnUse" id="cp41"><path d="m246-45.05c-95.77 0.43-191.5 15.14-191.5 43.54 45.31-5.89 114.26-9.65 191.5-9.65 77.24 0 146.19 3.76 191.5 9.65 0-28.4-95.73-43.11-191.5-43.54z"/></clipPath><clipPath clipPathUnits="userSpaceOnUse" id="cp42"><path d="m246-45.05c-95.77 0.43-191.5 15.14-191.5 43.54 45.31-5.89 114.26-9.65 191.5-9.65 77.24 0 146.19 3.76 191.5 9.65 0-28.4-95.73-43.11-191.5-43.54z"/></clipPath><clipPath clipPathUnits="userSpaceOnUse" id="cp43"><path d="m246-45.05c-95.77 0.43-191.5 15.14-191.5 43.54 45.31-5.89 114.26-9.65 191.5-9.65 77.24 0 146.19 3.76 191.5 9.65 0-28.4-95.73-43.11-191.5-43.54z"/></clipPath><clipPath clipPathUnits="userSpaceOnUse" id="cp44"><path d="m246-45.05c-95.77 0.43-191.5 15.14-191.5 43.54 45.31-5.89 114.26-9.65 191.5-9.65 77.24 0 146.19 3.76 191.5 9.65 0-28.4-95.73-43.11-191.5-43.54z"/></clipPath><clipPath clipPathUnits="userSpaceOnUse" id="cp45"><path d="m246-45.05c-95.77 0.43-191.5 15.14-191.5 43.54 45.31-5.89 114.26-9.65 191.5-9.65 77.24 0 146.19 3.76 191.5 9.65 0-28.4-95.73-43.11-191.5-43.54z"/></clipPath><clipPath clipPathUnits="userSpaceOnUse" id="cp46"><path d="m246-45.05c-95.77 0.43-191.5 15.14-191.5 43.54 45.31-5.89 114.26-9.65 191.5-9.65 77.24 0 146.19 3.76 191.5 9.65 0-28.4-95.73-43.11-191.5-43.54z"/></clipPath><clipPath clipPathUnits="userSpaceOnUse" id="cp47"><path d="m246-45.05c-95.77 0.43-191.5 15.14-191.5 43.54 45.31-5.89 114.26-9.65 191.5-9.65 77.24 0 146.19 3.76 191.5 9.65 0-28.4-95.73-43.11-191.5-43.54z"/></clipPath><clipPath clipPathUnits="userSpaceOnUse" id="cp48"><path d="m246-45.05c-95.77 0.43-191.5 15.14-191.5 43.54 45.31-5.89 114.26-9.65 191.5-9.65 77.24 0 146.19 3.76 191.5 9.65 0-28.4-95.73-43.11-191.5-43.54z"/></clipPath><clipPath clipPathUnits="userSpaceOnUse" id="cp49"><path d="m246-45.05c-95.77 0.43-191.5 15.14-191.5 43.54 45.31-5.89 114.26-9.65 191.5-9.65 77.24 0 146.19 3.76 191.5 9.65 0-28.4-95.73-43.11-191.5-43.54z"/></clipPath><clipPath clipPathUnits="userSpaceOnUse" id="cp50"><path d="m246-45.05c-95.77 0.43-191.5 15.14-191.5 43.54 45.31-5.89 114.26-9.65 191.5-9.65 77.24 0 146.19 3.76 191.5 9.65 0-28.4-95.73-43.11-191.5-43.54z"/></clipPath><clipPath clipPathUnits="userSpaceOnUse" id="cp51"><path d="m246-45.05c-95.77 0.43-191.5 15.14-191.5 43.54 45.31-5.89 114.26-9.65 191.5-9.65 77.24 0 146.19 3.76 191.5 9.65 0-28.4-95.73-43.11-191.5-43.54z"/></clipPath><clipPath clipPathUnits="userSpaceOnUse" id="cp52"><path d="m246-45.05c-95.77 0.43-191.5 15.14-191.5 43.54 45.31-5.89 114.26-9.65 191.5-9.65 77.24 0 146.19 3.76 191.5 9.65 0-28.4-95.73-43.11-191.5-43.54z"/></clipPath><clipPath clipPathUnits="userSpaceOnUse" id="cp53"><path d="m246-45.05c-95.77 0.43-191.5 15.14-191.5 43.54 45.31-5.89 114.26-9.65 191.5-9.65 77.24 0 146.19 3.76 191.5 9.65 0-28.4-95.73-43.11-191.5-43.54z"/></clipPath><clipPath clipPathUnits="userSpaceOnUse" id="cp54"><path d="m246-45.05c-95.77 0.43-191.5 15.14-191.5 43.54 45.31-5.89 114.26-9.65 191.5-9.65 77.24 0 146.19 3.76 191.5 9.65 0-28.4-95.73-43.11-191.5-43.54z"/></clipPath><clipPath clipPathUnits="userSpaceOnUse" id="cp55"><path d="m246-45.05c-95.77 0.43-191.5 15.14-191.5 43.54 45.31-5.89 114.26-9.65 191.5-9.65 77.24 0 146.19 3.76 191.5 9.65 0-28.4-95.73-43.11-191.5-43.54z"/></clipPath><clipPath clipPathUnits="userSpaceOnUse" id="cp56"><path d="m246-45.05c-95.77 0.43-191.5 15.14-191.5 43.54 45.31-5.89 114.26-9.65 191.5-9.65 77.24 0 146.19 3.76 191.5 9.65 0-28.4-95.73-43.11-191.5-43.54z"/></clipPath><clipPath clipPathUnits="userSpaceOnUse" id="cp57"><path d="m246-45.05c-95.77 0.43-191.5 15.14-191.5 43.54 45.31-5.89 114.26-9.65 191.5-9.65 77.24 0 146.19 3.76 191.5 9.65 0-28.4-95.73-43.11-191.5-43.54z"/></clipPath><clipPath clipPathUnits="userSpaceOnUse" id="cp58"><path d="m246-45.05c-95.77 0.43-191.5 15.14-191.5 43.54 45.31-5.89 114.26-9.65 191.5-9.65 77.24 0 146.19 3.76 191.5 9.65 0-28.4-95.73-43.11-191.5-43.54z"/></clipPath><clipPath clipPathUnits="userSpaceOnUse" id="cp59"><path d="m246-45.05c-95.77 0.43-191.5 15.14-191.5 43.54 45.31-5.89 114.26-9.65 191.5-9.65 77.24 0 146.19 3.76 191.5 9.65 0-28.4-95.73-43.11-191.5-43.54z"/></clipPath><clipPath clipPathUnits="userSpaceOnUse" id="cp60"><path d="m246-45.05c-95.77 0.43-191.5 15.14-191.5 43.54 45.31-5.89 114.26-9.65 191.5-9.65 77.24 0 146.19 3.76 191.5 9.65 0-28.4-95.73-43.11-191.5-43.54z"/></clipPath><clipPath clipPathUnits="userSpaceOnUse" id="cp61"><path d="m246-45.05c-95.77 0.43-191.5 15.14-191.5 43.54 45.31-5.89 114.26-9.65 191.5-9.65 77.24 0 146.19 3.76 191.5 9.65 0-28.4-95.73-43.11-191.5-43.54z"/></clipPath><clipPath clipPathUnits="userSpaceOnUse" id="cp62"><path d="m246-45.05c-95.77 0.43-191.5 15.14-191.5 43.54 45.31-5.89 114.26-9.65 191.5-9.65 77.24 0 146.19 3.76 191.5 9.65 0-28.4-95.73-43.11-191.5-43.54z"/></clipPath><clipPath clipPathUnits="userSpaceOnUse" id="cp63"><path d="m246-45.05c-95.77 0.43-191.5 15.14-191.5 43.54 45.31-5.89 114.26-9.65 191.5-9.65 77.24 0 146.19 3.76 191.5 9.65 0-28.4-95.73-43.11-191.5-43.54z"/></clipPath><clipPath clipPathUnits="userSpaceOnUse" id="cp64"><path d="m246-45.05c-95.77 0.43-191.5 15.14-191.5 43.54 45.31-5.89 114.26-9.65 191.5-9.65 77.24 0 146.19 3.76 191.5 9.65 0-28.4-95.73-43.11-191.5-43.54z"/></clipPath><clipPath clipPathUnits="userSpaceOnUse" id="cp65"><path d="m246-45.05c-95.77 0.43-191.5 15.14-191.5 43.54 45.31-5.89 114.26-9.65 191.5-9.65 77.24 0 146.19 3.76 191.5 9.65 0-28.4-95.73-43.11-191.5-43.54z"/></clipPath><clipPath clipPathUnits="userSpaceOnUse" id="cp66"><path d="m246-45.05c-95.77 0.43-191.5 15.14-191.5 43.54 45.31-5.89 114.26-9.65 191.5-9.65 77.24 0 146.19 3.76 191.5 9.65 0-28.4-95.73-43.11-191.5-43.54z"/></clipPath><clipPath clipPathUnits="userSpaceOnUse" id="cp67"><path d="m246-45.05c-95.77 0.43-191.5 15.14-191.5 43.54 45.31-5.89 114.26-9.65 191.5-9.65 77.24 0 146.19 3.76 191.5 9.65 0-28.4-95.73-43.11-191.5-43.54z"/></clipPath><clipPath clipPathUnits="userSpaceOnUse" id="cp68"><path d="m246-45.05c-95.77 0.43-191.5 15.14-191.5 43.54 45.31-5.89 114.26-9.65 191.5-9.65 77.24 0 146.19 3.76 191.5 9.65 0-28.4-95.73-43.11-191.5-43.54z"/></clipPath><clipPath clipPathUnits="userSpaceOnUse" id="cp69"><path d="m246-45.05c-95.77 0.43-191.5 15.14-191.5 43.54 45.31-5.89 114.26-9.65 191.5-9.65 77.24 0 146.19 3.76 191.5 9.65 0-28.4-95.73-43.11-191.5-43.54z"/></clipPath><clipPath clipPathUnits="userSpaceOnUse" id="cp70"><path d="m246-45.05c-95.77 0.43-191.5 15.14-191.5 43.54 45.31-5.89 114.26-9.65 191.5-9.65 77.24 0 146.19 3.76 191.5 9.65 0-28.4-95.73-43.11-191.5-43.54z"/></clipPath><clipPath clipPathUnits="userSpaceOnUse" id="cp71"><path d="m246-45.05c-95.77 0.43-191.5 15.14-191.5 43.54 45.31-5.89 114.26-9.65 191.5-9.65 77.24 0 146.19 3.76 191.5 9.65 0-28.4-95.73-43.11-191.5-43.54z"/></clipPath><clipPath clipPathUnits="userSpaceOnUse" id="cp72"><path d="m246-45.05c-95.77 0.43-191.5 15.14-191.5 43.54 45.31-5.89 114.26-9.65 191.5-9.65 77.24 0 146.19 3.76 191.5 9.65 0-28.4-95.73-43.11-191.5-43.54z"/></clipPath><clipPath clipPathUnits="userSpaceOnUse" id="cp73"><path d="m246-45.05c-95.77 0.43-191.5 15.14-191.5 43.54 45.31-5.89 114.26-9.65 191.5-9.65 77.24 0 146.19 3.76 191.5 9.65 0-28.4-95.73-43.11-191.5-43.54z"/></clipPath><clipPath clipPathUnits="userSpaceOnUse" id="cp74"><path d="m246-45.05c-95.77 0.43-191.5 15.14-191.5 43.54 45.31-5.89 114.26-9.65 191.5-9.65 77.24 0 146.19 3.76 191.5 9.65 0-28.4-95.73-43.11-191.5-43.54z"/></clipPath><clipPath clipPathUnits="userSpaceOnUse" id="cp75"><path d="m246-45.05c-95.77 0.43-191.5 15.14-191.5 43.54 45.31-5.89 114.26-9.65 191.5-9.65 77.24 0 146.19 3.76 191.5 9.65 0-28.4-95.73-43.11-191.5-43.54z"/></clipPath><clipPath clipPathUnits="userSpaceOnUse" id="cp76"><path d="m246-45.05c-95.77 0.43-191.5 15.14-191.5 43.54 45.31-5.89 114.26-9.65 191.5-9.65 77.24 0 146.19 3.76 191.5 9.65 0-28.4-95.73-43.11-191.5-43.54z"/></clipPath><clipPath clipPathUnits="userSpaceOnUse" id="cp77"><path d="m246-45.05c-95.77 0.43-191.5 15.14-191.5 43.54 45.31-5.89 114.26-9.65 191.5-9.65 77.24 0 146.19 3.76 191.5 9.65 0-28.4-95.73-43.11-191.5-43.54z"/></clipPath><clipPath clipPathUnits="userSpaceOnUse" id="cp78"><path d="m246-45.05c-95.77 0.43-191.5 15.14-191.5 43.54 45.31-5.89 114.26-9.65 191.5-9.65 77.24 0 146.19 3.76 191.5 9.65 0-28.4-95.73-43.11-191.5-43.54z"/></clipPath><clipPath clipPathUnits="userSpaceOnUse" id="cp79"><path d="m246-45.05c-95.77 0.43-191.5 15.14-191.5 43.54 45.31-5.89 114.26-9.65 191.5-9.65 77.24 0 146.19 3.76 191.5 9.65 0-28.4-95.73-43.11-191.5-43.54z"/></clipPath><clipPath clipPathUnits="userSpaceOnUse" id="cp80"><path d="m246-45.05c-95.77 0.43-191.5 15.14-191.5 43.54 45.31-5.89 114.26-9.65 191.5-9.65 77.24 0 146.19 3.76 191.5 9.65 0-28.4-95.73-43.11-191.5-43.54z"/></clipPath><clipPath clipPathUnits="userSpaceOnUse" id="cp81"><path d="m246-45.05c-95.77 0.43-191.5 15.14-191.5 43.54 45.31-5.89 114.26-9.65 191.5-9.65 77.24 0 146.19 3.76 191.5 9.65 0-28.4-95.73-43.11-191.5-43.54z"/></clipPath><clipPath clipPathUnits="userSpaceOnUse" id="cp82"><path d="m246-45.05c-95.77 0.43-191.5 15.14-191.5 43.54 45.31-5.89 114.26-9.65 191.5-9.65 77.24 0 146.19 3.76 191.5 9.65 0-28.4-95.73-43.11-191.5-43.54z"/></clipPath><clipPath clipPathUnits="userSpaceOnUse" id="cp83"><path d="m246-45.05c-95.77 0.43-191.5 15.14-191.5 43.54 45.31-5.89 114.26-9.65 191.5-9.65 77.24 0 146.19 3.76 191.5 9.65 0-28.4-95.73-43.11-191.5-43.54z"/></clipPath><clipPath clipPathUnits="userSpaceOnUse" id="cp84"><path d="m246-45.05c-95.77 0.43-191.5 15.14-191.5 43.54 45.31-5.89 114.26-9.65 191.5-9.65 77.24 0 146.19 3.76 191.5 9.65 0-28.4-95.73-43.11-191.5-43.54z"/></clipPath><clipPath clipPathUnits="userSpaceOnUse" id="cp85"><path d="m246-45.05c-95.77 0.43-191.5 15.14-191.5 43.54 45.31-5.89 114.26-9.65 191.5-9.65 77.24 0 146.19 3.76 191.5 9.65 0-28.4-95.73-43.11-191.5-43.54z"/></clipPath><clipPath clipPathUnits="userSpaceOnUse" id="cp86"><path d="m246-45.05c-95.77 0.43-191.5 15.14-191.5 43.54 45.31-5.89 114.26-9.65 191.5-9.65 77.24 0 146.19 3.76 191.5 9.65 0-28.4-95.73-43.11-191.5-43.54z"/></clipPath><clipPath clipPathUnits="userSpaceOnUse" id="cp87"><path d="m246-45.05c-95.77 0.43-191.5 15.14-191.5 43.54 45.31-5.89 114.26-9.65 191.5-9.65 77.24 0 146.19 3.76 191.5 9.65 0-28.4-95.73-43.11-191.5-43.54z"/></clipPath><clipPath clipPathUnits="userSpaceOnUse" id="cp88"><path d="m246-45.05c-95.77 0.43-191.5 15.14-191.5 43.54 45.31-5.89 114.26-9.65 191.5-9.65 77.24 0 146.19 3.76 191.5 9.65 0-28.4-95.73-43.11-191.5-43.54z"/></clipPath><clipPath clipPathUnits="userSpaceOnUse" id="cp89"><path d="m246-45.05c-95.77 0.43-191.5 15.14-191.5 43.54 45.31-5.89 114.26-9.65 191.5-9.65 77.24 0 146.19 3.76 191.5 9.65 0-28.4-95.73-43.11-191.5-43.54z"/></clipPath><clipPath clipPathUnits="userSpaceOnUse" id="cp90"><path d="m246-45.05c-95.77 0.43-191.5 15.14-191.5 43.54 45.31-5.89 114.26-9.65 191.5-9.65 77.24 0 146.19 3.76 191.5 9.65 0-28.4-95.73-43.11-191.5-43.54z"/></clipPath><clipPath clipPathUnits="userSpaceOnUse" id="cp91"><path d="m246-45.05c-95.77 0.43-191.5 15.14-191.5 43.54 45.31-5.89 114.26-9.65 191.5-9.65 77.24 0 146.19 3.76 191.5 9.65 0-28.4-95.73-43.11-191.5-43.54z"/></clipPath><clipPath clipPathUnits="userSpaceOnUse" id="cp92"><path d="m246-45.05c-95.77 0.43-191.5 15.14-191.5 43.54 45.31-5.89 114.26-9.65 191.5-9.65 77.24 0 146.19 3.76 191.5 9.65 0-28.4-95.73-43.11-191.5-43.54z"/></clipPath><clipPath clipPathUnits="userSpaceOnUse" id="cp93"><path d="m246-45.05c-95.77 0.43-191.5 15.14-191.5 43.54 45.31-5.89 114.26-9.65 191.5-9.65 77.24 0 146.19 3.76 191.5 9.65 0-28.4-95.73-43.11-191.5-43.54z"/></clipPath><clipPath clipPathUnits="userSpaceOnUse" id="cp94"><path d="m246-45.05c-95.77 0.43-191.5 15.14-191.5 43.54 45.31-5.89 114.26-9.65 191.5-9.65 77.24 0 146.19 3.76 191.5 9.65 0-28.4-95.73-43.11-191.5-43.54z"/></clipPath><clipPath clipPathUnits="userSpaceOnUse" id="cp95"><path d="m246-45.05c-95.77 0.43-191.5 15.14-191.5 43.54 45.31-5.89 114.26-9.65 191.5-9.65 77.24 0 146.19 3.76 191.5 9.65 0-28.4-95.73-43.11-191.5-43.54z"/></clipPath><clipPath clipPathUnits="userSpaceOnUse" id="cp96"><path d="m246-45.05c-95.77 0.43-191.5 15.14-191.5 43.54 45.31-5.89 114.26-9.65 191.5-9.65 77.24 0 146.19 3.76 191.5 9.65 0-28.4-95.73-43.11-191.5-43.54z"/></clipPath><clipPath clipPathUnits="userSpaceOnUse" id="cp97"><path d="m246-45.05c-95.77 0.43-191.5 15.14-191.5 43.54 45.31-5.89 114.26-9.65 191.5-9.65 77.24 0 146.19 3.76 191.5 9.65 0-28.4-95.73-43.11-191.5-43.54z"/></clipPath><clipPath clipPathUnits="userSpaceOnUse" id="cp98"><path d="m246-45.05c-95.77 0.43-191.5 15.14-191.5 43.54 45.31-5.89 114.26-9.65 191.5-9.65 77.24 0 146.19 3.76 191.5 9.65 0-28.4-95.73-43.11-191.5-43.54z"/></clipPath><clipPath clipPathUnits="userSpaceOnUse" id="cp99"><path d="m246-45.05c-95.77 0.43-191.5 15.14-191.5 43.54 45.31-5.89 114.26-9.65 191.5-9.65 77.24 0 146.19 3.76 191.5 9.65 0-28.4-95.73-43.11-191.5-43.54z"/></clipPath><clipPath clipPathUnits="userSpaceOnUse" id="cp100"><path d="m246-45.05c-95.77 0.43-191.5 15.14-191.5 43.54 45.31-5.89 114.26-9.65 191.5-9.65 77.24 0 146.19 3.76 191.5 9.65 0-28.4-95.73-43.11-191.5-43.54z"/></clipPath><clipPath clipPathUnits="userSpaceOnUse" id="cp101"><path d="m246-45.05c-95.77 0.43-191.5 15.14-191.5 43.54 45.31-5.89 114.26-9.65 191.5-9.65 77.24 0 146.19 3.76 191.5 9.65 0-28.4-95.73-43.11-191.5-43.54z"/></clipPath><clipPath clipPathUnits="userSpaceOnUse" id="cp102"><path d="m246-45.05c-95.77 0.43-191.5 15.14-191.5 43.54 45.31-5.89 114.26-9.65 191.5-9.65 77.24 0 146.19 3.76 191.5 9.65 0-28.4-95.73-43.11-191.5-43.54z"/></clipPath><clipPath clipPathUnits="userSpaceOnUse" id="cp103"><path d="m246-45.05c-95.77 0.43-191.5 15.14-191.5 43.54 45.31-5.89 114.26-9.65 191.5-9.65 77.24 0 146.19 3.76 191.5 9.65 0-28.4-95.73-43.11-191.5-43.54z"/></clipPath><clipPath clipPathUnits="userSpaceOnUse" id="cp104"><path d="m246-45.05c-95.77 0.43-191.5 15.14-191.5 43.54 45.31-5.89 114.26-9.65 191.5-9.65 77.24 0 146.19 3.76 191.5 9.65 0-28.4-95.73-43.11-191.5-43.54z"/></clipPath><clipPath clipPathUnits="userSpaceOnUse" id="cp105"><path d="m246-45.05c-95.77 0.43-191.5 15.14-191.5 43.54 45.31-5.89 114.26-9.65 191.5-9.65 77.24 0 146.19 3.76 191.5 9.65 0-28.4-95.73-43.11-191.5-43.54z"/></clipPath><clipPath clipPathUnits="userSpaceOnUse" id="cp106"><path d="m246-45.05c-95.77 0.43-191.5 15.14-191.5 43.54 45.31-5.89 114.26-9.65 191.5-9.65 77.24 0 146.19 3.76 191.5 9.65 0-28.4-95.73-43.11-191.5-43.54z"/></clipPath><clipPath clipPathUnits="userSpaceOnUse" id="cp107"><path d="m246-45.05c-95.77 0.43-191.5 15.14-191.5 43.54 45.31-5.89 114.26-9.65 191.5-9.65 77.24 0 146.19 3.76 191.5 9.65 0-28.4-95.73-43.11-191.5-43.54z"/></clipPath><clipPath clipPathUnits="userSpaceOnUse" id="cp108"><path d="m246-45.05c-95.77 0.43-191.5 15.14-191.5 43.54 45.31-5.89 114.26-9.65 191.5-9.65 77.24 0 146.19 3.76 191.5 9.65 0-28.4-95.73-43.11-191.5-43.54z"/></clipPath><clipPath clipPathUnits="userSpaceOnUse" id="cp109"><path d="m246-45.05c-95.77 0.43-191.5 15.14-191.5 43.54 45.31-5.89 114.26-9.65 191.5-9.65 77.24 0 146.19 3.76 191.5 9.65 0-28.4-95.73-43.11-191.5-43.54z"/></clipPath><clipPath clipPathUnits="userSpaceOnUse" id="cp110"><path d="m246-45.05c-95.77 0.43-191.5 15.14-191.5 43.54 45.31-5.89 114.26-9.65 191.5-9.65 77.24 0 146.19 3.76 191.5 9.65 0-28.4-95.73-43.11-191.5-43.54z"/></clipPath><clipPath clipPathUnits="userSpaceOnUse" id="cp111"><path d="m246-45.05c-95.77 0.43-191.5 15.14-191.5 43.54 45.31-5.89 114.26-9.65 191.5-9.65 77.24 0 146.19 3.76 191.5 9.65 0-28.4-95.73-43.11-191.5-43.54z"/></clipPath><clipPath clipPathUnits="userSpaceOnUse" id="cp112"><path d="m246-45.05c-95.77 0.43-191.5 15.14-191.5 43.54 45.31-5.89 114.26-9.65 191.5-9.65 77.24 0 146.19 3.76 191.5 9.65 0-28.4-95.73-43.11-191.5-43.54z"/></clipPath><clipPath clipPathUnits="userSpaceOnUse" id="cp113"><path d="m246-45.05c-95.77 0.43-191.5 15.14-191.5 43.54 45.31-5.89 114.26-9.65 191.5-9.65 77.24 0 146.19 3.76 191.5 9.65 0-28.4-95.73-43.11-191.5-43.54z"/></clipPath><clipPath clipPathUnits="userSpaceOnUse" id="cp114"><path d="m246-45.05c-95.77 0.43-191.5 15.14-191.5 43.54 45.31-5.89 114.26-9.65 191.5-9.65 77.24 0 146.19 3.76 191.5 9.65 0-28.4-95.73-43.11-191.5-43.54z"/></clipPath><clipPath clipPathUnits="userSpaceOnUse" id="cp115"><path d="m246-45.05c-95.77 0.43-191.5 15.14-191.5 43.54 45.31-5.89 114.26-9.65 191.5-9.65 77.24 0 146.19 3.76 191.5 9.65 0-28.4-95.73-43.11-191.5-43.54z"/></clipPath><clipPath clipPathUnits="userSpaceOnUse" id="cp116"><path d="m246-45.05c-95.77 0.43-191.5 15.14-191.5 43.54 45.31-5.89 114.26-9.65 191.5-9.65 77.24 0 146.19 3.76 191.5 9.65 0-28.4-95.73-43.11-191.5-43.54z"/></clipPath><clipPath clipPathUnits="userSpaceOnUse" id="cp117"><path d="m246-45.05c-95.77 0.43-191.5 15.14-191.5 43.54 45.31-5.89 114.26-9.65 191.5-9.65 77.24 0 146.19 3.76 191.5 9.65 0-28.4-95.73-43.11-191.5-43.54z"/></clipPath><linearGradient id="P" gradientUnits="userSpaceOnUse"/><radialGradient id="g1" cx="171.9" cy="406.6" r="142.3" href="#P"><stop stop-color="#fdd71e"/><stop offset="1" stop-color="#111915"/></radialGradient></defs><style>.a{opacity:.4;mix-blend-mode:overlay;fill:#f8edf3}.b{opacity:.8;mix-blend-mode:screen;fill:#fdd71e}.c{fill:url(#g1)}</style><path class="a" d="m246 0.8h63.8l181.7 756.2h-245.5-245.5l181.7-756.2z"/><path class="a" d="m246 0.8h56.8l162 756.2h-218.8-218.8l162-756.2z"/><path class="b" d="m206.7 0.8h39.3 39.3l119.7 756.2h-318z"/><g clip-path="url(#cp1)"></g><g clip-path="url(#cp2)"></g><g clip-path="url(#cp3)"></g><g clip-path="url(#cp4)"></g><g clip-path="url(#cp5)"></g><g clip-path="url(#cp6)"></g><g clip-path="url(#cp7)"></g><g clip-path="url(#cp8)"></g><g clip-path="url(#cp9)"></g><g clip-path="url(#cp10)"></g><g clip-path="url(#cp11)"></g><g clip-path="url(#cp12)"></g><g clip-path="url(#cp13)"></g><g clip-path="url(#cp14)"></g><g clip-path="url(#cp15)"></g><g clip-path="url(#cp16)"></g><g clip-path="url(#cp17)"></g><g clip-path="url(#cp18)"></g><g clip-path="url(#cp19)"></g><g clip-path="url(#cp20)"></g><g clip-path="url(#cp21)"></g><g clip-path="url(#cp22)"></g><g clip-path="url(#cp23)"></g><g clip-path="url(#cp24)"></g><g clip-path="url(#cp25)"></g><g clip-path="url(#cp26)"></g><g clip-path="url(#cp27)"></g><g clip-path="url(#cp28)"></g><g clip-path="url(#cp29)"></g><g clip-path="url(#cp30)"></g><g clip-path="url(#cp31)"></g><g clip-path="url(#cp32)"></g><g clip-path="url(#cp33)"></g><g clip-path="url(#cp34)"></g><g clip-path="url(#cp35)"></g><g clip-path="url(#cp36)"></g><g clip-path="url(#cp37)"></g><g clip-path="url(#cp38)"></g><g clip-path="url(#cp39)"></g><g clip-path="url(#cp40)"></g><g clip-path="url(#cp41)"></g><g clip-path="url(#cp42)"></g><g clip-path="url(#cp43)"></g><g clip-path="url(#cp44)"></g><g clip-path="url(#cp45)"></g><g clip-path="url(#cp46)"></g><g clip-path="url(#cp47)"></g><g clip-path="url(#cp48)"></g><g clip-path="url(#cp49)"></g><g clip-path="url(#cp50)"></g><g clip-path="url(#cp51)"></g><g clip-path="url(#cp52)"></g><g clip-path="url(#cp53)"></g><g clip-path="url(#cp54)"></g><g clip-path="url(#cp55)"></g><g clip-path="url(#cp56)"></g><g clip-path="url(#cp57)"></g><g clip-path="url(#cp58)"></g><g clip-path="url(#cp59)"></g><g clip-path="url(#cp60)"></g><g clip-path="url(#cp61)"></g><g clip-path="url(#cp62)"></g><g clip-path="url(#cp63)"></g><g clip-path="url(#cp64)"></g><g clip-path="url(#cp65)"></g><g clip-path="url(#cp66)"></g><g clip-path="url(#cp67)"></g><g clip-path="url(#cp68)"></g><g clip-path="url(#cp69)"></g><g clip-path="url(#cp70)"></g><g clip-path="url(#cp71)"></g><g clip-path="url(#cp72)"></g><g clip-path="url(#cp73)"></g><g clip-path="url(#cp74)"></g><g clip-path="url(#cp75)"></g><g clip-path="url(#cp76)"></g><g clip-path="url(#cp77)"></g><g clip-path="url(#cp78)"></g><g clip-path="url(#cp79)"></g><g clip-path="url(#cp80)"></g><g clip-path="url(#cp81)"></g><g clip-path="url(#cp82)"></g><g clip-path="url(#cp83)"></g><g clip-path="url(#cp84)"></g><g clip-path="url(#cp85)"></g><g clip-path="url(#cp86)"></g><g clip-path="url(#cp87)"></g><g clip-path="url(#cp88)"></g><g clip-path="url(#cp89)"></g><g clip-path="url(#cp90)"></g><g clip-path="url(#cp91)"></g><g clip-path="url(#cp92)"></g><g clip-path="url(#cp93)"></g><g clip-path="url(#cp94)"></g><g clip-path="url(#cp95)"></g><g clip-path="url(#cp96)"></g><g clip-path="url(#cp97)"></g><g clip-path="url(#cp98)"></g><g clip-path="url(#cp99)"></g><g clip-path="url(#cp100)"></g><g clip-path="url(#cp101)"></g><g clip-path="url(#cp102)"></g><g clip-path="url(#cp103)"></g><g clip-path="url(#cp104)"></g><g clip-path="url(#cp105)"></g><g clip-path="url(#cp106)"></g><g clip-path="url(#cp107)"></g><g clip-path="url(#cp108)"></g><g clip-path="url(#cp109)"></g><g clip-path="url(#cp110)"></g><g clip-path="url(#cp111)"></g><g clip-path="url(#cp112)"></g><g clip-path="url(#cp113)"></g><g clip-path="url(#cp114)"></g><g clip-path="url(#cp115)"></g><g clip-path="url(#cp116)"></g><g clip-path="url(#cp117)"></g><path class="c" d="m252.5 463.1c0-0.7-0.5-1.7-0.6-2.3-0.2-0.6-0.5-1.1-0.6-1.7-0.1-0.6-0.2-0.6-0.3-1.3-0.2-0.6-0.3-1.1-0.4-1.4-0.1-0.3-0.4-6.1-0.5-7.7-0.1-1.7-0.4-7.1-0.4-7.8 0.1-0.7 0-1.5 0.2-2 0.1-0.5 1.1-8.9 1.1-9.2 0-0.4-0.2-0.6-0.2-0.6 0 0 0-5.7 0.5-7.7 0.6-2 1.2-3.3 1.6-3.8 0.4-0.5 1.5-1.1 2.2-2.1 0.6-1.1 0.9-1.8 1.4-2.1 0.6-0.4 1.7-1 1.3-1.3-0.4-0.4-1.2-0.1-1.8 0.2-0.7 0.3-1.2 1.1-1.8 1.3-0.6 0.2-0.9 0.4-1.1 0-0.2-0.3 0.3-1.4 0.5-1.9 0.2-0.5 0.9-1.8 0.6-2.4-0.2-0.5-0.6-0.3-0.9 0.2-0.3 0.5-0.7 1.7-1.1 2.2-0.4 0.4-1.1 0.4-1.2 0.4-0.2-0.1-0.3-0.7-0.4-1.1-0.1-0.4-0.3-2.3-0.6-2.8-0.3-0.5-0.6-0.3-0.9-0.2-0.2 0.2 0 2.9 0 3.3 0.1 0.5-0.2 0.8-0.4 0.7-0.1 0-0.7-1.3-1-2.1-0.4-0.8-0.7-1.6-1.1-1.6-0.4 0-0.5 0.7-0.4 0.9 0 0.3 1.3 3.1 1.2 3.3-0.2 0.2-0.3 0.4-0.5 0.2-0.2-0.1-1.6-1.4-2-2.1-0.5-0.8-0.7-0.9-1-0.6-0.3 0.3 2.2 3.7 2.4 4.2 0.2 0.6 0.3 1.6 0.8 3.1 0.4 1.5 0.6 2 0.6 2 0 0-1.8 9-2 9-0.1 0.1-0.3 2.4-0.6 3.7-0.3 1.3-0.4 6.7-0.8 8.2-0.4 1.5-2 11.2-2 16.4 0 5.2-0.2 9.1-0.8 12.6-0.7 3.6-2.5 6.6-3.9 9.3-1.4 2.8-3.1 5.7-4 7.5-0.8 1.7-0.8 2.1-1.8 3.3-1 1.2-1.7 2.1-2.4 3.1-0.6 0.9-1.3 2.2-2.4 3.3-1 1-2 2.1-2 2.5 0 0.4 0.2 1.5 0.2 1.5 0 0-0.8 0.9-1.4 2-0.7 1.2-1.3 2.3-1.9 3-0.5 0.7-1.3 1.7-1.7 2.2-0.3 0.5-1 1.4-1.4 1.8-0.5 0.4-1.4 1.9-2.1 2.9-0.8 0.9-7.7 10.9-9.3 13.8-1.7 2.8-2.4 4.5-2.9 4.9-0.5 0.4-0.6 0.5-1 0.9-0.4 0.5-0.4 0.6-0.8 1.2-0.4 0.6-0.6 0.9-0.9 1.2-0.4 0.4-0.3 0.5-0.6 0.8-0.3 0.2-2.9 3.2-5.5 5.7-2.6 2.6-6.3 7.1-7.1 7.7-0.7 0.6-0.9 0.5-1.3 1-0.5 0.5-0.8 1.1-1.4 1.6-0.5 0.5-0.7 1.2-0.7 1.2 0 0-1.2 0-1.7 0.4-0.5 0.3-0.5 1-1.2 1.6-0.6 0.6-5.4 4-7.2 5.1-1.8 1-3.1 1.9-3.7 2.7-0.6 0.8-0.4 1.8 0.2 2.3 0.7 0.5 4.9 1.1 6.5 0.5 1.5-0.5 3.5-3 4.6-3.3 1.1-0.3 1.5-0.3 1.5-0.3 0 0 0.4 0.5 0.9 0.4 0.6 0 3.3-0.6 3.6-1.1 0.4-0.5 0.5-1.3 0.5-1.4-0.1-0.1 0.7-1.7 0.7-2.5 0.1-0.8 0.1-1.4 0.1-1.4 0 0 4.3-3.7 6.1-5.3 1.7-1.6 6.8-4.7 8.8-6.7 2-2.1 3.1-3.2 3.9-3.7 0.7-0.4 3.8-3.2 6.5-6.2 2.8-3 13-10.6 14.4-11.2 1.5-0.6 2.1-0.8 2.6-0.3 0.5 0.4 3.5 11.7 3.9 16.9 0.5 5.3 2.2 11.9 3 14.4 0.9 2.5 3.6 16.1 3.9 17.4 0.2 1.2 0 1.4 0.2 2.2 0.1 0.8 0.3 1.3 0.2 1.7-0.1 0.3-0.3 0.3-0.3 0.9 0.1 0.6 0.1 1 0.3 1.1 0.3 0.2 0.8 0.6 0.8 1 0.1 0.3-0.2 1-0.3 2.3-0.1 1.3 0.3 6.3-0.3 8.3-0.5 1.9-0.6 3.7 0.1 5.2 0.6 1.6 2.5 2.1 3.6 1.8 1.1-0.2 3.1-3.4 3.4-5.7 0.4-2.2-0.3-4.3-0.5-6.2-0.1-1.8-0.8-5.4-1-6.1-0.1-0.6-0.3-0.6-0.2-0.9 0.1-0.2 0.6-0.5 0.3-1.7l-0.3-1.5c0 0 0.4-11.6-0.3-15-0.7-3.3-1.3-6.7-1.2-7.8 0-1-0.1-1.8-0.1-2.4 0-0.7 0-1.5 0-1.5 0 0 1.4-18 1.7-19.7 0.4-1.6 0.3-2.1 0.4-3.5 0-1.5 0-5.7 0.2-6.9 0.2-1.2 0.6-3.4 0.8-4.6 0.2-1.3 0.3-1.7 0.4-1.9 0.2-0.2 1.1-5.2 1.2-6.3 0.2-1 0.3-2.1 0.3-2.8 0.1-0.7 0.3-1.4 0.3-1.8 0.1-0.4 0.1-0.9 0.1-0.9 0 0 0.5-2.4 2.4-5.1 1.9-2.8 3.2-4.4 4.1-4.9 0.8-0.6 6.2-4.3 7.2-4.7 1-0.3 12.3 0.6 15.3 0.3 3-0.3 4.1-0.4 4.8-0.4 0.7 0.1 0.9 0.2 1.5 0.1 0.6 0 6.4 0.7 9.1 0.6 2.7-0.1 4.2-0.4 4.3-0.6l0.1-0.2q0.4-0.1 0.8-0.1c1.2-0.1 3.6-0.2 4.6-0.2q0.3 0.1 0.6 0.2c1.5 0.4 2.5 0.5 3.1 0.7 0.6 0.2 3.9 2.7 4.2 2.4 0.3-0.3 0.2-0.5-0.5-1-0.8-0.4-2.1-1.7-2.2-1.9-0.1-0.2 0-0.4 0.2-0.5 0.2-0.2 3.1 1.1 3.3 1.1 0.3 0.1 0.9 0 0.9-0.4 0-0.4-0.7-0.7-1.5-1.1-0.9-0.3-2.2-0.9-2.2-1 0-0.2 0.2-0.4 0.7-0.4 0.5 0 3.2 0.2 3.3 0 0.1-0.3 0.3-0.6-0.2-0.9-0.5-0.3-2.3-0.4-2.8-0.6-0.4-0.1-0.9-0.2-1-0.4-0.1-0.1-0.1-0.8 0.4-1.2 0.4-0.4 1.7-0.8 2.1-1.1 0.5-0.3 0.8-0.7 0.2-0.9-0.6-0.3-1.9 0.4-2.4 0.6-0.5 0.2-1.5 0.8-1.9 0.5-0.3-0.2-0.2-0.5 0-1.1 0.2-0.6 1-1.1 1.3-1.8 0.4-0.6 0.6-1.4 0.3-1.8-0.4-0.4-0.9 0.7-1.3 1.3-0.4 0.5-1.1 0.8-2.2 1.4-1 0.7-1.6 1.8-2.1 2.2-0.5 0.4-0.3 1.3-3.8 1.6q-0.2 0-0.5 0h-1.7c0 0-1-0.5-2.5-0.6-1.6-0.1-8.9-0.2-10.6-0.1-1.6 0.1-2-0.1-4.3-0.6-2.4-0.5-5.7-0.6-8.8-1.4-3.2-0.8-6.4-2-7.6-2.5-1.1-0.4-2.2-0.6-2.6-0.7-0.3 0-1.5-0.1-1.5-0.1l1-1.2c0 0 2.2-0.4 3.9-1.4 1.7-1 3.5-3.3 4.3-4.7 0.7-1.5 0.5-2.4 0.5-2.4 0 0 0.7-2.9-1.2-5.1-1.9-2.1-6.9-2.2-9.1-1.9-2.2 0.3-5.2 3.1-5.9 4.5-0.7 1.4-1.2 3-1.4 3.1-0.3 0.1-1.4 1.2-1.4 1.2z"/></svg>