<svg version="1.2" xmlns="http://www.w3.org/2000/svg" viewBox="0 0 183 134" width="183" height="134"><defs><linearGradient id="P" gradientUnits="userSpaceOnUse"/><linearGradient id="g1" x1="93.4" y1="-14.9" x2="175.3" y2="54.7" href="#P"><stop stop-color="#4d4d4d"/><stop offset="1" stop-color="#1a1a1a"/></linearGradient><linearGradient id="g2" x1="96" y1="51.1" x2="93" y2="76.7" href="#P"><stop stop-color="#383838"/><stop offset="1" stop-color="#1a1a1a"/></linearGradient></defs><style>.a{fill:#1a1a1a}.b{fill:#999}.c{fill:#ccc}.d{fill:#262626}.e{fill:#696969}.f{fill:#333}.g{fill:#4d4d4d}.h{fill:#9c9c9c}.i{fill:#666}.j{fill:#404040}.k{fill:#ff9d26}.l{fill:#7ac29f}.m{fill:url(#g1)}.n{fill:#e6e6e6}.o{fill:#588c73}.p{fill:#fe8101}.q{fill:url(#g2)}.r{mix-blend-mode:multiply;fill:#999}.s{mix-blend-mode:screen;fill:#1a1a1a}.t{fill:#808080}.u{mix-blend-mode:screen;fill:#4d4d4d}.v{fill:#addce4}.w{fill:#ccf8ff}.x{fill:#ffed78}.y{mix-blend-mode:screen;fill:#999}.z{fill:#a0ffd1}</style><path class="a" d="m182.4 43.4v-4.2l-34.2 8.4v4.2z"/><path class="b" d="m148.2 47.6l-25-21.6 45 0.8 14.2 12.4z"/><path class="c" d="m168.2 26.8h-1.9l13.7 11.8-32.8 8.1 1 0.9 34.2-8.4z"/><path class="d" d="m111.2 25.5c0 1.5-0.5 2.7-1.2 3.3l-0.4 0.3q-0.1 0-0.1 0l-1.3 0.9 0.2-0.6 1.2-2.9z"/><path class="b" d="m97.2 2.2l-1.6 1-2.3-0.2-0.6-0.1 1.3-0.8 0.3-0.2 0.3-0.1c0.7-0.3 1.6-0.2 2.6 0.4z"/><path class="b" d="m111.2 16.2l-1.6 1-1.5-4.9-2.9-3.6 1.5-1c2.5 1.4 4.5 5.2 4.5 8.5z"/><path class="e" d="m109.6 17.2v9.3c0 1.7-0.5 3-1.4 3.5q-0.1 0.1-0.1 0.1c-0.8 0.4-1.8 0.4-2.9-0.2q0-0.1 0-0.1l-9.6-5.5c-2.4-1.4-4.4-5.2-4.4-8.5v-9.3c0-3.2 2-4.8 4.4-3.3l9.6 5.5c2.5 1.4 4.4 5.2 4.4 8.5z"/><path class="f" d="m95.6 3.2l-2.7-0.3-14.1-1.7-0.4 0.7-1.7-1.4 16.6 2.2h0.1c0.7-0.2 1.4 0 2.2 0.5z"/><path class="c" d="m105.2 8.7l1.5-1-9.5-5.5-1.6 1z"/><path class="g" d="m109.6 17.2v9.3l1.6-1v-9.3z"/><path class="a" d="m109.6 26.5c0 1.7-0.5 3-1.4 3.5l-0.1 0.1-11.2 9.6-0.4-4.4 2.4-0.7 6.3-4.7z"/><path class="f" d="m109.6 17.2l-10.7 4.1-6.4-12.2 12.7-0.4c2.5 1.4 4.4 5.2 4.4 8.5z"/><path class="h" d="m98.9 21.3v13.3c0 3.4-1.5 5.5-3.7 5.6q-0.1 0-0.3 0-1.1 0-2.4-0.7l-5.2-3.1h-0.1l-0.9-0.6-7.4-4.2c-3.6-2.1-6.4-7.5-6.4-12.2v-13.3q0-1.6 0.4-2.8l0.1-0.3c1-2.5 3.2-3.3 5.9-1.8l13.6 7.9c3.5 2.1 6.4 7.5 6.4 12.2z"/><path class="d" d="m109.6 26.5v-9.3l-10.7 4.1v13.3z"/><path class="i" d="m92.5 9.1l12.7-0.4-9.6-5.5-16.7-2z"/><path class="i" d="m98.3 17.5l-17.2 15.4-49.5 44.2-3.8-15.4-19.3-22.5 66.1-38.3 0.8-0.3c1-0.3 2.2-0.1 3.4 0.6l13.7 7.9c2.6 1.5 4.8 4.9 5.8 8.4z"/><path class="c" d="m26.4 47.4l66.1-38.3-13.7-7.9-66 38.3z"/><path class="d" d="m173.8 109.8c-1.1 4.8-5 9.6-11.8 13.5l-5.4 3.2c-7.5 4.3-16.8 6.6-25.9 6.9l-0.1-0.1-0.1-3.5v-14q0.1-0.1 0.2-0.1c9.1-0.3 18.4-2.6 25.9-6.9l5.4-3.1c7.6-4.4 11.6-9.9 12-15.3l0.1 16.3q0 1.6-0.3 3.1z"/><path class="f" d="m168.1 104.1v10c-1.8 2.1-4.3 4.1-7.4 5.9l-5.4 3.2q-1.9 1.1-3.9 2v-11.6q3.4-1.3 6.4-3.1l5.5-3.1q2.7-1.6 4.8-3.3z"/><path class="c" d="m166.9 105v8.7c-1.8 2.1-4.3 4.1-7.4 5.9l-5.4 3.1q-1.3 0.8-2.7 1.5v1q2-0.9 3.9-2l5.4-3.2c3.1-1.8 5.6-3.8 7.4-5.9v-10q-0.5 0.5-1.2 0.9z"/><path class="j" d="m130.7 115.7v17.7c-4.3 0.1-8.6-0.2-12.6-1-4-0.8-7.7-2.1-10.8-3.9l-73.9-42.6c-5.6-3.3-8.4-7.5-8.5-12v-17.6c0.2 4.4 3 8.7 8.5 11.9l73.9 42.7c3.1 1.8 6.8 3.1 10.8 3.9 3.4 0.6 7 1 10.7 1q0.7 0 1.5 0 0.1 0 0.2 0 0.1-0.1 0.2-0.1z"/><path class="f" d="m130.7 115.7v17.7c-4.3 0.1-8.6-0.2-12.6-1v-17.6c3.4 0.6 7 1 10.7 1q0.7 0 1.5 0 0.1 0 0.2 0 0.1-0.1 0.2-0.1z"/><path class="i" d="m174 90.4c-0.4 5.4-4.4 10.9-12 15.3l-5.4 3.1c-7.5 4.3-16.8 6.6-25.9 6.9q-0.1 0-0.2 0.1c-4.3 0.1-8.5-0.3-12.4-1-4-0.8-7.7-2.1-10.8-3.9l-73.9-42.7c-5.5-3.2-8.3-7.5-8.5-11.9q0-0.1 0-0.2c-0.1-5.7 3.9-11.7 12-16.3l5.5-3.2c14.6-8.4 36.6-9.3 49.3-2l73.8 42.6c5.4 3.1 8.2 7.1 8.5 11.4z"/><path class="i" d="m174 90.4v-1.8q0.1 0.9 0 1.8z"/><path class="k" d="m31.4 43.7q0.3-0.3 0.7-0.6-0.8 0.6-1.5 1.3-0.3 0.3-0.6 0.6-0.4 0.4-0.7 0.8-0.1 0.1-0.2 0.2 0.1-0.1 0.1-0.2 1-1.2 2.2-2.1z"/><path class="k" d="m126.2 115.7q1.2 0.1 2.4 0.1-0.6 0-1.2 0-0.6-0.1-1.2-0.1z"/><path class="l" d="m173.9 91.4c-0.2 1.6-0.8 3.1-1.5 4.5q-0.5 1-1.2 1.9 0 0 0 0c-2.3 3.3-5.8 5.9-9.2 7.9l-5.5 3.1c-7.9 4.6-18.2 7-27.9 7-10.1-26.3-31.2-51.8-54.6-65.3-15.7-9-30.3-11.6-41.3-7.9 0.5-0.3 0.9-0.6 1.2-0.8 0.8-0.5 1.5-1.1 2.3-1.7 1.5-1 3.1-1.8 4.6-2.7 1.6-1.1 3.4-1.9 5-2.9q5.4-3 10.8-6.1 5.2-2.9 10.5-5.9 4.3-2.4 8.7-4.9 2.6-1.5 5.3-3c0.5-0.3 1.4-0.7 1.9-1q0.5-0.2 1-0.4 2.1-0.8 4.2-1.3c3.1-0.6 6.2-0.9 9.4-0.7 3.5 0.1 6.9 0.7 10.3 1.6 3.9 1 7.6 2.3 11.2 4q3.8 1.7 7.5 3.8c6.2 3.6 12.1 7.9 17.5 12.7 5.9 5.1 11.3 10.8 16.3 16.9 4.5 5.6 7.7 12.9 9.7 19.8q1 3.4 1.8 6.9 0.5 2 0.9 4 0.5 2.8 1 5.6c0.2 1.6 0.4 3.3 0.1 4.9z"/><path class="m" d="m163.2 61.2l-28.1 16.2-17.6 10.1q-2.4-3.6-5.1-7c-4.6-6-9.7-11.7-15.2-16.8q-3.9-3.6-8-6.9-4.2-3.3-8.6-6.2-2.5-1.6-4.9-3l-0.8-0.5q-3.5-1.9-6.8-3.4c-7.3-3.4-14.5-5.4-21.1-5.9q0.2-0.2 0.5-0.3 5.4-3.1 10.8-6.1l10.5-5.9 1.7-1q1.8-1.1 3.6-2l3.4-2q2.6-1.5 5.3-2.9c0.4-0.3 1.2-0.7 1.6-0.9q0.4-0.1 0.8-0.3 1.9-0.7 3.8-1.2c2.1-0.4 4.5-0.7 6.9-0.7q0.8 0 1.5 0.1c3.1 0.1 6.3 0.6 9.7 1.4q3.6 1 7.3 2.5 1.6 0.6 3.3 1.4 3.6 1.6 7.2 3.7c5 2.8 9.9 6.3 14.7 10.3q1.1 0.9 2.2 1.9 3.1 2.7 6 5.6 3.2 3.2 6.2 6.6 1.9 2.1 3.7 4.4 1.1 1.3 2.1 2.8c1.3 1.9 2.4 4 3.4 6z"/><path class="n" d="m163.2 61.2l-1.4 0.8c-1.2-2.2-2.5-4.2-4.1-6.2-4.9-6.1-10.2-11.6-15.9-16.5-5.5-4.8-11.2-8.9-16.9-12.3q-3.6-2-7.2-3.7c-3.6-1.6-7.2-2.9-10.6-3.8-3.4-0.9-6.6-1.4-9.7-1.5q-0.7 0-1.5 0-1.3 0-2.6 0.1-2.3 0.2-4.3 0.6-1.9 0.4-3.8 1.1-0.4 0.2-0.8 0.4c-0.4 0.2-1.2 0.6-1.6 0.8q-2.7 1.5-5.3 3l-3.4 1.9q-2.7 1.5-5.3 3l-10.5 5.9q-3.2 1.8-6.4 3.6-2.5-0.4-4.9-0.6 0.2-0.2 0.5-0.3 5.4-3.1 10.8-6.1l10.5-5.9q2.6-1.6 5.3-3l3.4-2q2.6-1.5 5.3-2.9c0.4-0.3 1.2-0.7 1.6-0.9q0.4-0.1 0.8-0.3 1.9-0.7 3.8-1.2 2-0.4 4.3-0.6 1.3-0.1 2.6-0.1 0.8 0 1.5 0.1c3.1 0.1 6.3 0.6 9.7 1.4 3.4 0.9 7 2.2 10.6 3.9q3.6 1.6 7.2 3.7c5.7 3.3 11.4 7.4 16.9 12.2 5.7 4.9 11 10.5 15.9 16.6 2.2 2.7 4 5.8 5.5 8.8z"/><path class="o" d="m128.6 115.8q-0.6 0-1.2 0-0.6-0.1-1.2-0.1-0.2 0-0.4 0-0.1 0-0.2 0-0.5 0-1-0.1-0.6 0-1.2-0.1 0 0-0.1 0-0.3 0-0.6 0-0.6-0.1-1.1-0.2-0.1 0-0.1 0-0.6 0-1.1-0.1-0.3-0.1-0.7-0.1-0.2-0.1-0.5-0.1-0.1 0-0.1-0.1-0.5 0-1.1-0.1-2-0.5-3.9-1-0.4-0.2-0.8-0.3-0.5-0.2-1-0.3-2.7-1-5-2.3l-73.9-42.7q-2.3-1.3-4-2.9 0 0-0.1-0.1-0.2-0.2-0.4-0.4-0.4-0.4-0.7-0.8-0.3-0.2-0.5-0.5 0-0.1-0.1-0.2-0.2-0.2-0.4-0.4-0.3-0.5-0.6-0.9-0.1-0.2-0.1-0.3-0.2-0.2-0.3-0.5 0 0 0-0.1-0.2-0.3-0.3-0.6-0.4-0.8-0.6-1.6-0.1-0.2-0.1-0.3-0.1-0.2-0.1-0.5 0-0.2-0.1-0.3 0-0.4-0.1-0.7 0-0.4 0-0.7 0-0.1 0-0.1 0-0.1 0-0.2 0 0 0 0 0-0.3 0-0.6 0-0.2 0-0.3 0-0.2 0-0.4 0.1-0.3 0.1-0.5 0-0.3 0.1-0.5 0-0.6 0.2-1.1 0.1-0.3 0.1-0.5 0.1-0.1 0.1-0.1 0.1-0.5 0.3-0.9 0.1-0.3 0.2-0.5 0.1-0.3 0.3-0.6 0.3-0.6 0.6-1.2 0.2-0.3 0.4-0.6 0.3-0.4 0.6-0.9 0.3-0.4 0.7-0.8 0.2-0.3 0.5-0.6 0.1-0.1 0.2-0.2 0.3-0.4 0.7-0.8 0.3-0.3 0.6-0.6 0.7-0.7 1.5-1.3 0 0 0 0 0.3-0.3 0.6-0.5c11-3.7 25.6-1.1 41.3 7.9 23.4 13.5 44.5 39 54.6 65.3z"/><path class="p" d="m32.7 42.6q0 0 0 0-0.3 0.2-0.6 0.5 0.3-0.3 0.6-0.5z"/><path class="p" d="m120.4 115.2q0.5 0.1 1.1 0.1-0.4 0-0.8-0.1 0 0-0.1 0-0.1 0-0.2 0z"/><path class="p" d="m123.3 115.5q0 0-0.1 0-0.2 0-0.5 0 0.3 0 0.6 0z"/><path class="q" d="m115.9 97.7q-1.1-0.7-2.2-1.3c-0.8-0.4-15.5-8.7-32.2-18-4.4-2.5-9-5.1-13.5-7.6-8.6-4.8-16.9-9.4-23.3-13-7.4-4.2-12.3-6.9-12.5-7.1q-0.4-0.2-0.5-0.6c-0.2-0.4-0.1-1.1 0.1-1.5 0.9-2.1 3.3-3.2 5.3-3.6 2.1-0.4 4.1-0.6 6.2-0.6 6.3 0 13.5 1.7 20.9 4.9q4 1.8 8.1 4.2l0.7 0.4q2.4 1.4 4.8 3c5.6 3.8 11.1 8.3 16.2 13.2q3.8 3.8 7.4 7.8c5.4 6.1 10.3 12.8 14.5 19.8z"/><path class="c" d="m34.9 49.8c-0.6-0.4-0.7-1.5-0.4-2.1 0.6-1.3 1.6-2.2 2.8-2.8q-0.1 0-0.2 0.1c-2 0.4-4.4 1.5-5.3 3.6-0.3 0.7-0.3 1.7 0.4 2.1 0.9 0.6 79.5 44.6 81.5 45.7q1.1 0.6 2.2 1.3-1.2-2-2.4-3.9c-14.6-8.2-77.8-43.5-78.6-44z"/><path class="r" d="m173.8 109.8c-1.1 4.8-5 9.6-11.8 13.5l-5.4 3.2c-7.5 4.3-16.8 6.6-25.9 6.9-4.3 0.1-8.6-0.2-12.6-1-4-0.8-7.7-2.1-10.8-3.9l-73.9-42.6c-5.6-3.3-8.4-7.5-8.5-12v-2.4h0.1l93.1 54.2 0.8 0.4c1.9 1.3 3.6 2.3 5.8 2.8q2.9 0.7 5.8 0.9 0.1 0 0.2 0c4.5 0.4 9-0.1 13.4-1.3 6.3-1.6 12.2-4.5 17.7-8.1 4.5-2.9 8.7-6.4 12-10.6z"/><path class="h" d="m116.9 108.9v13.3c0 3.4-1.5 5.5-3.7 5.6q-0.1 0-0.3 0-1.1 0-2.4-0.8l-5.2-3-1-0.6-7.4-4.3c-3.6-2-6.4-7.4-6.4-12.1v-13.4q0-1.6 0.4-2.8l0.1-0.2v-0.1c1-2.4 3.2-3.2 5.9-1.7l13.6 7.9c3.6 2.1 6.4 7.5 6.4 12.2z"/><path class="f" d="m116.9 108.9l-12.6 6-4.5-8.5 10.7-9.7c3.6 2.1 6.4 7.5 6.4 12.2z"/><path class="d" d="m116.9 108.9v13.3l-11.6 1.8-1 0.2v-9.3z"/><path class="a" d="m116.9 122.2c0 3.4-1.5 5.5-3.7 5.6h-0.3l-10.7 0.2 2.1-3.8 1-0.2z"/><path class="f" d="m96.9 88.8l-6.4 11.7-0.2 0.3-3.7 0.6 4.3-10.6 0.1-0.2v-0.1c1-2.4 3.2-3.2 5.9-1.7z"/><path class="d" d="m104.3 124.2c0 1.5-0.5 2.7-1.2 3.3l-0.4 0.3q0 0-0.1 0l-1.3 0.9 0.3-0.6 1.2-3z"/><path class="b" d="m90.3 100.8l-1.5 1-2.4-0.1-0.6-0.1 1.3-0.8 0.4-0.2 0.2-0.2c0.7-0.2 1.6-0.1 2.6 0.4z"/><path class="b" d="m104.3 114.9l-1.5 1-1.6-4.9-2.9-3.7 1.5-0.9c2.5 1.4 4.5 5.2 4.5 8.5z"/><path class="e" d="m98.3 128.5l-9.5-5.5c-2.5-1.4-4.5-5.2-4.5-8.5v-9.3c0-3.3 2-4.8 4.5-3.4l9.5 5.5c2.5 1.5 4.5 5.3 4.5 8.6v9.2c0 3.3-2 4.8-4.5 3.4z"/><path class="d" d="m101.7 115.9v9.2c0 1.4-0.4 2.9-1.6 2.9q-0.3 0-0.7-0.1-0.3-0.1-0.6-0.3l-0.7-0.4-0.7-0.4-1.1-0.7-3.2-1.8-0.8-0.5-0.6-0.3-0.6-0.3-1.8-1.1q-0.9-0.5-1.6-1.5-0.4-0.4-0.7-0.9c-0.6-1-1.1-2.2-1.4-3.4q-0.1-0.5-0.2-1.1 0-0.3 0-0.7v-9.3q0-0.2 0-0.4c0-0.6 0.1-1.1 0.4-1.6 0.2-0.5 0.6-0.8 1.2-0.8q0.6 0 1.2 0.3l0.8 0.5 0.9 0.5 0.3 0.2 1.1 0.6 2.9 1.7 1.1 0.6 0.9 0.5 1.4 0.9 0.2 0.1q0.6 0.3 1.2 0.9 0.4 0.4 0.7 0.9c0.7 0.9 1.3 2.1 1.6 3.3q0.2 0.6 0.3 1.1 0.1 0.7 0.1 1.4z"/><path class="c" d="m90.2 103.9h-0.2l-3.4 1.5-1 0.5-0.2 0.1v-0.8q0-0.2 0-0.4l0.8-0.4 2.8-1.2 0.9 0.5z"/><path class="c" d="m95.3 106.8l-2.8 1.2-1 0.5-3.4 1.5-0.9 0.4-1.8 0.8v-1.2l1.4-0.6 1-0.4 3.4-1.5 1-0.5 2-0.8z"/><path class="c" d="m99 109.2q0.4 0.4 0.7 0.9l-1.2 0.5-1 0.5-3.4 1.5-1 0.4-3.4 1.5-1 0.4-3.1 1.4q-0.1-0.5-0.2-1.1l3-1.3 1-0.4 3.4-1.5 0.9-0.4 3.5-1.5 0.9-0.5z"/><path class="c" d="m101.6 114.5l-1.5 0.6-1 0.5-3.4 1.5-1 0.4-3.4 1.5-1 0.4-2.6 1.2q-0.4-0.4-0.7-0.9l3-1.3 0.9-0.4 3.5-1.5 0.9-0.4 3.4-1.5 1-0.5 1.6-0.7q0.2 0.6 0.3 1.1z"/><path class="c" d="m101.7 118.5v1.1l-0.1 0.1-0.9 0.4-3.5 1.5-0.9 0.4-3.4 1.5-0.6 0.3-0.6-0.3-0.6-0.3 0.4-0.2 1-0.5 3.4-1.5 1-0.4 3.4-1.5 1-0.4z"/><path class="c" d="m101.7 123.7v1.1l-2.9 1.3-0.9 0.5-0.5 0.2-1.1-0.7 1.2-0.5 1-0.5z"/><path class="c" d="m101.7 119.9v3.2l-1-3-0.4-1-1.2-3.5-0.4-1-1.2-3.5-0.3-1-1-2.8 1.4 0.9 0.5 1.4 0.4 1 1.2 3.5 0.4 1 1.2 3.6 0.3 1z"/><path class="c" d="m99.4 127.9q-0.3-0.1-0.6-0.3l-0.7-0.4-0.2-0.6-0.4-1-1.2-3.6-0.4-1-1.2-3.5-0.3-1-1.3-3.5-0.3-1-1.3-3.5-0.3-1-1.2-3.6-0.1-0.2 0.3 0.2 1.1 0.6 0.9 2.5 0.3 1 1.2 3.6 0.4 1 1.2 3.5 0.4 1 1.2 3.5 0.3 1 1.3 3.5 0.3 1z"/><path class="c" d="m93.1 124.3l-0.8-0.5-0.6-0.3-0.2-0.5-1.2-3.6-0.3-1-1.3-3.5-0.3-1-1.2-3.5-0.4-1-1.2-3.5-0.2-0.7q0-0.2 0-0.4c0-0.6 0.1-1.1 0.4-1.6l0.4 1.2 0.4 1 1.2 3.6 0.3 1 1.3 3.5 0.3 1 1.2 3.5 0.4 1 1.2 3.5 0.4 1z"/><path class="b" d="m101.2 127.2q-0.5 0-1.2-0.4l-9.6-5.5c-2.1-1.3-3.9-4.7-3.9-7.6v-9.3c0-0.7 0.1-1.5 0.4-2-1.1 0-1.5 1.5-1.5 2.8v9.3c0 2.9 1.8 6.4 3.9 7.6l9.5 5.5q0.7 0.4 1.3 0.4c0.6 0 0.9-0.4 1.2-0.9q0 0.1-0.1 0.1z"/><path class="i" d="m99.8 106.4l10.7-9.7-13.6-7.9-6.6 12z"/><path class="c" d="m98.3 107.3l1.5-0.9-9.5-5.6-1.5 1z"/><path class="g" d="m102.8 115.9v9.2l1.5-0.9v-9.3z"/><path class="h" d="m32.8 59.6v13.3c0 3.4-1.5 5.5-3.7 5.6q-0.1 0-0.3 0-1.1-0.1-2.4-0.8l-5.2-3-1-0.6-7.4-4.3c-3.6-2-6.4-7.5-6.4-12.2v-13.3q0-1.6 0.4-2.8l0.1-0.3c1-2.4 3.2-3.2 5.9-1.7l13.6 7.9c3.5 2 6.4 7.5 6.4 12.2z"/><path class="f" d="m32.8 59.6l-12.6 5.9-4.5-8.5 10.7-9.6c3.5 2 6.4 7.5 6.4 12.2z"/><path class="d" d="m32.8 59.6v13.3l-11.6 1.8-1 0.1v-9.3z"/><path class="a" d="m32.8 72.9c0 3.4-1.5 5.5-3.7 5.6h-0.3l-10.8 0.2 2.2-3.9 1-0.1z"/><path class="f" d="m12.8 39.5l-6.4 11.6-0.2 0.4-3.8 0.6 4.4-10.6 0.1-0.3c1-2.4 3.2-3.2 5.9-1.7z"/><path class="d" d="m20.2 74.8c0 1.6-0.5 2.7-1.2 3.4l-0.4 0.3q0 0-0.1 0l-1.3 0.9 0.2-0.7 1.3-2.9z"/><path class="b" d="m6.2 51.5l-1.5 1-2.4-0.2h-0.6l1.3-0.8 0.4-0.3 0.2-0.1c0.7-0.2 1.6-0.1 2.6 0.4z"/><path class="b" d="m20.2 65.5l-1.5 1-1.6-4.8-2.9-3.7 1.5-1c2.5 1.5 4.5 5.3 4.5 8.5z"/><path class="e" d="m14.2 79.2l-9.5-5.5c-2.5-1.4-4.5-5.3-4.5-8.5v-9.3c0-3.3 2-4.8 4.5-3.4l9.5 5.5c2.5 1.4 4.5 5.2 4.5 8.5v9.3c0 3.3-2 4.8-4.5 3.4z"/><path class="d" d="m17.6 66.5v9.3c0 1.3-0.4 2.9-1.6 2.9q-0.3 0-0.7-0.2-0.3-0.1-0.6-0.2l-0.8-0.5-0.6-0.4-1.2-0.6-3.1-1.8-0.8-0.5-0.6-0.3-0.6-0.4-1.8-1q-0.9-0.6-1.7-1.5-0.3-0.4-0.6-0.9c-0.6-1-1.2-2.2-1.4-3.4q-0.1-0.6-0.2-1.1 0-0.4 0-0.7v-9.3q0-0.2 0-0.4c0-0.6 0.1-1.2 0.4-1.6 0.2-0.5 0.6-0.9 1.2-0.9q0.6 0 1.2 0.4l0.8 0.5 0.9 0.5 0.3 0.1 1.1 0.7 2.9 1.6 1.1 0.7 0.9 0.5 1.4 0.8 0.2 0.1q0.6 0.4 1.2 1 0.4 0.4 0.7 0.8c0.7 1 1.3 2.2 1.6 3.4q0.2 0.5 0.3 1 0.1 0.7 0.1 1.4z"/><path class="c" d="m6.1 54.5l-0.2 0.1-3.4 1.5-1 0.4-0.2 0.1v-0.7q0-0.2 0-0.4l0.8-0.4 2.8-1.2 0.9 0.5z"/><path class="c" d="m11.2 57.5l-2.8 1.2-1 0.4-3.4 1.5-0.9 0.5-1.8 0.7v-1.1l1.4-0.6 1-0.5 3.4-1.5 1-0.4 2-0.9z"/><path class="c" d="m14.9 59.9q0.4 0.4 0.7 0.8l-1.2 0.6-1 0.4-3.4 1.5-1 0.5-3.4 1.5-1 0.4-3.1 1.4q-0.1-0.6-0.2-1.1l3-1.3 1-0.4 3.4-1.5 0.9-0.5 3.5-1.5 0.9-0.4z"/><path class="c" d="m17.5 65.1l-1.6 0.7-0.9 0.4-3.4 1.6-1 0.4-3.4 1.5-1 0.4-2.7 1.2q-0.3-0.4-0.6-0.9l3-1.3 0.9-0.4 3.5-1.5 0.9-0.4 3.4-1.6 1-0.4 1.6-0.7q0.2 0.5 0.3 1z"/><path class="c" d="m17.6 69.2v1.1h-0.1l-0.9 0.5-3.5 1.5-0.9 0.4-3.5 1.5-0.5 0.3-0.6-0.3-0.6-0.4 0.4-0.2 1-0.4 3.4-1.5 1-0.4 3.4-1.5 1-0.5z"/><path class="c" d="m17.6 74.4v1.1l-2.9 1.3-1 0.4-0.4 0.2-1.2-0.6 1.3-0.6 1-0.4z"/><path class="c" d="m17.6 70.6v3.2l-1-3-0.4-1-1.2-3.6-0.4-1-1.2-3.5-0.3-1-1-2.7 1.4 0.8 0.5 1.5 0.4 1 1.2 3.5 0.3 1 1.3 3.5 0.3 1z"/><path class="c" d="m15.3 78.5q-0.3-0.1-0.6-0.2l-0.8-0.5-0.2-0.6-0.3-1-1.2-3.5-0.4-1-1.2-3.5-0.3-1-1.3-3.5-0.3-1-1.3-3.6-0.3-1-1.2-3.5-0.1-0.2 0.3 0.1 1.1 0.7 0.9 2.5 0.3 1 1.2 3.5 0.4 1 1.2 3.6 0.4 1 1.2 3.5 0.3 1 1.3 3.5 0.3 1z"/><path class="c" d="m9 75l-0.8-0.5-0.6-0.3-0.2-0.6-1.2-3.5-0.3-1-1.3-3.5-0.3-1-1.2-3.5-0.4-1-1.2-3.6-0.2-0.6q0-0.2 0-0.4c0-0.6 0.1-1.2 0.4-1.6l0.4 1.2 0.4 1 1.2 3.5 0.3 1 1.3 3.6 0.3 1 1.2 3.5 0.4 1 1.2 3.5 0.3 1z"/><path class="b" d="m17.1 77.8q-0.5 0-1.2-0.4l-9.6-5.5c-2.1-1.2-3.9-4.7-3.9-7.6v-9.3c0-0.7 0.1-1.4 0.4-2-1.1 0.1-1.5 1.6-1.5 2.9v9.3c0 2.9 1.8 6.3 3.9 7.6l9.5 5.5q0.7 0.4 1.3 0.4c0.5 0 0.9-0.4 1.2-0.9q0 0-0.1 0z"/><path class="i" d="m15.7 57l10.7-9.6-13.6-7.9-6.6 12z"/><path class="c" d="m14.2 58l1.5-1-9.5-5.5-1.5 1z"/><path class="g" d="m18.7 66.5v9.3l1.5-1v-9.3z"/><path class="b" d="m37 75.4l28.7 16.3-35.7 25.9-16.4-9.3z"/><path class="c" d="m30 116.5l-15.9-9-0.5 0.8 16.4 9.3 35.7-25.9-0.8-0.4z"/><path class="a" d="m65.7 91.7v3.5l-35.7 25.9v-3.5z"/><path class="e" d="m13.6 108.3v3.5l16.4 9.3v-3.5z"/><path class="s" d="m77.8 56.9l-33.1 0.9c-7.4-4.2-12.3-6.9-12.5-7.1q-0.4-0.2-0.5-0.6l32.5-0.8q4 1.8 8.1 4.2l0.7 0.4q2.4 1.4 4.8 3z"/><path class="s" d="m101.4 77.9l-19.9 0.5c-4.4-2.5-9-5.1-13.5-7.6l26-0.7q3.8 3.8 7.4 7.8z"/><path class="t" d="m93.3 14.6v3.5q-2.3 0.2-4.3 0.6-1.9 0.4-3.8 1.1-0.4 0.2-0.8 0.4c-0.4 0.2-1.2 0.6-1.6 0.8q-2.7 1.5-5.3 3l-3.4 1.9q-2.7 1.5-5.3 3l-10.5 5.9q-3.2 1.8-6.4 3.6-2.5-0.4-4.9-0.6 0.2-0.2 0.5-0.3 5.4-3.1 10.8-6.1l10.5-5.9q2.6-1.6 5.3-3l3.4-2q2.6-1.5 5.3-2.9c0.4-0.3 1.2-0.7 1.6-0.9q0.4-0.1 0.8-0.3 1.9-0.7 3.8-1.2 2-0.4 4.3-0.6z"/><path class="u" d="m139.6 33.9l-71.5 9.8c-7.3-3.4-14.5-5.4-21.1-5.9q0.2-0.2 0.5-0.3 5.4-3.1 10.8-6.1l10.5-5.9 1.7-1 43.9-6q1.6 0.6 3.3 1.4 3.6 1.6 7.2 3.7c5 2.8 9.9 6.3 14.7 10.3z"/><path class="u" d="m163.2 61.2l-28.1 16.2-22.7 3.1c-4.6-6-9.7-11.7-15.2-16.8l62.6-8.5c1.3 1.9 2.4 4 3.4 6z"/><path class="u" d="m154 48l-64.8 8.8q-4.2-3.3-8.6-6.2l67.2-9.2q3.2 3.2 6.2 6.6z"/><path class="v" d="m147 111.9c-0.4 0.5-0.9 0.8-1.4 1.1-2 1-4.3 1.5-6.5 1.9-1.6 0.3-3.3 0.6-5 0.8-1.5 0.1-3.1 0.3-4.6-0.1-1.1-0.3-2.2-1-2.8-2-0.3-0.6-0.5-1.3-0.7-2-0.6-2.4-1.7-5.1-1.9-7.7 0-0.7 0.1-1.2 0.3-1.7 0.4-0.5 1.1-0.9 2-1.2 4.7-1.5 10.1 0.3 14.2 2.7 2.2 1.4 3.9 3 5.7 4.9q0.9 0.9 1 1.7c0.1 0.6 0 1.1-0.3 1.6z"/><path class="w" d="m147.3 110.3q-0.1-0.8-1-1.7c-1.8-1.9-3.5-3.5-5.7-4.9-2.4-1.4-5.1-2.5-7.9-3 2.2 0.6 4.4 1.5 6.2 2.7 2.2 1.3 4 3 5.8 4.8q0.9 0.9 1 1.8c0.2 1.1-0.7 2.2-1.7 2.6-2.1 1-4.3 1.5-6.5 1.9-1.7 0.4-3.3 0.6-5 0.8-1.1 0.1-2.3 0.2-3.4 0.2q0.2 0 0.4 0.1c1.5 0.4 3.1 0.2 4.6 0.1 1.7-0.2 3.4-0.5 5-0.8 2.2-0.4 4.5-0.9 6.5-1.9 1-0.5 1.9-1.5 1.7-2.7z"/><path class="x" d="m138.9 107q-0.3-0.5-0.6-0.9c-0.6-0.9-1.4-1.7-2.3-2.2-1.9-1-5.4-1-6.9 0.6-0.9 0.9-1.1 2.4-0.8 3.7 0.5 2.4 2.6 4.4 5.1 4.8 1.7 0.2 3.5-0.3 4.8-1.5 1-1.1 1.3-2.5 0.9-4q-0.1-0.2-0.2-0.5z"/><path class="x" d="m143.5 109.8q-0.1-0.1-0.1-0.2-0.3-0.4-0.7-0.7c-0.6-0.3-1.6-0.3-2.1 0.2-0.3 0.3-0.3 0.7-0.2 1.1 0.1 0.7 0.8 1.3 1.5 1.4 0.5 0.1 1-0.1 1.4-0.4 0.3-0.3 0.4-0.8 0.3-1.2q-0.1-0.1-0.1-0.2z"/><path class="y" d="m147 111.9q-0.8 0-1.6 0c-4.4-0.1-8.6-1.3-12.8-2.8-2.5-0.9-5.1-1.9-6.9-3.9-0.8-0.8-1.4-1.9-1.3-3 0.4-0.5 1.1-0.9 2-1.2 4.7-1.5 10.1 0.3 14.2 2.7 2.2 1.4 3.9 3 5.7 4.9q0.9 0.9 1 1.7c0.1 0.6 0 1.1-0.3 1.6z"/><path class="v" d="m173.9 91.4q-0.1 0.6-0.2 1.2 0 0.1-0.1 0.2-0.2 0.8-0.5 1.6-0.2 0.4-0.3 0.7-0.2 0.4-0.4 0.8-0.4 0.7-0.7 1.3-0.2 0.3-0.5 0.6 0 0 0 0-0.2 0.2-0.4 0.3-0.2 0.1-0.4 0.1-0.1 0.1-0.3 0-0.1 0-0.2-0.1 0 0 0 0-0.3-0.2-0.4-0.5-0.2-0.4-0.4-0.8c-0.9-2.2-1.2-4.7-1.1-7.2 0.2-3.5 0.9-7.3 2.3-10.5 0.4-0.8 0.8-1.6 1.4-2.1q0.1-0.1 0.2-0.1 0.4 1.5 0.7 3.1 0.1 0.4 0.2 0.9 0.5 2.5 0.9 5.1 0 0.2 0.1 0.5 0 0.1 0 0.2 0 0.3 0 0.5c0.2 1.3 0.3 2.9 0.1 4.2z"/><path class="w" d="m173.9 91.4q-0.1 0.6-0.2 1.2 0 0.1-0.1 0.2-0.2 0.8-0.5 1.6-0.2 0.4-0.3 0.7-0.2 0.4-0.4 0.8-0.4 0.7-0.7 1.3-0.2 0.3-0.5 0.6 0 0 0 0-0.2 0.2-0.4 0.3-0.4 0.2-0.7 0.1-0.1 0-0.2-0.1c-0.2-0.1-0.3-0.3-0.4-0.5q-0.2-0.4-0.4-0.8 0.1 0.1 0.2 0.2c0.4 0.2 0.9 0 1.3-0.4q0.3-0.3 0.4-0.6 0.4-0.6 0.8-1.3c0.7-1.4 1.2-2.9 1.5-4.5q0.2-1.5 0.5-3c0.2 1.3 0.3 2.9 0.1 4.2z"/><path class="x" d="m168.8 92.9q0.1-0.2 0.1-0.3 0.2-0.5 0.4-0.9c0.4-0.4 1.3-0.6 1.8-0.2 0.3 0.2 0.4 0.6 0.4 1.1 0.1 0.8-0.3 1.5-0.9 1.8-0.4 0.2-0.9 0.1-1.3-0.2-0.3-0.2-0.5-0.7-0.5-1.1q0-0.1 0-0.2z"/><path class="x" d="m173.8 86.7q-0.1 0.3-0.3 0.5c-0.7 1.2-1.6 2-2.3 2-0.7 0-1.1-0.8-1.2-2q0-0.2 0-0.5 0.1-0.4 0.1-0.9c0.1-0.9 0.3-1.9 0.7-2.8 0.3-1.1 1.1-2.3 1.8-3q0.1 0.4 0.2 0.9 0.5 2.5 0.9 5.1 0 0.2 0.1 0.5 0 0.1 0 0.2z"/><path class="y" d="m171.8 78.8c0.1 3.4 0 6.9-0.2 10.3-0.1 3.1-0.3 6.3-1.7 9q-0.3-0.2-0.4-0.5-0.2-0.4-0.4-0.8c-0.9-2.2-1.2-4.7-1.1-7.2 0.2-3.5 0.9-7.3 2.3-10.5 0.4-0.8 0.8-1.6 1.4-2.1q0.1 0.9 0.1 1.8z"/><path class="o" d="m166.6 99.6l-14.6 8.5q0 0 0 0c-0.3-0.4-10.7-13.1-29-19.4l41.2-23.6c0 0-4.3 20.6 2.4 34.5z"/><path class="z" d="m164.2 65.1l-2 1.1c-0.7 4.4-3.1 21.4 2.6 33.5l-13.3 7.7q0.4 0.6 0.5 0.7 0 0 0 0l14.6-8.5c-6.7-13.9-2.4-34.5-2.4-34.5z"/></svg>