<svg version="1.2" xmlns="http://www.w3.org/2000/svg" viewBox="0 0 1500 789" width="1500" height="789"><defs><linearGradient id="P" gradientUnits="userSpaceOnUse"/><linearGradient id="g1" x1="355.8" y1="787.6" x2="355.8" y2="689.9" href="#P"><stop stop-color="#1f5498"/><stop offset="1" stop-color="#030035"/></linearGradient><linearGradient id="g2" x1="354.5" y1="671.2" x2="354.5" y2="613.5" href="#P"><stop stop-color="#1f5498"/><stop offset="1" stop-color="#030035"/></linearGradient><linearGradient id="g3" x1="236.7" y1="583.9" x2="236.7" y2="552.9" href="#P"><stop stop-color="#1f5498"/><stop offset="1" stop-color="#030035"/></linearGradient><linearGradient id="g4" x1="81.3" y1="677.8" x2="81.3" y2="604.1" href="#P"><stop stop-color="#1f5498"/><stop offset="1" stop-color="#030035"/></linearGradient><linearGradient id="g5" x1="417" y1="583.9" x2="417" y2="552.9" href="#P"><stop stop-color="#1f5498"/><stop offset="1" stop-color="#030035"/></linearGradient><linearGradient id="g6" x1="261.6" y1="677.8" x2="261.6" y2="604.1" href="#P"><stop stop-color="#1f5498"/><stop offset="1" stop-color="#030035"/></linearGradient><linearGradient id="g7" x1="-2321.9" y1="787.6" x2="-2321.9" y2="425.7" href="#P"><stop stop-color="#680174"/><stop offset="1" stop-color="#030035"/></linearGradient><linearGradient id="g8" x1="-310.3" y1="787.6" x2="-310.3" y2="322.7" href="#P"><stop stop-color="#1f5498"/><stop offset="1" stop-color="#030035"/></linearGradient><clipPath clipPathUnits="userSpaceOnUse" id="cp1"><path d="m678.74 787.64h-96.11l22.88-200.57-22.88-174.75 71.92-89.57h16.35c0 0-18.96 66.03 25.5 89.57l-17.66 187.66z"/></clipPath><linearGradient id="g9" x1="-224" y1="787.6" x2="-224" y2="412.3" href="#P"><stop stop-color="#1f5498"/><stop offset="1" stop-color="#030035"/></linearGradient><clipPath clipPathUnits="userSpaceOnUse" id="cp2"><path d="m582.63 412.32h22.88l60.16 375.32h-34.33z"/></clipPath><linearGradient id="g10" x1="-2016.1" y1="787.6" x2="-2016.1" y2="321.8" href="#P"><stop stop-color="#680174"/><stop offset="1" stop-color="#030035"/></linearGradient><linearGradient id="g11" x1="701.9" y1="753.3" x2="798" y2="753.3" href="#P"><stop stop-color="#680174"/><stop offset="1" stop-color="#030035"/></linearGradient><linearGradient id="g12" x1="-689.5" y1="787.6" x2="-689.5" y2="499.3" href="#P"><stop stop-color="#1f5498"/><stop offset="1" stop-color="#030035"/></linearGradient><linearGradient id="g13" x1="-2149.7" y1="787.6" x2="-2149.7" y2="386.5" href="#P"><stop stop-color="#1f5498"/><stop offset="1" stop-color="#030035"/></linearGradient><linearGradient id="g14" x1="-3070.4" y1="787.6" x2="-3070.4" y2="452.4" href="#P"><stop stop-color="#680174"/><stop offset="1" stop-color="#1f3269"/></linearGradient><linearGradient id="g15" x1="-2973.2" y1="787.6" x2="-2973.2" y2="452.4" href="#P"><stop stop-color="#680174"/><stop offset="1" stop-color="#1f3269"/></linearGradient><linearGradient id="g16" x1="433.9" y1="787.6" x2="433.9" y2="500.8" href="#P"><stop stop-color="#680174"/><stop offset="1" stop-color="#1f5498"/></linearGradient><linearGradient id="g17" x1="777.8" y1="787.6" x2="777.8" y2="734.7" href="#P"><stop stop-color="#680174"/><stop offset="1" stop-color="#1f3269"/></linearGradient><linearGradient id="g18" x1="860.7" y1="787.6" x2="860.7" y2="734.7" href="#P"><stop stop-color="#680174"/><stop offset="1" stop-color="#1f3269"/></linearGradient><linearGradient id="g19" x1="706.5" y1="534.2" x2="879.5" y2="234.6" href="#P"><stop stop-color="#680174"/><stop offset="1" stop-color="#030035"/></linearGradient><linearGradient id="g20" x1="692.5" y1="787.6" x2="692.5" y2="484.2" href="#P"><stop stop-color="#7c0174"/><stop offset="1" stop-color="#18004c"/></linearGradient><linearGradient id="g21" x1="680.7" y1="787.6" x2="680.7" y2="538" href="#P"><stop stop-color="#680174"/><stop offset="1" stop-color="#030035"/></linearGradient><linearGradient id="g22" x1="-2042.4" y1="787.6" x2="-2042.4" y2="509.1" href="#P"><stop stop-color="#1f5498"/><stop offset="1" stop-color="#030035"/></linearGradient><linearGradient id="g23" x1="-2052.5" y1="787.6" x2="-2052.5" y2="431" href="#P"><stop stop-color="#680174"/><stop offset="1" stop-color="#030035"/></linearGradient><linearGradient id="g24" x1="1055.1" y1="787.6" x2="1055.1" y2="763.1" href="#P"><stop stop-color="#1f5498"/><stop offset="1" stop-color="#030035"/></linearGradient><linearGradient id="g25" x1="785.7" y1="763.1" x2="785.7" y2="585.7" href="#P"><stop stop-color="#1f5498"/><stop offset="1" stop-color="#030035"/></linearGradient><clipPath clipPathUnits="userSpaceOnUse" id="cp3"><path d="m1039.74 763.07h48.73l-49.12-177.36c-18.84 77.37 0.39 177.36 0.39 177.36z"/></clipPath><linearGradient id="g26" x1="776" y1="713.6" x2="776" y2="532.3" href="#P"><stop stop-color="#1f5498"/><stop offset="1" stop-color="#030035"/></linearGradient><clipPath clipPathUnits="userSpaceOnUse" id="cp4"><path d="m1039.74 532.28c0 0 50.68 80.34 54.38 181.3h0.01c4.62-65.16-0.59-125.94-0.59-125.94z"/></clipPath><linearGradient id="g27" x1="-7075.2" y1="787.6" x2="-7075.2" y2="403.9" href="#P"><stop stop-color="#680174"/><stop offset="1" stop-color="#1f5498"/></linearGradient><linearGradient id="g28" x1="579" y1="787.6" x2="579" y2="403.9" href="#P"><stop stop-color="#680174"/><stop offset="1" stop-color="#1f5498"/></linearGradient><linearGradient id="g29" x1="541.1" y1="787.6" x2="541.1" y2="-4" href="#P"><stop stop-color="#a20b98" stop-opacity="1"/><stop offset=".5" stop-color="#680174" stop-opacity=".2"/><stop offset="1" stop-color="#030035" stop-opacity="0"/></linearGradient><linearGradient id="g30" x1="227.9" y1="787.6" x2="227.9" y2="-4" href="#P"><stop stop-color="#a20b98" stop-opacity="1"/><stop offset=".5" stop-color="#680174" stop-opacity=".2"/><stop offset="1" stop-color="#030035" stop-opacity="0"/></linearGradient><linearGradient id="g31" x1="-249.7" y1="787.6" x2="-249.7" y2="-4" href="#P"><stop stop-color="#a20b98" stop-opacity="1"/><stop offset=".5" stop-color="#680174" stop-opacity=".2"/><stop offset="1" stop-color="#030035" stop-opacity="0"/></linearGradient><linearGradient id="g32" x1="669.9" y1="787.6" x2="669.9" y2="-4" href="#P"><stop stop-color="#a20b98" stop-opacity="1"/><stop offset=".5" stop-color="#680174" stop-opacity=".2"/><stop offset="1" stop-color="#030035" stop-opacity="0"/></linearGradient><linearGradient id="g33" x1="-579.2" y1="787.6" x2="-579.2" y2="-4" href="#P"><stop stop-color="#a20b98" stop-opacity="1"/><stop offset=".5" stop-color="#680174" stop-opacity=".2"/><stop offset="1" stop-color="#030035" stop-opacity="0"/></linearGradient><linearGradient id="g34" x1="-2286" y1="787.6" x2="-2286" y2="-4" href="#P"><stop stop-color="#a20b98" stop-opacity="1"/><stop offset=".5" stop-color="#680174" stop-opacity=".2"/><stop offset="1" stop-color="#030035" stop-opacity="0"/></linearGradient></defs><style>.a{fill:url(#g1)}.b{fill:#030035}.c{fill:#2c3ba2}.d{fill:#45acef}.e{fill:url(#g2)}.f{fill:url(#g3)}.g{fill:url(#g4)}.h{fill:#1563b6}.i{fill:none;stroke:#45acef;stroke-width:2}.j{fill:url(#g5)}.k{fill:url(#g6)}.l{fill:url(#g7)}.m{fill:#a954b2}.n{fill:url(#g8)}.o{fill:#1f5498}.p{fill:url(#g9)}.q{fill:#680174}.r{fill:url(#g10)}.s{fill:#270d72}.t{fill:url(#g11)}.u{fill:none;stroke:#270d72;stroke-width:2}.v{fill:url(#g12)}.w{fill:#030035;stroke:#000;stroke-width:2}.x{fill:url(#g13)}.y{fill:none;stroke:#43acf0;stroke-width:2}.z{fill:url(#g14)}.A{fill:#60357c}.B{fill:#cfb2e2}.C{fill:url(#g15)}.D{fill:url(#g16)}.E{fill:#a893d6}.F{fill:url(#g17)}.G{fill:url(#g18)}.H{fill:url(#g19)}.I{fill:url(#g20)}.J{fill:url(#g21)}.K{fill:none;stroke:#a954b2;stroke-width:2}.L{fill:url(#g22)}.M{fill:url(#g23)}.N{fill:url(#g24)}.O{fill:none;stroke:#2c3ba2;stroke-width:2}.P{fill:url(#g25)}.Q{fill:url(#g26)}.R{fill:url(#g27)}.S{fill:url(#g28)}.T{fill:none;stroke:#a893d6;stroke-width:2}.U{mix-blend-mode:overlay;fill:url(#g29)}.V{opacity:.6;mix-blend-mode:screen;fill:url(#g30)}.W{opacity:.6;mix-blend-mode:screen;fill:url(#g31)}.X{opacity:.6;mix-blend-mode:screen;fill:url(#g32)}.Y{opacity:.6;mix-blend-mode:screen;fill:url(#g33)}.Z{opacity:.6;mix-blend-mode:screen;fill:url(#g34)}</style><path class="a" d="m528.6 787.6h-315.4v-97.7h315.4z"/><path class="b" d="m505.2 787.6h-268.5v-85h268.5z"/><path class="c" d="m502 689.9h-262.2v-12.1h262.2z"/><path class="d" d="m428.9 677.8h-116v-6.6h116z"/><path class="e" d="m415.8 643.7c-9.6-12.5-25.8-23-44.9-30.2-19.1 7.2-35.3 17.7-44.9 30.2-9.5 12.5-3.9 27.5-3.9 27.5h48.8 48.8c0 0 5.6-15-3.9-27.5z"/><path class="b" d="m368.8 613.5l2.1-14 2.1 14z"/><path class="b" d="m374.2 613.5c0 1.8-1.5 3.3-3.3 3.3-1.8 0-3.2-1.5-3.2-3.3 0-1.8 1.4-3.2 3.2-3.2 1.8 0 3.3 1.4 3.3 3.2z"/><path class="d" d="m326.5 666v-5.1c0-1.2 1-2.1 2.1-2.1 1.2 0 2.1 0.9 2.1 2.1v5.1z"/><path class="d" d="m335.9 666v-5.1c0-1.2 1-2.1 2.1-2.1 1.2 0 2.1 0.9 2.1 2.1v5.1z"/><path class="d" d="m345.3 666v-5.1c0-1.2 1-2.1 2.1-2.1 1.2 0 2.1 0.9 2.1 2.1v5.1z"/><path class="d" d="m354.7 666v-5.1c0-1.2 1-2.1 2.1-2.1 1.2 0 2.1 0.9 2.1 2.1v5.1z"/><path class="d" d="m364.1 666v-5.1c0-1.2 1-2.1 2.1-2.1 1.2 0 2.1 0.9 2.1 2.1v5.1z"/><path class="d" d="m373.5 666v-5.1c0-1.2 1-2.1 2.1-2.1 1.2 0 2.1 0.9 2.1 2.1v5.1z"/><path class="d" d="m382.9 666v-5.1c0-1.2 1-2.1 2.1-2.1 1.2 0 2.1 0.9 2.1 2.1v5.1z"/><path class="d" d="m392.3 666v-5.1c0-1.2 1-2.1 2.1-2.1 1.2 0 2.1 0.9 2.1 2.1v5.1z"/><path class="d" d="m401.7 666v-5.1c0-1.2 1-2.1 2.1-2.1 1.2 0 2.1 0.9 2.1 2.1v5.1z"/><path class="d" d="m411.1 666v-5.1c0-1.2 1-2.1 2.1-2.1 1.2 0 2.1 0.9 2.1 2.1v5.1z"/><path class="b" d="m293.4 587.1h-25.3v-3.2h25.3z"/><path class="d" d="m293.4 604.1h-25.3v-9.2h25.3z"/><path class="f" d="m286.2 583.9h-10.9v-31h10.9z"/><path class="g" d="m287.5 677.8h-13.6v-73.7h13.6z"/><path class="b" d="m289.1 562.5h-16.8v-4h16.8z"/><path class="h" d="m289.1 548.2c-0.9-3.3-8.4-5.9-8.4-9.2 0 3.3-7.4 5.9-8.4 9.2-0.9 3.3 2.9 4.7 2.9 4.7h5.5 5.6c0 0 3.8-1.4 2.8-4.7z"/><path class="i" d="m270.9 587.1v7.8"/><path class="i" d="m275.8 587.1v7.8"/><path class="i" d="m285.7 587.1v7.8"/><path class="i" d="m280.7 587.1v7.8"/><path class="i" d="m290.6 587.1v7.8"/><path class="b" d="m473.7 587.1h-25.2v-3.2h25.2z"/><path class="d" d="m473.7 604.1h-25.2v-9.2h25.2z"/><path class="j" d="m466.5 583.9h-10.9v-31h10.9z"/><path class="k" d="m467.9 677.8h-13.6v-73.7h13.6z"/><path class="b" d="m469.5 562.5h-16.8v-4h16.8z"/><path class="h" d="m469.5 548.2c-1-3.3-8.4-5.9-8.4-9.2 0 3.3-7.4 5.9-8.4 9.2-1 3.3 2.8 4.7 2.8 4.7h5.6 5.6c0 0 3.8-1.4 2.8-4.7z"/><path class="i" d="m451.2 587.1v7.8"/><path class="i" d="m456.1 587.1v7.8"/><path class="i" d="m466 587.1v7.8"/><path class="i" d="m461.1 587.1v7.8"/><path class="i" d="m470.9 587.1v7.8"/><path class="h" d="m298.9 787.6v-94.9c0-4.9 4-8.9 8.9-8.9 4.9 0 8.9 4 8.9 8.9v94.9z"/><path class="d" d="m311.9 694c0 2.3-1.8 4.1-4.1 4.1-2.3 0-4.2-1.8-4.2-4.1 0-2.3 1.9-4.2 4.2-4.2 2.3 0 4.1 1.9 4.1 4.2z"/><path class="d" d="m311.4 787.6h-7.3v-83.8h7.3z"/><path class="h" d="m425.2 787.6v-94.9c0-4.9 3.9-8.9 8.8-8.9 5 0 8.9 4 8.9 8.9v94.9z"/><path class="d" d="m438.2 694c0 2.3-1.9 4.1-4.2 4.1-2.3 0-4.1-1.8-4.1-4.1 0-2.3 1.8-4.2 4.1-4.2 2.3 0 4.2 1.9 4.2 4.2z"/><path class="d" d="m437.7 787.6h-7.3v-83.8h7.3z"/><path class="c" d="m242.1 787.6v-69.1c0-3.9 3.1-7.1 7-7.1 3.9 0 7.1 3.2 7.1 7.1v69.1z"/><path class="c" d="m261.4 787.6v-69.1c0-3.9 3.2-7.1 7.1-7.1 3.9 0 7 3.2 7 7.1v69.1z"/><path class="c" d="m280.8 787.6v-69.1c0-3.9 3.2-7.1 7-7.1 3.9 0 7.1 3.2 7.1 7.1v69.1z"/><path class="c" d="m323.2 787.6v-69.1c0-3.9 3.2-7.1 7.1-7.1 3.9 0 7 3.2 7 7.1v69.1z"/><path class="c" d="m343.5 787.6v-69.1c0-3.9 3.2-7.1 7.1-7.1 3.9 0 7 3.2 7 7.1v69.1z"/><path class="c" d="m384.2 787.6v-69.1c0-3.9 3.1-7.1 7-7.1 3.9 0 7.1 3.2 7.1 7.1v69.1z"/><path class="c" d="m404.5 787.6v-69.1c0-3.9 3.1-7.1 7-7.1 3.9 0 7.1 3.2 7.1 7.1v69.1z"/><path class="c" d="m363.9 787.6v-69.1c0-3.9 3.1-7.1 7-7.1 3.9 0 7.1 3.2 7.1 7.1v69.1z"/><path class="c" d="m447.3 787.6v-69.1c0-3.9 3.2-7.1 7.1-7.1 3.8 0 7 3.2 7 7.1v69.1z"/><path class="c" d="m466.7 787.6v-69.1c0-3.9 3.1-7.1 7-7.1 3.9 0 7.1 3.2 7.1 7.1v69.1z"/><path class="c" d="m486 787.6v-69.1c0-3.9 3.2-7.1 7.1-7.1 3.9 0 7 3.2 7 7.1v69.1z"/><path class="l" d="m544.2 787.6l11.4-361.9 11.4 361.9z"/><path class="b" d="m577.2 640.5h-43.2v-9.1h43.2z"/><path class="m" d="m562.7 649.7h-14.1l-14.6-9.2h43.2z"/><path class="b" d="m572.4 605.2h-33.6v-9.1h33.6z"/><path class="b" d="m572.4 590.5h-33.6v-9.2h33.6z"/><path class="m" d="m559.7 430.6h-8.2v-4.9h8.2z"/><path class="m" d="m576 596.1h-40.8v-5.6h40.8z"/><path class="b" d="m565.4 572.2h-19.6v-3.6h19.6z"/><path class="b" d="m565.4 563h-19.6v-3.6h19.6z"/><path class="b" d="m565.4 553.7h-19.6v-3.6h19.6z"/><path class="m" d="m561.1 614.4h-11l-11.3-9.2h33.6z"/><path class="b" d="m569.9 776.8h-28.6v-9.1h28.6z"/><path class="b" d="m575.5 787.6h-39.8v-10.8h39.8z"/><path class="n" d="m678.7 787.6h-96.1l22.9-200.5-22.9-174.8 72-89.6h16.3c0 0-19 66.1 25.5 89.6l-17.7 187.7z"/><g clip-path="url(#cp1)"><path class="c" d="m621.2 460.3h-51.5v-7.9h51.5z"/><path class="c" d="m621.2 478.7h-51.5v-7.8h51.5z"/><path class="c" d="m621.2 497.2h-51.5v-7.8h51.5z"/><path class="c" d="m621.2 515.7h-51.5v-7.9h51.5z"/><path class="c" d="m624.1 534.2h-54.4v-7.9h54.4z"/><path class="c" d="m624.1 552.6h-54.4v-7.8h54.4z"/><path class="c" d="m624.1 571.1h-54.4v-7.9h54.4z"/><path class="c" d="m624.1 589.6h-54.4v-7.9h54.4z"/><path class="c" d="m635.4 608h-65.7v-7.8h65.7z"/><path class="c" d="m635.4 626.5h-65.7v-7.8h65.7z"/><path class="c" d="m635.4 645h-65.7v-7.9h65.7z"/><path class="c" d="m635.4 663.4h-65.7v-7.8h65.7z"/><path class="c" d="m653.7 681.9h-84v-7.8h84z"/><path class="c" d="m653.7 700.4h-84v-7.9h84z"/><path class="c" d="m653.7 718.9h-84v-7.9h84z"/><path class="c" d="m653.7 737.3h-84v-7.8h84z"/><path class="c" d="m653.7 755.8h-84v-7.8h84z"/><path class="c" d="m653.7 774.3h-84v-7.9h84z"/><path class="c" d="m653.7 792.7h-84v-7.8h84z"/></g><path class="b" d="m670.9 322.7h-16.3l-72 89.6v9.8h96.1l17.7-9.8c-44.5-23.5-25.5-89.6-25.5-89.6z"/><path class="o" d="m678.7 787.6h-47.4l-25.8-198.9v-166.6h73.2z"/><path class="c" d="m665.3 422.1h-48.7v-19.3h48.7z"/><path class="o" d="m582.6 412.3h22.9l65.4-89.6h-16.3z"/><path class="p" d="m582.6 412.3h22.9l60.2 375.3h-34.4z"/><g clip-path="url(#cp2)"><path class="c" d="m631.8 437h-51.5v-7.8h51.5z"/><path class="d" d="m631.8 455.5h-51.5v-7.9h51.5z"/><path class="c" d="m631.8 473.9h-51.5v-7.8h51.5z"/><path class="d" d="m631.8 492.4h-51.5v-7.8h51.5z"/><path class="c" d="m634.8 510.9h-54.5v-7.9h54.5z"/><path class="d" d="m634.8 529.4h-54.5v-7.9h54.5z"/><path class="c" d="m634.8 547.8h-54.5v-7.8h54.5z"/><path class="d" d="m634.8 566.3h-54.5v-7.8h54.5z"/><path class="c" d="m646.1 584.8h-65.8v-7.9h65.8z"/><path class="d" d="m646.1 603.2h-65.8v-7.8h65.8z"/><path class="c" d="m646.1 621.7h-65.8v-7.8h65.8z"/><path class="d" d="m646.1 640.2h-65.8v-7.9h65.8z"/><path class="c" d="m664.4 658.7h-84.1v-7.9h84.1z"/><path class="d" d="m664.4 677.1h-84.1v-7.8h84.1z"/><path class="c" d="m664.4 695.6h-84.1v-7.8h84.1z"/><path class="d" d="m664.4 714.1h-84.1v-7.9h84.1z"/><path class="c" d="m664.4 732.5h-84.1v-7.8h84.1z"/><path class="d" d="m664.4 751h-84.1v-7.8h84.1z"/><path class="c" d="m664.4 769.5h-84.1v-7.9h84.1z"/></g><path class="b" d="m710.7 312l80.4-50.1v525.7h-80.4z"/><path class="q" d="m769.5 787.6h21.6v-525.7l-21.6-18.6z"/><path class="q" d="m730.3 787.6h-19.6v-475.6h19.6z"/><path class="r" d="m769.5 787.6h-39.2v-465.8h39.2z"/><path class="m" d="m739.4 339.7h-4.4v-9.4h4.4z"/><path class="s" d="m747.9 339.7h-4.4v-9.4h4.4z"/><path class="s" d="m756.4 339.7h-4.4v-9.4h4.4z"/><path class="s" d="m764.9 339.7h-4.4v-9.4h4.4z"/><path class="s" d="m739.4 353.9h-4.4v-9.3h4.4z"/><path class="s" d="m747.9 353.9h-4.4v-9.3h4.4z"/><path class="m" d="m756.4 353.9h-4.4v-9.3h4.4z"/><path class="s" d="m764.9 353.9h-4.4v-9.3h4.4z"/><path class="s" d="m739.4 368.2h-4.4v-9.3h4.4z"/><path class="s" d="m747.9 368.2h-4.4v-9.3h4.4z"/><path class="s" d="m756.4 368.2h-4.4v-9.3h4.4z"/><path class="s" d="m764.9 368.2h-4.4v-9.3h4.4z"/><path class="s" d="m739.4 382.5h-4.4v-9.3h4.4z"/><path class="s" d="m747.9 382.5h-4.4v-9.3h4.4z"/><path class="m" d="m756.4 382.5h-4.4v-9.3h4.4z"/><path class="s" d="m764.9 382.5h-4.4v-9.3h4.4z"/><path class="s" d="m739.4 396.8h-4.4v-9.4h4.4z"/><path class="s" d="m747.9 396.8h-4.4v-9.4h4.4z"/><path class="s" d="m756.4 396.8h-4.4v-9.4h4.4z"/><path class="m" d="m764.9 396.8h-4.4v-9.4h4.4z"/><path class="s" d="m739.4 411h-4.4v-9.3h4.4z"/><path class="s" d="m747.9 411h-4.4v-9.3h4.4z"/><path class="m" d="m756.4 411h-4.4v-9.3h4.4z"/><path class="s" d="m764.9 411h-4.4v-9.3h4.4z"/><path class="s" d="m739.4 425.3h-4.4v-9.3h4.4z"/><path class="s" d="m747.9 425.3h-4.4v-9.3h4.4z"/><path class="s" d="m756.4 425.3h-4.4v-9.3h4.4z"/><path class="s" d="m764.9 425.3h-4.4v-9.3h4.4z"/><path class="s" d="m739.4 439.6h-4.4v-9.3h4.4z"/><path class="s" d="m747.9 439.6h-4.4v-9.3h4.4z"/><path class="m" d="m756.4 439.6h-4.4v-9.3h4.4z"/><path class="s" d="m764.9 439.6h-4.4v-9.3h4.4z"/><path class="s" d="m739.4 453.9h-4.4v-9.4h4.4z"/><path class="s" d="m747.9 453.9h-4.4v-9.4h4.4z"/><path class="s" d="m756.4 453.9h-4.4v-9.4h4.4z"/><path class="s" d="m764.9 453.9h-4.4v-9.4h4.4z"/><path class="m" d="m739.4 468.1h-4.4v-9.3h4.4z"/><path class="s" d="m747.9 468.1h-4.4v-9.3h4.4z"/><path class="s" d="m756.4 468.1h-4.4v-9.3h4.4z"/><path class="s" d="m764.9 468.1h-4.4v-9.3h4.4z"/><path class="s" d="m739.4 482.4h-4.4v-9.3h4.4z"/><path class="m" d="m747.9 482.4h-4.4v-9.3h4.4z"/><path class="s" d="m756.4 482.4h-4.4v-9.3h4.4z"/><path class="m" d="m764.9 482.4h-4.4v-9.3h4.4z"/><path class="s" d="m739.4 496.7h-4.4v-9.3h4.4z"/><path class="s" d="m747.9 496.7h-4.4v-9.3h4.4z"/><path class="s" d="m756.4 496.7h-4.4v-9.3h4.4z"/><path class="s" d="m764.9 496.7h-4.4v-9.3h4.4z"/><path class="s" d="m739.4 511h-4.4v-9.4h4.4z"/><path class="m" d="m747.9 511h-4.4v-9.4h4.4z"/><path class="s" d="m756.4 511h-4.4v-9.4h4.4z"/><path class="s" d="m764.9 511h-4.4v-9.4h4.4z"/><path class="m" d="m739.4 525.2h-4.4v-9.3h4.4z"/><path class="s" d="m747.9 525.2h-4.4v-9.3h4.4z"/><path class="m" d="m756.4 525.2h-4.4v-9.3h4.4z"/><path class="s" d="m764.9 525.2h-4.4v-9.3h4.4z"/><path class="s" d="m739.4 539.5h-4.4v-9.3h4.4z"/><path class="s" d="m747.9 539.5h-4.4v-9.3h4.4z"/><path class="s" d="m756.4 539.5h-4.4v-9.3h4.4z"/><path class="s" d="m764.9 539.5h-4.4v-9.3h4.4z"/><path class="s" d="m739.4 553.8h-4.4v-9.3h4.4z"/><path class="m" d="m747.9 553.8h-4.4v-9.3h4.4z"/><path class="s" d="m756.4 553.8h-4.4v-9.3h4.4z"/><path class="s" d="m764.9 553.8h-4.4v-9.3h4.4z"/><path class="s" d="m739.4 568h-4.4v-9.3h4.4z"/><path class="s" d="m747.9 568h-4.4v-9.3h4.4z"/><path class="m" d="m756.4 568h-4.4v-9.3h4.4z"/><path class="m" d="m764.9 568h-4.4v-9.3h4.4z"/><path class="s" d="m739.4 582.3h-4.4v-9.3h4.4z"/><path class="m" d="m747.9 582.3h-4.4v-9.3h4.4z"/><path class="s" d="m756.4 582.3h-4.4v-9.3h4.4z"/><path class="s" d="m764.9 582.3h-4.4v-9.3h4.4z"/><path class="s" d="m739.4 596.6h-4.4v-9.3h4.4z"/><path class="s" d="m747.9 596.6h-4.4v-9.3h4.4z"/><path class="m" d="m756.4 596.6h-4.4v-9.3h4.4z"/><path class="s" d="m764.9 596.6h-4.4v-9.3h4.4z"/><path class="s" d="m739.4 610.9h-4.4v-9.3h4.4z"/><path class="m" d="m747.9 610.9h-4.4v-9.3h4.4z"/><path class="s" d="m756.4 610.9h-4.4v-9.3h4.4z"/><path class="s" d="m764.9 610.9h-4.4v-9.3h4.4z"/><path class="m" d="m739.4 625.1h-4.4v-9.3h4.4z"/><path class="s" d="m747.9 625.1h-4.4v-9.3h4.4z"/><path class="s" d="m756.4 625.1h-4.4v-9.3h4.4z"/><path class="s" d="m764.9 625.1h-4.4v-9.3h4.4z"/><path class="s" d="m739.4 639.4h-4.4v-9.3h4.4z"/><path class="s" d="m747.9 639.4h-4.4v-9.3h4.4z"/><path class="m" d="m756.4 639.4h-4.4v-9.3h4.4z"/><path class="s" d="m764.9 639.4h-4.4v-9.3h4.4z"/><path class="m" d="m739.4 653.7h-4.4v-9.3h4.4z"/><path class="s" d="m747.9 653.7h-4.4v-9.3h4.4z"/><path class="s" d="m756.4 653.7h-4.4v-9.3h4.4z"/><path class="s" d="m764.9 653.7h-4.4v-9.3h4.4z"/><path class="s" d="m739.4 668h-4.4v-9.4h4.4z"/><path class="s" d="m747.9 668h-4.4v-9.4h4.4z"/><path class="m" d="m756.4 668h-4.4v-9.4h4.4z"/><path class="s" d="m764.9 668h-4.4v-9.4h4.4z"/><path class="s" d="m739.4 682.2h-4.4v-9.3h4.4z"/><path class="m" d="m747.9 682.2h-4.4v-9.3h4.4z"/><path class="s" d="m756.4 682.2h-4.4v-9.3h4.4z"/><path class="s" d="m764.9 682.2h-4.4v-9.3h4.4z"/><path class="s" d="m739.4 696.5h-4.4v-9.3h4.4z"/><path class="s" d="m747.9 696.5h-4.4v-9.3h4.4z"/><path class="s" d="m756.4 696.5h-4.4v-9.3h4.4z"/><path class="m" d="m764.9 696.5h-4.4v-9.3h4.4z"/><path class="s" d="m739.4 710.8h-4.4v-9.3h4.4z"/><path class="m" d="m747.9 710.8h-4.4v-9.3h4.4z"/><path class="s" d="m756.4 710.8h-4.4v-9.3h4.4z"/><path class="s" d="m764.9 710.8h-4.4v-9.3h4.4z"/><path class="m" d="m739.4 725.1h-4.4v-9.4h4.4z"/><path class="s" d="m747.9 725.1h-4.4v-9.4h4.4z"/><path class="s" d="m756.4 725.1h-4.4v-9.4h4.4z"/><path class="s" d="m764.9 725.1h-4.4v-9.4h4.4z"/><path class="s" d="m739.4 739.3h-4.4v-9.3h4.4z"/><path class="m" d="m747.9 739.3h-4.4v-9.3h4.4z"/><path class="s" d="m756.4 739.3h-4.4v-9.3h4.4z"/><path class="s" d="m764.9 739.3h-4.4v-9.3h4.4z"/><path class="b" d="m710.7 338.4l40.2 26.5-40.2 255z"/><path class="b" d="m791.1 529.7l-41.2 257.9h41.2z"/><path class="t" d="m798 787.6h-96.1v-34.3h96.1z"/><path class="s" d="m761.7 787.6h-23.6v-34.3h23.6z"/><path class="q" d="m761.7 753.3v-10.8h29.4l6.9 10.8z"/><path class="u" d="m766.6 742.5v10.8"/><path class="u" d="m774.8 742.5v10.8"/><path class="u" d="m782.9 742.5v10.8"/><path class="u" d="m791.1 742.5v10.8"/><path class="q" d="m738.1 753.3v-10.8h-29.4l-6.8 10.8z"/><path class="u" d="m733.2 742.5v10.8"/><path class="u" d="m725.1 742.5v10.8"/><path class="u" d="m716.9 742.5v10.8"/><path class="u" d="m708.7 742.5v10.8"/><path class="m" d="m710.7 787.6h-3.9v-27.4h3.9z"/><path class="m" d="m732.3 787.6h-4v-27.4h4z"/><path class="m" d="m721.5 787.6h-4v-27.4h4z"/><path class="m" d="m771.5 787.6h-3.9v-27.4h3.9z"/><path class="m" d="m793.1 787.6h-4v-27.4h4z"/><path class="m" d="m782.3 787.6h-3.9v-27.4h3.9z"/><path class="h" d="m838 787.6h-27.4v-341.9h27.4z"/><path class="v" d="m838 787.6h-27.4v-288.3h27.4z"/><path class="o" d="m838 445.7h-20.9v-25.9h20.9z"/><path class="w" d="m838 419.8h-13.7v-8.3h13.7z"/><path class="x" d="m838 386.5v401.1h26.9v-371.9z"/><path class="w" d="m833.5 344.3h4.5v67.2h-4.5z"/><path class="y" d="m864.9 787.6l-26.9-34.8 26.9-26.5-26.9-32.8 26.9-25-26.9-30.9 26.9-28-26.9-28.4 26.9-29-26.9-27.9 26.9-27.5-26.9-30.9 26.9-28.9-26.9-28.4"/><path class="b" d="m817.1 468.5h-2.9v-30.7h2.9z"/><path class="b" d="m823.3 468.5h-3v-30.7h3z"/><path class="b" d="m829.4 468.5h-2.9v-30.7h2.9z"/><path class="b" d="m835.6 468.5h-2.9v-30.7h2.9z"/><path class="c" d="m818.6 508.1h-4.4v-4.4h4.4z"/><path class="d" d="m826.2 508.1h-4.4v-4.4h4.4z"/><path class="c" d="m833.9 508.1h-4.5v-4.4h4.5z"/><path class="d" d="m818.6 516.2h-4.4v-4.4h4.4z"/><path class="c" d="m826.2 516.2h-4.4v-4.4h4.4z"/><path class="c" d="m833.9 516.2h-4.5v-4.4h4.5z"/><path class="c" d="m818.6 524.3h-4.4v-4.5h4.4z"/><path class="c" d="m826.2 524.3h-4.4v-4.5h4.4z"/><path class="d" d="m833.9 524.3h-4.5v-4.5h4.5z"/><path class="c" d="m818.6 532.3h-4.4v-4.4h4.4z"/><path class="d" d="m826.2 532.3h-4.4v-4.4h4.4z"/><path class="c" d="m833.9 532.3h-4.5v-4.4h4.5z"/><path class="c" d="m818.6 540.4h-4.4v-4.4h4.4z"/><path class="d" d="m826.2 540.4h-4.4v-4.4h4.4z"/><path class="c" d="m833.9 540.4h-4.5v-4.4h4.5z"/><path class="c" d="m818.6 548.5h-4.4v-4.4h4.4z"/><path class="c" d="m826.2 548.5h-4.4v-4.4h4.4z"/><path class="d" d="m833.9 548.5h-4.5v-4.4h4.5z"/><path class="d" d="m818.6 556.6h-4.4v-4.4h4.4z"/><path class="c" d="m826.2 556.6h-4.4v-4.4h4.4z"/><path class="c" d="m833.9 556.6h-4.5v-4.4h4.5z"/><path class="c" d="m818.6 564.7h-4.4v-4.5h4.4z"/><path class="d" d="m826.2 564.7h-4.4v-4.5h4.4z"/><path class="c" d="m833.9 564.7h-4.5v-4.5h4.5z"/><path class="d" d="m818.6 572.7h-4.4v-4.4h4.4z"/><path class="c" d="m826.2 572.7h-4.4v-4.4h4.4z"/><path class="c" d="m833.9 572.7h-4.5v-4.4h4.5z"/><path class="c" d="m818.6 580.8h-4.4v-4.4h4.4z"/><path class="c" d="m826.2 580.8h-4.4v-4.4h4.4z"/><path class="d" d="m833.9 580.8h-4.5v-4.4h4.5z"/><path class="c" d="m818.6 588.9h-4.4v-4.4h4.4z"/><path class="c" d="m826.2 588.9h-4.4v-4.4h4.4z"/><path class="d" d="m833.9 588.9h-4.5v-4.4h4.5z"/><path class="d" d="m818.6 597h-4.4v-4.4h4.4z"/><path class="c" d="m826.2 597h-4.4v-4.4h4.4z"/><path class="c" d="m833.9 597h-4.5v-4.4h4.5z"/><path class="c" d="m818.6 605.1h-4.4v-4.5h4.4z"/><path class="d" d="m826.2 605.1h-4.4v-4.5h4.4z"/><path class="c" d="m833.9 605.1h-4.5v-4.5h4.5z"/><path class="d" d="m818.6 613.1h-4.4v-4.4h4.4z"/><path class="c" d="m826.2 613.1h-4.4v-4.4h4.4z"/><path class="c" d="m833.9 613.1h-4.5v-4.4h4.5z"/><path class="c" d="m818.6 621.2h-4.4v-4.4h4.4z"/><path class="c" d="m826.2 621.2h-4.4v-4.4h4.4z"/><path class="d" d="m833.9 621.2h-4.5v-4.4h4.5z"/><path class="c" d="m818.6 629.3h-4.4v-4.4h4.4z"/><path class="d" d="m826.2 629.3h-4.4v-4.4h4.4z"/><path class="c" d="m833.9 629.3h-4.5v-4.4h4.5z"/><path class="d" d="m818.6 637.4h-4.4v-4.4h4.4z"/><path class="c" d="m826.2 637.4h-4.4v-4.4h4.4z"/><path class="c" d="m833.9 637.4h-4.5v-4.4h4.5z"/><path class="d" d="m818.6 645.5h-4.4v-4.5h4.4z"/><path class="c" d="m826.2 645.5h-4.4v-4.5h4.4z"/><path class="c" d="m833.9 645.5h-4.5v-4.5h4.5z"/><path class="c" d="m818.6 653.5h-4.4v-4.4h4.4z"/><path class="d" d="m826.2 653.5h-4.4v-4.4h4.4z"/><path class="c" d="m833.9 653.5h-4.5v-4.4h4.5z"/><path class="d" d="m818.6 661.6h-4.4v-4.4h4.4z"/><path class="c" d="m826.2 661.6h-4.4v-4.4h4.4z"/><path class="c" d="m833.9 661.6h-4.5v-4.4h4.5z"/><path class="c" d="m818.6 669.7h-4.4v-4.4h4.4z"/><path class="c" d="m826.2 669.7h-4.4v-4.4h4.4z"/><path class="d" d="m833.9 669.7h-4.5v-4.4h4.5z"/><path class="c" d="m818.6 677.8h-4.4v-4.4h4.4z"/><path class="d" d="m826.2 677.8h-4.4v-4.4h4.4z"/><path class="c" d="m833.9 677.8h-4.5v-4.4h4.5z"/><path class="c" d="m818.6 685.9h-4.4v-4.5h4.4z"/><path class="c" d="m826.2 685.9h-4.4v-4.5h4.4z"/><path class="d" d="m833.9 685.9h-4.5v-4.5h4.5z"/><path class="c" d="m818.6 693.9h-4.4v-4.4h4.4z"/><path class="c" d="m826.2 693.9h-4.4v-4.4h4.4z"/><path class="d" d="m833.9 693.9h-4.5v-4.4h4.5z"/><path class="d" d="m818.6 702h-4.4v-4.4h4.4z"/><path class="c" d="m826.2 702h-4.4v-4.4h4.4z"/><path class="c" d="m833.9 702h-4.5v-4.4h4.5z"/><path class="c" d="m818.6 710.1h-4.4v-4.4h4.4z"/><path class="c" d="m826.2 710.1h-4.4v-4.4h4.4z"/><path class="d" d="m833.9 710.1h-4.5v-4.4h4.5z"/><path class="c" d="m818.6 718.2h-4.4v-4.4h4.4z"/><path class="d" d="m826.2 718.2h-4.4v-4.4h4.4z"/><path class="c" d="m833.9 718.2h-4.5v-4.4h4.5z"/><path class="c" d="m818.6 726.2h-4.4v-4.4h4.4z"/><path class="d" d="m826.2 726.2h-4.4v-4.4h4.4z"/><path class="c" d="m833.9 726.2h-4.5v-4.4h4.5z"/><path class="c" d="m818.6 734.3h-4.4v-4.4h4.4z"/><path class="c" d="m826.2 734.3h-4.4v-4.4h4.4z"/><path class="d" d="m833.9 734.3h-4.5v-4.4h4.5z"/><path class="d" d="m818.6 742.4h-4.4v-4.4h4.4z"/><path class="c" d="m826.2 742.4h-4.4v-4.4h4.4z"/><path class="c" d="m833.9 742.4h-4.5v-4.4h4.5z"/><path class="c" d="m818.6 750.5h-4.4v-4.4h4.4z"/><path class="c" d="m826.2 750.5h-4.4v-4.4h4.4z"/><path class="d" d="m833.9 750.5h-4.5v-4.4h4.5z"/><path class="c" d="m818.6 758.6h-4.4v-4.4h4.4z"/><path class="d" d="m826.2 758.6h-4.4v-4.4h4.4z"/><path class="c" d="m833.9 758.6h-4.5v-4.4h4.5z"/><path class="c" d="m818.6 766.6h-4.4v-4.4h4.4z"/><path class="c" d="m826.2 766.6h-4.4v-4.4h4.4z"/><path class="d" d="m833.9 766.6h-4.5v-4.4h4.5z"/><path class="c" d="m818.6 774.7h-4.4v-4.4h4.4z"/><path class="c" d="m826.2 774.7h-4.4v-4.4h4.4z"/><path class="d" d="m833.9 774.7h-4.5v-4.4h4.5z"/><path class="c" d="m818.6 782.8h-4.4v-4.4h4.4z"/><path class="d" d="m826.2 782.8h-4.4v-4.4h4.4z"/><path class="c" d="m833.9 782.8h-4.5v-4.4h4.5z"/><path class="b" d="m810.6 787.6h-7.2v-305h7.2z"/><path class="z" d="m889 787.6h-14.2v-335.2h14.2z"/><path class="b" d="m887.6 452.4h-11.3v-11.3h11.3z"/><path class="b" d="m886.4 441.1h-9v-11.1h9z"/><path class="b" d="m883.5 430h-3.1v-24.4h3.1z"/><path class="A" d="m884 482.6h-4.2v-4.2h4.2z"/><path class="B" d="m884 494.3h-4.2v-4.3h4.2z"/><path class="A" d="m884 505.9h-4.2v-4.2h4.2z"/><path class="B" d="m884 517.6h-4.2v-4.2h4.2z"/><path class="A" d="m884 529.3h-4.2v-4.3h4.2z"/><path class="A" d="m884 540.9h-4.2v-4.2h4.2z"/><path class="A" d="m884 552.6h-4.2v-4.3h4.2z"/><path class="B" d="m884 564.3h-4.2v-4.3h4.2z"/><path class="A" d="m884 575.9h-4.2v-4.2h4.2z"/><path class="A" d="m884 587.6h-4.2v-4.3h4.2z"/><path class="A" d="m884 599.3h-4.2v-4.3h4.2z"/><path class="A" d="m884 610.9h-4.2v-4.2h4.2z"/><path class="B" d="m884 622.6h-4.2v-4.3h4.2z"/><path class="A" d="m884 634.2h-4.2v-4.2h4.2z"/><path class="A" d="m884 645.9h-4.2v-4.2h4.2z"/><path class="A" d="m884 657.6h-4.2v-4.3h4.2z"/><path class="A" d="m884 669.2h-4.2v-4.2h4.2z"/><path class="B" d="m884 680.9h-4.2v-4.2h4.2z"/><path class="A" d="m884 692.6h-4.2v-4.3h4.2z"/><path class="A" d="m884 704.2h-4.2v-4.2h4.2z"/><path class="A" d="m884 715.9h-4.2v-4.3h4.2z"/><path class="A" d="m884 727.6h-4.2v-4.3h4.2z"/><path class="C" d="m986.2 787.6h-14.3v-335.2h14.3z"/><path class="b" d="m984.7 452.4h-11.3v-11.3h11.3z"/><path class="b" d="m983.5 441.1h-8.9v-11.1h8.9z"/><path class="b" d="m980.6 430h-3.1v-24.4h3.1z"/><path class="B" d="m981.2 482.6h-4.3v-4.2h4.3z"/><path class="A" d="m981.2 494.3h-4.3v-4.3h4.3z"/><path class="A" d="m981.2 505.9h-4.3v-4.2h4.3z"/><path class="B" d="m981.2 517.6h-4.3v-4.2h4.3z"/><path class="A" d="m981.2 529.3h-4.3v-4.3h4.3z"/><path class="B" d="m981.2 540.9h-4.3v-4.2h4.3z"/><path class="A" d="m981.2 552.6h-4.3v-4.3h4.3z"/><path class="A" d="m981.2 564.3h-4.3v-4.3h4.3z"/><path class="A" d="m981.2 575.9h-4.3v-4.2h4.3z"/><path class="B" d="m981.2 587.6h-4.3v-4.3h4.3z"/><path class="A" d="m981.2 599.3h-4.3v-4.3h4.3z"/><path class="B" d="m981.2 610.9h-4.3v-4.2h4.3z"/><path class="A" d="m981.2 622.6h-4.3v-4.3h4.3z"/><path class="A" d="m981.2 634.2h-4.3v-4.2h4.3z"/><path class="A" d="m981.2 645.9h-4.3v-4.2h4.3z"/><path class="B" d="m981.2 657.6h-4.3v-4.3h4.3z"/><path class="A" d="m981.2 669.2h-4.3v-4.2h4.3z"/><path class="A" d="m981.2 680.9h-4.3v-4.2h4.3z"/><path class="A" d="m981.2 692.6h-4.3v-4.3h4.3z"/><path class="B" d="m981.2 704.2h-4.3v-4.2h4.3z"/><path class="A" d="m981.2 715.9h-4.3v-4.3h4.3z"/><path class="A" d="m981.2 727.6h-4.3v-4.3h4.3z"/><path class="D" d="m971.9 787.6h-82.9v-286.8h82.9z"/><path class="q" d="m971.9 500.8h-82.9v-27.5h82.9z"/><path class="b" d="m971.9 473.3h-82.9v-11.3h82.9z"/><path class="b" d="m895.3 500.8v-20.1c0-1.9 1.5-3.5 3.5-3.5 1.9 0 3.5 1.6 3.5 3.5v20.1z"/><path class="b" d="m907.9 500.8v-20.1c0-1.9 1.6-3.5 3.6-3.5 1.9 0 3.5 1.6 3.5 3.5v20.1z"/><path class="b" d="m920.6 500.8v-20.1c0-1.9 1.6-3.5 3.5-3.5 2 0 3.6 1.6 3.6 3.5v20.1z"/><path class="b" d="m933.3 500.8v-20.1c0-1.9 1.6-3.5 3.5-3.5 1.9 0 3.5 1.6 3.5 3.5v20.1z"/><path class="b" d="m945.9 500.8v-20.1c0-1.9 1.6-3.5 3.6-3.5 1.9 0 3.5 1.6 3.5 3.5v20.1z"/><path class="b" d="m958.6 500.8v-20.1c0-1.9 1.6-3.5 3.5-3.5 2 0 3.6 1.6 3.6 3.5v20.1z"/><path class="A" d="m900.6 514.2h-5.3v-8.8h5.3z"/><path class="E" d="m913.6 514.2h-5.3v-8.8h5.3z"/><path class="A" d="m926.6 514.2h-5.3v-8.8h5.3z"/><path class="A" d="m939.6 514.2h-5.3v-8.8h5.3z"/><path class="A" d="m952.7 514.2h-5.4v-8.8h5.4z"/><path class="A" d="m965.7 514.2h-5.4v-8.8h5.4z"/><path class="A" d="m900.6 528.6h-5.3v-8.8h5.3z"/><path class="A" d="m913.6 528.6h-5.3v-8.8h5.3z"/><path class="A" d="m926.6 528.6h-5.3v-8.8h5.3z"/><path class="E" d="m939.6 528.6h-5.3v-8.8h5.3z"/><path class="A" d="m952.7 528.6h-5.4v-8.8h5.4z"/><path class="A" d="m965.7 528.6h-5.4v-8.8h5.4z"/><path class="A" d="m900.6 542.9h-5.3v-8.8h5.3z"/><path class="A" d="m913.6 542.9h-5.3v-8.8h5.3z"/><path class="E" d="m926.6 542.9h-5.3v-8.8h5.3z"/><path class="A" d="m939.6 542.9h-5.3v-8.8h5.3z"/><path class="A" d="m952.7 542.9h-5.4v-8.8h5.4z"/><path class="A" d="m965.7 542.9h-5.4v-8.8h5.4z"/><path class="A" d="m900.6 557.3h-5.3v-8.8h5.3z"/><path class="E" d="m913.6 557.3h-5.3v-8.8h5.3z"/><path class="A" d="m926.6 557.3h-5.3v-8.8h5.3z"/><path class="A" d="m939.6 557.3h-5.3v-8.8h5.3z"/><path class="A" d="m952.7 557.3h-5.4v-8.8h5.4z"/><path class="A" d="m965.7 557.3h-5.4v-8.8h5.4z"/><path class="A" d="m900.6 571.7h-5.3v-8.9h5.3z"/><path class="A" d="m913.6 571.7h-5.3v-8.9h5.3z"/><path class="A" d="m926.6 571.7h-5.3v-8.9h5.3z"/><path class="A" d="m939.6 571.7h-5.3v-8.9h5.3z"/><path class="E" d="m952.7 571.7h-5.4v-8.9h5.4z"/><path class="A" d="m965.7 571.7h-5.4v-8.9h5.4z"/><path class="A" d="m900.6 586h-5.3v-8.8h5.3z"/><path class="A" d="m913.6 586h-5.3v-8.8h5.3z"/><path class="A" d="m926.6 586h-5.3v-8.8h5.3z"/><path class="E" d="m939.6 586h-5.3v-8.8h5.3z"/><path class="E" d="m952.7 586h-5.4v-8.8h5.4z"/><path class="A" d="m965.7 586h-5.4v-8.8h5.4z"/><path class="A" d="m900.6 600.4h-5.3v-8.9h5.3z"/><path class="A" d="m913.6 600.4h-5.3v-8.9h5.3z"/><path class="A" d="m926.6 600.4h-5.3v-8.9h5.3z"/><path class="A" d="m939.6 600.4h-5.3v-8.9h5.3z"/><path class="A" d="m952.7 600.4h-5.4v-8.9h5.4z"/><path class="A" d="m965.7 600.4h-5.4v-8.9h5.4z"/><path class="A" d="m900.6 614.7h-5.3v-8.8h5.3z"/><path class="A" d="m913.6 614.7h-5.3v-8.8h5.3z"/><path class="E" d="m926.6 614.7h-5.3v-8.8h5.3z"/><path class="A" d="m939.6 614.7h-5.3v-8.8h5.3z"/><path class="A" d="m952.7 614.7h-5.4v-8.8h5.4z"/><path class="A" d="m965.7 614.7h-5.4v-8.8h5.4z"/><path class="A" d="m900.6 629.1h-5.3v-8.9h5.3z"/><path class="E" d="m913.6 629.1h-5.3v-8.9h5.3z"/><path class="A" d="m926.6 629.1h-5.3v-8.9h5.3z"/><path class="A" d="m939.6 629.1h-5.3v-8.9h5.3z"/><path class="A" d="m952.7 629.1h-5.4v-8.9h5.4z"/><path class="A" d="m965.7 629.1h-5.4v-8.9h5.4z"/><path class="A" d="m900.6 643.4h-5.3v-8.8h5.3z"/><path class="A" d="m913.6 643.4h-5.3v-8.8h5.3z"/><path class="A" d="m926.6 643.4h-5.3v-8.8h5.3z"/><path class="A" d="m939.6 643.4h-5.3v-8.8h5.3z"/><path class="A" d="m952.7 643.4h-5.4v-8.8h5.4z"/><path class="E" d="m965.7 643.4h-5.4v-8.8h5.4z"/><path class="A" d="m900.6 657.8h-5.3v-8.9h5.3z"/><path class="A" d="m913.6 657.8h-5.3v-8.9h5.3z"/><path class="A" d="m926.6 657.8h-5.3v-8.9h5.3z"/><path class="E" d="m939.6 657.8h-5.3v-8.9h5.3z"/><path class="A" d="m952.7 657.8h-5.4v-8.9h5.4z"/><path class="A" d="m965.7 657.8h-5.4v-8.9h5.4z"/><path class="A" d="m900.6 672.1h-5.3v-8.8h5.3z"/><path class="E" d="m913.6 672.1h-5.3v-8.8h5.3z"/><path class="A" d="m926.6 672.1h-5.3v-8.8h5.3z"/><path class="A" d="m939.6 672.1h-5.3v-8.8h5.3z"/><path class="A" d="m952.7 672.1h-5.4v-8.8h5.4z"/><path class="A" d="m965.7 672.1h-5.4v-8.8h5.4z"/><path class="A" d="m900.6 686.5h-5.3v-8.9h5.3z"/><path class="E" d="m913.6 686.5h-5.3v-8.9h5.3z"/><path class="A" d="m926.6 686.5h-5.3v-8.9h5.3z"/><path class="A" d="m939.6 686.5h-5.3v-8.9h5.3z"/><path class="E" d="m952.7 686.5h-5.4v-8.9h5.4z"/><path class="A" d="m965.7 686.5h-5.4v-8.9h5.4z"/><path class="A" d="m900.6 700.8h-5.3v-8.8h5.3z"/><path class="A" d="m913.6 700.8h-5.3v-8.8h5.3z"/><path class="A" d="m926.6 700.8h-5.3v-8.8h5.3z"/><path class="E" d="m939.6 700.8h-5.3v-8.8h5.3z"/><path class="A" d="m952.7 700.8h-5.4v-8.8h5.4z"/><path class="A" d="m965.7 700.8h-5.4v-8.8h5.4z"/><path class="A" d="m900.6 715.2h-5.3v-8.9h5.3z"/><path class="A" d="m913.6 715.2h-5.3v-8.9h5.3z"/><path class="E" d="m926.6 715.2h-5.3v-8.9h5.3z"/><path class="A" d="m939.6 715.2h-5.3v-8.9h5.3z"/><path class="A" d="m952.7 715.2h-5.4v-8.9h5.4z"/><path class="A" d="m965.7 715.2h-5.4v-8.9h5.4z"/><path class="E" d="m900.6 729.5h-5.3v-8.8h5.3z"/><path class="A" d="m913.6 729.5h-5.3v-8.8h5.3z"/><path class="A" d="m926.6 729.5h-5.3v-8.8h5.3z"/><path class="A" d="m939.6 729.5h-5.3v-8.8h5.3z"/><path class="E" d="m952.7 729.5h-5.4v-8.8h5.4z"/><path class="A" d="m965.7 729.5h-5.4v-8.8h5.4z"/><path class="q" d="m990.6 734.7h-120.3v52.9h120.3z"/><path class="F" d="m895.3 734.7h-12.6v52.9h12.6z"/><path class="G" d="m978.2 734.7h-12.6v52.9h12.6z"/><path class="m" d="m900.4 787.6v-42.2c0-3.9 3.1-7 7-7 3.9 0 7.1 3.1 7.1 7v42.2z"/><path class="m" d="m946.5 787.6v-42.2c0-3.9 3.1-7 7-7 3.9 0 7.1 3.1 7.1 7v42.2z"/><path class="b" d="m923.4 787.6v-26c0-3.9 3.2-7 7.1-7 3.9 0 7 3.1 7 7v26z"/><path class="m" d="m934.3 748.3h-7.7v-7.7h7.7z"/><path class="b" d="m1284.2 787.6h-157.5l36.4-342.4h84.7z"/><path class="H" d="m1265.4 787.6h-119.9l27.7-330.1h64.5z"/><path class="I" d="m1250.3 787.6h-89.7l20.7-303.4h48.3z"/><path class="J" d="m1235.1 787.6h-59.3l17.1-249.6h25.1z"/><path class="b" d="m1177 769.3l-1.2 18.3h59.3l-1.2-18.3z"/><path class="s" d="m1177 769.3h56.9l-1.3-18.4h-54.3z"/><path class="b" d="m1178.3 750.9h54.3l-1.6-23.8h-51.1z"/><path class="s" d="m1179.9 727.1h51.1l-0.7-10.3h-49.7z"/><path class="m" d="m1212.3 787.6h-13.7v-18.3h13.7z"/><path class="K" d="m1205.4 716.8v10.3"/><path class="K" d="m1205.4 716.8l-12.5-178.8"/><path class="K" d="m1196.2 716.8l-7.9-112.3"/><path class="K" d="m1187.7 716.8l-3.6-50.7"/><path class="K" d="m1189.9 716.8l7.9-112.3"/><path class="K" d="m1198.4 716.8l3.6-50.7"/><path class="K" d="m1205.4 716.8l12.6-178.8"/><path class="K" d="m1214.7 716.8l7.9-112.3"/><path class="K" d="m1223.2 716.8l3.6-50.7"/><path class="K" d="m1221 716.8l-7.9-112.3"/><path class="K" d="m1212.4 716.8l-3.5-50.7"/><path class="L" d="m82.1 787.6l9.1-278.5 9.1 278.5z"/><path class="b" d="m118.3 654.9c0 15-12.1 27.1-27.1 27.1-15 0-27.2-12.1-27.2-27.1 0-15 12.2-27.1 27.2-27.1 15 0 27.1 12.1 27.1 27.1z"/><path class="d" d="m123.2 657.5h-64.1v-5.5h64.1z"/><path class="b" d="m106 787.6h-29.7v-7.5h29.7z"/><path class="b" d="m103.6 780.1h-24.9v-6.2h24.9z"/><path class="M" d="m153.9 787.6l14.3-356.6 14.3 356.6z"/><path class="b" d="m186.9 553.1c0 10.3-8.4 18.6-18.7 18.6-10.3 0-18.6-8.3-18.6-18.6 0-10.3 8.3-18.6 18.6-18.6 10.3 0 18.7 8.3 18.7 18.6z"/><path class="m" d="m190.2 554.9h-44v-3.8h44z"/><path class="b" d="m201.7 643.1c0 18.5-15 33.5-33.5 33.5-18.5 0-33.5-15-33.5-33.5 0-18.5 15-33.5 33.5-33.5 18.5 0 33.5 15 33.5 33.5z"/><path class="m" d="m207.8 640.4h-79.1v-6.9h79.1z"/><path class="m" d="m207.8 652.7h-79.1v-6.9h79.1z"/><path class="b" d="m190.2 787.6h-44v-7.5h44z"/><path class="b" d="m186.6 780.1h-36.7v-6.2h36.7z"/><path class="b" d="m1121.2 787.6h-125.1v-24.5h125.1z"/><path class="N" d="m1101.7 787.6h-86.1v-24.5h86.1z"/><path class="O" d="m996.1 771.1h19.5"/><path class="O" d="m996.1 779.6h19.5"/><path class="O" d="m1101.7 771.1h19.5"/><path class="O" d="m1101.7 779.6h19.5"/><path class="b" d="m1093.5 587.6c0 0 8.2 95.6-5 175.5h-48.8c0 0-19.5-101.4 0-179v-51.8z"/><path class="P" d="m1039.7 763.1h48.8l-49.1-177.4c-18.9 77.4 0.3 177.4 0.3 177.4z"/><g clip-path="url(#cp3)"><path class="c" d="m1056.5 606.4h-31.6v-3.2h31.6z"/><path class="d" d="m1056.5 619.5h-31.6v-3.1h31.6z"/><path class="c" d="m1058.8 632.7h-31.5v-3.1h31.5z"/><path class="c" d="m1058.8 645.9h-31.5v-3.1h31.5z"/><path class="d" d="m1065.9 659.1h-40.6v-3.1h40.6z"/><path class="c" d="m1065.9 672.3h-40.6v-3.1h40.6z"/><path class="d" d="m1078 685.5h-53.1v-3.2h53.1z"/><path class="d" d="m1078 698.6h-53.1v-3.1h53.1z"/><path class="c" d="m1082 711.8h-53.1v-3.1h53.1z"/><path class="c" d="m1082 725h-53.1v-3.1h53.1z"/><path class="d" d="m1093.9 738.2h-68.3v-3.1h68.3z"/><path class="c" d="m1093.9 751.4h-68.3v-3.1h68.3z"/></g><path class="Q" d="m1039.7 532.3c0 0 50.7 80.3 54.4 181.3 4.6-65.2-0.6-126-0.6-126z"/><g clip-path="url(#cp4)"><path class="c" d="m1099.5 535.4h-56.4v-3.1h56.4z"/><path class="d" d="m1099.5 548.6h-56.4v-3.1h56.4z"/><path class="c" d="m1103.7 561.8h-56.5v-3.2h56.5z"/><path class="d" d="m1098.9 575h-42.1v-3.2h42.1z"/><path class="c" d="m1110.8 588.1h-54.3v-3.1h54.3z"/><path class="d" d="m1110.8 601.3h-54.3v-3.1h54.3z"/><path class="c" d="m1122.9 614.5h-53.1v-3.1h53.1z"/><path class="d" d="m1122.9 627.7h-53.1v-3.1h53.1z"/><path class="c" d="m1126.8 640.9h-53.1v-3.1h53.1z"/><path class="d" d="m1126.8 654.1h-53.1v-3.2h53.1z"/><path class="c" d="m1138.7 667.2h-68.3v-3.1h68.3z"/><path class="d" d="m1138.7 680.4h-68.3v-3.1h68.3z"/></g><path class="b" d="m1324.1 787.6h-17.6v-365.4h17.6z"/><path class="R" d="m1306.5 787.6h-8.8v-383.7h8.8z"/><path class="b" d="m1417.1 729.9h-127.4v-5.4h127.4z"/><path class="S" d="m1324.1 787.6v-383.7h68.1c0 0 24.9 62.5 24.9 141.1 0 78.6-21.3 102.8-8.1 242.6z"/><path class="T" d="m1324.1 425.5h75.3"/><path class="E" d="m1387.8 444h-63.7v-5.6h63.7z"/><path class="A" d="m1387.8 459.1h-63.7v-5.6h63.7z"/><path class="E" d="m1387.8 474.2h-63.7v-5.6h63.7z"/><path class="A" d="m1387.8 489.4h-63.7v-5.7h63.7z"/><path class="A" d="m1387.8 504.5h-63.7v-5.7h63.7z"/><path class="E" d="m1387.8 519.6h-63.7v-5.6h63.7z"/><path class="E" d="m1387.8 534.7h-63.7v-5.6h63.7z"/><path class="A" d="m1387.8 549.8h-63.7v-5.6h63.7z"/><path class="E" d="m1387.8 565h-63.7v-5.7h63.7z"/><path class="A" d="m1387.8 580.1h-63.7v-5.7h63.7z"/><path class="A" d="m1387.8 595.2h-63.7v-5.6h63.7z"/><path class="E" d="m1387.8 610.3h-63.7v-5.6h63.7z"/><path class="A" d="m1387.8 625.4h-63.7v-5.6h63.7z"/><path class="E" d="m1387.8 640.6h-63.7v-5.7h63.7z"/><path class="A" d="m1387.8 655.7h-63.7v-5.7h63.7z"/><path class="A" d="m1387.8 670.8h-63.7v-5.6h63.7z"/><path class="E" d="m1387.8 685.9h-63.7v-5.6h63.7z"/><path class="A" d="m1387.8 701h-63.7v-5.6h63.7z"/><path class="E" d="m1387.8 716.2h-63.7v-5.7h63.7z"/><path class="A" d="m1387.8 731.3h-63.7v-5.6h63.7z"/><path class="A" d="m1387.8 746.4h-63.7v-5.6h63.7z"/><path class="E" d="m1387.8 761.5h-63.7v-5.6h63.7z"/><path class="E" d="m1387.8 776.7h-63.7v-5.7h63.7z"/><path class="U" d="m1500-4h-1500v791.6h1500z"/><g style="opacity:.7;mix-blend-mode:screen"><path class="V" d="m1057.9-4h-580.3v791.6h580.3z"/><path class="W" d="m580.4-4h-580.4v791.6h580.4z"/><path class="X" d="m1500-4h-580.4v791.6h580.4z"/><path class="Y" d="m1436-4h-162v791.6h162z"/><path class="Z" d="m236.7-4h-127.5v791.6h127.5z"/></g></svg>