<svg version="1.2" xmlns="http://www.w3.org/2000/svg" viewBox="0 0 562 356" width="562" height="356"><defs><linearGradient id="P" gradientUnits="userSpaceOnUse"/><linearGradient id="g1" x1="288.4" y1="36.2" x2="383.7" y2="131.5" href="#P"><stop stop-color="#746f9f"/><stop offset=".75" stop-color="#363338"/></linearGradient><linearGradient id="g2" x1="193.4" y1="94.4" x2="307.1" y2="208.1" href="#P"><stop stop-color="#746f9f"/><stop offset="1" stop-color="#102a89"/></linearGradient><linearGradient id="g3" x1="232" y1="100.5" x2="320.2" y2="188.8" href="#P"><stop stop-color="#746f9f"/><stop offset="1" stop-color="#102a89"/></linearGradient><linearGradient id="g4" x1="154.8" y1="145.2" x2="257.3" y2="247.7" href="#P"><stop stop-color="#746f9f"/><stop offset="1" stop-color="#102a89"/></linearGradient><linearGradient id="g5" x1="195.9" y1="117" x2="314.1" y2="235.1" href="#P"><stop stop-color="#746f9f"/><stop offset="1" stop-color="#102a89"/></linearGradient><linearGradient id="g6" x1="211.4" y1="136.2" x2="284" y2="208.7" href="#P"><stop stop-color="#746f9f"/><stop offset="1" stop-color="#102a89"/></linearGradient><linearGradient id="g7" x1="200.8" y1="156" x2="243.3" y2="156" href="#P"><stop stop-color="#746f9f"/><stop offset="1"/></linearGradient><linearGradient id="g8" x1="392.8" y1="53.5" x2="392.8" y2="44" href="#P"><stop stop-color="#8d9768"/><stop offset="1" stop-color="#4c4a00"/></linearGradient><linearGradient id="g9" x1="402.3" y1="54.7" x2="402.3" y2="45" href="#P"><stop stop-color="#8d9768"/><stop offset="1" stop-color="#4c4a00"/></linearGradient><linearGradient id="g10" x1="320.4" y1="-113.2" x2="562.3" y2="128.7" href="#P"><stop offset=".13" stop-color="#746f9f"/><stop offset=".74" stop-color="#363338"/></linearGradient><linearGradient id="g11" x1="320.7" y1="4" x2="492.1" y2="175.3" href="#P"><stop stop-color="#746f9f"/><stop offset="1" stop-color="#102a89"/></linearGradient><linearGradient id="g12" x1="319.9" y1="-80" x2="545.4" y2="145.6" href="#P"><stop stop-color="#746f9f"/><stop offset="1" stop-color="#102a89"/></linearGradient><linearGradient id="g13" x1="332.1" y1="-26.6" x2="498.9" y2="140.2" href="#P"><stop stop-color="#746f9f"/><stop offset="1" stop-color="#102a89"/></linearGradient><linearGradient id="g14" x1="326.8" y1="-23.5" x2="491.6" y2="141.3" href="#P"><stop stop-color="#746f9f"/><stop offset="1" stop-color="#102a89"/></linearGradient><linearGradient id="g15" x1="181.7" y1="-190.5" x2="531.6" y2="159.4" href="#P"><stop stop-color="#746f9f"/><stop offset="1" stop-color="#102a89"/></linearGradient><linearGradient id="g16" x1="247.5" y1="38.7" x2="456.6" y2="247.8" href="#P"><stop stop-color="#746f9f"/><stop offset="1" stop-color="#102a89"/></linearGradient><linearGradient id="g17" x1="308.6" y1="-38" x2="501.4" y2="154.9" href="#P"><stop stop-color="#746f9f"/><stop offset="1" stop-color="#102a89"/></linearGradient><linearGradient id="g18" x1="326.3" y1="-17.6" x2="502.8" y2="158.9" href="#P"><stop stop-color="#746f9f"/><stop offset="1" stop-color="#102a89"/></linearGradient><linearGradient id="g19" x1="311" y1="-65.3" x2="656.2" y2="279.9" href="#P"><stop stop-color="#746f9f"/><stop offset="1" stop-color="#102a89"/></linearGradient><linearGradient id="g20" x1="266" y1="119.7" x2="348.6" y2="119.7" href="#P"><stop stop-color="#746f9f"/><stop offset="1" stop-color="#102a89"/></linearGradient><linearGradient id="g21" x1="315" y1="161" x2="330.4" y2="161" href="#P"><stop stop-color="#746f9f"/><stop offset="1" stop-color="#102a89"/></linearGradient><linearGradient id="g22" x1="315" y1="29.5" x2="345" y2="29.5" href="#P"><stop stop-color="#746f9f"/><stop offset="1" stop-color="#102a89"/></linearGradient><linearGradient id="g23" x1="288.9" y1="42.2" x2="413.4" y2="42.2" href="#P"><stop stop-color="#102a89"/><stop offset="1" stop-color="#746f9f"/></linearGradient><linearGradient id="g24" x1="322.3" y1="5.6" x2="400.4" y2="5.6" href="#P"><stop stop-color="#102a89"/><stop offset="1" stop-color="#746f9f"/></linearGradient><linearGradient id="g25" x1="322.3" y1="5.6" x2="364.3" y2="5.6" href="#P"><stop offset=".35" stop-color="#746f9f"/><stop offset="1"/></linearGradient><linearGradient id="g26" x1="330" y1="30" x2="379" y2="30" href="#P"><stop offset=".35" stop-color="#746f9f"/><stop offset="1"/></linearGradient><linearGradient id="g27" x1="311.3" y1="29.5" x2="400.8" y2="29.5" href="#P"><stop offset=".35" stop-color="#746f9f"/><stop offset="1"/></linearGradient><linearGradient id="g28" x1="253.4" y1="50.8" x2="406.6" y2="50.8" href="#P"><stop offset=".35" stop-color="#746f9f"/><stop offset="1"/></linearGradient><linearGradient id="g29" x1="364.7" y1="-0.1" x2="392.9" y2="60.4" href="#P"><stop stop-color="#8d9768"/><stop offset=".81" stop-color="#4c4a00"/></linearGradient><linearGradient id="g30" x1="352.7" y1="11.1" x2="385.5" y2="81.3" href="#P"><stop stop-color="#8d9768"/><stop offset=".81" stop-color="#4c4a00"/></linearGradient><linearGradient id="g31" x1="368.7" y1="16.4" x2="336" y2="16.4" href="#P"><stop stop-color="#4c4a00"/><stop offset="1" stop-color="#8d9768"/></linearGradient><linearGradient id="g32" x1="151.6" y1="355.4" x2="151.6" y2="183.6" href="#P"><stop stop-color="#8d9768"/><stop offset="1" stop-color="#4c4a00"/></linearGradient><linearGradient id="g33" x1="291.6" y1="14.8" x2="295.4" y2="-5.4" href="#P"><stop stop-color="#8d9768"/><stop offset="1" stop-color="#4c4a00"/></linearGradient><linearGradient id="g34" x1="315.8" y1="21.1" x2="315.8" y2="10.2" href="#P"><stop stop-color="#8d9768"/><stop offset="1" stop-color="#4c4a00"/></linearGradient><linearGradient id="g35" x1="300.9" y1="34.3" x2="300.9" y2="30" href="#P"><stop stop-color="#8d9768"/><stop offset="1" stop-color="#4c4a00"/></linearGradient><linearGradient id="g36" x1="352.9" y1="32.2" x2="352.9" y2="27.8" href="#P"><stop stop-color="#8d9768"/><stop offset="1" stop-color="#4c4a00"/></linearGradient><linearGradient id="g37" x1="299.7" y1="35.2" x2="299.7" y2="30" href="#P"><stop stop-color="#8d9768"/><stop offset="1" stop-color="#4c4a00"/></linearGradient><linearGradient id="g38" x1="352.1" y1="32.1" x2="352.1" y2="26.9" href="#P"><stop stop-color="#8d9768"/><stop offset="1" stop-color="#4c4a00"/></linearGradient><linearGradient id="g39" x1="152" y1="237.9" x2="152" y2="134" href="#P"><stop stop-color="#6d6f2e"/><stop offset=".65" stop-color="#4c4a00"/></linearGradient><linearGradient id="g40" x1="166.1" y1="218.7" x2="166.1" y2="147" href="#P"><stop stop-color="#fff"/><stop offset="1" stop-color="#102a89"/></linearGradient><linearGradient id="g41" x1="301" y1="192.5" x2="351.2" y2="242.7" href="#P"><stop stop-color="#746f9f"/><stop offset="1" stop-color="#363338"/></linearGradient><linearGradient id="g42" x1="318.7" y1="184.1" x2="364.3" y2="229.7" href="#P"><stop stop-color="#746f9f"/><stop offset="1" stop-color="#363338"/></linearGradient><linearGradient id="g43" x1="264.8" y1="227.2" x2="315.5" y2="277.9" href="#P"><stop stop-color="#746f9f"/><stop offset="1" stop-color="#363338"/></linearGradient><linearGradient id="g44" x1="277.3" y1="230.3" x2="295.4" y2="230.3" href="#P"><stop stop-color="#746f9f"/><stop offset="1" stop-color="#363338"/></linearGradient><linearGradient id="g45" x1="266.1" y1="228.7" x2="276.4" y2="228.7" href="#P"><stop stop-color="#746f9f"/><stop offset="1" stop-color="#363338"/></linearGradient><linearGradient id="g46" x1="330.1" y1="243.8" x2="356" y2="269.7" href="#P"><stop stop-color="#746f9f"/><stop offset="1" stop-color="#363338"/></linearGradient><linearGradient id="g47" x1="326.7" y1="237.9" x2="357.3" y2="268.4" href="#P"><stop stop-color="#746f9f"/><stop offset="1" stop-color="#363338"/></linearGradient><linearGradient id="g48" x1="328.1" y1="248" x2="352.3" y2="272.2" href="#P"><stop stop-color="#746f9f"/><stop offset="1" stop-color="#363338"/></linearGradient><linearGradient id="g49" x1="306.1" y1="270.3" x2="317.1" y2="270.3" href="#P"><stop stop-color="#746f9f"/><stop offset="1" stop-color="#363338"/></linearGradient><linearGradient id="g50" x1="309.6" y1="269.8" x2="317.5" y2="269.8" href="#P"><stop stop-color="#746f9f"/><stop offset="1" stop-color="#363338"/></linearGradient><linearGradient id="g51" x1="404.4" y1="-38.4" x2="555.9" y2="31.4" href="#P"><stop stop-color="#746f9f"/><stop offset=".61" stop-color="#363338"/></linearGradient><linearGradient id="g52" x1="463" y1="-121.9" x2="597.9" y2="-59.8" href="#P"><stop stop-color="#746f9f"/><stop offset="1" stop-color="#102a89"/></linearGradient><linearGradient id="g53" x1="396.4" y1="17" x2="554.3" y2="89.8" href="#P"><stop stop-color="#746f9f"/><stop offset="1" stop-color="#102a89"/></linearGradient><linearGradient id="g54" x1="336.5" y1="120.8" x2="491.4" y2="192.2" href="#P"><stop stop-color="#746f9f"/><stop offset="1" stop-color="#102a89"/></linearGradient><linearGradient id="g55" x1="258" y1="74.1" x2="487.5" y2="179.9" href="#P"><stop stop-color="#746f9f"/><stop offset="1" stop-color="#102a89"/></linearGradient><linearGradient id="g56" x1="192.2" y1="68.2" x2="585.5" y2="249.4" href="#P"><stop stop-color="#746f9f"/><stop offset="1" stop-color="#102a89"/></linearGradient><linearGradient id="g57" x1="334.9" y1="119.6" x2="391" y2="98.8" href="#P"><stop stop-color="#746f9f"/><stop offset="1"/></linearGradient><linearGradient id="g58" x1="398.8" y1="184.1" x2="425.5" y2="174.2" href="#P"><stop stop-color="#746f9f"/><stop offset="1"/></linearGradient><linearGradient id="g59" x1="390.7" y1="187.1" x2="416.9" y2="177.4" href="#P"><stop stop-color="#746f9f"/><stop offset="1"/></linearGradient><linearGradient id="g60" x1="399.1" y1="252.1" x2="427.8" y2="288.7" href="#P"><stop stop-color="#746f9f"/><stop offset="1" stop-color="#363338"/></linearGradient><linearGradient id="g61" x1="434.4" y1="317.1" x2="499.4" y2="304.4" href="#P"><stop stop-color="#746f9f"/><stop offset="1" stop-color="#102a89"/></linearGradient><linearGradient id="g62" x1="394.7" y1="259.3" x2="487" y2="241.2" href="#P"><stop stop-color="#746f9f"/><stop offset="1" stop-color="#102a89"/></linearGradient><linearGradient id="g63" x1="436.5" y1="244.2" x2="457.7" y2="258.5" href="#P"><stop stop-color="#746f9f"/><stop offset="1"/></linearGradient><linearGradient id="g64" x1="400.9" y1="235" x2="445.3" y2="291.8" href="#P"><stop stop-color="#746f9f"/><stop offset="1" stop-color="#363338"/></linearGradient><linearGradient id="g65" x1="445.9" y1="316.7" x2="547.3" y2="296.8" href="#P"><stop stop-color="#746f9f"/><stop offset="1" stop-color="#102a89"/></linearGradient><linearGradient id="g66" x1="465.6" y1="285" x2="541.9" y2="270.1" href="#P"><stop stop-color="#746f9f"/><stop offset="1" stop-color="#102a89"/></linearGradient><linearGradient id="g67" x1="452.2" y1="229.3" x2="485.8" y2="251.9" href="#P"><stop stop-color="#746f9f"/><stop offset="1"/></linearGradient><linearGradient id="g68" x1="272.4" y1="10.4" x2="325.8" y2="125" href="#P"><stop stop-color="#8d97c2"/><stop offset=".81" stop-color="#4c4a54"/></linearGradient><linearGradient id="g69" x1="203.5" y1="35.9" x2="405.8" y2="238.2" href="#P"><stop stop-color="#746f9f"/><stop offset="1" stop-color="#102a89"/></linearGradient><linearGradient id="g70" x1="245.6" y1=".5" x2="343.6" y2="98.5" href="#P"><stop stop-color="#746f9f"/><stop offset="1" stop-color="#102a89"/></linearGradient><linearGradient id="g71" x1="262.7" y1="2.7" x2="351.1" y2="91.1" href="#P"><stop stop-color="#746f9f"/><stop offset="1" stop-color="#102a89"/></linearGradient><linearGradient id="g72" x1="249" y1="20.1" x2="330.3" y2="101.3" href="#P"><stop stop-color="#746f9f"/><stop offset="1"/></linearGradient><linearGradient id="g73" x1="235.5" y1="13.5" x2="334.3" y2="112.2" href="#P"><stop stop-color="#746f9f"/><stop offset="1"/></linearGradient><linearGradient id="g74" x1="264.9" y1="226.8" x2="188.7" y2="99.9" href="#P"><stop stop-color="#4c4a54"/><stop offset="1" stop-color="#8d97c2"/></linearGradient><linearGradient id="g75" x1="199" y1="143.3" x2="257.3" y2="143.3" href="#P"><stop stop-color="#746f9f"/><stop offset="1" stop-color="#102a89"/></linearGradient><linearGradient id="g76" x1="205.3" y1="98.6" x2="336.6" y2="98.6" href="#P"><stop stop-color="#746f9f"/><stop offset="1" stop-color="#102a89"/></linearGradient><linearGradient id="g77" x1="256.9" y1="112" x2="283.9" y2="112" href="#P"><stop stop-color="#746f9f"/><stop offset="1" stop-color="#102a89"/></linearGradient><linearGradient id="g78" x1="205.3" y1="110.9" x2="222.1" y2="110.9" href="#P"><stop stop-color="#746f9f"/><stop offset="1" stop-color="#102a89"/></linearGradient><linearGradient id="g79" x1="199" y1="104.8" x2="311.6" y2="104.8" href="#P"><stop stop-color="#746f9f"/><stop offset="1"/></linearGradient><linearGradient id="g80" x1="190.9" y1="102.5" x2="2089" y2="102.5" href="#P"><stop stop-color="#746f9f"/><stop offset="1" stop-color="#102a89"/></linearGradient><radialGradient id="g81" cx="266.1" cy="82.6" r="25.1" href="#P"><stop stop-color="#8100ff"/><stop offset=".84"/></radialGradient><radialGradient id="g82" cx="214.2" cy="88.4" r="25.1" href="#P"><stop stop-color="#8100ff"/><stop offset=".84"/></radialGradient><linearGradient id="g83" x1="215" y1="46.5" x2="242.8" y2="88.4" href="#P"><stop stop-color="#8d97c2"/><stop offset="1" stop-color="#4c4a54"/></linearGradient><linearGradient id="g84" x1="198.5" y1="37.3" x2="261" y2="131.6" href="#P"><stop stop-color="#746f9f"/><stop offset="1" stop-color="#102a89"/></linearGradient><linearGradient id="g85" x1="223" y1="81.8" x2="236.3" y2="84.5" href="#P"><stop stop-color="#746f9f"/><stop offset="1" stop-color="#102a89"/></linearGradient><linearGradient id="g86" x1="197.1" y1="72.5" x2="212.6" y2="75.7" href="#P"><stop stop-color="#746f9f"/><stop offset="1" stop-color="#102a89"/></linearGradient><linearGradient id="g87" x1="196.6" y1="61.2" x2="237.5" y2="69.5" href="#P"><stop stop-color="#746f9f"/><stop offset="1"/></linearGradient><linearGradient id="g88" x1="249.3" y1="43.3" x2="294.8" y2="74.1" href="#P"><stop stop-color="#8d97c2"/><stop offset="1" stop-color="#4c4a54"/></linearGradient><linearGradient id="g89" x1="219.6" y1="27.8" x2="368.2" y2="128.5" href="#P"><stop stop-color="#746f9f"/><stop offset="1" stop-color="#102a89"/></linearGradient><linearGradient id="g90" x1="246.4" y1="76.4" x2="268" y2="72.2" href="#P"><stop stop-color="#746f9f"/><stop offset="1" stop-color="#102a89"/></linearGradient><linearGradient id="g91" x1="270.1" y1="65.3" x2="278" y2="63.8" href="#P"><stop stop-color="#746f9f"/><stop offset="1" stop-color="#102a89"/></linearGradient><linearGradient id="g92" x1="282.7" y1="61.6" x2="286" y2="61" href="#P"><stop stop-color="#746f9f"/><stop offset="1" stop-color="#102a89"/></linearGradient><linearGradient id="g93" x1="237.8" y1="67.3" x2="282.8" y2="58.7" href="#P"><stop stop-color="#746f9f"/><stop offset="1"/></linearGradient><linearGradient id="g94" x1="95.3" y1="16.4" x2="309.6" y2="230.7" href="#P"><stop stop-color="#746f9f"/><stop offset="1" stop-color="#363338"/></linearGradient><linearGradient id="g95" x1="95.1" y1="10" x2="312.8" y2="227.6" href="#P"><stop stop-color="#746f9f"/><stop offset="1" stop-color="#102a89"/></linearGradient><linearGradient id="g96" x1="89.5" y1="12.9" x2="312.9" y2="236.3" href="#P"><stop stop-color="#746f9f"/><stop offset="1" stop-color="#102a89"/></linearGradient><linearGradient id="g97" x1="24.3" y1="117.9" x2="99.3" y2="117.9" href="#P"><stop stop-color="#746f9f"/><stop offset="1"/></linearGradient><linearGradient id="g98" x1="8.5" y1="166.6" x2="96.3" y2="166.6" href="#P"><stop stop-color="#746f9f"/><stop offset="1"/></linearGradient><linearGradient id="g99" x1="99.5" y1="143.7" x2="138" y2="143.7" href="#P"><stop stop-color="#746f9f"/><stop offset="1"/></linearGradient><linearGradient id="g100" x1="26.8" y1="228.3" x2="68.5" y2="228.3" href="#P"><stop stop-color="#746f9f"/><stop offset="1"/></linearGradient><linearGradient id="g101" x1="322.3" y1="54" x2="427" y2="278.1" href="#P"><stop stop-color="#746f9f"/><stop offset="1" stop-color="#363338"/></linearGradient><linearGradient id="g102" x1="348.4" y1="-34" x2="334.2" y2="273.4" href="#P"><stop stop-color="#746f9f"/><stop offset="1" stop-color="#102a89"/></linearGradient><linearGradient id="g103" x1="354.5" y1="-35.7" x2="339.9" y2="279.9" href="#P"><stop stop-color="#746f9f"/><stop offset="1" stop-color="#102a89"/></linearGradient><linearGradient id="g104" x1="473.5" y1="-1.9" x2="418.1" y2="48.6" href="#P"><stop stop-color="#746f9f"/><stop offset="1"/></linearGradient><linearGradient id="g105" x1="517.9" y1="23.4" x2="453" y2="82.5" href="#P"><stop stop-color="#746f9f"/><stop offset="1"/></linearGradient><linearGradient id="g106" x1="435.3" y1="67.7" x2="406.8" y2="93.7" href="#P"><stop stop-color="#746f9f"/><stop offset="1"/></linearGradient><linearGradient id="g107" x1="545.9" y1="81.3" x2="515.1" y2="109.4" href="#P"><stop stop-color="#746f9f"/><stop offset="1"/></linearGradient></defs><style>.a{fill:url(#g1)}.b{opacity:.1;mix-blend-mode:multiply;fill:url(#g2)}.c{opacity:.1;mix-blend-mode:multiply;fill:url(#g3)}.d{opacity:.1;mix-blend-mode:multiply;fill:url(#g4)}.e{opacity:.1;mix-blend-mode:multiply;fill:url(#g5)}.f{opacity:.1;mix-blend-mode:multiply;fill:url(#g6)}.g{opacity:.3;mix-blend-mode:color-dodge;fill:url(#g7)}.h{opacity:.2;mix-blend-mode:multiply;fill:#102a89}.i{fill:url(#g8)}.j{fill:url(#g9)}.k{fill:url(#g10)}.l{opacity:.1;mix-blend-mode:multiply;fill:url(#g11)}.m{opacity:.1;mix-blend-mode:multiply;fill:url(#g12)}.n{opacity:.1;mix-blend-mode:multiply;fill:url(#g13)}.o{opacity:.1;mix-blend-mode:multiply;fill:url(#g14)}.p{opacity:.1;mix-blend-mode:multiply;fill:url(#g15)}.q{opacity:.1;mix-blend-mode:multiply;fill:url(#g16)}.r{opacity:.1;mix-blend-mode:multiply;fill:url(#g17)}.s{opacity:.1;mix-blend-mode:multiply;fill:url(#g18)}.t{opacity:.1;mix-blend-mode:multiply;fill:url(#g19)}.u{opacity:.1;mix-blend-mode:multiply;fill:url(#g20)}.v{opacity:.1;mix-blend-mode:multiply;fill:url(#g21)}.w{opacity:.1;mix-blend-mode:multiply;fill:url(#g22)}.x{opacity:.2;mix-blend-mode:multiply;fill:url(#g23)}.y{opacity:.2;mix-blend-mode:multiply;fill:url(#g24)}.z{opacity:.3;mix-blend-mode:color-dodge;fill:url(#g25)}.A{opacity:.3;mix-blend-mode:color-dodge;fill:url(#g26)}.B{opacity:.3;mix-blend-mode:color-dodge;fill:url(#g27)}.C{opacity:.3;mix-blend-mode:color-dodge;fill:url(#g28)}.D{fill:url(#g29)}.E{fill:url(#g30)}.F{fill:url(#g31)}.G{fill:url(#g32)}.H{fill:url(#g33)}.I{fill:url(#g34)}.J{fill:url(#g35)}.K{fill:url(#g36)}.L{fill:url(#g37)}.M{fill:url(#g38)}.N{opacity:.5;mix-blend-mode:multiply;fill:#102a89}.O{fill:url(#g39)}.P{opacity:.2;mix-blend-mode:multiply;fill:url(#g40)}.Q{fill:url(#g41)}.R{opacity:.2;mix-blend-mode:multiply;fill:url(#g42)}.S{opacity:.2;mix-blend-mode:multiply;fill:url(#g43)}.T{opacity:.3;mix-blend-mode:color-dodge;fill:url(#g44)}.U{opacity:.7;mix-blend-mode:color-dodge;fill:url(#g45)}.V{fill:url(#g46)}.W{opacity:.2;mix-blend-mode:multiply;fill:url(#g47)}.X{opacity:.2;mix-blend-mode:multiply;fill:url(#g48)}.Y{opacity:.3;mix-blend-mode:color-dodge;fill:url(#g49)}.Z{opacity:.7;mix-blend-mode:color-dodge;fill:url(#g50)}.a0{fill:url(#g51)}.a1{opacity:.1;mix-blend-mode:multiply;fill:url(#g52)}.a2{opacity:.1;mix-blend-mode:multiply;fill:url(#g53)}.a3{opacity:.1;mix-blend-mode:multiply;fill:url(#g54)}.a4{opacity:.1;mix-blend-mode:multiply;fill:url(#g55)}.a5{opacity:.1;mix-blend-mode:multiply;fill:url(#g56)}.a6{opacity:.3;mix-blend-mode:color-dodge;fill:url(#g57)}.a7{opacity:.3;mix-blend-mode:color-dodge;fill:url(#g58)}.a8{opacity:.3;mix-blend-mode:color-dodge;fill:url(#g59)}.a9{fill:url(#g60)}.aa{opacity:.1;mix-blend-mode:multiply;fill:url(#g61)}.ab{opacity:.1;mix-blend-mode:multiply;fill:url(#g62)}.ac{opacity:.3;mix-blend-mode:color-dodge;fill:url(#g63)}.ad{fill:url(#g64)}.ae{opacity:.1;mix-blend-mode:multiply;fill:url(#g65)}.af{opacity:.1;mix-blend-mode:multiply;fill:url(#g66)}.ag{opacity:.3;mix-blend-mode:color-dodge;fill:url(#g67)}.ah{fill:url(#g68)}.ai{fill:#8200ff}.aj{opacity:.1;mix-blend-mode:multiply;fill:url(#g69)}.ak{opacity:.1;mix-blend-mode:multiply;fill:url(#g70)}.al{opacity:.1;mix-blend-mode:multiply;fill:url(#g71)}.am{opacity:.7;mix-blend-mode:color-dodge;fill:#746f9f}.an{opacity:.3;mix-blend-mode:color-dodge;fill:url(#g72)}.ao{opacity:.3;mix-blend-mode:color-dodge;fill:url(#g73)}.ap{opacity:.7;mix-blend-mode:multiply;fill:#102a89}.aq{opacity:.8;mix-blend-mode:multiply;fill:#102a89}.ar{fill:url(#g74)}.as{opacity:.1;mix-blend-mode:multiply;fill:url(#g75)}.at{opacity:.1;mix-blend-mode:multiply;fill:#102a89}.au{opacity:.1;mix-blend-mode:multiply;fill:url(#g76)}.av{opacity:.1;mix-blend-mode:multiply;fill:url(#g77)}.aw{opacity:.1;mix-blend-mode:multiply;fill:url(#g78)}.ax{opacity:.3;mix-blend-mode:color-dodge;fill:url(#g79)}.ay{opacity:.2;mix-blend-mode:multiply;fill:url(#g80)}.az{mix-blend-mode:screen;fill:url(#g81)}.aA{mix-blend-mode:screen;fill:url(#g82)}.aB{fill:url(#g83)}.aC{opacity:.1;mix-blend-mode:multiply;fill:url(#g84)}.aD{opacity:.1;mix-blend-mode:multiply;fill:url(#g85)}.aE{opacity:.1;mix-blend-mode:multiply;fill:url(#g86)}.aF{opacity:.3;mix-blend-mode:color-dodge;fill:url(#g87)}.aG{fill:url(#g88)}.aH{opacity:.1;mix-blend-mode:multiply;fill:url(#g89)}.aI{opacity:.1;mix-blend-mode:multiply;fill:url(#g90)}.aJ{opacity:.1;mix-blend-mode:multiply;fill:url(#g91)}.aK{opacity:.1;mix-blend-mode:multiply;fill:url(#g92)}.aL{opacity:.3;mix-blend-mode:color-dodge;fill:url(#g93)}.aM{fill:url(#g94)}.aN{opacity:.1;mix-blend-mode:multiply;fill:url(#g95)}.aO{opacity:.1;mix-blend-mode:multiply;fill:url(#g96)}.aP{opacity:.3;mix-blend-mode:color-dodge;fill:url(#g97)}.aQ{opacity:.3;mix-blend-mode:color-dodge;fill:url(#g98)}.aR{opacity:.3;mix-blend-mode:color-dodge;fill:url(#g99)}.aS{opacity:.3;mix-blend-mode:color-dodge;fill:url(#g100)}.aT{fill:url(#g101)}.aU{opacity:.1;mix-blend-mode:multiply;fill:url(#g102)}.aV{opacity:.1;mix-blend-mode:multiply;fill:url(#g103)}.aW{opacity:.3;mix-blend-mode:color-dodge;fill:url(#g104)}.aX{opacity:.3;mix-blend-mode:color-dodge;fill:url(#g105)}.aY{opacity:.3;mix-blend-mode:color-dodge;fill:url(#g106)}.aZ{opacity:.3;mix-blend-mode:color-dodge;fill:url(#g107)}</style><path class="a" d="m246.4 228.9l-13.5-22.8-6.3-9.8c-0.5-0.7-0.8-1.3-0.8-1.3l0.8 1.3c1.3 1.9 4.1 4.9 6.7 2l1.4-3.4c0.5-1.2 0.6-2.4 0.4-3.7l-8.1-52.8c-0.7-4.9-6.2-7.4-10.4-4.7l-7.2 4.7c-1.3 0.9-2.2 2.1-2.7 3.6l-14.4 43c-0.4 1.3-0.4 2.7 0 4l6.3 22.3q0.2 0.6 0.2 1.1l5.9 49.4c0.6 5 6.1 7.6 10.3 5l11.5-0.9c1.5-0.9 2.6-2.4 3-4.1l17.6-27.8c0.5-1.7 0.2-3.5-0.7-5.1z"/><path class="b" d="m215 266.8l11.5-0.9c1.5-0.9 2.6-2.4 3-4.1l17.6-27.8c0.5-1.7 0.2-3.5-0.7-5.1l-13.5-22.8-6.3-9.8c-0.5-0.7-0.8-1.3-0.8-1.3l3.7 33.1-15.3 6-6.6 32.5c2.1 1.5 5 1.7 7.4 0.2z"/><path class="c" d="m202.7 190.1l23.1 4.9 0.8 1.3c1.3 1.9 4.1 4.9 6.7 2l1.4-3.4c0.5-1.2 0.6-2.4 0.4-3.7l-7.7-50.5-24.7 13.2z"/><path class="d" d="m243.3 231.4l-13.8-3.3-15.3 6 21 2.8 2 12.7 9.9-15.6z"/><path class="e" d="m202.7 190.1l7.3 42.9-2.4-39.1 18.2 1.1 1.8 2.6c1.5 1.6 3.7 3 5.7 0.7l1.4-3.4c0.5-1.2 0.6-2.4 0.4-3.7l-1.5-10-26 2.4z"/><path class="f" d="m233 177.6l-1.9-12.4-6.6-1z"/><path class="g" d="m202.7 156l-1.9 34.6 9.2 42.4-6.4-41.9 17.8 3.4-13.8-0.6c0 0 16.3 1.3 16.9 3.2 0.7 1.9 4.3 31 4.3 31l-16.7 5.6-4.5 32c0 0 6.9-30 9.6-30.4 2.6-0.4 18 1.6 18 1.6 0 0-17.9-3.3-16.2-3.9 1.6-0.7 10.4-4.3 10.4-4.3l13.9 2.7c0 0-13.1-3.2-13.8-6.6-0.6-3.4-4.9-29.1 3.4-18.7l-5.3-8.5 3.1-9c0 0-1.4 5.6-11 3.9-9.6-1.7-16.4-1.1-14.6-3.6 1.8-2.5 2.5-4.1 2.5-4.1l26-3.6c0 0-24.9 1.7-26 0.5-1.1-1.2-2.6-6.8-2.6-6.8 0 0-0.2 10.9-2.1 12.9z"/><path class="h" d="m229.5 261.8l17.6-27.8c0.5-1.7 0.2-3.5-0.7-5.1l-13.5-22.8-6.3-9.8c-0.5-0.7-0.8-1.3-0.8-1.3l0.8 1.3c1.3 1.9 4.1 4.9 6.7 2l1.4-3.4c0.5-1.2 0.6-2.4 0.4-3.7l-8.1-52.8c-0.7-4.9-6.2-7.4-10.4-4.7l-7.2 4.7c-1.3 0.9-2.2 2.1-2.7 3.6l7.5 40.2-5.3 9.9 14.4 37.8-4.3 5.3-3.1 31.5 10.6-0.8c1.5-0.9 2.6-2.4 3-4.1z"/><path class="i" d="m398.7 53.5c0 0-1.1-7.7 5.3-9.5 0 0-2.8 8.8-5.3 9.5z"/><path class="j" d="m398.6 54.6c0 0 1.3-4.5 7.5-5.9 6.3-1.4 6.6-3.7 6.6-3.7 0 0-2.9 10.8-14.1 9.6z"/><path class="k" d="m444 131.7l-6.1-1.6 1.6-7.8c-5.2-10.2-12-23.1-19.9-36.8l-9.4-9.2c0 0 4.3 0.7 2.9-1.6q-4.2-7.1-8.8-14.1l-6.6-2.6c3.7-0.9 2.7-3.1 2.2-3.9-3.8-5.8-7.8-11.4-12-16.9-4.5-3.6-8.9-1.4-8.9-1.4 3.8-2.3 4.2-4.1 3.9-5.1-6.9-8.6-14-16.6-21.3-23.5-1.9-1.8-4.7-2.2-7.1-1-5.6 2.8-17 8.8-32.2 18.7l1.5 4.6c0 0-2.9-1.4-6.6-1.4-4.8 3.3-10 6.9-15.5 10.8-4.8 5.4 4.3 6.5 4.3 6.5l-17.1 3.1c-8.6 6.5-17.6 13.9-27.1 22.1l-60.1 83.3c0 0 26.2 29.9 58.1 56.7 12.8 9.8 21 8.8 21 8.8-1.5 5.3 0.8 8.1 2.1 9.2 6.9 4.8 13.8 9.2 20.5 12.8 3.4 1.9 7.6 1.9 11 0 19.5-10.9 88-50.2 130-89.4 3.8-3.6 4.9-9.2 2.7-13.9-0.9-1.9-1.9-4-3.1-6.4z"/><path class="h" d="m259.8 210.6c12.8 9.8 21 8.8 21 8.8-1.5 5.3 0.8 8.1 2.1 9.2 6.9 4.8 13.8 9.2 20.5 12.8 3.4 1.9 7.6 1.9 11 0 19.5-10.9 88-50.2 130-89.4 3.8-3.6 4.9-9.2 2.7-13.9-0.9-1.9-1.9-4-3.1-6.4l-6.1-1.6 1.6-7.8c-5.2-10.2-12-23.1-19.9-36.8l-9.4-9.2c0 0 4.3 0.7 2.9-1.6q-4.2-7.1-8.8-14.1l-6.6-2.6c3.7-0.9 2.7-3.1 2.2-3.9-3.8-5.8-7.8-11.4-12-16.9-4.5-3.6-8.9-1.4-8.9-1.4 3.8-2.3 4.2-4.1 3.9-5.1-6.9-8.6-14-16.6-21.3-23.5-0.9-0.9-2.1-1.4-3.3-1.6l6 27.1 0.9 4 0.7 5.5 4.7 15.8 1.3 4.3 3.1 6.3 4.3 12.7 1.7 4.9v3.7l11.2 20.7-29.2 65.6-30.8 34.9h-3.1l-20.1-11.7-15.1 3.6-19.5 11.4-21.5-9.7 4.8-13.6 65.2-30.1 9.3-48.7-115.5 20.8-15 20.8c0 0 26.2 29.9 58.1 56.7z"/><path class="l" d="m413.1 74.7q-0.3-0.6-0.6-1.1c-0.5 2.9-11.3-0.8-11.3-0.8l-21.9 8.5-64.3-38.3c0 0-6.1 0.4-8.3 0.7-2.1 0.4-6.4-1.5-6.4-1.5 0.5 2.6 5.7 3.2 5.7 3.2l5 4.8-22.1-1.7 1.6 23.5 23.4-20.1 18.3 6.8 48.8 27.5 29.2-9.9c0 0 4.3 0.7 2.9-1.6z"/><path class="m" d="m334.2 62.6c0 0-2.9-2.9-7.2 3.1-4.4 6-13.5 23.8-13.5 23.8 0 0 24.5 14.9 26.4 15 2 0.1 5.1-3.4 5.1-3.4l2.6 29.6 1 1.9 24.7 7.7 21.7-34.1-16.6 35.7-5.1-1.6-24.2 38.3-13.7-14.4c0 0-20.7 18.1-20.4 20.7 0.4 2.6 5.7 11.5 5.7 11.5l-11.5-6.5c-1.5 0.5 0-0.5-1.5 0.5-1.4 0.9-24.9 23-24.9 23l-2 6c-1.5 5.3 0.8 8.1 2.1 9.2 6.9 4.8 13.8 9.2 20.5 12.8 3.4 1.9 7.6 1.9 11 0 19.5-10.9 88-50.2 130-89.4 3.8-3.6 4.9-9.2 2.7-13.9-0.9-1.9-1.9-4-3.1-6.4l-6.1-1.6 1.6-7.8c-5.2-10.2-12-23.1-19.9-36.8l-9.4-9.2-29.2 13.6z"/><path class="n" d="m371.9 62.3l25.8-4.3c3.7-0.9 2.7-3.1 2.2-3.9-3.8-5.8-7.8-11.4-12-16.9-4.5-3.6-8.9-1.4-8.9-1.4l-13.1 6.4z"/><path class="o" d="m381 89.9l-29.6-17.2-6.4 28.4 2.6 29.6 1 1.9 18.5 5.8z"/><path class="p" d="m407.6 82.7l6.8 5.7 0.6 54.2 28.4-6.1-26.9 30.3-67.4 11.8-13.7-14.4-14.5 13.4c0 0 15.9 47.1 15.9 47.1l-16.1-28.3-11.5-6.5-0.9 46.3-26.3-8.6q0.5 0.6 0.9 1c6.9 4.8 13.8 9.2 20.5 12.8 3.4 1.9 7.6 1.9 11 0 19.5-10.9 88-50.2 130-89.4 3.8-3.6 4.9-9.2 2.7-13.9-0.9-1.9-1.9-4-3.1-6.4l-6.1-1.6 1.6-7.8c-5.2-10.2-12-23.1-19.9-36.8l-9.4-9.2-29.2 13.6z"/><path class="q" d="m257.7 191.1l32-11.7 33.2-18.4 9.3-48.7-88.7 17.4-4.8 62.1q1.1 1 2.2 2.1l3.1-9z"/><path class="r" d="m381 86.2l29.2-9.9c0 0 4.3 0.7 2.9-1.6q-4.2-7.1-8.8-14.1l-6.6-2.6-22.7 10.6z"/><path class="s" d="m364.3 32.7l0.9 4 13.8-0.9c3.8-2.3 4.2-4.1 3.9-5.1z"/><path class="h" d="m252.9 204.7l13.1-9.5 56.9-34.2 9.3-48.7-117.1 23.1-13.4 18.5c0 0 22.5 25.7 51.2 50.8z"/><path class="t" d="m399.9 54.1c-0.1 3.5-29.3 3.9-29.3 3.9 0 0-40.6-28-40.6-28l35.2 6.7 13.8-0.9c3.8-2.3 4.2-4.1 3.9-5.1-6.9-8.6-14-16.6-21.3-23.5-0.9-0.9-2.1-1.4-3.3-1.6l6 27.1-42-7.8 1.5 4.6 48.1 32.8 25.8-4.3c3.7-0.9 2.7-3.1 2.2-3.9z"/><path class="u" d="m347.6 130.7l-16.8-11-7.9 41.3-56.9 34.2 43.2-5.3 5.8-5 5.9-7.3 9.5-14.7 18.2-30.3z"/><path class="v" d="m315 184.9l7.9-23.9 7.5 1.9-9.5 14.7z"/><path class="w" d="m315 43l8.8-13.5 21.2 14.4-19.6 5.3z"/><path class="x" d="m413.1 74.7q-0.3-0.6-0.6-1.1c-0.5 2.9-11.3-0.8-11.3-0.8l-21.9 8.5-64.3-38.3c0 0-6.1 0.4-8.3 0.7-2.1 0.4-6.4-1.5-6.4-1.5 0.5 2.6 5.7 3.2 5.7 3.2l5 4.8-22.1-1.7 1.6 23.5 23.4-20.1 18.3 6.8 48.8 27.5 29.2-9.9c0 0 4.3 0.7 2.9-1.6z"/><path class="y" d="m399.9 54.1c-0.1 3.5-29.3 3.9-29.3 3.9 0 0-40.6-28-40.6-28l35.2 6.7 13.8-0.9c3.8-2.3 4.2-4.1 3.9-5.1-6.9-8.6-14-16.6-21.3-23.5-0.9-0.9-2.1-1.4-3.3-1.6l6 27.1-42-7.8 1.5 4.6 48.1 32.8 25.8-4.3c3.7-0.9 2.7-3.1 2.2-3.9z"/><path class="z" d="m322.3 24.9c0 0 39.1 6.5 39.5 4.6 0.3-1.9-3.5-23.9-3.5-23.9l6 27.1z"/><path class="A" d="m365.2 36.7l-28.6-4c0 0 30.4 21.7 31.1 20.8 0.7-0.8-2.6-11.3-2.6-11.3l0.2-4.3c0 0 0.9 3.6 2 3.1 1-0.5 11.7-5.2 11.7-5.2 0 0-12.9 6.2-11.9 8.9 0.9 2.7 2 12.4 9.8 13.3h-6.3l-40.6-28z"/><path class="B" d="m323.8 29.5l-7.1 13.3c0 0 7.4 4.7 10.7 4.8 3.2 0.2 17.6-3.7 17.6-3.7 0 0-17 5-15.9 6.5 1 1.5 47.1 28.4 47.8 28.2 0.7-0.2-2.4-9.9-4.4-10.8 0 0 0.6-2-0.6-5.5l3.7 5.1 15.8-6.5c0 0-15.6 7.5-14.8 10.6 0.8 3.1 2.4 7.8 4 8.2 1.6 0.5 20.2-6.8 20.2-6.8l-21.5 8.4-64.3-38.3-3.7 0.3c0 0 4-0.5 12.5-13.8z"/><path class="C" d="m289.1 50.8c0 0 1.5 17.8 2.5 17.5 1.1-0.2 22.3-16.4 22.3-16.4l18.3 6.8 48.8 27.5 15.9-5.4c0 0-15.3 6.2-15.3 7.6 0.1 1.3 14.8-5.7 14.8-5.7l-8.9 4.7 19.1-4.7c0 0-24.3 7.5-23.4 9.5 0.8 2.1 3.9 9.1 3.9 9.1 0 0-5.2-9.2-6.1-7.8-0.9 1.5-13.3 43.7-13.3 43.7l2.1 3.1-5.5 17.1c0 0-11.8 18.3-11.4 18.7 0.4 0.3 10.1 0.1 10.1 0.1l-13.9 2.4-13.9-12c0 0-13.5 10.4-12.9 12 0.6 1.7 5 17.9 5 17.9 0 0-5.4-15.5-7.2-15.6-1.7-0.1-5.1 4-5.1 4 0 0-4.5 5.7-3.2 6.5 0 0-3.9-1.5-14.9 8.8 0 0 6.9-6.6 6-7.4-0.8-0.9-35.9 3.2-35.9 3.2l-13.6 8.7c0 0 12.3-9.2 13.6-12.4l55.9-31.3-52.9 32.9c0 0 35.6-3.9 38.7-5.1 3.1-1.2 14-26.8 14-26.8l-5.5 18.9 13.2-18-6.1 10.6c0 0 9.5-7 12.2-13.4 0 0 9.2 16.2 12.8 16.1 3.6-0.1 16.9-31.7 16.9-31.7 0 0-12.8-12.2-16.2-10.5-3.3 1.8-17.6 25.5-17.6 25.5 0 0 13.8-24.5 12.1-28.2-1.7-3.7-13.7-11.6-13.7-11.6 0 0 14.8 9 15.5 6.5 0.7-2.5-1.1-22.8-1.1-22.8 0 0 2.7 26.9 7 28.7 4.3 1.8 12.1 4.3 14 3.4 2-0.9 13.6-44.8 11.7-46.6-1.9-1.7-25-14.3-25.8-13.4-0.9 1-5.8 19.6-5.8 19.6 0 0 5-20.8 1.1-23.1-4-2.4-14.6-8.7-16.6-7.8-1.9 0.9-12.7 16.5-12.7 16.5 0 0 10.1-19 8.6-21.4-1.4-2.4-11.2-6.2-13-5.8-1.8 0.5-22.9 19.7-22.9 19.7l-3.8-3.2c0 0 3.2-9.9 2.1-19.2z"/><path class="h" d="m301 220.5l7.8-7.8 12.6 11.9-12.2-8.8z"/><path class="h" d="m319.2 146.5h6.5l6.5 6.6-6.9-4.7z"/><path class="h" d="m353.8 18.1l6.4-4.1 3.6 2.9-3.4-1.9z"/><path class="h" d="m349.4 22.3l11.7-4.2 5.6 4.2-5.3-2.9z"/><path class="h" d="m346.2 185.7l4.4 4.5v8.3l-2-5.9z"/><path class="h" d="m349.7 183.6l4.5 2.9 0.6 20.4-2.6-18.5z"/><path class="D" d="m327 19.6c0 0 9.1-4.3 17.8 1.6 9.6 6.5 45.3 37.6 54.1 31.3 0 0 3.9 0.3 1.5 3.7 0 0-13.2 4.3-39.4-18.8-25.4-22.4-35.3-14.7-35.3-14.7 0 0-0.5-2.1 1.3-3.1z"/><path class="E" d="m405.1 61.9c0 0-17.5 24.2-49-1.9-31.5-26.2-48.1-25.6-50.5-23.9 0 0 0.6-2.1 3.1-2.8 2.5-0.7 17.5-0.3 34.2 12.8 16.6 13.1 30.7 24.7 41.5 23.4 10.7-1.4 16.6-9.5 18.5-9.7 2-0.1 2.2 2.1 2.2 2.1z"/><path class="F" d="m336 16.4c0 0 26.3-6.3 32.4-2.4 0 0 1.4-1.6-2.9-3-4.4-1.4-28.3-1.5-29.5 5.4z"/><path class="G" d="m315 239.4c0 0 4 1.4 4.2 8.2 0 0 5-33.2 6.5 26.9 0 0 3.4-89.2 4.3 13.6 0 0 5.6-108.5 4.2 67.3 0 0 2.9-198.9 8.1-75.9 0 0 3.5-90.6 9.9-25.1 0 0 8-31.8 10.8-5.2 0 0 8.6-57.3 12-29.1 0 0 0.7-18.1 10.7-22.6 10-4.5-7.8-13.9-7.8-13.9l-7.2 8.5-0.5 7.3c0 0 1.9 1.6-1.9 3.4-3.9 1.7-31.5 21.9-31.5 21.9l-10.3 2.2-11.4-8.2 9.3 10.2z"/><path class="H" d="m327.2 21.5c0 0-0.9-3.3 1.4-7.4 2.3-4.2-3.6-13.9-3.6-13.9 0 0 2.2 9.9 0 11.8-2.3 2 2.2 9.5 2.2 9.5z"/><path class="I" d="m326.7 21.1c0 0 0.7-7.9-10.1-10.9 0 0 3.1 7.2 10.1 10.9z"/><path class="J" d="m306.8 34.3c0 0 1.7-2.4 0.9-4.3 0 0-2.1 2.3-0.9 4.3z"/><path class="K" d="m358.8 32.2c0 0 1.7-2.5 0.9-4.4 0 0-2 2.3-0.9 4.4z"/><path class="L" d="m306.4 35.2c0 0 1.3-2.7-1.3-5.2 0 0-2 2.7 1.3 5.2z"/><path class="M" d="m358.9 32.1c0 0 1.3-2.6-1.3-5.2 0 0-2.1 2.7 1.3 5.2z"/><path class="N" d="m315 239.4c0 0 4 1.4 4.2 8.2 0 0 5-33.2 6.5 26.9 0 0 3.4-89.2 4.3 13.6 0 0 5.6-108.5 4.2 67.3 0 0 2.9-198.9 8.1-75.9 0 0 3.5-90.6 9.9-25.1 0 0 8-31.8 10.8-5.2 0 0 8.6-57.3 12-29.1 0 0 0.7-18.1 10.7-22.6 10-4.5-7.8-13.9-7.8-13.9l-7.2 8.5-0.5 7.3c0 0 1.9 1.6-1.9 3.4-3.9 1.7-31.5 21.9-31.5 21.9l-10.3 2.2-11.4-8.2 9.3 10.2z"/><path class="O" d="m215.7 161.9l1.6 34.7c0 0 2.2-37.6 2.9-0.7 0 0 4-32.6 5 3.1 0 0 6.7-33.9 3.9 38.9 0 0 5.5-29.1 7.7-9.3 0 0 3.9-95.9 6.8-19.1 0 0 4.7-43.1 7.2-20.3 0 0 7.8-45.1 11.1-20.3 0 0 5.5-13.8 8-2.7l4-22c0 0-10.6-8.9-12-10-1.3-1.2-31.4 7.2-32.8 9.3-1.3 2.2-13.4 18.4-13.4 18.4z"/><path class="P" d="m226.7 147c-3.9 5.4-11 14.9-11 14.9l0.7 14.5 1.4 7.2c0 0 2.3-33.8 3.6-4.6 0 0 4.5-17.9 5.4 11.1 0 0 7.7-41.1 6.8 28.6 0 0 4.3-67.4 11.2-30.3 0 0 3.9-12.6 5.9-3.5l1.3-1.8c0.3-1.8 0.8-3.9 1.3-6.1l-11.3-27.2z"/><path class="h" d="m325.7 22.7c0 0 9.9-7.7 35.3 14.7 26.2 23.1 39.4 18.8 39.4 18.8 0.7-1.1 0.9-1.8 0.7-2.4-0.1 0.4-0.3 0.9-0.7 1.5 0 0-13.2 4.3-39.4-18.8-25.4-22.4-35.3-14.7-35.3-14.7q0 0 0-0.2c-0.1 0.6 0 1.1 0 1.1z"/><path class="h" d="m356.1 59.1c-29.5-24.5-45.9-25.6-49.9-24.2-0.4 0.7-0.6 1.2-0.6 1.2 2.4-1.7 19-2.3 50.5 23.9 31.5 26.1 49 1.9 49 1.9 0 0 0-0.3-0.1-0.7-1.9 2.3-19.2 22.5-48.9-2.1z"/><path class="h" d="m368.4 14c0 0 0.4-0.4 0.2-1q-0.1 0.1-0.2 0.1c-5.7-3.6-28.9 1.6-32 2.3q-0.3 0.5-0.4 1c0 0 26.3-6.3 32.4-2.4z"/><path class="h" d="m400.4 56.2c2.4-3.4-1.5-3.7-1.5-3.7-4.9 3.5-18.2-4.6-30.7-13.6 0.6 2-1.1 2.3-3.2 1.9 23.5 19.2 35.4 15.4 35.4 15.4z"/><path class="h" d="m405.1 61.9c0 0-0.2-2.2-2.2-2.1-1.9 0.2-7.8 8.3-18.5 9.7-2.5 0.3-5.1-0.1-7.9-1 0.4 1.2-1 1.7-2.6 1.9 20.2 6.7 31.2-8.5 31.2-8.5z"/><path class="h" d="m356.6 13c5.1-0.5 9.7-0.3 11.8 1 0 0 1.4-1.6-2.9-3-1.1-0.3-3.3-0.6-6-0.7 0.7 2-1.7 2.5-2.9 2.7z"/><path class="Q" d="m266.1 257.2l8.5-28.5c0.4-1.3 2.2-1.7 3.1-0.6l26.1 30.2c0.6 0.7 0.6 1.8-0.1 2.5l-1.8 1.7q-0.4 0.4-0.5 1l-4.3 24.7c-0.3 1.5-2.1 2.1-3.1 1l-27.5-30.3c-0.4-0.4-0.6-1.1-0.4-1.7z"/><path class="R" d="m297.1 288.2l4.3-24.7q0.1-0.6 0.5-1l1.8-1.7c0.7-0.7 0.7-1.8 0.1-2.5l-26.1-30.2 1.1 30.5 13.9 29.2 1.3 1.4c1 1.1 2.8 0.5 3.1-1z"/><path class="S" d="m303.7 260.8c0.7-0.7 0.7-1.8 0.1-2.5l-2.5-2.9-1-0.2-21.5 3.4 22.6 4.9q0.1-0.6 0.5-1z"/><path class="T" d="m277.7 230.3l-0.4 29 14.9 27.3c0 0-11.7-24.8-10.2-25.6 1.4-0.8 13.4 1.2 13.4 1.2 0 0-20-2.8-1.1-6 0 0-13.1 1.9-14 0-0.9-1.9-2.6-25.9-2.6-25.9z"/><path class="U" d="m266.1 257.2l10.3-19.2-1.8-9.3z"/><path class="V" d="m304.1 297.8l4.4-24.6c0.1-0.6 0.6-1.1 1.1-1.2l7.6-2.1c1.2-0.4 2.2 0.6 2 1.8l-6.8 33.5c-0.3 1.3-1.9 1.7-2.7 0.8l-4.8-5.3c-0.7-0.8-1-1.9-0.8-2.9z"/><path class="W" d="m309.7 306c0.8 0.9 2.4 0.5 2.7-0.8l6.8-33.5c0.2-1.1-0.7-2-1.7-1.9l-6.3 7.4-6.4 23.3q0.1 0.1 0.1 0.2z"/><path class="X" d="m312.4 305.2l5.5-27.4-6.7-0.6-2.9 27.2 1.4 1.6c0.8 0.9 2.4 0.5 2.7-0.8z"/><path class="Y" d="m306.1 295.7l4.3-19.4 6.7-6c0 0-4.4 6.2-0.5 7.4 0 0-5-2.6-6.9 13.2 0 0 1.4-16.1-3.6 4.8z"/><path class="Z" d="m309.6 272l0.8 4.3 7.1-6.5z"/><path class="a0" d="m430.9 189.2l-10.4-13.7c-2.6-3.5-6.7-2.4-6.7-2.4 2.2-1 2.1-7 2.1-7l-2.4-16.5c-0.1-0.7-0.5-1.3-1-1.8l-41.6-38.4c-0.4-0.4-1-0.7-1.6-0.8l-7.8-1.2c-1.7-0.3-3.3 0.9-3.5 2.6l-7.5 55.6c-0.1 1 0.3 1.9 1 2.6l40.5 39.3q0.2 0.3 0.4 0.6l4.3 6.9c0 0 3.4 1.2 5.4-5.9 0.4-2.2 0.8-3.6 0.8-3.6q-0.3 2.1-0.8 3.6c-0.7 4.6-1.2 12.9 3.1 19.6 0 0 1.1 1.9 1.1 1.9q0.1 0.1 0.2 0.3l14.7 30.5c0.6 1.4 2.3 2.1 3.8 1.5l13.1-4.8c1.3-0.5 2.2-1.9 2-3.3l-8.6-64.1q-0.1-0.8-0.6-1.5z"/><path class="a1" d="m425 262.9l13.1-4.8c1.3-0.5 2.2-1.9 2-3.3l-8.6-64.1q-0.1-0.8-0.6-1.5l-10.4-13.7c-2.6-3.5-6.7-2.4-6.7-2.4 2.2-1 2.1-7 2.1-7l-2.4-16.5c-0.1-0.7-0.5-1.3-1-1.8l-41.6-38.4c-0.4-0.4-1-0.7-1.6-0.8l-7.8-1.2c-1.7-0.3-3.3 0.9-3.5 2.6l-0.1 0.2 22 55.3 25.7 14.2-12.4 21.1 1.6 11.1 1.9 3.1c0 0 3.4 1.2 5.4-5.9 0.4-2.2 0.8-3.6 0.8-3.6q-0.3 2.1-0.8 3.6c-0.3 2.1-0.6 4.9-0.4 7.9l6.3-26.3 8.9-13.3 10.5 14.3-8.1 65.8 1.9 3.9c0.6 1.4 2.3 2.1 3.8 1.5z"/><path class="a2" d="m369.3 108.6l-4.6-0.7 15.4 51.5-5.8-46.8-3.4-3.2c-0.4-0.4-1-0.7-1.6-0.8z"/><path class="a3" d="m386.1 168.9l27.7 4.2c2.2-1 2.1-7 2.1-7l-2.4-16.5c-0.1-0.7-0.5-1.3-1-1.8l-32.6 17.7z"/><path class="a4" d="m419.3 257.5l1.9 3.9c0.6 1.4 2.3 2.1 3.8 1.5l13.1-4.8c1.3-0.5 2.2-1.9 2-3.3l-8.6-64.1q-0.1-0.4-0.2-0.8l-3.9 1.8z"/><path class="a5" d="m393.2 200.8l1.6 11.1 1.9 3.1c0 0 3.4 1.2 5.4-5.9 0.4-2.2 0.8-3.6 0.8-3.6q-0.3 2.1-0.8 3.6c-0.3 2.1-0.6 4.9-0.4 7.9l6.3-26.3 8.9-13.3h5l-1.4-1.9c-1.1-1.5-2.5-2.1-3.7-2.4l-11.2 6.6z"/><path class="a6" d="m352.4 167.1l24.7-3.2-18.9-52.9 20.5 47.5-13-47.3c0 0 14.3 50.4 18.5 50.1 4.1-0.3 25.5-11.9 25.5-11.9 0 0-26.1 14.1-23.9 17.3 2.1 3.2 19.8 13 19.8 13 0 0-27.8-15.2-53.2-12.6z"/><path class="a7" d="m431.3 189.9c-4.6 1.9-14.4-12.5-14.4-12.5 0 0 6.7 11.3 7.7 13.3 0.7 1.3-5.4 1-10.4 0.6 4.2 0.6 9.1 1.8 10.4 4.1 0.7 1.2-3.7 48.7-3.7 48.7 3.3-26.4 10.4-54.2 10.4-54.2z"/><path class="a8" d="m416.9 177.4l-8.9 13.3-6.3 26.3c0 0 8.7-24.1 12.5-25.7 0 0-0.5-7.9 2.7-13.9z"/><path class="a9" d="m440.4 233.7l6 37.6c0.2 1.1 1.7 1.5 2.4 0.5l19.2-28.6q0.2-0.4 0.2-0.9l-2.7-32.6c0-0.6-0.4-1-1-1.1l-5.7-1.4c-0.5-0.1-1.1 0.1-1.4 0.5l-16.8 25c-0.2 0.3-0.2 0.6-0.2 1z"/><path class="aa" d="m457.1 213.5l2.6-6.1 4.8 1.2c0.6 0.1 1 0.5 1 1.1l2.7 32.6q0 0.5-0.2 0.9l-19.2 28.6q-0.3 0.3-0.6 0.5l10.4-34z"/><path class="ab" d="m465.5 209.7l2.7 32.6q0 0.5-0.2 0.9l-9.5-5.7-1.4-24 5.9-5.3 1.5 0.4c0.6 0.1 1 0.5 1 1.1z"/><path class="ac" d="m446.1 240.2c0 0 9.2-2.2 10.6-5.8 1.4-3.6 0.4-20.9 0.4-20.9 0 0 1.5 23.6 10.9 29.7 0 0-7.8-3.5-14.7 12.3 0 0 8-19-7.2-15.3z"/><path class="ad" d="m466.4 200.4l6.6 32.4q0 0.2 0 0.3l-1.3 33.3c-0.1 1.3 1.6 1.9 2.3 0.8l31.4-44.3q0.1-0.2 0.2-0.5l7-36.3c0.1-0.4 0-0.8-0.3-1.1l-9.5-9.5c-0.2-0.3-0.6-0.5-1-0.4l-16.1 1.6c-0.3 0-0.7 0.2-0.9 0.5l-18.2 22.1c-0.2 0.3-0.3 0.7-0.2 1.1z"/><path class="ae" d="m485.7 176.7l16.1-1.6c0.4-0.1 0.8 0.1 1 0.4l9.5 9.5c0.3 0.3 0.4 0.7 0.3 1.1l-7 36.3q-0.1 0.3-0.2 0.5l-28 39.5 11.9-47.6-15.2 16.5 13.1-22-4.2-29.9 1.8-2.2c0.2-0.3 0.6-0.5 0.9-0.5z"/><path class="af" d="m512.6 186.1l-7 36.3-16.3-7.6-15.2 16.5 13.1-22 14.6-34.2 1.1 0.5 9.4 9.4c0.3 0.3 0.4 0.7 0.3 1.1z"/><path class="ag" d="m475.3 229.4c0 0 10.8-10.4 11.4-8.5 0.6 1.9-5.8 27.7-5.8 27.7 0 0 7.1-28.5 9.3-29.7 2.1-1.2 15.4 3.5 15.4 3.5 0 0-14.4-7-16.4-10-2-3.1 7.2-24.6 7.2-24.6l-8.9 15.1-4-20.2c0 0 2.8 22.7 1.6 27.4-1.2 4.6-9.8 19.3-9.8 19.3z"/><path class="ah" d="m328 86.7l-13.6-26.3c-0.4-0.9-1.2-1.5-2.1-1.8l-42.2-13.9q-0.8-0.3-1.6-0.2l-42.9 5.2c-1 0.1-2 0.7-2.6 1.5l-2.9 4 3.5 3.3-5.1-1-18.4 25.4c-0.5 0.8-0.8 1.8-0.6 2.8l1 6.7c0.1 0.7 0.5 1.4 1 2l12.2 29.3c0.9 0.9 7.6-0.7 8.8-0.9l102.7-8.6c2.5-0.4 2.8-27.5 2.8-27.5z"/><path class="h" d="m328 86.7l-13.6-26.3c-0.4-0.9-1.2-1.5-2.1-1.8l-39.5-13.1 27.5 14.9-2.7 16.3-9.7-1.3c0 0-39.4 2.8-46 6-6.6 3.2-11.3 0-11.3 0l-28.8 1.8-2.2 0.9q-0.2 0.8-0.1 1.6c0 0 18.6 11.7 18.6 11.7l12.3-9.4 15.5-1.3 18.4 6.9 27.8-11.5 12.3 16.7 20.8 15.4c2.5-0.4 2.8-27.5 2.8-27.5z"/><path class="N" d="m223.3 79.4l11.6-7.5 14.6 2 35.1-2 11.1 15.1-6.5 22.1c0 0-2.8 7.9-4.2 8.4-1.4 0.4-71.3 6.2-71.3 6.2l-13.3-31.8-0.9-6.2-0.1-0.7c0-1.5 1-2.8 2.5-2.9z"/><path class="ai" d="m201.9 82.1c0 0 1.3 0 13 11.5 3.6 3.6 13.1-3.9 13.1-3.9 0.5-0.2-20.6-16.5-26.1-7.6z"/><path class="ai" d="m248.4 85.4c0 0 12.1 6.8 17.9 4 5.7-2.9 7.1-10.2 14.4-16.1 8.9-7.1-11.9-0.5-11.9-0.5z"/><path class="aj" d="m199.9 83.3l22-8.1 12.7-7.6-6.9-7.2-4.1-1.9-2.6 1.5-12.2 15.9-5.4 2.5-3.3 4.5q-0.1 0.2-0.2 0.4z"/><path class="ak" d="m292.1 82.1l17.1 16.5 16 15.6c2.5-0.4 2.8-27.5 2.8-27.5l-1.3-2.4-27.6-3.6z"/><path class="al" d="m298.3 79.4l14.7-20.5q-0.4-0.2-0.7-0.3l-42.2-13.9q-0.8-0.3-1.6-0.2v30.9z"/><path class="am" d="m223 51.2l-2.9 4 3.5 3.3-5.1-1-4.3 6 6.8-3.5h5.4c0 0-6.7-9.4 39.3-15.2l-40.1 4.9c-1 0.1-2 0.7-2.6 1.5z"/><path class="an" d="m266.1 45.5c2.5 0.2 2.3 13.5 2.3 13.5 0.3-4.7 1.4-12.3 1.7-14.3q-0.8-0.3-1.6-0.2l-10 1.2c3.6-0.1 6.7-0.2 7.6-0.2z"/><path class="ao" d="m299.6 60.7c0.7 0.6-1.6 13.9-2.9 14.5-1.3 0.7-7.5-0.5-7.5-0.5l-42.1-1.5-12.5-2.3-7.9 5.3-2.8-1 10.7-7.6c0 0-9.2 5.6-10.4 5.6-1.2 0-8.4-3.5-8.9-4.1-0.4-0.6 5.7-9.1 5.7-9.1-6.6 9.2-10.7 8.9-10.7 8.9l13 10.5 11.6-7.5 14.6 2-2.8 1.3c0 0 33 1.3 42 1.8 9 0.6 10.5 3.5 10.5 3.5l13.8-21.6c0 0-13.2 17.2-13.9 17.3-0.8 0.1 0.6-7.3 1.2-11.6 0.6-4.3 3-4.1 3-4.1-3.1-0.6-18.9-9.5-25.5-13.3l-5.2-1.7c7 3.9 26.5 14.8 27 15.2z"/><path class="ap" d="m210 101.7l2.5 21.2 74.2-5.5 7-23.7-15-1.1-12.1 8.3c-1.2 0.8-2.7 0.9-3.9 0.1l-9.9-6.5-28.5 2.1-5.5 6.8c-1 1.4-2.9 1.7-4.4 0.8z"/><path class="aq" d="m219.5 123.7c0 0 37.6-32.7 72.6-15 35.1 17.6-72.6 15-72.6 15z"/><path class="ar" d="m193 115.9l6.6-4.6c0.8-0.5 1.8-0.8 2.8-0.8h1c1.2 0 2.3 0.4 3.2 1.2l8.7 7.6c1.2 1 2.8 1.4 4.4 1l35.5-8.3c0.8-0.1 1.6-0.1 2.3 0.1l12.1 3.1c1.2 0.3 2.5 0.1 3.6-0.5l27.6-15.4c1.1-0.6 2.4-0.8 3.6-0.5l15.8 3.7q0.6 0.1 1.1 0.4l12.7 6.6c2.4 1.3 3.3 4.2 2.1 6.6l-23.8 46.6c-0.6 1.1-1.6 1.9-2.7 2.3l-51.9 18.4c-1.3 0.4-2.8 0.3-4-0.4l-54.2-30.3c-1.3-0.6-2.2-1.8-2.5-3.2l-6-28.5c-0.4-2 0.4-4 2-5.1z"/><path class="as" d="m199 152.4q0.2 0.2 0.5 0.3l54.2 30.3c1.1 0.6 2.4 0.8 3.6 0.5-11-2.8-50.5-40.2-50.5-40.2-4 2.6-7.7 8.9-7.8 9.1z"/><path class="at" d="m334 109.5l-12.7-6.6q-0.5-0.3-1.1-0.4l-15.8-3.7c-1.2-0.3-2.5-0.1-3.6 0.5l-2.4 1.3c4.8 0 8.3 17.2 8.3 17.2l-3.7 5 8.8 40.6q0.3-0.3 0.5-0.7l23.8-46.6c1.2-2.4 0.3-5.3-2.1-6.6z"/><path class="am" d="m202.4 110.5c-1 0-2 0.3-2.8 0.8l-6.6 4.6c-1.6 1.1-2.4 3.1-2 5.1l4.9 23.3c-1.2-9.7-1.9-27 6.5-33.8z"/><path class="au" d="m334 109.5l-12.7-6.6q-0.5-0.3-1.1-0.4l-15.8-3.7c-1.2-0.3-2.5-0.1-3.6 0.5l-2.4 1.3c4.8 0 8.3 17.2 8.3 17.2l-3.7 5c0 0-36 12.5-37.8 12.8-1.7 0.4-23.5-7.3-28.3-8.2l-20.3 9.7 5.5-17.3-2.4 0.5c-1.6 0.4-3.2 0-4.4-1l-8.7-7.6q-0.6-0.5-1.3-0.8l1.5 32.4 33.4-9.3 0.7 4.9 67.1 26.7 1.6-0.6c1.1-0.4 2.1-1.2 2.7-2.3l23.8-46.6c1.2-2.4 0.3-5.3-2.1-6.6z"/><path class="av" d="m265.7 135.5l18.2-6.1-10.7-14.7c-1.1 0.6-2.4 0.8-3.6 0.5l-12.1-3.1c-0.2-0.1-0.4-0.1-0.6-0.1l8.2 23.2z"/><path class="at" d="m240.9 138.9l-0.7-4.9-33.4 9.3 24.9 22.3-5.1-19.9z"/><path class="aw" d="m216.6 137.1l5.5-17.3-2.4 0.5c-1.6 0.4-3.2 0-4.4-1l-8.7-7.6q-0.6-0.5-1.3-0.8l1.5 32.4z"/><path class="at" d="m271.4 143.1l-31.2-9.1-33.4 9.3 24.9 22.3-5.1-19.9 14.3-6.8 30.5 12.1 25-13.4z"/><path class="ax" d="m205.3 110.9c0 0 1.6 29.2 0 32.2-1.5 2.9-5.5 6-6.3 9.3 0 0 5.2-7.9 8.2-7 3 0.9 24.5 20.2 24.5 20.2 0 0-22.3-20-21.9-21.3 0.3-1.4 29.8-9.5 29.8-9.5 0 0 0 4.7-13 10.9l-4.5-1.4c0 0 4.2 0.6 9 18.8 0 0-4.8-16.4-0.9-18.3 3.8-1.9 10.4-5.3 14.5-3.7 4.1 1.7 44.8 17.1 44.8 17.1l-15.8-7.3 22.7-13.3-24.5 12.2c0 0-29.3-9.1-30.5-11.6-1.2-2.4 0.2-2.7 0.2-2.7l29.8 7.6-31.5-10.3c0 0-27.9 9.7-27.6 8.3 0.2-1.3 24.6-13.7 24.6-13.7l28.1 9.2 19.5-7.2c0 0 17-5.6 18.2-3.8 1.2 1.8 6.8 27.5 6.8 27.5 0 0-6.5-26.5-2.8-33.4 3.7-6.8 4.9-10.9 4.9-10.9 0 0-3.7 10.9-5.9 4.3-2.1-6.6-3.2-8.3-3.2-8.3 0 0 6 13.1 0 18.1-6 5.1-21.4 2.8-28.4-6.9 0 0 7.5 11.2 5.9 13.4-1.5 2.2-12.9 6.2-14.1 4.6-1.2-1.6-6.3-14.3-6.3-14.3 0 0 6.1 15.3 1.8 14.3-4.3-1-30.3-10.3-30.3-10.3l4.9 3c0 0-18.8 11.7-18.7 9.7 0-2 3.4-12.2 3.4-12.2 0 0-6.6 14.8-11 16.9-2.3 1.2-4.4-30.2-4.4-30.2z"/><path class="ay" d="m254.6 183.4q0.3 0.1 0.7 0.1 0.1 0.1 0.2 0.1 0.4 0 0.9 0 0.5 0 0.9-0.1 0.2-0.1 0.4-0.1l36.2-12.8 14.1-5 1.6-0.6c1.1-0.4 2.1-1.2 2.7-2.3l23.8-46.6c1.2-2.4 0.3-5.3-2.1-6.6l-12.7-6.6q-0.5-0.3-1.1-0.4l-14.1 34.6-24.8 23.1-49.6 5.4-27.5-10.2 49.5 27.6q0.5 0.3 0.9 0.4z"/><path class="az" d="m289.7 74.1c3 8.3-5.2 18.8-18.3 23.4-13 4.7-26 1.8-29-6.5-2.9-8.2 5.3-18.7 18.3-23.4 13.1-4.7 26.1-1.7 29 6.5z"/><path class="aA" d="m238.9 92.8c-1.5 8.6-13.8 13.7-27.5 11.2-13.7-2.4-23.5-11.3-22-20 1.6-8.6 13.9-13.7 27.5-11.3 13.7 2.5 23.5 11.4 22 20.1z"/><path class="aB" d="m197.4 82.1l10 0.9q0.9 0.1 1.7 0.6l14.1 7.9c1 0.5 2.1 0.7 3.1 0.5l6.2-1.5c1.7-0.3 3-1.7 3.3-3.3l0.5-2.7c0.4-1.7-0.3-3.3-1.6-4.3l-14.9-11.5c-0.6-0.5-1.1-1.1-1.4-1.8l-0.9-2.4c-0.9-2.2-3.5-3.3-5.7-2.4l-14.8 6.1c-1.4 0.5-2.4 1.8-2.7 3.3l-0.8 5.6c-0.4 2.5 1.4 4.8 3.9 5z"/><path class="h" d="m193.5 77.1c-0.4 2.5 1.4 4.8 3.9 5l10 0.9q0.9 0.1 1.7 0.6l14.1 7.9c1 0.5 2.1 0.7 3.1 0.5l6.2-1.5c1.7-0.3 3-1.7 3.3-3.3l0.5-2.7c0.4-1.7-0.3-3.3-1.6-4.3 0.6 4.5-12.1 3.6-12.1 3.6l-10-8.1c0 0-13.4-1.7-15.6-2.6-1.1-0.4-1.8-1.7-2.2-3q-0.3 0.7-0.5 1.4z"/><path class="am" d="m211.8 62.1l-14.8 6.1c-0.9 0.3-1.7 1-2.2 1.9 0 0 14.8-6.2 23.1-4.6l-0.4-1c-0.9-2.2-3.5-3.3-5.7-2.4z"/><path class="aC" d="m203.1 74.4c4.5 0.7 9.5 1.3 9.5 1.3l6.8-7.4c-0.4-0.4-0.8-0.9-1-1.4l-0.5-1.4z"/><path class="aD" d="m222.1 90.9l1.1 0.6c1 0.5 2.1 0.7 3.1 0.5l6.2-1.5c1.7-0.3 3-1.7 3.3-3.3l0.5-2.7c-2.1 1.7-13.7-0.7-13.7-0.7z"/><path class="aE" d="m197.4 82.1l10 0.9q0.9 0.1 1.6 0.5l3.6-7.8c0 0-5-0.6-9.5-1.3-5.9 6.4-7.6 6.9-7.8 7 0.6 0.4 1.3 0.6 2.1 0.7z"/><path class="aF" d="m194.8 70.1c0 0 2 3.6 6.6 3.3 4.6-0.3 16.5-7.9 16.5-7.9 0 0-12.9 8.2-12.4 8.7 0.5 0.6 6.2 1 7.3 0.5 1.1-0.4 6.6-6.4 6.6-6.4 0 0-6.3 7-5.7 7.9 0.6 0.8 8.4 6.9 9.5 7.1 1 0.1 10 0.7 11.5-3.1 0 0 3.4 4-10.8 3.9l6.6 0.9c0 0-6.8-0.6-7.5 1.7-0.8 2.3-0.9 4.2-0.9 4.2 0 0 1-5.7-1.7-7.7-2.7-2-8.2-5.5-8.2-5.5l-3.2 5.8c0 0 2.9-6.5 1.2-7.3-1.6-0.7-6.1-1.3-7.3-0.8-1.2 0.5-5.5 4.6-5.5 4.6 0 0 4.8-4.6 3.7-5.6 0 0-4.8 1.3-6.3-4.3z"/><path class="aG" d="m240.6 84.1l1.6 2.9c0.8 1.6 2.5 2.5 4.3 2.3l5.5-0.6q0.9-0.1 1.7-0.6l22.3-13.4q0.7-0.4 1.5-0.5l6.4-1.3c2.3-0.4 3.9-2.7 3.4-5l-0.5-2.6c-0.3-1.8-1.6-3.1-3.3-3.5l-19.5-4.2q-1-0.2-1.9 0l-9.4 2.3c-1.2 0.3-2.3 1.1-2.8 2.2l-9.3 17.9c-0.7 1.3-0.7 2.8 0 4.1z"/><path class="h" d="m240.6 84.1l1.6 2.9c0.8 1.6 2.5 2.5 4.3 2.3l5.5-0.6q0.9-0.1 1.7-0.6l22.3-13.4q0.7-0.4 1.5-0.5l6.4-1.3c2.3-0.4 3.9-2.7 3.4-5l-0.5-2.6c-0.3-1.8-1.6-3.1-3.3-3.5l-0.8-0.2c2 4-10.7 3.3-10.7 3.3 0 0-21.8 15-25.4 15.9-2 0.5-4.4 0.2-6.2-0.2-0.4 1.1-0.4 2.4 0.2 3.5z"/><path class="aH" d="m247.2 80.6c2-0.8 6.5-3.6 11.1-6.5 0 0 3.1-8 5.3-12.4 1.5-3 2.8-3.5 3.5-3.4l-3.1-0.7q-1-0.2-1.9 0c2.9 1.6-14.9 23-14.9 23z"/><path class="aI" d="m269.2 78.8l-10.9-4.7c-4.6 2.9-9.1 5.7-11.1 6.5l6 7.7q0.2-0.1 0.5-0.2z"/><path class="aJ" d="m272.3 76.9l3.7-2.2q0.7-0.4 1.5-0.5l2.4-0.5-7.9-8.8z"/><path class="aK" d="m285.9 71.9c1.1-1 1.7-2.5 1.4-4l-0.5-2.6c-0.3-1.8-1.6-3.1-3.3-3.5l-0.8-0.2c2.5 1.9 3.1 7.6 3.2 10.3z"/><path class="aL" d="m240.4 80.6c0 0 3.8 1.3 7.2-1.6 3.3-3 12.7-16 12.7-16l-8.5 14.3c0 0 4.3-2 6-4.3 1.8-2.3 5.4-10.5 5.4-10.5l-3.6 10.1 12.4-7.7c0 0 12.3 0.4 10.4-3.2 0 0 6.2 3.5-9.6 3.6l6.4 7.6-6.8-6.7-0.1 10.7-1.3-10.4c0 0-11.2 6.7-10.3 7.8 0.9 1.2 8.5 4.5 8.5 4.5 0 0-10-4.4-11.8-3.6-1.9 0.9-8.9 4.5-8.1 6.9 0.8 2.3 3.9 6.2 3.9 6.2 0 0-5.2-7.8-7.7-7.3-2.5 0.5-2.9 0.8-5.1-0.4z"/><path class="aM" d="m246 275.5l-10.3-23.6q-0.5-0.9-1.2-1.6l-44.4-46.6c-1.9-1.9-4.7-2.3-7-1l-1.5 0.8c-1.7 1-3.8 1-5.6 0.1l-14.4-7.6c-1.9-1-3.1-3-3.1-5.1v-16.1c0-1.2-0.3-2.3-1-3.2l-18.5-27.7c-1.4-2-4-3-6.4-2.3l-7.7 2.1c-1.9 0.5-3.9 0.1-5.3-1.2l-27.8-24.6q-0.9-0.8-2.1-1.2l-16.3-4.8c-1.2-0.4-2.5-0.3-3.6 0.1l-36.2 13c-1.4 0.5-2.6 1.5-3.2 2.8l-12.6 25.2c-0.7 1.4-0.8 3.1-0.3 4.6l1.3 3.6c1.1 2.9-0.4 6.1-3.3 7.3-1.5 0.6-2.7 1.9-3.3 3.4l-11.9 33.9c-0.6 1.7-0.3 3.6 0.7 5.1l28.9 44.2c1 1.5 2.5 2.4 4.3 2.6l16.5 1.6q1 0.1 2 0.6l65 33.3c1.1 0.5 2.3 0.7 3.5 0.5l52.7-7.8q0.4 0 0.7 0l66.4-2.3c4-0.1 6.7-4.3 5-8.1z"/><path class="aN" d="m64.1 168.6l-9.5 28.1-46.1 12.6 49.2-3.2 38.6 29.6-2 5.8-25.1-0.7-18.6-17.3-22.4 4.4 18.3 1.4 22 22.7-15.8 7.9 65 33.3c1.1 0.5 2.3 0.7 3.5 0.5l52.7-7.8q0.4 0 0.7 0l66.4-2.3c4-0.1 6.7-4.3 5-8.1l-3.2-7.3-2.1 2.1-82.4-4.8 36.6-25.4-18.9-36.5-14.4-7.6c-1.9-1-3.1-3-3.1-5.1v-11l-20.5 38.5-24.4-8.1-8.5-16.3 19.8-50.3c-1.9 0.5-3.9 0.1-5.3-1.2l-27.8-24.6q-0.9-0.8-2.1-1.2l-16.3-4.8-7.6 48.6-41.5-2-6.5-5.5c-0.7 1.4-0.8 3.1-0.3 4.6l1.3 3.6c1.1 2.9-0.4 6.1-3.3 7.3-0.8 0.3-1.6 0.9-2.2 1.7l8.1-3.6z"/><path class="aO" d="m64.1 168.6l2.7 0.4-9.8 30.1 0.7 7 38.6 29.6-2 5.8-25.1-0.7-18.6-17.3-23.8 4.8 19.7 1 22 22.7-15.8 7.9 17.2 8.8 31.8-18.1 14.6 20 1.4 22.6c1.1 0.5 2.3 0.7 3.5 0.5l52.7-7.8 64.7-11.6-117.6-6.1-13.2-22.7 26.8 10.5 30.8-45.7-11.1 54.9c0 0 21-26.8 21.7-27.1 0.8-0.4 0-34.5 0-34.5l-14.4-7.6c-1.9-1-3.1-3-3.1-5.1v-11l-19.5 45.6h-14.1l-23.2-15.9-2.7-11.8 15.6-44.1 10.3-10c-1.9 0.5-3.9 0.1-5.3-1.2l-27.8-24.6-17.2 44.6-8.8 2-43.4-2h-3.3c0.3 2.5-1.1 5-3.6 6-0.8 0.3-1.6 0.9-2.2 1.7l8.1-3.6z"/><path class="h" d="m114.6 153.7l-15.3 25.9-20.9-19.5-3.8 2.4-8.8 2-44.4 2.1 45.4 2.4 29.4 24.1-2.5 16 24.9 20.3-21.1 14.8-27.5-1.3-0.8-2.1-18.6-17.3-23.8 4.8 19.7 1 22 22.7 1.5-5.5 28.5 1.5 27.5-18.1 15-3.5 17.5-46.5-19.5 45.6h-14.1l-23.2-15.9-2.7-11.8z"/><path class="aP" d="m24.3 158.5c0 0 38.5 1.5 39.6 0 1.2-1.4 8.5-40.6 8.5-40.6 0 0-4.9 41.4-3.7 42.1 1.2 0.6 21.8-38.5 21.8-38.5 0 0-12.5 34.1-11 35.9 1.6 1.9 19.8 22.2 19.8 22.2l-20.9-19.5-3.8 2.4-8.8 2z"/><path class="aQ" d="m21.4 166.6c0 0 37.1 2.5 38.5 4.2 1.3 1.7-3.7 23.6-6.8 24.2-3 0.7-44.6 14.3-44.6 14.3 0 0 45.4-11.4 46-10.2 0.5 1.2 2.4 5.6-5.3 7.6 0 0 15.4 6 19.3 9.2 3.9 3.2 26.8 21.2 25.4 23.4-1.3 2.1-24.7 1.5-24.7 1.5l25.1 0.7 2-5.8-38.6-29.6-0.7-7 9.8-30.1-2.7-0.4z"/><path class="aR" d="m124.9 143.7c0 0-17.6 48-17.7 51-0.1 3 6.1 12.9 7.6 13.1 1.5 0.1 17.4-10.4 17.4-10.4 0 0-14.9 11.7-13.4 12.6 1.6 0.8 19.2 8.4 19.2 8.4l-24.4-8.1-11.9-0.7c0 0 9.4-1.2 8.5-3-0.8-1.9-10.7-10.1-10.7-10.1 0 0 11.5-9.7 25.4-52.8z"/><path class="aS" d="m26.8 228.3c0 0 16 1.8 16 15 0 0 1.3-12.3 4.9-9.6 3.5 2.7 20.8 18.3 20.8 18.3l-22-22.7z"/><path class="h" d="m109.5 162.3l9.2-1.6 17.4-2.3 13.6 37.9-2.3 9.6 14.7 9.3h2.3l11.8-2.9 18.7 27.8 10.2 28.1-27.4 3-60 22c1.1 0.5 2.3 0.7 3.5 0.5l52.7-7.8q0.4 0 0.7 0l66.4-2.3c4-0.1 6.7-4.3 5-8.1l-10.3-23.6q-0.5-0.9-1.2-1.6l-44.4-46.6c-1.9-1.9-4.7-2.3-7-1l-1.5 0.8c-1.7 1-3.8 1-5.6 0.1l-14.4-7.6c-1.9-1-3.1-3-3.1-5.1v-16.1c0-1.2-0.3-2.3-1-3.2l-18.5-27.7c-1.4-2-4-3-6.4-2.3l-7.7 2.1c-1.9 0.5-3.9 0.1-5.3-1.2l-27.8-24.6q-0.9-0.8-2.1-1.2l-9.3-2.7 10.1 7.5z"/><path class="aT" d="m415.8 263.9l-8.3-24.4q-0.3-1-0.3-2l1.6-64.4c0-2.6 1.9-4.9 4.4-5.5l1.7-0.4c1.9-0.4 3.5-1.8 4.1-3.6l5.6-15.4c0.7-2 0.3-4.3-1.2-5.8l-10.8-11.9c-0.8-0.9-1.3-1.9-1.5-3.1l-4.9-32.9c-0.3-2.5 0.9-4.9 3.1-6l7.2-3.6c1.7-0.9 2.9-2.6 3.1-4.5l4-36.8q0.1-1.3 0.7-2.4l8.8-14.6c0.6-1 1.6-1.8 2.7-2.3l35.5-14.8c1.4-0.6 2.9-0.6 4.3-0.1l26.3 10.2c1.5 0.5 2.7 1.7 3.3 3.2l1.4 3.5c1.2 2.9 4.5 4.3 7.4 3.2 1.5-0.6 3.3-0.5 4.7 0.3l31.7 17c1.6 0.9 2.7 2.4 2.9 4.2l8.4 52.2c0.3 1.7-0.2 3.5-1.4 4.7l-11.1 12.4q-0.7 0.8-1.1 1.8l-25.6 68.4c-0.4 1.1-1.2 2.1-2.2 2.7l-44.2 29.8q-0.3 0.2-0.6 0.4l-50.5 43c-3.1 2.7-7.9 1.4-9.2-2.5z"/><path class="aU" d="m478.2 62.3l25.9 14.4 42.5-21.8-38.4 30.8-8.6 47.9 5.4 2.9 18.1-17.4 2.1-25.3 19.5-11.9-12.6 13.4-1 31.6 17-4.8-25.6 68.4c-0.4 1.1-1.2 2.1-2.2 2.7l-44.2 29.8q-0.3 0.2-0.6 0.4l-50.5 43c-3.1 2.7-7.9 1.4-9.2-2.5l-2.6-7.6 3 0.1 57.7-59-44.2 5.9-10.7-39.7 5.6-15.4c0.7-2 0.3-4.3-1.2-5.8l-7.3-8.1 41 14.6 12.6-22.4-4.7-17.8-48.5-23.8c1.7-0.9 2.9-2.6 3.1-4.5l4-36.8q0.1-1.3 0.7-2.4l8.8-14.6 38.3 30.9 29.4-29.5 1.1-8.4c1.5 0.5 2.7 1.7 3.3 3.2l1.4 3.5c1.2 2.9 4.5 4.3 7.4 3.2 0.9-0.3 1.8-0.4 2.8-0.3l-8.4 2.8z"/><path class="aV" d="m478.2 62.3l-1.8 2.1 27.6 15.7 4.2 5.6-8.6 47.9 5.4 2.9 18.1-17.4 2.1-25.3 20.7-12.5-13.8 14-1 31.6 17-4.8-6.8 18.1-35.7 8.1 2.7 24.6 14.2 17.6c-0.4 1.1-1.2 2.1-2.2 2.7l-44.2 29.8-55.7 35 82.8-83.7-5.5-25.7-12.7 25.8-53.6-13 45.2 33c0 0-33.5-5.6-34.3-5.3-0.8 0.2-23.3-25.5-23.3-25.5l5.6-15.4c0.7-2 0.3-4.3-1.2-5.8l-7.3-8.1 45.1 20.5 10.4-9.4 6.4-27.4-6-10.6-41.2-22.1-14.3-0.4c1.7-0.9 2.9-2.6 3.1-4.5l4-36.8 42.7 21.3 7.9-4.4 30.7-30.8 2.4-2.2c1.5 2 4.2 2.9 6.7 2 0.9-0.3 1.8-0.4 2.8-0.3l-8.4 2.8z"/><path class="h" d="m430.8 85.3l28.8 8.8 2.2-28.5 4.5-0.7 7.9-4.4 34.2-28.5-32 32.4-5.5 37.6 12.7 10.2-4.7 31.8 25.5-3.3 19.5-19.5-0.8-2.1 2.1-25.3 20.7-12.5-13.8 14-1 31.6-4.8-3.1-20.1 20.4-32.4 5.1-13.5 7.5-44.2-22.5 45.1 20.5 10.4-9.4 6.4-27.4-6-10.6z"/><path class="aW" d="m500.8 28c0 0-27.4 27-29.3 26.8-1.8-0.3-33.6-24.3-33.6-24.3 0 0 31.5 27.2 31.1 28.5-0.4 1.3-42-13.7-42-13.7 0 0 32.1 16.7 32.2 19.1 0.2 2.4 0.4 29.7 0.4 29.7l2.2-28.5 4.5-0.7 7.9-4.4z"/><path class="aX" d="m508.4 32c0 0-25.7 26.9-25.6 29.1 0.1 2.2 18.6 14.9 21.3 13.3 2.7-1.5 42.5-19.5 42.5-19.5 0 0-41.2 22.2-40.7 23.5 0.4 1.2 1.9 5.8 9 2 0 0-7.4 14.8-8.1 19.8-0.7 5-5.5 33.8-3.1 34.4 2.5 0.7 19.4-15.5 19.4-15.5l-18.1 17.4-5.4-2.9 8.6-47.9-4.2-5.6-27.6-15.7 1.8-2.1z"/><path class="aY" d="m416.5 84.9c0 0 45.3 23.5 47.5 25.7 2.1 2.2 4.1 13.6 3.1 14.8-1 1.1-19.9 4.1-19.9 4.1 0 0 18.9-1.4 18.4 0.2-0.6 1.7-8.5 19.2-8.5 19.2l12.6-22.4 8.3-8.5c0 0-7.7 5.4-8.3 3.4-0.6-1.9 1.2-14.6 1.2-14.6 0 0-15.1 0.5-54.4-21.9z"/><path class="aZ" d="m545.9 81.3c0 0-10.5 12.1-1.6 21.9 0 0-9.3-8.3-10.1-3.9-0.8 4.4-3.1 27.6-3.1 27.6l1-31.6z"/><path class="h" d="m407.5 239.5l8.3 24.4c1.3 3.9 6.1 5.2 9.2 2.5l50.5-43q0.3-0.2 0.6-0.4l44.2-29.8c1-0.6 1.8-1.6 2.2-2.7l25.6-68.4q0.4-1 1.1-1.8l11.1-12.4c1.2-1.2 1.7-3 1.4-4.7l-8.4-52.2c-0.2-1.8-1.3-3.3-2.9-4.2l-3.8 8.1-42.6 25.2-4.4 53.5 18.4 11.9-11.1 13.9-7-0.4-28.3 31.8-29.3-1.7-12.6 14.2-12.4 33.9-9.5-23-0.6 23.3q0 1 0.3 2z"/></svg>