<svg version="1.2" xmlns="http://www.w3.org/2000/svg" viewBox="0 0 758 719" width="758" height="719"><style>.a{opacity:.3;fill:#11a9d2}.b{opacity:.6;fill:#11a9d2}.c{fill:#11a9d2}.d{fill:#fff}.e{fill:#7ae3fc}.f{fill:#4fcced}.g{fill:#935757}.h{fill:#fb4633}.i{fill:#e2271e}.j{fill:#491d1d}.k{fill:#682f2f}.l{fill:#ffc1af}.m{fill:#ffad97}.n{fill:#ffa08d}.o{fill:#592625}.p{opacity:.5;fill:#a9f3ff}</style><path class="a" d="m633.1 559.2c-4-12.3-20-16.5-30.4-23-12.4-7.8-17.3-20.3-21.6-32.8-4.1-11.7-8-24.3-17.7-33.4-11.4-10.6-28.9-14.8-44.7-15.8-19.5-1.1-38 3.9-56.4 9.1-22.9 6.4-40 5.8-47.6 6-17.6 0.6-36-0.1-53.4 2.3-13.6 1.9-25.4 8.2-28.8 20.8-2.1 7.6-3.7 13.3-10.5 18.5-4.2 3.3-9.1 6.2-12 10.6-7.4 10.9 3.2 21.6 11.7 28.7 6.9 5.6 11.9 11.1 14.4 19.3 2.1 6.7 3.1 13.5 6 20 4.8 11.1 13.2 21 25.4 26.1 13.3 5.5 28.5 5.1 42.8 3.8 18.7-1.6 37.6-4.3 55.5 2.7 14.6 5.7 27.2 14.2 43.1 16.7 14.1 2.2 28.8 0.7 42.1-4.2 12.2-4.6 23.8-11.4 26.9-23.6 4.2-16.3 19.8-20.3 34.7-26.6 10.4-4.4 24.4-13 20.5-25.2z"/><path class="b" d="m607.1 549.2c-3.3-10.1-16.4-13.6-25-18.9-10.2-6.4-14.2-16.7-17.8-27-3.3-9.6-6.5-20-14.5-27.5-9.4-8.7-23.8-12.1-36.8-12.9-16-1-31.2 3.2-46.3 7.4-18.9 5.3-33 4.8-39.2 5-14.5 0.5-29.6-0.1-44 1.9-11.1 1.5-20.8 6.7-23.6 17.1-1.7 6.2-3.1 10.9-8.7 15.2-3.4 2.7-7.4 5.1-9.9 8.7-6 9 2.7 17.8 9.7 23.6 5.6 4.6 9.8 9.1 11.9 15.9 1.6 5.5 2.5 11.1 4.8 16.4 4 9.1 10.9 17.3 20.9 21.5 11 4.6 23.5 4.2 35.3 3.2 15.4-1.4 30.9-3.6 45.6 2.2 12 4.7 22.3 11.6 35.5 13.7 11.6 1.8 23.7 0.6 34.5-3.5 10.1-3.7 19.6-9.3 22.2-19.4 3.5-13.4 16.3-16.7 28.6-21.9 8.5-3.6 20-10.6 16.8-20.7z"/><path class="c" d="m582.6 541.4c-2.7-8.4-13.7-11.3-20.8-15.8-8.4-5.3-11.8-13.9-14.8-22.4-2.7-8-5.4-16.7-12-22.9-7.8-7.2-19.8-10.1-30.6-10.7-13.3-0.8-26 2.6-38.6 6.2-15.6 4.4-27.3 3.9-32.5 4.1-12.1 0.4-24.7-0.1-36.6 1.5-9.3 1.3-17.3 5.7-19.6 14.3-1.5 5.2-2.6 9.1-7.2 12.6-2.9 2.3-6.2 4.3-8.3 7.3-5 7.5 2.3 14.7 8.1 19.6 4.7 3.8 8.1 7.6 9.8 13.2 1.4 4.6 2.2 9.2 4.1 13.6 3.3 7.6 9 14.4 17.4 17.9 9.1 3.8 19.5 3.5 29.3 2.6 12.8-1.1 25.7-2.9 37.9 1.9 10 3.9 18.6 9.7 29.5 11.4 9.6 1.5 19.7 0.5 28.7-2.9 8.4-3.1 16.3-7.7 18.5-16.1 2.9-11.2 13.5-13.9 23.7-18.2 7.1-3 16.7-8.9 14-17.2z"/><path class="d" d="m459 575.1c-5.3-5-9.9-13.2-11.9-19.7-1.2 6.5-1.4 13.4-7.3 10.7-4.7-2.1-6.9-10.2-8.1-14.7-1.6 5-5 13.2-10.1 11.3-3.8-1.5-2.1-12.6-2.4-16.1-1.3 1.9-2 4.7-4.3 6.7-8.6 7.3-8.8-2-7-7.3 0.5-1.4 1.4-2.6 2-3.9 1.5-3.3 1.3-4.9 1.7-9.7-4.8 5.9-9.4 11.3-16.5 15-4.5 2.4-14.4 4.5-15.9 10.2-1.1 4.1 3.2 6.8 6.7 7.4 2.4 0.4 4.8 0.2 7-0.5-1.4 1.4-2.8 3-3.9 4.7-1.4 2.3-2.9 6-0.2 8 4.6 3.3 12.8 2 17.7-1.6-0.6 1.8-0.6 3.5 1 4.7 2.6 1.9 6.2 0.5 8.8-1.4-0.3 3.4 0.8 6.9 5.2 6.8 3.2-0.1 6.5-2.2 8.3-5 1 4.5 3.8 8.8 7.8 10.3 2.6 1.1 6.1 0.5 7.7-2.1 0.8-1.3 0.7-2.7 0.7-4.2q-0.1-1.3-0.2-2.7c1.7 3.7 4.1 7.1 8.1 8.7 3.6 1.4 7.9 0.8 9.6-3 2.2-4.8-1.2-9.4-4.5-12.6z"/><path class="d" d="m494.2 604.7c5.3-5 9.8-13.3 11.9-19.7 1.2 6.5 1.4 13.3 7.2 10.7 4.8-2.1 6.9-10.2 8.2-14.7 1.6 5 5 13.2 10.1 11.3 3.8-1.5 2.1-12.6 2.3-16.1 1.4 1.9 2 4.7 4.4 6.6 8.5 7.4 8.8-1.9 7-7.2-0.5-1.4-1.4-2.6-2-3.9-1.5-3.3-1.3-4.9-1.7-9.8 4.8 6 9.4 11.4 16.4 15.1 4.5 2.4 14.5 4.5 16 10.2 1.1 4.1-3.3 6.8-6.8 7.4-2.3 0.4-4.8 0.2-7-0.6 1.5 1.5 2.8 3.1 3.9 4.8 1.5 2.3 3 6 0.2 8-4.5 3.3-12.8 2-17.7-1.6 0.7 1.8 0.6 3.5-0.9 4.6-2.6 1.9-6.3 0.5-8.9-1.4 0.3 3.5-0.7 7-5.1 6.9-3.3-0.1-6.6-2.2-8.4-5-0.9 4.5-3.7 8.8-7.7 10.3-2.7 1.1-6.1 0.5-7.7-2.1-0.8-1.3-0.8-2.7-0.7-4.2q0.1-1.3 0.1-2.7c-1.6 3.7-4.1 7.1-8 8.7-3.6 1.4-7.9 0.8-9.6-3-2.2-4.8 1.1-9.4 4.5-12.6z"/><path class="d" d="m366.8 487.7c-4.2 2.4-11 4.3-13.8 8.5-3.4 5 0.9 8.3 5.2 7.4-2.3 2-4.6 3.9-5.5 6.9-1.2 4.4 2.9 5.3 6 4.1q-1.2 1.6-2.4 3.4c-1.1 1.5-2.8 3.4-2.3 5.4 0.8 3 2.5 2 4.2 1.6-1.7 3.2-3.1 7.5 0.4 10 1.2 0.9 2.8 1.1 4.1 0.5 1.8 0.2 13.7-5.2 12.4-19.1-3.6 7.8-5.6 6.3-7.1 6.7-2.3 0.6-2.6-1.6-2.2-3.5 0.7-2.7 3.3-5.1 5.2-7 3-3.1 5.9-5.9 7.8-9.8 3.6-7.5 3.6-19.5 3.6-29-4.1 7-10.6 11.1-15.6 13.9z"/><path class="d" d="m576.4 535.3c4.2 2.4 10.9 4.3 13.8 8.5 3.4 5-0.9 8.3-5.3 7.3 2.4 2 4.7 4 5.5 7 1.3 4.3-2.8 5.2-6 4.1q1.3 1.6 2.5 3.3c1.1 1.6 2.8 3.4 2.2 5.5-0.7 2.9-2.4 1.9-4.2 1.6 1.7 3.1 3.1 7.5-0.3 10-1.3 0.9-2.9 1-4.1 0.5-1.9 0.2-13.7-5.3-12.5-19.2 3.6 7.9 5.7 6.4 7.2 6.8 2.3 0.6 2.6-1.6 2.1-3.5-0.6-2.7-3.3-5.1-5.2-7-3-3.1-5.8-5.9-7.7-9.8-3.7-7.5-3.7-19.5-3.7-29 4.2 7 10.6 11.1 15.7 13.9z"/><path class="d" d="m330.9 526c-1.3-1.3-3 0.5-3.1 1.9-0.1 1.5 1.2 2.7 2.6 2.3 1.2-0.3 2-2.6 0.5-4.2z"/><path class="d" d="m372.4 428.3c-0.3 1.2 0.1 2.5 1.3 3 1.2 0.4 2.5-0.1 3.2-1.1 0.7-1.1 0.6-2.7 0.2-3.9-1.3-3.4-4.2 0.5-4.7 2z"/><path class="d" d="m466 420c-0.4 1.2 0.1 2.5 1.3 3 1.1 0.4 2.5-0.1 3.2-1.1 0.7-1.1 0.6-2.7 0.1-3.9-1.2-3.4-4.1 0.5-4.6 2z"/><path class="d" d="m378 435.2c-1.9 0.2-3.9 1.2-4.6 2.8-0.4 0.7-0.6 1.7-0.1 2.3 0.8 0.8 2.2 0.2 3.1 0 1.8-0.4 5.1-1 4.4-3.6-0.4-1.3-1.7-1.6-2.8-1.5z"/><path class="d" d="m366.8 437.3c0.7 0.2 1.4-0.2 2.1-0.4 0.7-0.2 1.5-0.1 1.8-1 0.5-1.5-1.3-3.5-2.7-3.5-2.3-0.1-2.2 4.6-1.2 4.9z"/><path class="d" d="m390.9 461.4c0.8 0.3 1.4-0.2 2.1-0.3 0.8-0.2 1.6-0.2 1.9-1.1 0.5-1.4-1.4-3.5-2.8-3.5-2.2 0-2.2 4.6-1.2 4.9z"/><path class="e" d="m360 449.9c0.6 0.7 2.1-0.1 2.4-0.7 0.5-0.8 0.2-3.1-0.7-3.5-2.1-1.2-2 3.7-1.7 4.2z"/><path class="d" d="m366.7 452.6c1.1 0.8 2.6 0.3 3.2-0.8 0.7-1 0.3-2.1-0.5-3-1.7-1.9-3.6 3-2.7 3.8z"/><path class="d" d="m348.7 425.3c-1.6 3.2 3.2 2.8 4.6 2.2 1.1-0.5 1.9-1.7 1.4-3-0.4-1.1-1.7-1.8-2.9-1.6-1.4 0.2-2.5 1.3-3.1 2.4z"/><path class="d" d="m352.3 416c-0.6 1-0.1 2.2 0.7 3 1.3 1.2 3.3 1.9 5 1.5 0.6-0.2 1.5-0.6 1.6-1.4 0.1-1.1-1.2-1.7-1.9-2.2-1.4-1.1-4-3.1-5.4-0.9z"/><path class="e" d="m358.9 425.2c-1.4 0.6-1.7 3.4-0.9 4.4 1.5 1.7 5-1.4 4.5-2.3-0.3-0.8-1-1-1.6-1.4-0.6-0.4-1.1-1-2-0.7z"/><path class="e" d="m387 449.1c-1.5 0.6-1.8 3.4-0.9 4.4 1.5 1.7 4.9-1.3 4.5-2.3-0.3-0.7-1-0.9-1.6-1.3-0.7-0.5-1.2-1.1-2-0.8z"/><path class="e" d="m339.9 439.9c-0.9 0.2-2.3 1.9-2.1 2.9 0.5 2.4 4.2-1 4.3-1.5 0.1-1-1.5-1.5-2.2-1.4z"/><path class="e" d="m290.3 463.5c-0.8 0.2-2.3 1.9-2.1 2.9 0.5 2.4 4.2-1 4.3-1.5 0.1-1-1.5-1.5-2.2-1.4z"/><path class="e" d="m259.1 433.6c-0.8 0.2-2.3 1.9-2.1 2.8 0.5 2.4 4.2-0.9 4.3-1.5 0.1-0.9-1.5-1.5-2.2-1.3z"/><path class="e" d="m243.6 376.5c-0.8 0.2-2.3 1.9-2.1 2.8 0.5 2.4 4.2-0.9 4.3-1.5 0.1-0.9-1.5-1.5-2.2-1.3z"/><path class="e" d="m336.5 411.1c-0.9 0.2-2.4 1.9-2.2 2.9 0.6 2.3 4.2-1 4.3-1.6 0.2-0.9-1.4-1.4-2.1-1.3z"/><path class="e" d="m307 428.1c-0.9 0.2-2.4 1.9-2.2 2.9 0.6 2.4 4.2-1 4.3-1.5 0.2-1-1.4-1.5-2.1-1.4z"/><path class="e" d="m261.3 397.6c-0.9 0.1-2.4 1.9-2.1 2.8 0.5 2.4 4.1-0.9 4.2-1.5 0.2-0.9-1.4-1.5-2.1-1.3z"/><path class="e" d="m261.3 371.8c-0.9 0.2-2.4 1.9-2.1 2.9 0.5 2.4 4.1-1 4.2-1.5 0.2-1-1.4-1.5-2.1-1.4z"/><path class="e" d="m489.8 435.4c-0.9 0.2-2.4 1.9-2.2 2.9 0.6 2.4 4.2-1 4.3-1.5 0.2-1-1.5-1.5-2.1-1.4z"/><path class="e" d="m360.5 436.5c-1.2 0.2-1.8 1.2-1.9 2.4-0.3 2.6 4.6 0.8 4.5-0.4-0.1-1.3-1.4-2.2-2.6-2z"/><path class="d" d="m345.1 452c-0.3 1.1 0.1 2.5 1.3 2.9 1.2 0.4 2.5-0.1 3.2-1.1 0.7-1.1 0.6-2.7 0.1-3.9-1.2-3.3-4.1 0.6-4.6 2.1z"/><path class="d" d="m311.5 503.1c-0.3 1.1 0.1 2.5 1.3 2.9 1.2 0.4 2.5-0.1 3.2-1.1 0.7-1.1 0.6-2.7 0.2-3.9-1.3-3.3-4.2 0.6-4.7 2.1z"/><path class="d" d="m328.9 519.7c-0.3 1.2 0.1 2.6 1.3 3 1.2 0.4 2.5-0.1 3.2-1.1 0.7-1.1 0.6-2.7 0.1-3.9-1.2-3.4-4.1 0.6-4.6 2z"/><path class="d" d="m350.6 458.8c-1.8 0.2-3.8 1.3-4.6 2.9-0.3 0.6-0.5 1.6 0 2.2 0.8 0.9 2.2 0.2 3.1 0.1 1.8-0.4 5.1-1.1 4.4-3.7-0.4-1.2-1.7-1.6-2.9-1.5z"/><path class="e" d="m339.5 460.9c0.7 0.3 1.4-0.1 2.1-0.3 0.7-0.2 1.5-0.2 1.8-1.1 0.5-1.4-1.4-3.5-2.7-3.5-2.3 0-2.2 4.6-1.2 4.9z"/><path class="d" d="m332.7 473.5c0.6 0.8 2.1-0.1 2.4-0.7 0.5-0.8 0.2-3-0.7-3.5-2.2-1.1-2 3.8-1.7 4.2z"/><path class="d" d="m227.9 403.7c0.6 0.7 2-0.2 2.4-0.8 0.4-0.8 0.1-3-0.8-3.5-2.1-1.1-2 3.8-1.6 4.3z"/><path class="d" d="m270.1 415.8c0.6 0.7 2.1-0.2 2.4-0.8 0.5-0.7 0.2-3-0.7-3.5-2.1-1.1-2 3.8-1.7 4.3z"/><path class="d" d="m225.5 368c0.6 0.8 2.1-0.1 2.4-0.7 0.5-0.8 0.1-3-0.7-3.5-2.2-1.2-2.1 3.8-1.7 4.2z"/><path class="d" d="m234.6 439c0.6 0.7 2.1-0.2 2.4-0.8 0.5-0.7 0.1-3-0.7-3.5-2.2-1.1-2.1 3.8-1.7 4.3z"/><path class="d" d="m323.5 516c0.6 0.7 2.1-0.1 2.4-0.7 0.5-0.8 0.2-3-0.7-3.5-2.1-1.2-2 3.8-1.7 4.2z"/><path class="d" d="m309 496.1c0.6 0.8 2-0.1 2.4-0.7 0.4-0.8 0.1-3-0.8-3.5-2.1-1.1-2 3.8-1.6 4.2z"/><path class="e" d="m339.4 476.2c1.1 0.8 2.6 0.4 3.2-0.7 0.7-1 0.3-2.1-0.5-3-1.7-1.9-3.6 3-2.7 3.7z"/><path class="d" d="m336.4 486.4c1 0.8 2.5 0.4 3.2-0.7 0.6-1 0.3-2.1-0.6-3-1.7-1.9-3.6 3-2.6 3.7z"/><path class="d" d="m321.4 449c-1.7 3.1 3.2 2.7 4.6 2.1 1.1-0.5 1.9-1.7 1.4-2.9-0.5-1.1-1.7-1.8-2.9-1.7-1.4 0.2-2.5 1.3-3.1 2.5z"/><path class="e" d="m323.7 483.3c-1.7 3.2 3.2 2.7 4.6 2.1 1.1-0.5 1.9-1.7 1.4-2.9-0.5-1.1-1.8-1.8-3-1.7-1.3 0.2-2.4 1.3-3 2.5z"/><path class="d" d="m325 439.6c-0.6 1.1-0.1 2.3 0.7 3 1.3 1.2 3.3 2 4.9 1.5 0.7-0.1 1.6-0.6 1.7-1.4 0.1-1-1.2-1.7-1.9-2.2-1.4-1-4-3-5.4-0.9z"/><path class="d" d="m331.6 448.9c-1.4 0.5-1.7 3.3-0.9 4.4 1.5 1.7 5-1.4 4.5-2.4-0.3-0.7-1-0.9-1.6-1.3-0.6-0.5-1.1-1.1-2-0.7z"/><path class="d" d="m352.4 476.3c-1.4 0.6-1.7 3.4-0.8 4.4 1.4 1.7 4.9-1.4 4.5-2.3-0.3-0.7-1.1-1-1.7-1.4-0.6-0.4-1.1-1-2-0.7z"/><path class="e" d="m319 460.9c-1.4 0.5-1.7 3.3-0.9 4.4 1.5 1.7 4.9-1.4 4.5-2.4-0.3-0.7-1-0.9-1.6-1.3-0.6-0.5-1.1-1.1-2-0.7z"/><path class="e" d="m353.1 466.3c0 1.5 2.4 2.9 3.7 2.5 2.2-0.6 0.7-5-0.4-5-0.7 0-1.2 0.6-1.8 1-0.7 0.4-1.5 0.6-1.5 1.5z"/><path class="d" d="m312.6 463.6c-0.9 0.2-2.3 1.9-2.1 2.9 0.5 2.3 4.2-1 4.3-1.6 0.1-0.9-1.5-1.5-2.2-1.3z"/><path class="d" d="m278.2 468c-0.8 0.2-2.3 1.9-2.1 2.9 0.5 2.3 4.2-1 4.3-1.6 0.1-0.9-1.5-1.4-2.2-1.3z"/><path class="d" d="m312.6 343.1c-0.9 0.2-2.3 1.9-2.1 2.9 0.5 2.4 4.2-1 4.3-1.5 0.1-1-1.5-1.5-2.2-1.4z"/><path class="d" d="m333.2 460.2c-1.2 0.2-1.8 1.2-2 2.4-0.2 2.5 4.7 0.7 4.6-0.5-0.1-1.3-1.4-2.1-2.6-1.9z"/><path class="d" d="m332.5 504.3c-1.2 0.2-1.8 1.2-1.9 2.4-0.3 2.6 4.6 0.8 4.6-0.4-0.1-1.3-1.5-2.2-2.7-2z"/><path class="d" d="m264.1 467.1c-1.2 0.2-1.8 1.2-1.9 2.4-0.3 2.5 4.6 0.7 4.6-0.5-0.1-1.3-1.5-2.1-2.7-1.9z"/><path class="d" d="m311.4 414.4c1-1.5-1.1-2.9-2.5-2.6-1.4 0.2-2.4 1.6-1.7 2.9 0.5 1.2 2.9 1.5 4.2-0.3z"/><path class="e" d="m412.4 419.3c-1.2-0.1-2.5 0.5-2.7 1.8-0.1 1.2 0.6 2.5 1.8 2.9 1.2 0.5 2.7 0.1 3.8-0.6 3-1.9-1.4-3.9-2.9-4.1z"/><path class="e" d="m406.8 426.1c-0.6-1.8-2-3.5-3.7-4-0.7-0.2-1.8-0.2-2.3 0.5-0.6 0.8 0.3 2.2 0.6 3 0.7 1.6 2.1 4.8 4.5 3.5 1.1-0.6 1.2-1.9 0.9-3z"/><path class="e" d="m402.5 415.6c-0.1 0.7 0.4 1.3 0.7 1.9 0.4 0.7 0.5 1.5 1.4 1.6 1.5 0.2 3.2-2 2.9-3.4-0.4-2.2-4.9-1.2-5-0.1z"/><path class="e" d="m320 417.3c-0.6 0.7 0.6 2 1.2 2.2 0.9 0.3 3-0.5 3.3-1.5 0.7-2.3-4.1-1.2-4.5-0.7z"/><path class="e" d="m288.1 427.7c-0.5 0.7 0.6 2 1.3 2.2 0.8 0.3 2.9-0.5 3.2-1.4 0.7-2.3-4.1-1.3-4.5-0.8z"/><path class="e" d="m224.5 429.2c-0.6 0.7 0.6 2 1.2 2.2 0.9 0.2 3-0.5 3.3-1.5 0.7-2.3-4.1-1.2-4.5-0.7z"/><path class="e" d="m347.5 354.5c-0.6 0.7 0.5 1.9 1.2 2.2 0.8 0.2 2.9-0.5 3.2-1.5 0.7-2.3-4.1-1.2-4.4-0.7z"/><path class="e" d="m284 360.9c-0.6 0.7 0.5 2 1.2 2.2 0.8 0.3 3-0.5 3.3-1.4 0.7-2.4-4.2-1.3-4.5-0.8z"/><path class="e" d="m333.3 403.5c-0.6 1.2 0.2 2.6 1.4 3 1.1 0.5 2.1-0.1 2.8-1.1 1.5-2.1-3.7-2.9-4.2-1.9z"/><path class="e" d="m273.9 391c-0.5 1.2 0.2 2.6 1.4 3 1.1 0.4 2.1-0.1 2.9-1.1 1.5-2.1-3.7-2.9-4.3-1.9z"/><path class="e" d="m302.7 381.9c-0.6 1.2 0.1 2.6 1.3 3 1.1 0.5 2.2-0.1 2.9-1.1 1.5-2.1-3.7-2.9-4.2-1.9z"/><path class="e" d="m410.6 395.5c-3.5-1-2.1 3.6-1.2 4.9 0.7 1 2.1 1.5 3.1 0.8 1.1-0.7 1.5-2.1 1.1-3.2-0.5-1.3-1.8-2.2-3-2.5z"/><path class="e" d="m430.4 376.5c-3.4-1-2 3.7-1.1 4.9 0.7 1 2 1.5 3.1 0.8 1-0.7 1.4-2.1 1-3.2-0.4-1.3-1.7-2.1-3-2.5z"/><path class="e" d="m420.4 397.1c-1.1-0.4-2.1 0.4-2.7 1.3-1 1.5-1.3 3.6-0.5 5.1 0.3 0.7 0.9 1.4 1.7 1.4 1-0.1 1.4-1.6 1.8-2.3 0.7-1.6 2.1-4.5-0.3-5.5z"/><path class="e" d="m412.7 405.4c-0.8-1.3-3.6-1-4.4 0.1-1.4 1.7 2.3 4.5 3.2 3.9 0.6-0.4 0.7-1.2 0.9-1.9 0.3-0.7 0.9-1.3 0.3-2.1z"/><path class="d" d="m394.5 389.7c-0.3-0.8-2.3-1.9-3.2-1.5-2.2 1 1.8 3.9 2.3 3.9 1 0 1.2-1.7 0.9-2.4z"/><path class="d" d="m285.7 399.7c-0.3-0.8-2.3-1.9-3.2-1.5-2.2 1 1.7 3.9 2.3 3.9 1 0 1.2-1.7 0.9-2.4z"/><path class="d" d="m224.7 410.7c-0.4-0.8-2.3-1.9-3.2-1.5-2.2 1 1.7 3.9 2.3 3.8 1 0 1.2-1.7 0.9-2.3z"/><path class="d" d="m389 339.5c-0.4-0.8-2.3-1.9-3.3-1.5-2.2 1 1.8 3.9 2.4 3.9 0.9-0.1 1.2-1.8 0.9-2.4z"/><path class="d" d="m466.1 383.7c-0.4-0.8-2.4-2-3.3-1.5-2.2 0.9 1.8 3.9 2.4 3.8 0.9 0 1.1-1.7 0.9-2.3z"/><path class="d" d="m396.9 448.4c-0.4-0.8-2.4-2-3.3-1.5-2.2 0.9 1.8 3.9 2.4 3.8 0.9 0 1.1-1.7 0.9-2.3z"/><path class="d" d="m463.6 428.7c-0.4-0.8-2.3-1.9-3.2-1.5-2.3 1 1.7 3.9 2.3 3.9 0.9 0 1.2-1.7 0.9-2.4z"/><path class="d" d="m294.2 369.6c-0.3-0.8-2.3-1.9-3.2-1.5-2.2 1 1.8 3.9 2.4 3.9 0.9-0.1 1.1-1.7 0.8-2.4z"/><path class="d" d="m319.5 355.1c-0.3-0.8-2.3-1.9-3.2-1.5-2.2 1 1.8 3.9 2.4 3.9 0.9 0 1.1-1.7 0.8-2.4z"/><path class="d" d="m258.9 364.4c-0.4-0.8-2.3-1.9-3.3-1.5-2.2 1 1.8 3.9 2.4 3.9 0.9 0 1.2-1.7 0.9-2.4z"/><path class="e" d="m422.1 380.6c-0.4-0.8-2.3-1.9-3.3-1.5-2.2 1 1.8 3.9 2.4 3.9 0.9 0 1.2-1.7 0.9-2.4z"/><path class="e" d="m401.9 409.2c-0.4-1.1-1.5-1.5-2.7-1.4-2.5 0.2 0.2 4.7 1.4 4.4 1.2-0.3 1.8-1.8 1.3-3z"/><path class="e" d="m383.8 397.2c-1.3-0.1-2.5 0.6-2.7 1.9-0.2 1.2 0.6 2.4 1.7 2.9 1.3 0.5 2.8 0.1 3.9-0.6 3-2-1.4-4-2.9-4.2z"/><path class="d" d="m327 374.5c-1.2-0.1-2.5 0.6-2.6 1.9-0.2 1.2 0.6 2.4 1.7 2.8 1.2 0.5 2.7 0.1 3.8-0.6 3.1-1.9-1.4-3.9-2.9-4.1z"/><path class="d" d="m311 404.2c-1.2-0.1-2.5 0.6-2.7 1.9-0.1 1.2 0.7 2.4 1.8 2.9 1.2 0.5 2.7 0.1 3.8-0.6 3.1-2-1.4-4-2.9-4.2z"/><path class="e" d="m378.1 404c-0.5-1.8-1.9-3.5-3.6-3.9-0.8-0.2-1.8-0.3-2.3 0.4-0.7 0.9 0.3 2.2 0.6 3 0.7 1.7 2.1 4.9 4.4 3.6 1.2-0.6 1.3-2 0.9-3.1z"/><path class="e" d="m373.9 393.5c-0.1 0.8 0.4 1.3 0.7 2 0.4 0.7 0.5 1.5 1.4 1.6 1.5 0.2 3.2-2.1 2.9-3.4-0.4-2.2-4.9-1.2-5-0.2z"/><path class="d" d="m360.1 389.4c-0.5 0.7 0.6 2 1.3 2.2 0.8 0.3 2.9-0.5 3.2-1.4 0.7-2.3-4.1-1.3-4.5-0.8z"/><path class="d" d="m339.9 339.1c-0.6 0.7 0.5 2 1.2 2.2 0.8 0.3 3-0.5 3.3-1.4 0.7-2.4-4.1-1.3-4.5-0.8z"/><path class="e" d="m316.7 388.9c-0.6 0.7 0.5 2 1.2 2.2 0.8 0.3 3-0.5 3.3-1.5 0.7-2.3-4.1-1.2-4.5-0.7z"/><path class="d" d="m333.3 370.6c-0.6 0.8 0.5 2 1.2 2.3 0.8 0.2 3-0.5 3.2-1.5 0.8-2.3-4.1-1.2-4.4-0.8z"/><path class="e" d="m358.9 396.5c-0.6 1.2 0.1 2.5 1.3 3 1.1 0.4 2.2-0.1 2.9-1.1 1.5-2.1-3.7-3-4.2-1.9z"/><path class="e" d="m466.3 434.1c-0.6 1.2 0.2 2.6 1.3 3 1.2 0.5 2.2-0.1 2.9-1.1 1.5-2.1-3.7-2.9-4.2-1.9z"/><path class="e" d="m376.2 462.2c-0.6 1.2 0.1 2.6 1.3 3 1.1 0.4 2.2-0.1 2.9-1.1 1.5-2.1-3.7-2.9-4.2-1.9z"/><path class="e" d="m286.4 332.3c-0.6 1.2 0.1 2.6 1.3 3.1 1.1 0.4 2.2-0.2 2.9-1.2 1.5-2-3.7-2.9-4.2-1.9z"/><path class="e" d="m348.2 395.5c-0.5 1.2 0.2 2.6 1.4 3 1.1 0.5 2.1-0.1 2.8-1.1 1.5-2.1-3.7-2.9-4.2-1.9z"/><path class="d" d="m382 373.4c-3.5-1-2.1 3.7-1.2 4.9 0.7 1.1 2 1.5 3.1 0.8 1.1-0.7 1.5-2 1.1-3.2-0.5-1.2-1.8-2.1-3-2.5z"/><path class="d" d="m348.8 382.5c-3.4-1-2.1 3.6-1.2 4.9 0.7 1 2.1 1.5 3.2 0.8 1-0.7 1.4-2.1 1-3.2-0.4-1.3-1.7-2.1-3-2.5z"/><path class="d" d="m391.8 375.1c-1.1-0.5-2.2 0.4-2.7 1.3-1 1.5-1.3 3.6-0.6 5.1 0.4 0.6 1 1.4 1.8 1.3 1 0 1.4-1.5 1.8-2.3 0.7-1.5 2.1-4.5-0.3-5.4z"/><path class="d" d="m384.1 383.4c-0.8-1.3-3.6-1.1-4.5 0-1.3 1.8 2.4 4.5 3.2 3.9 0.7-0.4 0.7-1.2 1-1.8 0.3-0.7 0.8-1.4 0.3-2.1z"/><path class="e" d="m369.8 373.4c-0.8-1.3-3.6-1-4.4 0.1-1.4 1.7 2.3 4.5 3.2 3.9 0.6-0.4 0.7-1.2 0.9-1.9 0.3-0.7 0.9-1.3 0.3-2.1z"/><path class="e" d="m446.5 371.7c-0.8-1.3-3.6-1-4.5 0-1.3 1.8 2.4 4.6 3.2 4 0.7-0.5 0.8-1.3 1-1.9 0.3-0.7 0.8-1.3 0.3-2.1z"/><path class="d" d="m365.9 367.7c-0.4-0.8-2.3-1.9-3.2-1.5-2.2 1 1.7 3.9 2.3 3.9 1-0.1 1.2-1.8 0.9-2.4z"/><path class="d" d="m381.6 326.2c-0.3-0.8-2.3-1.9-3.2-1.5-2.2 1 1.8 3.9 2.4 3.9 0.9 0 1.1-1.7 0.8-2.4z"/><path class="e" d="m373.3 387.2c-0.4-1.1-1.5-1.6-2.7-1.4-2.5 0.2 0.2 4.7 1.4 4.4 1.2-0.4 1.8-1.8 1.3-3z"/><path class="e" d="m472.2 445.2c-0.4-1.1-1.5-1.5-2.7-1.4-2.6 0.2 0.2 4.7 1.3 4.4 1.3-0.4 1.9-1.8 1.4-3z"/><path class="d" d="m329.9 395.3c-0.4-1.1-1.5-1.5-2.7-1.4-2.5 0.2 0.2 4.7 1.4 4.4 1.2-0.3 1.8-1.8 1.3-3z"/><path class="e" d="m581.2 401.6c-1-1.5 1.1-2.9 2.5-2.7 1.4 0.2 2.4 1.7 1.7 3-0.5 1.1-2.9 1.5-4.2-0.3z"/><path class="e" d="m622.4 377.7c-1-1.5 1.1-2.9 2.5-2.7 1.4 0.2 2.3 1.7 1.7 3-0.5 1.1-2.9 1.5-4.2-0.3z"/><path class="e" d="m480.2 406.5c1.2-0.2 2.5 0.5 2.7 1.8 0.1 1.2-0.7 2.5-1.8 2.9-1.2 0.5-2.7 0.1-3.8-0.6-3.1-1.9 1.4-4 2.9-4.1z"/><path class="e" d="m485.8 413.2c0.6-1.7 2-3.4 3.7-3.9 0.7-0.2 1.8-0.2 2.3 0.4 0.6 0.9-0.3 2.2-0.6 3.1-0.8 1.6-2.1 4.8-4.5 3.5-1.1-0.6-1.2-2-0.9-3.1z"/><path class="e" d="m490.1 402.7c0.1 0.8-0.4 1.4-0.7 2-0.4 0.7-0.5 1.5-1.4 1.6-1.6 0.2-3.2-2-3-3.4 0.5-2.2 5-1.2 5.1-0.2z"/><path class="e" d="m572.6 404.5c0.6 0.7-0.6 1.9-1.2 2.2-0.9 0.2-3-0.5-3.3-1.5-0.7-2.3 4.1-1.2 4.5-0.7z"/><path class="e" d="m637.9 351.1c0.5 0.8-0.6 2-1.2 2.2-0.9 0.3-3-0.4-3.3-1.4-0.7-2.3 4.1-1.2 4.5-0.8z"/><path class="e" d="m537.6 421.3c0.6 0.8-0.5 2-1.2 2.2-0.8 0.3-2.9-0.4-3.2-1.4-0.7-2.3 4.1-1.2 4.4-0.8z"/><path class="d" d="m559.3 390.7c0.5 1.2-0.2 2.6-1.4 3-1.1 0.4-2.1-0.1-2.8-1.1-1.5-2.1 3.7-2.9 4.2-1.9z"/><path class="d" d="m621.4 369.5c0.6 1.2-0.2 2.5-1.4 3-1.1 0.4-2.1-0.2-2.8-1.1-1.5-2.1 3.7-3 4.2-1.9z"/><path class="d" d="m640.1 413.1c0.6 1.2-0.1 2.5-1.3 3-1.1 0.4-2.1-0.2-2.9-1.2-1.5-2 3.7-2.9 4.2-1.8z"/><path class="d" d="m546.7 424c0.6 1.2-0.2 2.6-1.3 3-1.2 0.5-2.2-0.1-2.9-1.1-1.5-2.1 3.7-2.9 4.2-1.9z"/><path class="e" d="m482 382.7c3.4-1.1 2.1 3.6 1.2 4.9-0.7 1-2.1 1.5-3.2 0.7-1-0.6-1.4-2-1-3.2 0.4-1.2 1.8-2.1 3-2.4z"/><path class="d" d="m462.2 363.7c3.4-1 2 3.6 1.1 4.9-0.7 1-2 1.5-3.1 0.8-1-0.7-1.4-2.1-1-3.2 0.4-1.3 1.7-2.1 3-2.5z"/><path class="e" d="m472.1 384.3c1.2-0.4 2.2 0.4 2.8 1.3 1 1.5 1.3 3.6 0.5 5.1-0.3 0.7-0.9 1.4-1.7 1.4-1-0.1-1.4-1.6-1.8-2.4-0.7-1.5-2.2-4.5 0.2-5.4z"/><path class="e" d="m460.6 434.9c1.2-0.5 2.2 0.3 2.8 1.3 0.9 1.5 1.3 3.5 0.5 5.1-0.3 0.6-0.9 1.4-1.7 1.3-1.1-0.1-1.4-1.6-1.8-2.3-0.7-1.6-2.2-4.5 0.2-5.4z"/><path class="e" d="m479.9 392.6c0.8-1.3 3.6-1 4.4 0 1.4 1.8-2.3 4.6-3.2 4-0.6-0.5-0.7-1.2-0.9-1.9-0.3-0.7-0.9-1.3-0.3-2.1z"/><path class="e" d="m498.1 376.9c0.3-0.8 2.3-1.9 3.2-1.5 2.2 1-1.8 3.9-2.4 3.9-0.9 0-1.1-1.7-0.8-2.4z"/><path class="e" d="m470.5 367.8c0.4-0.8 2.3-1.9 3.2-1.5 2.3 1-1.7 3.9-2.3 3.9-1-0.1-1.2-1.7-0.9-2.4z"/><path class="e" d="m490.6 396.4c0.5-1.1 1.6-1.5 2.8-1.4 2.5 0.2-0.2 4.7-1.4 4.4-1.3-0.4-1.8-1.8-1.4-3z"/><path class="e" d="m508.8 384.4c1.2-0.1 2.5 0.6 2.7 1.9 0.1 1.2-0.6 2.4-1.8 2.9-1.2 0.5-2.7 0-3.8-0.7-3-1.9 1.4-3.9 2.9-4.1z"/><path class="d" d="m565.6 361.7c1.2-0.1 2.5 0.6 2.6 1.8 0.2 1.3-0.6 2.5-1.7 2.9-1.2 0.5-2.7 0.1-3.8-0.6-3.1-1.9 1.3-3.9 2.9-4.1z"/><path class="d" d="m655.9 386.9c1.2-0.1 2.5 0.6 2.6 1.9 0.2 1.2-0.6 2.4-1.7 2.8-1.2 0.5-2.7 0.1-3.8-0.6-3.1-1.9 1.4-3.9 2.9-4.1z"/><path class="d" d="m581.6 391.4c1.2-0.1 2.5 0.6 2.6 1.9 0.2 1.2-0.6 2.4-1.7 2.9-1.2 0.5-2.7 0-3.8-0.7-3.1-1.9 1.4-3.9 2.9-4.1z"/><path class="e" d="m514.4 391.2c0.6-1.8 2-3.5 3.7-3.9 0.7-0.2 1.8-0.3 2.3 0.4 0.6 0.9-0.3 2.2-0.6 3-0.7 1.7-2.1 4.8-4.5 3.6-1.1-0.6-1.2-2-0.9-3.1z"/><path class="e" d="m518.7 380.7c0.1 0.8-0.4 1.3-0.7 2-0.4 0.7-0.5 1.5-1.4 1.6-1.5 0.2-3.2-2.1-2.9-3.4 0.4-2.2 4.9-1.3 5-0.2z"/><path class="e" d="m532.4 376.6c0.6 0.7-0.5 2-1.2 2.2-0.8 0.3-2.9-0.5-3.2-1.4-0.7-2.4 4.1-1.3 4.4-0.8z"/><path class="d" d="m575.9 376.1c0.6 0.7-0.5 1.9-1.2 2.2-0.9 0.2-3-0.5-3.3-1.5-0.7-2.3 4.1-1.2 4.5-0.7z"/><path class="d" d="m689.3 405.5c0.6 0.8-0.6 2-1.2 2.2-0.9 0.3-3-0.4-3.3-1.4-0.7-2.3 4.1-1.2 4.5-0.8z"/><path class="d" d="m691.6 433.9c0.6 0.8-0.5 2-1.2 2.2-0.8 0.3-2.9-0.4-3.2-1.4-0.7-2.3 4.1-1.2 4.4-0.8z"/><path class="d" d="m598.7 335c0.6 0.8-0.5 2-1.2 2.2-0.8 0.3-2.9-0.4-3.2-1.4-0.7-2.3 4.1-1.2 4.4-0.8z"/><path class="d" d="m647.5 437.9c0.6 0.7-0.5 2-1.2 2.2-0.9 0.3-3-0.5-3.3-1.5-0.7-2.3 4.1-1.2 4.5-0.7z"/><path class="d" d="m686.9 459.9c0.6 0.8-0.5 2-1.2 2.3-0.8 0.2-3-0.5-3.3-1.5-0.7-2.3 4.2-1.2 4.5-0.8z"/><path class="d" d="m559.3 357.8c0.6 0.7-0.5 2-1.2 2.2-0.8 0.3-3-0.4-3.3-1.4-0.7-2.3 4.1-1.2 4.5-0.8z"/><path class="e" d="m533.7 383.7c0.6 1.2-0.1 2.5-1.3 3-1.1 0.4-2.2-0.2-2.9-1.1-1.5-2.1 3.7-3 4.2-1.9z"/><path class="e" d="m549 430.1c0.6 1.2-0.1 2.5-1.3 3-1.1 0.4-2.2-0.2-2.9-1.1-1.5-2.1 3.7-3 4.2-1.9z"/><path class="e" d="m544.4 382.7c0.5 1.2-0.2 2.6-1.4 3-1.1 0.4-2.1-0.1-2.8-1.1-1.6-2.1 3.6-3 4.2-1.9z"/><path class="e" d="m510.6 360.6c3.5-1 2.1 3.7 1.2 4.9-0.7 1-2 1.5-3.1 0.8-1.1-0.7-1.5-2.1-1.1-3.2 0.5-1.3 1.8-2.1 3-2.5z"/><path class="d" d="m543.8 369.7c3.4-1 2.1 3.6 1.2 4.9-0.7 1-2.1 1.5-3.2 0.8-1-0.7-1.4-2.1-1-3.2 0.4-1.3 1.7-2.1 3-2.5z"/><path class="d" d="m500.8 362.3c1.1-0.5 2.2 0.3 2.7 1.3 1 1.5 1.3 3.6 0.5 5.1-0.3 0.6-0.9 1.4-1.7 1.3-1-0.1-1.4-1.5-1.8-2.3-0.7-1.6-2.1-4.5 0.3-5.4z"/><path class="e" d="m508.5 370.5c0.8-1.2 3.6-1 4.5 0.1 1.3 1.8-2.4 4.5-3.2 3.9-0.7-0.4-0.8-1.2-1-1.8-0.3-0.8-0.8-1.4-0.3-2.2z"/><path class="d" d="m522.7 360.6c0.9-1.3 3.7-1 4.5 0 1.4 1.8-2.3 4.6-3.2 4-0.6-0.5-0.7-1.2-1-1.9-0.3-0.7-0.8-1.3-0.3-2.1z"/><path class="d" d="m526.7 354.9c0.3-0.8 2.3-1.9 3.2-1.5 2.2 1-1.8 3.9-2.3 3.8-1 0-1.2-1.7-0.9-2.3z"/><path class="d" d="m660.3 452.9c0.4-0.8 2.4-1.9 3.3-1.5 2.2 1-1.8 3.9-2.4 3.9-0.9 0-1.1-1.7-0.9-2.4z"/><path class="d" d="m456.6 377c0.4-0.8 2.4-1.9 3.3-1.5 2.2 1-1.8 3.9-2.4 3.8-0.9 0-1.1-1.7-0.9-2.3z"/><path class="e" d="m519.3 374.4c0.4-1.2 1.5-1.6 2.7-1.5 2.5 0.3-0.2 4.8-1.4 4.4-1.2-0.3-1.8-1.8-1.3-2.9z"/><path class="e" d="m562.7 382.5c0.4-1.1 1.5-1.5 2.7-1.4 2.5 0.2-0.2 4.7-1.4 4.4-1.2-0.4-1.8-1.8-1.3-3z"/><path class="e" d="m653.4 365.9c0.4-1.2 1.5-1.6 2.8-1.5 2.5 0.3-0.2 4.8-1.4 4.5-1.3-0.4-1.8-1.9-1.4-3z"/><path class="e" d="m677.2 397c0.4-1.1 1.5-1.5 2.7-1.4 2.6 0.3-0.2 4.8-1.3 4.4-1.3-0.3-1.8-1.8-1.4-3z"/><path class="e" d="m552.4 415.4c1.8 0.1 1.9-2.4 1-3.5-0.9-1.1-2.7-1.2-3.5 0.1-0.6 1 0.3 3.2 2.5 3.4z"/><path class="e" d="m568.8 454.8c1.8 0.1 1.9-2.4 1-3.5-0.9-1.1-2.6-1.2-3.4 0.1-0.7 1 0.2 3.2 2.4 3.4z"/><path class="e" d="m601.1 504c-0.5-1.1-1.8-1.8-2.9-1.3-1.2 0.5-1.8 1.8-1.6 3 0.2 1.3 1.4 2.4 2.5 3 3.2 1.5 2.7-3.3 2-4.7z"/><path class="d" d="m592.4 502.8c1.2-1.4 1.9-3.5 1.4-5.2-0.2-0.7-0.7-1.6-1.5-1.7-1.1-0.1-1.8 1.3-2.3 2.1-1 1.4-3 4.2-0.7 5.6 1.1 0.7 2.3 0 3.1-0.8z"/><path class="e" d="m599.1 493.6c-0.7 0.3-0.9 1.1-1.3 1.7-0.4 0.7-1 1.2-0.6 2 0.6 1.4 3.4 1.7 4.4 0.7 1.7-1.5-1.5-4.8-2.5-4.4z"/><path class="e" d="m564.5 457.3c-0.7 0.3-0.9 1.1-1.3 1.7-0.4 0.7-1 1.2-0.6 2 0.6 1.4 3.4 1.7 4.4 0.7 1.6-1.5-1.6-4.8-2.5-4.4z"/><path class="e" d="m554.5 424.3c-0.9-0.2-1.4 1.5-1.2 2.1 0.2 0.9 1.9 2.3 2.9 2.1 2.3-0.6-1.1-4.2-1.7-4.2z"/><path class="d" d="m573.2 428.4c-1.4 0.1-2.1 1.5-1.9 2.7 0.2 1.2 1.2 1.8 2.5 1.9 2.5 0.2 0.5-4.7-0.6-4.6z"/><path class="d" d="m595 362.4c-1.4 0.1-2.1 1.4-1.9 2.7 0.2 1.2 1.2 1.7 2.4 1.8 2.6 0.2 0.6-4.7-0.5-4.5z"/><path class="d" d="m620.5 490c-1-3.4-4.2 0.2-4.8 1.6-0.5 1.1-0.2 2.5 0.9 3.1 1.1 0.5 2.5 0.1 3.3-0.8 0.9-1.1 0.9-2.6 0.6-3.9z"/><path class="e" d="m647 497c-0.9-3.5-4.2 0.2-4.8 1.6-0.5 1.1-0.2 2.5 1 3.1 1.1 0.5 2.5 0.1 3.2-0.8 0.9-1.1 0.9-2.6 0.6-3.9z"/><path class="e" d="m624.2 499.3c-0.2-1.2-1.4-1.7-2.5-1.7-1.8 0-3.8 0.8-4.7 2.2-0.3 0.6-0.7 1.6-0.2 2.2 0.6 0.9 2.1 0.4 2.9 0.3 1.7-0.2 5-0.5 4.5-3z"/><path class="e" d="m613.1 497.1c0.7-1.4-1-3.7-2.4-3.8-2.2-0.3-2.6 4.3-1.6 4.7 0.7 0.4 1.4 0 2.1-0.1 0.7-0.1 1.5 0 1.9-0.8z"/><path class="e" d="m616.9 473.3c0.5-0.7 0.5-3-0.4-3.5-2-1.4-2.4 3.5-2 4 0.5 0.8 2 0.1 2.4-0.5z"/><path class="e" d="m639.1 492c0.5-0.7 0.5-2.9-0.4-3.5-2-1.4-2.4 3.6-2 4 0.5 0.8 2 0.1 2.4-0.5z"/><path class="e" d="m667.3 467.8c0.5-0.7 0.4-3-0.4-3.5-2-1.4-2.4 3.5-2.1 4 0.5 0.8 2 0.1 2.5-0.5z"/><path class="e" d="m683.5 356.7c0.5-0.7 0.4-3-0.4-3.5-2-1.4-2.4 3.5-2.1 4 0.5 0.8 2.1 0.1 2.5-0.5z"/><path class="e" d="m604.2 489.9c0.8-1 0.5-2.1-0.2-3.1-1.5-2.1-3.9 2.6-3 3.4 0.9 0.9 2.5 0.6 3.2-0.3z"/><path class="d" d="m604.9 468.1c-0.5-1.1-1.7-1.8-2.9-1.3-1.2 0.5-1.8 1.8-1.6 3 0.2 1.3 1.4 2.4 2.5 2.9 3.3 1.6 2.7-3.2 2-4.6z"/><path class="d" d="m594.6 407.8c-0.5-1.1-1.8-1.8-3-1.3-1.1 0.5-1.7 1.8-1.5 3 0.2 1.3 1.3 2.4 2.5 3 3.2 1.6 2.7-3.3 2-4.7z"/><path class="e" d="m560.9 409.7c-0.5-1.1-1.8-1.8-3-1.3-1.1 0.5-1.7 1.8-1.5 3 0.2 1.3 1.3 2.4 2.5 3 3.2 1.6 2.7-3.3 2-4.7z"/><path class="e" d="m596.2 466.8c1.2-1.4 1.9-3.4 1.4-5.2-0.2-0.7-0.7-1.6-1.5-1.6-1.1-0.2-1.8 1.3-2.3 2.1-1 1.4-3 4.2-0.7 5.6 1.1 0.7 2.3 0 3.1-0.9z"/><path class="e" d="m575 460.2c1.2-1.4 1.9-3.5 1.4-5.2-0.2-0.7-0.7-1.6-1.5-1.7-1.1-0.1-1.8 1.4-2.3 2.1-1 1.5-3 4.3-0.7 5.7 1.1 0.6 2.3 0 3.1-0.9z"/><path class="d" d="m602.9 457.7c-0.7 0.3-0.9 1.1-1.3 1.7-0.4 0.6-1 1.2-0.6 2 0.6 1.4 3.4 1.6 4.4 0.7 1.7-1.5-1.5-4.8-2.5-4.4z"/><path class="e" d="m599.3 443.9c-1-0.2-1.5 1.5-1.3 2.1 0.2 0.9 2 2.3 2.9 2.1 2.4-0.6-1.1-4.2-1.6-4.2z"/><path class="e" d="m581.9 484.2c-0.9-0.1-1.4 1.5-1.3 2.2 0.3 0.8 2 2.3 3 2 2.3-0.6-1.1-4.1-1.7-4.2z"/><path class="e" d="m672.4 421.5c-0.9-0.2-1.4 1.5-1.2 2.1 0.2 0.9 2 2.3 2.9 2.1 2.4-0.6-1.1-4.2-1.7-4.2z"/><path class="e" d="m618.6 418.6c-0.9-0.2-1.4 1.5-1.2 2.1 0.2 0.9 2 2.3 2.9 2.1 2.4-0.6-1.1-4.2-1.7-4.2z"/><path class="d" d="m577 406.5c-1-0.1-1.5 1.5-1.3 2.2 0.2 0.9 2 2.3 2.9 2.1 2.4-0.6-1.1-4.2-1.6-4.3z"/><path class="d" d="m612.7 389c-1-0.1-1.5 1.5-1.3 2.2 0.2 0.9 2 2.3 2.9 2 2.4-0.6-1.1-4.1-1.6-4.2z"/><path class="d" d="m621.3 351.3c-1-0.2-1.5 1.5-1.3 2.2 0.2 0.8 2 2.2 2.9 2 2.4-0.6-1.1-4.1-1.6-4.2z"/><path class="d" d="m651.3 455.2c-0.9-0.2-1.4 1.5-1.2 2.1 0.2 0.9 1.9 2.3 2.9 2.1 2.4-0.6-1.1-4.2-1.7-4.2z"/><path class="d" d="m710.7 461.7c-0.9-0.1-1.4 1.5-1.3 2.2 0.3 0.9 2 2.3 3 2.1 2.3-0.6-1.1-4.2-1.7-4.3z"/><path class="d" d="m601.2 411.1c-1-0.1-1.5 1.5-1.3 2.2 0.2 0.9 2 2.3 2.9 2.1 2.4-0.6-1.1-4.2-1.6-4.3z"/><path class="d" d="m662.9 340.7c-0.9-0.1-1.4 1.5-1.2 2.2 0.2 0.9 1.9 2.3 2.9 2.1 2.3-0.7-1.1-4.2-1.7-4.3z"/><path class="d" d="m642.8 390.2c-0.9-0.1-1.4 1.5-1.2 2.2 0.2 0.9 1.9 2.3 2.9 2.1 2.3-0.6-1.1-4.2-1.7-4.3z"/><path class="d" d="m705.5 364.8c-0.9-0.1-1.4 1.5-1.2 2.2 0.2 0.9 2 2.3 2.9 2 2.4-0.6-1.1-4.1-1.7-4.2z"/><path class="e" d="m592.5 446.5c-1.3 0.1-2.1 1.5-1.8 2.7 0.2 1.2 1.2 1.8 2.4 1.9 2.6 0.1 0.6-4.7-0.6-4.6z"/><path class="d" d="m590.1 481.9c-1.3 0.1-2.1 1.5-1.9 2.7 0.2 1.2 1.2 1.8 2.5 1.9 2.5 0.2 0.5-4.7-0.6-4.6z"/><path class="d" d="m649.2 469.2c-1.3 0.1-2.1 1.5-1.8 2.7 0.2 1.2 1.2 1.8 2.4 1.9 2.6 0.2 0.6-4.7-0.6-4.6z"/><path class="e" d="m587.8 436.9c-1.3 0.1-2.1 1.5-1.9 2.7 0.3 1.2 1.3 1.8 2.5 1.9 2.5 0.2 0.6-4.7-0.6-4.6z"/><path class="e" d="m653.4 407.7c-1.3 0.2-2.1 1.5-1.9 2.7 0.3 1.2 1.3 1.8 2.5 1.9 2.6 0.2 0.6-4.7-0.6-4.6z"/><path class="e" d="m624.3 454.1c-1-3.5-4.2 0.1-4.8 1.6-0.5 1.1-0.2 2.5 1 3 1.1 0.6 2.5 0.2 3.2-0.7 0.9-1.1 0.9-2.6 0.6-3.9z"/><path class="e" d="m668.5 435.6c-0.9-3.4-4.1 0.2-4.8 1.6-0.4 1.1-0.2 2.5 1 3.1 1.1 0.5 2.5 0.1 3.3-0.8 0.8-1 0.9-2.6 0.5-3.9z"/><path class="d" d="m599.2 430.6c-0.9-3.5-4.2 0.1-4.8 1.6-0.5 1.1-0.2 2.5 1 3 1.1 0.6 2.5 0.2 3.2-0.8 0.9-1 0.9-2.6 0.6-3.8z"/><path class="d" d="m662 416.8c-0.9-3.4-4.2 0.2-4.8 1.6-0.5 1.1-0.2 2.5 1 3.1 1.1 0.5 2.5 0.1 3.3-0.8 0.8-1 0.9-2.6 0.5-3.9z"/><path class="d" d="m628 463.4c-0.2-1.2-1.4-1.7-2.5-1.7-1.8 0-3.8 0.8-4.7 2.2-0.3 0.6-0.7 1.5-0.2 2.2 0.6 0.9 2.1 0.4 2.9 0.3 1.7-0.2 5-0.5 4.5-3z"/><path class="d" d="m695.5 390.4c-0.2-1.3-1.4-1.7-2.5-1.7-1.8 0-3.8 0.8-4.7 2.2-0.3 0.6-0.7 1.5-0.2 2.2 0.6 0.8 2.1 0.4 2.9 0.3 1.7-0.2 5-0.5 4.5-3z"/><path class="e" d="m616.9 461.1c0.7-1.4-1-3.6-2.3-3.8-2.3-0.2-2.7 4.4-1.7 4.8 0.7 0.3 1.4 0 2.1-0.1 0.7-0.1 1.5 0 1.9-0.9z"/><path class="d" d="m617.9 443.8c0.7-1.4-1-3.7-2.3-3.8-2.3-0.3-2.7 4.3-1.7 4.7 0.7 0.4 1.4 0 2.1-0.1 0.8-0.1 1.6 0 1.9-0.8z"/><path class="e" d="m620.7 437.4c0.6-0.7 0.5-3-0.4-3.5-2-1.4-2.3 3.5-2 4 0.5 0.8 2 0.1 2.4-0.5z"/><path class="e" d="m643.1 401.1c0.5-0.7 0.4-3-0.4-3.5-2-1.4-2.4 3.5-2.1 4 0.5 0.8 2.1 0.1 2.5-0.5z"/><path class="e" d="m574.8 471c0.6-0.7 0.5-3-0.4-3.5-2-1.4-2.4 3.5-2 4 0.5 0.8 2 0.1 2.4-0.5z"/><path class="e" d="m695.3 454.4c0.5-0.7 0.4-2.9-0.4-3.5-2-1.4-2.4 3.5-2.1 4 0.6 0.8 2.1 0.1 2.5-0.5z"/><path class="e" d="m608 453.9c0.8-0.9 0.6-2.1-0.2-3-1.5-2.1-3.9 2.6-3 3.4 0.9 0.9 2.5 0.6 3.2-0.4z"/><path class="e" d="m578.4 421.2c0.7-0.9 0.5-2.1-0.2-3.1-1.6-2-3.9 2.7-3.1 3.5 1 0.9 2.5 0.6 3.3-0.4z"/><path class="e" d="m631.5 442.8c0.8-0.9 0.5-2.1-0.2-3.1-1.5-2-3.9 2.7-3.1 3.5 1 0.9 2.5 0.6 3.3-0.4z"/><path class="f" d="m402.8 405.3c0 0-6.3 10.4-10.2 17.3-3.9 6.8-0.9 14.5 4.1 8.8 5-5.7 6.1-26.1 6.1-26.1z"/><path class="f" d="m542.7 476.2c0 0 2 10.7 9.1 15.2 7 4.6 7.9-2.5 3.2-6.3-4.6-3.9-12.3-8.9-12.3-8.9z"/><path class="f" d="m495.8 443.2c0 0-6.6 8.9-11.6 15.5-5 6.6 3 12.1 7.3 4.1 4.3-8 4.3-19.6 4.3-19.6z"/><path class="f" d="m396.8 400.1c0 0-6 5.1-14.1 9.9-8.2 4.7-6.6 12.7 2 7.8 8.5-4.9 12.1-17.7 12.1-17.7z"/><path class="f" d="m415.8 317.1c0 0-6.3 26.5-8.6 65.4-2.4 39-0.9 65.1 4.1 71.9 4.2 5.8 11.9 3.9 11.3-8-0.4-9.1 1.3-28.1 1.6-29.8 0 0 3.8 30.5 11 37.8 9 9 12-2.3 10.8-13.2-1.1-10.9-6.6-36.8-6.6-36.8 0 0 11.8 11.7 16.4 5.9 4.9-6.4-3.6-19.6-8.7-28.7-10.2-17.9-19.1-58.4-19.1-58.4z"/><path class="g" d="m512.6 485.7q0 0 0 0 0 0 0 0c0-45.1-4.1-52.8-14.9-73.4-3.7-7.1-8.4-15.9-13.9-28.5-15.8-35.5-17.1-53.8-17.1-70.9h-10.9c0 22 2.9 41.4 18 75.4 5.7 12.9 10.4 21.8 14.2 29 10.2 19.4 13.7 26 13.7 68.4q0 0 0 0 0 0 0 0.1 0 0.1 0 0.3h0.1c0.3 1.5 2.6 2.7 5.4 2.7 2.8 0 5-1.2 5.4-2.7q0-0.2 0-0.4z"/><path class="g" d="m441.6 297.4c-6.5-3.7-13-4.1-18.4-1-6.1 3.5-9.6 11-9.6 20.5v3.6c0.2 1.8 2.8 3.3 6.1 3.3 3.3 0 5.9-1.5 6.1-3.3v-3.6c0-5.8 1.8-8.9 3.5-9.9 0.5-0.3 1.2-0.5 1.8-0.5 1.6 0 3.3 0.9 4.4 1.5l55.2 31.9v-14.1z"/><path class="f" d="m512.2 373.7c0 0-8.7 32.4-11 71.4-2.4 38.9-1.2 52.7 0.9 60.4 1.9 7 8.6 7.3 11.9-4.1 2.5-8.6 3.3-24.3 3.5-25.9 0 0 2.1 28.5 9.3 35.7 9 9.1 10.9 0.5 9.7-10.4-1.2-10.9-0.6-39.9-0.6-39.9 0 0 13.2 12.3 17.8 6.4 5-6.3-5-20-10.2-29.1-10.2-17.9-20.2-61.4-20.2-61.4z"/><path class="h" d="m436.9 320.2l-7.5-4.3-10.3-5.9 2.8 24.4 12.2 7z"/><path class="i" d="m460.1 306.9l-23.2 13.3-2.8 21.2 23.2-13.3z"/><path class="h" d="m482.3 346.5l-7.4-4.4-10.3-5.9 2.8 24.5 12.1 7z"/><path class="i" d="m524.7 321.6l-42.4 24.9-2.8 21.2 42.4-24.8z"/><path class="g" d="m509.8 338.9q0 0 0-0.1-0.1 0-0.2-0.1 0 0 0 0c-0.8-0.9-2-1.1-3.4-0.3-2.3 1.3-4.2 5-4.2 8.1 0 0.9 0.2 1.7 0.5 2.3q0 0 0 0 0 0.1 0 0.1 0.2 0.3 0.4 0.5c4.5 6.5 8.2 16.2 8.2 23.7v3.7c0.1 1.9 2.8 3.4 6.1 3.4 3.3 0 6.1-1.5 6.1-3.4v-3.7c0-12.2-5.5-25.4-13.5-34.2z"/><path class="j" d="m528.1 321.2h-3.9l-10.4-6c-2.2-1.3-5.8-1.4-8.8-0.6-1.6 0.5-3.3 0.3-4.7-0.5l-15-8.7c-2.1-1.3-3.7-3.7-3.2-6.1 0.3-1.3-0.3-2.6-1.9-3.4l-12.3-7.2c-2.9-1.7-8.1-1.4-11.4 0.5l-34.9 20.3h-3.1v3.7c-0.1 1.1 0.5 2.2 1.9 3l12.4 7.2c2.3 1.3 5.9 1.4 9 0.5 1.6-0.5 3.4-0.4 4.8 0.5l14.7 8.5c1.5 0.8 2.6 2.2 3.1 3.8v3.5c0.1 0.9 0.7 1.8 1.9 2.5l12.4 7.2c2.9 1.6 8 1.4 11.4-0.5l35.2-20.5c2-1.1 2.9-2.6 2.8-3.9z"/><path class="k" d="m526.1 318.4l-12.3-7.1c-2.2-1.3-5.8-1.5-8.8-0.6-1.6 0.4-3.3 0.3-4.7-0.5l-15-8.7c-2.1-1.3-3.7-3.7-3.2-6.2 0.3-1.2-0.3-2.5-1.9-3.4l-12.3-7.1c-2.9-1.7-8.1-1.5-11.4 0.4l-35.3 20.5c-3.3 2-3.7 4.9-0.8 6.6l12.4 7.1c2.3 1.3 5.9 1.5 9 0.5 1.6-0.5 3.4-0.3 4.8 0.5l14.7 8.6c2.2 1.2 3.8 3.8 3.2 6.2-0.4 1.4 0.2 2.7 1.8 3.6l12.4 7.1c2.9 1.7 8 1.5 11.4-0.4l35.2-20.5c3.4-2 3.8-4.9 0.8-6.6z"/><path class="l" d="m438 93.8c-5.1-2.6-6.2-9.7-11.3-12.3 8.5-11.7 24.7-27.5 30-31.9 11.3-9.3 19.8-3 19.8-3l-10.7 24c0 0-12.5 10.9-27.8 23.2z"/><path class="l" d="m514.2 263.1c-3.1-16.2-6.7-18.3-9.8-24.8 0.4-4.8 15.1-64.5 10.5-81.3q-0.8-3.1-1.7-5.9c-6.5-19.8-15.9-29.9-13.7-38.5 4.8-19.7 6.5-24 7.6-27.1 4.3-12.4 2.3-29.9 2.3-29.9 0 0-7.8-3.8-11.6-5.6-1.8-0.8-10.5-5.5-10.5-5.5l-9.9-3.4c-0.2 3.8-0.9 5.5-5.1 10.4-4.7 5.4-12.5 12-16.7 20.7-2 4.4-4.3 9.9 0.7 18.7 2.2 9.4 3.2 25.6 1.1 39.1-0.6 3.4-0.6 13.5-4.3 26.6-5.1 18.1-10.4 34.4-14.6 49.3-2.1 7.3 3.3 16.5 6.3 30 3.1 13.4 7.5 30.3 8.5 40 3.2 0.5 6.5-0.8 9.9-3 1.9-1.2 3.4-2.8 4.9-4.4 0.3-10.7 0.8-21.7 0.8-29.7 0-9.5-3.5-18.8-5.1-28 1.7-4.5 17.4-33.7 17.4-33.7 0 0-1.4 48.4 0 60.4 0.7 6 13.8 43.9 18 58.6 4.3 1.7 9.3 2.2 13.6 1.8 1.5-0.1-1.5 0.4 0 0 0.7-12.8 3.6-22.9 1.4-34.8z"/><path class="m" d="m474.2 41.8c0 0 3.2 5.6 1.9 10.1-1.3 4.5-1.3 6.7 2.4 7.7 8 2.3 19.3-9.6 19.3-9.6 0 0-3.5-2.2-3.5-5.5 0-3.4 0.3-10.5 0.3-10.5z"/><path class="n" d="m467.9 90.2c0 0-1.7 3.5-3.7 4.5-3.5 1.8-4.5-0.9-4.5-0.9l0.4-1.1c0 0 3.8 0.5 7.8-2.5z"/><path class="h" d="m477.7 46.2c0 0-4.3 10.8-8.8 17.1-4.7 6.4-6 10.1-6 10.1 0 0-2.8 7.8-2.1 13.2 0.3 2.3 2 9.4 2 9.4 0 0-7.6-2.5-9.3-5.4-4.1-6.6-3-8.6-1.6-11.7 2.8-6.3 9.1-9.2 12-13.4 5-7.2 11.6-19.3 11.6-19.3z"/><path class="n" d="m505.7 90.2c0 0 1.1-8.2-1.3-9.5-3.1-1.8-7.1 9-7.6 10.6-1.1 4-2.6 10.2-1.1 13.7 2.1 5.1 4.2 5.6 4.2 5.6z"/><path class="h" d="m503.5 96c0 0-5 4.4-8.8 5.9-3.8 1.5-1.4-2.1-0.8-2.4 5.6-2.2 10.5-5.7 10.5-5.7z"/><path class="h" d="m472.8 85.2c5.1-6.5 11.8-13.4 11.8-13.4 0 0 8.2-18.8 12-22.7 1.2 0.9 1.9 1.4 2.9 1.8-1.7 2.2-10.2 17.8-11.1 22.5-1 4.7 1.1 5.2 4.2 12.9 3 7.8 2.1 15.6 2.1 15.6 0 0-6.9 3.7-14.9 2.3-8-1.3-10.8-4.9-10.8-4.9 0 0-1.3-7.6 3.8-14.1z"/><path class="h" d="m469 99.3c0 0-2.6-2.1-4.1-2.6-2.1-0.6-5.4-2-5.4-2l0.6-2c0 0 3.2 1.6 5.7 2.8 3.1 1.3 4.5 2.5 4.5 2.5z"/><path class="h" d="m499.8 141.5c-10.7 7.2-16 10.1-25.5 9.9-10.3-0.3-17.8-11.4-17.8-11.4l-0.6 2.4c0 0 7.6 20.1 12 26.3 4.4 6.3 13.3 8.4 13.3 8.4 0 0-1.2-8.7 4.2-15.2 5.5-6.4 12.4-14.2 17.8-17.1 3.3-1.8 6.9-2.4 6.9-2.4l-1.4-3.4c0 0-5.6 0.2-8.9 2.5z"/><path class="n" d="m471.4 142.3c0.1 0.9-0.1 1.7-0.6 1.8-0.5 0-0.9-0.6-1.1-1.5-0.1-0.9 0.2-1.7 0.6-1.8 0.5-0.1 1 0.6 1.1 1.5z"/><path class="o" d="m449.2 84.7c1.8 7.1 7.1 25.4 6.7 30.5 3 4.8 8.4 7.2 21.8 8.3 13.4 1.1 24.7-6.6 24.7-6.6 0 0 4-21.8 6.4-31.1 2.7-10.7 1.3-17.2 1.3-17.2 0 0-5.7 30.7-13.3 22.7-4.9-5.2-5.2-19.1-0.8-25.8 4.4-6.6 9.1-11.3 9.1-11.3l-8.5-5.1c0 0-16.5 16.2-25.2 26-3.5-16.8 4.1-28.9 4.1-28.9l-6.6-1.7c0 0-11 16.5-14.5 22.5-3.4 5.9-6.6 12-5.2 17.7z"/><path class="j" d="m469.9 39.3c0 0-2.8 3.4-6.1 5.8-3.2 2.4-3.4 5.9-3.4 5.9 0 0 1.6-2.7 3.4-3.5 3-1.3 5.6-0.5 5.6-0.5 0 0-0.3 0.8-2.1 3.8-2.7 4.6 0 9.7 0 9.7 0 0 0-5.5 2.6-9.6 2.5-3.8 5.5-9.8 5.5-9.8z"/><path class="l" d="m468.9 9.4c-7.8 8.1-4.6 36.1 6.8 38 7.5 1.2 17.9-5.4 21.7-18.4 3.1-10.9-13.7-35-28.5-19.6z"/><path class="j" d="m451.7 93.8c0 0 12.5 7 24.8 8.4 12.4 1.5 30-6.2 30-6.2l-1.3 6.2c0 0-9.2 9.9-26.1 8.4-16.8-1.5-25.2-7.8-25.2-7.8z"/><path class="d" d="m487.3 101.8c0 0 2-0.4 4.1-0.9 2.1 1.3 3.4 6.8 1.2 8.4-3.5 0.8-3.5 0.8-3.5 0.8 0 0 2.6 1.4 6 0.6 1.9-0.4 3.9-2.5 1.9-8.8-0.7-2.5-2.2-3.9-4.8-3.5-1.5 0.3-4.9 3.4-4.9 3.4z"/><path class="j" d="m455.3 109.4c0 0 8.9 6.7 21.2 8.2 12.4 1.5 26.7-5 26.7-5l-0.6 6.8c0 0-6.6 8-23.5 6.5-16.8-1.5-22.7-7.8-22.7-7.8z"/><path class="d" d="m487.3 117.1c0 0 2-0.4 4.1-0.9 2.1 1.3 3.4 6.8 1.2 8.4-3.5 0.8-3.5 0.8-3.5 0.8 0 0 2.6 1.4 6 0.6 1.9-0.4 3.9-2.4 1.9-8.8-0.7-2.5-2.2-3.9-4.8-3.5-1.5 0.3-4.9 3.4-4.9 3.4z"/><path fill-rule="evenodd" class="j" d="m498.5 46.2c2.8 5 9.2 8.6 9.2 8.6 0 0-4.6 1.6-10.8-2-2.6-1.5-3.8-8.3-3.8-8.3 0 0-0.9 2.7-1.5 4.6-1.8 5.4-0.6 10.8 1 14.3-5.3-5.4-3.6-13-2.5-18.9 1.2-5.9 2.3-10.2 1-13.7q-0.4-0.7-0.7-1.5-0.5-0.2-0.9-0.3c-2.3-0.4-6.9-1.5-11.5-6.3-3.6-3.6-2.4-9.4-2.4-9.4 1.1-8.1 4.3-11.6 6.9-12.4 5.8-1.8 14.5 0.8 18 9.3 2.6 6.3-0.4 21.3-2 27-0.6 2.1-1.6 6.2 0 9zm-8.8-18.7c-1-2.4-2.1-4.9-3.7-6.4-3.6-3.5-8.3-7.8-8.3-7.8 0 0-0.3 1.2 0.3 4.4 0.5 3.1 3 5.9 7.6 8.3 1.5 0.7 2.9 1.2 4.1 1.5z"/><path class="j" d="m479.7 9.8c2.1 0.1-0.6 4-8.1 6.4-4.1 1.3-6 5.4-6.4 7.9-0.5 2.4 0 7 0 7 0 0-3.8-4.7-3.8-10.7 0-10.2 6-18.3 12.8-19.9 9.5-2.1 10.7 3.1 10.7 3.1z"/><path class="l" d="m505.1 54.2c0 0 8.1 0.8 12.8 9.2 4.8 8.4 13.4 26.8 13.4 26.8 0 0 14.1-7 25-12.9 10.9-6 25.7-10.9 35.4-8.7 9.6 2.3-2.2 11.5-9.9 11.9-7.8 0.4-16.4 2.3-18.7 3.6-2.3 1.3-15.9 17.1-26.4 20.6-10.4 3.4-14.4 7.1-18.8-0.2-4.3-7.3-10-18-17.4-24-7.4-6 0.2-22.4 4.6-26.3z"/><path class="l" d="m440.4 78.9c0 0-21.4-13.6-36-24.1-2-1.4-3.8-2.6-4.9-4.3-1.8-2.4-5.8-4.3-7.8-5.6-7.1-4.4-15.8-6.3-17.8-3.5-3 4.3 0.3 9.9 8.5 13.4 5.8 2.4 13.7 6.4 17.9 8.6 4.3 2.1 17.5 21.2 21.9 25.2 4.3 4 15 7.8 17.6 4.7 2.6-3.1 0.6-14.4 0.6-14.4z"/><path class="l" d="m391.7 50.8c0 0 1.3-0.1 1.3-2.5 0-1.9-1.3-6-0.8-6.8 1.2-1.9 1.6-1.5 2.3 1 0.7 2.4 5.9 6.6 5 9.8-1 3.1-7.8-1.5-7.8-1.5z"/><path class="l" d="m566.8 72.4c0 0 3.7-2.8 7.2-4.4 3.5-1.7 5.6-3.5 7-3.7 1.4-0.1 0.6 2.4-0.8 3-1.3 0.5-3.8 4.2-6 5.1-2.1 0.9-7.4 0-7.4 0z"/><path class="h" d="m428.1 303.4c-0.5 0.3-3.2 4.4-3.8 5.6-0.7 1.3 1.5 5.6 8.1 6.5 6.8 0.9 13.6-2.7 20.1-7.1 6.5-4.4 16.1-11.4 18.1-14.9 2-3.4 0.3-7.1-2.3-9.1-2.6-1.9-40.2 19-40.2 19z"/><path class="o" d="m468.6 253.1c0 0-2.5 5.8-12.7 5.2-5.9-0.3-7-5.2-7-5.2 0 0-2.5 1.6-2.5 5.3 0 3.6 0.6 16.9 0 20.6-0.6 3.6-9.4 11.4-15.1 16.2-5.8 4.9-4.9 13.2-4.9 13.2 0 0 4.6 8.7 17.1 2 8.5-4.5 17.3-11.1 22.2-15 2.4-1.9 3.8-4.8 3.9-7.9 0.2-5.4 0.5-14.7 0.8-22.9 0.1-5.5 1.6-9.6-1.8-11.5z"/><path class="j" d="m445.7 280.7l-3.4 4.3c0 0 7.5 2.2 11.7 6.6 4.2 4.4 4.8 9.8 5.1 9.8 0.4 0 4.5-4.4 4.5-4.4 0 0-1.5-6.8-6.4-10.6-4.9-3.9-11.5-5.7-11.5-5.7z"/><path class="h" d="m469.9 277.7c0 0-4.3 6.5-6.3 10.5-2.9 5.7-2.9 12-2.9 12 0 0 8.4-5 9.5-9.5 1-4.1-0.3-13-0.3-13z"/><path class="h" d="m433.5 293.4c0 0 7.3 2.8 10.7 6.8 3.4 4.1 4.4 9.6 4.4 9.6l5.4-4.2c0 0-1-6-4.7-10-3.7-4-11-6.6-11-6.6z"/><path class="j" d="m446.5 262.7v5.5c0 0 2.5 4 11 3.5 8-0.5 12.8-3.8 12.8-3.8v-5.2c0 0-6.6 3.4-13 3.7-6.3 0.3-10.8-3.7-10.8-3.7z"/><path class="d" d="m463.6 265.3l2.1-0.7v5.5l-2.1 0.6c0 0 2.1 1.1 3.8-0.4 0.8-0.7 0.8-1.2 0.8-4.4 0-2.9-0.9-3-2.3-2.6-2.2 0.7-2.3 2-2.3 2z"/><path class="h" d="m474.1 330.6c-0.5 0.3-3.2 4.4-3.8 5.6-0.6 1.3 1.5 5.6 8.1 6.5 6.8 0.9 13.6-2.7 20.1-7.1 6.5-4.4 16.1-11.4 18.1-14.8 2.1-3.5 0.4-7.2-2.3-9.1-2.6-2-40.2 18.9-40.2 18.9z"/><path class="o" d="m514.6 280.4c0 0-2.5 5.8-12.6 5.2-6-0.4-7.1-5.2-7.1-5.2 0 0-2.5 1.6-2.5 5.2 0 3.6 0.6 16.9 0 20.6-0.6 3.6-9.4 11.4-15.1 16.3-5.8 4.8-4.9 13.1-4.9 13.1 0 0 4.6 8.7 17.2 2 8.4-4.4 17.2-11.1 22.1-15 2.4-1.9 3.8-4.8 3.9-7.9 0.2-5.4 0.5-14.6 0.8-22.9 0.2-5.5 1.7-9.6-1.8-11.4z"/><path class="j" d="m491.8 307.9l-3.5 4.4c0 0 7.5 2.1 11.7 6.5 4.2 4.5 4.8 9.8 5.1 9.8 0.4 0 4.5-4.3 4.5-4.3 0 0-1.5-6.8-6.4-10.7-4.9-3.9-11.4-5.7-11.4-5.7z"/><path class="h" d="m516 305c0 0-4.4 6.4-6.4 10.4-2.9 5.7-2.9 12.1-2.9 12.1 0 0 8.4-5 9.6-9.6 0.9-4-0.3-12.9-0.3-12.9z"/><path class="h" d="m479.5 320.6c0 0 7.3 2.8 10.7 6.9 3.5 4.1 4.4 9.5 4.4 9.5l5.4-4.2c0 0-0.9-6-4.6-10-3.7-4-11-6.6-11-6.6z"/><path class="j" d="m492.5 290v5.4c0 0 2.6 4 11 3.5 8-0.5 12.8-3.8 12.8-3.8v-5.1c0 0-6.6 3.3-12.9 3.6-6.4 0.3-10.9-3.6-10.9-3.6z"/><path class="d" d="m509.6 292.5l2.1-0.6v5.4l-2.1 0.6c0 0 2.2 1.1 3.9-0.4 0.7-0.7 0.7-1.2 0.7-4.4 0-2.9-0.9-3-2.3-2.5-2.2 0.6-2.3 1.9-2.3 1.9z"/><path class="p" d="m420.2 337.9c0 0-7.3 34.5-5.2 50.1 2.2 15.5 9.2-4.8 9.2-4.8 0 0 4 9.8 9.3 10.7 5.2 0.8 8.7-0.8 0.6-17-8.2-16.3-13.9-39-13.9-39z"/><path class="p" d="m516.7 398.3c0 0-7.3 34.5-5.1 50.1 2.1 15.5 9.1-4.8 9.1-4.8 0 0 4.1 9.8 9.3 10.7 5.3 0.8 8.8-0.8 0.6-17-8.1-16.3-13.9-39-13.9-39z"/><path class="f" d="m401.6 456.2c-4.8 16.9-12.7 27.7-21.4 35.3-3.8 3.3-10.2 6.6-12.1 11.7-1.2 3.2-0.4 7.1 3 8.7 4.1 1.9 8.3-1.4 11.2-4 4.4-4.2 8.3-9.1 11.3-14.4 5.5-9.8 8.5-24.6 8-37.3z"/><path class="f" d="m444.2 515c-0.3-3.9-1.9-7.5-3.6-10.9-2.6-5.1-5.1-10.1-6.9-15.6-3.3-10.4-5.5-23.1-6.9-34.8-1.9 12.4-3.7 26.5-8.4 38.3-2.4 5.9-5.7 11.3-8.4 17-1.7 3.6-4 8.9-2.9 12.9 2.1 7.3 11.6 1.4 14.7-1.8 2.4-2.6 4.6-5.6 6.4-8.9 0.7 5.3 2 11.7 6.4 13.7 6.4 2.9 10-4.8 9.6-9.9z"/><path class="f" d="m415 461.6c-1.5 9.8-8.7 18.9-13.8 27.1-1.6 2.5-5.5 9.8-0.2 10.9 4.5 0.9 8-5.2 9.4-8.4 3.3-7.5 5.4-23.4 4.6-29.6z"/><path class="f" d="m461.6 469.4c-2.1-6.2-4-12.4-5.5-18.8-1.6-6.9-3.4-15.4-4.4-22.4-2.6 12.5-2.5 32.1-0.5 44.1 0.9 5.6 2.5 11.1 4.9 16.3 1.2 2.5 2.9 5.8 6.2 5.5 11-1 0.9-20.1-0.7-24.7z"/><path class="f" d="m495.9 511c-4.8 16.9-12.8 27.7-21.5 35.3-3.8 3.3-10.2 6.6-12.1 11.7-1.2 3.2-0.4 7.1 3 8.7 4.1 1.9 8.3-1.4 11.2-4 4.5-4.2 8.3-9.1 11.3-14.4 5.6-9.8 8.5-24.6 8.1-37.3z"/><path class="f" d="m539.8 572.3c-0.3-3.9-2-7.5-3.7-10.9-2.6-5.1-5.1-10.1-6.8-15.6-3.4-10.4-5.5-23.1-7-34.8-1.8 12.4-3.6 26.5-8.4 38.3-2.3 5.9-5.7 11.3-8.4 17-1.6 3.6-4 8.9-2.8 12.9 2 7.3 11.6 1.4 14.6-1.8 2.5-2.6 4.7-5.6 6.5-8.9 0.6 5.3 2 11.7 6.3 13.7 6.4 2.9 10.1-4.8 9.7-9.9z"/><path class="f" d="m507.1 524.2c-1.5 9.8-8.7 18.9-13.8 27.1-1.5 2.5-5.4 9.8-0.1 10.9 4.4 0.9 7.9-5.2 9.3-8.4 3.3-7.5 5.4-23.4 4.6-29.6z"/><path class="f" d="m561.1 535.3c-3.4-5.6-6.5-11.3-9.3-17.2-3-6.4-6.6-14.3-9-21 0 12.8 4.2 32 8.7 43.2 2 5.3 4.7 10.4 8.2 14.9 1.7 2.3 4 5.2 7.2 4.2 10.5-3.3-3.3-19.9-5.8-24.1z"/><path class="d" d="m319.7 589.4c0.1-10.1-2.1-18.4-9.9-25.2-7.6-6.6-19.6-12.1-20.7-23.4-0.9-8.8 6-17.8 1.8-26.3-4.5 17.9-18.5 19-19.5 30.8-0.9 10.6 9 15.5 16.8 19.9 6.1 3.5 11.1 7.7 14.2 14.2 3.4 7.1 2.9 14.1 3.5 21.6 0.9 11.3 10.2 17 20.4 19.5-8.7-9.8-6.7-19.5-6.6-31.1z"/><path class="e" d="m284.9 495.9c-8.5 1.8-16.5 4.3-15.7 14.4 0.7 8.7-5 12-11.3 16.6-3.1 2.3-6 4.9-7.4 8.5-3.8 10 3.9 19.4 10.6 25.9 0.1 0.2 0.4 0.1 0.4-0.1q0.8 0.6 1.7 0.9c0.6 0.3 1.1-0.7 0.7-1.1-3.7-3.3-6.5-7.1-6-12.3 0.4-5 4.2-8.5 7.8-11.5 2.9-2.5 6.1-4.7 8.4-7.8 2.2-3.1 2.6-6.5 3.8-10 2.9-8.1 12.9-10.3 17.7-17 3.7-5.3 3.2-15.6 11.4-21.8-12.3 1.7-15.2 13.9-22.1 15.3z"/><path class="e" d="m485 644.5c-8.5-3.9-16.9-7.6-26.1-9.1-8.6-1.4-17.1-0.7-25.6 0.9-10.8 2-21.6 4.7-32.4 1.7-1-0.2-1.5 1.1-0.7 1.6 18 12.5 40 2.4 59.8 6.9 10.1 2.3 17.8 9.8 28.3 11.1 7.6 0.9 19.5-1.1 26-4.9-14-0.8-21.6-4.7-29.3-8.2z"/><path class="e" d="m218.3 588.6c-5.3-5.5-4.2-11.9-3.7-18.8 0.5-5.5-0.6-10.3-2.1-15.6-1.8-6.4-2.9-12.7 1.2-18.4 3.2-4.4 7.9-7.4 12.2-10.5 3.5-2.6 9.6-7.4 9-12.1-5.8 6.4-7.4 6.3-11.4 7.7-4 1.4-8.4 1.3-12.6 1.8-4.9 0.7-10.3 2.3-13.3 6.5-8.2 11.4 10.9 19.7 8 30.9-1.1 4-4.3 7.1-6.2 10.8-1.2 2.5-2 5.2-2.3 8-0.6 5.1 0.4 10.5 3.5 14.7 7.9 10.9 20.2 2.9 34.5 15.9 0.8-10.8-10.6-14.5-16.8-20.9z"/><path class="d" d="m284.6 449.7c-10.6 4.8-18.5-3-26.3-0.5-5.7 1.7-7.5 8-11.2 11.9-5.1 5.2-13 3-18.6 7-4.5 3.3-5.1 9.4-2.1 13.9 1.7-8.2 11-8.7 16.5-9.5 4.2-0.6 7.6-1.8 11-4.5 4.4-3.4 5.2-8.4 10.6-10.3 4.8-1.8 17.3-1.7 20.1-8z"/><path class="d" d="m189.7 472.4c-3.7 8.8-19.6 8.3-23.3 15.5-2.7 5.3-1 12 3.7 15.6-3.7-15.6 13.3-16.2 17.2-20 3.2-3.1 4.7-7.1 2.4-11.1z"/><path class="d" d="m156.5 606.2c-2.8-3.2-7.1-4.2-9.9-7.5-2.1-2.5-3.3-5.8-3.2-9-4.3 1.8-4.7 6.9-4.3 10.4 0.8 5.8 5.2 7.7 8.9 11.4 4.5 4.4 3.8 12 8.8 15.8 3.2 2.4 10.7 3.8 12.5 0-11-2.3-8.3-16-12.8-21.1z"/><path class="e" d="m246.9 638.2c-2.2-1.1-4.6-1.2-6.9-1.8-4.7-1.2-5.6-3.9-7.6-7.7-0.6-1.2-1.4-2.3-2.4-3.2-1.8-2.1-5-1-5.1-1 5.6 5.2 4.5 15.9 6.6 18.9 3.1 4.2 9.1 3 13 5.8 3.9 2.8 5.8 7.6 10.4 9.6 3.3 1.4 7 1.3 9.3-1.6-11.9-1.9-9.8-15.4-17.3-19z"/><path class="d" d="m376.6 647.1c-6.1-1.6-14-0.9-17.9 4.8 11.3-3.6 19.9 8.4 29.7 11.2 6.6 1.9 13.7 1.9 18.8-3.2-18.8 3.2-20.1-10-30.6-12.8z"/><path class="e" d="m416.2 708.4c-4.1 1-8.7 2.2-13 1.4-4.6-0.9-6.7-4.1-9.4-7.5-3.6-4.5-8-6.9-13.7-7.7-15-2-28.9 6.7-43.3-0.8 5.5 16.5 30.5 6.9 42 12.8 6.4 3.3 11.6 7.9 18.9 8.8 6.9 0.9 13.7-1 19.3-5.1 0.9-0.7 0.4-2.2-0.8-1.9z"/><path class="d" d="m274.4 701.4c-7.6 0-10-2.4-12.9-5.6-1.6-1.7-1.8-4.2-3.8-5.7-3.5-2.6-9.3-2.1-13.2-0.7 10.4 1.5 8 10.5 13 13.5 6.5 4 14.6 3.4 16.9-1.5z"/><path class="d" d="m169.7 695.3c-0.3-2.5-2.4-4.1-4.4-5.6-5.3-4-13.2-4.8-19.5-3.3 8.4 2.3 11.8 6.4 14.9 11.5 2 3.4 3.5 7.3 6.6 9.9 3.6 3.1 12.6 6.4 15.7 2.5 0 0-11.2 0.2-13.3-15z"/><path class="e" d="m98.2 628.6c-5-1.9-4.8-6.7-2.5-10.5 0.8-1.4 1.5-2.7 1.1-4.4-0.8-3.2-5.1-4.1-8-4 4.6 5.8-1.3 10.6 0.8 15.4 1.4 3.3 4.8 5.3 8.4 5.1 0.9-0.1 1-1.2 0.2-1.6z"/><path class="d" d="m77.5 546.9c-0.3 7.9-8.7 9.8-10.4 15-1.4 4.3 0.1 8.9 4.4 10.7 0.7 0.3 1.3-0.8 0.8-1.3-6.5-5.5 7.7-11.8 8.6-16.9 0.4-2.2-1.3-4.6-3.4-7.5z"/><path class="d" d="m46 716.9c-4.4-1.6-4.6-4.6-5.3-8.6-0.3-1.8-0.7-3.1-2.1-4.3-3.4-3-9.1-2.6-13.2-3.6 10.6 5.1 8.5 11.9 11.8 15.7 2.3 2.6 5.8 3.9 9 2.2 0.6-0.4 0.4-1.2-0.2-1.4z"/><path class="d" d="m12.1 587.5c-5.8 2-9.6 5.6-11 9.4-1.6 4.1-0.4 11 5.2 12.3-3.8-10.8 5.4-14.9 5.8-21.7z"/><path class="e" d="m77.7 492c5.1-4.7 13.3-4.9 18.1-8.8 2.9-2.4 4.7-6.9 7-11.7-7.3 8.4-22.1 10.8-25.1 20.5z"/><path class="d" d="m640.5 580.2c-3.9 5.4-9 9.9-14.9 13-6.8 3.5-13.9 6.2-17.6 13.4-3.9 7.7-4.9 15.8-11.4 22-6.9 6.5-16.2 9.4-25.5 8.3-1.4-0.1-1.4 1.8-0.2 2.2q0 0.1 0.1 0.2c15.4 5.5 42.1-1.3 46.3-19.3 1.4-6 1.5-10.9 7.3-14.5 3.6-2.2 7.7-3.6 10.8-6.6 5.5-5.2 6.6-12.7 5.1-18.7z"/><path class="e" d="m667.4 546.1c-5.6-4.1-13.3-3.7-19.3-6.9-11.5-6.2-22.8-15-22.7-14.8 2.6 9.7 11.3 15.1 18.3 21.3 4.5 4.1 8.8 8.9 9.9 15 1.1 6.3-1.9 12.2-3 18.2-1 5.3 0.5 9.8 0.8 15 0.2 6-2.5 10-7.4 12.7-7.4 4.1-12.9 14.2-12.6 14.2 0.1 0.1 24.1-4.8 32.2-15.3 2.9-3.7 4-8 3.4-12.6-0.5-4-2.2-7.9-2.1-11.9 0.1-3.9 1.7-7.3 3.5-10.6 4.3-8.3 8.3-17.5-1-24.3z"/><path class="d" d="m561.4 680.8c6.1-1.7 14.1-1 17.9 4.8-11.3-3.6-19.9 8.4-29.7 11.2-6.6 1.9-13.7 1.8-18.8-3.2 18.8 3.2 20.1-10.1 30.6-12.8z"/><path class="e" d="m517.5 672.5c-4.1 1.6-6.7 5.6-10.5 7.9-4 2.4-8.1 3.8-18.6 3.9 2.5 1.1 10.5 8.7 29.3-0.9 3.1-1.6 6.5-1.8 10-1.9 2.8 0 5.6 0.4 8.4 0.1 3.8-0.4 7-1.8 9.2-5.1-13.7 2.7-18.7-7.4-27.8-4z"/><path class="e" d="m662.7 675.8c-0.1-0.7-1.2-1-1.6-0.4-3.9 5-9.5 8.3-16 8.6-5.8 0.2-11.5-2-17.3-1.9-8.1 0.2-14.5 5.6-19.2 11.8 13.4-8.3 29.5-1.2 37-3.1 6.9-1.7 18.4-6.1 17.1-15z"/><path class="e" d="m699.3 609.1c-1.7-2.4-5.9-2.4-6.9-5.3-2.6 2.6 1.6 7.5 0 10.6-2.4 4.4-10.1 7.2-10.9 11.3-0.1 0.6 0.5 1.3 1.1 0.9 5.2-3.9 14.9-4 17.4-11 0.8-2.1 0.7-4.7-0.7-6.5z"/><path class="d" d="m704.7 533.2c-0.2-3.2-2.3-6-4.7-8-2.9-2.3-6.5-3.1-10.2-3.3-3.1-0.2-10 1.1-14.5-0.1 2 6.5 14 5.5 17.3 11 2.1 3.5 1.4 6.3 1.3 10-0.1 1.7 1.5 9.6 10.8 9.6-3.5-6.3 0.3-13.3 0-19.2z"/><path class="e" d="m723.6 492c-2-3.4-5.1-5.8-8.6-7.4-3.7-1.8-7.8-2.4-11.8-2.7-3-0.1-15.8 0-22.2-5 4.1 10.1 18.2 11.2 27 14.2 2.9 0.9 5.7 2.1 8.1 3.9 3.3 2.4 4.3 5.4 6.3 8.7 1.9 3.2 8.4 7.5 10.7 3.5-7.1-2.5-7.2-11.3-9.5-15.2z"/><path class="e" d="m722.1 676.6c1.9 5.7-0.5 10.4-5.9 13.9-8.5 5.4-19.5 2.9-28.2 8.1-1.1 0.7-0.4 2.4 0.9 2.1 10.9-2.3 23.6 6 32.9-1.8 9.5-7.9 7-18.9 0.3-22.3z"/><path class="d" d="m745.3 591.4c-3.9 2.8-3.5 7.3-1.7 11.4 1.9 4.5 4.6 8 3.2 13.3-1.1 4.5-4.3 8.4-7.3 12-0.9 1 0.6 2.5 1.6 1.5 5-4.9 15.4-7 16.6-15.2 1.3-9.6-11.4-12.4-12.4-23z"/><path class="d" d="m750.4 508.1c-1.4-1.3-3-2.2-4.6-3.2-2.2-1.3-3.9-2.9-5.8-4.6 0 0 0.7 4.5 2.6 6.2 4.2 3.7 6.9 7.9 7.5 13.5 0.1 0.8 1.2 1 1.5 0.2 1.5-4.2 2.3-8.6-1.2-12.1z"/></svg>