<svg version="1.2" xmlns="http://www.w3.org/2000/svg" viewBox="0 0 429 285" width="429" height="285"><style>.a{fill:#89e8da}.b{fill:#c0fff4}.c{fill:#b1c2b3}.d{fill:#037177}.e{fill:#03494c}.f{fill:#115c64}.g{fill:#029393}.h{fill:#ef4a6b}.i{fill:#231f20}.j{fill:none;stroke:#ed1e79;stroke-width:2}.k{fill:#68c1b4}.l{fill:#1a1a1a}.m{fill:#013535}.n{opacity:.5;mix-blend-mode:soft-light;fill:#fff}.o{mix-blend-mode:soft-light;fill:#161616}.p{mix-blend-mode:soft-light;fill:#fff}.q{mix-blend-mode:soft-light;fill:#1a1a1a}.r{opacity:.5;mix-blend-mode:soft-light;fill:#1a1a1a}</style><path class="a" d="m355.5 128.1c-1.8 0.6-3.7 0.8-5.5 0.5q7.5 0.6 14.9 2.6-5.4-0.5-10.7 0.3 11.6 2.2 23.2 4.5c-5.9 0.1-11.7 1.1-17.4 2.9q0.6 0 1.3 0-1.4 0.3-2.7 0.7 16.2 2.3 32.5 3.2-4.7 2.1-9.5 2.8c7.6-0.4 15.2 0.2 22.8 1.7-4.3 2-8.8 3.2-13.4 3.4q5.9 1.9 11.8 3.9c-16.6 4.6-33.5 6.9-50.3 9.2q11 1.5 22 3-14.6 2.9-29.2 5.7 1.1 0 2.3-0.1-4.6-0.3-9.3-0.7c2-0.8 4.1-0.6 6 0.7q-13 1.6-26.2 1.4c-0.4 0-0.9 0-1.2-0.4-0.5-0.5-0.7-1.4-0.9-2.3-1.7-9.6-1.1-20.9 3.4-27.6 2.1-3.2 4.9-5 7.6-6.8 4.3-2.8 8.9-7.1 13.4-8.8 4.5-1.8 10.4 0 15.1 0.2z"/><path class="b" d="m342.8 136.9q-1.6 0.6-3.3 0.4 4.5 0.3 9 1.5-3.3-0.3-6.5 0.2 7 1.4 14 2.7c-3.5 0.1-7 0.7-10.5 1.8q0.4 0 0.8-0.1-0.8 0.3-1.6 0.5 9.7 1.4 19.5 1.9-2.8 1.3-5.7 1.7 6.9-0.3 13.8 1c-2.6 1.2-5.4 1.9-8.1 2.1q3.6 1.1 7.1 2.3c-10 2.8-20.2 4.2-30.3 5.6q6.6 0.9 13.2 1.8-8.8 1.7-17.6 3.4 0.8 0 1.5 0-2.8-0.3-5.6-0.5c1.1-0.5 2.4-0.3 3.6 0.4q-7.9 1-15.8 0.9c-0.3 0-0.5 0-0.8-0.2-0.3-0.3-0.4-0.9-0.5-1.4-1-5.8-0.7-12.6 2-16.7 1.3-1.9 3-3 4.7-4.1 2.5-1.7 5.3-4.2 8-5.3 2.7-1 6.3 0 9.1 0.1z"/><path class="a" d="m310.9 192.7c-1.8 0.7-3.7 0.9-5.6 0.6q7.5 0.6 14.9 2.5-5.3-0.5-10.6 0.3 11.6 2.3 23.2 4.6c-5.9 0.1-11.7 1-17.4 2.9q0.6-0.1 1.2-0.1-1.3 0.4-2.6 0.7 16.2 2.4 32.4 3.2-4.6 2.1-9.4 2.8c7.6-0.3 15.2 0.3 22.7 1.8-4.3 2-8.8 3.1-13.3 3.4q5.9 1.9 11.8 3.8c-16.6 4.7-33.5 6.9-50.4 9.2q11 1.5 22 3.1-14.6 2.8-29.2 5.7 1.2-0.1 2.4-0.1-4.7-0.4-9.3-0.8c1.9-0.8 4.1-0.5 6 0.7q-13.1 1.7-26.2 1.5c-0.4 0-0.9-0.1-1.3-0.4-0.5-0.5-0.7-1.5-0.8-2.3-1.8-9.6-1.2-21 3.3-27.6 2.2-3.2 5-5.1 7.7-6.9 4.3-2.8 8.8-7 13.3-8.8 4.6-1.7 10.5 0 15.2 0.2z"/><path class="b" d="m298.2 201.6q-1.7 0.6-3.4 0.3 4.5 0.4 9 1.6-3.2-0.3-6.4 0.1 7 1.4 14 2.8c-3.6 0-7.1 0.6-10.5 1.7q0.4 0 0.8 0-0.9 0.2-1.7 0.4 9.8 1.4 19.6 2-2.8 1.2-5.7 1.6 6.9-0.3 13.7 1.1c-2.6 1.2-5.3 1.9-8 2q3.5 1.2 7.1 2.4c-10 2.7-20.2 4.1-30.4 5.5q6.7 0.9 13.3 1.8-8.8 1.7-17.6 3.5 0.7-0.1 1.4-0.1-2.8-0.2-5.6-0.4c1.2-0.5 2.5-0.4 3.6 0.4q-7.8 1-15.7 0.9c-0.3 0-0.6-0.1-0.8-0.3-0.3-0.3-0.4-0.8-0.5-1.4-1.1-5.8-0.7-12.6 2-16.6 1.3-1.9 3-3 4.6-4.1 2.6-1.7 5.3-4.3 8.1-5.3 2.7-1.1 6.2 0 9.1 0.1z"/><path class="c" d="m300.4 124l55.6 3.1-32.9 47.4-64.3 2.8z"/><path class="c" d="m250.3 191.1h55.7l-30.2 49.1-64 6.4z"/><path class="d" d="m329.3 74.9l50.3-66.9 13.1-2.4-20.5 57.8c0 0-13.6 17.8-42.9 11.5z"/><path  d="m323.1 76.8c0 0 9.7-15.8 21-21.6 0 0 12.8 5.1 31.9-2.7 0 0 1.4-0.1 1.3 8.1 0 0-4.6 8.9-21.1 15-16.5 6.1-33.1 1.2-33.1 1.2z"/><path class="e" d="m121.4 239.3l108 7.6 95.7-133.4 71.6-16.3 22.3-44.9-152.5 32.7-145.1 146.8v6.1"/><path class="d" d="m278.8 95.3l74-16.9 9.4-21.3 33.6-7.3-15.7 36.5-109.3 24.3z"/><path class="f" d="m24.1 187.4l-23.6 19.5 17 42.8 126.9 5.9 40.8-62.7 80.4-42.5 30.8-79-174.4 42.1z"/><path class="g" d="m153.5 164.6l-19.5-79.6 99.9-9.2 14.4 48.6z"/><path class="f" d="m192.9 91l-8.8 4.5 7.7 34.1 8.4 2.4-5.8-5.2-6.8-30.3z"/><path class="f" d="m215.5 86.1l-8.9 4.5 7.8 34.1 8.4 2.4-5.9-5.2-6.8-30.3z"/><path class="h" d="m151.4 83.4l20.6 7.6 10.2 50.9-7.2 13.6-21.5 9.1-19.5-79.6z"/><path class="i" d="m140 90.4l16.7 67.2 9.2-12.1-11.8-50.2z"/><path class="g" d="m128.5 272.7l22.2-78.9 91.5 41.3-11.5 49.3z"/><path class="f" d="m199 228.1l-9.9-0.5-10.1 33.5 6.2 6.2-2.5-7.4 9-29.7z"/><path class="f" d="m221 234.9l-9.8-0.5-10.1 33.5 6.1 6.3-2.5-7.4 9-29.8z"/><path class="h" d="m166.7 201l14.1 16.7-16.2 49.4-12.9 8.3-23.2-2.7 22.2-78.9z"/><path class="i" d="m153.2 201.4l-18.5 66.7 14-5.9 14.4-49.6z"/><path class="j" d=""/><path class="k" d="m122 113.5l-75.3 29.1-22.6 44.8 88-9.7 23.3-31.6z"/><path class="f" d="m123.5 117.1l-54.7 26.1-16.4 41.1 5.2-0.6 14.2-38.7 53-24.8z"/><path class="f" d="m70.8 142.9l-22.2-1-1.9 0.7-1.4 2.7 23.7 1.5z"/><path class="l" d="m122 113.5l13.4 32.6-23.3 31.6-88 9.7-3.1 2.6 93.8-8.8 25.2-34.4-13.1-34.5z"/><path class="g" d="m342.5 68.7l70.3-66.6 16-1.8-33.5 58.2c0 0-18.9 18.2-52.8 10.2z"/><path class="m" d="m335 70.3c0 0 13.9-16.3 28.3-21.7 0 0 14.4 5.9 38.3-1.1 0 0 1.6 0 0.3 8.4 0 0-6.9 8.9-27.5 14.3-20.5 5.4-39.4 0.1-39.4 0.1z"/><path class="n" d="m365.5 48.2l48-44.8h3.4l-43.5 46.4c0 0-5.3-0.4-7.9-1.6z"/><path class="n" d="m362.6 49.7c0 0-12.7 6.7-22 18.6 0 0 7.9 1.7 12.9 1.7 0 0 8.9-14.2 16.4-18.1 0 0-4.7-1.3-7.3-2.2z"/><path class="o" d="m282.5 174.8l39.7-1.3 7.9-11.2-39.6 1.2z"/><path class="p" d="m317.5 126.3l35.8 2.1-15.3 20.9h-36.9z"/><path class="o" d="m244.7 234.4l-2.5 7.8 33-2.8 6.8-11.2-38.5 1.2-2.6 3.6z"/><path class="p" d="m270.5 192.2h32.9l-14.6 22.9h-34.7z"/><path class="p" d="m231.7 77.6l-76.4 15.8-19.9-7.3 9.5-0.6 8.1 3.3 17.6-2.7h6.6z"/><path class="q" d="m246.8 124l-78.7 20.7-13.5 18.8z"/><path class="q" d="m219.3 132.3l-50 14.5-6.3 8.7 7.3-5.9z"/><path class="p" d="m240.2 235.5l-74.2-24.3-13.6-16.2 8.5 4.1 5.4 6.9 16.6 6.5 5.7 3.3z"/><path class="q" d="m230.2 283.2l-78.6-21.2-21.1 9.6z"/><path class="q" d="m202.2 276.8l-50.6-12.3-9.8 4.4 9.3-1.5z"/><path class="q" d="m139.1 110.6l13.9 55.2 95.3-39.8-99.8 48.4-15.7-62.6z"/><path class="q" d="m148.9 195l-16.1 58.5-11.4-0.9z"/><path class="r" d="m138.5 232.7l-5.7 20.8-113-5.9-5.1-12.1z"/><path class="p" d="m124.8 124.5l-50.4 55.4 23.3-2.6 32.8-37.8z"/><path class="p" d="m51.9 146.8l-22.9 33.6-2.5 5.2 10.5-1.3 27.6-36.5z"/><path class="p" d="m70.8 180.7l50.6-57.5-4.9 2.3-50.8 55.9z"/><path class="q" d="m295.3 80.2l-27 72-80.9 42.8-7 10.1 8.6 3.1 5.7-9.9 81.1-42.8 30.2-77.9z"/><path class="o" d="m282.5 174.8l35-48.5 5.6 0.4-32.4 48.1z"/><path class="o" d="m244.7 234.4l-3.8-1.4 29.5-40.8h5.8l-33 50h-1z"/></svg>