<svg version="1.2" xmlns="http://www.w3.org/2000/svg" viewBox="0 0 422 315" width="422" height="315"><style>.a{fill:#89e8da}.b{fill:#c0fff4}.c{fill:#b1c2b3}.d{fill:#3f616f}.e{fill:#cd2d27}.f{fill:#68c1b4}.g{fill:#161616}.h{fill:#a01846}.i{fill:#510021}.j{fill:#231f20}.k{fill:#ad0e0e}.l{mix-blend-mode:soft-light;fill:#fff}.m{mix-blend-mode:soft-light;fill:#1a1a1a}.n{fill:#900}.o{fill:#ec4963}.p{mix-blend-mode:soft-light;fill:#161616}.q{opacity:.7;mix-blend-mode:soft-light;fill:#fff}.r{opacity:.5;mix-blend-mode:soft-light}</style><path class="a" d="m368.6 86.3c-1.4 1.3-3 1.8-4.7 1.5q6.7 0.5 13.8 3.5-4.8-0.5-9.2 1.4 10.8 3.3 21.6 6.5c-5.1 0.7-9.8 3-14.2 7q0.5-0.1 1.1-0.2-1.1 0.8-2.1 1.5 14.8 3.1 29.2 3.3-3.3 4.2-7.3 6c6.5-1.3 13.3-0.9 20.3 1.3-3.1 4.1-6.6 6.7-10.5 7.5q5.7 3.1 11.4 6.2c-13 10.2-26.9 15.9-40.9 21.7q10.1 1.9 20.1 3.8-11.8 6.6-23.6 13.2 1-0.2 2-0.3-4.1-0.3-8.3-0.6c1.5-1.7 3.4-1.4 5.4 0.8q-10.8 4.2-22.3 5c-0.3 0-0.8 0-1.2-0.7-0.6-0.9-1.1-2.6-1.5-4.2-4.5-17.9-7.5-39.2-5.7-52.2 0.9-6.1 2.7-9.8 4.5-13.4 2.9-5.7 5.5-14 8.8-17.7 3.4-3.7 9.1-0.9 13.3-0.9z"/><path class="b" d="m360.3 104q-1.2 1.2-2.8 0.9 4.1 0.3 8.3 2.1-2.9-0.3-5.5 0.9 6.5 2 13 3.9-4.6 0.6-8.6 4.2 0.4 0 0.7-0.1-0.7 0.5-1.3 0.9 9 1.8 17.6 2-2 2.5-4.4 3.6 5.9-1.2 12.3 0.8c-1.9 2.5-4.1 4-6.4 4.5q3.5 1.9 6.9 3.8c-7.8 6.1-16.2 9.5-24.6 13q6 1.2 12.1 2.3-7.1 4-14.3 8 0.7-0.1 1.3-0.3-2.5-0.1-5-0.3c0.8-1 2-0.8 3.2 0.5q-6.5 2.5-13.4 3c-0.2 0-0.5 0-0.7-0.4-0.4-0.5-0.7-1.6-0.9-2.6-2.8-10.7-4.6-23.6-3.5-31.4 0.5-3.7 1.6-5.9 2.7-8.1 1.7-3.4 3.3-8.4 5.4-10.6 2-2.2 5.4-0.6 7.9-0.6z"/><path class="c" d="m333.2 92.7l38.3-11.3-19.2 97-43 12.1z"/><path class="a" d="m356.5 0.3c-4.3 3.4-9.2 6-14.4 7.7 3.3 0.1 6.5-0.3 9.7-1q-2.9 1.1-5.9 2.2c0.8-0.4 1.8-0.4 2.5 0.1q-8 6.6-16.1 13.1c-0.9 0.8-1.9 2-1.4 3.1 0.2 0.6 0.9 0.9 1.6 1.1 9.7 3.8 21.5 1.2 28.9-6.2-2.1-1.5-4.8-2.2-7.4-2.1 7.2 1 14.1-3.6 21.4-3.5 7 0 13.2 4.3 20.1 5.3 0.6 0.1 1.2 0.2 1.6 0.6 0.3 0.5 0 1.4-0.5 1.3 8.4 0.9 16.9 0.5 25.2-1.1-13 5-26.5 8.9-40.2 11.6 1.8-0.1 3.5-0.5 5.1-1.3-1.3-2.4-4.3-3.5-7-3.3-2.8 0.2-5.3 1.4-7.7 2.7-0.9 0.5-1.9 1-2.4 1.9-0.5 1-0.2 2.4 0.8 2.7-3.9 0.6-7.6 2.1-10.9 4.3-0.8 0.6-1.6 1.5-1.2 2.3 0.3 0.4 0.8 0.6 1.3 0.8q1.9 0.6 3.7 1.2c-8.1 3.6-16.8 6.1-25.6 7.4 4.6 0.1 9.3 0.6 13.9 1.7q-4.7 0.7-9.4 1.5 13.3 2.6 26.5 5.2-15.3-0.6-30.7-1.2 9.6 1.2 19.1 2.3c-24.7-2.1-49.4 4.6-74.2 3.7-1.4 0-2.8-0.2-3.8-1.1-0.8-0.7-1.2-1.8-1.4-2.8-2-6.6-3.4-13.3-4.3-20.1-0.1-0.7-0.2-1.3 0-1.9 0.3-0.8 1.1-1.3 1.9-1.8 6.1-3.7 12.6-6.9 18-11.7 3.5-3.1 6.5-6.9 10.5-9.3 3.8-2.2 8.1-3 12.2-4.2 4-1.1 7.7-3.1 11.6-4.6 9.3-3.4 19-5.7 28.9-6.6z"/><path class="b" d="m317 26.8q-1.6 1.7-3.3 3.3 4.6 0.3 9.1 0.5c-1.2 1.5-2.8 2.7-4.5 3.6q4.4 0.6 8.8 1.1-0.8 0.7-1.6 1.3c5 1.6 10.4-1.2 15.5 0q-9 3-17.6 7.1c-0.7 0.4-1.4 0.8-1.8 1.5-0.3 0.7 0.2 1.7 1 1.6-3.4-1.3-7.2-1.6-10.7-0.8 0.4-0.2 0.6-0.6 0.6-1-2.6-1.1-5.7-0.3-7.9 1.5-2.1 1.8-3.4 4.6-3.9 7.3q-4 0.4-8.1 0.8c-0.9 0.1-2 0.1-2.4-0.7-0.2-0.3-0.2-0.7-0.3-1-0.3-1-1.5-1.3-2.5-1.7-3.1-1.3-5-4.9-4.8-8.2 0.3-3.4 2.6-6.5 5.7-7.9 1.4-0.7 3-1 4.5-1.6 1.7-0.7 2.2-2.2 3.5-3 1.6-1.1 4.8-1 6.6-1.3q7-1.3 14.1-2.4z"/><path class="d" d="m298.9 97.5l47.9-16.1v70.9l-24 38.1-58.5 21.5z"/><path class="e" d="m10.7 263.5l-10.2 19.3 19.7 32h59.1l24.5-42.6 181.5-59.2 36.1-60.5-4.7-71.4-161.1 51.8-79 49.3c0 0-38.3 30.4-40.4 33.6-2.2 3.2-25.5 47.7-25.5 47.7z"/><path class="f" d="m155.6 132.9l-119.9 43.7-25 46.1v40.8l25-10.7 26.5-42 72.6-34.2z"/><path class="g" d="m273.5 73.6l59.4-7.7 4.8-6.9-59.9-0.2z"/><path class="g" d="m279.5 20.1l60.5-18.4 7.5 2.7-68.9 28.1z"/><path class="c" d="m61.8 83.6l17.6 18.3 59.4-8.7-21.2-25.7z"/><path class="e" d="m72 74.4l12.5 5.9 34.6 0.5 17.7 18.8 76.9-8.1 61.2-13 43-60.2 1.1-13z"/><path class="h" d="m181.8 150.4l-3.6-77.6 94.5 9.6 4.5 47.8z"/><path class="i" d="m231.8 89.1l-9 2.5 1 33.2 7.3 3.7-4.4-5.9-0.8-29.4z"/><path class="i" d="m253.7 88.7l-9 2.5 0.9 33.1 7.4 3.8-4.5-5.9-0.8-29.5z"/><path class="c" d="m194.6 74.5l17.7 10.8 0.3 49.2-9.1 11.3-21.7 4.6-3.6-77.6z"/><path class="j" d="m182.7 78.8l3.3 65.6 10.8-9.5-1.8-48.9z"/><path class="h" d="m70.1 305.9l-3.6-77.5 94.5 9.6 4.5 47.8z"/><path class="i" d="m120.1 244.7l-9 2.5 1 33.2 7.3 3.7-4.4-5.9-0.8-29.4z"/><path class="i" d="m142 244.2l-9 2.5 0.9 33.2 7.4 3.8-4.5-5.9-0.8-29.5z"/><path class="c" d="m82.9 230l17.7 10.9 0.3 49.2-9.1 11.3-21.7 4.5-3.6-77.5z"/><path class="j" d="m71 234.4l3.3 65.6 10.8-9.5-1.8-49z"/><path class="k" d="m148.5 147.7l-102.9 37.1-22.9 36.7v36.9l3.4-1.5-0.2-35.1 22.1-34.6 98.4-34.9 1.6-3.4"/><path class="k" d="m45.5 185.8l-10.6-7.8 0.8-1.4 1.6-0.6 10.9 8.6z"/><path class="k" d="m24.4 220.7h-12.6l-1.1 2v1.6l13.7-0.5z"/><path class="l" d="m270.1 82.6l-74 1.2-17.2-10.3 9 1.1 6.9 4.5 16.9 0.6 6.1 1.2z"/><path class="m" d="m276 128.4l-77 5.4-15.9 15.2z"/><path class="m" d="m248.9 131.4l-49.1 4.6-7.5 7 7.9-4.2z"/><path class="l" d="m158 238.5l-73.9 1.3-17.2-10.3 8.9 1.1 6.9 4.5 16.9 0.6 6.2 1.2z"/><path class="m" d="m163.9 284.4l-77 5.4-15.9 15.1z"/><path class="m" d="m136.8 287.3l-49.1 4.6-7.4 7 7.8-4.1z"/><path class="n" d="m115.4 232.7l175.4 41 60.8-14.6-76-35.6-19.2 0.6-51.5-30.8-74.3 22z"/><path class="o" d="m289.9 264.5l25.7-39.3 15.4-4.3 0.6 31.9c0 0-2.6 10.4-41.7 11.7z"/><path class="p" d="m77.3 97.1l3.9 3.8 48.2-7.1-6-5.9z"/><path class="p" d="m131.4 90.3l6.5 7.9 40.3-4.3-0.4-9.8z"/><path class="p" d="m224 76.5l57-10.3-6.7 10.3-13.2 3.2z"/><path class="m" d="m178.9 126.6l1.7 26.3 96.6-21.5-103 28v-31.3z"/><path class="q" d="m133 217l-12.9 15.1 169.8 39.1h4z"/><path class="q" d="m295 262.5l21.9-36.2 2.5-0.4-13.2 35.6c0 0-5 1.3-11.2 1z"/><path class="l" d="m276 96.4l39-12.3v12.3l-37.8 11z"/><path class="l" d="m319 92.7l25.6-7.4v12.4l-24.2 7.4z"/><path class="l" d="m348 90.1l21.2-6.3-7.4 36.7-13.8 4z"/><path class="r" d="m344 159.4l12.1-3.8-4.5 21.9-24.1 7.2z"/><path class="r" d="m344 152.8l-26 8.1-24.1 38.8 27.5-10z"/><path class="r" d="m310.8 168.1l-95.2 29.8 39.4 23 28.5-9z"/><path class="r" d="m67.5 283.7l-49.9 21.9 4.2 7.4 56.3 0.4 5-8.5-14.5 2.7z"/><path class="r" d="m219.6 197.9l35.5 21.3 27.3-8 2.7-4.5-29.7 8.5z"/><path class="l" d="m66.9 183.7l-5.1 23.4 18.5-8.9 3.4-20.4z"/><path class="l" d="m85.6 196.4l2.8-20.4 6.2-2-3.1 19.3z"/><path class="l" d="m16.8 218.9h4.8l7.1-11.8 10.2-24.7-3.2-2.2z"/><path class="l" d="m20.5 233.5l-7.3 26.9 7.3-3.3z"/><path class="m" d="m115.4 234.4l45 10.3 0.6 12.4-49.3-22.7z"/><path class="m" d="m120.1 236.2l39.2 9.6v5.3z"/></svg>