<svg version="1.2" xmlns="http://www.w3.org/2000/svg" viewBox="0 0 513 231" width="513" height="231"><style>.a{fill:#89e8da}.b{fill:#c0fff4}.c{fill:#a73e5c}.d{fill:#68c1b4}.e{fill:#3f616f}.f{fill:#161616}.g{fill:#b1c2b3}.h{fill:#ec4963}.i{fill:#8e193f}.j{fill:#231f20}.k{mix-blend-mode:soft-light;fill:#fff}.l{mix-blend-mode:soft-light;fill:#1a1a1a}.m{opacity:.5;mix-blend-mode:soft-light;fill:#fff}.n{opacity:.5;mix-blend-mode:soft-light}.o{opacity:.4;mix-blend-mode:overlay;fill:#fff}.p{mix-blend-mode:soft-light;fill:#161616}</style><path class="a" d="m411.8 3.6c-4.9 2.5-10.1 4.1-15.5 4.9 3.2 0.6 6.5 0.9 9.7 0.8q-3.1 0.5-6.2 1c0.9-0.2 1.8 0 2.5 0.7q-9.1 4.9-18.2 9.9c-1 0.5-2.2 1.5-1.9 2.6 0.1 0.7 0.7 1.1 1.3 1.5 8.9 5.4 20.9 5 29.4-0.9-1.8-1.8-4.2-3.1-6.8-3.4 6.9 2.3 14.4-0.9 21.5 0.5 6.9 1.3 12.2 6.6 18.8 8.8 0.5 0.2 1.1 0.4 1.4 0.9 0.2 0.5-0.2 1.3-0.7 1.1 8 2.4 16.4 3.6 24.8 3.6-13.6 2.5-27.5 3.9-41.4 4.1 1.8 0.2 3.5 0 5.2-0.4-0.8-2.6-3.6-4.2-6.3-4.5-2.7-0.4-5.3 0.4-7.9 1.2-1 0.3-2.1 0.7-2.8 1.5-0.6 0.8-0.6 2.2 0.4 2.7-4-0.1-7.9 0.7-11.5 2.3-0.8 0.4-1.8 1.1-1.5 2 0.1 0.5 0.6 0.8 1.1 1q1.7 0.9 3.4 1.8c-8.6 2.1-17.6 3-26.4 2.6 4.5 1 9 2.4 13.2 4.2q-4.7-0.1-9.4-0.2 12.5 4.9 25 9.9-14.9-3.4-29.8-6.7 9.1 2.8 18.2 5.7c-23.8-6.6-49.2-4.5-73.2-9.9-1.4-0.3-2.8-0.6-3.6-1.7-0.6-0.9-0.8-2-0.9-3-0.6-6.8-0.8-13.7-0.5-20.5 0-0.6 0.1-1.3 0.4-1.8 0.4-0.8 1.3-1.1 2.1-1.5 6.7-2.5 13.6-4.5 19.7-8.1 4.1-2.5 7.7-5.6 12.1-7.2 4-1.5 8.4-1.5 12.6-1.9 4.2-0.4 8.1-1.7 12.3-2.4 9.6-1.7 19.6-2.1 29.4-1.2z"/><path class="b" d="m368.4 22.4q-2 1.3-3.9 2.6 4.4 1.1 8.9 2.1c-1.5 1.2-3.3 2.1-5.1 2.7q4.2 1.3 8.4 2.7-0.9 0.5-1.8 1c4.6 2.4 10.4 0.7 15.2 2.8q-9.4 1.2-18.6 3.8c-0.7 0.2-1.5 0.4-1.9 1-0.5 0.7-0.2 1.8 0.6 1.8-3.1-1.9-6.7-2.8-10.3-2.7 0.4-0.1 0.7-0.5 0.8-0.9-2.4-1.5-5.6-1.3-8 0.1-2.5 1.4-4.2 3.8-5.2 6.4q-4-0.3-8.1-0.7c-0.9 0-2-0.3-2.2-1.1-0.1-0.4 0-0.7-0.1-1.1-0.2-1-1.2-1.5-2.1-2.1-2.8-1.9-4.1-5.6-3.2-8.9 0.9-3.3 3.7-5.8 7-6.7 1.5-0.4 3.1-0.4 4.6-0.7 1.8-0.4 2.6-1.7 4.1-2.3 1.6-0.8 4.8-0.1 6.6-0.1q7.1 0 14.3 0.3z"/><path class="a" d="m407.5 86.5q-1-0.1-2.1-0.2c7.7-0.2 15.4 2.8 21 8.1-4-1.5-8.9 0.1-11.2 3.7 3 0.5 5.9 1.7 8.1 3.8 1.8 1.6 4.1 3.8 6 2.4q-1.7 1.9-3.3 3.9c7.7 3.6 16.2 5.8 24.7 6.5-2.3 0.2-4.5 1-6.3 2.4-0.4 0.3-0.8 0.6-1 1.1-0.5 1.5 1.3 2.6 2.8 3 9.4 2.8 19.8 1.8 28.5-2.6 1.6-0.7 3-1.6 4.7-2 1.6-0.4 3.3-0.3 4.9 0 3.3 0.6 6.5 1.9 9.2 3.9-1.4-0.2-2.7-0.6-3.9-1.2 8.5-0.2 16 7.6 24.3 6.2q-17.6 2.4-35.2 5.2 0.8 0.6 1.7 1.2-5.1 3-10.2 6c-0.8 0.5-1.7 1.6-0.9 2.2-5.5 1.8-12.1 3.4-16.6-0.1-1.2-0.9-2.1-2.1-3.3-2.9-1.8-1.3-4.1-1.7-6.4-1.9q-6.9-0.7-13.8-0.5c-3.8 0.2-7.7 0.5-11.2 1.9-3.6 1.3-6.9 3.8-8.5 7.2 1.3 0.8 2.7 1.2 4.2 1.3q-1.2 0.6-2.5 1.3 6.2 2.2 12.5 4.3c-6.5-0.5-13.3-0.9-19.1 1.9-1.6 0.7-3.2 1.9-3.7 3.6-0.4 1.7 1 3.8 2.7 3.4-3.7 1.6-7.8 2.6-11.9 2.9 3.8 3.1 8.7 4.7 13.6 4.5-8.5 0.5-17.3 0.8-25-2.6-3.6-1.6-6.9-4.2-8.3-7.8-0.9-2.6-0.8-5.5-0.6-8.3q1.5-22.1 2.9-44.3c0.1-1.3 0.1-2.6 0.6-3.8 0.7-1.8 2.2-3.2 3.6-4.5q3.5-3.2 6.9-6.4c5.2-4.7 15.5-2.7 22.1-2.8z"/><path class="a" d="m447.2 142.9q-1.1 0.5-2.3 1c3 1.8 6.3 3.2 9.7 3.9-5.1 0.5-10.3 1.1-15.4 0.9-1.6-0.1-3.3-0.3-4.7-1-1-0.5-1.9-1.8-1.2-2.7-1.4-1.6-3.3-3.3-5.3-2.8 7.2-1.6 12.4-3.3 19.2 0.7z"/><path class="a" d="m483.5 100.7c3.5 0.5 6.8 1.9 10 3.4-3.3 0.2-6.5 0.9-9.6 2.1q1.9 1.1 3.7 2.3-8.1-0.3-16.1-1.3 0.6-0.2 1.2-0.3c-2.6-1-4.7-3.3-5.4-6 1.4 0.3 2.9-0.1 3.9-1.2 0.6-0.6 1-1.5 1.7-2.1 0.6-0.7 1.8-1 2.4-0.4q-1 0.5-1.9 1c-0.3 0.2-0.6 0.4-0.7 0.7 0 0.2 0.1 0.4 0.3 0.7 1.2 2.5 0.6 1.9 3.7 1.2 2.2-0.5 4.5-0.5 6.8-0.1z"/><path class="c" d="m59.9 133.2c0 0-41.5 13.4-60.2 24.5 0 0 54.7 16.9 137.7 22.8 83.1 6 161.4 0 161.4 0l56.4-30.5v-50.4l-45.6-25.2c0 0-81.2 2.4-122.4 11.4-41.3 9-127.3 47.4-127.3 47.4z"/><path class="d" d="m187.2 85.8c0 0-74.6 6.9-89.8 15.4-15.3 8.6-37.5 32-37.5 32 0 0 62.3-2.2 83.2-12 21-9.8 44.1-35.4 44.1-35.4z"/><path class="e" d="m348.7 86.1l-5.2 82.8 43.8-2.1 8.1-80.8z"/><path class="f" d="m311.1 59.8l59.5 2.5 5.9-6-58.7-10.3z"/><path class="f" d="m326 8.4l62.5-7.8 6.9 3.9-72.3 15.9z"/><path class="g" d="m101.8 33.9l14.2 21 59.8 1.4-16.6-28.7z"/><path class="c" d="m113.4 26.7l11.3 7.9 33.8 6.3 14.1 21.4 76.9 5 62.1-2.4 52.3-51.8 3.3-12.5z"/><path class="h" d="m44 160.3l35.2 30.7h15.9l-7.9-30.7c0 0-5.3-9.3-43.2 0z"/><path class="h" d="m206.1 124.4l-3.6-77.2 94.1 9.6 4.4 47.6z"/><path class="i" d="m255.9 63.5l-9 2.5 0.9 33 7.4 3.7-4.5-5.8-0.8-29.4z"/><path class="i" d="m277.6 63l-9 2.5 1 33 7.3 3.8-4.4-5.9-0.8-29.3z"/><path class="g" d="m218.9 48.9l17.6 10.8 0.2 48.9-9.1 11.3-21.5 4.5-3.6-77.2z"/><path class="j" d="m207 53.3l3.2 65.2 10.8-9.5-1.8-48.6z"/><path class="g" d="m305.5 74.5l-6.7 106 56.1-2.6 10.3-103.5z"/><path class="h" d="m170.5 144.5l144.5 85.9 39.5-9.9-69-84.9c0 0-38.4-16.1-115 8.9z"/><path class="k" d="m293.9 57.8l-73.6 0.9-17.1-10.4 8.9 1.1 6.9 4.5 16.8 0.8 6.1 1.2z"/><path class="l" d="m299.5 103.5l-76.7 4.9-15.9 15z"/><path class="l" d="m272.5 106.2l-48.9 4.4-7.4 6.9 7.8-4.1z"/><path class="k" d="m133.2 101.3c-4.2 0.8-8.4 1.7-12.4 3-14.6 4.7-26.8 14.6-37.4 25.6q14.2-1.9 28.4-3.7c-1.7-1-3.6-2.4-3.5-4.4 0-1 0.6-1.9 1.2-2.7 1.9-2.8 4.3-5.5 7.5-6.5 4.4-1.5 9.2 0.5 13.9 0.2 2.7-0.1 5.3-1 7.5-2.6 1.5-1 2.8-2.3 4.3-3.3 2.3-1.6 5.2-2.3 7.9-3 1.9-0.4 3.8-0.8 5.7-0.7 2 0.2 3.9 1 4.9 2.7 4.2-2.9 9.5-5.3 13.2-8.7-1.3-1.4-8 0-10 0.1q-5.3 0.4-10.5 1-10.4 1.1-20.7 3z"/><path class="m" d="m329.1 224l-118-87c0 0-11.9 2-21 5.1l129.8 84.2z"/><path class="m" d="m83.4 188l-17.3-30.2c0 0-6.2 0.1-13.1 2.2l27.2 28z"/><path class="k" d="m306.8 104.5l1.3-28.7h54.7l-2.9 28.7z"/><path class="n" d="m305.6 130.5h51.1l-3.4 44.6-30.2 1.5-20.1-22.7z"/><path class="n" d="m353.4 132.4h-46.6l-1.1 8 3.5-4.8z"/><path class="n" d="m351.4 173.1l-27.5 1.2-4.9-5.4 33.2-1.6z"/><path class="k" d="m311.1 77.4h49.7v3.6h-50.4z"/><path class="o" d="m365.9 109.9l1.3-22.2h24.1l-2 22.2z"/><path class="n" d="m364.8 130.1h22.5l-2.7 34.5-24.1 1.2z"/><path class="n" d="m385.8 131.6h-20.6l-0.6 6.2 1.6-3.8z"/><path class="n" d="m383.9 163.1l-21.8 1.6 0.9-6.1h21.4z"/><path class="o" d="m368.5 89h21.9l-0.1 2.7h-22.2z"/><path class="l" d="m202.5 84.5l2.4 42.2 96.1-21.1-100.4 26-3.8-45.8z"/><path class="l" d="m202.5 165.8c0 0-51.5 7.8-108.7 0l1.3 7.8c0 0 68.9 9 130.3 6.8z"/><path class="l" d="m44.7 163l-38.6-5.2 44.3 9.7z"/><path class="p" d="m113.4 47.5l3.2 4.4 48.4 1.3-4.9-6.8z"/><path class="p" d="m169 51.1l5 8.8 27.7 2.1-0.6-9.8z"/><path class="p" d="m257.2 51.9l63.3 1.6-9.4 9.5-12.6 0.5-1.1-7z"/><path class="f" d=""/></svg>