<svg version="1.2" xmlns="http://www.w3.org/2000/svg" viewBox="0 0 379 508" width="379" height="508"><defs><clipPath clipPathUnits="userSpaceOnUse" id="cp1"><path d="m590.27 547.67h-1196.28c-16.5 0-29.88-13.38-29.88-29.89v-712.44c0-16.5 13.38-29.88 29.88-29.88h1196.28c16.5 0 29.88 13.38 29.88 29.88v712.44c0 16.51-13.38 29.89-29.88 29.89z"/></clipPath><linearGradient id="P" gradientUnits="userSpaceOnUse"/><linearGradient id="g1" x1="182.2" y1="508.6" x2="182.2" y2="461.6" href="#P"><stop stop-color="#46fefe"/><stop offset="1" stop-color="#1ab8ff"/></linearGradient><linearGradient id="g2" x1="344.4" y1="466.4" x2="378.6" y2="466.4" href="#P"><stop stop-color="#1ab8ff"/><stop offset="1" stop-color="#46fefe"/></linearGradient><linearGradient id="g3" x1=".5" y1="466.4" x2="34.7" y2="466.4" href="#P"><stop stop-color="#46fefe"/><stop offset="1" stop-color="#1ab8ff"/></linearGradient><linearGradient id="g4" x1="160.7" y1="473.4" x2="228.9" y2="473.4" href="#P"><stop stop-color="#46fefe"/><stop offset="1" stop-color="#1ab8ff"/></linearGradient><linearGradient id="g5" x1="34.7" y1="418.6" x2="344.4" y2="418.6" href="#P"><stop stop-color="#1be1ff"/><stop offset="1" stop-color="#1ab8ff"/></linearGradient><linearGradient id="g6" x1="42.5" y1="419.3" x2="336.6" y2="419.3" href="#P"><stop stop-color="#1be1ff"/><stop offset="1" stop-color="#1ab8ff"/></linearGradient><linearGradient id="g7" x1="108.1" y1="101.3" x2="213" y2="101.3" href="#P"><stop stop-color="#1be1ff"/><stop offset="1" stop-color="#1ab8ff"/></linearGradient><linearGradient id="g8" x1="195.5" y1="103.2" x2="208.2" y2="125.9" href="#P"><stop stop-color="#e34297"/><stop offset="1" stop-color="#a42d6f"/></linearGradient><linearGradient id="g9" x1="155.5" y1="147.8" x2="164.4" y2="163.7" href="#P"><stop stop-color="#e34297"/><stop offset="1" stop-color="#a42d6f"/></linearGradient><linearGradient id="g10" x1="130.8" y1="207" x2="134.9" y2="214.3" href="#P"><stop stop-color="#e34297"/><stop offset="1" stop-color="#a42d6f"/></linearGradient><linearGradient id="g11" x1="82.7" y1="7.6" x2="306.9" y2="7.6" href="#P"><stop stop-color="#1be1ff"/><stop offset="1" stop-color="#1ab8ff"/></linearGradient><linearGradient id="g12" x1="159.5" y1="196.9" x2="200.7" y2="196.9" href="#P"><stop stop-color="#e34297"/><stop offset="1" stop-color="#a42d6f"/></linearGradient><linearGradient id="g13" x1="147.3" y1="298.8" x2="171.6" y2="298.8" href="#P"><stop stop-color="#e34297"/><stop offset="1" stop-color="#a42d6f"/></linearGradient><linearGradient id="g14" x1="221.1" y1="298.8" x2="245.5" y2="298.8" href="#P"><stop stop-color="#e34297"/><stop offset="1" stop-color="#a42d6f"/></linearGradient><linearGradient id="g15" x1="68.7" y1="378.8" x2="83.5" y2="378.8" href="#P"><stop stop-color="#e34297"/><stop offset="1" stop-color="#a42d6f"/></linearGradient><linearGradient id="g16" x1="99.4" y1="426.7" x2="114.2" y2="426.7" href="#P"><stop stop-color="#e34297"/><stop offset="1" stop-color="#a42d6f"/></linearGradient><linearGradient id="g17" x1="285.2" y1="426.7" x2="300.1" y2="426.7" href="#P"><stop stop-color="#e34297"/><stop offset="1" stop-color="#a42d6f"/></linearGradient><linearGradient id="g18" x1="235.6" y1="426.7" x2="250.5" y2="426.7" href="#P"><stop stop-color="#e34297"/><stop offset="1" stop-color="#a42d6f"/></linearGradient><linearGradient id="g19" x1="98.9" y1="376.9" x2="111.5" y2="376.9" href="#P"><stop stop-color="#e34297"/><stop offset="1" stop-color="#a42d6f"/></linearGradient><linearGradient id="g20" x1="245.5" y1="401.5" x2="258.1" y2="401.5" href="#P"><stop stop-color="#e34297"/><stop offset="1" stop-color="#a42d6f"/></linearGradient><linearGradient id="g21" x1="162.5" y1="95.2" x2="254.4" y2="95.2" href="#P"><stop stop-color="#1be1ff"/><stop offset="1" stop-color="#1ab8ff"/></linearGradient><linearGradient id="g22" x1="167" y1="100.8" x2="193" y2="100.8" href="#P"><stop stop-color="#e34297"/><stop offset="1" stop-color="#a42d6f"/></linearGradient><linearGradient id="g23" x1="186.3" y1="157.5" x2="204.5" y2="157.5" href="#P"><stop stop-color="#e34297"/><stop offset="1" stop-color="#a42d6f"/></linearGradient><linearGradient id="g24" x1="226" y1="208" x2="234.3" y2="208" href="#P"><stop stop-color="#e34297"/><stop offset="1" stop-color="#a42d6f"/></linearGradient><linearGradient id="g25" x1="162.5" y1="95.2" x2="254.4" y2="95.2" href="#P"><stop stop-color="#1be1ff"/><stop offset="1" stop-color="#1ab8ff"/></linearGradient><linearGradient id="g26" x1="167" y1="100.8" x2="193" y2="100.8" href="#P"><stop stop-color="#e34297"/><stop offset="1" stop-color="#a42d6f"/></linearGradient><linearGradient id="g27" x1="186.3" y1="157.5" x2="204.5" y2="157.5" href="#P"><stop stop-color="#e34297"/><stop offset="1" stop-color="#a42d6f"/></linearGradient><linearGradient id="g28" x1="226" y1="208" x2="234.3" y2="208" href="#P"><stop stop-color="#e34297"/><stop offset="1" stop-color="#a42d6f"/></linearGradient><linearGradient id="g29" x1="609.4" y1="-7.1" x2="615.2" y2="489.4" href="#P"><stop stop-color="#46fefe" stop-opacity="0"/><stop offset="1" stop-color="#46fefe" stop-opacity="1"/></linearGradient></defs><style>.a{fill:url(#g1)}.b{fill:url(#g2)}.c{fill:url(#g3)}.d{fill:url(#g4)}.e{fill:url(#g5)}.f{fill:#46fefe}.g{fill:url(#g6)}.h{fill:url(#g7)}.i{fill:url(#g8)}.j{fill:#fff}.k{fill:url(#g9)}.l{fill:url(#g10)}.m{fill:none;stroke:#fff;stroke-linecap:round;stroke-width:2}.n{fill:url(#g11)}.o{fill:url(#g12)}.p{fill:url(#g13)}.q{fill:url(#g14)}.r{fill:url(#g15)}.s{fill:url(#g16)}.t{fill:url(#g17)}.u{fill:url(#g18)}.v{fill:url(#g19)}.w{fill:url(#g20)}.x{fill:url(#g21)}.y{fill:url(#g22)}.z{fill:url(#g23)}.A{fill:url(#g24)}.B{fill:url(#g25)}.C{fill:url(#g26)}.D{fill:url(#g27)}.E{fill:url(#g28)}.F{fill:none;stroke:#fff;stroke-width:2}.G{opacity:.3;fill:url(#g29)}</style><g clip-path="url(#cp1)"><path class="a" d="m34.7 433v67.6h309.7v-67.6z"/><path class="b" d="m344.4 466.4l34.2 34.2h-34.2z"/><path class="c" d="m34.7 466.4l-34.2 34.2h34.2z"/><path class="d" d="m194.9 473.6v-0.2l-0.1 0.1-0.1-0.1v0.2l-34 34h34 0.2 34z"/><path class="e" d="m344.4 433c0 8-69.3 14.5-154.8 14.5-85.6 0-154.9-6.5-154.9-14.5 0-7.9 69.3-14.4 154.9-14.4 85.5 0 154.8 6.5 154.8 14.4z"/><path class="f" d="m339.9 433c0 7.8-67.3 14.1-150.3 14.1-83 0-150.3-6.3-150.3-14.1 0-7.7 67.3-14 150.3-14 83 0 150.3 6.3 150.3 14z"/><path class="g" d="m336.6 433c0 7.6-65.8 13.8-147 13.8-81.3 0-147.1-6.2-147.1-13.8 0-7.5 65.8-13.7 147.1-13.7 81.2 0 147 6.2 147 13.7z"/><path class="f" d="m333.6 433c0 7.5-64.5 13.5-144 13.5-79.6 0-144-6-144-13.5 0-7.4 64.4-13.4 144-13.4 79.5 0 144 6 144 13.4z"/><path class="h" d="m207.4 105.8c8.3 8.1 5.8 17.9 2.8 22.4-4.3 6.6-17 10.6-17 10.6 0 0-6.8 10.7-12.8 16.4-6.8 6.4-19 12.2-19 12.2l-24.9 47.1c0 0-2.4 20.3-3.6 26.4-0.6 3.2-9.2 7.5-9.2 7.5 0 0-16.5-13-15.5-16.8 1-3.8 12.8-16.5 12.8-16.5l23.5-68.4c0 0 21.5-29.4 40-42.1 3.7-2.5 14.8-6.6 22.9 1.2z"/><path class="i" d="m196.9 132.3c-6.3 3.5-14.2 1.2-17.7-5-3.5-6.3-1.3-14.2 5-17.7 6.2-3.6 14.2-1.3 17.7 4.9 3.5 6.3 1.3 14.2-5 17.8z"/><path class="j" d="m193.4 126.1c-2.8 1.6-6.5 0.6-8.1-2.3-1.6-2.9-0.5-6.5 2.3-8.1 2.9-1.6 6.5-0.6 8.1 2.3 1.6 2.9 0.6 6.5-2.3 8.1z"/><path class="k" d="m156.4 168.1c-4.4 2.5-9.9 0.9-12.4-3.5-2.4-4.4-0.9-9.9 3.5-12.4 4.4-2.4 10-0.9 12.4 3.5 2.5 4.4 0.9 10-3.5 12.4z"/><path class="j" d="m154 163.8c-2 1.1-4.5 0.4-5.7-1.6-1.1-2-0.4-4.5 1.6-5.7 2-1.1 4.6-0.4 5.7 1.6 1.1 2 0.4 4.6-1.6 5.7z"/><path class="l" d="m131.2 216.4c-2 1.1-4.5 0.4-5.7-1.6-1.1-2-0.4-4.6 1.6-5.7 2.1-1.1 4.6-0.4 5.7 1.6 1.1 2 0.4 4.5-1.6 5.7z"/><path class="j" d="m130.1 214.4c-0.9 0.5-2.1 0.2-2.6-0.7-0.5-1-0.2-2.1 0.8-2.6 0.9-0.6 2-0.2 2.5 0.7 0.6 0.9 0.2 2.1-0.7 2.6z"/><path class="m" d="m190.5 120.9l-38.5 39.3-22.8 52.5"/><path class="n" d="m170 70.4c3.3-11-8.1-19.5-9.5-30-1.8-12.8 2.6-28.1 21.6-32.3 6.7-1.5 19.5 0.1 26.4 7.8 6.5 7.5 7.7 23.2 7.8 27.8 0.2 5.7 0.6 19.3-4.3 21.9-3.5 1.8-11.7-1-11.7-1 0 0-5.1 7.9-6.3 10.8-3.2 8 4.6 16 4.6 16 0 0 15.3 17.2 20.2 27.1 1.1 2.4 3.5 4.1 2.4 10.2-0.6 3.3-3.5 6.5-3.5 6.5 0 0 3.7 54.5-1.8 84.2-0.6 3 16.1 24.2 20.6 44.5 2 8.7 7.5 35 7.5 35 0 0 3.9 6.5 4.5 9 1.3 4.7 0 13.5 0 13.5l12 84.2c0 0 10.1 9.7 18.8 13.8 5.8 2.7 24.7 7 24.7 7 0 0 3.1 1.6 2.9 3.9-0.2 2.1-2.6 2.7-2.6 2.7h-59.9c0 0-3.1-0.9-3.6-3.1-0.7-3.7 5.2-14.2 5.2-14.2 0 0-18.8-42.8-24.2-58-4.1-11.2-4.7-32.7-2.8-47.7 0.4-2.9-26.7-27.3-26.7-27.3 0 0-6.8 14.9-16.5 22.8-2.1 1.7-0.1 11.9-2.9 15.2-3.1 3.8-9.3 5.3-11.7 7.9-13.9 14.8-49.4 57.1-49.4 57.1 0 0 1.4 30 4.1 39.4 0.6 2.1 12.2 5.4 12.2 5.4 0 0 2.1 0.6 1.3 1.6-1.6 1.9-18.9 0-18.9 0 0 0-17-25.8-22.4-34.6-1.9-3.1-7.7-10.1-4.4-14.1 2.3-2.9 14.5-0.5 14.5-0.5 0 0 12.1-40.3 22.4-55.2 7.1-10.3 25.4-23.2 25.4-23.2l10.6-69.2c0 0-4.6-8.6-4.5-11.7 0.5-21.2 16.1-34.8 15.5-47.2-0.6-12.8-14.1-32.5-14.5-49.5-0.4-21.5 12.4-41.7 16.9-56.5z"/><path class="o" d="m200.7 217.5c0 11.4-9.2 20.7-20.6 20.7-11.4 0-20.6-9.3-20.6-20.7 0-11.4 9.2-20.6 20.6-20.6 11.4 0 20.6 9.2 20.6 20.6z"/><path class="j" d="m189.6 217.5c0 5.3-4.2 9.6-9.5 9.6-5.3 0-9.5-4.3-9.5-9.6 0-5.2 4.2-9.5 9.5-9.5 5.3 0 9.5 4.3 9.5 9.5z"/><path class="p" d="m171.6 310.9c0 6.8-5.4 12.2-12.1 12.2-6.8 0-12.2-5.4-12.2-12.2 0-6.7 5.4-12.1 12.2-12.1 6.7 0 12.1 5.4 12.1 12.1z"/><path class="j" d="m165 310.9c0 3.1-2.5 5.6-5.5 5.6-3.1 0-5.6-2.5-5.6-5.6 0-3 2.5-5.5 5.6-5.5 3 0 5.5 2.5 5.5 5.5z"/><path class="q" d="m245.5 310.9c0 6.8-5.5 12.2-12.2 12.2-6.7 0-12.2-5.4-12.2-12.2 0-6.7 5.5-12.1 12.2-12.1 6.7 0 12.2 5.4 12.2 12.1z"/><path class="j" d="m238.9 310.9c0 3.1-2.5 5.6-5.6 5.6-3.1 0-5.6-2.5-5.6-5.6 0-3 2.5-5.5 5.6-5.5 3.1 0 5.6 2.5 5.6 5.5z"/><path class="r" d="m83.5 386.2c0 4.1-3.3 7.4-7.4 7.4-4.1 0-7.4-3.3-7.4-7.4 0-4.1 3.3-7.4 7.4-7.4 4.1 0 7.4 3.3 7.4 7.4z"/><path class="j" d="m79.5 386.2c0 1.8-1.5 3.4-3.4 3.4-1.9 0-3.4-1.6-3.4-3.4 0-1.9 1.5-3.4 3.4-3.4 1.9 0 3.4 1.5 3.4 3.4z"/><path class="s" d="m114.2 434.1c0 4.1-3.3 7.4-7.4 7.4-4.1 0-7.4-3.3-7.4-7.4 0-4.1 3.3-7.4 7.4-7.4 4.1 0 7.4 3.3 7.4 7.4z"/><path class="j" d="m110.2 434.1c0 1.9-1.5 3.4-3.4 3.4-1.8 0-3.4-1.5-3.4-3.4 0-1.9 1.6-3.4 3.4-3.4 1.9 0 3.4 1.5 3.4 3.4z"/><path class="t" d="m300.1 434.1c0 4.1-3.4 7.4-7.5 7.4-4.1 0-7.4-3.3-7.4-7.4 0-4.1 3.3-7.4 7.4-7.4 4.1 0 7.5 3.3 7.5 7.4z"/><path class="j" d="m296 434.1c0 1.9-1.5 3.4-3.4 3.4-1.8 0-3.4-1.5-3.4-3.4 0-1.9 1.6-3.4 3.4-3.4 1.9 0 3.4 1.5 3.4 3.4z"/><path class="u" d="m250.5 434.1c0 4.1-3.4 7.4-7.5 7.4-4.1 0-7.4-3.3-7.4-7.4 0-4.1 3.3-7.4 7.4-7.4 4.1 0 7.5 3.3 7.5 7.4z"/><path class="j" d="m246.4 434.1c0 1.9-1.5 3.4-3.4 3.4-1.8 0-3.4-1.5-3.4-3.4 0-1.9 1.6-3.4 3.4-3.4 1.9 0 3.4 1.5 3.4 3.4z"/><path class="v" d="m111.5 383.2c0 3.5-2.8 6.4-6.3 6.4-3.5 0-6.3-2.9-6.3-6.4 0-3.4 2.8-6.3 6.3-6.3 3.5 0 6.3 2.9 6.3 6.3z"/><path class="j" d="m108.1 383.2c0 1.6-1.3 2.9-2.9 2.9-1.6 0-2.9-1.3-2.9-2.9 0-1.5 1.3-2.8 2.9-2.8 1.6 0 2.9 1.3 2.9 2.8z"/><path class="w" d="m258.1 407.8c0 3.5-2.9 6.3-6.3 6.3-3.5 0-6.3-2.8-6.3-6.3 0-3.5 2.8-6.3 6.3-6.3 3.4 0 6.3 2.8 6.3 6.3z"/><path class="j" d="m254.7 407.8c0 1.6-1.3 2.9-2.9 2.9-1.6 0-2.9-1.3-2.9-2.9 0-1.6 1.3-2.9 2.9-2.9 1.6 0 2.9 1.3 2.9 2.9z"/><path class="x" d="m174.3 96.2c11-3.6 18.4 3.2 21 8 3.9 6.9 1.5 19.9 1.5 19.9 0 0 6.3 11 8.5 19 2.5 9 2 22.5 2 22.5l30 44c0 0 15.8 10.7 16.7 14 1.6 5.7-2.2 23.5-2.2 23.5 0 0-17.3-2.9-20.5-7.7-2.2-3.3-0.8-15.8-0.8-15.8l-49.5-52.7c0 0-15.9-32.7-18.5-55-0.5-4.5 1-16.2 11.8-19.7z"/><path class="y" d="m193 113.8c0 7.2-5.8 13-13 13-7.2 0-13-5.8-13-13 0-7.2 5.8-13 13-13 7.2 0 13 5.8 13 13z"/><path class="j" d="m186 113.8c0 3.3-2.7 5.9-6 5.9-3.3 0-5.9-2.6-5.9-5.9 0-3.3 2.6-6 5.9-6 3.3 0 6 2.7 6 6z"/><path class="z" d="m204.5 166.6c0 5-4 9.1-9.1 9.1-5 0-9.1-4.1-9.1-9.1 0-5 4.1-9.1 9.1-9.1 5.1 0 9.1 4.1 9.1 9.1z"/><path class="j" d="m199.6 166.6c0 2.3-1.9 4.2-4.2 4.2-2.3 0-4.1-1.9-4.1-4.2 0-2.3 1.8-4.2 4.1-4.2 2.3 0 4.2 1.9 4.2 4.2z"/><path class="A" d="m234.3 212.2c0 2.3-1.9 4.1-4.2 4.1-2.3 0-4.1-1.8-4.1-4.1 0-2.3 1.8-4.2 4.1-4.2 2.3 0 4.2 1.9 4.2 4.2z"/><path class="j" d="m232 212.2c0 1-0.8 1.9-1.9 1.9-1 0-1.9-0.9-1.9-1.9 0-1.1 0.9-1.9 1.9-1.9 1.1 0 1.9 0.8 1.9 1.9z"/><path class="m" d="m180 113.8l15.4 52.8 34.7 45.6"/><path class="B" d="m174.3 96.2c11-3.6 18.4 3.2 21 8 3.9 6.9 1.5 19.9 1.5 19.9 0 0 6.3 11 8.5 19 2.5 9 2 22.5 2 22.5l30 44c0 0 15.8 10.7 16.7 14 1.6 5.7-2.2 23.5-2.2 23.5 0 0-17.3-2.9-20.5-7.7-2.2-3.3-0.8-15.8-0.8-15.8l-49.5-52.7c0 0-15.9-32.7-18.5-55-0.5-4.5 1-16.2 11.8-19.7z"/><path class="C" d="m193 113.8c0 7.2-5.8 13-13 13-7.2 0-13-5.8-13-13 0-7.2 5.8-13 13-13 7.2 0 13 5.8 13 13z"/><path class="j" d="m186 113.8c0 3.3-2.7 5.9-6 5.9-3.3 0-5.9-2.6-5.9-5.9 0-3.3 2.6-6 5.9-6 3.3 0 6 2.7 6 6z"/><path class="D" d="m204.5 166.6c0 5-4 9.1-9.1 9.1-5 0-9.1-4.1-9.1-9.1 0-5 4.1-9.1 9.1-9.1 5.1 0 9.1 4.1 9.1 9.1z"/><path class="j" d="m199.6 166.6c0 2.3-1.9 4.2-4.2 4.2-2.3 0-4.1-1.9-4.1-4.2 0-2.3 1.8-4.2 4.1-4.2 2.3 0 4.2 1.9 4.2 4.2z"/><path class="E" d="m234.3 212.2c0 2.3-1.9 4.1-4.2 4.1-2.3 0-4.1-1.8-4.1-4.1 0-2.3 1.8-4.2 4.1-4.2 2.3 0 4.2 1.9 4.2 4.2z"/><path class="j" d="m232 212.2c0 1-0.8 1.9-1.9 1.9-1 0-1.9-0.9-1.9-1.9 0-1.1 0.9-1.9 1.9-1.9 1.1 0 1.9 0.8 1.9 1.9z"/><path class="m" d="m180 113.8l15.4 52.8 34.7 45.6"/><path class="m" d="m153.3 23.4c0 0 9.2 37.5 7.9 45.7-2.8 17-10.6 43.6-10.1 58.5 1 29.2 29 89.9 29 89.9l-20.6 93.4-54.3 72.3-29.1 3 30.7 47.9"/><path fill-rule="evenodd" class="j" d="m193.5 33.1c0.3 0.3 0.3 0.7 0.1 1l-2.7 3.9c-0.2 0.4-0.7 0.5-1 0.3l-2.2-1.2c-0.5-0.2-1.1 0.1-1.2 0.6l-0.5 2.9c0 0.4-0.4 0.7-0.8 0.7h-4.7c-0.4 0-0.8-0.3-0.8-0.7l-0.5-2.7c-0.1-0.5-0.7-0.8-1.2-0.6l-2.3 1.2c-0.4 0.1-0.8 0-1-0.3l-2.9-4c-0.2-0.3-0.1-0.8 0.2-1l2.3-2.2c0.4-0.4 0.4-0.9 0-1.2l-2.4-2.3c-0.3-0.3-0.3-0.8-0.1-1.1l2.7-3.9c0.2-0.3 0.6-0.4 1-0.3l2.8 0.9c0.5 0.2 1-0.1 1.1-0.7l0.3-2.3c0.1-0.4 0.4-0.7 0.8-0.7h5c0.4 0 0.8 0.4 0.8 0.8l0.2 2.5c0 0.5 0.5 0.9 1 0.8l2.9-0.9c0.4-0.1 0.8 0 0.9 0.3l2.3 3.8c0.2 0.4 0.2 0.8-0.1 1l-2.1 2.2c-0.3 0.4-0.3 0.9 0 1.2zm-5.9-2.7c0-2.7-2.2-4.9-4.8-4.9-2.7 0-4.9 2.2-4.9 4.9 0 2.7 2.2 4.8 4.9 4.8 2.6 0 4.8-2.1 4.8-4.8z"/><path fill-rule="evenodd" class="j" d="m200.1 45.8c0.2 0.1 0.2 0.4 0.1 0.6l-1.5 2.1c-0.1 0.2-0.4 0.3-0.6 0.1l-1.2-0.6c-0.3-0.1-0.6 0-0.7 0.4l-0.2 1.5c0 0.3-0.2 0.4-0.5 0.4h-2.6c-0.2 0-0.4-0.1-0.4-0.4l-0.3-1.4c0-0.3-0.4-0.5-0.7-0.4l-1.3 0.7c-0.2 0-0.4 0-0.5-0.2l-1.6-2.2c-0.1-0.2-0.1-0.4 0.1-0.6l1.3-1.2c0.2-0.2 0.2-0.5 0-0.7l-1.3-1.2c-0.2-0.2-0.2-0.5-0.1-0.6l1.5-2.2c0.1-0.2 0.3-0.2 0.5-0.2l1.6 0.5c0.3 0.1 0.5-0.1 0.6-0.3l0.2-1.3c0-0.2 0.2-0.4 0.4-0.4h2.8c0.2 0 0.4 0.2 0.4 0.4l0.1 1.4c0 0.3 0.3 0.5 0.6 0.4l1.6-0.5c0.2 0 0.4 0.1 0.5 0.2l1.3 2.1c0.1 0.2 0.1 0.5-0.1 0.6l-1.1 1.2c-0.2 0.2-0.2 0.5 0 0.7zm-3.3-1.5c0-1.5-1.2-2.7-2.7-2.7-1.5 0-2.7 1.2-2.7 2.7 0 1.5 1.2 2.7 2.7 2.7 1.5 0 2.7-1.2 2.7-2.7z"/><path class="F" d="m292.6 434.1h-49.6l8.8-26.3-18.5-96.9-53.2-93.4"/><path class="G" d="m336.6 437.5h-291v-493.1h291z"/></g></svg>