<svg version="1.2" xmlns="http://www.w3.org/2000/svg" viewBox="0 0 2324 3484" width="2324" height="3484"><style>.a{fill:#8f6951}.b{fill:#7d5b47}.c{fill:#f2b4a2}.d{fill:#edf0fa}.e{opacity:.1;mix-blend-mode:multiply}.f{fill:#fac5b6}.g{fill:#bec6eb}.h{fill:#8490c7}.i{fill:#c2f3ff}.j{fill:#dbe2ff}.k{opacity:.4;fill:#fff}.l{fill:#574031}.m{fill:#555e8a}.n{fill:#e3a998}.o{fill:#626c9e}.p{fill:#d19c8c}.q{fill:#fff}.r{fill:#a82d2d}.s{fill:#fa4444}.t{fill:#ffabb0}.u{fill:#443b61}.v{fill:none;stroke:#443b61;stroke-linecap:round;stroke-linejoin:round;stroke-width:8}.w{opacity:.1;fill:#fff}.x{fill:#785844}.y{fill:none;stroke:#fff;stroke-width:11.8}.z{fill:none;stroke:#fff;stroke-width:12.8}.A{fill:none;stroke:#fff;stroke-width:10.5}</style><path class="a" d="m1782.4 145.6c0 0 201.2 151.7 245.2 483.3 44 331.5 32 847.5 232 1323.5 200 476-93.8 745.3-658.9 670.7-565.1-74.7-785.4-433.4-715.2-1104 70.1-670.7 58.4-921.6 58.4-921.6z"/><path class="b" d="m1853.8 707.4c0 0-4.9 158.3 41.1 405.8 46 247.4 324.1 1121.6 26.7 1309.3-297.5 187.7-982.7-8-975.6-497.4 7.1-489.4 65.5-1019.2 65.5-1019.2z"/><path class="c" d="m358.7 919.9l-188.1-38.3 64.2-315.5 188.2 38.3z"/><path class="d" d="m393.6 1684h-6.4c-74.7 0-146.8-32.7-203.1-92.2-67-70.7-103.8-172.1-98.4-271.4 8.2-152.1 37.8-454.4 75.2-620.2l296.5 66.9c-29 128.5-59.2 403.4-68.2 569.7-0.9 17.2 5.8 32.4 11.7 41.1 110.3-12 539.6-66.7 832.3-217.8l139.5 270.1c-390.8 201.8-949 251.2-972.6 253.3z"/><path class="e" d="m1233.2 1160.1c-48.9 25.3-101.7 47.8-156.1 67.9-39.2 68.2-70.8 160-170.2 256-158.1 152.6-651.7 164.1-651.7 164.1 41 23.4 86 35.9 132 35.9h6.4l6.5-0.5c23.6-2.1 557.2-31.7 972.6-253.3z"/><path class="c" d="m3.9 528.4c-5.3 22.3 8.7 45 31 50.3l173.8 41.4c22.4 5.3 45-8.6 50.3-31 5.4-22.4-8.6-45-30.9-50.3l-173.8-41.4c-22.4-5.3-45 8.6-50.4 31z"/><path class="f" d="m603.2 442.6c-5.8-26.1-32-42.7-58.1-36.9l-115.1 25.7c-26.2 5.9-42.8 32-36.9 58.1 5.8 26.2 32 42.8 58.1 37l115.1-25.8c26.2-5.8 42.8-31.9 36.9-58.1z"/><path class="c" d="m407 378.5c73.7 45.5 96.5 142 51.1 215.7-45.5 73.7-142.1 96.5-215.7 51.1-73.7-45.5-54.6-137.1-9.1-210.7 45.5-73.7 100.1-101.6 173.7-56.1z"/><path class="g" d="m413 223.4c0-17.6 14.4-32 32-32h76.2c17.7 0 32 14.4 32 32v418.3c0 17.7-14.3 32-32 32h-76.2c-17.6 0-32-14.3-32-32z"/><path class="g" d="m478.1 989.9c-135.4 0-244.8-109.5-244.8-244.9 0-135.4 109.4-244.8 244.8-244.8 135.4 0 244.9 109.4 244.9 244.8 0 135.4-109.5 244.9-244.9 244.9z"/><path class="h" d="m478.1 936.7c-105.9 0-191.6-85.7-191.6-191.7 0-105.9 85.7-191.6 191.6-191.6 106 0 191.7 85.7 191.7 191.6 0 106-85.7 191.7-191.7 191.7z"/><path class="i" d="m290.2 707.4c-2.4 12.2-3.7 24.8-3.7 37.6 0 105.9 85.8 191.7 191.6 191.7 105.9 0 191.7-85.8 191.7-191.7 0-12.8-1.3-25.4-3.8-37.6z"/><path class="j" d="m384.4 191.2c0-14.9 12.1-27 27-27h143.5c14.9 0 27 12.1 27 27v0.4c0 15-12.1 27-27 27h-143.5c-14.9 0-27-12-27-27z"/><path class="k" d="m344.6 800.5c-18.5 0-33.4-15-33.4-33.4 0-18.5 14.9-33.4 33.4-33.4 18.5 0 33.4 14.9 33.4 33.4 0 18.4-14.9 33.4-33.4 33.4z"/><path class="k" d="m509.9 903.7c-18.4 0-33.4-14.9-33.4-33.4 0-18.5 15-33.4 33.4-33.4 18.5 0 33.5 14.9 33.5 33.4 0 18.5-15 33.4-33.5 33.4z"/><path class="k" d="m434.7 848.4c-12 0-21.7-9.7-21.7-21.6 0-12 9.7-21.6 21.7-21.6 11.9 0 21.6 9.6 21.6 21.6 0 11.9-9.7 21.6-21.6 21.6z"/><path class="k" d="m531.6 812.4c-12 0-21.7-9.6-21.7-21.6 0-11.9 9.7-21.6 21.7-21.6 11.9 0 21.6 9.7 21.6 21.6 0 12-9.7 21.6-21.6 21.6z"/><path class="k" d="m463.2 764.6c-9.2 0-16.7-7.5-16.7-16.8 0-9.2 7.5-16.7 16.7-16.7 9.3 0 16.8 7.5 16.8 16.7 0 9.3-7.5 16.8-16.8 16.8z"/><path class="k" d="m598.6 775.8c-9.2 0-16.7-7.5-16.7-16.7 0-9.3 7.5-16.8 16.7-16.8 9.3 0 16.8 7.5 16.8 16.8 0 9.2-7.5 16.7-16.8 16.7z"/><path class="f" d="m244.9 366.3c-2.4 26.5 17.3 50.2 43.8 52.6l170.1 15.3c26.5 2.4 50.1-17.3 52.5-43.8 2.4-26.4-17.3-50.1-43.8-52.5l-170.1-15.4c-26.5-2.4-50.1 17.3-52.5 43.8z"/><path class="c" d="m427.3 382.8c-1.5 16 10.4 30.2 26.3 31.6 16 1.5 30.2-10.4 31.7-26.3 1.4-16-10.5-30.2-26.4-31.6-16-1.5-30.2 10.4-31.6 26.3z"/><path class="f" d="m156.4 525c-6.2 25.9 10 52.1 35.8 58.2l166.2 39.6c25.8 6.1 52.1-10 58.2-35.9 6.2-25.8-10-52-35.8-58.2l-166.2-39.5c-25.8-6.2-52 9.9-58.2 35.8z"/><path class="c" d="m334.6 567.4c-3.8 15.6 6 31.4 21.5 35.1 15.6 3.7 31.4-6 35.1-21.6 3.7-15.6-6-31.4-21.6-35.1-15.6-3.7-31.3 6-35 21.6z"/><path class="f" d="m178 457.1c-2.4 26.5 17.3 50.1 43.8 52.5l170.1 15.4c26.5 2.4 50.1-17.3 52.5-43.8 2.4-26.5-17.3-50.1-43.8-52.5l-170.1-15.4c-26.5-2.4-50.1 17.3-52.5 43.8z"/><path class="c" d="m360.4 473.6c-1.5 16 10.4 30.2 26.3 31.6 16 1.5 30.2-10.4 31.6-26.3 1.5-16-10.4-30.2-26.3-31.6-16-1.5-30.2 10.4-31.6 26.3z"/><path class="l" d="m900.3 3484c-82.4-907.8 206.1-1086.3 180.6-1296.7-25.5-210.5-136.6-364.9-76.6-683.4 59.7-316.8 311.1-411 428.1-411h24.2c117 0 370.4 94.2 436.8 411 66.8 318.5-40.9 472.9-62 683.4-21 210.4 271.3 388.9 208.2 1296.7z"/><path class="m" d="m1185.2 1136.2c0 0 139.4-144.4 466.8-43.3l-16.6 98.8-442.2 40.9z"/><path class="h" d="m1969.1 2630c-66.6-221.6-149.2-327.3-137.7-442.7 21.1-210.5 128.8-364.9 62-683.4-66.4-316.8-319.8-411-436.8-411h-24.2c-117 0-368.4 94.2-428.1 411-60 318.5 51.1 472.9 76.6 683.4 14.9 123-77.4 235.1-140.3 488.3 253.4 57.4 659.5 105.2 1028.5-45.6z"/><path class="e" d="m1573.4 1900.9c0 14.5-109.1-26.9-243.7-26.9-134.5 0-243.6 41.4-243.6 26.9 0-14.6 109.1-79.5 243.6-79.5 134.6 0 243.7 64.9 243.7 79.5z"/><path class="n" d="m1652 1152.2c-73.2-42.6-146.3-59.3-195.4-59.3h-24.2c-59 0-152.3 24.1-237.9 88.6 29 169.3 127.2 337.6 127.2 337.6 201.6-154.7 330.3-366.8 330.3-366.9z"/><path class="o" d="m1418.3 1555.5c-30-64.9-96.6-36.4-96.6-36.4 0 0 290.8-237.4 330.3-426.2 0 0 74.9 164.5-233.7 462.6z"/><path class="o" d="m1321.7 1519.1c0 0-50.3-30.9-78.3 25.7 0 0-91.2-261.3-58.2-408.6 0 0 58.7 270 136.5 382.9z"/><path class="c" d="m1564.1 1185.4l-208.1 146.4c-34.4 24.3-82.1 1.8-85.4-40.2l-8-103.9-2.2-407.7 281.7-20.9 44.7 375.4c2.3 19.9-6.4 39.4-22.7 50.9z"/><path class="p" d="m1542.1 759.1l-281.7 20.9 2.2 407.7v0.1c119.1-9.6 229.7-61.2 313.6-142.2z"/><path class="d" d="m1217.2 1934.7c-9.1-371-44.9-730.2-45.3-735-74.9 64.1-140.7 161.6-167.6 304.2-60 318.5 51.1 472.9 76.6 683.4 25.5 210.4-263 388.9-180.6 1296.7h306.2c0 0 19.8-1175.7 10.7-1549.3z"/><path class="e" d="m1219.5 2168.5c-0.2-93.1-0.9-173.8-2.3-233.8-7.3-296.7-31.6-585.7-41.3-692.1q-4.2-17.2-8.9-33.9c0 0-141.3 259.4-148.1 466.4 0 0 106.4 30.6 109.7 76.3 0 0-50.7 43.4-109.5 170.6q0.1 0.3 0.1 0.6c6.2 4.6 123.3 93.2 199.4 257.6 0 0 0.3-4.1 0.9-11.7z"/><path class="q" d="m1219.6 2176.8c0 0 48.1-588.9-47.7-985.1 0 0-130.7 222.2-137 427.4 0 0 98.4 58.6 101.5 105.2 0 0-47 30-101.5 142 0 0 112.4 121.1 184.7 310.5z"/><path class="d" d="m1831.4 2187.3c21.1-210.5 128.8-364.9 62-683.4-38.5-183.9-140.1-292.7-241.4-351.7 0 0-105 244.9-139.2 366.9-45.8 163.1-68 226.2-84.1 452.5-19.3 273.2-5.9 1512.4-5.9 1512.4h616.8c63.1-907.8-229.2-1086.3-208.2-1296.7z"/><path class="e" d="m2003.6 2776.6l-55.6-107c-12.9-24.9-7.7-54.3 10.6-73.4-64.5-198.8-138.1-299.6-127.2-408.9 6-59.7 18.9-115 32.9-170.7l-130.4 186.7c-23.9 34.1-73.4 36.6-100.6 5.1l-63.1-73.2c-18.4-21.4-48.8-28.1-74.5-16.4l-73.6 33.2c-5.1 249.7-4.2 649.7-2.4 946.3l34.6 42.4c20.8 25.4 57.4 30.9 84.7 12.8l443.3-294.4c21.3-14.2 31.5-39.2 27.6-63.3-0.3-1.5-0.6-2.9-0.9-4.4-1.2-5-2.9-10-5.4-14.8z"/><path class="a" d="m1916.4 2852.9l-351.7 234c-34.9 23.2-82.4 13.7-105.6-21.2l-359.9-541c-23.2-34.8-13.6-82.4 21.2-105.6l351.8-234c34.9-23.2 82.4-13.6 105.6 21.3l359.9 540.9c23.2 34.9 13.6 82.4-21.3 105.6z"/><path class="e" d="m1942.1 2755c-0.1 17.9-8.9 35.5-24.8 46.2l-367.6 244.5c-25.5 17-60.3 10-77.3-15.6l-365.6-549.5c-7.8-11.7-10.5-25.3-8.7-38.3-15.2 24.6-15.9 56.9 1.1 82.4l359.9 541c23.2 34.9 70.7 44.4 105.6 21.2l351.7-234c32.4-21.5 42.9-64 25.7-97.9z"/><path class="f" d="m1514.8 2787l-96.6-165.9 223-129.9 96.7 166z"/><path class="d" d="m1617.2 2780.7l-176.4-247.6c108.3-77.2 392.9-343.2 511.8-462.3 40.8-40.9 55.3-62.7 60.3-72.4-20-50.6-162.4-385.1-484-564.4l148.1-265.5c440 245.4 610.8 695.6 624.4 733.1 68 181.8-78.3 328.5-133.6 383.9-101.1 101.3-413.4 397.4-550.6 495.2z"/><path class="f" d="m1238.4 2588.4c-8.6 22.6 2.9 48 25.5 56.6l99.4 37.6c22.6 8.6 48-2.9 56.6-25.5 8.5-22.5-3-48-25.5-56.6l-99.5-37.6c-22.5-8.5-48 2.9-56.5 25.5z"/><path class="f" d="m1327.3 2619.4c68.5-37.3 154.3-12 191.6 56.6 37.3 68.5 12 154.3-56.5 191.6-68.5 37.3-154.3 12-191.6-56.5-37.3-68.5-12-154.3 56.5-191.7z"/><path class="f" d="m1281.1 2926.1c9.3 17.1 30.9 23.4 47.9 14.1l108.3-59c17.1-9.2 23.5-30.8 14.2-47.9-9.3-17-30.9-23.4-47.9-14.1l-108.4 59c-17 9.3-23.4 30.8-14.1 47.9z"/><path class="f" d="m1229.4 2873.8c9.3 17.1 30.9 23.4 47.9 14.2l108.3-59c17.1-9.3 23.5-30.9 14.2-47.9-9.3-17.1-30.9-23.4-47.9-14.2l-108.4 59c-17 9.3-23.4 30.9-14.1 47.9z"/><path class="f" d="m1193.5 2813c9.2 17 30.8 23.4 47.9 14.1l108.3-59c17-9.3 23.4-30.8 14.1-47.9-9.3-17-30.8-23.4-47.9-14.1l-108.3 59c-17.1 9.3-23.4 30.8-14.1 47.9z"/><path class="f" d="m1170.8 2744.9c9.3 17 30.9 23.4 47.9 14.1l108.3-59c17.1-9.3 23.5-30.8 14.2-47.9-9.3-17-30.9-23.4-47.9-14.1l-108.4 59c-17 9.3-23.4 30.8-14.1 47.9z"/><path class="e" d="m1426.4 2205.2c121.9-211.5 281.3-248.4 281.3-248.4-38.5-116.8-110.8-181.3-110.8-181.3 78.5-108.2 194-110.2 194-110.2-21.8-229.9-101.2-467.7-101.2-467.7l-24.3-4c-36.7 53.2-68.1 106.8-95.2 160.1-22.9 59.6-44.9 120.7-57.4 165.4-45.8 163.1-68 226.2-84.1 452.5-3.1 44.4-5.4 114.7-7 200.8 2.6 21.2 4.7 32.8 4.7 32.8z"/><path class="q" d="m1675.1 1152.2c0 0 75.2 224.8 95.8 451.1 0 0-109.3 21-183.7 142 0 0 68.5 52.6 104.9 163.1 0 0-151 63.2-266.4 294.7 0 0-92.2-507.5 226.3-1050.9z"/><path class="f" d="m1275.7 1115.7c-225.2-22.2-391.4-224.6-369.2-449.8l16.7-168.9c24.8-251.9 251.2-437.6 503.1-412.8 251.9 24.8 437.7 251.2 412.9 503.1l-7.1 71.9c-27.5 278.5-277.8 484-556.4 456.5z"/><path class="e" d="m1426.3 84.2c-202.1-19.9-387.7 95.8-466 272.4 3 1 6.2 1.8 9.6 2 58.1 2.9 162.4 51.4 280-2.1 160.8-73.4 479.1-15.8 447.5 54.6-31.5 70.3-70.4 332.1 70.2 367 13.6 3.4 25.8 4.1 37 2.8 13.9-38.5 23.3-79.3 27.5-121.7l7.1-71.9c24.8-251.9-161-478.3-412.9-503.1z"/><path class="r" d="m1096.8 783.9c-21-2.1-37.1 17.5-31.9 37.9 17.7 71.1 78.5 126.6 155.5 134.2 77.9 7.7 149-35.9 179.8-103.3 8.4-18.3-4.8-39.4-24.9-41.4z"/><path class="s" d="m1220.4 956c38 3.8 74.3-4.7 105.1-22.2-26.7-22.9-60.5-38.2-98.3-41.9-38-3.8-74.3 4.7-105.1 22.2 26.8 22.9 60.6 38.2 98.3 41.9z"/><path class="q" d="m1082.6 786c0 28.3 21.4 52.7 50.1 55.6l196.6 19.3c28.6 2.9 54.3-16.9 59.9-44.6-4-2.7-8.7-4.5-13.9-5l-278.5-27.4c-5.1-0.5-9.9 0.3-14.2 2.1z"/><path class="c" d="m1231.4 693.2c63.8 6.3 67-25.2 67-25.2 1.2 40.6-49.5 46.2-68.9 44.3-19.4-1.9-68-17.3-58.9-56.9 0 0-3 31.5 60.8 37.8z"/><path class="t" d="m1048.6 673.2c-2.6 26.8-31.5 45.9-64.4 42.6-33-3.2-57.6-27.6-54.9-54.4 2.6-26.8 31.5-45.9 64.4-42.7 33 3.3 57.5 27.6 54.9 54.5z"/><path class="t" d="m1587 716.9c-2.9 28.9-35.3 49.3-72.4 45.7-37.1-3.7-64.8-30.1-62-58.9 2.9-28.9 35.2-49.3 72.3-45.7 37.1 3.7 64.9 30 62.1 58.9z"/><path class="u" d="m1488.1 552.5c-2.6 27.1-17.1 47.9-32.3 46.4-15.2-1.5-25.3-24.7-22.7-51.8 2.7-27.2 17.2-47.9 32.4-46.4 15.2 1.5 25.3 24.7 22.6 51.8z"/><path class="v" d="m1456.8 588.5l59.1-9.7"/><path class="u" d="m1092.1 513.5c-2.7 27.1-17.1 47.9-32.3 46.4-15.2-1.5-25.4-24.7-22.7-51.9 2.7-27.1 17.2-47.9 32.3-46.4 15.2 1.5 25.4 24.7 22.7 51.9z"/><path class="v" d="m1061.5 541.8l-53.4-13"/><path class="a" d="m937.7 321.2c-2.2 19.3 12.7 36.4 32.2 37.4 58.1 2.9 181.9 1 299.4-52.5 160.9-73.3 459.7 34.6 428.1 105-31.5 70.3-70.4 332.1 70.2 367 140.7 34.9 147-207.2 147-207.2 0 0 58.1-423.8-327.8-537.7-362.7-107-625.1 77.5-649.1 288z"/><path class="w" d="m1162.3 78.6c58.6 40.5 144.5 66.1 240.5 66.1 90.3 0 171.9-22.7 230-59.3-15.8-6.3-32.3-12.2-49.9-17.3-165.5-48.9-310-36.9-420.6 10.5z"/><path class="b" d="m969.9 358.6c58.1 2.9 181.9 1 299.4-52.5 147.7-67.4 411.7 18.2 429.4 87.1 0.5-181.9-310.2-214.6-578-119.6-148.9 52.9-139-74.3-139-74.3l-2 0.9c-22.7 37.9-37.2 78.9-42 121-2.2 19.3 12.7 36.4 32.2 37.4z"/><path class="b" d="m1686.9 441.2c5.4-10 9-20 10.5-30.1-3.5 7.8-7.1 18.1-10.5 30.1z"/><path class="f" d="m1987.5 703.6c-7.2 73.6-72.8 127.4-146.4 120.2-73.6-7.3-127.4-72.9-120.2-146.5 7.3-73.6 72.8-127.4 146.5-120.1 73.6 7.2 127.4 72.8 120.1 146.4z"/><path class="n" d="m1863.5 596.2c-41.8-4.1-79.9 19.7-96 56.1 30.1 8.6 50 21.7 48.7 34.4-1.2 12.7-23 21.7-54 24.2 9.4 35.3 42.5 58.1 83.9 62.2 52 5.1 97.3-21.3 102.4-73.4 5.1-52-32.9-98.4-85-103.5z"/><path class="x" d="m1016.4 382.5c7.9-7.6 17.2-13.4 27.3-18.1 10.2-4.3 21.5-7 33.1-6.9 5.9-0.3 11.7 0.8 17.6 1.8 2.8 0.8 5.7 1.7 8.5 2.8 2.8 1 5.1 2.9 7.6 4.5 9.7 6.7 16.7 16.4 20.5 27.2l-1.2 1c-5.5-2.3-9.8-5.3-14.3-7.8-4.7-2.1-8.6-5-13.1-6.6-8.5-4.1-16.8-8.7-26.5-10.1-9.5-1.5-19.7-0.8-29.6 1.7-9.9 2.4-19.7 6.4-28.8 11.7z"/><path class="x" d="m1415.4 421.8c6-10.1 15.5-17 26-21.8 10.6-4.9 23-4.8 34.4-3.2 11.5 1.6 22.6 5.9 31.6 12.5 4.8 3 8.5 7.3 12.5 11 3.8 4 6.8 8.5 10.1 12.8l-1.3 1c-4.1-3.4-7.9-7.1-12.1-10.1-4.4-2.8-8.4-6-13.2-7.8-9-4.7-18.9-6.7-28.5-6.6-9.8 0-18.8 3.5-28.3 5.5-9.6 2.2-19.2 5.2-30.2 7.9z"/><path class="y" d="m976 424.5c-6.3 1.1-11.6 6.2-13.6 13.1-13.5 45.6-16.9 128.5-2.2 141.1 16 13.8 166.9 35.3 194.7 16.2 21.9-15.1 25.1-96.5 25.4-128.9 0.1-8.4-4.3-15.9-11.1-19-27.3-12.2-102.1-39.7-193.2-22.5z"/><path class="z" d="m1353.6 461.7c-7.5 1-13.6 6-15.9 12.9-15.2 45.4-17.7 128.4 0 141.3 19.3 14.2 199.2 38.5 231.9 19.9 25.8-14.7 28.1-96.3 27.9-128.7 0-8.4-5.4-16-13.6-19.2-32.8-12.8-122.3-41.7-230.3-26.2z"/><path class="z" d="m1179.5 501.4c0 0 64.6-38.8 149 14.7"/><path class="A" d="m1598.8 513.8l243.3 43.3"/><path class="z" d="m959 450.8l-26-13.2"/></svg>