<svg version="1.2" xmlns="http://www.w3.org/2000/svg" viewBox="0 0 802 812" width="802" height="812"><defs><linearGradient id="P" gradientUnits="userSpaceOnUse"/><linearGradient id="g1" x1="443.9" y1="628.9" x2="443.9" y2="746.1" href="#P"><stop stop-color="#2979ff" stop-opacity="0"/><stop offset="1" stop-color="#00e1ff" stop-opacity="1"/></linearGradient><linearGradient id="g2" x1="-678.8" y1="209.1" x2="-678.8" y2="101.6" href="#P"><stop stop-color="#2979ff" stop-opacity="0"/><stop offset="1" stop-color="#00e1ff" stop-opacity="1"/></linearGradient><linearGradient id="g3" x1="1483.1" y1="315.3" x2="1483.1" y2="555.5" href="#P"><stop stop-color="#2979ff" stop-opacity="0"/><stop offset="1" stop-color="#00e1ff" stop-opacity="1"/></linearGradient><linearGradient id="g4" x1="-478.8" y1="682.3" x2="-478.8" y2="600.5" href="#P"><stop stop-color="#2979ff" stop-opacity="0"/><stop offset="1" stop-color="#00e1ff" stop-opacity="1"/></linearGradient><linearGradient id="g5" x1="-136.9" y1="710.4" x2="-136.9" y2="628.6" href="#P"><stop stop-color="#2979ff" stop-opacity="0"/><stop offset="1" stop-color="#00e1ff" stop-opacity="1"/></linearGradient><linearGradient id="g6" x1="-115.9" y1="551.8" x2="-115.9" y2="469.9" href="#P"><stop stop-color="#2979ff" stop-opacity="0"/><stop offset="1" stop-color="#00e1ff" stop-opacity="1"/></linearGradient><linearGradient id="g7" x1="-442.1" y1="463.6" x2="-442.1" y2="381.8" href="#P"><stop stop-color="#2979ff" stop-opacity="0"/><stop offset="1" stop-color="#00e1ff" stop-opacity="1"/></linearGradient><linearGradient id="g8" x1="-448.6" y1="183.3" x2="-448.6" y2="101.5" href="#P"><stop stop-color="#2979ff" stop-opacity="0"/><stop offset="1" stop-color="#00e1ff" stop-opacity="1"/></linearGradient><linearGradient id="g9" x1="-210.2" y1="84.8" x2="-210.2" y2="3" href="#P"><stop stop-color="#2979ff" stop-opacity="0"/><stop offset="1" stop-color="#00e1ff" stop-opacity="1"/></linearGradient><linearGradient id="g10" x1="73.8" y1="571.5" x2="73.8" y2="526.7" href="#P"><stop stop-color="#2979ff" stop-opacity="0"/><stop offset="1" stop-color="#00e1ff" stop-opacity="1"/></linearGradient><linearGradient id="g11" x1="353.2" y1="325.1" x2="353.2" y2="280.3" href="#P"><stop stop-color="#2979ff" stop-opacity="0"/><stop offset="1" stop-color="#00e1ff" stop-opacity="1"/></linearGradient><linearGradient id="g12" x1="301.1" y1="608" x2="301.1" y2="563.1" href="#P"><stop stop-color="#2979ff" stop-opacity="0"/><stop offset="1" stop-color="#00e1ff" stop-opacity="1"/></linearGradient><linearGradient id="g13" x1="4.9" y1="351.3" x2="4.9" y2="306.4" href="#P"><stop stop-color="#2979ff" stop-opacity="0"/><stop offset="1" stop-color="#00e1ff" stop-opacity="1"/></linearGradient><linearGradient id="g14" x1="387.2" y1="462.1" x2="372.3" y2="487.3" href="#P"><stop stop-color="#ff7eb3"/><stop offset="1" stop-color="#ff758c"/></linearGradient><linearGradient id="g15" x1="393.3" y1="460.9" x2="373.9" y2="493.8" href="#P"><stop stop-color="#ff7eb3"/><stop offset="1" stop-color="#ff758c"/></linearGradient><linearGradient id="g16" x1="422.3" y1="314.9" x2="407.5" y2="340.2" href="#P"><stop stop-color="#ff7eb3"/><stop offset="1" stop-color="#ff758c"/></linearGradient><linearGradient id="g17" x1="428.4" y1="313.7" x2="409.1" y2="346.6" href="#P"><stop stop-color="#ff7eb3"/><stop offset="1" stop-color="#ff758c"/></linearGradient><linearGradient id="g18" x1="422.3" y1="36.5" x2="407.5" y2="61.7" href="#P"><stop stop-color="#ff7eb3"/><stop offset="1" stop-color="#ff758c"/></linearGradient><linearGradient id="g19" x1="428.4" y1="35.3" x2="409.1" y2="68.2" href="#P"><stop stop-color="#ff7eb3"/><stop offset="1" stop-color="#ff758c"/></linearGradient><linearGradient id="g20" x1="458.8" y1="178" x2="444" y2="203.3" href="#P"><stop stop-color="#ff7eb3"/><stop offset="1" stop-color="#ff758c"/></linearGradient><linearGradient id="g21" x1="464.9" y1="176.8" x2="445.6" y2="209.7" href="#P"><stop stop-color="#ff7eb3"/><stop offset="1" stop-color="#ff758c"/></linearGradient><linearGradient id="g22" x1="213.6" y1="238.9" x2="179.5" y2="296.7" href="#P"><stop stop-color="#ff7eb3"/><stop offset="1" stop-color="#ff758c"/></linearGradient><linearGradient id="g23" x1="225.2" y1="236.6" x2="182.6" y2="309" href="#P"><stop stop-color="#ff7eb3"/><stop offset="1" stop-color="#ff758c"/></linearGradient><linearGradient id="g24" x1="213.6" y1="380.8" x2="179.5" y2="438.6" href="#P"><stop stop-color="#ff7eb3"/><stop offset="1" stop-color="#ff758c"/></linearGradient><linearGradient id="g25" x1="225.2" y1="378.5" x2="182.6" y2="450.8" href="#P"><stop stop-color="#ff7eb3"/><stop offset="1" stop-color="#ff758c"/></linearGradient><linearGradient id="g26" x1="686" y1="238.9" x2="652" y2="296.7" href="#P"><stop stop-color="#ff7eb3"/><stop offset="1" stop-color="#ff758c"/></linearGradient><linearGradient id="g27" x1="697.6" y1="236.6" x2="655" y2="309" href="#P"><stop stop-color="#ff7eb3"/><stop offset="1" stop-color="#ff758c"/></linearGradient><linearGradient id="g28" x1="686" y1="380.8" x2="652" y2="438.6" href="#P"><stop stop-color="#ff7eb3"/><stop offset="1" stop-color="#ff758c"/></linearGradient><linearGradient id="g29" x1="697.6" y1="378.5" x2="655" y2="450.8" href="#P"><stop stop-color="#ff7eb3"/><stop offset="1" stop-color="#ff758c"/></linearGradient></defs><style>tspan{white-space:pre}.a{opacity:.1;fill:none;stroke:#00edff;stroke-width:3}.b{opacity:.2;fill:#00edff}.c{opacity:.3;fill:#00edff}.d{fill:none;stroke:#00edff;stroke-dasharray:6,6}.e{fill:url(#g1)}.f{opacity:.5;fill:#00edff}.g{fill:#00cfff}.h{fill:#00e1ff}.i{opacity:.6;fill:none;stroke:#00edff;stroke-width:4}.j{opacity:.4;fill:none;stroke:#00edff;stroke-width:3}.k{opacity:.2;fill:none;stroke:#00edff;stroke-width:2}.l{opacity:.1;fill:none;stroke:#00edff;stroke-width:2}.m{opacity:.6;fill:#00edff}.n{fill:url(#g2)}.o{fill:url(#g3)}.p{fill:url(#g4)}.q{fill:url(#g5)}.r{fill:url(#g6)}.s{fill:url(#g7)}.t{opacity:.2;fill:url(#g8)}.u{opacity:.2;fill:url(#g9)}.v{fill:url(#g10)}.w{opacity:.5;fill:url(#g11)}.x{fill:url(#g12)}.y{opacity:.5;fill:url(#g13)}.z{opacity:.8;fill:none;stroke:#00edff;stroke-dasharray:6}.A{fill:#00edff}.B{fill:url(#g14)}.C{fill:url(#g15)}.D{font-size: 10px;fill: #ffffff;font-weight: bold;font-family: "Oblik"}.E{fill:url(#g16)}.F{fill:url(#g17)}.G{fill:url(#g18)}.H{fill:url(#g19)}.I{fill:url(#g20)}.J{fill:url(#g21)}.K{fill:url(#g22)}.L{fill:url(#g23)}.M{font-size: 12px;line-height: 10px;fill: #ffffff;font-weight: 500;font-family: "Poppins-Medium", "Poppins"}.N{fill:url(#g24)}.O{fill:url(#g25)}.P{fill:url(#g26)}.Q{fill:url(#g27)}.R{fill:url(#g28)}.S{fill:url(#g29)}</style><path class="a" d="m799.7 747.8c0-34.4-178.6-62.3-398.8-62.3-220.3 0-398.9 27.9-398.9 62.3 0 34.5 178.6 62.4 398.9 62.4 220.2 0 398.8-27.9 398.8-62.4z"/><path class="b" d="m761.5 741.6c0-28-161.5-50.7-360.6-50.7-199.2 0-360.6 22.7-360.6 50.7 0 28.1 161.4 50.8 360.6 50.8 199.1 0 360.6-22.7 360.6-50.8z"/><path class="c" d="m672.7 735.1c0-21.1-121.7-38.2-271.8-38.2-150.2 0-271.8 17.1-271.8 38.2 0 21.2 121.6 38.3 271.8 38.3 150.1 0 271.8-17.1 271.8-38.3z"/><g style="opacity:.5"><path class="d" d="m713.5 739.6c0-24.7-139.4-44.8-311.3-44.8-172 0-311.4 20.1-311.4 44.8 0 24.7 139.4 44.8 311.4 44.8 171.9 0 311.3-20.1 311.3-44.8z"/></g><g style="opacity:.5"><path class="d" d="m634.3 734.1c0-16.8-104.5-30.4-233.4-30.4-128.9 0-233.4 13.6-233.4 30.4 0 16.8 104.5 30.4 233.4 30.4 128.9 0 233.4-13.6 233.4-30.4z"/></g><path class="e" d="m758.4 473.8h-715.1l169.5 248.2h376.1z"/><path class="f" d="m605.8 733.3c0-14.2-91.8-25.8-204.9-25.8-113.2 0-205 11.6-205 25.8 0 14.2 91.8 25.7 205 25.7 113.1 0 204.9-11.5 204.9-25.7z"/><path class="g" d="m572.6 722c-29.4-6.9-95.2-11.6-171.7-11.6-76.6 0-142.4 4.7-171.8 11.6h-16.3v8c0 10.8 84.2 19.6 188.1 19.6 103.8 0 188-8.8 188-19.6v-8z"/><path class="h" d="m588.9 722c0-10.8-84.2-19.6-188-19.6-103.9 0-188.1 8.8-188.1 19.6 0 10.8 84.2 19.6 188.1 19.6 103.8 0 188-8.8 188-19.6z"/><path class="i" d="m604.9 702.4c0-15.9-91.3-28.8-204-28.8-112.7 0-204.1 12.9-204.1 28.8 0 15.8 91.4 28.7 204.1 28.7 112.7 0 204-12.9 204-28.7z"/><path class="j" d="m630.8 666.1c0-17.9-103-32.4-229.9-32.4-127 0-229.9 14.5-229.9 32.4 0 17.9 102.9 32.4 229.9 32.4 126.9 0 229.9-14.5 229.9-32.4z"/><path class="k" d="m658.3 624.1c0-20-115.2-36.3-257.4-36.3-142.2 0-257.5 16.3-257.5 36.3 0 20 115.3 36.2 257.5 36.2 142.2 0 257.4-16.2 257.4-36.2z"/><path class="l" d="m688.2 580.9c0-22.3-128.6-40.4-287.3-40.4-158.7 0-287.4 18.1-287.4 40.4 0 22.4 128.7 40.5 287.4 40.5 158.7 0 287.3-18.1 287.3-40.5z"/><path class="m" d="m524.6 347.4c0.8-23-3-60.6-10-77.2-7-16.6-0.4-40.8-7.2-65.7-6.8-24.9-1.9-27.8-9.2-54.2-7.2-26.4-24-28.7-36.7-34-12.8-5.3-21.1-11.7-30-17-9-5.3-7.9-14.3-7.9-14.3 3.8-1.7 6.2-8.3 6-12.1-0.3-3.8 2.1-10.8 2.1-10.8 2.1 1.2 4.2-0.7 4.5-3.7 0.2-2.9 2.7-9.3 2.5-11.9-0.2-2.5-3.6-1.2-3.6-1.2 0 0-0.2-11.3 0-18.5 0.2-7.3-2.8-12.4-11.9-19.4-8.4-6.4-19.3-6-21-5.9-1.7-0.1-12.6-0.5-21 5.9-9.2 7-12.1 12.1-11.9 19.4 0.2 7.2 0 18.5 0 18.5 0 0-3.4-1.3-3.6 1.2-0.3 2.6 2.3 9 2.5 11.9 0.2 3 2.4 4.9 4.5 3.7 0 0 2.3 7 2.1 10.8-0.2 3.8 2.1 10.4 6 12.1 0 0 1 9-7.9 14.3-8.9 5.3-17.2 11.7-30 17-12.7 5.3-29.5 7.6-36.8 34-7.2 26.4-2.3 29.3-9.1 54.2-6.8 24.9-0.2 49.1-7.2 65.7-7.1 16.6-10.9 54.2-10 77.2 0.8 22.9-4.1 39.3-0.1 48.9 3.9 9.5 26.4 37.8 29.2 32.5 2.8-5.3-5.1-4.9-9.8-15.5-4.7-10.6-8.1-21.7-4-22.8 4-1 6.8 14.5 9.8 15.3 2.9 0.9 3.8-4.6 2.5-12.5-1.3-7.9 0.9-17.4-2.8-24-3.6-6.6-5.9-13.6 0-23.2 6-9.6 17.9-57.6 18.5-73.1 0.7-15.6 13.2-54.5 13.2-54.5 0 0 7.9 57.7 4.9 94.4-3 36.8-14 75.1-8.9 95.1 5.1 20 14.9 98 14.7 108-0.3 10-8.3 59.3-1.3 83.9 7 24.7 22.7 70 22.9 83.4 0.3 13.4 0.5 18.7-4.6 22.3-5.1 3.6-19.6 8.1-17.7 16 1.9 7.8 33.6 11.4 40 5.3 6.4-6.2 9.1-15.3 7.4-24.1-1.7-8.7 1.5-12.5-1.5-21.4-2.9-9-4.2-28.7-3.6-39.1 0.7-10.5 6.2-45.8 4.1-61.9-2.2-16.2-8.3-47.4-5.1-58.9 3.1-11.5 7.4-42.5 9.5-67.4 1.8-20.7 4.3-58.9 5.1-71.1 0.8 12.2 3.3 50.4 5 71.1 2.2 24.9 6.4 55.9 9.6 67.4 3.2 11.5-3 42.7-5.1 58.9-2.1 16.1 3.4 51.4 4 61.9 0.7 10.4-0.6 30.1-3.6 39.1-2.9 8.9 0.2 12.7-1.5 21.4-1.7 8.8 1.1 17.9 7.5 24.1 6.4 6.1 38 2.5 40-5.3 1.9-7.9-12.6-12.4-17.7-16-5.1-3.6-4.9-8.9-4.7-22.3 0.2-13.4 16-58.7 23-83.4 7-24.6-1.1-73.9-1.3-83.9-0.2-10 9.6-88 14.7-108 5.1-20-6-58.3-8.9-95.1-3-36.7 4.8-94.4 4.8-94.4 0 0 12.6 38.9 13.2 54.5 0.7 15.5 12.6 63.5 18.5 73.1 6 9.6 3.6 16.6 0 23.2-3.6 6.6-1.5 16.1-2.7 24-1.3 7.9-0.5 13.4 2.5 12.5 3-0.8 5.7-16.3 9.8-15.3 4 1.1 0.6 12.2-4.1 22.8-4.6 10.6-12.5 10.2-9.7 15.5 2.7 5.3 25.3-23 29.2-32.5 4-9.6-1-26-0.1-48.9z"/><path class="n" d="m337.9 200.6l2.4 17.4c0.3 2.4 7.9 58.5 4.9 95.3-1.1 13.8-3.3 27.6-5.5 40.9-3.3 21.1-6.5 41-3.5 52.8 5.1 20.2 15 98.2 14.8 109.1-0.1 2.4-0.6 6.7-1.2 12.5-1.9 18.2-5.5 52-0.3 70.3 2 7.1 4.8 15.9 7.7 25.3 7.5 24.1 15.3 48.9 15.4 59l0.1 1c0.2 13.3 0.3 19.9-6.4 24.7-1.5 1-3.6 2.1-5.7 3.2-4.2 2.1-11.1 5.7-10.4 8.5 0.4 0.8 4 3.1 12.2 4.5 10.5 1.8 19.4 0.6 21.1-1.1 5.3-5.2 7.7-13 6.3-20.4-0.9-4.4-0.6-7.7-0.4-10.7 0.2-3.4 0.4-6.1-1-10.3-3.3-9.9-4.4-30.3-3.8-40.6 0.2-2.9 0.7-7.5 1.4-13.3 1.7-14.6 4.2-36.5 2.7-47.8-0.5-3.4-1.1-7.6-1.8-12-2.6-17.2-5.9-38.6-3.2-48.5 3-10.7 7.2-40.6 9.4-66.6 1.7-20 4.1-56.4 5.1-71.1h8c0.7 11.4 3.2 50.2 5 71.1 2.3 26 6.5 55.9 9.5 66.6 2.7 9.9-0.6 31.3-3.3 48.5-0.6 4.4-1.3 8.6-1.7 12-1.5 11.3 1 33.2 2.7 47.8 0.6 5.8 1.2 10.4 1.3 13.3 0.7 10.3-0.5 30.7-3.8 40.6-1.4 4.2-1.2 6.9-0.9 10.3 0.2 3 0.4 6.3-0.4 10.7-1.5 7.4 0.9 15.2 6.3 20.4 1.7 1.7 10.6 2.9 21.1 1.1 8.2-1.4 11.7-3.7 12.2-4.6 0.7-2.7-6.3-6.3-10.4-8.4-2.2-1.1-4.2-2.2-5.7-3.2-6.7-4.8-6.6-11.4-6.4-24.7v-1c0.2-10 7.9-34.9 15.4-59 3-9.4 5.7-18.2 7.7-25.3 5.2-18.3 1.7-52.1-0.3-70.3-0.6-5.8-1-10.1-1.1-12.5-0.2-10.9 9.6-88.9 14.8-109.1 3-11.8-0.2-31.7-3.6-52.8-2.1-13.3-4.3-27.1-5.4-40.9-3-36.8 4.6-92.9 4.9-95.3l2.4-17.4 5.3 16.7c0.6 1.6 12.8 39.6 13.4 55.5 0.6 15.3 12.5 62.5 17.9 71.2 7.1 11.3 4 20.1 0.1 27.2-1.7 3.2-1.8 7.9-1.8 12.9 0 3.2 0 6.6-0.5 9.8q-0.1 0.5-0.1 0.9c2-4.8 4.7-9.4 9.5-8.1 1.7 0.4 3.1 1.6 4 3.3 0.7 1.5 2.5 5.3-3.5 20.4 4.6-5.8 8.7-12 10.2-15.7 1.9-4.5 1.3-11.8 0.6-21-0.7-7.7-1.4-16.3-1-26.5 0.8-22.8-3.1-59.9-9.7-75.4-3.8-9.2-3.9-20.1-4-31.6-0.1-11.2-0.2-22.8-3.4-34.6-3.4-12.6-4-19.9-4.5-27-0.5-7.3-1.1-14.2-4.6-27.2-5.7-20.8-17.5-25.1-28.8-29.3-2-0.7-3.9-1.4-5.7-2.1-9.6-4-16.9-8.7-23.3-12.8-2.5-1.6-4.8-3.1-7.2-4.5-11-6.6-9.8-17.7-9.8-18.2l0.3-2.2 2.1-0.9c1.7-0.8 3.7-5.4 3.6-8.3-0.3-4.4 2-11.5 2.3-12.3l1.6-4.7 2.7 1.6c0.2-1.7 0.8-3.7 1.3-5.8 0.2-0.5 0.4-1.3 0.6-2l-2.9 1.1-0.1-5.7c0-0.4-0.2-11.4 0-18.6 0.1-5.2-1.5-9.3-10.4-16.1-7.3-5.6-17.2-5.2-18.3-5.1h-0.2-0.3c-1.1-0.1-10.9-0.5-18.3 5.1-8.9 6.8-10.5 10.9-10.3 16.1 0.2 7.2 0 18.2 0 18.6l-0.1 5.7-2.9-1.1c0.2 0.7 0.4 1.5 0.5 2 0.6 2.1 1.2 4.1 1.4 5.8l2.7-1.6 1.6 4.7c0.2 0.8 2.5 7.9 2.3 12.3-0.2 2.9 1.8 7.5 3.6 8.3l2.1 0.9 0.2 2.2c0.1 0.5 1.3 11.6-9.8 18.2-2.3 1.4-4.7 2.9-7.1 4.5-6.5 4.1-13.8 8.8-23.3 12.8-1.9 0.7-3.8 1.4-5.7 2.1-11.4 4.2-23.1 8.5-28.8 29.3-3.6 13-4.1 19.9-4.6 27.2-0.6 7.1-1.1 14.4-4.6 27-3.2 11.8-3.3 23.4-3.3 34.6-0.1 11.5-0.2 22.4-4.1 31.6-6.5 15.5-10.5 52.6-9.6 75.4 0.3 10.2-0.4 18.9-1 26.5-0.7 9.2-1.3 16.5 0.5 21 1.6 3.7 5.7 9.9 10.3 15.7-6.1-15.1-4.2-18.9-3.5-20.4 0.8-1.7 2.2-2.9 4-3.3 4.7-1.3 7.5 3.3 9.5 8.1q-0.1-0.4-0.1-0.9c-0.6-3.2-0.6-6.6-0.6-9.8 0-5 0-9.7-1.8-12.9-3.9-7.1-6.9-15.9 0.1-27.2 5.4-8.7 17.3-55.9 17.9-71.2 0.7-15.9 12.9-53.9 13.4-55.5z"/><path class="o" d="m337.9 200.6l2.4 17.4c0.3 2.4 7.9 58.5 4.9 95.3-1.1 13.8-3.3 27.6-5.5 40.9-3.3 21.1-6.5 41-3.5 52.8 5.1 20.2 15 98.2 14.8 109.1-0.1 2.4-0.6 6.7-1.2 12.5-1.9 18.2-5.5 52-0.3 70.3 2 7.1 4.8 15.9 7.7 25.3 7.5 24.1 15.3 48.9 15.4 59l0.1 1c0.2 13.3 0.3 19.9-6.4 24.7-1.5 1-3.6 2.1-5.7 3.2-4.2 2.1-11.1 5.7-10.4 8.5 0.4 0.8 4 3.1 12.2 4.5 10.5 1.8 19.4 0.6 21.1-1.1 5.3-5.2 7.7-13 6.3-20.4-0.9-4.4-0.6-7.7-0.4-10.7 0.2-3.4 0.4-6.1-1-10.3-3.3-9.9-4.4-30.3-3.8-40.6 0.2-2.9 0.7-7.5 1.4-13.3 1.7-14.6 4.2-36.5 2.7-47.8-0.5-3.4-1.1-7.6-1.8-12-2.6-17.2-5.9-38.6-3.2-48.5 3-10.7 7.2-40.6 9.4-66.6 1.7-20 4.1-56.4 5.1-71.1h8c0.7 11.4 3.2 50.2 5 71.1 2.3 26 6.5 55.9 9.5 66.6 2.7 9.9-0.6 31.3-3.3 48.5-0.6 4.4-1.3 8.6-1.7 12-1.5 11.3 1 33.2 2.7 47.8 0.6 5.8 1.2 10.4 1.3 13.3 0.7 10.3-0.5 30.7-3.8 40.6-1.4 4.2-1.2 6.9-0.9 10.3 0.2 3 0.4 6.3-0.4 10.7-1.5 7.4 0.9 15.2 6.3 20.4 1.7 1.7 10.6 2.9 21.1 1.1 8.2-1.4 11.7-3.7 12.2-4.6 0.7-2.7-6.3-6.3-10.4-8.4-2.2-1.1-4.2-2.2-5.7-3.2-6.7-4.8-6.6-11.4-6.4-24.7v-1c0.2-10 7.9-34.9 15.4-59 3-9.4 5.7-18.2 7.7-25.3 5.2-18.3 1.7-52.1-0.3-70.3-0.6-5.8-1-10.1-1.1-12.5-0.2-10.9 9.6-88.9 14.8-109.1 3-11.8-0.2-31.7-3.6-52.8-2.1-13.3-4.3-27.1-5.4-40.9-3-36.8 4.6-92.9 4.9-95.3l2.4-17.4 5.3 16.7c0.6 1.6 12.8 39.6 13.4 55.5 0.6 15.3 12.5 62.5 17.9 71.2 7.1 11.3 4 20.1 0.1 27.2-1.7 3.2-1.8 7.9-1.8 12.9 0 3.2 0 6.6-0.5 9.8q-0.1 0.5-0.1 0.9c2-4.8 4.7-9.4 9.5-8.1 1.7 0.4 3.1 1.6 4 3.3 0.7 1.5 2.5 5.3-3.5 20.4 4.6-5.8 8.7-12 10.2-15.7 1.9-4.5 1.3-11.8 0.6-21-0.7-7.7-1.4-16.3-1-26.5 0.8-22.8-3.1-59.9-9.7-75.4-3.8-9.2-3.9-20.1-4-31.6-0.1-11.2-0.2-22.8-3.4-34.6-3.4-12.6-4-19.9-4.5-27-0.5-7.3-1.1-14.2-4.6-27.2-5.7-20.8-17.5-25.1-28.8-29.3-2-0.7-3.9-1.4-5.7-2.1-9.6-4-16.9-8.7-23.3-12.8-2.5-1.6-4.8-3.1-7.2-4.5-11-6.6-9.8-17.7-9.8-18.2l0.3-2.2 2.1-0.9c1.7-0.8 3.7-5.4 3.6-8.3-0.3-4.4 2-11.5 2.3-12.3l1.6-4.7 2.7 1.6c0.2-1.7 0.8-3.7 1.3-5.8 0.2-0.5 0.4-1.3 0.6-2l-2.9 1.1-0.1-5.7c0-0.4-0.2-11.4 0-18.6 0.1-5.2-1.5-9.3-10.4-16.1-7.3-5.6-17.2-5.2-18.3-5.1h-0.2-0.3c-1.1-0.1-10.9-0.5-18.3 5.1-8.9 6.8-10.5 10.9-10.3 16.1 0.2 7.2 0 18.2 0 18.6l-0.1 5.7-2.9-1.1c0.2 0.7 0.4 1.5 0.5 2 0.6 2.1 1.2 4.1 1.4 5.8l2.7-1.6 1.6 4.7c0.2 0.8 2.5 7.9 2.3 12.3-0.2 2.9 1.8 7.5 3.6 8.3l2.1 0.9 0.2 2.2c0.1 0.5 1.3 11.6-9.8 18.2-2.3 1.4-4.7 2.9-7.1 4.5-6.5 4.1-13.8 8.8-23.3 12.8-1.9 0.7-3.8 1.4-5.7 2.1-11.4 4.2-23.1 8.5-28.8 29.3-3.6 13-4.1 19.9-4.6 27.2-0.6 7.1-1.1 14.4-4.6 27-3.2 11.8-3.3 23.4-3.3 34.6-0.1 11.5-0.2 22.4-4.1 31.6-6.5 15.5-10.5 52.6-9.6 75.4 0.3 10.2-0.4 18.9-1 26.5-0.7 9.2-1.3 16.5 0.5 21 1.6 3.7 5.7 9.9 10.3 15.7-6.1-15.1-4.2-18.9-3.5-20.4 0.8-1.7 2.2-2.9 4-3.3 4.7-1.3 7.5 3.3 9.5 8.1q-0.1-0.4-0.1-0.9c-0.6-3.2-0.6-6.6-0.6-9.8 0-5 0-9.7-1.8-12.9-3.9-7.1-6.9-15.9 0.1-27.2 5.4-8.7 17.3-55.9 17.9-71.2 0.7-15.9 12.9-53.9 13.4-55.5z"/><path class="p" d="m226 693.2c-1.7 0-3.2-1.4-3.2-3.2v-88.9c0-1.8 1.5-3.2 3.2-3.2 1.8 0 3.3 1.4 3.3 3.2v88.9c0 1.8-1.5 3.2-3.3 3.2z"/><path class="q" d="m567.9 721.3c-1.8 0-3.2-1.4-3.2-3.2v-88.9c0-1.8 1.4-3.2 3.2-3.2 1.8 0 3.2 1.4 3.2 3.2v88.9c0 1.8-1.4 3.2-3.2 3.2z"/><path class="r" d="m588.9 562.7c-1.8 0-3.2-1.4-3.2-3.2v-88.9c0-1.8 1.4-3.2 3.2-3.2 1.8 0 3.2 1.4 3.2 3.2v88.9c0 1.8-1.4 3.2-3.2 3.2z"/><path class="s" d="m262.7 474.5c-1.8 0-3.2-1.4-3.2-3.2v-88.9c0-1.8 1.4-3.2 3.2-3.2 1.8 0 3.2 1.4 3.2 3.2v88.9c0 1.8-1.4 3.2-3.2 3.2z"/><path class="t" d="m256.2 194.2c-1.7 0-3.2-1.4-3.2-3.2v-88.9c0-1.8 1.5-3.2 3.2-3.2 1.8 0 3.3 1.4 3.3 3.2v88.9c0 1.8-1.5 3.2-3.3 3.2z"/><path class="u" d="m494.6 95.8c-1.8 0-3.2-1.5-3.2-3.2v-88.9c0-1.8 1.4-3.3 3.2-3.3 1.8 0 3.2 1.5 3.2 3.3v88.9c0 1.7-1.4 3.2-3.2 3.2z"/><path class="v" d="m285.3 577.5c-1.8 0-3.2-1.4-3.2-3.2v-45.8c0-1.8 1.4-3.2 3.2-3.2 1.8 0 3.2 1.4 3.2 3.2v45.8c0 1.8-1.4 3.2-3.2 3.2z"/><path class="w" d="m564.7 331.1c-1.8 0-3.2-1.4-3.2-3.2v-45.8c0-1.8 1.4-3.2 3.2-3.2 1.8 0 3.2 1.4 3.2 3.2v45.8c0 1.8-1.4 3.2-3.2 3.2z"/><path class="x" d="m512.6 614c-1.8 0-3.2-1.5-3.2-3.3v-45.7c0-1.8 1.4-3.3 3.2-3.3 1.8 0 3.2 1.5 3.2 3.3v45.7c0 1.8-1.4 3.3-3.2 3.3z"/><path class="y" d="m216.4 357.2c-1.8 0-3.3-1.4-3.3-3.2v-45.8c0-1.7 1.5-3.2 3.3-3.2 1.7 0 3.2 1.5 3.2 3.2v45.8c0 1.8-1.5 3.2-3.2 3.2z"/><path class="z" d="m367.5 466.1l272.4-73.6"/><g style="opacity:.1"><path fill-rule="evenodd" class="A" d="m367 493.6c-15.1 0-27.5-12.4-27.5-27.5 0-15.2 12.4-27.6 27.5-27.6 15.2 0 27.5 12.4 27.5 27.6 0 15.1-12.3 27.5-27.5 27.5zm0-53.6c-14.3 0-26 11.7-26 26.1 0 14.3 11.7 26 26 26 14.4 0 26-11.7 26-26 0-14.4-11.6-26.1-26-26.1z"/></g><g style="opacity:.4"><path fill-rule="evenodd" class="A" d="m367 488.9c-12.6 0-22.9-10.2-22.9-22.8 0-12.7 10.3-22.9 22.9-22.9 12.6 0 22.9 10.2 22.9 22.9 0 12.6-10.3 22.8-22.9 22.8zm0-44.2c-11.8 0-21.4 9.6-21.4 21.4 0 11.7 9.6 21.3 21.4 21.3 11.8 0 21.4-9.6 21.4-21.3 0-11.8-9.6-21.4-21.4-21.4z"/></g><g style="opacity:.8"><path fill-rule="evenodd" class="A" d="m367 484.7c-10.2 0-18.6-8.4-18.6-18.6 0-10.3 8.4-18.7 18.6-18.7 10.3 0 18.7 8.4 18.7 18.7 0 10.2-8.4 18.6-18.7 18.6zm0-35.8c-9.4 0-17.1 7.7-17.1 17.2 0 9.4 7.7 17.1 17.1 17.1 9.5 0 17.2-7.7 17.2-17.1 0-9.5-7.7-17.2-17.2-17.2z"/></g><path class="B" d="m378.2 466.1c0 6.1-5 11.2-11.2 11.2-6.2 0-11.2-5.1-11.2-11.2 0-6.2 5-11.2 11.2-11.2 6.2 0 11.2 5 11.2 11.2z"/><path fill-rule="evenodd" class="C" d="m381.6 466.1c0 8-6.5 14.6-14.6 14.6-8 0-14.6-6.6-14.6-14.6 0-8.1 6.6-14.6 14.6-14.6 8.1 0 14.6 6.5 14.6 14.6zm-1.4 0c0-7.3-5.9-13.2-13.2-13.2-7.3 0-13.2 5.9-13.2 13.2 0 7.2 5.9 13.1 13.2 13.1 7.3 0 13.2-5.9 13.2-13.1z"/><text style="transform:matrix(2,0,0,2,367.509,473.424)" ><tspan x="-4.2" y="0" class="D">D
</tspan></text><path class="z" d="m402.7 318.9l-234.3 73.6"/><g style="opacity:.1"><path fill-rule="evenodd" class="A" d="m402.2 346.4c-15.2 0-27.5-12.3-27.5-27.5 0-15.2 12.3-27.5 27.5-27.5 15.2 0 27.5 12.3 27.5 27.5 0 15.2-12.3 27.5-27.5 27.5zm0-53.5c-14.4 0-26 11.6-26 26 0 14.3 11.6 26 26 26 14.3 0 26-11.7 26-26 0-14.4-11.7-26-26-26z"/></g><g style="opacity:.4"><path fill-rule="evenodd" class="A" d="m402.2 341.8c-12.6 0-22.9-10.3-22.9-22.9 0-12.6 10.3-22.9 22.9-22.9 12.6 0 22.9 10.3 22.9 22.9 0 12.6-10.3 22.9-22.9 22.9zm0-44.3c-11.8 0-21.4 9.6-21.4 21.4 0 11.8 9.6 21.4 21.4 21.4 11.8 0 21.4-9.6 21.4-21.4 0-11.8-9.6-21.4-21.4-21.4z"/></g><g style="opacity:.8"><path fill-rule="evenodd" class="A" d="m402.2 337.5c-10.3 0-18.6-8.3-18.6-18.6 0-10.3 8.3-18.6 18.6-18.6 10.3 0 18.6 8.3 18.6 18.6 0 10.3-8.3 18.6-18.6 18.6zm0-35.7c-9.5 0-17.1 7.6-17.1 17.1 0 9.4 7.6 17.1 17.1 17.1 9.4 0 17.1-7.7 17.1-17.1 0-9.5-7.7-17.1-17.1-17.1z"/></g><path class="E" d="m413.4 318.9c0 6.2-5 11.2-11.2 11.2-6.2 0-11.2-5-11.2-11.2 0-6.2 5-11.2 11.2-11.2 6.2 0 11.2 5 11.2 11.2z"/><path fill-rule="evenodd" class="F" d="m416.8 318.9c0 8.1-6.6 14.6-14.6 14.6-8.1 0-14.6-6.5-14.6-14.6 0-8.1 6.5-14.6 14.6-14.6 8 0 14.6 6.5 14.6 14.6zm-1.4 0c0-7.3-5.9-13.2-13.2-13.2-7.3 0-13.2 5.9-13.2 13.2 0 7.3 5.9 13.2 13.2 13.2 7.3 0 13.2-5.9 13.2-13.2z"/><text style="transform:matrix(2,0,0,2,400.92,326.255)" ><tspan x="-3.7" y="0" class="D">C
</tspan></text><path class="z" d="m165.9 248l236.8-207.5"/><path class="z" d="m439.2 182l200.7 66"/><g style="opacity:.1"><path fill-rule="evenodd" class="A" d="m402.2 68c-15.2 0-27.5-12.4-27.5-27.5 0-15.2 12.3-27.5 27.5-27.5 15.2 0 27.5 12.3 27.5 27.5 0 15.1-12.3 27.5-27.5 27.5zm0-53.5c-14.4 0-26 11.6-26 26 0 14.3 11.6 26 26 26 14.3 0 26-11.7 26-26 0-14.4-11.7-26-26-26z"/></g><g style="opacity:.4"><path fill-rule="evenodd" class="A" d="m402.2 63.3c-12.6 0-22.9-10.2-22.9-22.8 0-12.6 10.3-22.9 22.9-22.9 12.6 0 22.9 10.3 22.9 22.9 0 12.6-10.3 22.8-22.9 22.8zm0-44.2c-11.8 0-21.4 9.6-21.4 21.4 0 11.8 9.6 21.3 21.4 21.3 11.8 0 21.4-9.5 21.4-21.3 0-11.8-9.6-21.4-21.4-21.4z"/></g><g style="opacity:.8"><path fill-rule="evenodd" class="A" d="m402.2 59.1c-10.3 0-18.6-8.4-18.6-18.6 0-10.3 8.3-18.7 18.6-18.7 10.3 0 18.6 8.4 18.6 18.7 0 10.2-8.3 18.6-18.6 18.6zm0-35.8c-9.5 0-17.1 7.7-17.1 17.2 0 9.4 7.6 17.1 17.1 17.1 9.4 0 17.1-7.7 17.1-17.1 0-9.5-7.7-17.2-17.1-17.2z"/></g><path class="G" d="m413.4 40.5c0 6.2-5 11.2-11.2 11.2-6.2 0-11.2-5-11.2-11.2 0-6.2 5-11.2 11.2-11.2 6.2 0 11.2 5 11.2 11.2z"/><path fill-rule="evenodd" class="H" d="m416.8 40.5c0 8-6.6 14.6-14.6 14.6-8.1 0-14.6-6.6-14.6-14.6 0-8.1 6.5-14.6 14.6-14.6 8 0 14.6 6.5 14.6 14.6zm-1.4 0c0-7.3-5.9-13.2-13.2-13.2-7.3 0-13.2 5.9-13.2 13.2 0 7.3 5.9 13.2 13.2 13.2 7.3 0 13.2-5.9 13.2-13.2z"/><text style="transform:matrix(2,0,0,2,402.665,46.794)" ><tspan x="-3.9" y="0" class="D">A
</tspan></text><g style="opacity:.1"><path fill-rule="evenodd" class="A" d="m438.7 209.5c-15.2 0-27.5-12.3-27.5-27.5 0-15.2 12.3-27.5 27.5-27.5 15.2 0 27.5 12.3 27.5 27.5 0 15.2-12.3 27.5-27.5 27.5zm0-53.5c-14.3 0-26 11.7-26 26 0 14.3 11.7 26 26 26 14.4 0 26-11.7 26-26 0-14.3-11.6-26-26-26z"/></g><g style="opacity:.4"><path fill-rule="evenodd" class="A" d="m438.7 204.9c-12.6 0-22.9-10.3-22.9-22.9 0-12.6 10.3-22.9 22.9-22.9 12.6 0 22.9 10.3 22.9 22.9 0 12.6-10.3 22.9-22.9 22.9zm0-44.3c-11.8 0-21.4 9.6-21.4 21.4 0 11.8 9.6 21.4 21.4 21.4 11.8 0 21.4-9.6 21.4-21.4 0-11.8-9.6-21.4-21.4-21.4z"/></g><g style="opacity:.8"><path fill-rule="evenodd" class="A" d="m438.7 200.6c-10.3 0-18.6-8.3-18.6-18.6 0-10.3 8.3-18.6 18.6-18.6 10.3 0 18.6 8.3 18.6 18.6 0 10.3-8.3 18.6-18.6 18.6zm0-35.7c-9.4 0-17.1 7.7-17.1 17.1 0 9.4 7.7 17.1 17.1 17.1 9.5 0 17.1-7.7 17.1-17.1 0-9.4-7.6-17.1-17.1-17.1z"/></g><path class="I" d="m449.9 182c0 6.2-5 11.2-11.2 11.2-6.2 0-11.2-5-11.2-11.2 0-6.2 5-11.2 11.2-11.2 6.2 0 11.2 5 11.2 11.2z"/><path fill-rule="evenodd" class="J" d="m453.3 182c0 8.1-6.5 14.6-14.6 14.6-8 0-14.6-6.5-14.6-14.6 0-8.1 6.6-14.6 14.6-14.6 8.1 0 14.6 6.5 14.6 14.6zm-1.4 0c0-7.3-5.9-13.2-13.2-13.2-7.3 0-13.2 5.9-13.2 13.2 0 7.3 5.9 13.2 13.2 13.2 7.3 0 13.2-5.9 13.2-13.2z"/><text style="transform:matrix(2,0,0,2,439.197,188.759)" ><tspan x="-3.9" y="0" class="D">B
</tspan></text><g style="opacity:.1"><path fill-rule="evenodd" class="A" d="m167.5 299.8c-28.6 0-51.9-23.2-51.9-51.8 0-28.6 23.3-51.9 51.9-51.9 28.6 0 51.8 23.3 51.8 51.9 0 28.6-23.2 51.8-51.8 51.8zm0-100.9c-27.1 0-49.1 22-49.1 49.1 0 27 22 49 49.1 49 27 0 49-22 49-49 0-27.1-22-49.1-49-49.1z"/></g><g style="opacity:.3"><path fill-rule="evenodd" class="A" d="m167.5 293.7c-25.3 0-45.8-20.5-45.8-45.7 0-25.3 20.5-45.8 45.8-45.8 25.2 0 45.7 20.5 45.7 45.8 0 25.2-20.5 45.7-45.7 45.7zm0-88.5c-23.6 0-42.8 19.2-42.8 42.8 0 23.5 19.2 42.7 42.8 42.7 23.5 0 42.7-19.2 42.7-42.7 0-23.6-19.2-42.8-42.7-42.8z"/></g><g style="opacity:.5"><path fill-rule="evenodd" class="A" d="m167.5 287c-21.6 0-39.1-17.5-39.1-39 0-21.6 17.5-39.1 39.1-39.1 21.5 0 39 17.5 39 39.1 0 21.5-17.5 39-39 39zm0-75c-19.9 0-36 16.1-36 36 0 19.8 16.1 35.9 36 35.9 19.8 0 35.9-16.1 35.9-35.9 0-19.9-16.1-36-35.9-36z"/></g><path class="K" d="m193.1 248c0 14.1-11.5 25.6-25.6 25.6-14.2 0-25.7-11.5-25.7-25.6 0-14.2 11.5-25.7 25.7-25.7 14.1 0 25.6 11.5 25.6 25.7z"/><path fill-rule="evenodd" class="L" d="m199.6 248c0 17.7-14.4 32.1-32.1 32.1-17.8 0-32.2-14.4-32.2-32.1 0-17.8 14.4-32.2 32.2-32.2 17.7 0 32.1 14.4 32.1 32.2zm-3.1 0c0-16.1-13-29.1-29-29.1-16.1 0-29.1 13-29.1 29.1 0 16 13 29 29.1 29 16 0 29-13 29-29z"/><text style="transform:matrix(2,0,0,2,165.906,247.96)" ><tspan x="-7.7" y="0" class="M">45
</tspan><tspan x="-4.8" y="10" class="M">%
</tspan></text><g style="opacity:.1"><path fill-rule="evenodd" class="A" d="m167.5 441.7c-28.6 0-51.9-23.3-51.9-51.9 0-28.6 23.3-51.8 51.9-51.8 28.6 0 51.8 23.2 51.8 51.8 0 28.6-23.2 51.9-51.8 51.9zm0-100.9c-27.1 0-49.1 22-49.1 49 0 27.1 22 49 49.1 49 27 0 49-21.9 49-49 0-27-22-49-49-49z"/></g><g style="opacity:.3"><path fill-rule="evenodd" class="A" d="m167.5 435.5c-25.3 0-45.8-20.5-45.8-45.7 0-25.2 20.5-45.7 45.8-45.7 25.2 0 45.7 20.5 45.7 45.7 0 25.2-20.5 45.7-45.7 45.7zm0-88.4c-23.6 0-42.8 19.2-42.8 42.7 0 23.6 19.2 42.7 42.8 42.7 23.5 0 42.7-19.1 42.7-42.7 0-23.5-19.2-42.7-42.7-42.7z"/></g><g style="opacity:.5"><path fill-rule="evenodd" class="A" d="m167.5 428.9c-21.6 0-39.1-17.5-39.1-39.1 0-21.5 17.5-39.1 39.1-39.1 21.5 0 39 17.6 39 39.1 0 21.6-17.5 39.1-39 39.1zm0-75c-19.9 0-36 16.1-36 35.9 0 19.8 16.1 36 36 36 19.8 0 35.9-16.2 35.9-36 0-19.8-16.1-35.9-35.9-35.9z"/></g><path class="N" d="m193.1 389.8c0 14.2-11.5 25.7-25.6 25.7-14.2 0-25.7-11.5-25.7-25.7 0-14.2 11.5-25.7 25.7-25.7 14.1 0 25.6 11.5 25.6 25.7z"/><path fill-rule="evenodd" class="O" d="m199.6 389.8c0 17.8-14.4 32.1-32.1 32.1-17.8 0-32.2-14.3-32.2-32.1 0-17.7 14.4-32.1 32.2-32.1 17.7 0 32.1 14.4 32.1 32.1zm-3.1 0c0-16-13-29-29-29-16.1 0-29.1 13-29.1 29 0 16 13 29 29.1 29 16 0 29-13 29-29z"/><text style="transform:matrix(2,0,0,2,165.906,389.821)" ><tspan x="-7.7" y="0" class="M">80
</tspan><tspan x="-4.8" y="10" class="M">%
</tspan></text><g style="opacity:.1"><path fill-rule="evenodd" class="A" d="m639.9 299.8c-28.6 0-51.8-23.2-51.8-51.8 0-28.6 23.2-51.9 51.8-51.9 28.6 0 51.9 23.3 51.9 51.9 0 28.6-23.3 51.8-51.9 51.8zm0-100.9c-27 0-49 22-49 49.1 0 27 22 49 49 49 27 0 49-22 49-49 0-27.1-22-49.1-49-49.1z"/></g><g style="opacity:.3"><path fill-rule="evenodd" class="A" d="m639.9 293.7c-25.2 0-45.7-20.5-45.7-45.7 0-25.3 20.5-45.8 45.7-45.8 25.2 0 45.7 20.5 45.7 45.8 0 25.2-20.5 45.7-45.7 45.7zm0-88.5c-23.6 0-42.7 19.2-42.7 42.8 0 23.5 19.1 42.7 42.7 42.7 23.6 0 42.7-19.2 42.7-42.7 0-23.6-19.1-42.8-42.7-42.8z"/></g><g style="opacity:.5"><path fill-rule="evenodd" class="A" d="m639.9 287c-21.5 0-39.1-17.5-39.1-39 0-21.6 17.6-39.1 39.1-39.1 21.6 0 39.1 17.5 39.1 39.1 0 21.5-17.5 39-39.1 39zm0-75c-19.8 0-35.9 16.1-35.9 36 0 19.8 16.1 35.9 35.9 35.9 19.8 0 35.9-16.1 35.9-35.9 0-19.9-16.1-36-35.9-36z"/></g><path class="P" d="m665.6 248c0 14.1-11.5 25.6-25.7 25.6-14.2 0-25.7-11.5-25.7-25.6 0-14.2 11.5-25.7 25.7-25.7 14.2 0 25.7 11.5 25.7 25.7z"/><path fill-rule="evenodd" class="Q" d="m672 248c0 17.7-14.3 32.1-32.1 32.1-17.7 0-32.1-14.4-32.1-32.1 0-17.8 14.4-32.2 32.1-32.2 17.8 0 32.1 14.4 32.1 32.2zm-3.1 0c0-16.1-13-29.1-29-29.1-16 0-29 13-29 29.1 0 16 13 29 29 29 16 0 29-13 29-29z"/><text style="transform:matrix(2,0,0,2,639.906,247.96)" ><tspan x="-7.7" y="0" class="M">65
</tspan><tspan x="-4.8" y="10" class="M">%
</tspan></text><g style="opacity:.1"><path fill-rule="evenodd" class="A" d="m639.9 441.7c-28.6 0-51.8-23.3-51.8-51.9 0-28.6 23.2-51.8 51.8-51.8 28.6 0 51.9 23.2 51.9 51.8 0 28.6-23.3 51.9-51.9 51.9zm0-100.9c-27 0-49 22-49 49 0 27.1 22 49 49 49 27 0 49-21.9 49-49 0-27-22-49-49-49z"/></g><g style="opacity:.3"><path fill-rule="evenodd" class="A" d="m639.9 435.5c-25.2 0-45.7-20.5-45.7-45.7 0-25.2 20.5-45.7 45.7-45.7 25.2 0 45.7 20.5 45.7 45.7 0 25.2-20.5 45.7-45.7 45.7zm0-88.4c-23.6 0-42.7 19.2-42.7 42.7 0 23.6 19.1 42.7 42.7 42.7 23.6 0 42.7-19.1 42.7-42.7 0-23.5-19.1-42.7-42.7-42.7z"/></g><g style="opacity:.5"><path fill-rule="evenodd" class="A" d="m639.9 428.9c-21.5 0-39.1-17.5-39.1-39.1 0-21.5 17.6-39.1 39.1-39.1 21.6 0 39.1 17.6 39.1 39.1 0 21.6-17.5 39.1-39.1 39.1zm0-75c-19.8 0-35.9 16.1-35.9 35.9 0 19.8 16.1 36 35.9 36 19.8 0 35.9-16.2 35.9-36 0-19.8-16.1-35.9-35.9-35.9z"/></g><path class="R" d="m665.6 389.8c0 14.2-11.5 25.7-25.7 25.7-14.2 0-25.7-11.5-25.7-25.7 0-14.2 11.5-25.7 25.7-25.7 14.2 0 25.7 11.5 25.7 25.7z"/><path fill-rule="evenodd" class="S" d="m672 389.8c0 17.8-14.3 32.1-32.1 32.1-17.7 0-32.1-14.3-32.1-32.1 0-17.7 14.4-32.1 32.1-32.1 17.8 0 32.1 14.4 32.1 32.1zm-3.1 0c0-16-13-29-29-29-16 0-29 13-29 29 0 16 13 29 29 29 16 0 29-13 29-29z"/><text style="transform:matrix(2,0,0,2,639.906,389.821)" ><tspan x="-5.9" y="0" class="M">15
</tspan><tspan x="-4.8" y="10" class="M">%
</tspan></text></svg>