<svg version="1.2" xmlns="http://www.w3.org/2000/svg" viewBox="0 0 1500 741" width="1500" height="741"><defs><clipPath clipPathUnits="userSpaceOnUse" id="cp1"><path d="m1500 741h-1500v-1000h1500z"/></clipPath><linearGradient id="P" gradientUnits="userSpaceOnUse"/><linearGradient id="g1" x1="939.7" y1="217.9" x2="941.8" y2="286.3" href="#P"><stop stop-color="#d1eaff"/><stop offset="1" stop-color="#88abeb"/></linearGradient><linearGradient id="g2" x1="924.8" y1="-25.7" x2="932.4" y2="47.2" href="#P"><stop stop-color="#d1eaff"/><stop offset="1" stop-color="#88abeb"/></linearGradient><linearGradient id="g3" x1="525" y1="95" x2="525" y2="175.2" href="#P"><stop stop-color="#d1eaff"/><stop offset="1" stop-color="#88abeb"/></linearGradient><linearGradient id="g4" x1="1030.5" y1="79.9" x2="1030.5" y2="208.2" href="#P"><stop stop-color="#705389"/><stop offset=".99" stop-color="#aca6c0"/></linearGradient><linearGradient id="g5" x1="978.7" y1="540.4" x2="978.7" y2="689.6" href="#P"><stop stop-color="#705389"/><stop offset=".99" stop-color="#aca6c0"/></linearGradient><linearGradient id="g6" x1="1266.4" y1="365.6" x2="1266.4" y2="625.4" href="#P"><stop stop-color="#705389"/><stop offset=".99" stop-color="#aca6c0"/></linearGradient><linearGradient id="g7" x1="1561.2" y1="120.8" x2="1561.2" y2="396.7" href="#P"><stop stop-color="#705389"/><stop offset=".99" stop-color="#aca6c0"/></linearGradient><linearGradient id="g8" x1="0" y1="645.5" x2="1500" y2="645.5" href="#P"><stop stop-color="#cac5e0"/><stop offset="1" stop-color="#a39bc9"/></linearGradient></defs><style>.a{fill:url(#g1)}.b{fill:#fff}.c{fill:url(#g2)}.d{fill:#daf0fd}.e{fill:url(#g3)}.f{fill:url(#g4)}.g{fill:#614f70}.h{fill:url(#g5)}.i{fill:url(#g6)}.j{fill:url(#g7)}.k{fill:url(#g8)}.l{fill:#faf5ff}</style><g clip-path="url(#cp1)"><path class="a" d="m1015.8 270.7h-173.5c15.3-16.7 39.1-23.1 59.6-13.7-3.5-8.6-5.4-14.2-4.7-23.4 0.7-9.2 5.9-18.6 14.5-21.9 5.8-2.2 12.2-1.2 17.6 1.8 3.1 1.7 5.9 4 8.1 6.8 5.9 7.6 7.6 17.8 6.7 27.5q0-0.1 0.2-0.7c0.3-1 1-1.8 1.1-2.8 4.4-6.6 13.2-9.8 20.7-7.4 7.5 2.3 13.1 9.9 12.9 17.8 12.1-5.4 32.8 3.4 36.8 16z"/><path class="b" d="m901.9 257c-3.5-8.6-5.4-14.2-4.7-23.4 0.7-9.2 5.9-18.6 14.5-21.9 5.8-2.2 12.2-1.2 17.6 1.8-32.2 1-27.4 43.5-27.4 43.5z"/><path class="b" d="m979 254.7c-17-21.7-34.9-6.9-34.9-6.9q0-0.1 0.2-0.7c0.3-1 1-1.8 1.1-2.8 4.4-6.6 13.2-9.8 20.7-7.4 7.5 2.3 13.1 9.9 12.9 17.8z"/><path class="b" d="m901.9 257c-32.7-8.7-59.6 13.7-59.6 13.7 15.3-16.7 39.1-23.1 59.6-13.7z"/><path class="b" d="m1015.8 270.7c-10.4-15.2-36.8-16-36.8-16 12.1-5.4 32.8 3.4 36.8 16z"/><path class="b" d="m942.5 260.8c-9.1-2.2-18.9-1.5-27.6 1.8 5.3-3.3 10.8-6.3 17-6.5 4.4-0.1 8.1 1.1 10.6 4.7z"/><path class="c" d="m1004.7 46.3h-166.7c4.5-19.8 17.2-40.7 37.2-44.6 20-4 41.9 4.8 53.6 21.4 12.4-6.1 29.9-4.9 43.1-0.8 13.2 4 26 12 32.8 24z"/><path class="d" d="m928.8 23.1c-62.5-37.4-90.8 23.2-90.8 23.2 4.5-19.8 17.2-40.7 37.2-44.6 20-4 41.9 4.8 53.6 21.4z"/><path class="e" d="m657.3 168.3h-280q0 0 0.1 0c5-8.5 12.7-19.2 22.4-21 9.7-1.8 20.1 0.8 27.8 6.9-1.7-18.4 12.1-38.1 28.7-46.2 16.6-8 37-6.4 53.2 2.3 16.2 8.7 28.5 23.9 35.6 40.8q0 0.1 0 0.1c6.6-9.7 19.8-18.2 31.5-17.3 11.7 0.9 22.7 8.3 27.8 18.9-0.6-1.9-0.8-3.8-0.6-5.7 0.8-7.8 7.9-15.1 16-16.4 10-1.6 20.1 4 26.5 11.8 6.5 7.8 7.6 16.3 11 25.8z"/><path class="b" d="m545.1 151.1c-0.9-0.9-29.7-30.1-64.4-34.1-35.3-4.1-53.1 37.2-53.1 37.2-1.7-18.4 12.1-38.1 28.7-46.2 16.6-8 37-6.4 53.2 2.3 16.2 8.7 28.5 23.9 35.6 40.8z"/><path class="b" d="m604.4 152.8c-22.3-19.2-59.3-1.6-59.3-1.6 6.6-9.7 19.8-18.2 31.5-17.3 11.7 0.9 22.7 8.3 27.8 18.9z"/><path class="b" d="m657.3 168.3c0 0-34.2-47.9-52.9-15.5l-0.6-5.7c0.8-7.8 7.9-15.1 16-16.4 10-1.6 20.1 4 26.5 11.8 6.5 7.8 7.6 16.3 11 25.8z"/><path class="b" d="m427.6 154.2c-26.9-13.8-49.1 12.7-50.2 14.1 5-8.5 12.7-19.2 22.4-21 9.7-1.8 20.1 0.8 27.8 6.9z"/><path class="f" d="m822.4 125.7c0 2.6 0 5.5-0.1 8.9q0 1 0 2.2-0.1 4.1-0.2 8.7 0 1.1-0.1 2.2-0.1 4.2-0.3 8.7-0.1 1.1-0.1 2.2-0.2 4.2-0.5 8.7-0.1 1-0.1 2.1-0.3 4.2-0.7 8.6-0.1 1-0.2 2.1-0.3 4.2-0.7 8.5-0.1 1.1-0.2 2.1-0.5 4.2-1 8.4-0.1 1.1-0.3 2.1-0.5 4.2-1.1 8.4-0.1 1-0.3 2c-0.4 2.8-0.9 5.5-1.4 8.3q-0.1 1-0.3 2-0.7 4.1-1.6 8.1-0.2 1-0.4 2-0.9 4.1-1.9 8-0.2 1-0.5 2c-2.5 9.8-5.5 19-9.2 27l-14-38.3-1-2.8-4-10.8-1-2.7-3.9-10.8-1-2.7-4-10.8-1-2.7-3.9-10.8-1-2.7-4-10.8-1-2.7-3.9-10.8-1-2.7-4-10.8-1-2.7-3.9-10.8-1-2.7-4-10.8-0.4-1.2-0.8-2.1v-37.4l80.9 47c0 0 0.1 2.9 0.1 8.1q0 1 0 2.2z"/><path class="g" d="m822.4 125.7l-81-39.4-0.4-0.2 0.4-0.9 0.5-0.9 80.5 39.2q0 1 0 2.2z"/><path class="g" d="m822.3 134.6q0 1 0 2.2l-80.9-39.4v-0.1l0.9-1.7z"/><path class="g" d="m822.1 145.5q0 1.1-0.1 2.2l-79.4-38.6-0.8-0.4 0.4-0.8 0.5-1z"/><path class="g" d="m821.7 156.4q-0.1 1.1-0.1 2.2l-74-36-5.4-2.6 0.9-1.8 3.5 1.7z"/><path class="g" d="m821.1 167.3q-0.1 1-0.1 2.1l-68.5-33.3-9.9-4.9 0.9-1.8 8 4z"/><path class="g" d="m820.3 178q-0.1 1-0.2 2.1l-62.6-30.5-14.5-7.1 0.9-1.8 12.6 6.2z"/><path class="g" d="m819.4 188.6q-0.1 1.1-0.2 2.1l-56.8-27.6-19-9.3 0.9-1.8 17.1 8.4z"/><path class="g" d="m818.2 199.1q-0.1 1.1-0.3 2.1l-50.5-24.6-23.6-11.5 0.9-1.8 21.7 10.6z"/><path class="g" d="m816.8 209.6q-0.1 1-0.3 2l-44.2-21.5-28.1-13.7 0.9-1.8 26.2 12.8z"/><path class="g" d="m815.1 219.9q-0.1 1-0.3 2l-37.5-18.3-32.7-15.9 0.9-1.8 30.8 15z"/><path class="g" d="m813.2 230q-0.2 1-0.4 2l-30.6-14.9-37.2-18.1 0.9-1.8 35.3 17.2z"/><path class="g" d="m810.9 240q-0.2 1-0.5 2l-23.2-11.3-41.8-20.4 0.9-1.8 39.9 19.4z"/><path class="h" d="m741.4 650.3h-57.2c0 0 36.5-113.7 16.2-200.3l62.5 124.4z"/><path class="i" d="m853.9 650.3h-112.5l-4.4-15.8-0.6-2-1.7-6.1-0.6-2-1.7-6.1-0.5-2-1.8-6.1-0.5-2-1.8-6.1-0.5-2-1.7-6.1-0.6-2-1.2-4.4q-0.3-0.9-0.5-1.8-0.3-0.9-0.6-2-0.8-3-1.6-6.1-0.3-1-0.6-2-0.8-3-1.5-6.1-0.3-1-0.5-2-0.8-3-1.5-6.1-0.3-1-0.5-2-0.7-3-1.4-6.1-0.2-1-0.4-2-0.7-3-1.4-6.1-0.2-1-0.4-2-0.6-3.1-1.2-6.1-0.2-1-0.4-2-0.6-3.1-1.2-6.1-0.2-1-0.4-2-0.5-3.1-1-6.1-0.2-1.1-0.4-2-0.5-3.1-1-6.1-0.1-1.1-0.3-2-0.5-3.1-0.9-6.2-0.1-0.9-0.3-2-0.5-3-0.8-6.1-0.2-1-0.3-2-0.4-3-0.8-6.1-0.1-1-0.2-2-0.4-3-0.7-6.1-0.1-1-0.2-2-0.3-3-0.6-6.1-0.1-1-0.2-2-0.3-3-0.5-6.1-0.1-1-0.2-2-0.2-3.1-0.5-6.1 0-1-0.1-2-0.2-3.1-0.4-6.1-0.1-1-0.1-2-0.2-3.1-0.3-6.1 0-1-0.1-2-0.1-3.1-0.2-6.1 0-1-0.1-2-0.1-3.1-0.1-6.2 0-0.9 0-2-0.1-3-0.1-6.1 0-1 0-2 0-3 0-6.1 0-1 0-2 0-3 0.1-6.1 0-1 0-2 0.1-3 0.2-6.1 0-1 0-2 0.1-3.1 0.3-6.1 0-1 0.1-2 0.1-3.1 0.3-6.1 0-1 0.1-2 0.1-3.1 0.4-6.1 0-1 0.1-2 0.2-3.1 0.5-6.1c0-0.7 0.1-1.4 0.1-2q0.3-3.1 0.6-6.1 0-1 0.2-2 0.3-3.1 0.6-6.2 0.1-0.9 0.2-2 0.3-3 0.7-6.1 0.1-1 0.2-2 0.4-3 0.8-6.1 0.1-1 0.3-2 0.4-3 0.8-6.1 0.2-1 0.3-2 0.5-3 0.9-6.1 0.2-1 0.4-2 0.5-3.1 1-6.1 0.2-1 0.3-2 2-11.4 4.4-22.8c2.2-10.2 3.6-16.1 3.6-16.1l15.1 38.9 0.8 2 2.4 6.1 0.7 2 2.4 6.1 0.8 2 2.4 6.1 0.7 2 2.4 6.1 0.8 2 2.3 6.1 0.8 2 2.4 6.2 0.8 2 2.3 6.1 0.8 2 2.4 6.1 0.7 2 2.4 6.1 0.8 2 2.4 6.1 0.7 2 2.4 6.1 0.8 2 2.3 6.1 0.8 2 2.4 6.1 0.8 2 2.3 6.1 0.8 2 2.4 6.1 0.7 2 2.4 6.2 0.8 2 2.4 6.1 0.7 2 2.4 6.1 0.8 2 2.3 6.1 0.8 2 2.4 6.1 0.8 2 2.3 6.1 0.8 2 2.4 6.1 0.7 2 2.4 6.1 0.8 2 2.4 6.1 0.7 2 0.8 2 0.7 4.1 0.3 2 1 6.2 0.4 2 1 6.1 0.3 2 1 6.1 0.4 2 1 6.1 0.3 2 1 6.1 0.3 2 0.9 5.1 0.3 1 0.8 2 2.2 6.1 0.7 2 2.3 6.1 0.7 2 2.2 6.1 0.7 2 2.3 6.1 0.7 2 2.2 6.2 0.8 2 2.2 6.1 0.7 2 2.2 6.1 0.8 2 2.2 6.1 0.7 2 2.2 6.1 0.8 2 2.2 6.1 0.7 2z"/><path class="g" d="m848.1 634.5h-111.1l-0.6-2h111z"/><path class="g" d="m845.2 626.4h-110.5l-0.6-2h110.3z"/><path class="g" d="m842.2 618.3h-109.8l-0.5-2h109.6z"/><path class="g" d="m839.3 610.2h-109.2l-0.5-2h108.9z"/><path class="g" d="m836.3 602.1h-108.5l-0.5-2h108.3z"/><path class="g" d="m833.4 594h-107.8l-0.6-2h107.6z"/><path class="g" d="m830.4 585.8h-107.1q-0.3-0.9-0.6-2h107z"/><path class="g" d="m827.4 577.7h-106.3q-0.3-1-0.6-2h106.2z"/><path class="g" d="m824.5 569.6h-105.5q-0.3-1-0.5-2h105.3z"/><path class="g" d="m821.5 561.5h-104.5q-0.3-1-0.5-2h104.3z"/><path class="g" d="m818.6 553.4h-103.5q-0.2-1-0.4-2h103.1z"/><path class="g" d="m816.6 545.3h-103.3q-0.2-1-0.4-2h103.4z"/><path class="g" d="m815.3 537.2h-103.6q-0.2-1-0.4-2h103.7z"/><path class="g" d="m814 529.1h-103.9q-0.2-1-0.4-2h103.9z"/><path class="g" d="m812.6 521h-103.9q-0.2-1.1-0.4-2h104z"/><path class="g" d="m811.3 512.9h-104q-0.1-1.1-0.3-2h103.9z"/><path class="g" d="m809.9 504.7h-103.8q-0.1-0.9-0.3-2h103.8z"/><path class="g" d="m808.1 496.6h-103.1q-0.2-1-0.3-2h102.7z"/><path class="g" d="m805 488.5h-101.1q-0.1-1-0.2-2h100.5z"/><path class="g" d="m801.8 480.4h-98.8q-0.1-1-0.2-2h98.3z"/><path class="g" d="m798.7 472.3h-96.5q-0.1-1-0.2-2h95.9z"/><path class="g" d="m795.6 464.2h-94.1q-0.1-1-0.2-2h93.5z"/><path class="g" d="m792.4 456.1h-91.6q0-1-0.1-2h90.9z"/><path class="g" d="m789.3 448h-89q-0.1-1-0.1-2h88.3z"/><path class="g" d="m786.1 439.9h-86.2q0-1-0.1-2h85.6z"/><path class="g" d="m783 431.8h-83.4q0-1-0.1-2h82.7z"/><path class="g" d="m779.8 423.6h-80.4q0-0.9 0-2h79.7z"/><path class="g" d="m776.7 415.5h-77.4q0-1 0-2h76.6z"/><path class="g" d="m773.6 407.4h-74.3q0-1 0-2h73.5z"/><path class="g" d="m770.4 399.3h-71q0-1 0-2h70.2z"/><path class="g" d="m767.3 391.2h-67.7q0-1 0-2h66.9z"/><path class="g" d="m764.1 383.1h-64.2q0-1 0.1-2h63.4z"/><path class="g" d="m761 375h-60.7q0-1 0.1-2h59.8z"/><path class="g" d="m757.8 366.9h-57q0-1 0.1-2h56.2z"/><path class="g" d="m754.7 358.8h-53.3c0-0.7 0.1-1.4 0.1-2h52.4z"/><path class="g" d="m751.6 350.7h-49.5q0-1 0.2-2h48.5z"/><path class="g" d="m748.4 342.5h-45.5q0.1-0.9 0.2-2h44.5z"/><path class="g" d="m745.3 334.4h-41.5q0.1-1 0.2-2h40.5z"/><path class="g" d="m742.1 326.3h-37.3q0.1-1 0.3-2h36.3z"/><path class="g" d="m739 318.2h-33.1q0.2-1 0.3-2h32z"/><path class="g" d="m735.8 310.1h-28.7q0.2-1 0.4-2h27.6z"/><path class="g" d="m732.7 302h-24.2q0.2-1 0.3-2h23.1z"/><path class="j" d="m828.6 444.7q0 1 0 2 0 3.3-0.1 6.6 0 1 0 2-0.1 3.2-0.2 6.5 0 1 0 2-0.1 3.3-0.3 6.5 0 1-0.1 2-0.1 3.1-0.3 6.3-0.1 1-0.2 2-0.2 3.1-0.4 6.2-0.1 1-0.2 2.1-0.2 3-0.5 6.1-0.1 1-0.2 2-0.3 3-0.6 6-0.1 1-0.2 2-0.4 2.9-0.8 5.9-0.1 1-0.2 2-0.4 2.8-0.8 5.7-0.2 1-0.3 2-0.4 2.8-0.9 5.6-0.2 1.1-0.4 2-1.9 11.2-4.4 22.2l-10.1-26.8-0.9-2.4-2.4-6.3-0.9-2.4-2.4-6.3-0.8-2.3-2.4-6.3-0.9-2.3-2.3-6.2-0.9-2.3-2.3-6.2-0.9-2.2-2.3-6.2-0.8-2.2-2.3-6.1-0.8-2.2-2.3-6.1-0.9-2.1-2.2-6.1-0.8-2.1-2.3-6-0.8-2.2-2.2-5.9-0.8-2.1-2.3-5.9-0.8-2.1-2.2-5.9-0.8-2.1-2.2-5.8-0.7-2.1-2.2-5.8-0.8-2-2.2-5.8-0.7-2-2.2-5.7-0.7-2.1-2.2-5.6-0.7-2-2.2-5.7-0.7-2-2.1-5.6-0.8-1.9-2.1-5.6-0.7-1.9-2.1-5.6-0.7-1.9-2.1-5.5-0.7-1.9-2.1-5.5-0.7-1.9-2-5.4-0.8-1.9-2-5.4-0.7-1.9-2-5.3-0.7-1.9-2-5.3-0.7-1.9-2-5.2-0.7-1.9-2-5.2-0.7-1.9v-0.1c0 0-0.7-1.8-1.8-5.1q-0.3-0.9-0.7-1.9-0.8-2.3-1.7-5.2-0.3-0.9-0.6-1.9-0.8-2.4-1.7-5.1-0.3-1-0.6-1.9-0.8-2.5-1.6-5.2-0.3-0.9-0.6-1.9-0.8-2.5-1.5-5.1-0.3-1-0.6-2-0.7-2.4-1.5-5.1-0.3-0.9-0.5-1.9-0.7-2.5-1.4-5.1-0.3-1-0.6-2-0.7-2.5-1.3-5.1c-0.2-0.7-0.4-1.3-0.5-2q-0.7-2.5-1.3-5.1-0.3-1-0.5-1.9-0.7-2.6-1.3-5.2-0.2-1-0.4-2-0.6-2.5-1.2-5.1-0.3-1-0.5-2-0.6-2.6-1.1-5.1-0.2-1-0.4-2.1-0.6-2.5-1.1-5.1-0.2-1.1-0.4-2.1-0.5-2.6-1-5.2c-0.1-0.7-0.3-1.3-0.4-2q-0.5-2.6-0.9-5.2-0.2-1.1-0.4-2.2-0.4-2.6-0.8-5.2-0.2-1.1-0.3-2.1-0.4-2.7-0.8-5.3-0.2-1.1-0.3-2.2-0.4-2.7-0.7-5.4-0.1-1.1-0.3-2.2-0.3-2.7-0.5-5.4-0.2-1.1-0.3-2.2-0.2-2.8-0.5-5.5-0.1-1.2-0.1-2.4-0.3-2.8-0.4-5.5v-0.1q-0.1-1.2-0.1-2.3-0.4-7.2-0.4-14.1l57.2-50.8 6.5 19.4 0.6 2 2 6 0.7 1.9 2 6.1 0.6 1.9 2 6.1 0.7 2 2 6.1 0.7 2 2 6.2 0.7 1.9 2 6.2 0.7 2 2 6.2 0.7 2 2.1 6.3 0.6 1.9 2.1 6.4 0.7 1.9 2.1 6.4 0.6 1.9 2.2 6.5 0.6 1.9 2.1 6.5 0.7 1.9 2.1 6.6 0.7 1.9 2.2 6.6 0.6 1.9 2.2 6.6 0.6 1.9 2.2 6.7 0.2 0.4q0.2 0.7 0.5 1.5 1.1 3.4 2.1 6.8 0.4 0.9 0.6 1.8 1.1 3.4 2.2 6.9 0.3 0.9 0.5 1.9 1.1 3.4 2.1 6.9 0.3 0.9 0.5 1.9 1.1 3.4 2 6.9 0.3 1 0.5 1.9 1 3.5 1.9 7 0.3 1 0.6 2 0.9 3.5 1.8 7 0.2 1 0.4 1.9 0.9 3.6 1.8 7.1 0.2 1 0.4 2 0.9 3.5 1.7 7.1 0.2 0.9 0.4 1.9 0.8 3.6 1.6 7.2 0.2 1 0.4 1.9 0.7 3.6 1.4 7.2 0.2 1 0.4 1.9 0.7 3.6 1.4 7.2 0.2 1 0.3 2 0.7 3.5 1.3 7.2 0.2 0.9 0.3 1.9 0.6 3.6 1.2 7.2 0.1 1 0.3 2 0.6 3.6 1.1 7.2 0.1 1 0.3 2 0.5 3.5 0.9 7.1 0.2 1 0.3 2 0.4 3.6 0.9 7.2 0.1 1 0.2 2 0.4 3.5 0.8 7.1 0.1 1 0.2 2 0.3 3.5 0.6 7.1 0.2 0.9 0.2 2 0.3 3.5 0.6 7 0.1 1 0.2 2 0.2 3.5 0.4 7 0.1 1 0.2 2 0.2 3.5 0.3 7 0.1 1 0.1 2 0.1 0.7 0.1 1.5 0.1 2.7 0.2 5.4 0.1 1 0.1 2 0.1 3.4 0.2 6.8 0 1 0.1 2 0 3.4 0.1 6.8 0 1 0 2 0 3.3 0 6.7z"/><path class="g" d="m748.5 89.8l-63.8 45.8q-0.1-1.2-0.1-2.3l63.3-45.5z"/><path class="g" d="m751.2 97.7l-66 45.9q-0.1-1.2-0.1-2.4l65.4-45.4z"/><path class="g" d="m753.8 105.7l-67.8 45.6q-0.2-1.1-0.3-2.2l67.5-45.3z"/><path class="g" d="m756.5 113.8l-69.7 45.1q-0.1-1.1-0.3-2.2l69.3-44.9z"/><path class="g" d="m759.2 121.9l-71.4 44.6q-0.2-1.1-0.3-2.2l71-44.4z"/><path class="g" d="m761.9 130l-73 43.9q-0.2-1.1-0.3-2.1l72.6-43.7z"/><path class="g" d="m764.6 138.2l-74.5 43.1q-0.2-1.1-0.4-2.2l74.2-42.9z"/><path class="g" d="m767.3 146.4l-75.9 42.1c-0.1-0.7-0.3-1.3-0.4-2l75.6-42.1z"/><path class="g" d="m770 154.6l-77.2 41.2q-0.2-1.1-0.4-2.1l77-41z"/><path class="g" d="m772.8 162.9l-78.5 40.1q-0.2-1-0.4-2.1l78.2-39.9z"/><path class="g" d="m775.5 171.2l-79.6 38.9q-0.3-1-0.5-2l79.5-38.8z"/><path class="g" d="m778.3 179.6l-80.8 37.6q-0.2-1-0.4-2l80.6-37.5z"/><path class="g" d="m781.1 188l-81.8 36.3q-0.3-1-0.5-1.9l81.6-36.3z"/><path class="g" d="m783.9 196.5l-82.8 34.9c-0.2-0.7-0.4-1.3-0.5-2l82.6-34.8z"/><path class="g" d="m786.7 205l-83.7 33.5q-0.3-1-0.6-2l83.7-33.4z"/><path class="g" d="m789.5 213.5l-84.6 32q-0.3-0.9-0.5-1.9l84.5-32z"/><path class="g" d="m792.4 222.1l-85.4 30.5q-0.3-1-0.6-2l85.3-30.4 0.2 0.4q0.2 0.7 0.5 1.5z"/><path class="g" d="m795.1 230.7l-86 28.9q-0.3-0.9-0.6-1.9l86-28.8q0.4 0.9 0.6 1.8z"/><path class="g" d="m797.8 239.5l-86.5 27.2q-0.3-1-0.6-1.9l86.6-27.2q0.3 0.9 0.5 1.9z"/><path class="g" d="m800.4 248.3l-86.8 25.4q-0.3-0.9-0.6-1.9l86.9-25.4q0.3 0.9 0.5 1.9z"/><path class="g" d="m802.9 257.1l-86.9 23.7q-0.3-0.9-0.7-1.9l87.1-23.7q0.3 1 0.5 1.9z"/><path class="g" d="m805.4 266.1l-86.9 21.8-0.7-1.9 87-21.9q0.3 1 0.6 2z"/><path class="g" d="m807.6 275l-86.4 20-0.7-1.9 86.7-20q0.2 1 0.4 1.9z"/><path class="g" d="m809.8 284.1l-85.9 18-0.7-1.9 86.2-18.1q0.2 1 0.4 2z"/><path class="g" d="m811.9 293.1l-85.3 16.2-0.7-1.9 85.6-16.2q0.2 0.9 0.4 1.9z"/><path class="g" d="m813.9 302.2l-84.6 14.3-0.7-1.9 84.9-14.3q0.2 1 0.4 1.9z"/><path class="g" d="m815.7 311.3l-83.6 12.5-0.8-1.9 84-12.5q0.2 1 0.4 1.9z"/><path class="g" d="m817.4 320.5l-82.6 10.6-0.7-1.9 83-10.7q0.2 1 0.3 2z"/><path class="g" d="m819 329.6l-81.4 8.9-0.7-1.9 81.8-8.9q0.2 0.9 0.3 1.9z"/><path class="g" d="m820.5 338.8l-80.1 7.1-0.7-1.9 80.5-7.2q0.1 1 0.3 2z"/><path class="g" d="m821.9 348l-78.7 5.4-0.7-1.9 79.1-5.5q0.1 1 0.3 2z"/><path class="g" d="m823.1 357.1l-77 3.8-0.8-1.9 77.5-3.9q0.2 1 0.3 2z"/><path class="g" d="m824.2 366.3l-75.3 2.2-0.7-2 75.8-2.2q0.1 1 0.2 2z"/><path class="g" d="m825.2 375.4l-73.4 0.8-0.7-2 73.9-0.8q0.1 1 0.2 2z"/><path class="g" d="m826 384.5l-71.3-0.6-0.7-2.1 71.8 0.7q0.2 0.9 0.2 2z"/><path class="g" d="m826.8 393.5l-69.2-1.9-0.7-2 69.7 1.9q0.1 1 0.2 2z"/><path class="g" d="m827.4 402.5l-66.8-3.1-0.8-2 67.4 3.1q0.1 1 0.2 2z"/><path class="g" d="m827.8 411.5l-64.3-4.2-0.7-2.1 64.9 4.3q0.1 1 0.1 2z"/><path class="g" d="m828.2 420.4l-61.7-5.2-0.8-2.1 62.4 5.3q0.1 1 0.1 2z"/><path class="g" d="m828.5 429.2l-59-6-0.8-2.1 59.7 6.1q0 1 0.1 2z"/><path class="g" d="m828.6 438l-56-6.8-0.8-2.1 56.8 6.9q0 1 0 2z"/><path class="g" d="m828.6 444.7q0 1 0 2l-53-7.4-0.8-2.2z"/><path class="g" d="m828.5 453.3q0 1 0 2l-49.8-7.9-0.8-2.1z"/><path class="g" d="m828.3 461.8q0 1 0 2l-46.5-8.2-0.9-2.1z"/><path class="g" d="m828 470.3q0 1-0.1 2l-43-8.4-0.8-2.2z"/><path class="g" d="m827.6 478.6q-0.1 1-0.2 2l-39.4-8.4-0.8-2.2z"/><path class="g" d="m827 486.8q-0.1 1-0.2 2.1l-35.6-8.3-0.9-2.2z"/><path class="g" d="m826.3 495q-0.1 1-0.2 2l-31.7-7.9-0.9-2.3z"/><path class="g" d="m825.5 503q-0.1 1-0.2 2l-27.7-7.4-0.9-2.3z"/><path class="g" d="m824.5 510.9q-0.1 1-0.2 2l-23.5-6.7-0.8-2.3z"/><path class="g" d="m823.5 518.6q-0.2 1-0.3 2l-19.1-5.7-0.9-2.4z"/><path class="g" d="m822.3 526.2q-0.2 1.1-0.4 2l-14.5-4.6-0.9-2.4z"/><path class="k" d="m1500 741h-1500v-95.5h1500z"/><path class="l" d="m1500 657.4h-1455.1l469.9 21.1c58 2.6 114.9 14.5 170 32.6 4.5 1.5 9.2 2.6 13.9 3.2 30.2 3.5 174.1-22.6 220.3-21.1 37.8 1.3 436.9 27.6 581 37.2z"/></g></svg>