<svg version="1.2" xmlns="http://www.w3.org/2000/svg" viewBox="0 0 724 636" width="724" height="636"><defs><clipPath clipPathUnits="userSpaceOnUse" id="cp1"><path d="m624.11 92.45l-0.99 346.59c0 0.66-0.44 1.33-1.32 1.85-1.78 1.02-4.63 1.02-6.42 0-0.88-0.53-1.34-1.19-1.34-1.88l0.98-346.6c0 0.68 0.45 1.35 1.35 1.88 1.77 1.02 4.64 1.02 6.42 0 0.87-0.52 1.32-1.19 1.32-1.84z"/></clipPath></defs><style>.a{fill:#70364e}.b{fill:#d96997}.c{fill:#e6e8e8}.d{fill:#cfd2d3}.e{fill:#092c35}.f{fill:#0d3847}.g{fill:#fff}.h{fill:#113c54}.i{fill:#134960}.j{fill:#104051}.k{fill:#175a72}.l{fill:#302f34}.m{fill:#091f2c}.n{fill:#0f3448}.o{fill:#ededed}.p{fill:#071a23}.q{fill:#0c2838}</style><g style="opacity:.1"><path  d="m613.8 280c140.9 81.3 141.6 213.3 1.6 294.6-139.9 81.3-367.6 81.3-508.4-0.1-140.9-81.2-141.7-213.2-1.7-294.5 139.9-81.3 367.7-81.3 508.5 0z"/></g><path class="a" d="m722.9 387.8c-0.1 1.8-0.2 3.5-0.3 5.2-0.2 1.5-0.4 2.9-0.6 4.4q-0.3 2.6-0.8 5.2-0.4 2.2-0.9 4.4-0.6 2.5-1.2 5-0.6 2.3-1.3 4.5-0.8 2.5-1.7 4.9-0.8 2.2-1.6 4.4-1.1 2.6-2.2 5.2-1 2.1-2 4.3-1.3 2.5-2.6 5.1-1.1 2-2.4 4.1-1.7 3-3.7 6c-0.7 1.2-1.5 2.4-2.3 3.6-1.6 2.3-3.2 4.5-4.9 6.7-0.7 1-1.4 2-2.2 3q-0.6 0.7-1.2 1.5-2.7 3.2-5.6 6.4-0.7 0.9-1.5 1.8-3.4 3.7-7.2 7.4-0.6 0.6-1.2 1.2c-1.9 1.8-3.9 3.7-6 5.5q-2.3 2.1-4.7 4.2-2.4 2-4.8 4-2.6 2.1-5.3 4.1-2.5 1.9-5.1 3.8-2.8 2.1-5.7 4c-1.8 1.3-3.6 2.5-5.5 3.8q-3 1.9-6 3.8c-2.7 1.6-5.3 3.3-8 4.9-5.1 2.9-10.3 5.7-15.6 8.4q-2.4 1.2-4.7 2.4-6.2 3-12.5 5.9c-1.5 0.6-3 1.3-4.5 2q-8.2 3.6-16.8 6.8c-1.1 0.5-2.3 0.8-3.4 1.3q-7.1 2.6-14.4 5-3.2 1.1-6.4 2.1-4 1.2-8 2.4-3.6 1.1-7.3 2.1-4.1 1.1-8.3 2.2-3.6 1-7.3 1.9-4.2 1-8.5 1.9-3.6 0.9-7.3 1.6-4.4 0.9-8.7 1.7-3.5 0.7-7.1 1.4-9.5 1.7-19.2 3-1.3 0.2-2.7 0.4-8.5 1.1-17 2-3.2 0.3-6.4 0.6-5.5 0.5-11 0.9-3.4 0.3-6.9 0.5-5.6 0.4-11.3 0.6c-2.2 0.1-4.4 0.2-6.6 0.3-3.2 0.1-6.5 0.1-9.7 0.1-2.4 0.1-4.8 0.1-7.2 0.1-3.2 0.1-6.5 0-9.7 0-2.5-0.1-4.9-0.1-7.3-0.2-2.8 0-5.5-0.2-8.3-0.3-2.7-0.1-5.4-0.2-8.1-0.3-2.9-0.2-5.8-0.4-8.7-0.6-2.6-0.2-5.2-0.3-7.9-0.5-2.9-0.3-5.8-0.6-8.7-0.9-2.5-0.2-5.1-0.5-7.6-0.7q-8.1-0.9-16.1-2.1c-1.3-0.2-2.6-0.4-3.9-0.6q-6.3-0.9-12.6-2c-1.9-0.3-3.7-0.7-5.6-1-3.5-0.7-7.1-1.3-10.7-2.1-1.8-0.3-3.5-0.7-5.2-1.1q-5.9-1.2-11.6-2.6-3.2-0.8-6.3-1.6-5.2-1.3-10.3-2.7-3-0.8-5.8-1.7-8.2-2.4-16.2-5-1.4-0.4-2.7-0.9c-6.1-2.1-12.1-4.3-18-6.6q-3.7-1.4-7.3-2.9c-1.8-0.7-3.7-1.5-5.5-2.3q-4-1.7-8-3.5c-1.7-0.8-3.4-1.6-5.1-2.4-2.9-1.4-5.7-2.8-8.5-4.2-1.4-0.7-2.8-1.4-4.2-2.1q-6.2-3.3-12.2-6.7c-67.1-38.7-100.6-89.5-100.4-140.3q-0.1 22-0.1 44c-0.2 50.8 33.3 101.6 100.3 140.3q6 3.4 12.3 6.7c1.4 0.8 2.9 1.5 4.4 2.2 2.7 1.4 5.4 2.8 8.2 4.1 1.8 0.8 3.6 1.6 5.4 2.5 2.6 1.1 5.1 2.3 7.7 3.4q2.9 1.2 5.8 2.4c1.8 0.7 3.5 1.5 5.3 2.2 0.6 0.2 1.1 0.4 1.7 0.6q8.9 3.5 18 6.6c0.9 0.3 1.9 0.6 2.9 0.9q7.9 2.7 16.1 5c0.9 0.3 1.7 0.6 2.6 0.8 1 0.3 2 0.6 3 0.9q5.2 1.4 10.5 2.7 3.1 0.8 6.2 1.6 5.7 1.3 11.4 2.6c1.5 0.3 2.9 0.6 4.4 0.9q0.6 0.2 1.2 0.3c3.5 0.7 7 1.3 10.5 2 1.9 0.3 3.8 0.7 5.6 1q7.4 1.3 14.7 2.3 0.9 0.2 1.7 0.3 0 0 0.1 0 8.1 1.2 16.3 2.1c0.7 0.1 1.3 0.1 2 0.2q7.1 0.8 14.3 1.4 0.2 0 0.3 0c1.9 0.2 3.7 0.2 5.5 0.4 3.6 0.2 7.1 0.5 10.7 0.7 2.3 0.1 4.6 0.2 6.9 0.3 3.2 0.1 6.4 0.3 9.6 0.4q0.4 0 0.8 0c1.8 0 3.7 0 5.5 0 3.5 0.1 7.1 0.2 10.7 0.2 2.2 0 4.4-0.1 6.6-0.1 3.5-0.1 6.9-0.1 10.3-0.2q0.9 0 1.8-0.1c1.4 0 2.9-0.1 4.3-0.2q5.9-0.2 11.8-0.6 3.4-0.2 6.7-0.4 5.6-0.5 11-1c1.3-0.1 2.6-0.1 3.9-0.3 0.9-0.1 1.7-0.2 2.6-0.3q8.5-0.9 16.8-2c1-0.1 2-0.2 2.9-0.4 6.5-0.9 12.9-1.9 19.3-3 0.6-0.2 1.2-0.2 1.7-0.3 1.7-0.3 3.3-0.7 4.9-1q4.6-0.9 9.2-1.8 3.5-0.7 7-1.5 4.4-1 8.8-2.1 3.5-0.8 7-1.7 4.3-1.1 8.6-2.3 3.5-1 7-2 4.2-1.2 8.3-2.5c1.2-0.4 2.4-0.8 3.6-1.1 0.9-0.3 1.7-0.7 2.6-1q7.4-2.4 14.6-5.1c1.1-0.4 2.2-0.7 3.2-1.1q8.6-3.3 16.9-6.9c1.5-0.7 2.9-1.4 4.4-2q6.4-2.9 12.6-5.9 2.3-1.2 4.6-2.3c5.3-2.8 10.6-5.6 15.7-8.5q2.1-1.2 4.1-2.5c1.3-0.8 2.5-1.6 3.8-2.4q3.1-1.9 6.1-3.9c1.9-1.2 3.7-2.4 5.5-3.6q2.9-2 5.7-4.1c1.7-1.2 3.4-2.5 5.1-3.8q2.7-2 5.3-4.1 2.4-2 4.7-4 2.5-2.1 4.8-4.2c0.7-0.6 1.4-1.2 2.1-1.8 1.3-1.2 2.6-2.4 3.8-3.7q0.7-0.6 1.3-1.2 3.8-3.7 7.2-7.4 0.8-0.9 1.5-1.8 2.9-3.2 5.6-6.6 0.6-0.6 1.1-1.2 0.3-0.4 0.6-0.7c0.6-0.9 1.2-1.8 1.8-2.6 1.7-2.1 3.2-4.3 4.7-6.4 0.9-1.2 1.6-2.5 2.4-3.7q2-3 3.7-6c0.3-0.5 0.7-1.1 1-1.7 0.5-0.8 0.9-1.6 1.4-2.5q1.3-2.5 2.5-5 1.1-2.2 2.1-4.3 1.1-2.6 2.1-5.1c0.3-0.8 0.7-1.6 1-2.4 0.3-0.7 0.5-1.4 0.7-2.1q0.9-2.4 1.6-4.9 0.7-2.2 1.3-4.5 0.7-2.5 1.2-4.9c0.2-0.9 0.5-1.8 0.7-2.7 0.1-0.6 0.2-1.2 0.3-1.8q0.4-2.6 0.8-5.1 0.3-2.3 0.5-4.5 0.3-2.6 0.4-5.1c0.1-1 0.2-2 0.2-3q0.1-1.5 0.1-3 0-22 0.1-44c0 2-0.1 4-0.3 5.9z"/><path class="b" d="m622.8 241.6c133.3 76.9 134 201.6 1.6 278.6-132.4 76.9-347.7 76.9-480.9 0-133.3-77-134-201.7-1.6-278.6 132.4-76.9 347.7-76.9 480.9 0z"/><g style="opacity:.1"><path  d="m583.4 411.9c44.7 25.8 124.6 35.3 80.2 61.2-44.5 25.8-131.4 33.1-176.2 7.3-44.7-25.8-65.4-53.8-21-79.7 44.5-25.8 72.2-14.7 117 11.2z"/></g><path class="c" d="m524.7 84l45.3 65 20.3-17-41.7-63.2z"/><path class="d" d="m570 149l9.3-7.7-43.2-64.5-11.4 7.2z"/><path class="e" d="m546.7 66.5c5.6 5.5 5.8 14.4 0.3 20-5.4 5.7-14.4 5.8-20 0.4-5.6-5.5-5.8-14.4-0.3-20.1 5.4-5.6 14.4-5.7 20-0.3z"/><path class="f" d="m527 86.9c3.8 3.6 9.1 4.7 13.8 3.3q1.2-0.8 2.3-1.9c5.5-5.6 5.3-14.6-0.3-20-3.8-3.7-9.1-4.7-13.8-3.4q-1.3 0.8-2.3 1.9c-5.5 5.7-5.3 14.6 0.3 20.1z"/><path class="e" d="m591.8 128.9c6 5.8 6.1 15.4 0.3 21.4-5.8 5.9-15.3 6.1-21.3 0.3-6-5.8-6.1-15.4-0.4-21.3 5.9-6 15.4-6.2 21.4-0.4z"/><path class="f" d="m570.8 150.6c4 3.9 9.7 5 14.7 3.6q1.3-0.9 2.5-2.1c5.7-5.9 5.6-15.5-0.4-21.3-4-3.9-9.7-5-14.7-3.6q-1.3 0.9-2.5 2.1c-5.7 5.9-5.6 15.5 0.4 21.3z"/><path class="c" d="m583.4 124c0 0-11.7 15.6 9.6 26.1l57-33.3-6.1-14.4z"/><path class="d" d="m593 150.1l57-33.3-2.7-6.2-65.8 29.1c1.7 3.6 5.1 7.2 11.5 10.4z"/><path class="c" d="m647.6 115.5c0 0 14.7-0.7 23.6-9.2 8.8-8.5 15.2-18.6 9.9-18.5-5.2 0.2-14.7 8.2-19.4 8.7-4.7 0.5-5.8 0.8-2.2-2.4 3.6-3.1 7.2-6.8 2.7-5.3-4.4 1.4-14.3 9.4-19.6 16.3z"/><path class="d" d="m671.2 106.3c8.2-8 14.4-17.3 10.8-18.4-11 21.8-36.2 23.2-36.5 23.1 0 0 0 0.2 0 0.2l2.1 4.3c0 0 14.7-0.7 23.6-9.2z"/><path class="e" d="m643.9 102.4l6.1 14.4-4.5 2.6-6.5-15.3z"/><path class="c" d="m539.2 413.2c-7.5-28.5 2.2-79.2 7.3-103.2 14.5-75.2-2.8-141.5-2.8-141.5-21.9-15.3-37.1 19.7-37.1 19.7-11.4 39.2 13.8 127.8 13.8 127.8 0 0-14.9 27.9-10.6 48.7 4.2 20.7 12.6 34.7 9 59.7-0.9 6-0.7 6.1 19.6 14.1 21.9 8.6 31.7 9.2 29.7 0.1-2-9.2-26.5-15.9-28.9-25.4z"/><path class="d" d="m506.6 188.2c-11.4 39.2 11.4 127.6 11.4 127.6 0 0-12.5 28.1-8.2 48.9 4.2 20.7 12.6 34.7 9 59.7-0.9 6-0.7 6.1 19.6 14.1 20.1 7.9 30 9 29.9 2.1-11.9 5.6-37.4-8.7-42.4-12.6-5.3-4.1 2.3-15-2.5-35.5-4.8-20.6-8.4-34.2-4.3-44.3 6.3-15.9 11.4-26.7 10.3-36-5.1-46.1-25.5-72.8-10.9-124.9-10.6-0.3-11.9 0.9-11.9 0.9z"/><path class="g" d="m533.6 186.7l-5.6 1.7c0 0-10.8 35.2-3 62.7 7.8 27.6 2.8 55.9 11.4 59.9 3.4 1.6 5.9 0.1 6.4-1.5 15.4-56.8 0.6-125.6 0.6-125.6-18.6-8.8-5.3 4.4-9.8 2.8z"/><path class="g" d="m537.1 414.4c-11.8-19.8 7.6-89.6 4.2-92q0 0 0 0c-5.8-6.2-8.9-0.3-10.1 2.7-2 4.8-0.9 8.3-6 20.6-4.4 10.7-2.6 20.8 2.7 40.6 2.8 10.9 0.8 32.2 2.4 36.9 1.5 4.7 21.3 13.8 30 15.9 3.3 0.8 5.6-0.4 7.2-2.1-4.5-9.2-25.6-14.4-30.4-22.6z"/><path class="h" d="m516.9 311.3c0 0 17.7 9 28.9 1.9l-2.1 10.4c0 0-10.7 6.1-27.5-3.4z"/><path class="h" d="m519.6 408.9c0 0 9.5 5.3 18.2-1.9l1.4 6.2c0 0-9.8 6.3-19.6 2z"/><path class="i" d="m537.7 438.2c0 0 2.5-13.2 11.6-14.9l2.4 1.3c0 0-10.8 2.9-11.6 14.6z"/><path class="c" d="m487.4 437c-6.7-28.7 4.4-79.2 10.1-103.1 16.5-74.8 20.2-111.3 20.2-111.3-21.4-15.8-56.9-11.5-56.9-11.5-12.4 39 10.5 128.2 10.5 128.2 0 0-15.6 27.5-11.9 48.3 3.6 20.8 11.7 35.1 7.4 60-1.1 6-0.9 6.1 19.2 14.6 21.7 9.2 31.4 10.1 29.7 0.8-1.7-9.2-26-16.5-28.3-26z"/><path class="d" d="m460.8 211.1c-12.4 39 8.1 127.9 8.1 127.9 0 0-13.2 27.8-9.5 48.6 3.6 20.8 11.7 35.1 7.4 60-1.1 6-0.9 6.1 19.2 14.6 19.9 8.4 29.7 9.8 29.9 2.9-12.1 5.3-37.2-9.7-42.1-13.7-5.1-4.3 2.7-14.9-1.5-35.6-4.3-20.7-7.5-34.3-3.2-44.4 6.8-15.7 12.1-26.4 11.3-35.7-3.9-46.3-23.6-73.4-7.6-125.1-10.6-0.7-12 0.5-12 0.5z"/><path class="g" d="m505.2 216l-22.9-4c0 0-11.8 34.8-4.7 62.5 7 27.8 1.3 56 9.8 60.2 3.4 1.7 5.9 0.3 6.4-1.4 17-56.3 16.2-113.6 16.2-113.6-3.8-2.8-0.4-2-4.8-3.7z"/><path class="g" d="m485.3 438.1c-11.2-20.1 10-89.4 6.7-91.9q0 0 0 0c-5.6-6.3-8.9-0.5-10.2 2.4-2.1 4.8-1.1 8.4-6.5 20.5-4.7 10.5-3.1 20.7 1.6 40.7 2.5 10.9 0 32.2 1.4 36.9 1.4 4.7 20.9 14.3 29.6 16.7 3.2 0.8 5.6-0.2 7.3-1.9-4.3-9.3-25.2-15.1-29.9-23.4z"/><path class="h" d="m467.9 334.5c0 0 17.4 9.4 28.8 2.6l-2.3 10.4c0 0-10.9 5.8-27.4-4.1z"/><path class="h" d="m468 432.1c0 0 9.3 5.5 18.3-1.4l1.1 6.3c0 0-9.9 6-19.6 1.4z"/><path class="i" d="m485.3 461.9c0 0 2.9-13.2 12.1-14.6l2.3 1.4c0 0-10.9 2.6-12 14.2z"/><path class="c" d="m471.4 188.8c0 0 19.8-23.1 0-57.8-4.8-8.6-21-25.5-7.3-38.6 13.6-13.2 59.2-40.9 75.7-32 0 0 20.9 27.6 5 115.9 0 0-15.3 27.2-73.4 12.5z"/><path class="d" d="m471.4 131c19.8 34.7 0 57.8 0 57.8 8.1 2 15.3 3.3 21.8 3.9 6.3-16.9 10.7-56.5-7.8-77.2-10.8-11.9-8.7-25.8-4.9-35.7-7 4.6-12.8 9.1-16.4 12.6-13.7 13.1 2.5 30 7.3 38.6z"/><path class="g" d="m544.8 176.3c11.9-66.4 3.1-98.4-2-110.3-19.1 1.1-59.3 16.4-59.6 26.5-0.6 20.9 31.7 20.7 24.6 57.7-6.3 32.9 0.9 40.1 0.9 40.1 0 0 15.6-2.5 30.9-8.3 3.8-3.1 5.2-5.7 5.2-5.7z"/><path class="h" d="m514.9 243.8c0 0-30-33.2-55.6-28.9l1.1-4.3c0 0 28.5-0.2 54.5 33.2z"/><path class="i" d="m471.4 188.8c0 0 54.3 13.6 73.4-12.5 0 0 15.8 32.7-29.9 67.5 0 0-29.9-34.5-55.6-28.9 0 0 4-18.6 12.1-26.1z"/><path class="i" d="m471.4 188.8c0 0 54.3 13.6 73.4-12.5 0 0 15.6 31.9-29.9 67.5-5.6 4.3-29.9-34.5-55.6-28.9 0 0 4-18.6 12.1-26.1z"/><path class="j" d="m459.3 214.9c4-0.8 8.2-0.7 12.2 0 1.2-3.9 5.1-16.4 10.2-24.2-6.2-0.9-10.3-1.9-10.3-1.9-8.1 7.5-12.1 26.1-12.1 26.1z"/><path class="f" d="m471.4 188.8c0 0 50.7 19.1 74.6-9v-10.5c0 0-25.7 24.9-69.4 10.4z"/><path class="k" d="m480.6 210c-5.4-3.5-1.7-14.1 4.8-12.2 13.3 4.1 30.5 12.8 57.6-9 2-1.6 3.5 0.4 0 10.2-3.6 9.9-18.1 35.5-25.3 37.2-7.2 1.6-23.6-17.2-37.1-26.2z"/><path class="c" d="m444.8 118.7l2.7 79.2 26.3-3.2-0.7-75.8z"/><path class="d" d="m447.5 197.9l12-1.5-1.2-77.6-13.5-0.1z"/><path class="e" d="m472.8 116c1.7 7.6-3 15.2-10.6 16.9-7.7 1.8-15.3-2.9-17-10.6-1.8-7.6 3-15.2 10.6-17 7.6-1.7 15.2 3 17 10.7z"/><path class="f" d="m445.2 122.3c1.2 5.2 5.1 9 9.8 10.4q1.4 0 2.9-0.4c7.6-1.7 12.4-9.3 10.6-17-1.1-5.1-5-8.9-9.8-10.3q-1.4 0-2.9 0.3c-7.6 1.8-12.4 9.4-10.6 17z"/><path class="i" d="m470.5 82.9c0 0-30.2 13-28 33.7 0.3 3 3.8-5.2 9.9-6.6 6-1.4 15.6 0.9 18.8 7 3.2 6.2 4.6 3.7 4.6 3.7 0 0 20-43.6-5.3-37.8z"/><path class="e" d="m476.7 192.9c1.9 8.1-3.2 16.2-11.3 18-8.1 1.9-16.2-3.2-18.1-11.3-1.9-8.1 3.2-16.2 11.3-18.1 8.1-1.8 16.2 3.2 18.1 11.4z"/><path class="f" d="m447.3 199.6c1.3 5.5 5.4 9.5 10.4 11q1.6 0 3.1-0.3c8.2-1.9 13.2-10 11.4-18.1-1.3-5.5-5.4-9.5-10.5-11q-1.5 0-3.1 0.3c-8.1 1.9-13.2 10-11.3 18.1z"/><path class="c" d="m472.3 184.2c0 0-18.3 6.7-6.1 27.1l65.9 3 2.7-15.4z"/><path class="d" d="m466.2 211.3l65.9 3 1.1-6.6-71-11.3c-0.6 3.8 0.3 8.7 4 14.9z"/><path class="c" d="m530.8 212c0 0 12.8 7.4 24.8 5 12.1-2.3 22.9-7.3 18.4-10.1-4.5-2.7-16.8-1.1-21.1-3.2-4.2-2.2-5.2-2.6-0.5-3.2 4.8-0.7 9.8-1.9 5.2-3-4.5-1.2-17.1 0.1-25.3 2.9z"/><path class="d" d="m555.6 217c11.3-2.2 21.5-6.7 19.1-9.5-21.1 12.2-43-0.2-43.2-0.4 0 0-0.1 0.1-0.1 0.1l-0.6 4.8c0 0 12.8 7.4 24.8 5z"/><path class="e" d="m534.8 198.9l-2.7 15.4-5.1-0.2 2.8-16.4z"/><path class="i" d="m515.5 69.1c0 0 22.5 12.3 38.2 3.4 0 0-6.5-16.5-13.8-16.1-7.2 0.3-36 6.2-24.4 12.7z"/><path class="i" d="m485.6 45.7c0 0 11.6 15.3 4 26.7-4.2 6.4 7.8 19.9 26.5 17.4 0 0 8.3-2.6 7.2-5.6-2.4-6.8 0.1-10.9 2.7-16.4 2.6-5.5-40.4-22.1-40.4-22.1z"/><path class="c" d="m481 37c0 0 6.1 20.9 21.4 29.4 13.5 7.7 28.9 12.2 30.6-3.4 1.4-12.4 5.2-44.1-6.1-49.6-14.6-7.1-20.4-16.7-36.1-9.6 0 0-17.9 9.8-9.8 33.2z"/><path class="d" d="m481 37c0 0 3 18.1 21.3 29.7 3.9 2.5 8.9 4.4 12.7 5.7-7.1-4.5-7.9-6-13.6-11.8-5.8-5.8 7.5-4.3-2.5-19.4-3.5-5.1 12 0.7 15.3 0.4 19.9-1.9 17.6-13.2 17.6-18-0.5-2.1-1.2-4.1-2.1-5.8l-2.1-3.5q-0.3-0.5-0.7-0.9c-2.4-2.6-4.7-4.8-7-6.7-8.5 0.8-32.7 3.1-33.1 3.2-0.4 0.1-4.1 6.1-7.6 11.7-0.6 4.3-0.3 9.4 1.8 15.4z"/><path class="g" d="m491.2 56.9c0 0-17.2-13.6-13.1-35.3 0 0 1.8-17.2 20.6-20.8 9-1.8 25-1.5 33.2 16.3 2.5 5.6 1.9 20.8-20.9 16.6-3.3-0.6-10.3-4.8-13.2-1.8-2.8 2.9-2.8 8-1 12.3 1.5 3.7-1.8 4.3-2.3 3.5-0.5-0.7-5.6-11.3-9.3-6.7-3.4 4 5.5 15.2 6 15.9z"/><path class="g" d="m491.2 56.9c-0.5-0.7-9.4-11.9-6-15.9 3.7-4.6 8.8 6 9.3 6.7 0.5 0.8 3.8 0.2 2.3-3.5-1.8-4.3-1.8-9.4 1-12.3 2.6-2.7 8.7 0.4 12.2 1.5-3.9-2.1-8.8-5.8-11.9-11.8-4.1-8-9.4-11.5-14.2-12.6-5.1 5.9-5.8 12.6-5.8 12.6-4.1 21.7 13.1 35.3 13.1 35.3z"/><path class="g" d="m533 63c0.8-6.9 2.2-19.7 1.5-30.6-2.9 5.5-10.6 17.5-20.1 14.4-12.4-4-9.5-2.2-9.2-1.1 0.3 1.1 2.9 9.3 1.6 11.2-1.2 1.8 4.9 11.9 11.7 16.1 7.6 1.4 13.5-0.7 14.5-10z"/><path class="l" d="m499 39.2c-2.6-0.8-8.8 10.1-0.1 13.1 8.8 3.1 15.7 3.1 27.2-0.5 9.5-2.9 10.9-7.5 10-15.7-0.7-6.7-4.5-0.9-8 0.7-4.7 2.2-15.5 6.1-29.1 2.4z"/><path class="m" d="m647.5 447.1q-0.1 0.1-0.1 0.3-0.5 1.3-1.4 2.7-0.2 0.2-0.3 0.5-1 1.3-2.3 2.5c-0.6 0.5-1.3 0.9-2 1.4-0.6 0.5-1.1 0.9-1.8 1.3-1.8 1.1-3.7 1.8-5.7 2.5q-1.1 0.4-2.2 0.7-1.4 0.4-2.9 0.7-1.7 0.4-3.5 0.6-0.4 0.1-0.9 0.1-2.4 0.3-4.8 0.3-0.4 0-0.8 0-2.4 0-4.8-0.3-0.3 0-0.7 0-2.4-0.3-4.6-0.8-0.4-0.1-0.9-0.2-2-0.5-3.9-1.3-0.4-0.1-0.8-0.2-2.3-0.9-4.4-2.1c-5.6-3.2-8.5-7.6-8.5-11.9v9.9c0 4.3 2.8 8.7 8.5 12q2 1.1 4.2 1.9 0.1 0.1 0.2 0.1c0.2 0.1 0.5 0.2 0.7 0.2q1.2 0.5 2.6 0.9c0.4 0.2 0.9 0.3 1.4 0.4 0.3 0 0.6 0.1 0.8 0.2 0.3 0 0.5 0.1 0.8 0.1q1.4 0.4 2.8 0.5c0.4 0.1 0.7 0.1 1.1 0.2q0.3 0 0.7 0.1 0.5 0 1 0.1c1 0 1.9 0.1 2.9 0.1q0.5 0 0.9 0 0.4 0 0.7 0 0.7 0 1.4 0 1.6-0.1 3.2-0.2 0.2 0 0.3-0.1c0.3 0 0.6 0 0.8-0.1 0.9-0.1 1.7-0.2 2.6-0.3 0.3-0.1 0.6-0.2 1-0.3q1.5-0.3 2.9-0.7c0.5-0.2 1-0.2 1.5-0.4 0.2-0.1 0.4-0.2 0.6-0.3 2.1-0.7 4-1.4 5.7-2.4q0.2-0.2 0.4-0.3c0.5-0.3 0.9-0.6 1.3-0.9 0.8-0.6 1.5-1.1 2.2-1.6 0-0.1 0.1-0.1 0.1-0.2q1.1-0.9 1.8-1.9 0.2-0.2 0.3-0.5 0.2-0.2 0.4-0.4c0.1-0.3 0.3-0.5 0.5-0.8q0.5-0.8 0.8-1.7 0-0.1 0-0.2 0.1-0.2 0.1-0.3 0.2-0.5 0.3-1.1 0.2-0.8 0.2-1.6 0-0.2 0-0.3v-9.9c0 1-0.1 2-0.4 3z"/><path class="n" d="m639.4 432.2c11.3 6.5 11.4 17.1 0.2 23.6-11.2 6.6-29.6 6.6-40.9 0-11.3-6.5-11.3-17.1-0.1-23.6 11.3-6.5 29.5-6.5 40.8 0z"/><path class="g" d="m624.1 92.4l-1 346.6c0 0.7-0.4 1.4-1.3 1.9-1.8 1-4.6 1-6.4 0-0.9-0.5-1.4-1.2-1.4-1.9l1-346.6c0 0.7 0.5 1.4 1.4 1.9 1.7 1 4.6 1 6.4 0 0.9-0.5 1.3-1.2 1.3-1.9z"/><g clip-path="url(#cp1)"></g><path class="g" d="m624.1 92.4l-1 346.6q0 0.1 0 0.1l1-346.6q0 0 0-0.1z"/><path class="g" d="m624.1 92.5l-1 346.6q0 0.1 0 0.2l1-346.6q0-0.1 0-0.2z"/><path class="g" d="m624.1 92.7l-1 346.6q0 0.2-0.1 0.3l1-346.6q0.1-0.1 0.1-0.3z"/><path class="g" d="m624 93l-1 346.6q0 0.1-0.1 0.3l1-346.6q0.1-0.2 0.1-0.3z"/><path class="g" d="m623.9 93.3l-1 346.6q-0.1 0.1-0.2 0.2l1-346.6q0.1-0.1 0.2-0.2z"/><path class="g" d="m623.7 93.5l-1 346.6q-0.1 0.2-0.3 0.3l1-346.6q0.2-0.1 0.3-0.3z"/><path class="g" d="m623.4 93.8l-1 346.6q-0.2 0.3-0.5 0.5l0.9-346.7q0.4-0.2 0.6-0.4z"/><path class="g" d="m622.8 94.2l-0.9 346.7q-0.1 0-0.1 0-0.5 0.3-1 0.4l1-346.6q0.5-0.1 1-0.4 0 0 0-0.1z"/><path class="g" d="m621.8 94.7l-1 346.6q-0.4 0.2-0.9 0.2l1-346.6q0.5 0 0.9-0.2z"/><path class="g" d="m620.9 94.9l-1 346.6q-0.2 0.1-0.5 0.1l0.9-346.6q0.3 0 0.6-0.1z"/><path class="g" d="m620.3 95l-0.9 346.6q-0.3 0.1-0.5 0.1l0.9-346.7q0.3 0 0.5 0z"/><path class="g" d="m619.8 95l-0.9 346.7q-0.3 0-0.5 0l1-346.6q0.2 0 0.4-0.1z"/><path class="g" d="m619.4 95.1l-1 346.6q-0.2 0-0.4-0.1l0.9-346.6q0.3 0 0.5 0.1z"/><path class="g" d="m618.9 95l-0.9 346.6q-0.3 0-0.5 0l1-346.6q0.2 0 0.4 0z"/><path class="g" d="m618.5 95l-1 346.6q-0.2 0-0.4-0.1l1-346.6q0.2 0 0.4 0.1z"/><path class="g" d="m618.1 94.9l-1 346.6q-0.3 0-0.5-0.1l1-346.6q0.2 0.1 0.5 0.1z"/><path class="g" d="m617.6 94.8l-1 346.6q-0.3-0.1-0.6-0.2l1-346.6q0.3 0.1 0.6 0.2z"/><path class="g" d="m617 94.6l-1 346.6q-0.3-0.1-0.6-0.3c-0.9-0.5-1.4-1.2-1.4-1.9l1-346.6c0 0.7 0.5 1.4 1.4 1.9q0.3 0.2 0.6 0.3z"/><path class="g" d="m622.8 90.6c1.7 1 1.8 2.7 0 3.7-1.8 1-4.7 1-6.4 0-1.8-1-1.8-2.7-0.1-3.7 1.8-1.1 4.7-1.1 6.5 0z"/><path fill-rule="evenodd" class="g" d="m624.1 92.4q0 0 0 0zm0 0.1l-1 337.8v8.8q0 0.1 0 0.2 0 0.2-0.1 0.3 0 0.1-0.1 0.3 0 0-0.1 0.1 0 0 0 0 0 0.1-0.1 0.1-0.1 0.2-0.3 0.3-0.2 0.3-0.5 0.5-0.1 0-0.1 0-0.5 0.3-1 0.4c-0.1 0.1-0.3 0.1-0.4 0.1q-0.1 0.1-0.2 0.1-0.1 0-0.3 0-0.2 0.1-0.5 0.1-0.3 0.1-0.5 0.1-0.3 0-0.5 0-0.2 0-0.4-0.1-0.3 0-0.5 0-0.2 0-0.4-0.1-0.1 0-0.2 0 0 0 0 0-0.2-0.1-0.3-0.1-0.3-0.1-0.6-0.2-0.3-0.1-0.6-0.3c-0.9-0.5-1.4-1.2-1.4-1.9l1-346.6q0 0 0 0c0-0.6 0.5-1.3 1.3-1.8 1.8-1.1 4.7-1.1 6.5 0 1.2 0.7 1.5 1.7 1 2.6 0.2-0.3 0.3-0.5 0.3-0.7zm-9.1-0.1q0 0 0 0 0 0 0 0zm8.6 1.3q0.1-0.1 0.2-0.3 0 0 0 0-0.1 0.2-0.2 0.3zm-0.8 0.6q0.5-0.3 0.8-0.6-0.3 0.3-0.8 0.6zm-7.4-0.9c-0.2-0.2-0.2-0.4-0.3-0.6 0.1 0.2 0.1 0.4 0.3 0.6z"/><path class="o" d="m615 92.4l-1 346.6c0 0.7 0.5 1.4 1.4 1.9q0.3 0.2 0.6 0.3 0.3 0.1 0.6 0.2 0.1 0 0.3 0.1 0 0 0 0 0.1 0 0.2 0 0.2 0.1 0.4 0.1 0.2 0 0.5 0 0.2 0.1 0.4 0.1 0.2 0 0.4 0v-350.2h-3.5q-0.3 0.5-0.3 0.9 0 0 0 0z"/><path class="p" d="m615.7 78.6c0 10.1-8.1 18.2-18.2 18.2-10.1 0-18.2-8.1-18.2-18.2 0-10 8.1-18.2 18.2-18.2 10.1 0 18.2 8.2 18.2 18.2z"/><path class="q" d="m607.3 74.8c3.8-2.2 6.9-0.5 6.9 3.9 0 4.4-3.1 9.7-6.8 11.9-3.9 2.3-7 0.4-7-3.9 0-4.4 3.1-9.7 6.9-11.9z"/><path class="q" d="m603.6 91.5l30.9 12.4 6.3-11.9-29.1-17.9z"/><path class="p" d="m637.3 92.3c2.6-1.6 4.8-0.4 4.8 2.7 0 3-2.2 6.8-4.8 8.3-2.7 1.5-4.8 0.3-4.8-2.8 0-3 2.1-6.7 4.8-8.2z"/></svg>