<svg version="1.2" xmlns="http://www.w3.org/2000/svg" viewBox="0 0 330 337" width="330" height="337"><style>.a{fill:#c1aa99}.b{fill:#3d3542}.c{fill:#e2d2c5}.d{fill:#f2e8df}.e{fill:#592e47}.f{fill:#77435f}.g{fill:#5e7baa}.h{fill:#415c84}.i{fill:#c6b4a7}.j{fill:#f2b191}.k{fill:#5e4c56}.l{fill:#fcf7eb}.m{fill:#e0d2c6}.n{fill:#ccbcb0}.o{fill:#3b343f}.p{fill:#5a4d60}.q{fill:#e5d9d1}.r{fill:#934c3e}.s{fill:#7f3a30}.t{fill:#fffbf3}.u{fill:#493e4f}.v{fill:#e08869}.w{fill:#542c29}</style><path class="a" d="m18.9 283.5l-13.5 13.1c0 0 9.7 2.2 14.2 2.1 4.5-0.1 13.4-2.4 13.4-2.4z"/><path class="b" d="m138.8 248.1l-1.9 1.2 31.5 60.7 2.9-7.7z"/><path class="c" d="m21 237.8c0 0 17-1.6 17.4-1.3 0.5 0.2 2.7 3.7 2.7 3.7l-3.5 3.1-10.7 2.9z"/><path class="d" d="m39.7 238.1c-0.5-0.8-1.1-1.5-1.3-1.6-0.4-0.3-17.4 1.3-17.4 1.3l0.9 1.4c2 0.5 4.7 0.8 7.6 0.8 4.6 0 8.6-0.8 10.2-1.9z"/><path class="e" d="m28.3 291.1l-1.7 43.3h-4.1l-1.2-42.9z"/><path class="f" d="m21.9 313.8l0.6 20.6h4.1l1.2-30.4c-2.1 0.2-4.3 4.1-5.9 9.8z"/><path class="e" d="m17.1 290.3l0.9 44.1h-3.7l-4.9-43.9z"/><path class="f" d="m14.3 334.4h3.7l-0.5-24.8c-1.6-4.3-3.6-6.9-5.6-6.7q-0.6 0-1.1 0.4z"/><path class="d" d="m5.4 296.6c4.1-0.6 14-1.8 14-1.8l0.4 2.1 13.2-0.6c0 0-5.4-58.5-5.7-58.9-0.3-0.5-10.2 0.7-10.2 0.7 0 0-10.6 4.2-11.4 5.4-0.7 1.2-0.3 53.1-0.3 53.1z"/><path class="c" d="m9.6 258.1c-0.2-3.9-3.3-11.4-3.4-15q-0.3 0.2-0.5 0.4c-0.7 1.2-0.3 53.1-0.3 53.1 2.4-0.4 3.9-0.5 7.2-0.9-4-6.7-1.8-19.1-3-37.6z"/><path class="c" d="m22.7 242.8c1.4 20.9 4 53.7 4 53.7l6.3-0.2c0 0-3.6-40.4-5.2-55.7-0.4-3.9-5.3-1.3-5.1 2.2z"/><path class="c" d="m11.8 242.7c5.5 8.3 9 12.6 9 12.6v-1.6z"/><path class="c" d="m27.9 240.6c-4.3 9.7-7 14.7-7 14.7v-1.5z"/><path class="c" d="m21.3 247.5l-1 2q1.1 21.6-2 45.5c0.7-0.1 1.1-0.2 1.1-0.2l0.4 2.1 0.5-0.1z"/><path class="c" d="m27 237.3c-1.9-0.2-9.9 0.8-9.9 0.8 0 0-3.2 1.3-6.2 2.6 1.8 2.3 5 3.8 8.7 3.8 5.3 0 9.7-3.3 10.3-7.5q-1.5 0.2-2.9 0.3z"/><path class="g" d="m13.2 239.7l7.8 13.1c0 0 2.6-8.7 3-15.4-3 0.2-6.9 0.7-6.9 0.7 0 0-1.7 0.7-3.9 1.6z"/><path class="h" d="m13.2 239.7l2.5 4.2q1.4 0.3 3 0.3c1.6 0 3.1-0.2 4.5-0.6 0.3-2.1 0.7-4.2 0.8-6.2-3 0.2-6.9 0.7-6.9 0.7 0 0-1.7 0.7-3.9 1.6z"/><path class="b" d="m26.6 257.4l-6 3.2 16.2 12.4 5.5-4.4z"/><path class="b" d="m34.4 257.8l-13.1 13.3 1.9 2.5 14.6-10.9z"/><path class="b" d="m87.8 251.3l-42.6 24.4-22.5-16.7 35.5-39.3z"/><path class="i" d="m28 253.2l-1.6-10.7 2.8 8.2z"/><path class="j" d="m26 251.6c0 0-1.8 1.1-2.1 1.2-0.2 0.1-1.5 2.4-1.5 2.4l0.4 2.6 2.4 0.9 3.2-5.7z"/><path class="k" d="m22.7 259l10.5 7.8 33.7-19.3-17.2-18.4z"/><path class="b" d="m115.9 261l-24 7.2-45-48.8 16.2-18.9z"/><path class="k" d="m46.9 219.4l25.4 27.6 13.9-4.2-29.9-34.3z"/><path class="b" d="m267.2 153.2l-21 16.4 5.7 41.1 22.2-30.9z"/><path class="b" d="m173.1 275.7l-13.8-2.7-16.2-27.8 32.6-32.6 7.3 5.6z"/><path class="d" d="m56.8 199.6l62.5 69.7 140.3-110.6-73.8-89.9z"/><path class="l" d="m152.9 116l-71.9 70.9 8.2 10.9 81.3-59.3z"/><path class="m" d="m185.8 68.8l-30.7 31.2 37 45.2-107.8 85 35 39.1 140.3-110.6z"/><path class="n" d="m95.3 242.5c10.7-9.6 22.6-19.3 35.3-29 50-37.9 98.4-62.5 121.9-63.4l-66.7-81.3-30.7 31.2 37 45.2-107.8 85z"/><path class="o" d="m160.4 207.9c0 1.4 1.2 2.5 2.5 2.5 1.4 0 2.5-1.1 2.5-2.5 0-1.3-1.1-2.4-2.5-2.4-1.3 0-2.5 1.1-2.5 2.4z"/><path class="o" d="m115.3 138l70.1 83.6 8.1-6.3-69.2-87.2z"/><path class="p" d="m152.3 182.2c3.4-2 6.6-4.3 9.5-6.8l-37.5-47.3-9 9.9z"/><path class="d" d="m156.6 94l81.4 85.4 87.6-65.6-86.9-107.3z"/><path class="l" d="m230 27l-60.2 65.5 9.3 11.8 68.6-52.8z"/><path class="n" d="m286.4 65.4l-91.6 68.6 43.2 45.4 87.6-65.6z"/><path class="m" d="m300.5 88.1l-82.3 69.3 22.9 24.8 84.5-68.4z"/><path class="p" d="m237.2 183.1l-82.1-88.8 2.9-2.8 83.3 90.8z"/><path class="n" d="m229.1 16.7l77.4 112.6 19.6-14.5-87.4-108.3z"/><path class="p" d="m320.5 122.8l-89.8-114.5 7.7-8.3 91.7 116.6z"/><path class="m" d="m217.5 134.6l-39.9 39.9-18.6 144.7 97.4-2.4v-143.3z"/><path class="q" d="m256.4 248.8c-21 10.1-61 36.9-97 67.6l-0.4 2.8 97.4-2.4z"/><path class="d" d="m177.6 174.5l-13.4 104.5c30.4 1.1 68.4-29.1 92.2-76v-29.5l-38.9-38.9z"/><path class="p" d="m192 185.5c0 14.8 11.9 26.7 26.7 26.7 14.7 0 26.6-11.9 26.6-26.7 0-14.7-11.9-26.6-26.6-26.6-14.8 0-26.7 11.9-26.7 26.6z"/><path class="o" d="m53.8 198.9l66.2 75.1 10.1-8.6-66.7-76.6z"/><path class="p" d="m99.5 230.2l-36.1-41.4-9.6 10.1 31.5 35.7c5-1.1 9.8-2.5 14.2-4.4z"/><path class="b" d="m247.4 317.7h-79.5l14.1-129.9c0.1-0.5 0.5-0.8 1-0.8 0.5 0.1 0.9 0.5 0.8 1l-13.9 127.9h75.8l1.7-106.7c0.1-0.5 0.4-0.9 0.9-0.9q0 0 0 0c0.5 0 0.9 0.4 0.9 0.9z"/><path class="p" d="m132.9 336.3h158.9l-11.1-24.6-135.5 0.6z"/><path class="d" d="m30 334.4h-7.3c0 0 0.5-2.1 1.7-2.7 1.3-0.6 5.6 2.7 5.6 2.7z"/><path class="d" d="m13.5 334.4h4.8c0 0-0.9-2.1-1.9-2.7-1-0.6-2.9 2.7-2.9 2.7z"/><path class="g" d="m27 249.1l-1.7 2.5 2.9 2.8 2.4-1.9z"/><path class="c" d="m25.8 249.5l4.7 4.3c0 0 10-11.9 10.3-13.5 0.1-1.1-2.1-3.7-2.4-3.8-0.3-0.1-3.7 0-4.4 0.5-0.7 0.6-8.2 12.5-8.2 12.5z"/><path class="d" d="m34.3 237.6c-0.7 0.6-8.5 11.9-8.5 11.9l3.3 2.9c1.7-2 9.9-12 10.1-13.6 0.1-0.6-0.5-1.5-1-2.4-0.9 0-3.3 0.8-3.9 1.2z"/><path class="r" d="m12.4 239c-2.8-1.9-1.2-5.9-1.2-5.9 0 0-0.6-2 0.9-4.1 1.4-2.2 5.8-2.7 5.8-2.7 0 0 2.3-1.2 4-0.1 1.7 1.1 2.9 3.3 2.9 3.3 0 0 2.2 1.4 2.1 3.1-0.2 2.7-1.2 4.9-3.1 5.8-1.8 3-4.5 3.6-7.9 2.3-1.7 0.1-3-0.2-3.5-1.7z"/><path class="s" d="m20 229c-0.6-1-1-2.1-1.1-3.1-0.6 0.2-1 0.4-1 0.4q0 0-0.2 0.1c0.9 0.9 1.5 2.1 1.5 3.5 3.2 2.2 3.5 3.8 2.6 4.9-1 1.2-2.5 2.8-5.1 1.8-1 1-5.8 0.3-5.9-2.2-0.2 1.3-0.2 3.4 1.6 4.6 0.5 1.5 1.8 1.8 3.5 1.7 3.4 1.3 6.1 0.7 7.9-2.3 1.9-0.9 2.9-3.1 3.1-5.8 0-0.5-0.1-0.9-0.4-1.3-2 1.1-4.9 0.1-6.5-2.3z"/><path class="j" d="m15.3 240.4c0-1.4-0.4-2.3 0.2-2.6 0.5-0.3 2.8 0.6 4.1 0.5 1.3-0.2 2.2-1.4 2.2-1.4l1.8-1.2c0 0 0.3 6.7-3.5 7.2-2.5 0.4-4.7-0.8-4.8-2.5z"/><path class="j" d="m14.2 239.8c-2.1-1.3-2.7-2.8-1.4-2.8 1.8-0.1 1.4 2.8 1.4 2.8z"/><path class="j" d="m24.3 236.9c1.5-1.8 1.6-3.1 0.8-2.9-0.9 0.1-0.8 2.9-0.8 2.9z"/><path class="c" d="m7.5 247.2l-2.1 16.4c0.3-0.1 4.7-1.6 4.7-1.6 0 0-1.4-12.9-2.6-14.8z"/><path class="j" d="m27.7 262c0-0.2-1.9-1.6-2.1-1.8-0.2-0.1-1.4-0.3-1.4-0.3l-0.4 1c1.8 0.4 3.2 1.7 3.6 1.8 0.3 0.1 0.4-0.5 0.3-0.7z"/><path class="j" d="m28.6 260.4c0-0.2-1.8-1.8-2-1.9-0.1-0.1-1.3-0.5-1.3-0.5l-0.5 1.1c1.8 0.5 3 1.9 3.4 2 0.4 0.1 0.5-0.5 0.4-0.7z"/><path class="j" d="m28.8 258.2c-0.1-0.2-2-1.7-2.2-1.8-0.1-0.1-1.3-0.4-1.3-0.4l-0.5 1.1c1.9 0.4 3.2 1.7 3.6 1.8 0.4 0.1 0.5-0.5 0.4-0.7z"/><path class="j" d="m24.7 255.7c0 0-2.6 0.6-2.9 0.8-0.3 0.1-1.9 0.9-2.6 1.3l0.3 3.8c0 0 2-0.5 2.3-0.6 0.2-0.1 3.1 0.1 3.3 0 0.3 0 0.8-4.6 0.8-4.6z"/><path class="g" d="m19.9 257.1l-2.4 0.6 1 4.9 2.1-0.8z"/><path class="t" d="m10.7 255.6l0.5 3.9 5.2-0.7-0.5-4.1z"/><path class="c" d="m12.6 254.5l0.1 1.2 1-0.2-0.1-1.3z"/><path class="d" d="m18 257c0.6 1.5 1.3 6.2 1.3 6.2 0 0-14.4 5-15.6 4.6-1.2-0.5-2.7-2.4-2.8-3.5-0.2-1.2 4.1-20.8 4.9-21.1 0.8-0.3 2.1 3.3 2.3 4.7 0.3 1.5-0.3 11.3-0.3 11.3z"/><path class="c" d="m4.6 266c0 0-2.5-1.1-2.8-2.1-0.1-0.2 0.2-3.4 0.5-7.5-0.8 4-1.5 7.4-1.4 7.9 0.1 1.1 1.6 3 2.8 3.5 1.2 0.4 15.6-4.6 15.6-4.6 0 0-0.1-0.6-0.2-1.4z"/><path class="m" d="m60.2 246.1c0 4.7 3.8 8.4 8.4 8.4 4.6 0 8.4-3.7 8.4-8.4 0-4.6-3.8-8.4-8.4-8.4-4.6 0-8.4 3.8-8.4 8.4z"/><path class="b" d="m53.6 241.7c0 1.1 1 2.1 2.1 2.1 1.1 0 2-1 2-2.1 0-1.1-0.9-2-2-2-1.1 0-2.1 0.9-2.1 2z"/><path class="b" d="m52.9 250.6c0 1.2 0.9 2.1 2 2.1 1.1 0 2.1-0.9 2.1-2.1 0-1.1-1-2-2.1-2-1.1 0-2 0.9-2 2z"/><path class="p" d="m192 185.5c0 14.8 11.9 26.7 26.7 26.7 14.7 0 26.6-11.9 26.6-26.7 0-14.7-11.9-26.6-26.6-26.6-14.8 0-26.7 11.9-26.7 26.6z"/><path class="o" d="m193.9 185.5c0 13.7 11.1 24.8 24.8 24.8 13.7 0 24.8-11.1 24.8-24.8 0-13.7-11.1-24.8-24.8-24.8-13.7 0-24.8 11.1-24.8 24.8z"/><path class="m" d="m195.4 185.5c0 12.9 10.4 23.2 23.3 23.2 12.8 0 23.2-10.3 23.2-23.2 0-12.8-10.4-23.2-23.2-23.2-12.9 0-23.3 10.4-23.3 23.2z"/><path class="m" d="m202.6 185.5c0 8.9 7.2 16.1 16.1 16.1 8.8 0 16-7.2 16-16.1 0-8.8-7.2-16-16-16-8.9 0-16.1 7.2-16.1 16z"/><path class="d" d="m203.5 187.3c0-8.8 7.2-16 16.1-16 5.9 0 11.1 3.2 13.9 8.1-2.5-5.8-8.2-9.9-14.8-9.9-8.9 0-16.1 7.2-16.1 16 0 2.9 0.8 5.6 2.2 8-0.8-1.9-1.3-4-1.3-6.2z"/><path class="n" d="m232.1 176.8c1.1 2.1 1.7 4.6 1.7 7.2 0 8.8-7.2 16-16 16-5.7 0-10.6-2.9-13.5-7.3 2.7 5.3 8.1 8.9 14.4 8.9 8.8 0 16-7.2 16-16.1 0-3.2-1-6.2-2.6-8.7z"/><path class="p" d="m211 185.5c0 4.2 3.4 7.7 7.7 7.7 4.2 0 7.6-3.5 7.6-7.7 0-4.2-3.4-7.6-7.6-7.6-4.3 0-7.7 3.4-7.7 7.6z"/><path class="u" d="m280.7 311.7h-4.9l-9.5 18.5-130.6 0.6-2.8 5.5h158.9z"/><path class="o" d="m292.2 68.5l-9.5 6.1 37.8 48.2 9.6-6.2z"/><path class="b" d="m63.6 246.1c0 2.8 2.2 5.1 5 5.1 2.8 0 5-2.3 5-5.1 0-2.7-2.2-5-5-5-2.8 0-5 2.3-5 5z"/><path class="b" d="m89 259.8l-27.4 12.9-6.3-6.1-3.9 2.5 9.9 7.1 32.6-15.5z"/><path class="p" d="m222.1 24.2l79.2 109.3 1.3-1.1-79.3-109.5z"/><path class="p" d="m294.9 138.7l1.4-1.2-81.3-105.7-1.3 1.3z"/><path class="s" d="m16.6 233c-1.6 0.8-4.1 0.6-5.5-1.3-0.1 0.8 0.1 1.4 0.1 1.4 0 0-0.1 0.2-0.2 0.6 1.4 0.6 3.4 0.7 5.6-0.7z"/><path class="s" d="m16.9 241.7c1.3 0 2.6-1.3 3.7-0.9 1 0.3 1.9 0 1.9 0 0 0-0.6 2-2.4 1.2 0 0-0.9 0.9-1.9 0.7-1.1-0.3-1.3-1-1.3-1z"/><path class="v" d="m19.9 238.6c0 0-0.8 2.4-0.6 2.6 0.3 0.3 0.9 0.6 1.1 0.4 0.2-0.2 0.6-0.6 0.6-0.8 0-0.4-1.1-2.2-1.1-2.2z"/><path class="w" d="m18.8 240.2c0-0.4-0.3-0.9-0.7-0.9-0.5-0.1-0.7 0.4-0.6 0.9 0.1 0.3 0.4 0.5 0.7 0.5 0.3 0 0.5-0.2 0.6-0.5z"/><path class="w" d="m22.2 239.4c0.2-0.4 0.1-0.9-0.4-0.9-0.4-0.1-0.8 0.4-0.8 0.9 0 0.4 0.2 0.6 0.5 0.6 0.2 0 0.5-0.2 0.7-0.6z"/><path class="s" d="m16.5 239.7c1.4 0.8 3.1 0.4 3.2 0.2 0.1-0.1 0.1-0.8-0.1-0.8-0.1-0.1-2.9-0.3-3.1-0.3-0.2 0-0.1 0.8 0 0.9z"/><path class="s" d="m20.5 239.6c1 0.1 2.2-0.9 2.2-1 0.1-0.2 0.3-0.9 0.2-0.9-0.1 0-2.4 1.1-2.6 1.2-0.1 0.1 0 0.7 0.2 0.7z"/></svg>