<svg version="1.2" xmlns="http://www.w3.org/2000/svg" viewBox="0 0 932 64" width="932" height="64"><style>.a{fill:#0796ad}.b{fill:#09b4c6}.c{fill:#07d5e0}</style><path class="a" d="m894.9 0.6c-12.9 0-24.5 4.8-31 12.1-6.5-7.3-17.9-12.1-30.7-12.1-12.9 0-24.2 4.8-30.7 12.1-6.5-7.3-17.8-12.1-30.6-12.1-13.3 0-24.9 5.1-31.3 12.9-6.4-7.8-18-12.9-31.3-12.9-12.8 0-24.1 4.8-30.5 12.1-6.5-7.3-17.8-12.1-30.6-12.1-12.9 0-24.1 4.8-30.6 12.1-6.5-7.3-17.8-12.1-30.6-12.1-12.9 0-24.1 4.8-30.6 12.1-6.5-7.3-17.8-12.1-30.6-12.1-12.8 0-24.1 4.8-30.6 12.1-6.5-7.3-17.8-12.1-30.6-12.1-12.8 0-24.1 4.8-30.6 12.1-6.5-7.3-17.7-12.1-30.6-12.1-12.8 0-24.1 4.8-30.6 12.1-6.5-7.3-17.7-12.1-30.6-12.1-12.8 0-24 4.8-30.5 12.1-6.5-7.3-17.8-12.1-30.6-12.1-13.3 0-24.9 5.1-31.3 12.9-6.3-7.8-18-12.9-31.2-12.9-12.8 0-24.1 4.8-30.6 12.1-6.5-7.3-17.8-12.1-30.6-12.1-12.8 0-24.1 4.8-30.6 12.1-6.5-7.3-17.8-12.1-30.6-12.1-12.8 0-24.1 4.8-30.6 12.1-6.5-7.3-17-12.1-29.9-12.1-20.1 0-35.7 11.9-35.7 26.7v22.7h932v-22.7c0-14.8-17-26.7-37.1-26.7z"/><path class="b" d="m894.9 8.4c-12.9 0-24.5 4.9-31 12.2-6.5-7.3-17.9-12.2-30.7-12.2-12.9 0-24.2 4.9-30.7 12.2-6.5-7.3-17.8-12.2-30.6-12.2-13.3 0-24.9 5.2-31.3 13-6.4-7.8-18-13-31.3-13-12.8 0-24.1 4.9-30.5 12.2-6.5-7.3-17.8-12.2-30.6-12.2-12.9 0-24.1 4.9-30.6 12.2-6.5-7.3-17.8-12.2-30.6-12.2-12.9 0-24.1 4.9-30.6 12.2-6.5-7.3-17.8-12.2-30.6-12.2-12.8 0-24.1 4.9-30.6 12.2-6.5-7.3-17.8-12.2-30.6-12.2-12.8 0-24.1 4.9-30.6 12.2-6.5-7.3-17.7-12.2-30.6-12.2-12.8 0-24.1 4.9-30.6 12.2-6.5-7.3-17.7-12.2-30.6-12.2-12.8 0-24 4.9-30.5 12.2-6.5-7.3-17.8-12.2-30.6-12.2-13.3 0-24.9 5.2-31.3 13-6.3-7.8-18-13-31.2-13-12.8 0-24.1 4.9-30.6 12.2-6.5-7.3-17.8-12.2-30.6-12.2-12.8 0-24.1 4.9-30.6 12.2-6.5-7.3-17.8-12.2-30.6-12.2-12.8 0-24.1 4.9-30.6 12.2-6.5-7.3-17-12.2-29.9-12.2-20.1 0-35.7 12-35.7 26.7v20.9h932v-20.9c0-14.7-17-26.7-37.1-26.7z"/><path class="c" d="m894.9 17.6c-12.9 0-24.5 4.9-31 12.2-6.5-7.3-17.9-12.2-30.7-12.2-12.9 0-24.2 4.9-30.7 12.2-6.5-7.3-17.8-12.2-30.6-12.2-13.3 0-24.9 5.2-31.3 13-6.4-7.8-18-13-31.3-13-12.8 0-24.1 4.9-30.5 12.2-6.5-7.3-17.8-12.2-30.6-12.2-12.9 0-24.1 4.9-30.6 12.2-6.5-7.3-17.8-12.2-30.6-12.2-12.9 0-24.1 4.9-30.6 12.2-6.5-7.3-17.8-12.2-30.6-12.2-12.8 0-24.1 4.9-30.6 12.2-6.5-7.3-17.8-12.2-30.6-12.2-12.8 0-24.1 4.9-30.6 12.2-6.5-7.3-17.7-12.2-30.6-12.2-12.8 0-24.1 4.9-30.6 12.2-6.5-7.3-17.7-12.2-30.6-12.2-12.8 0-24 4.9-30.5 12.2-6.5-7.3-17.8-12.2-30.6-12.2-13.3 0-24.9 5.2-31.3 13-6.3-7.8-18-13-31.2-13-12.8 0-24.1 4.9-30.6 12.2-6.5-7.3-17.8-12.2-30.6-12.2-12.8 0-24.1 4.9-30.6 12.2-6.5-7.3-17.8-12.2-30.6-12.2-12.8 0-24.1 4.9-30.6 12.2-6.5-7.3-17-12.2-29.9-12.2-20.1 0-35.7 12-35.7 26.7v19.7h932v-19.7c0-14.7-17-26.7-37.1-26.7z"/></svg>