<svg version="1.2" xmlns="http://www.w3.org/2000/svg" viewBox="0 0 866 284" width="866" height="284"><style>.a{fill:#ddd}.b{opacity:.7;mix-blend-mode:multiply;fill:#ddd}.c{fill:#5da0a2}.d{fill:#aacfd0}.e{fill:#476268}.f{fill:#fff}.g{fill:none;stroke:#fff;stroke-width:1.6}.h{opacity:.3;mix-blend-mode:screen;fill:#fff}.i{opacity:.3;mix-blend-mode:overlay;fill:#fff}.j{fill:#34495e}</style><path class="a" d="m160.2 218l55.1-56.1h49.6l-48 62.1z"/><path class="b" d="m248.9 178.3h-49.7l6.3-6.5h47.5z"/><path class="a" d="m358.6 170.4c0 0 73.7 53 75.3 53 1.6 0 96.8-10.5 96.8-12.9 0-2.5 15.3-52.5 15.3-52.5h-131.1z"/><g style="opacity:.7;mix-blend-mode:multiply"><path class="a" d="m546.6 163.6v-13.3h-73.5l1.7-1.7-9.4-9.3-11 11h-7.4v7.4l-7.4 7.4h-72.7v13.2h78.3l14.6-14.7z"/></g><path class="c" d="m255.2 153.1h-28.1v-13.4h28.1z"/><g style="opacity:.3;mix-blend-mode:multiply"><path class="c" d="m241.1 153.1h-14v-13.4h14z"/></g><path class="d" d="m521.7 190l24.9-30.1h104.3l56.9 30.1z"/><path fill-rule="evenodd" class="e" d="m714.1 191.6h-195.7l27.5-33.2h105.4zm-166.7-30.1l-22.4 27h176.6l-51.1-27z"/><path class="c" d="m10.1 277.4l775.6 6.5 80.1-92.3h-421.9l-35.5 24.3h-187.8l-11.1-11.1h-130.6c0 0-37.2 30.5-49.4 59.6l-29.3-0.2z"/><path class="f" d="m75.7 152.5h164.3l13.8-12.7 301.1-4.1 96.4 22.7h-195.9l-13.5 13.4h-384z"/><path class="f" d="m477.8 103.5l55 36.2-75-49.5h-111.6l-4.5 4.5h-63.9l-8.9 8.9h45.9l-55.6 36.1 62.4-0.9 36.8-36.2h118.2"/><path class="f" d="m384.7 90.2h-13.3v-10.1h13.3z"/><g style="opacity:.4"><path class="d" d="m378 90.2h-6.6v-10.1h6.6z"/></g><path class="g" d="m267.5 145.4v-144.9"/><path class="g" d="m279.7 157.6v-144.9"/><path class="f" d="m177.3 145.4h-31.2v-9.7h31.2z"/><path class="f" d="m175.9 152.5h-19.1v-7.3h19.1z"/><g style="opacity:.4"><path class="d" d="m166.3 152.5h-9.5v-7.1h9.5z"/></g><path class="f" d="m146.1 143.6h-34.8v-7.9h34.8z"/><path class="f" d="m106 143.6h-8.5v-7.9h8.5z"/><g style="opacity:.4"><path class="d" d="m146.1 143.6h-48.6v-3.9h48.6z"/></g><path class="d" d="m363 97.1h102.4l87.7 38.4-235.8 2z"/><path fill-rule="evenodd" class="e" d="m466.5 95.7l79.9 35 14.8 6.4-16.2 0.2-223 1.8-9.3 0.1 6.9-6.1 41.8-36.9 1-0.8h103.4zm-102.8 3.1l-41.7 36.9 223.1-1.9-80-35z"/><path class="h" d="m425.5 98.8l52.9 35.6 26-0.2-56.5-35.4c0 0-22.4 0-22.4 0z"/><path class="h" d="m386 98.8l53.4 35.9 26-0.2-57-35.7c0 0-22.4 0-22.4 0z"/><path class="f" d="m204.4 152.5h-18.2v-16.8h18.2z"/><g style="opacity:.4"><path class="d" d="m195.3 152.5h-9.1v-16.8h9.1z"/></g><path class="i" d="m858.2 200.3h-426.8l12.5-8.7h421.9z"/><path class="i" d="m214 209.3h-140.3c1.8-1.6 3.5-3.1 5.2-4.5h130.6z"/><path class="f" d="m111.3 146.4h-5.3v-13.5h5.3z"/><g style="opacity:.4"><path class="d" d="m112.3 143.6h-1v-7.9h1z"/></g><g style="opacity:.4"><path class="d" d="m175.9 146.1h-19.1v-0.7h19.1z"/></g><g style="opacity:.4"><path class="d" d="m204.4 152.5h-18.2v-1h18.2z"/></g><g style="opacity:.4"><path class="d" d="m146.1 143.6h-0.9v-7.9h0.9z"/></g><path class="d" d="m222.4 214.8l25.2-41.9h135.4l58.6 19-32.3 23.3z"/><path fill-rule="evenodd" class="e" d="m443.9 191.6l-34.3 24.6-189-0.3 26.5-44.1h136zm-195.6-17.6l-23.9 39.8 184.6 0.4 30.3-21.9-56.4-18.3z"/><path class="h" d="m355.7 173.8l40.2 40.2h12.7l-43.9-40.2z"/><path class="h" d="m307.1 173.9l33 40.2h49.9l-39.3-40.2z"/><path class="j" d="m615.4 250.2h-50.9v-13.7h50.9z"/><g style="opacity:.2;mix-blend-mode:multiply"><path class="j" d="m589.9 250.2h-25.4v-13.7h25.4z"/></g><path class="b" d="m615.4 239.6h-50.9v-3.1h50.9z"/><path class="j" d="m499.9 256.8h-50.2v-26.9h50.2z"/><g style="opacity:.3;mix-blend-mode:multiply"><path class="j" d="m474.8 256.8h-25.1v-26.9h25.1z"/></g><g style="opacity:.3;mix-blend-mode:multiply"><path class="j" d="m499.9 234.6h-50.2v-4.7h50.2z"/></g><path class="j" d="m432.3 256.8h-17.4v-26.9h17.4z"/><g style="opacity:.3;mix-blend-mode:multiply"><path class="j" d="m423.6 256.8h-8.7v-26.9h8.7z"/></g><g style="opacity:.3;mix-blend-mode:multiply"><path class="j" d="m432.3 232.6h-17.4v-2.7h17.4z"/></g><path class="j" d="m229.7 247.9h-34.2v-9.1h34.2z"/><g style="opacity:.3;mix-blend-mode:multiply"><path class="j" d="m212.6 247.9h-17.1v-9.1h17.1z"/></g><g style="opacity:.3;mix-blend-mode:multiply"><path class="j" d="m229.7 240.3h-34.2v-1.5h34.2z"/></g><path class="j" d="m143.1 247.9h-38.8v-9.1h38.8z"/><g style="opacity:.3;mix-blend-mode:multiply"><path class="j" d="m123.7 247.9h-19.4v-9.1h19.4z"/></g><g style="opacity:.3;mix-blend-mode:multiply"><path class="j" d="m143.1 240.8h-38.8v-2h38.8z"/></g><path class="h" d="m620.4 161.5h15.6l45.5 27h-18.2z"/><path class="h" d="m606.9 161.5h5l41.8 27h-6.4z"/><path class="j" d="m774.7 210.7c0 3.1-2.5 5.6-5.6 5.6-3 0-5.5-2.5-5.5-5.6 0-3 2.5-5.5 5.5-5.5 3.1 0 5.6 2.5 5.6 5.5z"/><g style="opacity:.2;mix-blend-mode:multiply"><path class="j" d="m772.7 210.7c0 2-1.6 3.6-3.6 3.6-1.9 0-3.5-1.6-3.5-3.6 0-1.9 1.6-3.5 3.5-3.5 2 0 3.6 1.6 3.6 3.5z"/></g><g style="opacity:.4"><path class="d" d="m336.1 100h-63.6l5.3-5.3h63.9z"/></g><g style="opacity:.4"><path class="d" d="m455.3 158.4h196l-24-5.7h-173.6v0.1l-14.2 14.2h-377.2l-4.4 4.8h384l0.4-0.4z"/></g><path class="c" d="m0.2 264.2h802.5l-17 19.7h-771.3z"/><g style="opacity:.6;mix-blend-mode:multiply"><path class="c" d="m802.7 264.2h-802.5l14.2 19.7h771.3z"/></g></svg>