<svg width="558.65px" height="143.20000610351562px" xmlns="http://www.w3.org/2000/svg" viewBox="-29.32499999999999 3.3999969482421903 558.65 143.20000610351562" style="background: rgba(255, 255, 255, 0);" preserveAspectRatio="xMidYMid"><defs><linearGradient id="editing-gradient-gradient" x1="0" x2="1" y1="0.5" y2="0.5" gradientUnits="objectBoundingBox"><stop offset="0" stop-color="#1F1F1F"></stop><stop offset="1" stop-color="#1F1F1F"></stop></linearGradient></defs><g><g transform="translate(52.41999042034149, 100.2199935913086)"><path d="M60.16-0.13L47.28 1.09L47.28 1.09Q47.16 0.38 46.94-1.53L46.94-1.53L46.94-1.53Q46.72-3.44 46.45-6.03L46.45-6.03L46.45-6.03Q46.19-8.63 45.88-11.72L45.88-11.72L45.88-11.72Q45.56-14.81 45.28-17.94L45.28-17.94L45.28-17.94Q44.56-25.25 43.78-34.06L43.78-34.06L36.94 0.25L23.56 1.09L23.56 1.09Q21.88-5.84 20.38-12.34L20.38-12.34L20.38-12.34Q19.72-15.09 19.05-18.05L19.05-18.05L19.05-18.05Q18.38-21 17.73-23.83L17.73-23.83L17.73-23.83Q17.09-26.66 16.55-29.22L16.55-29.22L16.55-29.22Q16-31.78 15.63-33.78L15.63-33.78L15.63-33.78Q15.50-32.09 15.30-29.70L15.30-29.70L15.30-29.70Q15.09-27.31 14.86-24.55L14.86-24.55L14.86-24.55Q14.63-21.78 14.36-18.81L14.36-18.81L14.36-18.81Q14.09-15.84 13.81-13L13.81-13L13.81-13Q13.19-6.31 12.47 1.09L12.47 1.09L1.41 1.09L1.41 1.09Q3.25-10.50 4.61-22.03L4.61-22.03L4.61-22.03Q5.97-33.56 6.66-45.44L6.66-45.44L24.84-46.41L32.25-12.47L32.25-12.47Q33.59-18.88 34.78-25.03L34.78-25.03L34.78-25.03Q35.28-27.66 35.80-30.50L35.80-30.50L35.80-30.50Q36.31-33.34 36.75-36.14L36.75-36.14L36.75-36.14Q37.19-38.94 37.56-41.56L37.56-41.56L37.56-41.56Q37.94-44.19 38.16-46.41L38.16-46.41L55.44-46.41L55.44-46.41Q56.06-34.91 57.22-23.41L57.22-23.41L57.22-23.41Q58.38-11.91 60.16-0.13L60.16-0.13ZM87.25-6.47L87.25-6.47L87.25-6.47Q87.44-9.13 87.52-11.63L87.52-11.63L87.52-11.63Q87.59-14.13 87.59-16.56L87.59-16.56L87.59-16.56Q87.59-19.09 87.52-21.55L87.52-21.55L87.52-21.55Q87.44-24 87.25-26.63L87.25-26.63L87.25-26.63Q86.19-26.78 85.14-26.83L85.14-26.83L85.14-26.83Q84.09-26.88 83.03-26.88L83.03-26.88L83.03-26.88Q78.66-26.88 74.59-25.91L74.59-25.91L74.59-25.91Q74.50-24.22 74.42-22.56L74.42-22.56L74.42-22.56Q74.34-20.91 74.34-19.25L74.34-19.25L74.34-19.25Q74.34-15.94 74.61-12.64L74.61-12.64L74.61-12.64Q74.88-9.34 75.41-5.75L75.41-5.75L75.41-5.75Q76.13-5.69 76.86-5.69L76.86-5.69L76.86-5.69Q77.59-5.69 78.38-5.69L78.38-5.69L78.38-5.69Q80.53-5.69 82.77-5.88L82.77-5.88L82.77-5.88Q85-6.06 87.25-6.47ZM98.84-16.31L98.84-16.31L98.84-16.31Q98.84-12.59 97.39-9.33L97.39-9.33L97.39-9.33Q95.94-6.06 93.44-3.63L93.44-3.63L93.44-3.63Q90.94-1.19 87.58 0.23L87.58 0.23L87.58 0.23Q84.22 1.66 80.41 1.66L80.41 1.66L80.41 1.66Q76.63 1.66 73.45 0.23L73.45 0.23L73.45 0.23Q70.28-1.19 67.98-3.63L67.98-3.63L67.98-3.63Q65.69-6.06 64.41-9.33L64.41-9.33L64.41-9.33Q63.13-12.59 63.13-16.31L63.13-16.31L63.13-16.31Q63.13-20.91 64.41-24.28L64.41-24.28L64.41-24.28Q65.69-27.66 67.98-29.88L67.98-29.88L67.98-29.88Q70.28-32.09 73.45-33.17L73.45-33.17L73.45-33.17Q76.63-34.25 80.41-34.25L80.41-34.25L80.41-34.25Q84.22-34.25 87.58-33.03L87.58-33.03L87.58-33.03Q90.94-31.81 93.44-29.50L93.44-29.50L93.44-29.50Q95.94-27.19 97.39-23.86L97.39-23.86L97.39-23.86Q98.84-20.53 98.84-16.31ZM137.19-17.59L137.19-17.59L137.19-17.59Q137.19-13.44 136.75-9.13L136.75-9.13L136.75-9.13Q136.31-4.81 135.25-0.50L135.25-0.50L124.38-0.50L124.38-0.50Q124.75-5.16 124.98-9.70L124.98-9.70L124.98-9.70Q125.22-14.25 125.22-18.88L125.22-18.88L125.22-18.88Q125.22-20.44 125.22-21.98L125.22-21.98L125.22-21.98Q125.22-23.53 125.16-25.09L125.16-25.09L125.16-25.09Q123.75-25.25 122.36-25.30L122.36-25.30L122.36-25.30Q120.97-25.34 119.56-25.34L119.56-25.34L119.56-25.34Q116.75-25.34 113.94-25.16L113.94-25.16L113.94-21.13L113.94-21.13Q113.94-15.97 114.09-10.86L114.09-10.86L114.09-10.86Q114.25-5.75 114.59-0.50L114.59-0.50L104.09-0.50L104.09-0.50Q104.09-11.81 103.78-22.91L103.78-22.91L103.78-22.91Q103.47-34 102.75-45.19L102.75-45.19L114.59-45.88L114.59-45.88Q114.38-41.78 114.22-37.72L114.22-37.72L114.22-37.72Q114.06-33.66 114-29.56L114-29.56L114-29.56Q115.81-30.94 117.75-31.67L117.75-31.67L117.75-31.67Q119.69-32.41 121.28-32.75L121.28-32.75L121.28-32.75Q123.16-33.16 124.94-33.22L124.94-33.22L124.94-33.22Q127.22-33.22 129.02-32.59L129.02-32.59L129.02-32.59Q130.81-31.97 132.17-30.86L132.17-30.86L132.17-30.86Q133.53-29.75 134.48-28.25L134.48-28.25L134.48-28.25Q135.44-26.75 136.05-25.02L136.05-25.02L136.05-25.02Q136.66-23.28 136.92-21.38L136.92-21.38L136.92-21.38Q137.19-19.47 137.19-17.59ZM142.16-32.63L154.06-32.63L154.06-32.63Q153.38-25.66 153.14-18.88L153.14-18.88L153.14-18.88Q152.91-12.09 152.91-5.31L152.91-5.31L152.91-5.31Q152.91-4.13 152.91-2.92L152.91-2.92L152.91-2.92Q152.91-1.72 152.97-0.50L152.97-0.50L143.31-0.50L143.31-0.50Q143.31-2.44 143.34-4.34L143.34-4.34L143.34-4.34Q143.38-6.25 143.38-8.13L143.38-8.13L143.38-8.13Q143.38-14.34 143.08-20.44L143.08-20.44L143.08-20.44Q142.78-26.53 142.16-32.63L142.16-32.63ZM154.06-42.75L154.06-42.75L154.06-42.75Q154.06-41.66 153.53-40.70L153.53-40.70L153.53-40.70Q153-39.75 152.06-39.05L152.06-39.05L152.06-39.05Q151.13-38.34 149.88-37.92L149.88-37.92L149.88-37.92Q148.63-37.50 147.22-37.50L147.22-37.50L147.22-37.50Q145.81-37.50 144.59-37.92L144.59-37.92L144.59-37.92Q143.38-38.34 142.47-39.05L142.47-39.05L142.47-39.05Q141.56-39.75 141.03-40.70L141.03-40.70L141.03-40.70Q140.50-41.66 140.50-42.75L140.50-42.75L140.50-42.75Q140.50-43.81 141.03-44.77L141.03-44.77L141.03-44.77Q141.56-45.72 142.47-46.42L142.47-46.42L142.47-46.42Q143.38-47.13 144.59-47.53L144.59-47.53L144.59-47.53Q145.81-47.94 147.22-47.94L147.22-47.94L147.22-47.94Q148.63-47.94 149.88-47.53L149.88-47.53L149.88-47.53Q151.13-47.13 152.06-46.42L152.06-46.42L152.06-46.42Q153-45.72 153.53-44.77L153.53-44.77L153.53-44.77Q154.06-43.81 154.06-42.75ZM189.25-33.22L189.25-23.81L189.25-23.81Q186.22-23.97 183.17-24.09L183.17-24.09L183.17-24.09Q180.13-24.22 177.09-24.31L177.09-24.31L177.09-24.31Q176.72-18.09 176.44-11.91L176.44-11.91L176.44-11.91Q176.16-5.72 176 0.56L176 0.56L166.88 1.47L166.88 1.47Q167.06-9.97 167.06-21.19L167.06-21.19L167.06-24.50L164.81-24.50L164.81-24.50Q162.94-24.50 161.06-24.47L161.06-24.47L161.06-24.47Q159.19-24.44 157.31-24.44L157.31-24.44L157.31-32.38L157.31-32.38Q158.13-32.38 158.95-32.34L158.95-32.34L158.95-32.34Q159.78-32.31 160.66-32.31L160.66-32.31L167-32.31L167-32.31Q167-35.22 166.97-38.05L166.97-38.05L166.97-38.05Q166.94-40.88 166.88-43.72L166.88-43.72L178.72-43.72L178.72-43.72Q178.41-40.91 178.17-38.14L178.17-38.14L178.17-38.14Q177.94-35.38 177.75-32.63L177.75-32.63L177.75-32.63Q180.66-32.75 183.48-32.89L183.48-32.89L183.48-32.89Q186.31-33.03 189.25-33.22L189.25-33.22ZM203.22-1.91L203.22-1.91L203.22-1.91Q203.22-1 202.77-0.20L202.77-0.20L202.77-0.20Q202.31 0.59 201.52 1.20L201.52 1.20L201.52 1.20Q200.72 1.81 199.67 2.16L199.67 2.16L199.67 2.16Q198.63 2.50 197.44 2.50L197.44 2.50L197.44 2.50Q196.22 2.50 195.16 2.16L195.16 2.16L195.16 2.16Q194.09 1.81 193.31 1.20L193.31 1.20L193.31 1.20Q192.53 0.59 192.08-0.20L192.08-0.20L192.08-0.20Q191.63-1 191.63-1.91L191.63-1.91L191.63-1.91Q191.63-2.84 192.08-3.66L192.08-3.66L192.08-3.66Q192.53-4.47 193.31-5.08L193.31-5.08L193.31-5.08Q194.09-5.69 195.16-6.05L195.16-6.05L195.16-6.05Q196.22-6.41 197.44-6.41L197.44-6.41L197.44-6.41Q198.63-6.41 199.67-6.05L199.67-6.05L199.67-6.05Q200.72-5.69 201.52-5.08L201.52-5.08L201.52-5.08Q202.31-4.47 202.77-3.66L202.77-3.66L202.77-3.66Q203.22-2.84 203.22-1.91ZM251.19-33.41L259.19-33.41L253.25 0.50L237.50 0.50L233.47-22.66L227.19-0.72L212.72-0.72L206.72-32.78L219.56-32.78L224-8.91L230.91-32.13L242.03-32.13L247.22-6.97L251.19-33.41ZM285.75-6.47L285.75-6.47L285.75-6.47Q285.94-9.13 286.02-11.63L286.02-11.63L286.02-11.63Q286.09-14.13 286.09-16.56L286.09-16.56L286.09-16.56Q286.09-19.09 286.02-21.55L286.02-21.55L286.02-21.55Q285.94-24 285.75-26.63L285.75-26.63L285.75-26.63Q284.69-26.78 283.64-26.83L283.64-26.83L283.64-26.83Q282.59-26.88 281.53-26.88L281.53-26.88L281.53-26.88Q277.16-26.88 273.09-25.91L273.09-25.91L273.09-25.91Q273-24.22 272.92-22.56L272.92-22.56L272.92-22.56Q272.84-20.91 272.84-19.25L272.84-19.25L272.84-19.25Q272.84-15.94 273.11-12.64L273.11-12.64L273.11-12.64Q273.38-9.34 273.91-5.75L273.91-5.75L273.91-5.75Q274.63-5.69 275.36-5.69L275.36-5.69L275.36-5.69Q276.09-5.69 276.88-5.69L276.88-5.69L276.88-5.69Q279.03-5.69 281.27-5.88L281.27-5.88L281.27-5.88Q283.50-6.06 285.75-6.47ZM297.34-16.31L297.34-16.31L297.34-16.31Q297.34-12.59 295.89-9.33L295.89-9.33L295.89-9.33Q294.44-6.06 291.94-3.63L291.94-3.63L291.94-3.63Q289.44-1.19 286.08 0.23L286.08 0.23L286.08 0.23Q282.72 1.66 278.91 1.66L278.91 1.66L278.91 1.66Q275.13 1.66 271.95 0.23L271.95 0.23L271.95 0.23Q268.78-1.19 266.48-3.63L266.48-3.63L266.48-3.63Q264.19-6.06 262.91-9.33L262.91-9.33L262.91-9.33Q261.63-12.59 261.63-16.31L261.63-16.31L261.63-16.31Q261.63-20.91 262.91-24.28L262.91-24.28L262.91-24.28Q264.19-27.66 266.48-29.88L266.48-29.88L266.48-29.88Q268.78-32.09 271.95-33.17L271.95-33.17L271.95-33.17Q275.13-34.25 278.91-34.25L278.91-34.25L278.91-34.25Q282.72-34.25 286.08-33.03L286.08-33.03L286.08-33.03Q289.44-31.81 291.94-29.50L291.94-29.50L291.94-29.50Q294.44-27.19 295.89-23.86L295.89-23.86L295.89-23.86Q297.34-20.53 297.34-16.31ZM336.75-15.88L325.50-14.97L325.50-14.97Q325.56-15.75 325.63-16.52L325.63-16.52L325.63-16.52Q325.69-17.28 325.69-18.06L325.69-18.06L325.69-18.06Q325.69-20.75 325.13-23.38L325.13-23.38L325.13-23.38Q322.22-23.25 319.36-22.97L319.36-22.97L319.36-22.97Q316.50-22.69 313.59-22.22L313.59-22.22L313.59-16L313.59-16Q313.59-11.91 313.59-7.89L313.59-7.89L313.59-7.89Q313.59-3.88 313.66 0.19L313.66 0.19L302.53 0.97L302.53 0.97Q302.63-0.19 302.64-1.31L302.64-1.31L302.64-1.31Q302.66-2.44 302.66-3.59L302.66-3.59L302.66-3.59Q302.66-10.84 302.39-17.94L302.39-17.94L302.39-17.94Q302.13-25.03 301.63-32.19L301.63-32.19L313.66-33.22L313.66-33.22Q313.66-32.34 313.63-31.48L313.63-31.48L313.63-31.48Q313.59-30.63 313.59-29.75L313.59-29.75L313.59-29.75Q315.41-31.06 317.23-31.75L317.23-31.75L317.23-31.75Q319.06-32.44 320.56-32.78L320.56-32.78L320.56-32.78Q322.28-33.16 323.91-33.22L323.91-33.22L323.91-33.22Q327.59-33.03 330.50-31.53L330.50-31.53L330.50-31.53Q331.72-30.91 332.91-29.92L332.91-29.92L332.91-29.92Q334.09-28.94 335.03-27.52L335.03-27.52L335.03-27.52Q335.97-26.09 336.53-24.17L336.53-24.17L336.53-24.17Q337.09-22.25 337.09-19.72L337.09-19.72L337.09-19.72Q337.09-18.84 337-17.89L337-17.89L337-17.89Q336.91-16.94 336.75-15.88L336.75-15.88ZM341.16-47.09L352.25-47.09L352.25-47.09Q351.44-35.34 351.17-23.70L351.17-23.70L351.17-23.70Q350.91-12.06 350.91-0.50L350.91-0.50L341.16-0.50L341.16-0.50Q341.31-6.25 341.38-11.91L341.38-11.91L341.38-11.91Q341.44-17.56 341.44-23.28L341.44-23.28L341.44-23.28Q341.44-29.28 341.38-35.19L341.38-35.19L341.38-35.19Q341.31-41.09 341.16-47.09L341.16-47.09ZM382-45.88L393.75-45.19L393.75-45.19Q393.03-34 392.72-22.52L392.72-22.52L392.72-22.52Q392.41-11.03 392.41 0.31L392.41 0.31L382 0.31L382.19-3.19L382.19-3.19Q380.69-1.75 378.88-0.97L378.88-0.97L378.88-0.97Q377.06-0.19 375.44 0.16L375.44 0.16L375.44 0.16Q373.53 0.56 371.63 0.63L371.63 0.63L371.63 0.63Q368.06 0.63 365.20-0.66L365.20-0.66L365.20-0.66Q362.34-1.94 360.36-4.25L360.36-4.25L360.36-4.25Q358.38-6.56 357.31-9.81L357.31-9.81L357.31-9.81Q356.25-13.06 356.25-16.97L356.25-16.97L356.25-16.97Q356.25-19.56 356.88-21.78L356.88-21.78L356.88-21.78Q357.50-24 358.59-25.81L358.59-25.81L358.59-25.81Q359.69-27.63 361.16-29L361.16-29L361.16-29Q362.63-30.38 364.28-31.31L364.28-31.31L364.28-31.31Q365.94-32.25 367.72-32.73L367.72-32.73L367.72-32.73Q369.50-33.22 371.25-33.22L371.25-33.22L371.25-33.22Q373.41-33.16 375.47-32.66L375.47-32.66L375.47-32.66Q376.34-32.44 377.28-32.11L377.28-32.11L377.28-32.11Q378.22-31.78 379.14-31.31L379.14-31.31L379.14-31.31Q380.06-30.84 380.92-30.22L380.92-30.22L380.92-30.22Q381.78-29.59 382.50-28.75L382.50-28.75L382.50-28.75Q382.41-33.09 382.28-37.36L382.28-37.36L382.28-37.36Q382.16-41.63 382-45.88L382-45.88ZM378.41-7.56L378.41-7.56L378.41-7.56Q379.28-7.56 380.27-7.56L380.27-7.56L380.27-7.56Q381.25-7.56 382.31-7.63L382.31-7.63L382.31-7.63Q382.47-10.84 382.52-14.11L382.52-14.11L382.52-14.11Q382.56-17.38 382.56-20.69L382.56-20.69L382.56-24.50L382.56-24.50Q380.22-24.75 378.23-24.92L378.23-24.92L378.23-24.92Q376.25-25.09 374-25.09L374-25.09L374-25.09Q372.81-25.09 371.55-25.05L371.55-25.05L371.55-25.05Q370.28-25 368.75-24.91L368.75-24.91L368.75-24.91Q368.34-22.09 368.16-19.31L368.16-19.31L368.16-19.31Q367.97-16.53 367.97-13.69L367.97-13.69L367.97-13.69Q367.97-12.28 367.98-10.91L367.98-10.91L367.98-10.91Q368-9.53 368.16-8.13L368.16-8.13L368.16-8.13Q369.72-7.97 371.05-7.88L371.05-7.88L371.05-7.88Q372.38-7.78 373.61-7.70L373.61-7.70L373.61-7.70Q374.84-7.63 376.02-7.59L376.02-7.59L376.02-7.59Q377.19-7.56 378.41-7.56Z" fill="url(#editing-gradient-gradient)"></path></g></g><style>text {
  font-size: 64px;
  font-family: Arial Black;
  dominant-baseline: central;
  text-anchor: middle;
}</style></svg>