<svg width="735.8500244140624px" height="150.4000061035156px" xmlns="http://www.w3.org/2000/svg" viewBox="-117.92501220703122 -0.20000305175780397 735.8500244140624 150.4000061035156" style="background: rgba(0, 0, 0, 0);" preserveAspectRatio="xMidYMid"><defs><linearGradient id="editing-gradient-gradient" x1="0" x2="1" y1="0.5" y2="0.5" gradientUnits="objectBoundingBox"><stop offset="0" stop-color="#ffffff"></stop><stop offset="1" stop-color="#ffffff"></stop></linearGradient></defs><g><g transform="translate(-13.534977793693542, 101.50999450683594)"><path d="M15.03-30.52L15.03-30.52L15.03-30.52Q15.03-30.52 12.74-30.44L12.74-30.44L11.41-20.06L13.14-20.06L13.14-20.06Q18.49-20.06 19.27-25.57L19.27-25.57L19.27-25.57Q19.43-27.93 18.64-29.22L18.64-29.22L18.64-29.22Q17.86-30.52 15.03-30.52ZM10.78-15.58L9.20-5.19L10.93-5.11L10.93-5.11Q14.16-5.11 15.89-6.29L15.89-6.29L15.89-6.29Q17.62-7.47 18.09-10.70L18.09-10.70L18.09-10.70Q18.80-15.65 12.90-15.65L12.90-15.65L11.80-15.65L11.80-15.65Q11.25-15.65 10.78-15.58L10.78-15.58ZM1.34 0L6.37-35.71L15.50-35.95L15.50-35.95Q22.03-35.95 24.70-33.94L24.70-33.94L24.70-33.94Q27.38-31.94 26.59-26.83L26.59-26.83L26.59-26.83Q26.12-23.76 24.54-21.67L24.54-21.67L24.54-21.67Q22.97-19.59 21.24-18.57L21.24-18.57L21.24-18.57Q26.35-17.07 25.57-10.31L25.57-10.31L25.57-10.31Q24.70-4.80 21.20-2.24L21.20-2.24L21.20-2.24Q17.70 0.31 10.78 0.31L10.78 0.31L10.78 0.31Q7.87 0.31 5.31 0.16L5.31 0.16L5.31 0.16Q2.75 0 1.34 0L1.34 0ZM45.71-16.28L45.71-16.28Q46.26-20.30 45.47-21.79L45.47-21.79L45.47-21.79Q44.68-23.29 43.23-23.29L43.23-23.29L43.23-23.29Q41.77-23.29 40.32-21.75L40.32-21.75L40.32-21.75Q38.86-20.22 38.31-16.28L38.31-16.28L45.71-16.28ZM42.24-4.88L42.24-4.88L42.24-4.88Q45.71-4.88 49.17-6.84L49.17-6.84L49.95-1.97L49.95-1.97Q48.07-0.55 43.66 0.31L43.66 0.31L43.66 0.31Q42.01 0.71 39.88 0.71L39.88 0.71L39.88 0.71Q37.76 0.71 35.75-0.08L35.75-0.08L35.75-0.08Q33.75-0.87 32.49-2.52L32.49-2.52L32.49-2.52Q29.58-6.29 30.60-13.14L30.60-13.14L30.60-13.14Q31.62-20.53 35.48-24.70L35.48-24.70L35.48-24.70Q39.10-28.48 43.97-28.48L43.97-28.48L43.97-28.48Q51.37-28.48 52.71-21.40L52.71-21.40L52.71-21.40Q53.41-17.70 52.16-12.90L52.16-12.90L52.16-12.90Q51.92-11.88 51.76-11.72L51.76-11.72L37.68-11.72L37.68-11.72Q37.13-8.10 38.51-6.49L38.51-6.49L38.51-6.49Q39.88-4.88 42.24-4.88ZM74.81-34.38L74.81-34.38L74.81-34.38Q73.87-34.85 72.10-34.85L72.10-34.85L72.10-34.85Q70.33-34.85 69.70-33.79L69.70-33.79L69.70-33.79Q69.07-32.73 68.68-30.05L68.68-30.05L68.36-27.85L73.40-27.85L72.53-22.50L67.65-22.50L62.70 12.35L55.38 12.35L60.34-22.50L57.35-22.50L58.06-27.85L60.97-27.85L61.44-31.07L61.44-31.07Q62.15-36.19 64.23-38.43L64.23-38.43L64.23-38.43Q66.32-40.67 69.46-40.67L69.46-40.67L69.46-40.67Q73.55-40.67 75.76-39.57L75.76-39.57L75.76-39.57Q75.44-37.21 74.81-34.38ZM89.25-4.64L89.25-4.64L89.25-4.64Q91.57-4.64 92.94-6.84L92.94-6.84L92.94-6.84Q94.32-9.05 94.99-13.96L94.99-13.96L94.99-13.96Q95.66-18.88 94.87-21.00L94.87-21.00L94.87-21.00Q94.09-23.13 91.80-23.13L91.80-23.13L91.80-23.13Q89.52-23.13 88.19-21.00L88.19-21.00L88.19-21.00Q86.85-18.88 86.18-13.92L86.18-13.92L86.18-13.92Q85.51-8.97 86.22-6.80L86.22-6.80L86.22-6.80Q86.93-4.64 89.25-4.64ZM102.66-20.61L102.66-20.61L102.66-20.61Q103.13-17.86 102.54-13.92L102.54-13.92L102.54-13.92Q101.95-9.99 100.73-7.24L100.73-7.24L100.73-7.24Q99.51-4.48 97.70-2.67L97.70-2.67L97.70-2.67Q94.32 0.71 88.50 0.71L88.50 0.71L88.50 0.71Q79.85 0.71 78.51-7.24L78.51-7.24L78.51-7.24Q78.04-9.99 78.67-14.00L78.67-14.00L78.67-14.00Q79.53-21.40 83.47-25.09L83.47-25.09L83.47-25.09Q87.01-28.48 92.51-28.48L92.51-28.48L92.51-28.48Q101.32-28.48 102.66-20.61ZM114.77-19.51L112.10 0L104.78 0L108.72-27.85L115.17-27.85L114.93-24.15L115.01-24.15L115.01-24.15Q116.19-26.04 118.00-27.30L118.00-27.30L118.00-27.30Q119.81-28.56 121.15-28.56L121.15-28.56L121.15-28.56Q122.48-28.56 122.92-28.36L122.92-28.36L122.92-28.36Q123.35-28.16 123.74-28.01L123.74-28.01L122.25-21.63L122.25-21.63Q121.78-21.71 121.03-21.95L121.03-21.95L121.03-21.95Q120.28-22.18 119.34-22.18L119.34-22.18L119.34-22.18Q118.39-22.18 117.37-21.55L117.37-21.55L117.37-21.55Q116.35-20.93 114.77-19.51L114.77-19.51ZM141.52-16.28L141.52-16.28Q142.07-20.30 141.29-21.79L141.29-21.79L141.29-21.79Q140.50-23.29 139.04-23.29L139.04-23.29L139.04-23.29Q137.59-23.29 136.13-21.75L136.13-21.75L136.13-21.75Q134.68-20.22 134.13-16.28L134.13-16.28L141.52-16.28ZM138.06-4.88L138.06-4.88L138.06-4.88Q141.52-4.88 144.98-6.84L144.98-6.84L145.77-1.97L145.77-1.97Q143.88-0.55 139.48 0.31L139.48 0.31L139.48 0.31Q137.82 0.71 135.70 0.71L135.70 0.71L135.70 0.71Q133.58 0.71 131.57-0.08L131.57-0.08L131.57-0.08Q129.56-0.87 128.31-2.52L128.31-2.52L128.31-2.52Q125.39-6.29 126.42-13.14L126.42-13.14L126.42-13.14Q127.44-20.53 131.29-24.70L131.29-24.70L131.29-24.70Q134.91-28.48 139.79-28.48L139.79-28.48L139.79-28.48Q147.19-28.48 148.52-21.40L148.52-21.40L148.52-21.40Q149.23-17.70 147.97-12.90L147.97-12.90L147.97-12.90Q147.74-11.88 147.58-11.72L147.58-11.72L133.50-11.72L133.50-11.72Q132.95-8.10 134.32-6.49L134.32-6.49L134.32-6.49Q135.70-4.88 138.06-4.88ZM193.83-35.71L192.89-29.58L185.65-29.58L181.48 0L173.93 0L178.02-29.58L170.71-29.58L171.49-35.71L193.83-35.71ZM196.27 0L201.70-39.02L209.17-40.04L206.97-24.31L207.05-24.31L207.05-24.31Q207.37-24.54 208.07-25.25L208.07-25.25L208.07-25.25Q208.78-25.96 209.80-26.67L209.80-26.67L209.80-26.67Q212.40-28.48 215.31-28.48L215.31-28.48L215.31-28.48Q219.24-28.48 220.50-26.12L220.50-26.12L220.50-26.12Q221.76-23.76 221.05-18.80L221.05-18.80L218.54 0L211.22 0L213.50-16.99L213.50-16.99Q213.89-19.98 213.50-21.04L213.50-21.04L213.50-21.04Q213.11-22.11 211.38-22.11L211.38-22.11L211.38-22.11Q209.88-22.11 208.70-21.24L208.70-21.24L208.70-21.24Q206.81-19.75 206.26-19.04L206.26-19.04L203.59 0L196.27 0ZM239.23-16.28L239.23-16.28Q239.78-20.30 238.99-21.79L238.99-21.79L238.99-21.79Q238.20-23.29 236.75-23.29L236.75-23.29L236.75-23.29Q235.29-23.29 233.84-21.75L233.84-21.75L233.84-21.75Q232.38-20.22 231.83-16.28L231.83-16.28L239.23-16.28ZM235.76-4.88L235.76-4.88L235.76-4.88Q239.23-4.88 242.69-6.84L242.69-6.84L243.47-1.97L243.47-1.97Q241.59-0.55 237.18 0.31L237.18 0.31L237.18 0.31Q235.53 0.71 233.40 0.71L233.40 0.71L233.40 0.71Q231.28 0.71 229.27-0.08L229.27-0.08L229.27-0.08Q227.27-0.87 226.01-2.52L226.01-2.52L226.01-2.52Q223.10-6.29 224.12-13.14L224.12-13.14L224.12-13.14Q225.14-20.53 229.00-24.70L229.00-24.70L229.00-24.70Q232.62-28.48 237.49-28.48L237.49-28.48L237.49-28.48Q244.89-28.48 246.23-21.40L246.23-21.40L246.23-21.40Q246.93-17.70 245.68-12.90L245.68-12.90L245.68-12.90Q245.44-11.88 245.28-11.72L245.28-11.72L231.20-11.72L231.20-11.72Q230.65-8.10 232.03-6.49L232.03-6.49L232.03-6.49Q233.40-4.88 235.76-4.88ZM299.96-35.71L307.35-35.71L294.92 0L287.76 0L286.03-22.73L277.85 0L270.85 0L268.41-35.71L275.96-35.71L276.99-11.56L284.69-32.80L290.52-32.80L292.17-11.56L299.96-35.71ZM320.45-4.64L320.45-4.64L320.45-4.64Q322.77-4.64 324.15-6.84L324.15-6.84L324.15-6.84Q325.52-9.05 326.19-13.96L326.19-13.96L326.19-13.96Q326.86-18.88 326.07-21.00L326.07-21.00L326.07-21.00Q325.29-23.13 323.01-23.13L323.01-23.13L323.01-23.13Q320.72-23.13 319.39-21.00L319.39-21.00L319.39-21.00Q318.05-18.88 317.38-13.92L317.38-13.92L317.38-13.92Q316.71-8.97 317.42-6.80L317.42-6.80L317.42-6.80Q318.13-4.64 320.45-4.64ZM333.86-20.61L333.86-20.61L333.86-20.61Q334.33-17.86 333.74-13.92L333.74-13.92L333.74-13.92Q333.15-9.99 331.93-7.24L331.93-7.24L331.93-7.24Q330.71-4.48 328.91-2.67L328.91-2.67L328.91-2.67Q325.52 0.71 319.70 0.71L319.70 0.71L319.70 0.71Q311.05 0.71 309.71-7.24L309.71-7.24L309.71-7.24Q309.24-9.99 309.87-14.00L309.87-14.00L309.87-14.00Q310.73-21.40 314.67-25.09L314.67-25.09L314.67-25.09Q318.21-28.48 323.71-28.48L323.71-28.48L323.71-28.48Q332.52-28.48 333.86-20.61ZM345.98-19.51L343.30 0L335.99 0L339.92-27.85L346.37-27.85L346.13-24.15L346.21-24.15L346.21-24.15Q347.39-26.04 349.20-27.30L349.20-27.30L349.20-27.30Q351.01-28.56 352.35-28.56L352.35-28.56L352.35-28.56Q353.69-28.56 354.12-28.36L354.12-28.36L354.12-28.36Q354.55-28.16 354.94-28.01L354.94-28.01L353.45-21.63L353.45-21.63Q352.98-21.71 352.23-21.95L352.23-21.95L352.23-21.95Q351.48-22.18 350.54-22.18L350.54-22.18L350.54-22.18Q349.59-22.18 348.57-21.55L348.57-21.55L348.57-21.55Q347.55-20.93 345.98-19.51L345.98-19.51ZM369.97-40.04L364.38 0L357.07 0L362.50-39.02L369.97-40.04ZM388.38-8.10L390.34-21.79L390.34-21.79Q388.61-22.73 387.04-22.73L387.04-22.73L387.04-22.73Q384.37-22.73 382.83-20.85L382.83-20.85L382.83-20.85Q381.30-18.96 380.63-14.04L380.63-14.04L380.63-14.04Q379.96-9.13 380.71-7.32L380.71-7.32L380.71-7.32Q381.45-5.51 383.66-5.51L383.66-5.51L383.66-5.51Q384.99-5.51 386.29-6.33L386.29-6.33L386.29-6.33Q387.59-7.16 388.38-8.10L388.38-8.10ZM377.91-24.98L377.91-24.98L377.91-24.98Q379.72-26.75 381.93-27.53L381.93-27.53L381.93-27.53Q384.13-28.32 386.41-28.32L386.41-28.32L386.41-28.32Q388.69-28.32 391.05-27.14L391.05-27.14L392.70-39.02L400.10-40.04L394.51 0L388.38 0L388.38-3.30L388.38-3.30Q383.89 0.71 379.65 0.71L379.65 0.71L379.65 0.71Q373.51 0.71 372.64-6.92L372.64-6.92L372.64-6.92Q372.33-9.60 372.88-13.57L372.88-13.57L372.88-13.57Q373.43-17.54 374.77-20.37L374.77-20.37L374.77-20.37Q376.11-23.21 377.91-24.98ZM440.85 0L421.50 0L426.53-35.71L445.80-35.71L444.86-29.58L433.30-29.58L432.12-21.32L440.93-21.32L440.14-15.58L431.25-15.58L429.91-6.14L441.63-6.14L440.85 0ZM448.09 0L452.02-27.85L458.47-27.85L458.15-24.31L458.31-24.31L458.31-24.31Q458.71-24.54 459.45-25.25L459.45-25.25L459.45-25.25Q460.20-25.96 461.38-26.67L461.38-26.67L461.38-26.67Q464.29-28.48 467.12-28.48L467.12-28.48L467.12-28.48Q471.06-28.48 472.31-26.12L472.31-26.12L472.31-26.12Q473.57-23.76 472.87-18.80L472.87-18.80L470.19 0L463.03 0L465.31-16.99L465.31-16.99Q465.71-19.98 465.23-21.04L465.23-21.04L465.23-21.04Q464.76-22.11 463.11-22.11L463.11-22.11L463.11-22.11Q461.69-22.11 460.51-21.24L460.51-21.24L460.51-21.24Q458.31-19.51 458.08-19.04L458.08-19.04L455.40 0L448.09 0ZM491.35-8.10L493.32-21.79L493.32-21.79Q491.59-22.73 490.01-22.73L490.01-22.73L490.01-22.73Q487.34-22.73 485.81-20.85L485.81-20.85L485.81-20.85Q484.27-18.96 483.60-14.04L483.60-14.04L483.60-14.04Q482.93-9.13 483.68-7.32L483.68-7.32L483.68-7.32Q484.43-5.51 486.63-5.51L486.63-5.51L486.63-5.51Q487.97-5.51 489.27-6.33L489.27-6.33L489.27-6.33Q490.57-7.16 491.35-8.10L491.35-8.10ZM480.89-24.98L480.89-24.98L480.89-24.98Q482.70-26.75 484.90-27.53L484.90-27.53L484.90-27.53Q487.10-28.32 489.39-28.32L489.39-28.32L489.39-28.32Q491.67-28.32 494.03-27.14L494.03-27.14L495.68-39.02L503.07-40.04L497.49 0L491.35 0L491.35-3.30L491.35-3.30Q486.87 0.71 482.62 0.71L482.62 0.71L482.62 0.71Q476.48 0.71 475.62-6.92L475.62-6.92L475.62-6.92Q475.30-9.60 475.85-13.57L475.85-13.57L475.85-13.57Q476.41-17.54 477.74-20.37L477.74-20.37L477.74-20.37Q479.08-23.21 480.89-24.98ZM504.96-1.49L506.93-6.37L506.93-6.37Q507.16-6.29 507.79-5.98L507.79-5.98L507.79-5.98Q508.42-5.66 509.29-5.35L509.29-5.35L509.29-5.35Q511.49-4.64 512.99-4.64L512.99-4.64L512.99-4.64Q514.48-4.64 515.38-5.15L515.38-5.15L515.38-5.15Q516.29-5.66 516.49-6.96L516.49-6.96L516.49-6.96Q516.68-8.26 516.05-9.16L516.05-9.16L516.05-9.16Q515.42-10.07 514.44-10.93L514.44-10.93L514.44-10.93Q513.46-11.80 512.28-12.70L512.28-12.70L512.28-12.70Q511.10-13.61 510.15-14.79L510.15-14.79L510.15-14.79Q507.95-17.39 508.42-20.85L508.42-20.85L508.42-20.85Q508.89-24.31 511.61-26.39L511.61-26.39L511.61-26.39Q514.32-28.48 518.89-28.48L518.89-28.48L518.89-28.48Q522.43-28.48 525.73-27.38L525.73-27.38L524.63-22.03L524.63-22.03Q524.00-22.11 522.46-22.58L522.46-22.58L522.46-22.58Q520.93-23.05 519.20-23.05L519.20-23.05L519.20-23.05Q515.90-23.05 515.50-20.85L515.50-20.85L515.50-20.85Q515.35-19.82 516.01-19.00L516.01-19.00L516.01-19.00Q516.68-18.17 517.71-17.35L517.71-17.35L517.71-17.35Q518.73-16.52 519.99-15.62L519.99-15.62L519.99-15.62Q521.25-14.71 522.27-13.61L522.27-13.61L522.27-13.61Q524.63-11.09 524.08-7.63L524.08-7.63L524.08-7.63Q523.76-4.17 521.09-1.73L521.09-1.73L521.09-1.73Q518.26 0.71 513.38 0.71L513.38 0.71L513.38 0.71Q510.15 0.71 508.50 0.08L508.50 0.08L508.50 0.08Q505.67-0.94 504.96-1.49L504.96-1.49Z" fill="url(#editing-gradient-gradient)"></path></g></g><style>text {
  font-size: 64px;
  font-family: Arial Black;
  dominant-baseline: central;
  text-anchor: middle;
}</style></svg>