<svg width="1257.575px" height="245.6px" xmlns="http://www.w3.org/2000/svg" viewBox="-378.7875 -47.8 1257.575 245.6" style="background: rgba(0, 0, 0, 0);" preserveAspectRatio="xMidYMid"><defs><linearGradient id="editing-gradient-gradient" x1="0" x2="1" y1="0.5" y2="0.5" gradientUnits="objectBoundingBox"><stop offset="0" stop-color="#ffffff"></stop><stop offset="1" stop-color="#ffffff"></stop></linearGradient></defs><g><g transform="translate(-205.60002374649048, 120.82999181747437)"><path d="M25.98-52.77L25.98-52.77L25.98-52.77Q25.98-52.77 22.03-52.63L22.03-52.63L19.72-34.68L22.71-34.68L22.71-34.68Q31.96-34.68 33.32-44.20L33.32-44.20L33.32-44.20Q33.59-48.28 32.23-50.52L32.23-50.52L32.23-50.52Q30.87-52.77 25.98-52.77ZM18.63-26.93L15.91-8.98L18.90-8.84L18.90-8.84Q24.48-8.84 27.47-10.88L27.47-10.88L27.47-10.88Q30.46-12.92 31.28-18.50L31.28-18.50L31.28-18.50Q32.50-27.06 22.30-27.06L22.30-27.06L20.40-27.06L20.40-27.06Q19.45-27.06 18.63-26.93L18.63-26.93ZM2.31 0L11.02-61.74L26.79-62.15L26.79-62.15Q38.08-62.15 42.70-58.68L42.70-58.68L42.70-58.68Q47.33-55.22 45.97-46.38L45.97-46.38L45.97-46.38Q45.15-41.07 42.43-37.47L42.43-37.47L42.43-37.47Q39.71-33.86 36.72-32.10L36.72-32.10L36.72-32.10Q45.56-29.51 44.20-17.82L44.20-17.82L44.20-17.82Q42.70-8.30 36.65-3.88L36.65-3.88L36.65-3.88Q30.60 0.54 18.63 0.54L18.63 0.54L18.63 0.54Q13.60 0.54 9.18 0.27L9.18 0.27L9.18 0.27Q4.76 0 2.31 0L2.31 0ZM79.02-28.15L79.02-28.15Q79.97-35.09 78.61-37.67L78.61-37.67L78.61-37.67Q77.25-40.26 74.73-40.26L74.73-40.26L74.73-40.26Q72.22-40.26 69.70-37.60L69.70-37.60L69.70-37.60Q67.18-34.95 66.23-28.15L66.23-28.15L79.02-28.15ZM73.03-8.43L73.03-8.43L73.03-8.43Q79.02-8.43 85.00-11.83L85.00-11.83L86.36-3.40L86.36-3.40Q83.10-0.95 75.48 0.54L75.48 0.54L75.48 0.54Q72.62 1.22 68.95 1.22L68.95 1.22L68.95 1.22Q65.28 1.22 61.81-0.14L61.81-0.14L61.81-0.14Q58.34-1.50 56.17-4.35L56.17-4.35L56.17-4.35Q51.14-10.88 52.90-22.71L52.90-22.71L52.90-22.71Q54.67-35.50 61.34-42.70L61.34-42.70L61.34-42.70Q67.59-49.23 76.02-49.23L76.02-49.23L76.02-49.23Q88.81-49.23 91.12-36.99L91.12-36.99L91.12-36.99Q92.34-30.60 90.17-22.30L90.17-22.30L90.17-22.30Q89.76-20.54 89.49-20.26L89.49-20.26L65.14-20.26L65.14-20.26Q64.19-14.01 66.57-11.22L66.57-11.22L66.57-11.22Q68.95-8.43 73.03-8.43ZM129.34-59.43L129.34-59.43L129.34-59.43Q127.70-60.25 124.64-60.25L124.64-60.25L124.64-60.25Q121.58-60.25 120.50-58.41L120.50-58.41L120.50-58.41Q119.41-56.58 118.73-51.95L118.73-51.95L118.18-48.14L126.89-48.14L125.39-38.90L116.96-38.90L108.39 21.35L95.74 21.35L104.31-38.90L99.14-38.90L100.37-48.14L105.40-48.14L106.22-53.72L106.22-53.72Q107.44-62.56 111.04-66.44L111.04-66.44L111.04-66.44Q114.65-70.31 120.09-70.31L120.09-70.31L120.09-70.31Q127.16-70.31 130.97-68.41L130.97-68.41L130.97-68.41Q130.42-64.33 129.34-59.43ZM154.29-8.02L154.29-8.02L154.29-8.02Q158.30-8.02 160.68-11.83L160.68-11.83L160.68-11.83Q163.06-15.64 164.22-24.14L164.22-24.14L164.22-24.14Q165.38-32.64 164.02-36.31L164.02-36.31L164.02-36.31Q162.66-39.98 158.71-39.98L158.71-39.98L158.71-39.98Q154.77-39.98 152.46-36.31L152.46-36.31L152.46-36.31Q150.14-32.64 148.99-24.07L148.99-24.07L148.99-24.07Q147.83-15.50 149.06-11.76L149.06-11.76L149.06-11.76Q150.28-8.02 154.29-8.02ZM177.48-35.63L177.48-35.63L177.48-35.63Q178.30-30.87 177.28-24.07L177.28-24.07L177.28-24.07Q176.26-17.27 174.15-12.51L174.15-12.51L174.15-12.51Q172.04-7.75 168.91-4.62L168.91-4.62L168.91-4.62Q163.06 1.22 153.00 1.22L153.00 1.22L153.00 1.22Q138.04 1.22 135.73-12.51L135.73-12.51L135.73-12.51Q134.91-17.27 136.00-24.21L136.00-24.21L136.00-24.21Q137.50-36.99 144.30-43.38L144.30-43.38L144.30-43.38Q150.42-49.23 159.94-49.23L159.94-49.23L159.94-49.23Q175.17-49.23 177.48-35.63ZM198.42-33.73L193.80 0L181.15 0L187.95-48.14L199.10-48.14L198.70-41.75L198.83-41.75L198.83-41.75Q200.87-45.02 204.00-47.19L204.00-47.19L204.00-47.19Q207.13-49.37 209.44-49.37L209.44-49.37L209.44-49.37Q211.75-49.37 212.50-49.03L212.50-49.03L212.50-49.03Q213.25-48.69 213.93-48.42L213.93-48.42L211.34-37.40L211.34-37.40Q210.53-37.54 209.24-37.94L209.24-37.94L209.24-37.94Q207.94-38.35 206.31-38.35L206.31-38.35L206.31-38.35Q204.68-38.35 202.91-37.26L202.91-37.26L202.91-37.26Q201.14-36.18 198.42-33.73L198.42-33.73ZM244.66-28.15L244.66-28.15Q245.62-35.09 244.26-37.67L244.26-37.67L244.26-37.67Q242.90-40.26 240.38-40.26L240.38-40.26L240.38-40.26Q237.86-40.26 235.35-37.60L235.35-37.60L235.35-37.60Q232.83-34.95 231.88-28.15L231.88-28.15L244.66-28.15ZM238.68-8.43L238.68-8.43L238.68-8.43Q244.66-8.43 250.65-11.83L250.65-11.83L252.01-3.40L252.01-3.40Q248.74-0.95 241.13 0.54L241.13 0.54L241.13 0.54Q238.27 1.22 234.60 1.22L234.60 1.22L234.60 1.22Q230.93 1.22 227.46-0.14L227.46-0.14L227.46-0.14Q223.99-1.50 221.82-4.35L221.82-4.35L221.82-4.35Q216.78-10.88 218.55-22.71L218.55-22.71L218.55-22.71Q220.32-35.50 226.98-42.70L226.98-42.70L226.98-42.70Q233.24-49.23 241.67-49.23L241.67-49.23L241.67-49.23Q254.46-49.23 256.77-36.99L256.77-36.99L256.77-36.99Q257.99-30.60 255.82-22.30L255.82-22.30L255.82-22.30Q255.41-20.54 255.14-20.26L255.14-20.26L230.79-20.26L230.79-20.26Q229.84-14.01 232.22-11.22L232.22-11.22L232.22-11.22Q234.60-8.43 238.68-8.43ZM335.10-61.74L333.47-51.14L320.96-51.14L313.75 0L300.70 0L307.77-51.14L295.12-51.14L296.48-61.74L335.10-61.74ZM339.32 0L348.70-67.46L361.62-69.22L357.82-42.02L357.95-42.02L357.95-42.02Q358.50-42.43 359.72-43.66L359.72-43.66L359.72-43.66Q360.94-44.88 362.71-46.10L362.71-46.10L362.71-46.10Q367.20-49.23 372.23-49.23L372.23-49.23L372.23-49.23Q379.03-49.23 381.21-45.15L381.21-45.15L381.21-45.15Q383.38-41.07 382.16-32.50L382.16-32.50L377.81 0L365.16 0L369.10-29.38L369.10-29.38Q369.78-34.54 369.10-36.38L369.10-36.38L369.10-36.38Q368.42-38.22 365.43-38.22L365.43-38.22L365.43-38.22Q362.85-38.22 360.81-36.72L360.81-36.72L360.81-36.72Q357.54-34.14 356.59-32.91L356.59-32.91L351.97 0L339.32 0ZM413.58-28.15L413.58-28.15Q414.53-35.09 413.17-37.67L413.17-37.67L413.17-37.67Q411.81-40.26 409.29-40.26L409.29-40.26L409.29-40.26Q406.78-40.26 404.26-37.60L404.26-37.60L404.26-37.60Q401.74-34.95 400.79-28.15L400.79-28.15L413.58-28.15ZM407.59-8.43L407.59-8.43L407.59-8.43Q413.58-8.43 419.56-11.83L419.56-11.83L420.92-3.40L420.92-3.40Q417.66-0.95 410.04 0.54L410.04 0.54L410.04 0.54Q407.18 1.22 403.51 1.22L403.51 1.22L403.51 1.22Q399.84 1.22 396.37-0.14L396.37-0.14L396.37-0.14Q392.90-1.50 390.73-4.35L390.73-4.35L390.73-4.35Q385.70-10.88 387.46-22.71L387.46-22.71L387.46-22.71Q389.23-35.50 395.90-42.70L395.90-42.70L395.90-42.70Q402.15-49.23 410.58-49.23L410.58-49.23L410.58-49.23Q423.37-49.23 425.68-36.99L425.68-36.99L425.68-36.99Q426.90-30.60 424.73-22.30L424.73-22.30L424.73-22.30Q424.32-20.54 424.05-20.26L424.05-20.26L399.70-20.26L399.70-20.26Q398.75-14.01 401.13-11.22L401.13-11.22L401.13-11.22Q403.51-8.43 407.59-8.43ZM518.57-61.74L531.35-61.74L509.86 0L497.49 0L494.50-39.30L480.35 0L468.25 0L464.03-61.74L477.09-61.74L478.86-19.99L492.18-56.71L502.25-56.71L505.10-19.99L518.57-61.74ZM554.00-8.02L554.00-8.02L554.00-8.02Q558.01-8.02 560.39-11.83L560.39-11.83L560.39-11.83Q562.77-15.64 563.92-24.14L563.92-24.14L563.92-24.14Q565.08-32.64 563.72-36.31L563.72-36.31L563.72-36.31Q562.36-39.98 558.42-39.98L558.42-39.98L558.42-39.98Q554.47-39.98 552.16-36.31L552.16-36.31L552.16-36.31Q549.85-32.64 548.69-24.07L548.69-24.07L548.69-24.07Q547.54-15.50 548.76-11.76L548.76-11.76L548.76-11.76Q549.98-8.02 554.00-8.02ZM577.18-35.63L577.18-35.63L577.18-35.63Q578.00-30.87 576.98-24.07L576.98-24.07L576.98-24.07Q575.96-17.27 573.85-12.51L573.85-12.51L573.85-12.51Q571.74-7.75 568.62-4.62L568.62-4.62L568.62-4.62Q562.77 1.22 552.70 1.22L552.70 1.22L552.70 1.22Q537.74 1.22 535.43-12.51L535.43-12.51L535.43-12.51Q534.62-17.27 535.70-24.21L535.70-24.21L535.70-24.21Q537.20-36.99 544.00-43.38L544.00-43.38L544.00-43.38Q550.12-49.23 559.64-49.23L559.64-49.23L559.64-49.23Q574.87-49.23 577.18-35.63ZM598.13-33.73L593.50 0L580.86 0L587.66-48.14L598.81-48.14L598.40-41.75L598.54-41.75L598.54-41.75Q600.58-45.02 603.70-47.19L603.70-47.19L603.70-47.19Q606.83-49.37 609.14-49.37L609.14-49.37L609.14-49.37Q611.46-49.37 612.20-49.03L612.20-49.03L612.20-49.03Q612.95-48.69 613.63-48.42L613.63-48.42L611.05-37.40L611.05-37.40Q610.23-37.54 608.94-37.94L608.94-37.94L608.94-37.94Q607.65-38.35 606.02-38.35L606.02-38.35L606.02-38.35Q604.38-38.35 602.62-37.26L602.62-37.26L602.62-37.26Q600.85-36.18 598.13-33.73L598.13-33.73ZM639.61-69.22L629.95 0L617.30 0L626.69-67.46L639.61-69.22ZM671.43-14.01L674.83-37.67L674.83-37.67Q671.84-39.30 669.12-39.30L669.12-39.30L669.12-39.30Q664.50-39.30 661.84-36.04L661.84-36.04L661.84-36.04Q659.19-32.78 658.04-24.28L658.04-24.28L658.04-24.28Q656.88-15.78 658.17-12.65L658.17-12.65L658.17-12.65Q659.46-9.52 663.27-9.52L663.27-9.52L663.27-9.52Q665.58-9.52 667.83-10.95L667.83-10.95L667.83-10.95Q670.07-12.38 671.43-14.01L671.43-14.01ZM653.34-43.18L653.34-43.18L653.34-43.18Q656.47-46.24 660.28-47.60L660.28-47.60L660.28-47.60Q664.09-48.96 668.03-48.96L668.03-48.96L668.03-48.96Q671.98-48.96 676.06-46.92L676.06-46.92L678.91-67.46L691.70-69.22L682.04 0L671.43 0L671.43-5.71L671.43-5.71Q663.68 1.22 656.34 1.22L656.34 1.22L656.34 1.22Q645.73 1.22 644.23-11.97L644.23-11.97L644.23-11.97Q643.69-16.59 644.64-23.46L644.64-23.46L644.64-23.46Q645.59-30.33 647.90-35.22L647.90-35.22L647.90-35.22Q650.22-40.12 653.34-43.18ZM762.14 0L728.69 0L737.39-61.74L770.71-61.74L769.08-51.14L749.09-51.14L747.05-36.86L762.28-36.86L760.92-26.93L745.55-26.93L743.24-10.61L763.50-10.61L762.14 0ZM774.66 0L781.46-48.14L792.61-48.14L792.06-42.02L792.34-42.02L792.34-42.02Q793.02-42.43 794.31-43.66L794.31-43.66L794.31-43.66Q795.60-44.88 797.64-46.10L797.64-46.10L797.64-46.10Q802.67-49.23 807.57-49.23L807.57-49.23L807.57-49.23Q814.37-49.23 816.54-45.15L816.54-45.15L816.54-45.15Q818.72-41.07 817.50-32.50L817.50-32.50L812.87 0L800.50 0L804.44-29.38L804.44-29.38Q805.12-34.54 804.30-36.38L804.30-36.38L804.30-36.38Q803.49-38.22 800.63-38.22L800.63-38.22L800.63-38.22Q798.18-38.22 796.14-36.72L796.14-36.72L796.14-36.72Q792.34-33.73 791.93-32.91L791.93-32.91L787.30 0L774.66 0ZM849.46-14.01L852.86-37.67L852.86-37.67Q849.86-39.30 847.14-39.30L847.14-39.30L847.14-39.30Q842.52-39.30 839.87-36.04L839.87-36.04L839.87-36.04Q837.22-32.78 836.06-24.28L836.06-24.28L836.06-24.28Q834.90-15.78 836.20-12.65L836.20-12.65L836.20-12.65Q837.49-9.52 841.30-9.52L841.30-9.52L841.30-9.52Q843.61-9.52 845.85-10.95L845.85-10.95L845.85-10.95Q848.10-12.38 849.46-14.01L849.46-14.01ZM831.37-43.18L831.37-43.18L831.37-43.18Q834.50-46.24 838.30-47.60L838.30-47.60L838.30-47.60Q842.11-48.96 846.06-48.96L846.06-48.96L846.06-48.96Q850.00-48.96 854.08-46.92L854.08-46.92L856.94-67.46L869.72-69.22L860.06 0L849.46 0L849.46-5.71L849.46-5.71Q841.70 1.22 834.36 1.22L834.36 1.22L834.36 1.22Q823.75 1.22 822.26-11.97L822.26-11.97L822.26-11.97Q821.71-16.59 822.66-23.46L822.66-23.46L822.66-23.46Q823.62-30.33 825.93-35.22L825.93-35.22L825.93-35.22Q828.24-40.12 831.37-43.18ZM872.98-2.58L876.38-11.02L876.38-11.02Q876.79-10.88 877.88-10.34L877.88-10.34L877.88-10.34Q878.97-9.79 880.46-9.25L880.46-9.25L880.46-9.25Q884.27-8.02 886.86-8.02L886.86-8.02L886.86-8.02Q889.44-8.02 891.00-8.91L891.00-8.91L891.00-8.91Q892.57-9.79 892.91-12.04L892.91-12.04L892.91-12.04Q893.25-14.28 892.16-15.84L892.16-15.84L892.16-15.84Q891.07-17.41 889.37-18.90L889.37-18.90L889.37-18.90Q887.67-20.40 885.63-21.96L885.63-21.96L885.63-21.96Q883.59-23.53 881.96-25.57L881.96-25.57L881.96-25.57Q878.15-30.06 878.97-36.04L878.97-36.04L878.97-36.04Q879.78-42.02 884.48-45.63L884.48-45.63L884.48-45.63Q889.17-49.23 897.06-49.23L897.06-49.23L897.06-49.23Q903.18-49.23 908.89-47.33L908.89-47.33L906.98-38.08L906.98-38.08Q905.90-38.22 903.24-39.03L903.24-39.03L903.24-39.03Q900.59-39.85 897.60-39.85L897.60-39.85L897.60-39.85Q891.89-39.85 891.21-36.04L891.21-36.04L891.21-36.04Q890.94-34.27 892.09-32.84L892.09-32.84L892.09-32.84Q893.25-31.42 895.02-29.99L895.02-29.99L895.02-29.99Q896.78-28.56 898.96-27.00L898.96-27.00L898.96-27.00Q901.14-25.43 902.90-23.53L902.90-23.53L902.90-23.53Q906.98-19.18 906.03-13.19L906.03-13.19L906.03-13.19Q905.49-7.21 900.86-2.99L900.86-2.99L900.86-2.99Q895.97 1.22 887.54 1.22L887.54 1.22L887.54 1.22Q881.96 1.22 879.10 0.14L879.10 0.14L879.10 0.14Q874.21-1.63 872.98-2.58L872.98-2.58Z" fill="url(#editing-gradient-gradient)"></path></g></g><style>text {
  font-size: 64px;
  font-family: Arial Black;
  dominant-baseline: central;
  text-anchor: middle;
}</style></svg>