<?xml version="1.0"?>
<svg version="1.1" xmlns="http://www.w3.org/2000/svg" width="224" height="50" style=""><path fill="#0576ff" d="M41.466,41.929c0.033,0.561-0.132,0.891-0.759,0.891l-2.673,0c-0.693,0-0.825-0.33-0.858-1.089l-0.462-13.398l-0.066,0l-5.61,13.893c-0.198,0.528-0.528,0.594-0.891,0.594l-1.155,0c-0.495,0-0.792-0.099-1.023-0.627l-6.237-13.86l-0.066,0l-0.297,13.662c0,0.726-0.297,0.825-0.891,0.825l-2.244,0c-0.627,0-0.891-0.231-0.858-0.858l0.825-21.087c0.033-0.693,0.264-0.891,0.792-0.891l1.947,0c0.66,0,0.891,0.231,1.122,0.726l7.623,16.302l0.066,0l6.963-16.302c0.198-0.495,0.462-0.726,1.056-0.726l1.947,0c0.528,0,0.726,0.198,0.759,0.726z M62.8005,34.801c0,4.752-2.904,8.415-8.052,8.415c-5.379,0-7.854-3.63-7.854-8.448c0-4.752,2.904-8.382,8.052-8.382c5.379,0,7.854,3.564,7.854,8.415z M58.6755,34.801c0-2.706-0.858-5.28-3.762-5.28c-2.937,0-3.894,2.541-3.894,5.181c0,2.706,0.825,5.379,3.762,5.379c2.904,0,3.894-2.574,3.894-5.28z M82.386,42.16c0,0.495-0.099,0.66-0.528,0.66l-2.904,0c-0.462,0-0.561-0.132-0.561-0.66l0-9.174c0-1.782-0.495-3.102-2.475-3.102c-1.287,0-2.937,0.693-3.96,1.584l0,10.692c0,0.495-0.132,0.66-0.627,0.66l-2.838,0c-0.396,0-0.528-0.165-0.528-0.594l0-21.813c0-0.594,0.264-0.759,0.726-0.825l2.277-0.297c0.132-0.033,0.297-0.033,0.429-0.033c0.363,0,0.561,0.165,0.561,0.627l0,8.283c1.386-1.155,3.465-1.782,5.214-1.782c3.696,0,5.214,2.343,5.214,5.907l0,9.867z M92.9625,22.624c0,1.287-1.122,2.079-2.211,2.079s-2.244-0.726-2.244-2.046s1.089-2.112,2.244-2.112c1.122,0,2.211,0.759,2.211,2.079z M92.7645,41.995c0,0.594-0.264,0.825-0.825,0.825l-2.31,0c-0.594,0-0.858-0.231-0.858-0.825l0-14.421c0-0.561,0.33-0.759,0.858-0.759l2.31,0c0.528,0,0.825,0.165,0.825,0.759l0,14.421z M109.05,41.83c0,0.33-0.165,0.495-0.495,0.627c-1.023,0.429-2.376,0.759-3.696,0.759c-1.683,0-3.135-0.429-3.96-1.386c-1.023-1.155-1.056-2.508-1.056-4.917l0-7.359l-1.551,0c-0.627,0-0.726-0.132-0.726-0.825l0-1.254c0-0.396,0.198-0.66,0.594-0.66l1.683,0l0-3.597c0-0.561,0.297-0.726,0.825-0.792l2.376-0.297l0.165,0c0.429,0,0.627,0.231,0.627,0.726l0,3.96l3.729,0c0.396,0,0.627,0.132,0.627,0.561l0,1.551c0,0.396-0.264,0.627-0.66,0.627l-3.696,0l0,7.557c0,0.99,0.066,1.716,0.429,2.244c0.297,0.429,0.759,0.693,1.551,0.693c0.825,0,1.518-0.198,2.112-0.396c0.132-0.033,0.231-0.066,0.33-0.066c0.231,0,0.363,0.132,0.429,0.396l0.33,1.65c0.033,0.099,0.033,0.132,0.033,0.198z M117.6465,41.038c0,1.353-1.221,2.211-2.343,2.211c-1.155,0-2.343-0.792-2.343-2.178c0-1.419,1.122-2.244,2.343-2.244c1.188,0,2.343,0.825,2.343,2.211z M143.997,27.244c0,0.099,0,0.165-0.033,0.264l-4.422,14.52c-0.165,0.495-0.429,0.792-1.023,0.792l-2.244,0c-0.594,0-0.858-0.297-1.023-0.825l-2.739-9.405l-0.066,0l-2.706,9.471c-0.165,0.528-0.462,0.759-1.056,0.759l-2.211,0c-0.528,0-0.891-0.33-1.023-0.792l-4.323-14.52c-0.033-0.099-0.033-0.198-0.033-0.264c0-0.297,0.231-0.429,0.66-0.429l2.706,0c0.627,0,0.825,0.231,0.924,0.627l2.376,10.428l0.033,0l3.069-10.395c0.132-0.495,0.462-0.66,0.891-0.66l1.848,0c0.495,0,0.792,0.165,0.891,0.561l3.003,10.56l0.033,0l2.475-10.395c0.099-0.462,0.363-0.726,0.957-0.726l2.541,0c0.396,0,0.495,0.198,0.495,0.429z M163.4175,34.801c0,4.752-2.904,8.415-8.052,8.415c-5.379,0-7.854-3.63-7.854-8.448c0-4.752,2.904-8.382,8.052-8.382c5.379,0,7.854,3.564,7.854,8.415z M159.2925,34.801c0-2.706-0.858-5.28-3.762-5.28c-2.937,0-3.894,2.541-3.894,5.181c0,2.706,0.825,5.379,3.762,5.379c2.904,0,3.894-2.574,3.894-5.28z M177.624,26.947c0,0.099,0,0.198-0.033,0.297l-0.363,2.343c-0.033,0.297-0.198,0.429-0.462,0.429l-0.132,0c-0.264-0.066-0.594-0.099-0.891-0.099c-1.122,0-2.343,0.594-3.168,1.584l0,10.494c0,0.528-0.231,0.825-0.792,0.825l-2.409,0c-0.528,0-0.792-0.264-0.792-0.825l0-10.296l0-4.059c0-0.66,0.33-0.825,0.825-0.825l2.112,0c0.528,0,0.825,0.165,0.825,0.627l0.033,1.056c1.023-1.287,2.145-2.112,3.993-2.112c0.264,0,0.627,0.066,0.924,0.132c0.231,0.066,0.33,0.165,0.33,0.429z M185.9235,41.995c0,0.561-0.264,0.825-0.726,0.825l-2.508,0c-0.462,0-0.759-0.231-0.759-0.792l0-21.648c0-0.561,0.231-0.726,0.66-0.792l2.376-0.33c0.066,0,0.165-0.033,0.231-0.033c0.396,0,0.726,0.198,0.726,0.726l0,22.044z M206.268,41.995c0,0.561-0.33,0.825-0.726,0.825l-2.145,0c-0.528,0-0.759-0.264-0.792-0.66l-0.066-0.891c-0.924,1.056-2.772,1.947-4.488,1.947c-4.785,0-6.963-3.795-6.963-8.217c0-4.62,2.574-8.646,7.227-8.646c1.485,0,3.036,0.594,3.96,1.551l0-7.425c0-0.594,0.165-0.825,0.693-0.891l2.442-0.33c0.033,0,0.297-0.033,0.33-0.033c0.396,0,0.528,0.165,0.528,0.66l0,22.11z M202.275,38.332l0-7.161c-0.66-0.891-1.914-1.617-3.168-1.617c-2.673,0-3.861,2.508-3.861,5.214s0.99,5.214,3.663,5.214c1.221,0,2.706-0.825,3.366-1.65z"/><path fill="#" d=""/></svg>
