<svg width="788.949072265625px" height="136.8000030517578px" xmlns="http://www.w3.org/2000/svg" viewBox="-144.4745361328125 6.599998474121094 788.949072265625 136.8000030517578" style="background: rgba(255, 255, 255, 0);" preserveAspectRatio="xMidYMid"><defs><linearGradient id="editing-gradient-gradient" x1="0" x2="1" y1="0.5" y2="0.5" gradientUnits="objectBoundingBox"><stop offset="0" stop-color="#000000"></stop><stop offset="1" stop-color="#000000"></stop></linearGradient></defs><g><g transform="translate(-32.47899720072746, 108.15499496459961)"><path d="M48.99-5.45L48.99-5.45L48.99-5.45Q50.03-9.11 51.30-13.59L51.30-13.59L51.30-13.59Q52.58-18.08 53.89-22.77L53.89-22.77L53.89-22.77Q55.20-27.46 56.44-32.05L56.44-32.05L56.44-32.05Q57.68-36.64 58.65-40.37L58.65-40.37L58.65-40.37Q59.62-44.09 60.20-46.71L60.20-46.71L60.20-46.71Q60.79-49.34 60.79-50.16L60.79-50.16L60.79-50.16Q60.79-52.16 58.96-52.92L58.96-52.92L58.96-52.92Q57.13-53.68 54.51-53.68L54.51-53.68L54.51-53.68Q54.51-54.86 55.34-55.72L55.34-55.72L55.34-55.72Q56.17-56.58 58.24-56.58L58.24-56.58L58.24-56.58Q59.75-56.58 61.20-55.96L61.20-55.96L61.20-55.96Q62.65-55.34 63.41-54.44L63.41-54.44L63.41-54.44Q64.17-55.34 65.41-55.96L65.41-55.96L65.41-55.96Q66.65-56.58 68.24-56.58L68.24-56.58L68.24-56.58Q70.52-56.58 71.42-55.72L71.42-55.72L71.42-55.72Q72.31-54.86 72.31-53.68L72.31-53.68L72.31-53.68Q69.41-53.68 68.10-52.51L68.10-52.51L68.10-52.51Q66.79-51.34 66.17-49.27L66.17-49.27L51.96 0L43.82 1.04L36.57-37.26L25.81 0L17.60 1.04L6.35-49.27L6.35-49.27Q5.87-51.34 4.49-52.51L4.49-52.51L4.49-52.51Q3.11-53.68 0.21-53.68L0.21-53.68L0.21-53.68Q0.21-54.86 1.04-55.72L1.04-55.72L1.04-55.72Q1.86-56.58 3.93-56.58L3.93-56.58L3.93-56.58Q5.73-56.58 7.14-55.96L7.14-55.96L7.14-55.96Q8.56-55.34 9.45-54.44L9.45-54.44L9.45-54.44Q10.35-55.34 11.76-55.96L11.76-55.96L11.76-55.96Q13.18-56.58 14.97-56.58L14.97-56.58L14.97-56.58Q17.04-56.58 17.87-55.72L17.87-55.72L17.87-55.72Q18.70-54.86 18.70-53.68L18.70-53.68L18.70-53.68Q15.80-53.68 14.73-52.23L14.73-52.23L14.73-52.23Q13.66-50.78 13.66-48.51L13.66-48.51L13.66-48.51Q13.66-46.58 14.04-44.71L14.04-44.71L14.04-44.71Q14.42-42.85 14.77-41.33L14.77-41.33L23.05-5.24L23.05-5.24Q23.94-9.04 25.12-13.25L25.12-13.25L25.12-13.25Q26.29-17.46 27.53-21.70L27.53-21.70L27.53-21.70Q28.77-25.94 29.98-30.08L29.98-30.08L29.98-30.08Q31.19-34.22 32.12-37.85L32.12-37.85L32.12-37.85Q33.05-41.47 33.60-44.44L33.60-44.44L33.60-44.44Q34.16-47.40 34.16-49.27L34.16-49.27L34.16-49.27Q34.16-51.41 32.53-52.54L32.53-52.54L32.53-52.54Q30.91-53.68 28.01-53.68L28.01-53.68L28.01-53.68Q28.01-54.86 28.81-55.72L28.81-55.72L28.81-55.72Q29.60-56.58 31.74-56.58L31.74-56.58L31.74-56.58Q33.53-56.58 34.95-55.96L34.95-55.96L34.95-55.96Q36.36-55.34 37.26-54.44L37.26-54.44L37.26-54.44Q38.16-55.34 39.57-55.96L39.57-55.96L39.57-55.96Q40.99-56.58 42.78-56.58L42.78-56.58L42.78-56.58Q44.85-56.58 45.68-55.72L45.68-55.72L45.68-55.72Q46.51-54.86 46.51-53.68L46.51-53.68L46.51-53.68Q40.85-53.68 40.85-49.27L40.85-49.27L40.85-49.27Q40.85-46.44 41.71-41.33L41.71-41.33L41.71-41.33Q42.57-36.23 43.85-30.12L43.85-30.12L43.85-30.12Q45.13-24.01 46.54-17.53L46.54-17.53L46.54-17.53Q47.96-11.04 48.99-5.45ZM85.84 0.97L85.84 0.97L85.84 0.97Q82.39 0.97 79.45-0.24L79.45-0.24L79.45-0.24Q76.52-1.45 74.31-3.66L74.31-3.66L74.31-3.66Q72.11-5.87 70.86-8.97L70.86-8.97L70.86-8.97Q69.62-12.08 69.62-15.94L69.62-15.94L69.62-15.94Q69.62-19.87 70.86-22.91L70.86-22.91L70.86-22.91Q72.11-25.94 74.31-28.05L74.31-28.05L74.31-28.05Q76.52-30.15 79.45-31.22L79.45-31.22L79.45-31.22Q82.39-32.29 85.84-32.29L85.84-32.29L85.84-32.29Q89.22-32.29 92.18-31.22L92.18-31.22L92.18-31.22Q95.15-30.15 97.36-28.05L97.36-28.05L97.36-28.05Q99.57-25.94 100.81-22.91L100.81-22.91L100.81-22.91Q102.05-19.87 102.05-15.94L102.05-15.94L102.05-15.94Q102.05-12.01 100.81-8.90L100.81-8.90L100.81-8.90Q99.57-5.80 97.36-3.59L97.36-3.59L97.36-3.59Q95.15-1.38 92.18-0.21L92.18-0.21L92.18-0.21Q89.22 0.97 85.84 0.97ZM85.91-2.21L85.91-2.21L85.91-2.21Q88.46-2.21 90.25-3.31L90.25-3.31L90.25-3.31Q92.05-4.42 93.22-6.31L93.22-6.31L93.22-6.31Q94.39-8.21 94.94-10.70L94.94-10.70L94.94-10.70Q95.50-13.18 95.50-15.94L95.50-15.94L95.50-15.94Q95.50-18.63 94.94-21.05L94.94-21.05L94.94-21.05Q94.39-23.46 93.22-25.22L93.22-25.22L93.22-25.22Q92.05-26.98 90.22-28.01L90.22-28.01L90.22-28.01Q88.39-29.05 85.84-29.05L85.84-29.05L85.84-29.05Q83.28-29.05 81.45-28.05L81.45-28.05L81.45-28.05Q79.63-27.05 78.45-25.29L78.45-25.29L78.45-25.29Q77.28-23.53 76.73-21.11L76.73-21.11L76.73-21.11Q76.18-18.70 76.18-15.94L76.18-15.94L76.18-15.94Q76.18-13.18 76.73-10.70L76.73-10.70L76.73-10.70Q77.28-8.21 78.49-6.31L78.49-6.31L78.49-6.31Q79.70-4.42 81.52-3.31L81.52-3.31L81.52-3.31Q83.35-2.21 85.91-2.21ZM132.83-15.59L132.83-18.01L132.83-18.01Q132.83-20.56 132.72-22.25L132.72-22.25L132.72-22.25Q132.62-23.94 132.14-24.87L132.14-24.87L132.14-24.87Q131.65-25.81 130.76-26.19L130.76-26.19L130.76-26.19Q129.86-26.57 128.27-26.57L128.27-26.57L128.27-28.64L128.27-28.64Q130.00-28.64 131.20-28.84L131.20-28.84L131.20-28.84Q132.41-29.05 133.38-29.46L133.38-29.46L133.38-29.46Q134.34-29.88 135.17-30.43L135.17-30.43L135.17-30.43Q136.00-30.98 136.97-31.60L136.97-31.60L139.04-31.60L139.04-7.11L139.04-7.11Q139.04-5.73 139.48-4.83L139.48-4.83L139.48-4.83Q139.93-3.93 140.59-3.38L140.59-3.38L140.59-3.38Q141.24-2.83 142.11-2.59L142.11-2.59L142.11-2.59Q142.97-2.35 143.80-2.35L143.80-2.35L143.80 0.07L143.80 0.07Q142.21-0.14 141.07-0.31L141.07-0.31L141.07-0.31Q139.93-0.48 138.21-0.48L138.21-0.48L138.21-0.48Q135.86-0.48 133.52 0L133.52 0L132.83-0.69L132.83-4.55L132.83-4.55Q132.07-3.38 131.27-2.38L131.27-2.38L131.27-2.38Q130.48-1.38 129.38-0.66L129.38-0.66L129.38-0.66Q128.27 0.07 126.82 0.52L126.82 0.52L126.82 0.52Q125.37 0.97 123.37 0.97L123.37 0.97L123.37 0.97Q116.47 0.97 113.51-3.28L113.51-3.28L113.51-3.28Q110.54-7.52 110.40-15.59L110.40-15.59L110.40-15.59Q110.33-19.32 110.23-21.49L110.23-21.49L110.23-21.49Q110.12-23.67 109.71-24.81L109.71-24.81L109.71-24.81Q109.30-25.94 108.40-26.25L108.40-26.25L108.40-26.25Q107.50-26.57 105.85-26.57L105.85-26.57L105.85-28.64L105.85-28.64Q107.57-28.64 108.78-28.84L108.78-28.84L108.78-28.84Q109.99-29.05 110.95-29.46L110.95-29.46L110.95-29.46Q111.92-29.88 112.75-30.43L112.75-30.43L112.75-30.43Q113.57-30.98 114.54-31.60L114.54-31.60L116.61-31.60L116.61-17.04L116.61-17.04Q116.61-12.83 117.16-10.01L117.16-10.01L117.16-10.01Q117.71-7.18 118.71-5.45L118.71-5.45L118.71-5.45Q119.72-3.73 121.10-3.00L121.10-3.00L121.10-3.00Q122.48-2.28 124.13-2.28L124.13-2.28L124.13-2.28Q126.06-2.28 127.68-3.28L127.68-3.28L127.68-3.28Q129.31-4.28 130.44-6.07L130.44-6.07L130.44-6.07Q131.58-7.87 132.20-10.32L132.20-10.32L132.20-10.32Q132.83-12.77 132.83-15.59L132.83-15.59ZM158.22-55.82L158.22-6.83L158.22-6.83Q158.22-5.45 158.67-4.55L158.67-4.55L158.67-4.55Q159.11-3.66 159.77-3.11L159.77-3.11L159.77-3.11Q160.43-2.55 161.29-2.31L161.29-2.31L161.29-2.31Q162.15-2.07 162.98-2.07L162.98-2.07L162.98 0L162.98 0Q162.15 0 161.15-0.10L161.15-0.10L161.15-0.10Q160.15-0.21 159.05-0.35L159.05-0.35L159.05-0.35Q157.94-0.48 156.94-0.59L156.94-0.59L156.94-0.59Q155.94-0.69 155.11-0.69L155.11-0.69L155.11-0.69Q154.28-0.69 153.28-0.59L153.28-0.59L153.28-0.59Q152.28-0.48 151.18-0.35L151.18-0.35L151.18-0.35Q150.08-0.21 149.07-0.10L149.07-0.10L149.07-0.10Q148.07 0 147.25 0L147.25 0L147.25-2.07L147.25-2.07Q149.11-2.07 150.56-3.11L150.56-3.11L150.56-3.11Q152.01-4.14 152.01-6.83L152.01-6.83L152.01-42.57L152.01-42.57Q152.01-45.13 151.90-46.82L151.90-46.82L151.90-46.82Q151.80-48.51 151.32-49.44L151.32-49.44L151.32-49.44Q150.83-50.37 149.94-50.75L149.94-50.75L149.94-50.75Q149.04-51.13 147.45-51.13L147.45-51.13L147.45-52.85L147.45-52.85Q149.18-52.85 150.45-53.06L150.45-53.06L150.45-53.06Q151.73-53.27 152.77-53.68L152.77-53.68L152.77-53.68Q153.80-54.10 154.66-54.65L154.66-54.65L154.66-54.65Q155.53-55.20 156.49-55.82L156.49-55.82L158.22-55.82ZM198.72-55.82L198.72-8.35L198.72-8.35Q198.72-2.00 199.96 1.28L199.96 1.28L199.96 1.28Q201.20 4.55 205.07 4.55L205.07 4.55L205.07 4.55Q205.55 4.55 206.21 4.49L206.21 4.49L206.21 4.49Q206.86 4.42 207.21 4.28L207.21 4.28L207.41 4.62L207.41 4.62Q206.52 6.07 204.96 6.56L204.96 6.56L204.96 6.56Q203.41 7.04 202.03 7.04L202.03 7.04L202.03 7.04Q199.34 7.04 197.86 5.87L197.86 5.87L197.86 5.87Q196.37 4.69 196.37 2.97L196.37 2.97L196.37 2.97Q194.37 2.97 193.55 1.52L193.55 1.52L193.55 1.52Q192.72 0.07 192.58-2.83L192.58-2.83L192.58-2.83Q190.23-0.55 187.71 0.21L187.71 0.21L187.71 0.21Q185.20 0.97 182.85 0.97L182.85 0.97L182.85 0.97Q179.12 0.97 176.30-0.28L176.30-0.28L176.30-0.28Q173.47-1.52 171.53-3.76L171.53-3.76L171.53-3.76Q169.60-6.00 168.64-9.11L168.64-9.11L168.64-9.11Q167.67-12.21 167.67-15.94L167.67-15.94L167.67-15.94Q167.67-20.29 169.02-23.36L169.02-23.36L169.02-23.36Q170.36-26.43 172.53-28.43L172.53-28.43L172.53-28.43Q174.71-30.43 177.50-31.36L177.50-31.36L177.50-31.36Q180.30-32.29 183.20-32.29L183.20-32.29L183.20-32.29Q186.09-32.29 188.30-31.40L188.30-31.40L188.30-31.40Q190.51-30.50 192.51-28.22L192.51-28.22L192.51-42.23L192.51-42.23Q192.51-44.78 192.41-46.47L192.41-46.47L192.41-46.47Q192.30-48.16 191.82-49.09L191.82-49.09L191.82-49.09Q191.34-50.03 190.44-50.40L190.44-50.40L190.44-50.40Q189.54-50.78 187.96-50.78L187.96-50.78L187.96-52.85L187.96-52.85Q189.68-52.85 190.89-53.06L190.89-53.06L190.89-53.06Q192.10-53.27 193.06-53.68L193.06-53.68L193.06-53.68Q194.03-54.10 194.86-54.65L194.86-54.65L194.86-54.65Q195.68-55.20 196.65-55.82L196.65-55.82L198.72-55.82ZM183.20-2.21L183.20-2.21L183.20-2.21Q185.54-2.21 187.34-3.28L187.34-3.28L187.34-3.28Q189.13-4.35 190.27-6.21L190.27-6.21L190.27-6.21Q191.41-8.07 191.99-10.52L191.99-10.52L191.99-10.52Q192.58-12.97 192.58-15.80L192.58-15.80L192.58-15.80Q192.58-18.49 192.03-20.87L192.03-20.87L192.03-20.87Q191.48-23.25 190.30-25.08L190.30-25.08L190.30-25.08Q189.13-26.91 187.37-27.95L187.37-27.95L187.37-27.95Q185.61-28.98 183.13-28.98L183.13-28.98L183.13-28.98Q180.64-28.98 178.92-27.98L178.92-27.98L178.92-27.98Q177.19-26.98 176.16-25.22L176.16-25.22L176.16-25.22Q175.12-23.46 174.67-21.08L174.67-21.08L174.67-21.08Q174.23-18.70 174.23-15.94L174.23-15.94L174.23-15.94Q174.23-13.25 174.64-10.76L174.64-10.76L174.64-10.76Q175.05-8.28 176.09-6.38L176.09-6.38L176.09-6.38Q177.12-4.49 178.85-3.35L178.85-3.35L178.85-3.35Q180.57-2.21 183.20-2.21ZM233.22-50.37L233.22-50.37L233.22-50.37Q233.22-48.99 234.46-46.92L234.46-46.92L244.47-30.50L251.50-45.54L251.50-45.54Q252.26-47.20 252.78-48.51L252.78-48.51L252.78-48.51Q253.30-49.82 253.30-50.92L253.30-50.92L253.30-50.92Q253.30-52.03 252.19-53.03L252.19-53.03L252.19-53.03Q251.09-54.03 249.37-54.03L249.37-54.03L249.37-54.03Q248.61-54.03 247.57-53.68L247.57-53.68L247.57-53.68Q247.57-54.72 249.16-55.61L249.16-55.61L249.16-55.61Q250.75-56.51 252.68-56.51L252.68-56.51L252.68-56.51Q253.85-56.51 254.96-56.06L254.96-56.06L254.96-56.06Q256.06-55.61 256.82-54.44L256.82-54.44L256.82-54.44Q257.58-55.41 258.99-55.96L258.99-55.96L258.99-55.96Q260.41-56.51 261.92-56.51L261.92-56.51L261.92-56.51Q263.51-56.51 264.72-55.82L264.72-55.82L264.72-55.82Q265.93-55.13 266.06-53.54L266.06-53.54L266.06-53.54Q265.72-53.61 265.44-53.65L265.44-53.65L265.44-53.65Q265.17-53.68 264.89-53.68L264.89-53.68L264.89-53.68Q263.44-53.68 262.17-52.92L262.17-52.92L262.17-52.92Q260.89-52.16 259.85-51.03L259.85-51.03L259.85-51.03Q258.82-49.89 257.99-48.44L257.99-48.44L257.99-48.44Q257.16-46.99 256.54-45.68L256.54-45.68L246.68-24.98L246.68-7.66L246.68-7.66Q246.68-6.00 247.33-5.04L247.33-5.04L247.33-5.04Q247.99-4.07 248.92-3.62L248.92-3.62L248.92-3.62Q249.85-3.17 250.92-3.04L250.92-3.04L250.92-3.04Q251.99-2.90 252.82-2.90L252.82-2.90L252.82 0L252.82 0Q251.99 0 250.75-0.10L250.75-0.10L250.75-0.10Q249.50-0.21 248.19-0.35L248.19-0.35L248.19-0.35Q246.88-0.48 245.64-0.59L245.64-0.59L245.64-0.59Q244.40-0.69 243.57-0.69L243.57-0.69L243.57-0.69Q242.74-0.69 241.50-0.59L241.50-0.59L241.50-0.59Q240.26-0.48 238.95-0.35L238.95-0.35L238.95-0.35Q237.64-0.21 236.39-0.10L236.39-0.10L236.39-0.10Q235.15 0 234.32 0L234.32 0L234.32-2.90L234.32-2.90Q235.22-2.90 236.33-3.04L236.33-3.04L236.33-3.04Q237.43-3.17 238.33-3.62L238.33-3.62L238.33-3.62Q239.22-4.07 239.84-5.04L239.84-5.04L239.84-5.04Q240.47-6.00 240.47-7.66L240.47-7.66L240.47-23.94L224.87-49.27L224.87-49.27Q223.70-51.06 221.70-52.37L221.70-52.37L221.70-52.37Q219.70-53.68 216.80-53.68L216.80-53.68L216.80-53.68Q216.80-54.86 218.21-55.72L218.21-55.72L218.21-55.72Q219.63-56.58 221.70-56.58L221.70-56.58L221.70-56.58Q223.49-56.58 225.15-56.10L225.15-56.10L225.15-56.10Q226.80-55.61 227.77-54.44L227.77-54.44L227.77-54.44Q228.67-55.34 230.36-55.96L230.36-55.96L230.36-55.96Q232.05-56.58 233.84-56.58L233.84-56.58L233.84-56.58Q235.91-56.58 237.33-55.72L237.33-55.72L237.33-55.72Q238.74-54.86 238.74-53.68L238.74-53.68L238.74-53.68Q237.77-53.68 236.81-53.51L236.81-53.51L236.81-53.51Q235.84-53.34 235.05-52.96L235.05-52.96L235.05-52.96Q234.25-52.58 233.74-51.92L233.74-51.92L233.74-51.92Q233.22-51.27 233.22-50.37ZM277.04 0.97L277.04 0.97L277.04 0.97Q273.59 0.97 270.65-0.24L270.65-0.24L270.65-0.24Q267.72-1.45 265.51-3.66L265.51-3.66L265.51-3.66Q263.30-5.87 262.06-8.97L262.06-8.97L262.06-8.97Q260.82-12.08 260.82-15.94L260.82-15.94L260.82-15.94Q260.82-19.87 262.06-22.91L262.06-22.91L262.06-22.91Q263.30-25.94 265.51-28.05L265.51-28.05L265.51-28.05Q267.72-30.15 270.65-31.22L270.65-31.22L270.65-31.22Q273.59-32.29 277.04-32.29L277.04-32.29L277.04-32.29Q280.42-32.29 283.38-31.22L283.38-31.22L283.38-31.22Q286.35-30.15 288.56-28.05L288.56-28.05L288.56-28.05Q290.77-25.94 292.01-22.91L292.01-22.91L292.01-22.91Q293.25-19.87 293.25-15.94L293.25-15.94L293.25-15.94Q293.25-12.01 292.01-8.90L292.01-8.90L292.01-8.90Q290.77-5.80 288.56-3.59L288.56-3.59L288.56-3.59Q286.35-1.38 283.38-0.21L283.38-0.21L283.38-0.21Q280.42 0.97 277.04 0.97ZM277.10-2.21L277.10-2.21L277.10-2.21Q279.66-2.21 281.45-3.31L281.45-3.31L281.45-3.31Q283.25-4.42 284.42-6.31L284.42-6.31L284.42-6.31Q285.59-8.21 286.14-10.70L286.14-10.70L286.14-10.70Q286.70-13.18 286.70-15.94L286.70-15.94L286.70-15.94Q286.70-18.63 286.14-21.05L286.14-21.05L286.14-21.05Q285.59-23.46 284.42-25.22L284.42-25.22L284.42-25.22Q283.25-26.98 281.42-28.01L281.42-28.01L281.42-28.01Q279.59-29.05 277.04-29.05L277.04-29.05L277.04-29.05Q274.48-29.05 272.65-28.05L272.65-28.05L272.65-28.05Q270.83-27.05 269.65-25.29L269.65-25.29L269.65-25.29Q268.48-23.53 267.93-21.11L267.93-21.11L267.93-21.11Q267.38-18.70 267.38-15.94L267.38-15.94L267.38-15.94Q267.38-13.18 267.93-10.70L267.93-10.70L267.93-10.70Q268.48-8.21 269.69-6.31L269.69-6.31L269.69-6.31Q270.89-4.42 272.72-3.31L272.72-3.31L272.72-3.31Q274.55-2.21 277.10-2.21ZM324.02-15.59L324.02-18.01L324.02-18.01Q324.02-20.56 323.92-22.25L323.92-22.25L323.92-22.25Q323.82-23.94 323.33-24.87L323.33-24.87L323.33-24.87Q322.85-25.81 321.95-26.19L321.95-26.19L321.95-26.19Q321.06-26.57 319.47-26.57L319.47-26.57L319.47-28.64L319.47-28.64Q321.20-28.64 322.40-28.84L322.40-28.84L322.40-28.84Q323.61-29.05 324.58-29.46L324.58-29.46L324.58-29.46Q325.54-29.88 326.37-30.43L326.37-30.43L326.37-30.43Q327.20-30.98 328.16-31.60L328.16-31.60L330.23-31.60L330.23-7.11L330.23-7.11Q330.23-5.73 330.68-4.83L330.68-4.83L330.68-4.83Q331.13-3.93 331.79-3.38L331.79-3.38L331.79-3.38Q332.44-2.83 333.30-2.59L333.30-2.59L333.30-2.59Q334.17-2.35 335.00-2.35L335.00-2.35L335.00 0.07L335.00 0.07Q333.41-0.14 332.27-0.31L332.27-0.31L332.27-0.31Q331.13-0.48 329.41-0.48L329.41-0.48L329.41-0.48Q327.06-0.48 324.71 0L324.71 0L324.02-0.69L324.02-4.55L324.02-4.55Q323.27-3.38 322.47-2.38L322.47-2.38L322.47-2.38Q321.68-1.38 320.57-0.66L320.57-0.66L320.57-0.66Q319.47 0.07 318.02 0.52L318.02 0.52L318.02 0.52Q316.57 0.97 314.57 0.97L314.57 0.97L314.57 0.97Q307.67 0.97 304.70-3.28L304.70-3.28L304.70-3.28Q301.74-7.52 301.60-15.59L301.60-15.59L301.60-15.59Q301.53-19.32 301.43-21.49L301.43-21.49L301.43-21.49Q301.32-23.67 300.91-24.81L300.91-24.81L300.91-24.81Q300.50-25.94 299.60-26.25L299.60-26.25L299.60-26.25Q298.70-26.57 297.05-26.57L297.05-26.57L297.05-28.64L297.05-28.64Q298.77-28.64 299.98-28.84L299.98-28.84L299.98-28.84Q301.19-29.05 302.15-29.46L302.15-29.46L302.15-29.46Q303.12-29.88 303.95-30.43L303.95-30.43L303.95-30.43Q304.77-30.98 305.74-31.60L305.74-31.60L307.81-31.60L307.81-17.04L307.81-17.04Q307.81-12.83 308.36-10.01L308.36-10.01L308.36-10.01Q308.91-7.18 309.91-5.45L309.91-5.45L309.91-5.45Q310.91-3.73 312.29-3.00L312.29-3.00L312.29-3.00Q313.67-2.28 315.33-2.28L315.33-2.28L315.33-2.28Q317.26-2.28 318.88-3.28L318.88-3.28L318.88-3.28Q320.51-4.28 321.64-6.07L321.64-6.07L321.64-6.07Q322.78-7.87 323.40-10.32L323.40-10.32L323.40-10.32Q324.02-12.77 324.02-15.59L324.02-15.59ZM391.44-5.31L376.40-24.70L376.40-27.05L376.40-27.05Q379.78-27.39 382.57-28.19L382.57-28.19L382.57-28.19Q385.37-28.98 387.37-30.50L387.37-30.50L387.37-30.50Q389.37-32.02 390.47-34.43L390.47-34.43L390.47-34.43Q391.58-36.85 391.58-40.43L391.58-40.43L391.58-40.43Q391.58-47.13 387.61-50.13L387.61-50.13L387.61-50.13Q383.64-53.13 376.05-53.13L376.05-53.13L376.05-53.13Q370.46-53.13 366.87-51.72L366.87-51.72L366.87-51.72Q363.29-50.30 361.15-47.82L361.15-47.82L361.15-47.82Q359.01-45.33 358.18-42.06L358.18-42.06L358.18-42.06Q357.35-38.78 357.35-35.05L357.35-35.05L357.35-35.05Q354.11-35.05 352.73-36.29L352.73-36.29L352.73-36.29Q351.35-37.54 351.35-39.68L351.35-39.68L351.35-39.68Q351.35-41.68 352.35-42.92L352.35-42.92L352.35-42.92Q353.35-44.16 354.66-44.16L354.66-44.16L354.66-44.16Q354.11-44.71 353.97-45.64L353.97-45.64L353.97-45.64Q353.83-46.58 353.83-47.13L353.83-47.13L353.83-47.13Q353.83-49.47 355.66-51.23L355.66-51.23L355.66-51.23Q357.49-52.99 360.53-54.20L360.53-54.20L360.53-54.20Q363.56-55.41 367.49-55.99L367.49-55.99L367.49-55.99Q371.43-56.58 375.71-56.58L375.71-56.58L375.71-56.58Q377.02-56.58 379.22-56.44L379.22-56.44L379.22-56.44Q381.43-56.30 383.92-55.82L383.92-55.82L383.92-55.82Q386.40-55.34 388.95-54.34L388.95-54.34L388.95-54.34Q391.51-53.34 393.58-51.54L393.58-51.54L393.58-51.54Q395.65-49.75 396.96-47.06L396.96-47.06L396.96-47.06Q398.27-44.37 398.27-40.57L398.27-40.57L398.27-40.57Q398.27-34.78 394.78-30.84L394.78-30.84L394.78-30.84Q391.30-26.91 383.50-25.25L383.50-25.25L396.89-8.42L396.89-8.42Q399.30-5.31 401.65-4.11L401.65-4.11L401.65-4.11Q404.00-2.90 406.82-2.90L406.82-2.90L406.82 0L406.82 0Q404.82 0.07 403.06 0.10L403.06 0.10L403.06 0.10Q401.30 0.14 400.41 0.14L400.41 0.14L400.41 0.14Q398.68 0.14 397.54-0.10L397.54-0.10L397.54-0.10Q396.41-0.35 395.47-0.93L395.47-0.93L395.47-0.93Q394.54-1.52 393.61-2.59L393.61-2.59L393.61-2.59Q392.68-3.66 391.44-5.31L391.44-5.31ZM373.70-48.92L373.70-7.66L373.70-7.66Q373.70-6.00 374.36-5.04L374.36-5.04L374.36-5.04Q375.02-4.07 375.95-3.62L375.95-3.62L375.95-3.62Q376.88-3.17 377.95-3.04L377.95-3.04L377.95-3.04Q379.02-2.90 379.85-2.90L379.85-2.90L379.85 0L379.85 0Q379.02 0 377.78-0.10L377.78-0.10L377.78-0.10Q376.53-0.21 375.22-0.35L375.22-0.35L375.22-0.35Q373.91-0.48 372.67-0.59L372.67-0.59L372.67-0.59Q371.43-0.69 370.60-0.69L370.60-0.69L370.60-0.69Q369.77-0.69 368.53-0.59L368.53-0.59L368.53-0.59Q367.29-0.48 365.98-0.35L365.98-0.35L365.98-0.35Q364.67-0.21 363.42-0.10L363.42-0.10L363.42-0.10Q362.18 0 361.35 0L361.35 0L361.35-2.90L361.35-2.90Q362.25-2.90 363.35-3.04L363.35-3.04L363.35-3.04Q364.46-3.17 365.36-3.62L365.36-3.62L365.36-3.62Q366.25-4.07 366.87-5.04L366.87-5.04L366.87-5.04Q367.49-6.00 367.49-7.66L367.49-7.66L367.49-34.98L367.49-34.98Q367.49-37.54 367.39-39.23L367.39-39.23L367.39-39.23Q367.29-40.92 366.80-41.85L366.80-41.85L366.80-41.85Q366.32-42.78 365.42-43.16L365.42-43.16L365.42-43.16Q364.53-43.54 362.94-43.54L362.94-43.54L362.94-45.95L362.94-45.95Q364.67-45.95 365.94-46.16L365.94-46.16L365.94-46.16Q367.22-46.37 368.25-46.78L368.25-46.78L368.25-46.78Q369.29-47.20 370.15-47.75L370.15-47.75L370.15-47.75Q371.01-48.30 371.98-48.92L371.98-48.92L373.70-48.92ZM435.32-16.97L435.32-6.83L435.32-6.83Q435.32-5.45 435.77-4.55L435.77-4.55L435.77-4.55Q436.22-3.66 436.87-3.11L436.87-3.11L436.87-3.11Q437.53-2.55 438.39-2.31L438.39-2.31L438.39-2.31Q439.25-2.07 440.08-2.07L440.08-2.07L440.08 0L440.08 0Q438.50 0 437.36-0.28L437.36-0.28L437.36-0.28Q436.22-0.55 434.63-0.55L434.63-0.55L434.63-0.55Q433.04-0.55 431.87-0.48L431.87-0.48L431.87-0.48Q430.70-0.41 429.11 0L429.11 0L429.11-3.66L429.11-3.66Q427.52-1.86 425.32-0.45L425.32-0.45L425.32-0.45Q423.11 0.97 419.93 0.97L419.93 0.97L419.93 0.97Q417.38 0.97 415.28 0.28L415.28 0.28L415.28 0.28Q413.17-0.41 411.69-1.73L411.69-1.73L411.69-1.73Q410.21-3.04 409.38-4.86L409.38-4.86L409.38-4.86Q408.55-6.69 408.55-8.97L408.55-8.97L408.55-8.97Q408.55-11.18 409.41-12.94L409.41-12.94L409.41-12.94Q410.27-14.70 411.86-15.90L411.86-15.90L411.86-15.90Q413.45-17.11 415.59-17.77L415.59-17.77L415.59-17.77Q417.73-18.42 420.35-18.42L420.35-18.42L420.35-18.42Q423.32-18.42 425.42-17.84L425.42-17.84L425.42-17.84Q427.52-17.25 429.11-16.49L429.11-16.49L429.11-19.04L429.11-19.04Q429.11-20.84 428.87-22.63L428.87-22.63L428.87-22.63Q428.63-24.43 427.94-25.88L427.94-25.88L427.94-25.88Q427.25-27.32 425.94-28.22L425.94-28.22L425.94-28.22Q424.63-29.12 422.56-29.12L422.56-29.12L422.56-29.12Q421.66-29.12 420.59-28.91L420.59-28.91L420.59-28.91Q419.52-28.70 418.62-28.19L418.62-28.19L418.62-28.19Q417.73-27.67 417.11-26.81L417.11-26.81L417.11-26.81Q416.48-25.94 416.48-24.63L416.48-24.63L416.48-24.63Q416.48-23.94 416.69-23.05L416.69-23.05L416.69-23.05Q415.66-22.49 414.41-22.49L414.41-22.49L414.41-22.49Q412.48-22.49 411.59-23.56L411.59-23.56L411.59-23.56Q410.69-24.63 410.69-26.01L410.69-26.01L410.69-26.01Q410.69-27.39 411.62-28.46L411.62-28.46L411.62-28.46Q412.55-29.53 414.28-29.53L414.28-29.53L414.28-29.53Q414.28-30.29 414.97-30.84L414.97-30.84L414.97-30.84Q415.66-31.40 416.79-31.71L416.79-31.71L416.79-31.71Q417.93-32.02 419.31-32.15L419.31-32.15L419.31-32.15Q420.69-32.29 422.14-32.29L422.14-32.29L422.14-32.29Q425.25-32.29 427.70-31.57L427.70-31.57L427.70-31.57Q430.15-30.84 431.84-29.08L431.84-29.08L431.84-29.08Q433.53-27.32 434.42-24.39L434.42-24.39L434.42-24.39Q435.32-21.46 435.32-16.97L435.32-16.97ZM421.87-2.21L421.87-2.21L421.87-2.21Q424.28-2.21 426.08-3.62L426.08-3.62L426.08-3.62Q427.87-5.04 429.11-7.04L429.11-7.04L429.11-13.94L429.11-13.94Q427.52-14.70 425.59-15.21L425.59-15.21L425.59-15.21Q423.66-15.73 421.73-15.73L421.73-15.73L421.73-15.73Q418.97-15.73 417.00-14.08L417.00-14.08L417.00-14.08Q415.04-12.42 415.04-9.38L415.04-9.38L415.04-9.38Q415.04-6.21 416.90-4.21L416.90-4.21L416.90-4.21Q418.76-2.21 421.87-2.21ZM453.81-27.67L453.81-7.52L453.81-7.52Q453.81-3.93 454.19-1.73L454.19-1.73L454.19-1.73Q454.57 0.48 455.19 1.69L455.19 1.69L455.19 1.69Q455.81 2.90 456.61 3.31L456.61 3.31L456.61 3.31Q457.40 3.73 458.23 3.73L458.23 3.73L458.23 3.73Q459.20 3.73 459.85 3.52L459.85 3.52L459.85 3.52Q460.51 3.31 461.06 2.97L461.06 2.97L461.75 3.59L461.75 3.59Q460.99 5.38 459.71 6.24L459.71 6.24L459.71 6.24Q458.44 7.11 456.85 7.11L456.85 7.11L456.85 7.11Q454.85 7.11 453.50 6.28L453.50 6.28L453.50 6.28Q452.16 5.45 452.16 4.07L452.16 4.07L452.16 4.07Q449.33 4.07 448.47 1.66L448.47 1.66L448.47 1.66Q447.60-0.76 447.60-5.45L447.60-5.45L447.60-28.36L443.05-28.36L443.05-31.60L443.46-31.60L443.46-31.60Q445.33-31.60 446.67-32.46L446.67-32.46L446.67-32.46Q448.02-33.33 449.02-34.71L449.02-34.71L449.02-34.71Q450.02-36.09 450.74-37.85L450.74-37.85L450.74-37.85Q451.47-39.61 452.09-41.40L452.09-41.40L453.81-41.40L453.81-31.60L453.81-31.60Q456.30-31.67 457.92-31.98L457.92-31.98L457.92-31.98Q459.54-32.29 460.30-33.05L460.30-33.05L460.30-33.05Q461.89-32.78 462.37-31.91L462.37-31.91L462.37-31.91Q462.85-31.05 462.85-30.43L462.85-30.43L462.85-30.43Q462.85-29.60 462.33-29.01L462.33-29.01L462.33-29.01Q461.82-28.43 460.95-28.08L460.95-28.08L460.95-28.08Q460.09-27.74 458.99-27.60L458.99-27.60L458.99-27.60Q457.88-27.46 456.78-27.46L456.78-27.46L456.78-27.46Q455.26-27.46 453.81-27.67L453.81-27.67ZM475.34-16.63L475.34-6.83L475.34-6.83Q475.34-5.45 475.79-4.55L475.79-4.55L475.79-4.55Q476.24-3.66 476.89-3.11L476.89-3.11L476.89-3.11Q477.55-2.55 478.41-2.31L478.41-2.31L478.41-2.31Q479.27-2.07 480.10-2.07L480.10-2.07L480.10 0L480.10 0Q479.27 0 478.27-0.10L478.27-0.10L478.27-0.10Q477.27-0.21 476.17-0.35L476.17-0.35L476.17-0.35Q475.07-0.48 474.06-0.59L474.06-0.59L474.06-0.59Q473.06-0.69 472.24-0.69L472.24-0.69L472.24-0.69Q471.41-0.69 470.41-0.59L470.41-0.59L470.41-0.59Q469.41-0.48 468.30-0.35L468.30-0.35L468.30-0.35Q467.20-0.21 466.20-0.10L466.20-0.10L466.20-0.10Q465.20 0 464.37 0L464.37 0L464.37-2.07L464.37-2.07Q466.23-2.07 467.68-3.11L467.68-3.11L467.68-3.11Q469.13-4.14 469.13-6.83L469.13-6.83L469.13-42.57L469.13-42.57Q469.13-45.13 469.03-46.82L469.03-46.82L469.03-46.82Q468.92-48.51 468.44-49.44L468.44-49.44L468.44-49.44Q467.96-50.37 467.06-50.75L467.06-50.75L467.06-50.75Q466.16-51.13 464.58-51.13L464.58-51.13L464.58-52.85L464.58-52.85Q466.30-52.85 467.58-53.06L467.58-53.06L467.58-53.06Q468.86-53.27 469.89-53.68L469.89-53.68L469.89-53.68Q470.93-54.10 471.79-54.65L471.79-54.65L471.79-54.65Q472.65-55.20 473.62-55.82L473.62-55.82L475.34-55.82L475.34-26.77L475.34-26.77Q476.03-27.88 477.00-28.88L477.00-28.88L477.00-28.88Q477.96-29.88 479.27-30.64L479.27-30.64L479.27-30.64Q480.59-31.40 482.31-31.84L482.31-31.84L482.31-31.84Q484.04-32.29 486.31-32.29L486.31-32.29L486.31-32.29Q489.21-32.29 491.49-31.40L491.49-31.40L491.49-31.40Q493.76-30.50 495.32-28.53L495.32-28.53L495.32-28.53Q496.87-26.57 497.66-23.43L497.66-23.43L497.66-23.43Q498.46-20.29 498.46-15.80L498.46-15.80L498.46-7.59L498.46-7.59Q498.46-3.17 498.77-0.48L498.77-0.48L498.77-0.48Q499.08 2.21 499.59 3.66L499.59 3.66L499.59 3.66Q500.11 5.11 500.84 5.59L500.84 5.59L500.84 5.59Q501.56 6.07 502.32 6.07L502.32 6.07L502.32 6.07Q503.08 6.07 503.70 5.97L503.70 5.97L503.70 5.97Q504.32 5.87 505.08 5.31L505.08 5.31L505.43 5.59L505.43 5.59Q504.67 7.45 503.15 8.59L503.15 8.59L503.15 8.59Q501.63 9.73 499.84 9.73L499.84 9.73L499.84 9.73Q498.04 9.73 496.66 8.63L496.66 8.63L496.66 8.63Q495.28 7.52 495.28 5.66L495.28 5.66L495.28 5.66Q494.39 5.18 493.80 4.66L493.80 4.66L493.80 4.66Q493.21 4.14 492.87 3.17L492.87 3.17L492.87 3.17Q492.52 2.21 492.38 0.59L492.38 0.59L492.38 0.59Q492.25-1.04 492.25-3.73L492.25-3.73L492.25-14.28L492.25-14.28Q492.25-18.63 491.76-21.46L491.76-21.46L491.76-21.46Q491.28-24.29 490.38-25.98L490.38-25.98L490.38-25.98Q489.49-27.67 488.21-28.36L488.21-28.36L488.21-28.36Q486.93-29.05 485.42-29.05L485.42-29.05L485.42-29.05Q483.83-29.05 482.03-28.39L482.03-28.39L482.03-28.39Q480.24-27.74 478.76-26.25L478.76-26.25L478.76-26.25Q477.27-24.77 476.31-22.39L476.31-22.39L476.31-22.39Q475.34-20.01 475.34-16.63L475.34-16.63ZM521.92-2.14L521.92-2.14L521.92-2.14Q522.95-2.14 523.99-2.38L523.99-2.38L523.99-2.38Q525.02-2.62 525.95-3.28L525.95-3.28L525.95-3.28Q526.88-3.93 527.68-5.14L527.68-5.14L527.68-5.14Q528.47-6.35 529.09-8.35L529.09-8.35L529.09-8.35Q530.68-8.35 531.71-7.59L531.71-7.59L531.71-7.59Q532.75-6.83 532.75-5.24L532.75-5.24L532.75-5.24Q532.75-3.80 531.82-2.62L531.82-2.62L531.82-2.62Q530.89-1.45 529.33-0.66L529.33-0.66L529.33-0.66Q527.78 0.14 525.75 0.55L525.75 0.55L525.75 0.55Q523.71 0.97 521.50 0.97L521.50 0.97L521.50 0.97Q517.71 0.97 514.81-0.24L514.81-0.24L514.81-0.24Q511.91-1.45 509.98-3.62L509.98-3.62L509.98-3.62Q508.05-5.80 507.05-8.90L507.05-8.90L507.05-8.90Q506.05-12.01 506.05-15.73L506.05-15.73L506.05-15.73Q506.05-23.46 510.12-27.88L510.12-27.88L510.12-27.88Q514.19-32.29 521.71-32.29L521.71-32.29L521.71-32.29Q522.61-32.29 523.50-32.22L523.50-32.22L523.50-32.22Q524.40-32.15 525.16-31.91L525.16-31.91L525.16-31.91Q525.92-31.67 526.40-31.22L526.40-31.22L526.40-31.22Q526.88-30.77 526.88-30.08L526.88-30.08L526.88-30.08Q527.92-30.08 528.99-29.67L528.99-29.67L528.99-29.67Q530.06-29.26 530.99-28.43L530.99-28.43L530.99-28.43Q531.92-27.60 532.51-26.32L532.51-26.32L532.51-26.32Q533.09-25.05 533.09-23.25L533.09-23.25L533.09-23.25Q533.09-20.70 531.85-19.04L531.85-19.04L531.85-19.04Q530.61-17.39 528.71-16.39L528.71-16.39L528.71-16.39Q526.82-15.39 524.57-15.01L524.57-15.01L524.57-15.01Q522.33-14.63 520.33-14.63L520.33-14.63L520.33-14.63Q518.05-14.63 516.09-14.97L516.09-14.97L516.09-14.97Q514.12-15.32 512.74-15.80L512.74-15.80L512.74-15.53L512.74-15.53Q512.74-12.63 513.22-10.14L513.22-10.14L513.22-10.14Q513.71-7.66 514.77-5.90L514.77-5.90L514.77-5.90Q515.84-4.14 517.60-3.14L517.60-3.14L517.60-3.14Q519.36-2.14 521.92-2.14ZM521.16-29.05L521.16-29.05L521.16-29.05Q517.43-29.05 515.43-26.36L515.43-26.36L515.43-26.36Q513.43-23.67 512.88-18.91L512.88-18.91L512.88-18.91Q514.05-18.15 516.09-17.91L516.09-17.91L516.09-17.91Q518.12-17.66 519.98-17.66L519.98-17.66L519.98-17.66Q523.71-17.66 525.19-18.84L525.19-18.84L525.19-18.84Q526.68-20.01 526.68-22.91L526.68-22.91L526.68-22.91Q526.68-26.36 525.09-27.70L525.09-27.70L525.09-27.70Q523.50-29.05 521.16-29.05ZM549.17-13.94L549.17-6.83L549.17-6.83Q549.17-5.45 549.62-4.55L549.62-4.55L549.62-4.55Q550.07-3.66 550.72-3.11L550.72-3.11L550.72-3.11Q551.38-2.55 552.24-2.31L552.24-2.31L552.24-2.31Q553.10-2.07 553.93-2.07L553.93-2.07L553.93 0L553.93 0Q553.10 0 552.10-0.10L552.10-0.10L552.10-0.10Q551.10-0.21 550.00-0.35L550.00-0.35L550.00-0.35Q548.90-0.48 547.89-0.59L547.89-0.59L547.89-0.59Q546.89-0.69 546.07-0.69L546.07-0.69L546.07-0.69Q545.24-0.69 544.24-0.59L544.24-0.59L544.24-0.59Q543.24-0.48 542.13-0.35L542.13-0.35L542.13-0.35Q541.03-0.21 540.03-0.10L540.03-0.10L540.03-0.10Q539.03 0 538.20 0L538.20 0L538.20-2.07L538.20-2.07Q540.06-2.07 541.51-3.11L541.51-3.11L541.51-3.11Q542.96-4.14 542.96-6.83L542.96-6.83L542.96-18.35L542.96-18.35Q542.96-20.91 542.86-22.60L542.86-22.60L542.86-22.60Q542.75-24.29 542.27-25.22L542.27-25.22L542.27-25.22Q541.79-26.15 540.89-26.53L540.89-26.53L540.89-26.53Q539.99-26.91 538.41-26.91L538.41-26.91L538.41-28.64L538.41-28.64Q540.13-28.64 541.41-28.84L541.41-28.84L541.41-28.84Q542.69-29.05 543.72-29.46L543.72-29.46L543.72-29.46Q544.76-29.88 545.62-30.43L545.62-30.43L545.62-30.43Q546.48-30.98 547.45-31.60L547.45-31.60L549.17-31.60L549.17-24.43L549.17-24.43Q550.83-28.50 553.14-30.39L553.14-30.39L553.14-30.39Q555.45-32.29 557.87-32.29L557.87-32.29L557.87-32.29Q559.38-32.29 560.63-31.81L560.63-31.81L560.63-31.81Q561.87-31.33 561.87-30.15L561.87-30.15L561.87-30.15Q563.25-30.15 564.04-29.26L564.04-29.26L564.04-29.26Q564.83-28.36 564.83-26.77L564.83-26.77L564.83-26.77Q564.83-24.98 563.59-23.63L563.59-23.63L563.59-23.63Q562.35-22.29 559.45-21.74L559.45-21.74L559.45-21.74Q559.73-22.77 559.73-23.81L559.73-23.81L559.73-23.81Q559.73-26.29 558.59-27.46L558.59-27.46L558.59-27.46Q557.45-28.64 556.07-28.64L556.07-28.64L556.07-28.64Q554.97-28.64 553.76-27.50L553.76-27.50L553.76-27.50Q552.55-26.36 551.52-24.36L551.52-24.36L551.52-24.36Q550.48-22.36 549.83-19.70L549.83-19.70L549.83-19.70Q549.17-17.04 549.17-13.94L549.17-13.94Z" fill="#ffffff"></path></g></g><style>text {
  font-size: 64px;
  font-family: Arial Black;
  dominant-baseline: central;
  text-anchor: middle;
}</style></svg>